<svg id="Component_2_1" data-name="Component 2 – 1" xmlns="http://www.w3.org/2000/svg" width="215.892" height="195.894" viewBox="0 0 215.892 195.894">
  <defs>
    <style>
      .cls-1 {
        fill: #e8e1ff;
      }

      .cls-2 {
        fill: #d2bfff;
      }

      .cls-3 {
        fill: #f4f0ff;
      }

      .cls-4 {
        fill: #b7a5ef;
      }

      .cls-5 {
        fill: #363c89;
      }

      .cls-6 {
        fill: #d8702a;
      }

      .cls-7 {
        fill: #ffbb8e;
      }

      .cls-8 {
        fill: #ed7c2a;
      }

      .cls-9 {
        fill: #eaa27a;
      }

      .cls-10 {
        fill: #4b4df6;
      }

      .cls-11 {
        fill: #e28e60;
      }

      .cls-12 {
        fill: #241f3f;
      }

      .cls-13 {
        fill: #737aff;
      }

      .cls-14 {
        fill: #fff;
      }

      .cls-15 {
        fill: #ffc278;
      }

      .cls-16 {
        fill: #ffb583;
      }

      .cls-17 {
        fill: #a4adff;
      }
    </style>
  </defs>
  <g id="Group_481" data-name="Group 481" transform="translate(0 55.437)">
    <g id="Group_433" data-name="Group 433">
      <g id="Group_396" data-name="Group 396" transform="translate(5.516)">
        <path id="Path_313" data-name="Path 313" class="cls-1" d="M35.229,234.329c3.157-9.258,11.749-15.571,21.5-18.535,2.537-.771,5.259-1.122,7.54-2.437,5.455-3.147,7.116-10.134,7.271-16.255.865-34.24,35.025-38.87,41.583-38.264,26.013,2.4,22.512,22.61,37.711,33.888,9.821,7.287,25.22-4.276,36.085,1.4,9.22,4.815,9.189,18.447,17.619,24.451,6.05,4.309,10.724-1.636,21.023,7.543,13.253,11.813,16.824,44.383-1.536,63.028l-170.91.732C46.821,288.814,22.818,270.722,35.229,234.329Z" transform="translate(-31.719 -158.79)"/>
      </g>
      <g id="Group_406" data-name="Group 406" transform="translate(151.769 72.763)">
        <g id="Group_397" data-name="Group 397">
          <path id="Path_314" data-name="Path 314" class="cls-2" d="M347.388,355.832a167.719,167.719,0,0,1,18.122-24.947,24.044,24.044,0,0,0,5.048,8.891c.991-3.094-3.14-7.718-1.72-10.641.594-1.225,21.625-12.965,37.757-15.741a103.568,103.568,0,0,1-8.614,35.011c-2.085-1.216-5.682-.885-7.767-2.1,1.443,3.273,4.176,4.688,5.192,6.623-8.176,9.176-20.014,18.947-23.864,20.35-8.048,2.934-16.775.948-24.614-1.675-4.183-1.4-5.216-1.669-3.952-6.039A42.665,42.665,0,0,1,347.388,355.832Z" transform="translate(-342.472 -313.394)"/>
        </g>
        <g id="Group_399" data-name="Group 399" transform="translate(9.654 8.257)">
          <g id="Group_398" data-name="Group 398">
            <path id="Path_315" data-name="Path 315" class="cls-3" d="M363.87,381.943a185.066,185.066,0,0,1,45.207-50.1c.474-.363.006-1.181-.475-.812a186.284,186.284,0,0,0-45.545,50.437c-.318.518.5.991.813.475Z" transform="translate(-362.985 -330.938)"/>
          </g>
        </g>
        <g id="Group_401" data-name="Group 401" transform="translate(10.924 39.466)">
          <g id="Group_400" data-name="Group 400">
            <path id="Path_316" data-name="Path 316" class="cls-3" d="M365.8,398.073a16,16,0,0,1,3.773,9.425c.015.229.205.5.471.471a95.235,95.235,0,0,1,18.191-.583c.605.039.6-.9,0-.941a138.056,138.056,0,0,0-16.382.36c-1.24.067-1.2.178-1.492-.955a33.887,33.887,0,0,0-.851-3.33,17.334,17.334,0,0,0-3.044-5.111c-.39-.465-1.053.2-.665.665Z" transform="translate(-365.684 -397.251)"/>
          </g>
        </g>
        <g id="Group_403" data-name="Group 403" transform="translate(20.62 27.747)">
          <g id="Group_402" data-name="Group 402">
            <path id="Path_317" data-name="Path 317" class="cls-3" d="M386.353,373.052a26.6,26.6,0,0,1,3.476,10.3.482.482,0,0,0,.471.471,114.381,114.381,0,0,1,14.821.658c.6.066.6-.876,0-.941-2.461-.27-4.926-.475-7.4-.585q-1.854-.083-3.71-.1c-.76-.008-2.442.319-3.061-.144-.865-.648-1-3.794-1.39-4.944a28.026,28.026,0,0,0-2.395-5.185.471.471,0,0,0-.813.475Z" transform="translate(-386.285 -372.349)"/>
          </g>
        </g>
        <g id="Group_405" data-name="Group 405" transform="translate(33.044 16.376)">
          <g id="Group_404" data-name="Group 404">
            <path id="Path_318" data-name="Path 318" class="cls-3" d="M412.728,348.909a28.676,28.676,0,0,1,2.314,8.673.478.478,0,0,0,.6.454,139.177,139.177,0,0,1,16.816-3.773c.6-.1.343-1-.25-.907a139.112,139.112,0,0,0-16.816,3.773l.6.454a30.2,30.2,0,0,0-2.443-9.147c-.245-.553-1.056-.075-.813.475Z" transform="translate(-412.683 -348.188)"/>
          </g>
        </g>
      </g>
      <g id="Group_414" data-name="Group 414" transform="translate(128.349 23.639)">
        <g id="Group_407" data-name="Group 407">
          <path id="Path_319" data-name="Path 319" class="cls-4" d="M304.44,239.132c.595-6.516,1.508-13.167,4.553-18.959s8.629-10.635,15.155-11.117c6.411-.474,13.663,3.449,17.057,8.908s3.223,12.193,2.522,18.583c-.744,6.777-3.1,13.257-5.437,19.661-6.89,18.876-13.253,32.565-24.853,48.973-11.938,16.888-25.646,14.568-18.973,5.969C307.733,288.546,302.144,264.3,304.44,239.132Z" transform="translate(-292.711 -209.017)"/>
        </g>
        <g id="Group_409" data-name="Group 409" transform="translate(5.181 8.495)">
          <g id="Group_408" data-name="Group 408">
            <path id="Path_320" data-name="Path 320" class="cls-3" d="M304.613,328.571c6.9-10.253,11.573-22.145,15.741-33.714A270.359,270.359,0,0,0,332.571,249.8a132.543,132.543,0,0,0,2.22-22.282.471.471,0,0,0-.941,0c-.046,14.234-3.03,28.465-6.645,42.173a270.6,270.6,0,0,1-14.495,41.722A111.1,111.1,0,0,1,303.8,328.1c-.339.5.476.976.813.475Z" transform="translate(-303.719 -227.067)"/>
          </g>
        </g>
        <g id="Group_411" data-name="Group 411" transform="translate(22.077 11.021)">
          <g id="Group_410" data-name="Group 410">
            <path id="Path_321" data-name="Path 321" class="cls-3" d="M339.683,233.141c3.469,6.225,6.7,12.657,11.59,17.921a.478.478,0,0,0,.57.074c4.91-2.782,10.315-4.518,14.955-7.822.489-.349.02-1.165-.475-.813a53.173,53.173,0,0,1-7.6,4.311c-2.036.994-4.321,2.472-6.508,3.07-.81.221-.2.3-.818-.071a9.4,9.4,0,0,1-1.557-1.832,53.376,53.376,0,0,1-3.629-5.228c-2.036-3.284-3.833-6.71-5.713-10.084-.295-.529-1.108-.055-.813.475Z" transform="translate(-339.619 -232.434)"/>
          </g>
        </g>
        <g id="Group_413" data-name="Group 413" transform="translate(15.286 30.419)">
          <g id="Group_412" data-name="Group 412">
            <path id="Path_322" data-name="Path 322" class="cls-3" d="M325.355,274.422c5.068,3.928,9.14,9.123,13.611,13.684.313.319.8,1.033,1.272,1.155,1.118.291,3.492-1.586,4.439-2.115a54.506,54.506,0,0,0,11.851-8.787c.431-.426-.234-1.092-.665-.665a52.819,52.819,0,0,1-10.974,8.252c-.967.553-3.743,2.542-4.552,2.2-.665-.28-1.465-1.5-1.952-2.014-3.965-4.2-7.785-8.827-12.364-12.376-.473-.367-1.144.295-.665.665Z" transform="translate(-325.19 -273.649)"/>
          </g>
        </g>
      </g>
      <g id="Group_422" data-name="Group 422" transform="translate(0 68.573)">
        <g id="Group_415" data-name="Group 415">
          <path id="Path_323" data-name="Path 323" class="cls-4" d="M57.167,361.748c-6.391-2.467-19.886-8.232-16.014-12.346a8.686,8.686,0,0,1,6.048-1.277c1.13-1.394-1.036-3.046-2.728-3.644-4.513-1.6-21.823-7.058-17.18-11.973,1.522-1.824,7.729-1.242,7.434-1.509-5.085-4.611-7.932-7.445-11.911-13.562-2.522-3.878-4.684-11.584-.289-12.945,2.819-.062,5.076,2.275,6.671,4.6s4.232,6.518,7.074,9.2c-.129-2.085-1.192-13.129,4.788-10.608,3.737,1.575,5.42,12.593,8.587,16.646.424.542,1.109,1.13,1.709.8.372-.207.491-.671.672-1.056,1.085-2.31,4.833-1.8,6.356.248s1.573,4.788,1.894,7.32,1.239,5.354,3.581,6.371a8.786,8.786,0,0,1,1.72-4.106c1.014-1.108,2.893-1.577,4.023-.588a4.286,4.286,0,0,1,1.058,1.867c3.956,11.129,12.016,25.185,16.609,35.631C86.368,370.115,62.165,363.678,57.167,361.748Z" transform="translate(-20 -304.49)"/>
        </g>
        <g id="Group_417" data-name="Group 417" transform="translate(4.912 8.047)">
          <g id="Group_416" data-name="Group 416">
            <path id="Path_324" data-name="Path 324" class="cls-3" d="M30.545,322.417c17.53,22.313,39.811,40.235,61.916,57.776.47.373,1.14-.289.665-.665-22.105-17.542-44.386-35.463-61.916-57.777-.374-.476-1.036.194-.666.666Z" transform="translate(-30.436 -321.588)"/>
          </g>
        </g>
        <g id="Group_419" data-name="Group 419" transform="translate(11.805 13.334)">
          <g id="Group_418" data-name="Group 418">
            <path id="Path_325" data-name="Path 325" class="cls-3" d="M45.42,350.62a67.91,67.91,0,0,0,15.118,1.74.474.474,0,0,0,.454-.6c-2.317-5.962-4.9-12.249-5.843-18.6-.088-.6-1-.343-.907.25.939,6.353,3.526,12.64,5.843,18.6l.454-.6a66.692,66.692,0,0,1-14.868-1.707c-.59-.137-.841.77-.25.908Z" transform="translate(-45.083 -332.821)"/>
          </g>
        </g>
        <g id="Group_421" data-name="Group 421" transform="translate(25.911 25.02)">
          <g id="Group_420" data-name="Group 420">
            <path id="Path_326" data-name="Path 326" class="cls-3" d="M75.505,380.782c3.2.343,6.378.8,9.593.961,2.806.136,6.023.278,8.6-1.025a.478.478,0,0,0,.168-.644c-3.864-6.949-5.749-14.9-8.915-22.175-.241-.554-1.052-.075-.813.475,3.168,7.28,5.047,15.218,8.915,22.175l.169-.644c-2.742,1.384-6.383,1.026-9.346.823-2.8-.192-5.583-.588-8.376-.888-.6-.065-.6.877,0,.941Z" transform="translate(-75.055 -357.652)"/>
          </g>
        </g>
      </g>
      <g id="Group_432" data-name="Group 432" transform="translate(15.881 22.898)">
        <g id="Group_423" data-name="Group 423">
          <path id="Path_327" data-name="Path 327" class="cls-2" d="M116.074,298.047c-5.185-3.283-10.293-5.67-15.477-8.953-6.9-4.372-49.945-29.011-46.677-65.326.579-6.431,4.207-14.1,10.463-15.7,18.51-4.722,18.474,18.68,19.448,23.733,2.232,11.569,8.277,22.125,15.742,31.24s16.355,16.94,25.152,24.778c1.92,1.71,4.007,3.834,3.755,6.392a8.235,8.235,0,0,1-.9,2.652C125.274,301.738,119.656,300.315,116.074,298.047Z" transform="translate(-53.743 -207.442)"/>
        </g>
        <g id="Group_425" data-name="Group 425" transform="translate(11.173 6.158)">
          <g id="Group_424" data-name="Group 424">
            <path id="Path_328" data-name="Path 328" class="cls-3" d="M77.646,220.978a45.937,45.937,0,0,0,2.762,20.21,105.281,105.281,0,0,0,7.35,15.673,116.2,116.2,0,0,0,25.712,30.659,137.359,137.359,0,0,0,21.247,14.72.471.471,0,0,0,.475-.813c-23.266-13.175-42.884-32.993-52.931-58.041a58.91,58.91,0,0,1-3.058-9.049,45.685,45.685,0,0,1-.615-13.358c.047-.6-.894-.6-.941,0Z" transform="translate(-77.483 -220.526)"/>
          </g>
        </g>
        <g id="Group_427" data-name="Group 427" transform="translate(2.735 10.536)">
          <g id="Group_426" data-name="Group 426">
            <path id="Path_329" data-name="Path 329" class="cls-3" d="M59.694,234.932a57.091,57.091,0,0,0,10.53,8.608.476.476,0,0,0,.691-.281,36.391,36.391,0,0,1,6.666-12.609c.388-.46-.274-1.13-.665-.665a37.5,37.5,0,0,0-6.909,13.025l.691-.281a56.15,56.15,0,0,1-10.339-8.461.471.471,0,0,0-.665.665Z" transform="translate(-59.554 -229.828)"/>
          </g>
        </g>
        <g id="Group_429" data-name="Group 429" transform="translate(4.939 23.757)">
          <g id="Group_428" data-name="Group 428">
            <path id="Path_330" data-name="Path 330" class="cls-3" d="M64.478,266.35c2.92,1.419,5.8,2.919,8.712,4.354,1.368.674,2.737,1.355,4.135,1.967a4.268,4.268,0,0,0,1.868.637.489.489,0,0,0,.454-.346,122.239,122.239,0,0,1,4.183-14.474c.213-.568-.7-.813-.908-.25-1.183,3.144-2.084,6.394-2.949,9.636q-.5,1.881-.971,3.769c-.074.3-.144.6-.22.894-.018.073.5.06.065-.253a18.177,18.177,0,0,0-2.7-1.19c-1.32-.625-2.629-1.275-3.936-1.927-2.42-1.206-4.821-2.449-7.253-3.631-.542-.264-1.02.548-.475.813Z" transform="translate(-64.237 -257.919)"/>
          </g>
        </g>
        <g id="Group_431" data-name="Group 431" transform="translate(11.534 38.056)">
          <g id="Group_430" data-name="Group 430">
            <path id="Path_331" data-name="Path 331" class="cls-3" d="M78.5,297.689a99.988,99.988,0,0,0,16.151,5.652.479.479,0,0,0,.579-.329,73.346,73.346,0,0,0,2.092-14.258c.04-.6-.9-.6-.941,0a72.033,72.033,0,0,1-2.059,14.008l.579-.329a98.564,98.564,0,0,1-15.925-5.557c-.551-.238-1.03.573-.475.813Z" transform="translate(-78.25 -288.301)"/>
          </g>
        </g>
      </g>
    </g>
    <g id="Group_480" data-name="Group 480" transform="translate(13.348 12.982)">
      <g id="Group_468" data-name="Group 468" transform="translate(11.302)">
        <g id="Group_434" data-name="Group 434" transform="translate(0 55.743)">
          <path id="Path_332" data-name="Path 332" class="cls-5" d="M72.962,327.885c-.882-4.95-1.1-10.452,1.766-14.584,2.382-3.434,6.526-5.284,10.655-5.935,3.15-.5,41.116-3.58,42.506-2.2,1.287,1.28,5.272,3.636,6.868,10.268,1.915,7.959,7.717,41.913,6.082,49.022-4.531,1.128-47.841,1.347-54.579,1.408C85.985,363.345,74.4,335.951,72.962,327.885Z" transform="translate(-72.376 -304.814)"/>
        </g>
        <g id="Group_467" data-name="Group 467" transform="translate(4.452)">
          <g id="Group_446" data-name="Group 446" transform="translate(0 26.835)">
            <g id="Group_437" data-name="Group 437" transform="translate(62.776 18.333)">
              <g id="Group_435" data-name="Group 435">
                <path id="Path_333" data-name="Path 333" class="cls-6" d="M222.307,282.494c10.512,2.393,14.644,24.4,16.244,29.75a71.448,71.448,0,0,0,7.426,16.674c1.6,2.621,3.4,5.891,1.848,8.537a5.974,5.974,0,0,1-4.98,2.506c-3.854.179-7.574-1.76-10.325-4.465a36.807,36.807,0,0,1-6.447-9.554c-5.259-10.142-8.345-17.817-10.746-28.985C215.194,296.345,214.2,280.649,222.307,282.494Z" transform="translate(-215.219 -282.344)"/>
              </g>
              <g id="Group_436" data-name="Group 436" transform="translate(26.829 51.457)">
                <path id="Path_334" data-name="Path 334" class="cls-7" d="M275.348,400.133c1.344,1.37,7.073,2.068,7.544,1.741-.5-2.985-3.431-1.29-3.793-3.591a4.548,4.548,0,0,1,2.825-.435,2.164,2.164,0,0,1,1.8,1.5,9.738,9.738,0,0,1,.5,2.943c.188,1.3,1.508,2.251,1.509,1.422,0-1.523,0-3.874.005-5.4.376,1.355.641,5.633,2.466,5.229.444-2.047-.5-3.851-.511-5.946.518,1.778.511,5.946,2.335,5.355.074-1.911-.633-3.842-.559-5.753.409,1.686,1.057,5.338,2.065,4.75a15.279,15.279,0,0,0-.594-5.606c-.241-1.108-.182-2.18-.987-2.978-.495-.49-7.478-1.844-10.375-1.674-1.828.107-4.151-.173-5.3.741C269.793,395.988,273.843,398.6,275.348,400.133Z" transform="translate(-272.225 -391.677)"/>
              </g>
            </g>
            <g id="Group_438" data-name="Group 438" transform="translate(15.737 13.701)">
              <path id="Path_335" data-name="Path 335" class="cls-8" d="M121.712,298.663c2.391,11.629,10.285,13.116,11.756,24.9.981,7.862-2.306,17.6-4.543,25.2,18.167.639,36.561.307,49.987-.273-.491-11.009-4.889-25.63-3.87-36.6.585-6.292,1.974-12.13,1.082-18.386s-3.592-15.315-6.725-16.215c-6.091-1.75-11.209-3.327-18.227-4.09-3.065-.333-12.061-1.27-19.824-.177a57.016,57.016,0,0,0-10.758,2.31C109.01,280.026,119.643,288.6,121.712,298.663Z" transform="translate(-115.272 -272.503)"/>
            </g>
            <g id="Group_439" data-name="Group 439" transform="translate(36.629)">
              <path id="Path_336" data-name="Path 336" class="cls-9" d="M175.249,270.651c1.147-.085,6.071-8.883,5.7-9.971-1.321-3.025-3.766.028-4.556-2.214-.631-1.792,2.48-9.948.732-12.039-1.043-1.249-11.466-5.113-13.315-1.587-.872,1.662-4.143,9.117-4.143,11.055C159.663,257.023,172.035,270.888,175.249,270.651Z" transform="translate(-159.663 -243.391)"/>
            </g>
            <g id="Group_442" data-name="Group 442" transform="translate(0 16.513)">
              <g id="Group_440" data-name="Group 440" transform="translate(36.534 50.743)">
                <path id="Path_337" data-name="Path 337" class="cls-7" d="M184.483,389.583a23.77,23.77,0,0,1,2.615,5.727c.247.75.6,3.134.6,3.134-1.89.912-2.565-3.682-3.217-4.975-.192,1.421.083,6.716-.415,6.67-1.823-.452-1.627-4.432-1.491-6.339a22.016,22.016,0,0,1-.889,3.634,8,8,0,0,1-1.423,3.026c-1.17-.193-.386-3.855-.175-5.49a24.384,24.384,0,0,1-2.384,5.721c-1.18,0-1.076-1.7-.7-2.663s1.314-2.149.762-3.031c.115.848-1.606,2.069-2.43,2.3s-3.131-.57-3.954-.8c-3.928-1.118-13.028-.72-11.813-5.095.833-3,4.66-5.477,7.419-5.057,2.424.369,5.806,3.243,8.539,3.243C180.421,389.583,182.525,388.835,184.483,389.583Z" transform="translate(-159.461 -386.294)"/>
              </g>
              <g id="Group_441" data-name="Group 441">
                <path id="Path_338" data-name="Path 338" class="cls-6" d="M130.624,330.237c-4.926-2.789-25.439-11.792-25.617-12.244-.685-1.733,9.07-18.093,9.684-22.92s.521-9.052-2.932-12.48c-4.593-4.56-8.869-4.1-8.869-4.1a12.413,12.413,0,0,0-5.664,3.75c-2.311,2.239-3.644,5.275-4.921,8.229-3.771,8.717-7.559,17.486-9.788,26.718-.61,2.525-1.09,5.242-.16,7.666a10.265,10.265,0,0,0,3.185,4.086c5.432,4.5,12.832,5.578,19.825,6.487,7.251.944,14.773,3.049,22.025,3.992C128.883,339.614,132.186,331.121,130.624,330.237Z" transform="translate(-81.835 -278.478)"/>
              </g>
            </g>
            <g id="Group_443" data-name="Group 443" transform="translate(31.781 7.718)">
              <path id="Path_339" data-name="Path 339" class="cls-6" d="M149.363,266.818c-.006,1.928,1.526,3.759,2.331,5.51l4.083,8.888L161,274.378a24.34,24.34,0,0,0,8.977,6.242l4.86-6.283a28.775,28.775,0,0,0,2.6,5.658c.944-4.625,1.756-9.9-1.076-13.674a8.484,8.484,0,0,0-5.652-3.285c-.85,2.822,1.066,5.739,1.045,8.687-.017,2.4-1.3,4.574-2.548,6.62a49.51,49.51,0,0,1-4.679-3.354,6.043,6.043,0,0,1-1.882-2.14,16.907,16.907,0,0,0-.8-2.321,8.222,8.222,0,0,0-1.885-1.672,13.938,13.938,0,0,1-4.344-9.065C153.566,259.791,149.373,263.123,149.363,266.818Z" transform="translate(-149.363 -259.791)"/>
            </g>
            <g id="Group_445" data-name="Group 445" transform="translate(52.382 30.179)">
              <g id="Group_444" data-name="Group 444">
                <path id="Path_340" data-name="Path 340" class="cls-6" d="M193.148,308.1c2.611,12.247,5.049,24.7,4.318,37.282-.035.605.906.6.941,0,.736-12.665-1.724-25.208-4.351-37.532-.126-.592-1.034-.342-.908.25Z" transform="translate(-193.136 -307.513)"/>
              </g>
            </g>
          </g>
          <g id="Group_466" data-name="Group 466" transform="translate(34.681)">
            <g id="Group_447" data-name="Group 447" transform="translate(22.502 16.114)">
              <path id="Path_341" data-name="Path 341" class="cls-10" d="M203.49,226.108a8.078,8.078,0,0,0,.872,5.712c1.082,1.648,3.351,2.611,5.122,1.744,2.276-1.115,2.5-4.24,2.218-6.759a9.013,9.013,0,0,0-1.413-4.523C207.075,218.02,204.007,222.892,203.49,226.108Z" transform="translate(-203.335 -220.613)"/>
            </g>
            <g id="Group_448" data-name="Group 448" transform="translate(5.319 6.553)">
              <path id="Path_342" data-name="Path 342" class="cls-7" d="M168.91,223.807a14.035,14.035,0,0,0,10.208,7.847,7.214,7.214,0,0,0,5.1-.92,8.76,8.76,0,0,0,2.32-2.655,30.744,30.744,0,0,0,4.691-14.936c.189-4.16-.776-8.843-4.231-11.169-2.625-1.767-6.023-1.735-9.186-1.64a11.082,11.082,0,0,0-4.77.858,10.956,10.956,0,0,0-3.567,3.554C165.855,209.717,166.216,218.307,168.91,223.807Z" transform="translate(-166.824 -200.298)"/>
            </g>
            <g id="Group_450" data-name="Group 450" transform="translate(17.04 30.964)">
              <g id="Group_449" data-name="Group 449">
                <path id="Path_343" data-name="Path 343" class="cls-11" d="M191.873,252.963a4.724,4.724,0,0,0,5.031.971c.553-.225.312-1.137-.25-.908a3.8,3.8,0,0,1-4.114-.729c-.441-.414-1.108.25-.666.666Z" transform="translate(-191.728 -252.166)"/>
              </g>
            </g>
            <g id="Group_451" data-name="Group 451" transform="translate(0.969)">
              <path id="Path_344" data-name="Path 344" class="cls-12" d="M171.707,199.531a8.711,8.711,0,0,1,.434,1.68,3.186,3.186,0,0,0,5.84.691,3.724,3.724,0,0,1,.7-1.1c.753-.636,1.932-.1,2.584.642s1.07,1.894,2.032,2.106c2.773.611,3.41-1.329,3.841-3.12.419,1.259,3.333.794,4.22-.194a3.054,3.054,0,0,0-.017-3.687,6.674,6.674,0,0,0-3.249-2.2,3.821,3.821,0,0,1-1.294-.657c-1.293-1.18-.2-3.347-.587-5.053a3.334,3.334,0,0,0-4.705-1.895c-1.282.7-2.1,2.15-3.488,2.6-.041-.32-4.507-2.055-4.559-.86a6.286,6.286,0,0,0-4.907-.571,3.646,3.646,0,0,0-2.822,3.2,4.435,4.435,0,0,0-2.967.135,3.627,3.627,0,0,0-2.683,2.878,11.392,11.392,0,0,1-.081,1.492c-.3,1.254-1.843,1.693-2.215,2.8-.542,1.615.168,3.089.394,4.8.369,2.8-.209,5.236,3.374,5.016,2.375-.146,4.265,1.021,5.067-.926C167,206.39,169.213,194.719,171.707,199.531Z" transform="translate(-157.582 -186.374)"/>
            </g>
            <g id="Group_452" data-name="Group 452" transform="translate(0 15.15)">
              <path id="Path_345" data-name="Path 345" class="cls-10" d="M155.647,223.683a9.443,9.443,0,0,0,1.026,6.18c1.082,1.648,3.352,2.611,5.122,1.743,2.276-1.114,2.5-4.24,2.218-6.758a9.011,9.011,0,0,0-1.413-4.523C159.387,216.063,156.164,220.468,155.647,223.683Z" transform="translate(-155.523 -218.563)"/>
            </g>
            <g id="Group_454" data-name="Group 454" transform="translate(3.36 1.47)">
              <g id="Group_453" data-name="Group 453">
                <path id="Path_346" data-name="Path 346" class="cls-10" d="M164.651,204.95c.068-4.011.987-8.561,4.427-11.07A17.462,17.462,0,0,1,180.7,191a5.814,5.814,0,0,0-2.488-1.34,13.826,13.826,0,0,0-10.356,2.643c-3.934,2.894-5.122,8.008-5.2,12.646a1,1,0,0,0,1.989,0Z" transform="translate(-162.662 -189.496)"/>
              </g>
            </g>
            <g id="Group_456" data-name="Group 456" transform="translate(4.279 24.198)">
              <g id="Group_455" data-name="Group 455">
                <path id="Path_347" data-name="Path 347" class="cls-10" d="M164.622,238.38c.791,4.959,5,9.336,10.075,9.8.6.055.6-.887,0-.941-4.676-.426-8.448-4.593-9.168-9.107-.1-.6-1-.343-.908.25Z" transform="translate(-164.615 -237.789)"/>
              </g>
            </g>
            <g id="Group_457" data-name="Group 457" transform="translate(13.737 31.545)">
              <path id="Path_348" data-name="Path 348" class="cls-10" d="M189.135,255.611a2.213,2.213,0,1,1-2.212-2.212A2.213,2.213,0,0,1,189.135,255.611Z" transform="translate(-184.71 -253.399)"/>
            </g>
            <g id="Group_458" data-name="Group 458" transform="translate(19.776 21.244)">
              <path id="Path_349" data-name="Path 349" class="cls-11" d="M200.549,236.75a4.252,4.252,0,0,0,1.226,2.452c.2.2.445.429.418.7-.047.47-.762.555-1.27.469a10.517,10.517,0,0,1-2.957-.964.89.89,0,0,1-.226-.145.673.673,0,0,1-.172-.384,5.15,5.15,0,0,1,.553-2.4c.3-.889.206-5.282,1.722-4.956C201.548,231.9,200.421,235.74,200.549,236.75Z" transform="translate(-197.541 -231.512)"/>
            </g>
            <g id="Group_459" data-name="Group 459" transform="translate(1.023 17.149)">
              <path id="Path_350" data-name="Path 350" class="cls-13" d="M157.7,229.06a3.719,3.719,0,0,0,.873,2.791,2.009,2.009,0,0,0,2.962-.5,3.785,3.785,0,0,0,.346-1.611,15.553,15.553,0,0,0-.171-4.314c-.261-1.176-.972-2.451-2.167-2.6C157.645,222.577,157.683,227.938,157.7,229.06Z" transform="translate(-157.698 -222.811)"/>
            </g>
            <g id="Group_460" data-name="Group 460" transform="translate(16.968 20.941)">
              <path id="Path_351" data-name="Path 351" class="cls-12" d="M193.318,232.294c0,.788-.39,1.427-.87,1.427s-.871-.639-.871-1.427.39-1.426.871-1.426S193.318,231.507,193.318,232.294Z" transform="translate(-191.577 -230.868)"/>
            </g>
            <g id="Group_461" data-name="Group 461" transform="translate(25.191 21.326)">
              <ellipse id="Ellipse_1" data-name="Ellipse 1" class="cls-12" cx="0.87" cy="1.426" rx="0.87" ry="1.426"/>
            </g>
            <g id="Group_463" data-name="Group 463" transform="translate(14.723 17.784)">
              <g id="Group_462" data-name="Group 462">
                <path id="Path_352" data-name="Path 352" class="cls-12" d="M187.608,225.869a2.49,2.49,0,0,1,2.69-.6c.571.205.817-.7.25-.908a3.424,3.424,0,0,0-3.606.843c-.424.433.241,1.1.665.665Z" transform="translate(-186.806 -224.161)"/>
              </g>
            </g>
            <g id="Group_465" data-name="Group 465" transform="translate(25.101 18.311)">
              <g id="Group_464" data-name="Group 464">
                <path id="Path_353" data-name="Path 353" class="cls-12" d="M209.308,226.224a4.072,4.072,0,0,1,1.97.755c.5.349.967-.466.475-.813a5.016,5.016,0,0,0-2.445-.884c-.6-.059-.6.883,0,.941Z" transform="translate(-208.858 -225.28)"/>
              </g>
            </g>
          </g>
        </g>
      </g>
      <g id="Group_479" data-name="Group 479" transform="translate(0 48.292)">
        <g id="Group_471" data-name="Group 471" transform="translate(0 64.499)">
          <g id="Group_469" data-name="Group 469">
            <rect id="Rectangle_119" data-name="Rectangle 119" class="cls-4" width="195.322" height="8.622" rx="4.311"/>
          </g>
          <g id="Group_470" data-name="Group 470" transform="translate(9.804 8.622)">
            <path id="Rectangle_120" data-name="Rectangle 120" class="cls-2" d="M0,0H175.714a0,0,0,0,1,0,0V0a6.063,6.063,0,0,1-6.063,6.063H6.063A6.063,6.063,0,0,1,0,0V0A0,0,0,0,1,0,0Z"/>
          </g>
        </g>
        <g id="Group_478" data-name="Group 478" transform="translate(52.398)">
          <g id="Group_472" data-name="Group 472" transform="translate(35.262)">
            <path id="Path_354" data-name="Path 354" class="cls-10" d="M304.867,335.574H238.937a4.317,4.317,0,0,1-4.293-4.775L238.7,292.84a4.317,4.317,0,0,1,4.293-3.858H308.92a4.317,4.317,0,0,1,4.292,4.775l-4.052,37.958A4.317,4.317,0,0,1,304.867,335.574Z" transform="translate(-234.619 -288.982)"/>
          </g>
          <g id="Group_473" data-name="Group 473" transform="translate(37.749)">
            <path id="Path_355" data-name="Path 355" class="cls-5" d="M310.152,335.574H244.222a4.317,4.317,0,0,1-4.293-4.775l4.052-37.959a4.317,4.317,0,0,1,4.293-3.858H314.2a4.317,4.317,0,0,1,4.293,4.775l-4.053,37.958A4.317,4.317,0,0,1,310.152,335.574Z" transform="translate(-239.904 -288.982)"/>
          </g>
          <g id="Group_474" data-name="Group 474" transform="translate(70.758 27.23)">
            <path id="Path_356" data-name="Path 356" class="cls-10" d="M317.353,346.839H313a2.966,2.966,0,0,0-2.966,2.966v31.651h10.28V349.8A2.966,2.966,0,0,0,317.353,346.839Z" transform="translate(-310.039 -346.839)"/>
          </g>
          <g id="Group_475" data-name="Group 475" transform="translate(58.819 61.846)">
            <rect id="Rectangle_121" data-name="Rectangle 121" class="cls-5" width="33.162" height="2.653"/>
          </g>
          <g id="Group_476" data-name="Group 476" transform="translate(24.098 61.846)">
            <rect id="Rectangle_122" data-name="Rectangle 122" class="cls-10" width="39.033" height="2.653"/>
          </g>
          <g id="Group_477" data-name="Group 477" transform="translate(0 58.53)">
            <path id="Path_357" data-name="Path 357" class="cls-10" d="M167.925,413.345h-3.691a4.538,4.538,0,0,0-4.538,4.538,1.431,1.431,0,0,0,1.43,1.431h9.907a1.431,1.431,0,0,0,1.431-1.431A4.538,4.538,0,0,0,167.925,413.345Z" transform="translate(-159.696 -413.345)"/>
          </g>
        </g>
      </g>
    </g>
  </g>
  <g id="Group_488" data-name="Group 488" transform="translate(95.173)">
    <g id="Group_482" data-name="Group 482">
      <path id="Path_358" data-name="Path 358" class="cls-2" d="M264,74.331c-.39-2.595-2-4.853-2.606-7.406-1.186-5.018,1.69-10.213,1.065-15.332-.859-7.047-8.923-11.883-15.842-10.289-2.876.663-4.675,1.279-7.427.685-8.1-1.748-14.046,2.084-15.664,6.478-3.894,10.575,2.008,12.26,3.53,21.118.641,3.736-5.176,9.858,2.208,18.576A17.222,17.222,0,0,0,239.456,93.5a14.132,14.132,0,0,1-3.3,5.029s5.267-1.463,8.485-4.585C253.867,94.077,266.491,90.911,264,74.331Z" transform="translate(-222.221 -41)"/>
    </g>
    <g id="Group_487" data-name="Group 487" transform="translate(7.887 14.495)">
      <g id="Group_483" data-name="Group 483" transform="translate(0 1.073)">
        <path id="Path_359" data-name="Path 359" class="cls-10" d="M259.85,93.9l-2.485-3.088a2.037,2.037,0,0,0-2.865-.31l-.749.6a1.021,1.021,0,0,1-1.435-.155l-3.084-3.831-.368-.457L245.78,82.83a1.021,1.021,0,0,1,.155-1.435l.749-.6a2.037,2.037,0,0,0,.31-2.865l-2.485-3.088a2.038,2.038,0,0,0-2.865-.31l-.817.657a4.953,4.953,0,0,0-.753,6.965l1.935,2.4,3.724,4.626.368.457,3.724,4.626,1.935,2.4a4.953,4.953,0,0,0,6.965.753l.817-.657A2.038,2.038,0,0,0,259.85,93.9Z" transform="translate(-238.979 -74.079)"/>
      </g>
      <g id="Group_484" data-name="Group 484" transform="translate(11.642 5.614)">
        <path id="Path_360" data-name="Path 360" class="cls-14" d="M270.058,91.965a.447.447,0,0,1-.082-.008.47.47,0,0,1-.381-.545,5.59,5.59,0,0,0-.874-4.662,6.818,6.818,0,0,0-4.551-2.081.471.471,0,0,1-.455-.486.483.483,0,0,1,.485-.455,7.66,7.66,0,0,1,5.247,2.424,6.471,6.471,0,0,1,1.074,5.424A.471.471,0,0,1,270.058,91.965Z" transform="translate(-263.715 -83.728)"/>
      </g>
      <g id="Group_485" data-name="Group 485" transform="translate(12.427 2.757)">
        <path id="Path_361" data-name="Path 361" class="cls-14" d="M273.9,88.595l-.044,0a.47.47,0,0,1-.424-.513c.793-8.405-7.288-9.446-7.633-9.486a.47.47,0,0,1,.107-.935c.094.011,9.343,1.178,8.463,10.509A.471.471,0,0,1,273.9,88.595Z" transform="translate(-265.383 -77.656)"/>
      </g>
      <g id="Group_486" data-name="Group 486" transform="translate(13.545)">
        <path id="Path_362" data-name="Path 362" class="cls-14" d="M278.09,84.99a.471.471,0,0,1-.471-.468c-.063-9.609-9.105-11.709-9.49-11.793a.471.471,0,0,1,.2-.92c.1.022,10.162,2.336,10.23,12.707a.47.47,0,0,1-.467.473Z" transform="translate(-267.76 -71.799)"/>
      </g>
    </g>
  </g>
  <g id="Group_517" data-name="Group 517" transform="translate(143.788 7.509)">
    <g id="Group_489" data-name="Group 489">
      <path id="Path_363" data-name="Path 363" class="cls-15" d="M391.755,84.3c-2.657-2.828-6.741-3.663-10.241-5.338-5.118-2.45-9.065-6.772-12.7-11.132-3.955-4.748-8.938-10.782-15.648-10.876-7.009-.1-14.091,4.225-18.521,9.377-5.006,5.822-7.688,13.367-8.722,20.975-.764,5.626-.632,11.576,1.853,16.681a17.054,17.054,0,0,0,2.4,3.631c-1.1,1.962-2.734,4.34-4.66,5.414,0,0,5.147-.144,8.445-2.166a12.638,12.638,0,0,0,7.233,1.989c4.258-.2,8.488-2.708,12.569-1.474,2.038.616,3.683,2.085,5.4,3.347,6.488,4.777,15.427,6.853,22.784,3.567,8.625-3.853,12.937-13.994,13-23.44C394.974,91.088,394.336,87.048,391.755,84.3Z" transform="translate(-325.515 -56.955)"/>
    </g>
    <g id="Group_516" data-name="Group 516" transform="translate(14.904 21.092)">
      <g id="Group_490" data-name="Group 490" transform="translate(0 2.115)">
        <rect id="Rectangle_123" data-name="Rectangle 123" class="cls-14" width="35.48" height="25.783"/>
      </g>
      <g id="Group_499" data-name="Group 499" transform="translate(2.251)">
        <g id="Group_491" data-name="Group 491">
          <path id="Path_364" data-name="Path 364" class="cls-10" d="M362.671,106.607a.706.706,0,0,1-.706-.706v-3.425a.706.706,0,0,1,1.412,0V105.9A.706.706,0,0,1,362.671,106.607Z" transform="translate(-361.965 -101.77)"/>
        </g>
        <g id="Group_492" data-name="Group 492" transform="translate(4.224)">
          <path id="Path_365" data-name="Path 365" class="cls-10" d="M371.645,106.607a.706.706,0,0,1-.706-.706v-3.425a.706.706,0,0,1,1.412,0V105.9A.706.706,0,0,1,371.645,106.607Z" transform="translate(-370.939 -101.77)"/>
        </g>
        <g id="Group_493" data-name="Group 493" transform="translate(8.448)">
          <path id="Path_366" data-name="Path 366" class="cls-10" d="M380.62,106.607a.706.706,0,0,1-.706-.706v-3.425a.706.706,0,0,1,1.412,0V105.9A.706.706,0,0,1,380.62,106.607Z" transform="translate(-379.914 -101.77)"/>
        </g>
        <g id="Group_494" data-name="Group 494" transform="translate(12.672)">
          <path id="Path_367" data-name="Path 367" class="cls-10" d="M389.595,106.607a.706.706,0,0,1-.706-.706v-3.425a.706.706,0,0,1,1.412,0V105.9A.706.706,0,0,1,389.595,106.607Z" transform="translate(-388.889 -101.77)"/>
        </g>
        <g id="Group_495" data-name="Group 495" transform="translate(16.895)">
          <path id="Path_368" data-name="Path 368" class="cls-10" d="M398.569,106.607a.706.706,0,0,1-.706-.706v-3.425a.706.706,0,0,1,1.412,0V105.9A.706.706,0,0,1,398.569,106.607Z" transform="translate(-397.863 -101.77)"/>
        </g>
        <g id="Group_496" data-name="Group 496" transform="translate(21.119)">
          <path id="Path_369" data-name="Path 369" class="cls-10" d="M407.543,106.607a.706.706,0,0,1-.706-.706v-3.425a.706.706,0,0,1,1.412,0V105.9A.706.706,0,0,1,407.543,106.607Z" transform="translate(-406.837 -101.77)"/>
        </g>
        <g id="Group_497" data-name="Group 497" transform="translate(25.342)">
          <path id="Path_370" data-name="Path 370" class="cls-10" d="M416.517,106.607a.706.706,0,0,1-.706-.706v-3.425a.706.706,0,1,1,1.412,0V105.9A.706.706,0,0,1,416.517,106.607Z" transform="translate(-415.811 -101.77)"/>
        </g>
        <g id="Group_498" data-name="Group 498" transform="translate(29.566)">
          <path id="Path_371" data-name="Path 371" class="cls-10" d="M425.492,106.607a.706.706,0,0,1-.706-.706v-3.425a.706.706,0,0,1,1.412,0V105.9A.706.706,0,0,1,425.492,106.607Z" transform="translate(-424.786 -101.77)"/>
        </g>
      </g>
      <g id="Group_504" data-name="Group 504" transform="translate(10.107 8.008)">
        <g id="Group_500" data-name="Group 500">
          <rect id="Rectangle_124" data-name="Rectangle 124" class="cls-2" width="3.604" height="3.604"/>
        </g>
        <g id="Group_501" data-name="Group 501" transform="translate(5.651)">
          <rect id="Rectangle_125" data-name="Rectangle 125" class="cls-2" width="3.604" height="3.604"/>
        </g>
        <g id="Group_502" data-name="Group 502" transform="translate(11.301)">
          <rect id="Rectangle_126" data-name="Rectangle 126" class="cls-2" width="3.604" height="3.604"/>
        </g>
        <g id="Group_503" data-name="Group 503" transform="translate(16.952)">
          <rect id="Rectangle_127" data-name="Rectangle 127" class="cls-15" width="3.604" height="3.604"/>
        </g>
      </g>
      <g id="Group_510" data-name="Group 510" transform="translate(4.456 13.204)">
        <g id="Group_505" data-name="Group 505">
          <rect id="Rectangle_128" data-name="Rectangle 128" class="cls-15" width="3.604" height="3.604"/>
        </g>
        <g id="Group_506" data-name="Group 506" transform="translate(5.651)">
          <rect id="Rectangle_129" data-name="Rectangle 129" class="cls-2" width="3.604" height="3.604"/>
        </g>
        <g id="Group_507" data-name="Group 507" transform="translate(11.301)">
          <rect id="Rectangle_130" data-name="Rectangle 130" class="cls-2" width="3.604" height="3.604"/>
        </g>
        <g id="Group_508" data-name="Group 508" transform="translate(16.952)">
          <rect id="Rectangle_131" data-name="Rectangle 131" class="cls-2" width="3.604" height="3.604"/>
        </g>
        <g id="Group_509" data-name="Group 509" transform="translate(22.603)">
          <rect id="Rectangle_132" data-name="Rectangle 132" class="cls-15" width="3.604" height="3.604"/>
        </g>
      </g>
      <g id="Group_515" data-name="Group 515" transform="translate(4.456 18.401)">
        <g id="Group_511" data-name="Group 511">
          <rect id="Rectangle_133" data-name="Rectangle 133" class="cls-15" width="3.604" height="3.604"/>
        </g>
        <g id="Group_512" data-name="Group 512" transform="translate(5.651)">
          <rect id="Rectangle_134" data-name="Rectangle 134" class="cls-2" width="3.604" height="3.604"/>
        </g>
        <g id="Group_513" data-name="Group 513" transform="translate(11.301)">
          <rect id="Rectangle_135" data-name="Rectangle 135" class="cls-2" width="3.604" height="3.604"/>
        </g>
        <g id="Group_514" data-name="Group 514" transform="translate(16.952)">
          <rect id="Rectangle_136" data-name="Rectangle 136" class="cls-2" width="3.604" height="3.604"/>
        </g>
      </g>
    </g>
  </g>
  <g id="Group_522" data-name="Group 522" transform="translate(1.647 24.263)">
    <g id="Group_518" data-name="Group 518" transform="translate(0 0)">
      <path id="Path_372" data-name="Path 372" class="cls-16" d="M52.229,96.736c-9.452,6.882-21.025-.048-27.241,13.294-2.565,5.5-1.548,10.863,1.031,16.748,3,6.839,7.255,9.533,13.409,9.843,3.556.179,6.542-1.365,10-3.484,2.513,1.535,5.908,3.159,9.051,3.175a10.8,10.8,0,0,1-3.625-6.5c1.308-.76,2.711-1.522,4.245-2.25,9.6-4.561,13.033-.448,18.828-7.466C87.4,108.618,71.925,82.4,52.229,96.736Z" transform="translate(-23.5 -92.554)"/>
    </g>
    <g id="Group_521" data-name="Group 521" transform="translate(11.622 9.249)">
      <g id="Group_519" data-name="Group 519">
        <path id="Path_373" data-name="Path 373" class="cls-14" d="M75.6,113.575l3.687,13.1a1.891,1.891,0,0,1-1.306,2.329l-23.7,6.668a1.86,1.86,0,0,1-1.256-.084,1.88,1.88,0,0,1-1.073-1.222l-3.687-13.1a1.879,1.879,0,0,1,1.308-2.323l23.7-6.668a1.928,1.928,0,0,1,1.254.078A1.891,1.891,0,0,1,75.6,113.575Z" transform="translate(-48.194 -112.205)"/>
      </g>
      <g id="Group_520" data-name="Group 520" transform="translate(0.349)">
        <path id="Path_374" data-name="Path 374" class="cls-17" d="M68.162,122.849,79.4,128.282a1.9,1.9,0,0,1-1.028.727l-1.185.333-10.071-4.867L65.622,126.8a.972.972,0,0,1-.548.406.957.957,0,0,1-.674-.062l-2.492-1.2-6.049,9.4-2.441.249,6.755-10.5-11.237-5.433a1.889,1.889,0,0,1,1.03-.721l1.185-.334,13.316,6.439,8.011-12.44,1.186-.334a1.928,1.928,0,0,1,1.254.078Z" transform="translate(-48.935 -112.205)"/>
      </g>
    </g>
  </g>
  <g id="Group_527" data-name="Group 527" transform="translate(60.91 0.587)">
    <g id="Group_523" data-name="Group 523" transform="translate(0 0)">
      <path id="Path_375" data-name="Path 375" class="cls-17" d="M177.215,67.531c-.991-1.651-2.648-3.015-2.9-4.924a5.33,5.33,0,0,1,.251-2.773,12.34,12.34,0,0,0-4.111-14.912,13,13,0,0,0-13.068-1.581c-6.331,2.91-9.96,8.514-6.818,17.5.879,2.515,2.052,5.023,2.059,7.687.005,2.057-1.453,7.1,2.9,11.714a11.626,11.626,0,0,0,9.382,3.727,14.634,14.634,0,0,1,.372,6.722s4.2-3.514,4.526-7.85C180.051,79.311,178.742,70.074,177.215,67.531Z" transform="translate(-149.418 -42.247)"/>
    </g>
    <g id="Group_526" data-name="Group 526" transform="translate(6.713 11.734)">
      <g id="Group_524" data-name="Group 524" transform="translate(4.275 16.967)">
        <path id="Path_376" data-name="Path 376" class="cls-14" d="M174.444,103.229h0a1.68,1.68,0,0,0,0,3.361h0a1.68,1.68,0,1,0,0-3.361Z" transform="translate(-172.764 -103.229)"/>
      </g>
      <g id="Group_525" data-name="Group 525">
        <path id="Path_377" data-name="Path 377" class="cls-14" d="M174.163,68.891a6.217,6.217,0,0,0-4.6-1.712,6.009,6.009,0,0,0-4.443,1.692,6.213,6.213,0,0,0-1.257,1.775,1.828,1.828,0,0,0,1.231,2.592h0a1.553,1.553,0,0,0,1.631-1.031,3.649,3.649,0,0,1,.841-1.306,2.972,2.972,0,0,1,2.141-.826,2.837,2.837,0,0,1,2.111.792,2.609,2.609,0,0,1,.783,1.9,2.576,2.576,0,0,1-.442,1.462A15.487,15.487,0,0,1,170.4,76a8.172,8.172,0,0,0-1.962,2.437,7.731,7.731,0,0,0-.329,1.785,1.625,1.625,0,0,0,1.485,1.884h0a1.558,1.558,0,0,0,1.475-1.435,2.891,2.891,0,0,1,.175-.745,5.6,5.6,0,0,1,1.322-1.611,14.885,14.885,0,0,0,2.685-3.06,4.81,4.81,0,0,0,.628-2.382A5.469,5.469,0,0,0,174.163,68.891Z" transform="translate(-163.682 -67.179)"/>
      </g>
    </g>
  </g>
</svg>
