<svg xmlns="http://www.w3.org/2000/svg" width="785.654" height="533.881" viewBox="0 0 785.654 533.881">
  <g id="Group_557" data-name="Group 557" transform="translate(-363.313 -103.832)">
    <path id="Path_378" data-name="Path 378" d="M1111.83,636.576,690.9,636.431l-211.522-.073-11.776-.006-42.5-.009s-60.7-49.388-61.755-119.208c-2.072-137.573,87.9-75.607,75.68-241.411C427.874,124.426,719.3,42.842,877.543,158.431c57.531,42.024,62.046,71.5,144.719,62.181,93.323-10.519,103.956,102.992,71.293,165.915C1047.209,475.8,1222.069,461.138,1111.83,636.576Z" transform="translate(0 0)" fill="#ebf3fa"/>
    <g id="Group_528" data-name="Group 528" transform="translate(466.164 381.777)">
      <path id="Path_379" data-name="Path 379" d="M1133.6,1252.36l-114.17.147-222.493.289-12.406.015a.12.12,0,0,0,.01-.021l-29.359-.007-60.91.028c11.128-30.479,47.879-120.528,74.077-156.079a282.36,282.36,0,0,1,23.814-28.369c15.628-16.227,25.959-2.169,36.265,8.3.019.02.038.043.057.061,3.349,3.4,6.7,6.411,10.22,7.874,6.724,2.792,19.688-15.652,33.594-36.2q1.62-2.384,3.244-4.791v0c14.92-22.091,30.452-44.891,40.213-45.362,17.463-.846,31.975,15.262,44.12,37.946v0c26.87,50.184,44.678,80.724,51.295,89.319,10.792,14.02,22.057,31.475,33.144,19.779,6.112-6.447,12.024-11.6,17.228-11.716,9.261-.215,18.967,8.955,28.151,22.286l.006,0C1113.4,1190.267,1133.6,1252.36,1133.6,1252.36Z" transform="translate(-694.271 -998.211)" fill="#d4e1ff"/>
      <path id="Path_380" data-name="Path 380" d="M976.651,1218.075c-4.193-5.7-13.721,18.191-19.819,19.82s-.381-8.417-3.049-12.218-21.145,10.25-21.145,10.25a282.322,282.322,0,0,1,23.813-28.367c15.63-16.228,25.959-2.169,36.265,8.3.019.022.038.043.057.063C995.178,1218.409,980.843,1223.777,976.651,1218.075Z" transform="translate(-858.56 -1137.407)" fill="#fff"/>
      <path id="Path_381" data-name="Path 381" d="M1361.9,1036.188v0s-7.318-2.927-10.748-5.37,0,9.774-6.1,12.761-8.385-8.688-15.245-10.629-17.914,25.019-26.68,25.29-2.287-21.177-4.193-24.707-21.371,10.07-21.371,10.07v0c14.922-22.089,30.453-44.89,40.214-45.362C1335.248,997.4,1349.757,1013.5,1361.9,1036.188Z" transform="translate(-1096.298 -998.208)" fill="#fff"/>
      <path id="Path_382" data-name="Path 382" d="M1852.19,1450.751c-1.715,2.715,3.43,9.639-.953,9.909s-16.008-13.846-18.295-14.525-4.192,6.652-8.194,6.109c-1.826-.247-3.175-3.4-4.1-6.758,6.113-6.448,12.025-11.6,17.227-11.718,9.262-.214,18.969,8.957,28.151,22.288C1865.708,1455.85,1853.882,1448.072,1852.19,1450.751Z" transform="translate(-1470.604 -1298.407)" fill="#fff"/>
    </g>
    <g id="Group_529" data-name="Group 529" transform="translate(742.599 307.705)">
      <path id="Path_383" data-name="Path 383" d="M1715.267,876.666v222.613c0,12.4-9.7,22.457-21.671,22.457h-88.141c-11.968,0-21.668-10.055-21.668-22.457V872.653a49.877,49.877,0,0,1,28.191-45.327,13.263,13.263,0,0,0,7.418-12.066v-8.968h60.258v10a14.217,14.217,0,0,0,7.469,12.558A54.015,54.015,0,0,1,1715.267,876.666Z" transform="translate(-1583.787 -791.862)" fill="#aec3ff"/>
      <path id="Path_384" data-name="Path 384" d="M1726.7,1065.977v195.887c0,10.91-8.3,19.758-18.526,19.758h-75.366c-10.234,0-18.529-8.848-18.529-19.758v-199.42c0-1.488.068-2.963.208-4.413a65.288,65.288,0,0,1,32.563-.816c17.41,4.267,31.747-4.1,52.229-4.1,14.265,0,20.584,2.209,26.179,1.7A50.321,50.321,0,0,1,1726.7,1065.977Z" transform="translate(-1604.803 -961.982)" fill="#83a9ff"/>
      <path id="Rectangle_137" data-name="Rectangle 137" d="M17.247,0H49.369a16.4,16.4,0,0,1,16.4,16.4v.847a0,0,0,0,1,0,0H0a0,0,0,0,1,0,0v0A17.247,17.247,0,0,1,17.247,0Z" transform="translate(32.803)" fill="#f99746"/>
      <path id="Path_385" data-name="Path 385" d="M1907.319,910.8s-9.83-15.825-18.426-13.652-2.954,7.714,2.271,13.652,8.693,7.24,12.8,5S1908.709,912.852,1907.319,910.8Z" transform="translate(-1791.018 -854.343)" fill="#e3eeff"/>
    </g>
    <path id="Path_386" data-name="Path 386" d="M1532.692,640.2s6.2-13.8,21.011-12.263c0,0,21.509-22.994,44.446-3.066,0,0,24.382-4.938,42.438,4.275,12.039,6.143,16.015,12.586,16.015,12.586Z" transform="translate(-805.972 -353.515)" fill="#f8fcff"/>
    <path id="Path_387" data-name="Path 387" d="M808.595,420.068s13.209-30.878,44.8-27.448c0,0,45.858-51.466,94.76-6.862,0,0,51.982-11.052,90.479,9.569,25.667,13.748,34.145,28.171,34.145,28.171Z" transform="translate(-306.902 -181.776)" fill="#f8fcff"/>
    <path id="Path_388" data-name="Path 388" d="M2226.22,577.465s4.665-13.133,15.821-11.674c0,0,16.2-21.889,33.469-2.918,0,0,18.36-4.7,31.957,4.07,9.065,5.847,12.059,11.981,12.059,11.981Z" transform="translate(-1283.972 -311.053)" fill="#f8fcff"/>
    <path id="Path_389" data-name="Path 389" d="M1240.466,249.317s4.615-11.881,15.651-10.561c0,0,16.021-19.8,33.107-2.64,0,0,18.162-4.253,31.612,3.682,8.968,5.29,11.929,10.84,11.929,10.84Z" transform="translate(-604.561 -86.35)" fill="#f8fcff"/>
    <g id="Group_530" data-name="Group 530" transform="translate(923.126 292.698)">
      <path id="Path_390" data-name="Path 390" d="M2338.025,721.623c.03-.815.66-9.6,14.036-10.055,0,0-6.578.784-7.714,3.676,0,0,4.478-3.573,8.125-2.424s5.789,7.539,5.811,9.64-2,8.877-4.319,9.453a7.063,7.063,0,0,1-2.8,0,31.537,31.537,0,0,1,1.8,3.207c5.337,10.956-.167,21.662-4.685,20.48-2.9-.759-3.718,4.186-3.718,4.186L2316.4,737S2326.741,715.6,2338.025,721.623Z" transform="translate(-2269.254 -711.568)" fill="#2c3a64"/>
      <path id="Path_391" data-name="Path 391" d="M2194.33,1014.958c8.236-.814,18.011-2.263,21.9-4.661,5.928-3.62,16.193-18.823,22.528-29.91.181-.272.591-5.887.727-6.159,3.3-5.883,4.8-2.261,4.984-6.922a23.391,23.391,0,0,0-.769-7.422,18.926,18.926,0,0,0-3.349-6.7,3.368,3.368,0,0,0-.633-.769,15.622,15.622,0,0,0-4.3-3.665c-1.086-.453-2.263.09-3.484,1.4v.045a20.746,20.746,0,0,0-3.123,4.616c-.045.045-.091.09-.091.136-.226.407-.452.86-.724,1.357a1.137,1.137,0,0,0-.181.317q-.747,1.561-1.494,3.258c-5.566,12.128-9.756,32.182-14.689,37.658-2.126,2.353-13.594,5.288-21.333,8.728C2184.736,1008.714,2188.854,1015.547,2194.33,1014.958Z" transform="translate(-2180.519 -874.934)" fill="#ffb27d"/>
      <path id="Path_392" data-name="Path 392" d="M2354.441,1370.388l5.98,2.227s25.974-36.023,29.171-67.718a48.159,48.159,0,0,0-.854-16.2s.254-1.45.7-4.013c.2-1.2.458-2.636.747-4.286.845-4.838,2.006-11.458,3.335-19,3.056-17.346,7.015-39.52,10.091-55.822l-1.611-.517-17.434-5.624-3.6-11.444-12.981-3.417s-2.9,5.673-5.492,32.471c-.479,3.515-.913,7.391-1.24,11.595a229.5,229.5,0,0,0,1.235,46.941q.893,6.986,2.28,14.407a64.228,64.228,0,0,1,.5,14.227C2363.951,1330.123,2354.441,1370.388,2354.441,1370.388Z" transform="translate(-2295.472 -1037.577)" fill="#aec3ff"/>
      <path id="Path_393" data-name="Path 393" d="M2376.341,1225.85l28.189,56.041c.205-1.2.459-2.636.747-4.286.845-4.838,2.006-11.458,3.334-19,3.056-17.346,7.016-39.52,10.091-55.822l-1.611-.517-17.434-5.624-3.6-11.444-17.757-4.675S2376.341,1215.161,2376.341,1225.85Z" transform="translate(-2310.567 -1034.789)" fill="#94b0ed"/>
      <path id="Path_394" data-name="Path 394" d="M2416.245,1177.308l.653-5.6c10.932,2.9,40.144-8.114,40.144-8.114s10.592,9.31,9.2,31.626c-.679,10.893-1.919,57.179-3.213,70.875-.469,4.964-.878,8.5-1.046,9.907a.029.029,0,0,0,0,.014,1.954,1.954,0,0,0,.317,1.213,64.372,64.372,0,0,1,4.78,10.051c12.709,33.868-1.958,75.576-1.958,75.576l-3.806-1.534s-8.347-46.416-15.128-66.922a40.621,40.621,0,0,0-3.266-7.844c-2.948-4.759-5.685-12.535-8.169-21.783-4.694-17.486-8.473-40.232-10.987-57.789C2423.416,1207,2416.245,1177.308,2416.245,1177.308Z" transform="translate(-2338.07 -1023.121)" fill="#aec3ff"/>
      <path id="Path_395" data-name="Path 395" d="M2349.037,899.054A34.044,34.044,0,0,0,2361.628,902c18.8,1.03,23.063-15.447,23.839-26.383a15.761,15.761,0,0,0-6.449-.815c-.509.028-1.026.065-1.535.108a5.541,5.541,0,0,1-4.838-2.114c-2.146-2.75-4.653-7.642-6.315-14.437l-.811.376-13.562,6.376s1.44,4.414,2.5,8.636a44.413,44.413,0,0,1,1.016,5.006,2.979,2.979,0,0,1-1.8,3.093h0a.037.037,0,0,1,0,.015A93.108,93.108,0,0,0,2349.037,899.054Z" transform="translate(-2291.748 -812.743)" fill="#ffb27d"/>
      <path id="Path_396" data-name="Path 396" d="M2330.411,947.056c.142.376.3.742.469,1.118,4.76,10.252,13.572,52.722,13.572,52.722,2.706,8.211,57.384-1.5,57.535-8.451,2.065-7.372-7.328-19.216-12.625-25.157a16.861,16.861,0,0,1-1.777-2.392,16.675,16.675,0,0,1-2.4-7.011c-1.04-9.855-.644-19.091-.732-24.707h0c-1.035-.767-2.036-1.474-2.968-2.148a26.424,26.424,0,0,1-3.613-3,5.467,5.467,0,0,1-1.733-3.413,18.145,18.145,0,0,1,.073-2.861c.044-.454.1-.908.171-1.362a38.8,38.8,0,0,1,2.724-9.1c-5.043-2.041-14.012-.825-14.012-.825s.01.5.015,1.313c.029,3.276,0,11.688-1.05,13.279-1.313,1.982-25.338,10.667-26.607,7.977-1.25-2.646,2.172-15.042,2.3-15.51a.036.036,0,0,0,.005-.015c-8.045,3.159-10.921,5.809-10.921,5.809C2333.682,926.473,2326.662,937.112,2330.411,947.056Z" transform="translate(-2277.823 -848.413)" fill="#f99746"/>
      <path id="Path_397" data-name="Path 397" d="M2358.431,865.957s1.442,4.409,2.5,8.636c7.927-2.212,10.335-10.545,11.06-15.012Z" transform="translate(-2298.222 -813.583)" fill="#ed985f"/>
      <path id="Path_398" data-name="Path 398" d="M2326.314,818.617s18.966-4.389,16.051-16.159-2.43-20.262-14.663-17.957-13.464,7.377-13.447,11.542S2321.3,819.456,2326.314,818.617Z" transform="translate(-2267.774 -761.575)" fill="#ffb27d"/>
      <path id="Path_399" data-name="Path 399" d="M2308.95,784.6c2.039-4.266,4.439-4.038,5.94-3.282,8.912-8.245,17.653-1.509,17.653-1.509a23.159,23.159,0,0,0,10.656,11.449s-2.913,2.983-11.358,2.918a13.9,13.9,0,0,1-7.533-2.836,45.407,45.407,0,0,0,9.889,7.376c-10.571-2.023-17.66-14.261-18.386-15.561-.9,1.322-2.608,4.138-2.753,6.515-.2,3.231.916,9.5-.934,9.742C2312.124,799.414,2305.892,791,2308.95,784.6Z" transform="translate(-2263.537 -756.817)" fill="#2c3a64"/>
      <path id="Path_400" data-name="Path 400" d="M2317.185,952c-2.135,1.853-4.566,7.966-5.25,10.016,0,0,5.922-.228,8.313,4.327C2320.248,966.34,2320.268,949.321,2317.185,952Z" transform="translate(-2266.176 -877.082)" fill="#f99746"/>
      <path id="Path_401" data-name="Path 401" d="M2418.346,1026.359c11.565-.122,21.359-12.132,27.344-21.73a16.68,16.68,0,0,1-2.4-7.011c-1.04-9.855-.645-19.091-.732-24.707h0c-1.035-.767-2.036-1.474-2.968-2.148a26.432,26.432,0,0,1-3.612-3C2426.5,983.772,2402.665,1026.525,2418.346,1026.359Z" transform="translate(-2335.928 -888.146)" fill="#ed7d2b"/>
      <path id="Path_402" data-name="Path 402" d="M2502.312,1777.148h30.118s.722-4.59-.852-8.073c-1.507-3.342-3.868-4.86-3.3-8.9a10.846,10.846,0,0,1-9.387,3.591c-.534.865-3.444,5.494-5.226,6.774C2511.694,1771.952,2502.918,1771.448,2502.312,1777.148Z" transform="translate(-2397.39 -1434.298)" fill="#2b478b"/>
      <path id="Path_403" data-name="Path 403" d="M2294.223,1780.144h30.118s1.126-4.8-.851-8.073c-1.75-2.892-1.079-4.54.217-6.932a11.713,11.713,0,0,1-5.073.955,10.619,10.619,0,0,1-4.479-1.575c-1.3,1.477-6.846,7.768-8.581,9.014C2303.605,1774.948,2294.829,1774.444,2294.223,1780.144Z" transform="translate(-2253.968 -1437.294)" fill="#2b478b"/>
      <path id="Path_404" data-name="Path 404" d="M2281.34,996.969l1.211,4.674s15.041-3.154,18.344-3.878h.045c5.656-1.358,11.992-2.986,17.332-4.8a47.6,47.6,0,0,0,9.232-4.118,5.579,5.579,0,0,0,.634-.453c5.295-3.846,11.585-15.159,16.472-27.287.679-1.674,1.312-3.349,1.946-4.978a123.741,123.741,0,0,0,5.159-17.2,48.6,48.6,0,0,0,1.222-8.191,19.949,19.949,0,0,0,.045-2.308c-.09-13.123-6.607-14.933-6.607-14.933-.135-.045-.271-.091-.452-.135-1.131-.181-2.308.588-3.53,2.082a41.093,41.093,0,0,0-4.842,8.552c-2.579,5.838-5.294,13.4-7.829,20.908-1.4,4.118-2.76,8.236-4.118,12.037-.769,2.308-1.539,4.48-2.263,6.471a62.348,62.348,0,0,1-3.8,8.824c-.724,1.267-2.806,3.032-5.566,5.023C2309.178,980.749,2281.34,996.969,2281.34,996.969Z" transform="translate(-2245.089 -850.635)" fill="#ffb27d"/>
      <path id="Path_405" data-name="Path 405" d="M2457.908,924.592c8.712-2.4,16.788,3.908,16.788,3.908-.109-13.1-6.631-14.9-6.631-14.9C2465.441,912.517,2461.044,917.554,2457.908,924.592Z" transform="translate(-2366.785 -850.715)" fill="#f99746"/>
      <path id="Path_406" data-name="Path 406" d="M2259.674,1176.977s-7.657,2.986-9.141,4.147-4.331,4.958-4.842,6.96c0,0,.027.82.789.819s2.479-2.934,3.734-2.464c0,0-1.6,3.884-2.535,4.867s-1.475,5.929-1.284,7,6.64-4.046,9.342-6.372c1.438-1.239,1.4-4.246,1.842-7.642.391-2.98,8.616-4.7,8.616-4.7Z" transform="translate(-2220.519 -1032.342)" fill="#ffb27d"/>
      <path id="Path_407" data-name="Path 407" d="M2167.712,1156.175s-3.908,3.59-2.835,7.464,5.228,4.333,5.9,2.291S2169.743,1155.459,2167.712,1156.175Z" transform="translate(-2164.691 -1017.975)" fill="#ffb27d"/>
    </g>
    <g id="Group_531" data-name="Group 531" transform="translate(880.894 336.46)">
      <path id="Path_408" data-name="Path 408" d="M2028.8,878.233c0-8.787,14.569-25.846,14.569-25.846s14.569,17.059,14.569,25.846-6.523,15.91-14.569,15.91S2028.8,887.02,2028.8,878.233Z" transform="translate(-2028.796 -852.387)" fill="#83a9ff"/>
      <path id="Path_409" data-name="Path 409" d="M2043.414,936.863a6.03,6.03,0,0,1-.286-2.444c.17-3.85,3.724-5.926,6.553-3.311a10.642,10.642,0,0,1,1.952,2.689c1.1,2.666.629,5.071-1.812,6.076A5.015,5.015,0,0,1,2043.414,936.863Z" transform="translate(-2038.667 -905.84)" fill="#ccdcff"/>
    </g>
    <g id="Group_532" data-name="Group 532" transform="translate(573.723 274.748)">
      <path id="Path_410" data-name="Path 410" d="M1040.374,714.146c0-20.513,34.011-60.338,34.011-60.338s34.011,39.825,34.011,60.338-15.227,37.142-34.011,37.142S1040.374,734.659,1040.374,714.146Z" transform="translate(-1040.374 -653.809)" fill="#83a9ff"/>
      <path id="Path_411" data-name="Path 411" d="M1074.5,851.016a14.067,14.067,0,0,1-.667-5.706c.4-8.986,8.693-13.834,15.3-7.729a24.853,24.853,0,0,1,4.556,6.277c2.56,6.224,1.468,11.839-4.231,14.183S1077.061,857.24,1074.5,851.016Z" transform="translate(-1063.417 -778.593)" fill="#ccdcff"/>
    </g>
    <g id="Group_534" data-name="Group 534" transform="translate(626.032 169.224)">
      <rect id="Rectangle_138" data-name="Rectangle 138" width="65.353" height="10.696" transform="translate(100.688 362.32)" fill="#2b478b"/>
      <g id="Group_533" data-name="Group 533" transform="translate(42.308)">
        <path id="Path_412" data-name="Path 412" d="M1372.265,776.9h-27.428V433.69a119.438,119.438,0,1,1,238.876,0v28.276h-27.429V433.69a92.01,92.01,0,0,0-184.019,0Z" transform="translate(-1344.836 -314.252)" fill="#233862"/>
      </g>
      <path id="Rectangle_139" data-name="Rectangle 139" d="M0,0H15.189A17.208,17.208,0,0,1,32.4,17.208v0A17.208,17.208,0,0,1,15.189,34.416H0a0,0,0,0,1,0,0V0A0,0,0,0,1,0,0Z" transform="translate(71.791 350.459)" fill="#233862"/>
      <path id="Path_413" data-name="Path 413" d="M1683.43,1482.387l-58.9-2.473a7.535,7.535,0,0,1-7.218-7.528v-5.262a7.535,7.535,0,0,1,7.312-7.531l58.9-1.74a7.535,7.535,0,0,1,7.757,7.531v9.475A7.534,7.534,0,0,1,1683.43,1482.387Z" transform="translate(-1490.323 -1102.454)" fill="#f99746"/>
      <path id="Rectangle_140" data-name="Rectangle 140" d="M24.944,0h0A22.931,22.931,0,0,1,47.875,22.931V131.837a0,0,0,0,1,0,0H0a0,0,0,0,1,0,0V24.944A24.944,24.944,0,0,1,24.944,0Z" transform="translate(32.085 330.809)" fill="#2b478b"/>
      <path id="Rectangle_141" data-name="Rectangle 141" d="M9.838,0h92.368a9.839,9.839,0,0,1,9.839,9.839v0a0,0,0,0,1,0,0H0a0,0,0,0,1,0,0v0A9.838,9.838,0,0,1,9.838,0Z" transform="translate(0 456.315)" fill="#163560"/>
      <rect id="Rectangle_142" data-name="Rectangle 142" width="37.04" height="12.045" rx="6.023" transform="translate(248.95 138.481)" fill="#060633"/>
    </g>
    <g id="Group_535" data-name="Group 535" transform="translate(835.923 387.765)">
      <path id="Path_414" data-name="Path 414" d="M1904.708,1017.477h112.834l-9.465,231.931-97.575-1.351Z" transform="translate(-1898.299 -1017.477)" fill="#ccdbfd"/>
      <path id="Path_415" data-name="Path 415" d="M2015.758,1212.641l-4.349,139.018c-.21,6.674-4.843,11.96-10.486,11.96h-72.8c-5.956,0-10.858-5.553-11.119-12.6l-5.662-152.08c8.873-2.166,26.375-3.758,47.254,8.366C1976.3,1217.584,1999.514,1215.856,2015.758,1212.641Z" transform="translate(-1902.874 -1141.509)" fill="#a6c6ff"/>
      <rect id="Rectangle_143" data-name="Rectangle 143" width="117.141" height="1.477" transform="translate(2.101)" fill="#83a9ff"/>
      <path id="Path_416" data-name="Path 416" d="M2005.534,1018.092l-7.542,241.015a6.751,6.751,0,0,1-6.748,6.54H1893.3l-9.215-247.555h6.409l1.628,44.2.433,11.743,5.663,153.451c.26,7.114,5.165,12.714,11.119,12.714h72.795c5.643,0,10.277-5.331,10.486-12.066l4.35-140.271,1.008-32.515,1.156-37.256Z" transform="translate(-1884.086 -1017.901)" fill="#2b478b"/>
      <path id="Path_417" data-name="Path 417" d="M2190.566,1048.829s-.2-5.054-6.862-5.054c-10.747,0-10.292,36.931-6.66,41.169s10.83,1.923,12.109-.4C2194.093,1075.561,2190.566,1048.829,2190.566,1048.829Z" transform="translate(-2084.399 -1035.602)" fill="#e3eeff"/>
      <path id="Path_418" data-name="Path 418" d="M2159.8,1613.068c-.294-1.992-.854-5.866-4.443-6.721s-7.538,3.417-9.578,10.423-12.463,11.79-9.217,17.94,13.564,4.2,16.382,1.867C2158.092,1632.318,2160.652,1618.833,2159.8,1613.068Z" transform="translate(-2057.672 -1423.269)" fill="#e3eeff"/>
      <path id="Path_419" data-name="Path 419" d="M2095.742,1201.064s-13.118-3.278-15.54-9.51,1.968-9.767,6.509-8.378,2.472,7.292,5.752,12.59Z" transform="translate(-2018.781 -1131.475)" fill="#a6c6ff"/>
    </g>
    <g id="Group_549" data-name="Group 549" transform="translate(747.379 536.892)">
      <g id="Group_537" data-name="Group 537" transform="translate(31.932 44.315)">
        <path id="Path_420" data-name="Path 420" d="M1705.9,1652.2c3.259,1.32,14.9.252,15.278-.678s-7.237-9.8-10.5-11.122a6.366,6.366,0,0,0-4.782,11.8Z" transform="translate(-1701.919 -1639.937)" fill="#a8d29f"/>
        <path id="Path_421" data-name="Path 421" d="M1804.481,1690.521c-1.83,3-2.656,14.664-1.8,15.187s10.842-5.56,12.672-8.562a6.366,6.366,0,0,0-10.873-6.625Z" transform="translate(-1771.134 -1672.696)" fill="#a8d29f"/>
        <path id="Path_422" data-name="Path 422" d="M1748.9,1743.161c3.35,1.069,14.877-.882,15.182-1.838s-7.963-9.222-11.312-10.292a6.366,6.366,0,1,0-3.87,12.13Z" transform="translate(-1731.245 -1702.513)" fill="#a8d29f"/>
        <g id="Group_536" data-name="Group 536" transform="translate(18.86 11.321)">
          <path id="Path_423" data-name="Path 423" d="M1778.36,1716.979c-.011-.265-1.3-26.659-15.752-40.287l.308-.326c14.585,13.754,15.88,40.328,15.892,40.594Z" transform="translate(-1762.608 -1676.366)" fill="#a8d29f"/>
        </g>
      </g>
      <g id="Group_539" data-name="Group 539" transform="translate(87.97 49.066)">
        <path id="Path_424" data-name="Path 424" d="M1945.253,1663.31c-2.029,1.347-10.082,2.234-10.467,1.654s3.557-7.656,5.587-9a4.411,4.411,0,1,1,4.88,7.35Z" transform="translate(-1918.438 -1655.223)" fill="#a8d29f"/>
        <path id="Path_425" data-name="Path 425" d="M1889.881,1703.337c1.657,1.785,3.832,9.589,3.323,10.062s-8.131-2.275-9.788-4.06a4.411,4.411,0,0,1,6.466-6Z" transform="translate(-1882.237 -1687.413)" fill="#a8d29f"/>
        <path id="Path_426" data-name="Path 426" d="M1927.812,1731.014c-2.126,1.189-10.223,1.46-10.562.853s4.13-7.364,6.256-8.553a4.411,4.411,0,1,1,4.306,7.7Z" transform="translate(-1906.357 -1701.766)" fill="#a8d29f"/>
        <g id="Group_538" data-name="Group 538" transform="translate(10.701 9.546)">
          <path id="Path_427" data-name="Path 427" d="M1917.476,1715.652c-.029-.181-2.807-18.28,5.119-29.533l-.254-.179c-8,11.356-5.2,29.578-5.172,29.76Z" transform="translate(-1916.672 -1685.94)" fill="#a8d29f"/>
        </g>
      </g>
      <g id="Group_542" data-name="Group 542" transform="translate(52.492)">
        <g id="Group_540" data-name="Group 540" transform="translate(13.623 13.266)">
          <path id="Path_428" data-name="Path 428" d="M1830.966,1621.471l-.919-.146c-3.622-46.856-17.93-80.481-18.131-80.937l.837-.362C1812.953,1540.489,1827.366,1574.334,1830.966,1621.471Z" transform="translate(-1811.916 -1540.026)" fill="#a8d29f"/>
        </g>
        <g id="Group_541" data-name="Group 541">
          <path id="Path_429" data-name="Path 429" d="M1778,1508.222c1.764,2,10.027,5.215,10.6,4.711s-1.595-9.1-3.359-11.1a4.828,4.828,0,1,0-7.239,6.389Z" transform="translate(-1774.084 -1499.311)" fill="#fff"/>
          <path id="Path_430" data-name="Path 430" d="M1815.717,1499.282c-1.593,2.138-3.041,10.885-2.43,11.34s8.578-3.432,10.172-5.57a4.828,4.828,0,1,0-7.742-5.77Z" transform="translate(-1799.139 -1497.339)" fill="#fff"/>
          <path id="Path_431" data-name="Path 431" d="M1826.618,1533.174c-2.572-.7-11.243,1.151-11.443,1.885s6.332,6.729,8.9,7.43a4.828,4.828,0,0,0,2.539-9.316Z" transform="translate(-1800.536 -1521.931)" fill="#fff"/>
          <path id="Path_432" data-name="Path 432" d="M1811.81,1548.585c-.256-2.654-5.062-10.1-5.819-10.031s-4.047,8.306-3.791,10.96a4.828,4.828,0,1,0,9.61-.929Z" transform="translate(-1791.586 -1525.745)" fill="#fff"/>
          <path id="Path_433" data-name="Path 433" d="M1775.151,1547.7c2.361-1.239,7.446-8.5,7.092-9.176s-9.22-.612-11.58.627a4.828,4.828,0,1,0,4.488,8.549Z" transform="translate(-1768.078 -1525.43)" fill="#fff"/>
          <path id="Path_434" data-name="Path 434" d="M1808.561,1535.694a1.59,1.59,0,1,1,1.321,1.82A1.591,1.591,0,0,1,1808.561,1535.694Z" transform="translate(-1795.966 -1522.851)" fill="#163560"/>
        </g>
        <path id="Path_435" data-name="Path 435" d="M1861.92,1641.783c-2.623,3.226-5.455,16.76-4.534,17.509s13.594-4.783,16.217-8.009a7.529,7.529,0,1,0-11.683-9.5Z" transform="translate(-1829.509 -1594.979)" fill="#a8d29f"/>
      </g>
      <g id="Group_545" data-name="Group 545" transform="translate(4.536 37.702)">
        <g id="Group_543" data-name="Group 543" transform="translate(8.684 9.357)">
          <path id="Path_436" data-name="Path 436" d="M1661.463,1701.212l-.623-.016c-6.516-30.774-18.961-51.83-19.134-52.115l.524-.313C1642.4,1649.056,1654.937,1670.249,1661.463,1701.212Z" transform="translate(-1641.706 -1648.767)" fill="#a8d29f"/>
        </g>
        <g id="Group_544" data-name="Group 544">
          <path id="Path_437" data-name="Path 437" d="M1617.185,1629.874c1.346,1.172,7.111,2.58,7.445,2.2s-1.857-5.9-3.2-7.071a3.231,3.231,0,1,0-4.243,4.875Z" transform="translate(-1615.357 -1622.482)" fill="#fff"/>
          <path id="Path_438" data-name="Path 438" d="M1642.833,1620.316c-.87,1.558-1.062,7.49-.617,7.738s5.391-3.031,6.261-4.589a3.231,3.231,0,1,0-5.644-3.149Z" transform="translate(-1633.214 -1618.659)" fill="#fff"/>
          <path id="Path_439" data-name="Path 439" d="M1651.16,1641.122c-1.769-.239-7.359,1.751-7.428,2.256s4.792,3.91,6.561,4.149a3.231,3.231,0,0,0,.867-6.4Z" transform="translate(-1634.418 -1634.127)" fill="#fff"/>
          <path id="Path_440" data-name="Path 440" d="M1644.286,1653.947c-.4-1.739-4.246-6.261-4.742-6.145s-1.956,5.867-1.553,7.605a3.231,3.231,0,1,0,6.3-1.46Z" transform="translate(-1630.413 -1638.744)" fill="#fff"/>
          <path id="Path_441" data-name="Path 441" d="M1618.858,1654.947c1.458-1.029,4.194-6.3,3.9-6.711s-6.171.4-7.629,1.433a3.231,3.231,0,0,0,3.729,5.279Z" transform="translate(-1613.762 -1638.968)" fill="#fff"/>
          <path id="Path_442" data-name="Path 442" d="M1639.288,1646.094a1.064,1.064,0,1,1,1.035,1.092A1.064,1.064,0,0,1,1639.288,1646.094Z" transform="translate(-1631.355 -1636.854)" fill="#163560"/>
        </g>
        <path id="Path_443" data-name="Path 443" d="M1687.347,1709.984c-1.458,2.371-2.149,11.6-1.472,12.016s8.6-4.367,10.058-6.738a5.039,5.039,0,1,0-8.586-5.278Z" transform="translate(-1663.284 -1679.948)" fill="#a8d29f"/>
      </g>
      <g id="Group_548" data-name="Group 548" transform="translate(118.573 11.087)">
        <g id="Group_546" data-name="Group 546" transform="translate(13.809 11.814)">
          <path id="Path_444" data-name="Path 444" d="M2025.147,1643.566l.819-.131c3.226-41.729,15.968-71.675,16.147-72.083l-.746-.322C2041.189,1571.443,2028.353,1601.585,2025.147,1643.566Z" transform="translate(-2025.147 -1571.031)" fill="#a8d29f"/>
        </g>
        <g id="Group_547" data-name="Group 547" transform="translate(16.509)">
          <path id="Path_445" data-name="Path 445" d="M2086.443,1542.708c-1.572,1.78-8.93,4.644-9.438,4.2s1.42-8.105,2.991-9.886a4.3,4.3,0,1,1,6.447,5.69Z" transform="translate(-2063.532 -1534.771)" fill="#fff"/>
          <path id="Path_446" data-name="Path 446" d="M2054.091,1534.746c1.419,1.9,2.708,9.694,2.165,10.1s-7.64-3.057-9.059-4.961a4.3,4.3,0,0,1,6.895-5.138Z" transform="translate(-2042.456 -1533.015)" fill="#fff"/>
          <path id="Path_447" data-name="Path 447" d="M2037,1564.929c2.291-.624,10.013,1.025,10.191,1.679s-5.639,5.993-7.93,6.617a4.3,4.3,0,1,1-2.261-8.3Z" transform="translate(-2033.835 -1554.915)" fill="#fff"/>
          <path id="Path_448" data-name="Path 448" d="M2060.778,1578.655c.229-2.364,4.508-9,5.183-8.934s3.6,7.4,3.376,9.761a4.3,4.3,0,0,1-8.559-.827Z" transform="translate(-2052.391 -1558.313)" fill="#fff"/>
          <path id="Path_449" data-name="Path 449" d="M2084.47,1577.865c-2.1-1.1-6.632-7.572-6.316-8.172s8.21-.545,10.313.559a4.3,4.3,0,0,1-4,7.614Z" transform="translate(-2064.37 -1558.032)" fill="#fff"/>
          <path id="Path_450" data-name="Path 450" d="M2076.446,1567.174a1.416,1.416,0,1,0-1.176,1.621A1.416,1.416,0,0,0,2076.446,1567.174Z" transform="translate(-2061.264 -1555.736)" fill="#163560"/>
        </g>
        <path id="Path_451" data-name="Path 451" d="M1992.62,1697.611c2.336,2.873,4.858,14.926,4.038,15.593s-12.106-4.26-14.442-7.132a6.705,6.705,0,1,1,10.4-8.461Z" transform="translate(-1980.712 -1644.754)" fill="#a8d29f"/>
      </g>
      <path id="Path_452" data-name="Path 452" d="M1599.167,1772.815s4.628-12.169,21.436-12.933,28.379,9.167,42.265,4.583,36.868-14.934,58.609-8.04,25.407,16.39,25.407,16.39Z" transform="translate(-1599.167 -1674.323)" fill="#a8d29f"/>
    </g>
    <g id="Group_550" data-name="Group 550" transform="translate(447.395 296.403)">
      <path id="Path_453" data-name="Path 453" d="M896.955,1770.516H860.627c-2.6-1.765.7-19.022.7-19.022s9.915-3.762,11.627,3.888,12.628,10.076,18.4,11.008C895.311,1767.033,896.559,1769.2,896.955,1770.516Z" transform="translate(-789.47 -1431.384)" fill="#2b478b"/>
      <path id="Path_454" data-name="Path 454" d="M850.865,1198.22l-16.958,176.153s-3.553,5.474-14.827,1.782a322.792,322.792,0,0,1-11.3-60.928c-.04-.533-.082-1.069-.121-1.6-.86-11.731-1.886-28.065-2.854-44.26-1.762-29.44-3.327-58.413-3.327-58.413Z" transform="translate(-749.392 -1050.688)" fill="#f99746"/>
      <path id="Path_455" data-name="Path 455" d="M836.384,1306.656s-5.815,39.236-7.824,51.163c-4.276,25.389-13.4,32.146-13.4,32.146-.039-.533-.082-1.069-.121-1.6-.86-11.731-1.886-28.065-2.854-44.26Z" transform="translate(-756.771 -1125.426)" fill="#ed7d2b"/>
      <path id="Path_456" data-name="Path 456" d="M1150.256,1031.5s3.367-4.085,5.177-4.659,5.314-3.285,5.771-2.167-2.354,2.84-2.206,4.118c.065.563,2.239.592,4.647.564,3.057-.035,6.777-1.678,6.914-.934.5,2.725-3.506,7.682-7.669,8.123-3.355.355-8.02-.339-13.623.252C1147.326,1037,1150.256,1031.5,1150.256,1031.5Z" transform="translate(-988.641 -930.892)" fill="#ffb27d"/>
      <path id="Path_457" data-name="Path 457" d="M942.791,950.583c-.115.33-12.191,2.349-22.643,3.814-6.154.866-11.749,1.541-14.01,1.565-4.916.058-14.328-1.6-25.459-6.291a108.157,108.157,0,0,1-19.738-10.895c-5.97-4.15-6.154-7.4-11.119-14.07-15.409-20.7,4.843-29.452,15.98-25.48,7.7,2.746,12.372,7.426,16.547,13.762,4.94,7.5,8.973,15.851,21.275,23.064,9.269,5.437,36.9,6.926,36.9,6.926a5.7,5.7,0,0,1,2.031,3.179A17.042,17.042,0,0,1,942.791,950.583Z" transform="translate(-778.87 -843.971)" fill="#aec3ff"/>
      <path id="Path_458" data-name="Path 458" d="M723.588,1770.516H687.26c-2.6-1.765.7-19.022.7-19.022s9.915-3.762,11.627,3.888,12.629,10.076,18.4,11.008C721.944,1767.033,723.193,1769.2,723.588,1770.516Z" transform="translate(-669.981 -1431.384)" fill="#2b478b"/>
      <path id="Path_459" data-name="Path 459" d="M755.27,1180.725,700.257,1349.1s-11.705,3.128-17.7-3.254c0,0,1.39-59.369,8.9-79.638,6.076-16.4,3.129-104.95,30.061-105.7S755.27,1180.725,755.27,1180.725Z" transform="translate(-667.428 -1024.683)" fill="#f99746"/>
      <path id="Path_460" data-name="Path 460" d="M806.207,994.532c-8.488,4.371-19.5,7.444-37.673,6.26-17.467-1.138-28.141-5.927-27.6-10.1.269-2.08.53-4.217.757-6.451a161.587,161.587,0,0,0-.614-37.483c-.515-4.262-1.172-8.791-1.729-12.729v-.012h0a91.379,91.379,0,0,1-1.144-10.2s5.527-24.835,9.672-28.825a17.829,17.829,0,0,1,6.288-3.578.12.12,0,0,0,.024-.009c12.487-4.5,35.436-3.481,45.583,5.307,1.384,1.2,6.282,9.478,6.418,18.429C806.377,927.613,811.72,991.7,806.207,994.532Z" transform="translate(-705.776 -837.417)" fill="#aec3ff"/>
      <path id="Path_461" data-name="Path 461" d="M817.479,858.5c-1.252-1.581,2.281-4.533.7-16.093-.021-.152,1.124.063,2.854.472,5.148,1.219,15.5,4.154,15.954,4.284h.017s.127,2.431.553,6.79c.035.384.074.786.117,1.2.052.511.091,1.055.169,1.61C839.073,865.462,823.341,865.9,817.479,858.5Z" transform="translate(-760.231 -805.417)" fill="#ffb27d"/>
      <path id="Path_462" data-name="Path 462" d="M840.227,855.107c-7.684,1.762-19.153-9.583-19.153-9.583a12.1,12.1,0,0,1,2.628-1.49c5.148,1.219,15.5,4.154,15.954,4.284h.017S839.8,850.749,840.227,855.107Z" transform="translate(-762.898 -806.572)" fill="#ed975d"/>
      <path id="Path_463" data-name="Path 463" d="M829.025,785.867a39.09,39.09,0,0,1-7.188,1.676c-5.891.8-13.638.326-16.071-6.8-4.1-12-9.335-19.191,2.727-24.09,6.457-2.623,10.588-2.762,13.394-1.761a9.7,9.7,0,0,1,4.963,4.3C829.192,762.859,833.9,783.767,829.025,785.867Z" transform="translate(-749.085 -744.736)" fill="#ffb27d"/>
      <path id="Path_464" data-name="Path 464" d="M804.521,727.942a6.713,6.713,0,0,1-4,11.693c-2.37.169-4.319.075-5.668.675-3,1.333-3.539,6.365-3.593,7.962s-.264,2.95-4.338,1.992a1.98,1.98,0,0,0-1.48.088c-1.69,1,.47,5.863,1.121,6.915,0,0,.938,3.481-1.143,5.176-.251.2-4.338,1.989-14.186-13.082a14,14,0,0,1-.635-12.826c2.387-5.131,12.19-10.754,20.832-12.719C796.762,722.6,801.227,724.972,804.521,727.942Z" transform="translate(-727.24 -723.49)" fill="#2b478b"/>
      <path id="Path_465" data-name="Path 465" d="M876,830.917s.253,1.553-3.358,2.793c0,0-3.032,1.041-3.585-.552A10.293,10.293,0,0,1,876,830.917Z" transform="translate(-795.969 -797.531)" fill="#fff"/>
      <path id="Path_466" data-name="Path 466" d="M999.8,1040.792c-6.154.866-11.749,1.541-14.01,1.565-4.916.058-14.328-1.6-25.459-6.291-.454-1.586-.91-11.516.06-12.184,2.946-2.028,8.809,9.423,18.648,12.4A167.158,167.158,0,0,0,999.8,1040.792Z" transform="translate(-858.526 -930.364)" fill="#8baaef"/>
      <path id="Path_467" data-name="Path 467" d="M747.452,1077.492a3.038,3.038,0,0,1-3.206-.823,161.593,161.593,0,0,0-.614-37.483c-.515-4.262-1.172-8.791-1.729-12.729v-.012s8.237-7.086,11.062-1.235-5.246,21.393-.805,30.677S752.435,1076.094,747.452,1077.492Z" transform="translate(-708.331 -929.849)" fill="#8baaef"/>
      <path id="Path_468" data-name="Path 468" d="M713.309,1180.966s4.452,3.229,5.6,3.038c3.342-.559,5.076-3.283,8.181-3.024s9.674,3.732,8.913,4.528c-2.761,2.885-7.018,1.323-9.017,3.087-1.389,1.226-2.224,3.769-7.27,3.252s-9.506-4.664-9.506-4.664Z" transform="translate(-686.484 -1038.794)" fill="#ffb27d"/>
      <path id="Path_469" data-name="Path 469" d="M682.3,897.193A68.293,68.293,0,0,0,649,921.7c-13.843,19.07-18.324,31.956-12.875,41.5s16.044,26.4,26.336,33.5c0,0,5.146-1.1,4.742-8.972,0,0-12.636-26.94-12.18-30.583.849-6.785,18.84-23.985,22.775-27.532S682.3,897.193,682.3,897.193Z" transform="translate(-633.873 -843.212)" fill="#aec3ff"/>
      <path id="Path_470" data-name="Path 470" d="M744.958,1178.906a36.636,36.636,0,0,0,2.545-4.474c.3-1.009.818.524.605,1.564a4.072,4.072,0,0,0,.05,1.867Z" transform="translate(-710.436 -1034.066)" fill="#ffb27d"/>
    </g>
    <path id="Path_471" data-name="Path 471" d="M2665.586,1753.9h-24.737c-1.326-1.124.917-3.678,3.26-3.849a14.438,14.438,0,0,1,3.776.447c.34-4.521,2.284-24.847,9.611-24.03,8.238.915,0,8.951-2.329,13.709a113.139,113.139,0,0,0-4.376,10.963c.668.145,1.361.287,2.068.417,1.092-3.352,5.154-14.629,10.321-13.972,6.066.769,3.628,5.291-.672,7.974-3.155,1.974-7.028,4.779-8.868,6.134a26.281,26.281,0,0,0,4.838.387C2662.716,1751.984,2664.784,1753.232,2665.586,1753.9Z" transform="translate(-1569.475 -1118.356)" fill="#a8d29f"/>
    <g id="Group_553" data-name="Group 553" transform="translate(566.626 559.303)">
      <g id="Group_551" data-name="Group 551" transform="translate(10.924 10.637)">
        <path id="Path_472" data-name="Path 472" d="M1067.965,1668.99l-.737-.117c-2.9-37.571-14.377-64.534-14.538-64.9l.672-.289C1053.522,1604.054,1065.079,1631.193,1067.965,1668.99Z" transform="translate(-1052.69 -1603.683)" fill="#a8d29f"/>
      </g>
      <g id="Group_552" data-name="Group 552" transform="translate(0)">
        <path id="Path_473" data-name="Path 473" d="M1025.495,1578.18c1.415,1.6,8.04,4.182,8.5,3.778s-1.278-7.3-2.693-8.9a3.871,3.871,0,1,0-5.8,5.123Z" transform="translate(-1022.355 -1571.035)" fill="#fff"/>
        <path id="Path_474" data-name="Path 474" d="M1055.738,1571.012c-1.277,1.714-2.438,8.728-1.949,9.093s6.879-2.752,8.157-4.467a3.871,3.871,0,1,0-6.208-4.626Z" transform="translate(-1042.445 -1569.454)" fill="#fff"/>
        <path id="Path_475" data-name="Path 475" d="M1064.479,1598.188c-2.063-.562-9.015.923-9.176,1.512s5.077,5.4,7.14,5.958a3.871,3.871,0,1,0,2.036-7.47Z" transform="translate(-1043.564 -1589.172)" fill="#fff"/>
        <path id="Path_476" data-name="Path 476" d="M1052.606,1610.546c-.206-2.128-4.06-8.1-4.667-8.044s-3.245,6.66-3.04,8.788a3.871,3.871,0,0,0,7.707-.745Z" transform="translate(-1036.389 -1592.232)" fill="#fff"/>
        <path id="Path_477" data-name="Path 477" d="M1023.21,1609.835c1.893-.994,5.97-6.817,5.687-7.358s-7.393-.491-9.286.5a3.871,3.871,0,1,0,3.6,6.855Z" transform="translate(-1017.539 -1591.979)" fill="#fff"/>
        <path id="Path_478" data-name="Path 478" d="M1050,1600.209a1.275,1.275,0,1,1,1.059,1.46A1.275,1.275,0,0,1,1050,1600.209Z" transform="translate(-1039.901 -1589.911)" fill="#f78248"/>
      </g>
      <path id="Path_479" data-name="Path 479" d="M1082.294,1633.2c-2.1,2.587-4.374,13.44-3.636,14.04s10.9-3.835,13-6.422a6.037,6.037,0,1,0-9.368-7.618Z" transform="translate(-1059.566 -1611.855)" fill="#a8d29f"/>
      <path id="Path_480" data-name="Path 480" d="M1059.987,1737.452c2.184,1.065,7.015,7.544,6.71,8.168s-8.383.808-10.567-.257a4.4,4.4,0,0,1,3.857-7.911Z" transform="translate(-1042.433 -1684.936)" fill="#a8d29f"/>
    </g>
    <g id="Group_556" data-name="Group 556" transform="translate(600.653 548.054)">
      <g id="Group_554" data-name="Group 554" transform="translate(12.067 12.213)">
        <path id="Path_481" data-name="Path 481" d="M1165.86,1647.536l.847-.135c3.334-43.137,16.507-74.093,16.691-74.513l-.771-.333C1182.443,1572.982,1169.174,1604.141,1165.86,1647.536Z" transform="translate(-1165.86 -1572.556)" fill="#a8d29f"/>
      </g>
      <g id="Group_555" data-name="Group 555" transform="translate(14.859)">
        <path id="Path_482" data-name="Path 482" d="M1229.223,1543.276c-1.624,1.84-9.231,4.8-9.756,4.337s1.468-8.379,3.092-10.219a4.444,4.444,0,0,1,6.664,5.882Z" transform="translate(-1205.54 -1535.072)" fill="#fff"/>
        <path id="Path_483" data-name="Path 483" d="M1195.78,1535.046c1.467,1.969,2.8,10.021,2.237,10.44s-7.9-3.16-9.365-5.128a4.444,4.444,0,0,1,7.127-5.312Z" transform="translate(-1183.754 -1533.257)" fill="#fff"/>
        <path id="Path_484" data-name="Path 484" d="M1178.119,1566.247c2.368-.646,10.351,1.06,10.535,1.735s-5.829,6.2-8.2,6.841a4.444,4.444,0,0,1-2.337-8.576Z" transform="translate(-1174.842 -1555.896)" fill="#fff"/>
        <path id="Path_485" data-name="Path 485" d="M1202.693,1580.435c.236-2.443,4.66-9.3,5.358-9.235s3.726,7.647,3.49,10.09a4.444,4.444,0,0,1-8.848-.855Z" transform="translate(-1194.024 -1559.408)" fill="#fff"/>
        <path id="Path_486" data-name="Path 486" d="M1227.183,1579.62c-2.173-1.141-6.855-7.827-6.529-8.448s8.488-.564,10.661.578a4.444,4.444,0,1,1-4.132,7.87Z" transform="translate(-1206.406 -1559.118)" fill="#fff"/>
        <path id="Path_487" data-name="Path 487" d="M1218.89,1568.568a1.464,1.464,0,1,0-1.215,1.675A1.463,1.463,0,0,0,1218.89,1568.568Z" transform="translate(-1203.196 -1556.744)" fill="#f78248"/>
      </g>
      <path id="Path_488" data-name="Path 488" d="M1139.339,1666.236c2.415,2.97,5.022,15.43,4.174,16.12s-12.514-4.4-14.93-7.373a6.932,6.932,0,0,1,10.756-8.747Z" transform="translate(-1127.03 -1623.147)" fill="#a8d29f"/>
      <path id="Path_489" data-name="Path 489" d="M1180.677,1726.139c-2.508,1.223-8.054,8.662-7.7,9.377s9.625.928,12.133-.3a5.052,5.052,0,0,0-4.429-9.082Z" transform="translate(-1158.684 -1665.844)" fill="#a8d29f"/>
    </g>
    <path id="Path_490" data-name="Path 490" d="M1109.547,1801.539s-2.9-4.516-10.24-4.919-10.973,3.833-18.39,1.412-26.75-4.6-30.933,3.376Z" transform="translate(-473.276 -1166.161)" fill="#a8d29f"/>
    <path id="Path_491" data-name="Path 491" d="M1201.417,1816.195l-750.864-.259a.909.909,0,0,1-.906-.906v-.441a.908.908,0,0,1,.906-.906l750.864.259a.908.908,0,0,1,.905.906v.441A.908.908,0,0,1,1201.417,1816.195Z" transform="translate(-59.505 -1178.482)" fill="#2e3552"/>
  </g>
</svg>
