<svg xmlns="http://www.w3.org/2000/svg" width="500" height="372.608" viewBox="0 0 500 372.608">
  <g id="Group_565" data-name="Group 565" transform="translate(0 -54.953)">
    <g id="Background_Complete" data-name="Background Complete">
      <g id="Group_528" data-name="Group 528">
        <rect id="Rectangle_137" data-name="Rectangle 137" width="500" height="0.25" transform="translate(0 382.398)" fill="#ebebeb"/>
        <rect id="Rectangle_138" data-name="Rectangle 138" width="33.122" height="0.25" transform="translate(416.779 398.494)" fill="#ebebeb"/>
        <rect id="Rectangle_139" data-name="Rectangle 139" width="8.693" height="0.25" transform="translate(322.527 401.208)" fill="#ebebeb"/>
        <rect id="Rectangle_140" data-name="Rectangle 140" width="19.192" height="0.25" transform="translate(396.586 389.208)" fill="#ebebeb"/>
        <rect id="Rectangle_141" data-name="Rectangle 141" width="43.193" height="0.25" transform="translate(52.459 390.888)" fill="#ebebeb"/>
        <rect id="Rectangle_142" data-name="Rectangle 142" width="6.333" height="0.25" transform="translate(104.556 390.888)" fill="#ebebeb"/>
        <rect id="Rectangle_143" data-name="Rectangle 143" width="93.676" height="0.25" transform="translate(131.471 395.111)" fill="#ebebeb"/>
        <path id="Path_378" data-name="Path 378" d="M237.014,337.8H43.915a5.715,5.715,0,0,1-5.708-5.708V60.66a5.714,5.714,0,0,1,5.708-5.707h193.1a5.714,5.714,0,0,1,5.707,5.707V332.092A5.715,5.715,0,0,1,237.014,337.8ZM43.915,55.2a5.463,5.463,0,0,0-5.458,5.457V332.092a5.464,5.464,0,0,0,5.458,5.458h193.1a5.463,5.463,0,0,0,5.457-5.458V60.66a5.463,5.463,0,0,0-5.457-5.457Z" fill="#ebebeb"/>
        <path id="Path_379" data-name="Path 379" d="M453.31,337.8h-193.1a5.714,5.714,0,0,1-5.707-5.708V60.66a5.713,5.713,0,0,1,5.707-5.707h193.1a5.714,5.714,0,0,1,5.709,5.707V332.092A5.715,5.715,0,0,1,453.31,337.8ZM260.212,55.2a5.463,5.463,0,0,0-5.457,5.457V332.092a5.463,5.463,0,0,0,5.457,5.458h193.1a5.464,5.464,0,0,0,5.459-5.458V60.66A5.464,5.464,0,0,0,453.31,55.2Z" fill="#ebebeb"/>
      </g>
      <g id="Group_534" data-name="Group 534">
        <g id="Group_530" data-name="Group 530">
          <g id="Group_529" data-name="Group 529">
            <path id="Path_380" data-name="Path 380" d="M87.464,251.645a8.751,8.751,0,0,1-.27-1.787c-.22-3.706-3.758-3.118-6.768-3.621-2.351-.393,3.875-6.333-.866-8.25a4.162,4.162,0,0,1-2.288-1.594,2.693,2.693,0,0,1,1.033-3.287,6.364,6.364,0,0,1,3.6-.9c.773-.94.145-2.355-.6-3.315s-1.665-2.052-1.381-3.236c.428-1.788,2.926-1.852,4.731-1.5.667-1.08.654-2.431.978-3.659s1.3-2.515,2.56-2.362c1.187.145,1.912,1.485,3.076,1.759,1.352.319,2.522-.876,3.583-1.773s2.915-1.457,3.645-.276c.438.708.176,1.693.63,2.39.788,1.207,2.656.458,3.815-.4s3.007-1.631,3.823-.443a4.932,4.932,0,0,1,.449,1.24c.549,1.583,2.26,2.371,3.593,3.386s2.389,3.035,1.261,4.274c-.557.611-1.535.859-1.812,1.638-.345.973.649,1.845,1.436,2.515,1.31,1.114,1.548,4.448-.184,5.36-.727.383-1.794.5-1.972,1.3-.159.717.568,1.276,1.052,1.829a3.441,3.441,0,0,1-1.054,5.124c-.416.2-.927.363-1.081.8a1.633,1.633,0,0,0,.1.967,5.124,5.124,0,0,1,.167,1.856.853.853,0,0,1-.226.583.89.89,0,0,1-.549.155c-2.5.111-3.708-.774-5.235,1.4a1.768,1.768,0,0,1-.521.553,1.6,1.6,0,0,1-.69.172c-1.719.142-2.843-.931-4.414-1.131-2.18-.278-2.642.846-4.563,1.749C89.5,254.578,88.032,253.7,87.464,251.645Z" fill="#ebebeb"/>
            <path id="Path_381" data-name="Path 381" d="M116.269,248.532a8.752,8.752,0,0,1-.27-1.786c-.22-3.706-3.758-3.119-6.768-3.622-2.351-.393,3.875-6.333-.866-8.249a4.174,4.174,0,0,1-2.288-1.594,2.694,2.694,0,0,1,1.033-3.288,6.365,6.365,0,0,1,3.6-.9c.774-.941.145-2.355-.6-3.316s-1.664-2.052-1.381-3.236c.428-1.787,2.926-1.852,4.732-1.5.666-1.08.654-2.431.977-3.658s1.3-2.516,2.56-2.362c1.187.144,1.912,1.484,3.076,1.759,1.352.318,2.523-.877,3.583-1.774s2.915-1.456,3.645-.275c.438.707.176,1.693.63,2.389.788,1.207,2.656.458,3.815-.4s3.007-1.63,3.823-.443a4.988,4.988,0,0,1,.45,1.24c.548,1.583,2.259,2.372,3.592,3.387s2.389,3.034,1.261,4.273c-.556.611-1.535.859-1.812,1.638-.345.973.65,1.846,1.437,2.515,1.309,1.114,1.547,4.448-.185,5.36-.727.383-1.793.5-1.972,1.3-.159.717.569,1.275,1.052,1.828a3.442,3.442,0,0,1-1.054,5.125c-.416.2-.926.362-1.081.8a1.637,1.637,0,0,0,.1.968,5.1,5.1,0,0,1,.167,1.856.853.853,0,0,1-.226.582.882.882,0,0,1-.549.155c-2.5.111-3.708-.774-5.235,1.4a1.771,1.771,0,0,1-.521.554,1.624,1.624,0,0,1-.69.172c-1.719.141-2.843-.932-4.414-1.132-2.18-.278-2.642.846-4.562,1.749C118.3,251.466,116.837,250.59,116.269,248.532Z" fill="#ebebeb"/>
            <path id="Path_382" data-name="Path 382" d="M119.045,230.188a8.751,8.751,0,0,1-.27-1.787c-.22-3.706-3.758-3.118-6.768-3.621-2.351-.393,3.875-6.333-.866-8.249a4.172,4.172,0,0,1-2.288-1.6,2.693,2.693,0,0,1,1.033-3.287,6.374,6.374,0,0,1,3.6-.9c.774-.94.145-2.355-.6-3.315s-1.664-2.052-1.381-3.236c.428-1.788,2.926-1.852,4.731-1.5.667-1.08.654-2.431.978-3.658s1.3-2.516,2.56-2.363c1.187.145,1.912,1.485,3.076,1.76,1.352.318,2.522-.877,3.583-1.774s2.915-1.457,3.645-.275c.438.707.176,1.693.63,2.389.788,1.207,2.656.458,3.815-.4s3.007-1.631,3.823-.443a4.988,4.988,0,0,1,.45,1.24c.548,1.583,2.259,2.371,3.592,3.387s2.389,3.034,1.261,4.273c-.556.611-1.535.859-1.812,1.638-.345.973.649,1.845,1.436,2.515,1.31,1.114,1.548,4.448-.184,5.36-.727.383-1.793.5-1.972,1.3-.159.717.568,1.276,1.052,1.829a3.441,3.441,0,0,1-1.054,5.124c-.416.2-.926.363-1.08.8a1.629,1.629,0,0,0,.1.968,5.12,5.12,0,0,1,.167,1.856.852.852,0,0,1-.226.582.89.89,0,0,1-.549.155c-2.5.111-3.708-.774-5.235,1.4a1.768,1.768,0,0,1-.521.553,1.6,1.6,0,0,1-.69.172c-1.719.142-2.843-.931-4.414-1.131-2.18-.278-2.642.846-4.562,1.749C121.077,233.121,119.613,232.246,119.045,230.188Z" fill="#ebebeb"/>
            <path id="Path_383" data-name="Path 383" d="M138.02,239.325a8.751,8.751,0,0,1-.27-1.787c-.22-3.705-3.758-3.118-6.768-3.621-2.351-.393,3.875-6.333-.866-8.249a4.168,4.168,0,0,1-2.288-1.6,2.693,2.693,0,0,1,1.033-3.287,6.372,6.372,0,0,1,3.6-.9c.774-.94.145-2.354-.6-3.315s-1.665-2.052-1.381-3.236c.428-1.788,2.926-1.852,4.732-1.5.666-1.08.653-2.431.977-3.658s1.3-2.516,2.56-2.363c1.187.145,1.912,1.485,3.076,1.76,1.352.318,2.522-.877,3.583-1.774s2.915-1.456,3.645-.275c.438.707.176,1.693.63,2.389.788,1.207,2.656.458,3.815-.4s3.007-1.631,3.823-.443a4.947,4.947,0,0,1,.449,1.24c.549,1.583,2.26,2.371,3.593,3.387s2.389,3.034,1.261,4.273c-.556.611-1.535.859-1.812,1.638-.345.973.65,1.846,1.436,2.515,1.31,1.114,1.548,4.448-.184,5.36-.727.383-1.794.5-1.972,1.3-.159.717.568,1.275,1.052,1.828a3.442,3.442,0,0,1-1.054,5.125c-.416.2-.927.362-1.08.8a1.628,1.628,0,0,0,.1.968,5.121,5.121,0,0,1,.167,1.856.852.852,0,0,1-.226.582.89.89,0,0,1-.549.155c-2.5.111-3.708-.774-5.235,1.4a1.782,1.782,0,0,1-.521.554,1.609,1.609,0,0,1-.69.171c-1.719.142-2.843-.931-4.414-1.131-2.18-.278-2.642.846-4.562,1.749C140.052,242.258,138.587,241.383,138.02,239.325Z" fill="#ebebeb"/>
            <path id="Path_384" data-name="Path 384" d="M157.2,235.1a8.682,8.682,0,0,1-.27-1.787c-.221-3.706-3.758-3.118-6.768-3.621-2.351-.393,3.875-6.333-.867-8.249a4.169,4.169,0,0,1-2.287-1.6,2.693,2.693,0,0,1,1.032-3.287,6.369,6.369,0,0,1,3.6-.9c.773-.94.144-2.355-.6-3.315s-1.665-2.052-1.381-3.236c.428-1.788,2.926-1.852,4.731-1.5.667-1.08.654-2.431.977-3.659s1.3-2.515,2.56-2.362c1.187.145,1.913,1.485,3.077,1.759,1.351.319,2.522-.876,3.582-1.773s2.915-1.457,3.646-.276c.437.708.175,1.693.63,2.39.787,1.207,2.655.458,3.815-.4s3.006-1.631,3.822-.443a4.974,4.974,0,0,1,.45,1.24c.548,1.583,2.26,2.371,3.592,3.386s2.389,3.035,1.261,4.274c-.556.611-1.535.859-1.811,1.638-.346.973.649,1.845,1.436,2.515,1.31,1.114,1.547,4.448-.185,5.36-.727.383-1.793.5-1.971,1.3-.16.717.568,1.276,1.051,1.829a3.441,3.441,0,0,1-1.053,5.124c-.416.2-.927.363-1.081.8a1.632,1.632,0,0,0,.1.967,5.1,5.1,0,0,1,.167,1.856.848.848,0,0,1-.226.583.881.881,0,0,1-.549.154c-2.5.112-3.708-.773-5.234,1.4a1.779,1.779,0,0,1-.521.553,1.6,1.6,0,0,1-.69.172c-1.72.142-2.843-.931-4.415-1.131-2.18-.278-2.642.846-4.562,1.749C159.229,238.038,157.765,237.163,157.2,235.1Z" fill="#ebebeb"/>
            <path id="Path_385" data-name="Path 385" d="M157.448,255.619a6.874,6.874,0,0,1-.213-1.407c-.173-2.918-2.959-2.456-5.329-2.852-1.851-.309,3.051-4.986-.682-6.495a3.28,3.28,0,0,1-1.8-1.255,2.121,2.121,0,0,1,.813-2.589,5.017,5.017,0,0,1,2.834-.711c.609-.74.114-1.854-.476-2.61s-1.311-1.616-1.087-2.548c.337-1.408,2.3-1.458,3.725-1.185a10.231,10.231,0,0,0,.77-2.88c.255-.967,1.023-1.981,2.015-1.86.935.114,1.506,1.169,2.423,1.385,1.064.251,1.986-.69,2.821-1.4s2.295-1.146,2.87-.216c.345.557.138,1.333.5,1.881.62.951,2.091.361,3-.313s2.368-1.284,3.01-.349a3.922,3.922,0,0,1,.354.976c.432,1.247,1.78,1.868,2.829,2.667s1.881,2.389.993,3.365c-.438.481-1.209.676-1.427,1.289-.272.767.511,1.454,1.131,1.981,1.032.877,1.219,3.5-.145,4.22-.573.3-1.412.394-1.553,1.026-.125.565.448,1,.828,1.44a2.71,2.71,0,0,1-.829,4.035c-.328.157-.73.285-.851.627a1.289,1.289,0,0,0,.078.763,4,4,0,0,1,.131,1.461.671.671,0,0,1-.177.459.7.7,0,0,1-.433.121c-1.969.088-2.919-.609-4.121,1.105a1.422,1.422,0,0,1-.41.435,1.283,1.283,0,0,1-.544.136c-1.354.111-2.239-.734-3.476-.891-1.716-.219-2.08.666-3.592,1.377C159.048,257.929,157.9,257.239,157.448,255.619Z" fill="#ebebeb"/>
            <path id="Path_386" data-name="Path 386" d="M168.193,248.532a8.752,8.752,0,0,1-.27-1.786c-.22-3.706-3.758-3.119-6.768-3.622-2.351-.393,3.875-6.333-.866-8.249A4.174,4.174,0,0,1,158,233.281a2.694,2.694,0,0,1,1.033-3.288,6.367,6.367,0,0,1,3.6-.9c.774-.941.145-2.355-.6-3.316s-1.665-2.052-1.382-3.236c.428-1.787,2.927-1.852,4.732-1.5.667-1.08.653-2.431.977-3.658s1.3-2.516,2.56-2.362c1.187.144,1.912,1.484,3.076,1.759,1.352.318,2.523-.877,3.583-1.774s2.915-1.456,3.645-.275c.438.707.176,1.693.63,2.389.788,1.207,2.656.458,3.815-.4s3.007-1.63,3.823-.443a4.988,4.988,0,0,1,.45,1.24c.548,1.583,2.26,2.372,3.592,3.387s2.389,3.034,1.261,4.273c-.556.611-1.535.859-1.812,1.638-.345.973.65,1.846,1.436,2.515,1.311,1.114,1.548,4.448-.184,5.36-.727.383-1.793.5-1.972,1.3-.159.717.568,1.275,1.052,1.828a3.442,3.442,0,0,1-1.054,5.125c-.415.2-.926.362-1.08.8a1.629,1.629,0,0,0,.1.968,5.1,5.1,0,0,1,.167,1.856.852.852,0,0,1-.226.582.882.882,0,0,1-.549.155c-2.5.111-3.708-.774-5.235,1.4a1.78,1.78,0,0,1-.52.554,1.633,1.633,0,0,1-.691.172c-1.719.141-2.843-.932-4.414-1.132-2.18-.278-2.642.846-4.562,1.749C170.225,251.466,168.761,250.59,168.193,248.532Z" fill="#ebebeb"/>
            <path id="Path_387" data-name="Path 387" d="M138.02,216.76a8.741,8.741,0,0,1-.27-1.786c-.22-3.706-3.758-3.119-6.768-3.622-2.351-.393,3.875-6.332-.866-8.249a4.167,4.167,0,0,1-2.288-1.594,2.7,2.7,0,0,1,1.033-3.288,6.363,6.363,0,0,1,3.6-.9c.774-.94.145-2.355-.6-3.315s-1.665-2.053-1.381-3.237c.428-1.787,2.926-1.851,4.732-1.5.666-1.08.653-2.43.977-3.658s1.3-2.516,2.56-2.362c1.187.144,1.912,1.485,3.076,1.759,1.352.319,2.522-.877,3.583-1.774s2.915-1.456,3.645-.275c.438.707.176,1.693.63,2.389.788,1.207,2.656.458,3.815-.4s3.007-1.631,3.823-.443a4.94,4.94,0,0,1,.449,1.239c.549,1.583,2.26,2.372,3.593,3.387s2.389,3.035,1.261,4.273c-.556.612-1.535.859-1.812,1.638-.345.974.65,1.846,1.436,2.515,1.31,1.115,1.548,4.449-.184,5.36-.727.383-1.794.5-1.972,1.3-.159.717.568,1.275,1.052,1.828a3.442,3.442,0,0,1-1.054,5.125c-.416.2-.927.363-1.08.8a1.628,1.628,0,0,0,.1.968,5.123,5.123,0,0,1,.167,1.856.855.855,0,0,1-.226.583.883.883,0,0,1-.549.154c-2.5.112-3.708-.774-5.235,1.4a1.778,1.778,0,0,1-.521.553,1.625,1.625,0,0,1-.69.172c-1.719.142-2.843-.931-4.414-1.132-2.18-.278-2.642.847-4.562,1.749C140.052,219.694,138.587,218.819,138.02,216.76Z" fill="#ebebeb"/>
            <path id="Path_388" data-name="Path 388" d="M113.384,218.02a8.683,8.683,0,0,1-.27-1.786c-.22-3.706-3.758-3.119-6.768-3.622-2.351-.393,3.875-6.333-.866-8.249a4.167,4.167,0,0,1-2.288-1.594,2.694,2.694,0,0,1,1.033-3.288,6.363,6.363,0,0,1,3.6-.9c.773-.94.144-2.355-.6-3.315s-1.665-2.053-1.381-3.237c.428-1.787,2.926-1.851,4.731-1.5.667-1.08.654-2.431.978-3.658s1.3-2.516,2.56-2.362c1.187.144,1.912,1.485,3.076,1.759,1.352.319,2.522-.877,3.583-1.774s2.915-1.456,3.645-.275c.437.707.175,1.693.63,2.389.788,1.207,2.655.458,3.815-.4s3.007-1.63,3.823-.443a4.947,4.947,0,0,1,.449,1.24c.549,1.583,2.26,2.372,3.593,3.387s2.389,3.034,1.261,4.273c-.557.612-1.535.859-1.812,1.638-.346.973.649,1.846,1.436,2.515,1.31,1.115,1.548,4.449-.184,5.36-.727.383-1.794.5-1.972,1.3-.16.717.568,1.275,1.052,1.828a3.442,3.442,0,0,1-1.054,5.125c-.416.2-.927.362-1.081.8a1.629,1.629,0,0,0,.1.968,5.12,5.12,0,0,1,.166,1.856.846.846,0,0,1-.226.582.882.882,0,0,1-.549.155c-2.5.112-3.707-.774-5.234,1.4a1.79,1.79,0,0,1-.521.553,1.629,1.629,0,0,1-.69.172c-1.719.141-2.843-.932-4.414-1.132-2.181-.278-2.642.847-4.563,1.749C115.416,220.954,113.951,220.078,113.384,218.02Z" fill="#ebebeb"/>
            <path id="Path_389" data-name="Path 389" d="M98.42,228.1a8.683,8.683,0,0,1-.27-1.786c-.221-3.706-3.758-3.119-6.768-3.622-2.351-.393,3.875-6.333-.867-8.249a4.168,4.168,0,0,1-2.287-1.594,2.694,2.694,0,0,1,1.032-3.288,6.368,6.368,0,0,1,3.6-.9c.773-.94.144-2.355-.6-3.315s-1.665-2.053-1.382-3.237c.429-1.787,2.927-1.851,4.732-1.5.667-1.08.654-2.431.977-3.658s1.3-2.516,2.56-2.362c1.187.145,1.913,1.485,3.077,1.759,1.351.319,2.522-.877,3.582-1.774s2.915-1.456,3.646-.275c.437.707.175,1.693.63,2.389.787,1.207,2.655.458,3.815-.4s3.007-1.631,3.823-.444a5.027,5.027,0,0,1,.449,1.24c.548,1.583,2.26,2.372,3.593,3.387s2.388,3.035,1.26,4.273c-.556.612-1.535.859-1.811,1.638-.346.974.649,1.846,1.436,2.515,1.31,1.115,1.547,4.449-.185,5.36-.727.383-1.793.5-1.971,1.3-.16.717.568,1.275,1.051,1.828a3.443,3.443,0,0,1-1.053,5.125c-.416.2-.927.362-1.081.8a1.636,1.636,0,0,0,.1.968,5.1,5.1,0,0,1,.167,1.856.85.85,0,0,1-.226.583.888.888,0,0,1-.549.154c-2.5.112-3.707-.774-5.234,1.4a1.79,1.79,0,0,1-.521.553,1.632,1.632,0,0,1-.69.172c-1.72.142-2.844-.932-4.415-1.132-2.18-.278-2.642.846-4.562,1.749C100.451,231.036,98.987,230.16,98.42,228.1Z" fill="#ebebeb"/>
            <path id="Path_390" data-name="Path 390" d="M102.957,240.845s6.258,8.848,8.416,11.653,12.948,20.286,14.416,31.847c.157,1.234.311,2.3.462,3.225-4.641,30.634-3.913,86.68-3.749,96.276h14.7c.136-10.82,1.385-109.727,1.846-112.747.487-3.2,6.634-15.364,16.129-20.363s17.7-21.544,17.7-21.544h-3.027s-5.61,10.143-13.6,15.753a30.577,30.577,0,0,1-3.592,2.13,50.971,50.971,0,0,0-3.176-17.883l-1.633,1.511c2.206,9.033,1.915,14.819,1.248,18.142a32.856,32.856,0,0,0-8.256,5.526c-8.282-10.77-12.94-35.4-12.94-35.4l-2.121,1.158a125.56,125.56,0,0,0,2.739,15.106c1.552,6.375,6.118,18.378,8.243,23.828a56.459,56.459,0,0,0-6.256,11.744,4.826,4.826,0,0,0-.8-.958c-5.4-4.878-15.538-27.924-15.538-27.924-2.453-5.358,1.295-19.422,1.295-19.422h-2.831l-1.269,12.3-7.122-7.769-1.294,1.079,7.553,9.711,3.884,12.3L104.251,238.9Z" fill="#e6e6e6"/>
          </g>
          <path id="Path_391" data-name="Path 391" d="M77.877,383.846h97.738c1.374-4.586-2.181-10.088-6.053-10.862-4.758-.952-9.54-9.324-9.766-14.653s-8.79-21.724-22.112-11.6-9.273,1.491-18.91-1.353-15.716,5.339-11.487,11.477c0,0-9.681-2.427-13.669,6.613s0,14.655,0,14.655S81.38,377.766,77.877,383.846Z" fill="#e0e0e0"/>
        </g>
        <path id="Path_392" data-name="Path 392" d="M288.271,102.609a4.592,4.592,0,0,1,5.916-4.4A9.727,9.727,0,0,1,305.61,87.23a8.507,8.507,0,0,1,15.776,4.3c.047,0,.093-.007.141-.007a7.841,7.841,0,1,1,0,15.682h-28.8l.006-.006A4.593,4.593,0,0,1,288.271,102.609Z" fill="#f5f5f5"/>
        <path id="Path_393" data-name="Path 393" d="M143.684,158.48a4.595,4.595,0,0,1,5.916-4.4A9.732,9.732,0,0,1,161.024,143.1a8.507,8.507,0,0,1,15.775,4.3c.047,0,.094-.007.142-.007a7.841,7.841,0,0,1,0,15.682h-28.8l.006-.007A4.593,4.593,0,0,1,143.684,158.48Z" fill="#f5f5f5"/>
        <path id="Path_394" data-name="Path 394" d="M250.743,164.207a2.856,2.856,0,0,1,3.678-2.736,6.049,6.049,0,0,1,7.1-6.825,5.289,5.289,0,0,1,9.808,2.674c.029,0,.058-.005.088-.005a4.875,4.875,0,0,1,0,9.75h-17.9l0,0A2.856,2.856,0,0,1,250.743,164.207Z" fill="#f5f5f5"/>
        <path id="Path_395" data-name="Path 395" d="M103.357,123.428a2.856,2.856,0,0,1,3.678-2.737,6.179,6.179,0,0,1-.064-.877,6.049,6.049,0,0,1,7.166-5.947,5.289,5.289,0,0,1,9.808,2.674c.03,0,.058,0,.088,0a4.875,4.875,0,1,1,0,9.75h-17.9l0,0A2.856,2.856,0,0,1,103.357,123.428Z" fill="#f5f5f5"/>
        <path id="Path_396" data-name="Path 396" d="M377.187,168.15a2.856,2.856,0,0,1,3.679-2.737,6.049,6.049,0,0,1,7.1-6.824,5.288,5.288,0,0,1,9.807,2.674c.03,0,.059-.005.088-.005a4.875,4.875,0,0,1,0,9.75h-17.9l0,0A2.857,2.857,0,0,1,377.187,168.15Z" fill="#f5f5f5"/>
        <g id="Group_532" data-name="Group 532">
          <path id="Path_397" data-name="Path 397" d="M408.188,386.848c.225-2.719-.145-6.242-3.318-7.288-5.378-1.774-8.569-5.939-8.389-10.65s-5.482-9.3-9.728-4.88-3.679-3.395-9.341-5.293-10.46,2.706-8.91,6.915-4.036,6.836-10.726,3.258-14.049,2.931-12.633,8.027.256,5.661-3.977,3.962c-3.42-1.372-9.017,1.508-9.641,5.949Z" fill="#e0e0e0"/>
          <g id="Group_531" data-name="Group 531">
            <path id="Path_398" data-name="Path 398" d="M406.193,285.414a6.683,6.683,0,0,0,.207-1.371c.169-2.843,2.884-2.393,5.193-2.778,1.8-.3-2.973-4.859.665-6.33a3.2,3.2,0,0,0,1.755-1.223,2.065,2.065,0,0,0-.792-2.522,4.882,4.882,0,0,0-2.762-.693c-.593-.721-.111-1.807.464-2.543s1.277-1.575,1.059-2.483c-.328-1.372-2.245-1.421-3.63-1.155a9.947,9.947,0,0,1-.75-2.806c-.248-.942-1-1.931-1.964-1.813-.911.111-1.467,1.14-2.36,1.35-1.038.244-1.936-.673-2.749-1.361s-2.237-1.117-2.8-.211c-.336.543-.135,1.3-.484,1.833-.6.926-2.037.351-2.927-.305s-2.307-1.251-2.933-.34a3.8,3.8,0,0,0-.345.951c-.421,1.215-1.734,1.82-2.756,2.6s-1.833,2.328-.968,3.279c.427.469,1.178.659,1.39,1.256.266.747-.5,1.416-1.1,1.93-1.006.855-1.188,3.413.141,4.112.558.294,1.376.384,1.513,1,.122.55-.436.978-.807,1.4a2.641,2.641,0,0,0,.808,3.932c.32.153.712.278.83.612a1.252,1.252,0,0,1-.077.742,3.912,3.912,0,0,0-.127,1.424.651.651,0,0,0,.173.447.68.68,0,0,0,.421.119c1.919.085,2.845-.594,4.016,1.076a1.376,1.376,0,0,0,.4.424,1.231,1.231,0,0,0,.529.132c1.32.109,2.182-.714,3.387-.868,1.673-.213,2.028.649,3.5,1.342C404.634,287.665,405.758,286.993,406.193,285.414Z" fill="#ebebeb"/>
            <path id="Path_399" data-name="Path 399" d="M384.092,283.026a6.683,6.683,0,0,0,.207-1.371c.169-2.843,2.883-2.393,5.193-2.778,1.8-.3-2.973-4.86.665-6.33a3.2,3.2,0,0,0,1.755-1.223,2.065,2.065,0,0,0-.792-2.522,4.882,4.882,0,0,0-2.762-.693c-.593-.721-.111-1.807.463-2.543s1.278-1.575,1.06-2.483c-.329-1.372-2.245-1.421-3.63-1.155a9.944,9.944,0,0,1-.75-2.807c-.248-.941-1-1.93-1.964-1.812-.911.111-1.468,1.139-2.361,1.35-1.037.244-1.935-.673-2.749-1.361s-2.236-1.118-2.8-.211c-.336.542-.135,1.3-.484,1.833-.6.926-2.037.351-2.927-.305s-2.307-1.252-2.933-.34a3.8,3.8,0,0,0-.345.951c-.421,1.215-1.734,1.82-2.757,2.6s-1.832,2.328-.967,3.278c.427.47,1.178.659,1.39,1.257.265.747-.5,1.416-1.1,1.93-1.005.855-1.187,3.413.142,4.112.558.294,1.376.384,1.513,1,.122.55-.436.978-.807,1.4a2.641,2.641,0,0,0,.808,3.932c.319.152.711.278.829.611a1.246,1.246,0,0,1-.076.743,3.933,3.933,0,0,0-.128,1.424.652.652,0,0,0,.174.447.678.678,0,0,0,.421.119c1.919.085,2.845-.594,4.016,1.076a1.352,1.352,0,0,0,.4.424,1.228,1.228,0,0,0,.529.132c1.319.109,2.182-.715,3.387-.868,1.673-.213,2.027.649,3.5,1.342C382.533,285.277,383.657,284.605,384.092,283.026Z" fill="#ebebeb"/>
            <path id="Path_400" data-name="Path 400" d="M381.962,268.951a6.682,6.682,0,0,0,.207-1.371c.169-2.843,2.884-2.393,5.193-2.778,1.8-.3-2.973-4.859.665-6.33a3.2,3.2,0,0,0,1.755-1.223,2.065,2.065,0,0,0-.792-2.522,4.882,4.882,0,0,0-2.762-.693c-.593-.721-.111-1.807.463-2.543s1.278-1.575,1.06-2.484c-.328-1.371-2.245-1.42-3.63-1.154a9.946,9.946,0,0,1-.75-2.806c-.248-.942-1-1.931-1.964-1.813-.911.111-1.467,1.139-2.36,1.35-1.038.244-1.936-.673-2.749-1.361s-2.237-1.118-2.8-.211c-.336.542-.135,1.3-.484,1.833-.6.926-2.037.351-2.927-.305s-2.307-1.252-2.933-.34a3.8,3.8,0,0,0-.345.951c-.421,1.215-1.734,1.82-2.756,2.6s-1.833,2.329-.968,3.28c.427.468,1.178.658,1.39,1.256.266.747-.5,1.416-1.1,1.93-1.005.855-1.187,3.413.142,4.112.558.294,1.376.384,1.513,1,.122.55-.436.978-.807,1.4a2.642,2.642,0,0,0,.808,3.933c.319.152.711.278.83.611a1.254,1.254,0,0,1-.077.743,3.932,3.932,0,0,0-.128,1.424.652.652,0,0,0,.174.447.678.678,0,0,0,.421.119c1.919.085,2.845-.594,4.016,1.076a1.375,1.375,0,0,0,.4.424,1.228,1.228,0,0,0,.529.132c1.319.109,2.182-.715,3.387-.868,1.673-.213,2.028.649,3.5,1.342C380.4,271.2,381.527,270.53,381.962,268.951Z" fill="#ebebeb"/>
            <path id="Path_401" data-name="Path 401" d="M367.4,275.962a6.7,6.7,0,0,0,.207-1.371c.169-2.844,2.884-2.393,5.193-2.779,1.8-.3-2.973-4.859.665-6.329a3.2,3.2,0,0,0,1.755-1.224,2.066,2.066,0,0,0-.792-2.522,4.889,4.889,0,0,0-2.762-.692c-.593-.722-.111-1.807.464-2.544s1.277-1.575,1.059-2.483c-.328-1.371-2.245-1.421-3.63-1.154a9.951,9.951,0,0,1-.75-2.807c-.248-.942-1-1.93-1.964-1.812-.911.111-1.467,1.139-2.36,1.349-1.038.245-1.936-.672-2.749-1.36s-2.237-1.118-2.8-.212c-.336.543-.135,1.3-.484,1.834-.6.926-2.037.351-2.927-.306s-2.307-1.251-2.933-.34a3.825,3.825,0,0,0-.345.952c-.421,1.214-1.734,1.819-2.756,2.6s-1.833,2.328-.968,3.279c.427.469,1.178.659,1.39,1.257.265.746-.5,1.416-1.1,1.929-1.006.855-1.188,3.414.141,4.113.558.294,1.376.384,1.513,1,.122.551-.436.979-.807,1.4a2.641,2.641,0,0,0,.808,3.932c.319.153.711.278.83.612a1.254,1.254,0,0,1-.077.743,3.909,3.909,0,0,0-.127,1.424.642.642,0,0,0,.173.446.673.673,0,0,0,.421.119c1.919.086,2.845-.594,4.016,1.076a1.379,1.379,0,0,0,.4.425,1.245,1.245,0,0,0,.529.132c1.32.108,2.182-.715,3.387-.869,1.673-.213,2.027.65,3.5,1.342C365.844,278.212,366.968,277.541,367.4,275.962Z" fill="#ebebeb"/>
            <path id="Path_402" data-name="Path 402" d="M352.689,272.724a6.7,6.7,0,0,0,.207-1.371c.169-2.844,2.884-2.393,5.193-2.779,1.8-.3-2.973-4.859.665-6.329a3.2,3.2,0,0,0,1.755-1.224,2.067,2.067,0,0,0-.792-2.522,4.89,4.89,0,0,0-2.762-.692c-.593-.722-.111-1.807.463-2.544s1.278-1.575,1.06-2.483c-.329-1.372-2.245-1.421-3.63-1.154a9.954,9.954,0,0,1-.75-2.807c-.248-.942-1-1.93-1.964-1.812-.911.111-1.468,1.139-2.361,1.349-1.037.245-1.935-.672-2.749-1.36s-2.236-1.118-2.8-.212c-.335.543-.134,1.3-.483,1.834-.6.926-2.037.351-2.927-.306s-2.307-1.251-2.933-.34a3.808,3.808,0,0,0-.345.952c-.421,1.214-1.734,1.819-2.757,2.6s-1.832,2.329-.967,3.279c.427.469,1.178.659,1.39,1.257.265.747-.5,1.416-1.1,1.929-1.005.855-1.187,3.413.142,4.113.558.294,1.376.384,1.513,1,.122.55-.436.979-.807,1.4a2.641,2.641,0,0,0,.808,3.932c.319.153.711.278.829.612a1.246,1.246,0,0,1-.076.743,3.93,3.93,0,0,0-.128,1.424.647.647,0,0,0,.174.446.678.678,0,0,0,.421.119c1.919.086,2.845-.594,4.016,1.076a1.367,1.367,0,0,0,.4.425,1.242,1.242,0,0,0,.529.132c1.32.108,2.182-.715,3.387-.869,1.673-.213,2.027.65,3.5,1.342C351.13,274.974,352.254,274.3,352.689,272.724Z" fill="#ebebeb"/>
            <path id="Path_403" data-name="Path 403" d="M352.5,288.463a5.247,5.247,0,0,0,.163-1.079c.133-2.239,2.271-1.884,4.089-2.188,1.42-.237-2.341-3.826.523-4.984a2.518,2.518,0,0,0,1.382-.963,1.627,1.627,0,0,0-.623-1.986,3.849,3.849,0,0,0-2.175-.545c-.467-.568-.087-1.423.365-2s1.006-1.24.834-1.955c-.258-1.08-1.767-1.119-2.858-.909a7.875,7.875,0,0,1-.591-2.21c-.195-.742-.785-1.52-1.546-1.427-.717.087-1.155.9-1.859,1.063-.816.192-1.524-.53-2.164-1.072s-1.761-.88-2.2-.166c-.264.427-.105,1.022-.38,1.443-.476.729-1.6.277-2.305-.24s-1.816-.986-2.309-.268a2.991,2.991,0,0,0-.272.749c-.331.957-1.365,1.433-2.17,2.046s-1.444,1.834-.762,2.582c.336.369.927.519,1.094.99.209.588-.392,1.115-.867,1.519-.792.673-.935,2.687.111,3.238.439.231,1.084.3,1.191.787.1.433-.343.771-.635,1.1a2.08,2.08,0,0,0,.636,3.1c.252.12.56.219.653.481a.983.983,0,0,1-.06.585,3.074,3.074,0,0,0-.1,1.121.51.51,0,0,0,.136.352.53.53,0,0,0,.332.094c1.511.067,2.24-.468,3.162.847a1.083,1.083,0,0,0,.315.334.977.977,0,0,0,.417.1c1.039.086,1.718-.562,2.667-.683,1.317-.168,1.6.511,2.756,1.056C351.27,290.235,352.154,289.707,352.5,288.463Z" fill="#ebebeb"/>
            <path id="Path_404" data-name="Path 404" d="M344.252,283.026a6.685,6.685,0,0,0,.207-1.371c.169-2.843,2.884-2.393,5.193-2.778,1.8-.3-2.973-4.86.665-6.33a3.191,3.191,0,0,0,1.755-1.223,2.065,2.065,0,0,0-.792-2.522,4.882,4.882,0,0,0-2.762-.693c-.593-.721-.111-1.807.464-2.543s1.277-1.575,1.059-2.483c-.328-1.372-2.245-1.421-3.63-1.155a9.943,9.943,0,0,1-.75-2.807c-.248-.941-1-1.93-1.964-1.812-.911.111-1.467,1.139-2.36,1.35-1.037.244-1.936-.673-2.749-1.361s-2.237-1.118-2.8-.211c-.336.542-.135,1.3-.483,1.833-.605.926-2.038.351-2.928-.305s-2.307-1.252-2.933-.34a3.843,3.843,0,0,0-.345.951c-.42,1.215-1.733,1.82-2.756,2.6s-1.833,2.328-.968,3.278c.427.47,1.178.659,1.391,1.257.265.747-.5,1.416-1.1,1.93-1.005.855-1.188,3.413.141,4.112.558.294,1.376.384,1.513,1,.122.55-.436.978-.807,1.4a2.641,2.641,0,0,0,.808,3.932c.32.152.711.278.83.611a1.262,1.262,0,0,1-.076.743,3.89,3.89,0,0,0-.128,1.424.651.651,0,0,0,.173.447.682.682,0,0,0,.421.119c1.919.085,2.845-.594,4.016,1.076a1.375,1.375,0,0,0,.4.424,1.235,1.235,0,0,0,.53.132c1.319.109,2.181-.715,3.386-.868,1.673-.213,2.028.649,3.5,1.342C342.693,285.277,343.817,284.605,344.252,283.026Z" fill="#ebebeb"/>
            <path id="Path_405" data-name="Path 405" d="M367.4,258.649a6.7,6.7,0,0,0,.207-1.371c.169-2.844,2.884-2.393,5.193-2.779,1.8-.3-2.973-4.859.665-6.329a3.2,3.2,0,0,0,1.755-1.224,2.066,2.066,0,0,0-.792-2.522,4.89,4.89,0,0,0-2.762-.692c-.593-.722-.111-1.807.464-2.544s1.277-1.575,1.059-2.483c-.328-1.371-2.245-1.421-3.63-1.154a9.951,9.951,0,0,1-.75-2.807c-.248-.942-1-1.93-1.964-1.812-.911.111-1.467,1.139-2.36,1.349-1.038.245-1.936-.672-2.749-1.36s-2.237-1.118-2.8-.212c-.336.543-.135,1.3-.484,1.834-.6.926-2.037.351-2.927-.306s-2.307-1.251-2.933-.34a3.825,3.825,0,0,0-.345.952c-.421,1.214-1.734,1.819-2.756,2.6s-1.833,2.328-.968,3.279c.427.469,1.178.659,1.39,1.257.265.746-.5,1.416-1.1,1.929-1.006.855-1.188,3.414.141,4.113.558.294,1.376.384,1.513,1,.122.551-.436.979-.807,1.4a2.641,2.641,0,0,0,.808,3.932c.319.153.711.278.83.612a1.254,1.254,0,0,1-.077.743,3.908,3.908,0,0,0-.127,1.424.646.646,0,0,0,.173.447.685.685,0,0,0,.421.118c1.919.086,2.845-.594,4.016,1.076a1.379,1.379,0,0,0,.4.425,1.261,1.261,0,0,0,.529.132c1.32.108,2.182-.715,3.387-.869,1.673-.213,2.027.65,3.5,1.342C365.844,260.9,366.968,260.228,367.4,258.649Z" fill="#ebebeb"/>
            <path id="Path_406" data-name="Path 406" d="M386.306,259.615a6.682,6.682,0,0,0,.207-1.371c.169-2.843,2.883-2.392,5.193-2.778,1.8-.3-2.973-4.859.664-6.329a3.2,3.2,0,0,0,1.756-1.224,2.066,2.066,0,0,0-.793-2.522,4.879,4.879,0,0,0-2.761-.693c-.594-.721-.111-1.807.463-2.543s1.278-1.575,1.06-2.483c-.329-1.372-2.245-1.421-3.63-1.155a9.938,9.938,0,0,1-.75-2.806c-.249-.942-1-1.931-1.964-1.813-.911.111-1.468,1.14-2.361,1.35-1.037.245-1.935-.673-2.749-1.361s-2.236-1.117-2.8-.211c-.335.543-.134,1.3-.483,1.833-.6.926-2.037.352-2.927-.305s-2.307-1.251-2.933-.34a3.8,3.8,0,0,0-.345.951c-.421,1.215-1.734,1.82-2.757,2.6s-1.833,2.328-.967,3.279c.427.469,1.178.659,1.39,1.256.265.747-.5,1.416-1.1,1.93-1.005.855-1.187,3.413.142,4.113.558.293,1.376.384,1.512,1,.123.55-.435.978-.806,1.4a2.641,2.641,0,0,0,.808,3.932c.319.153.711.278.829.612a1.251,1.251,0,0,1-.076.742A3.912,3.912,0,0,0,370,258.1a.651.651,0,0,0,.173.447.683.683,0,0,0,.422.119c1.919.085,2.844-.594,4.016,1.076a1.353,1.353,0,0,0,.4.424,1.228,1.228,0,0,0,.529.132c1.319.109,2.181-.714,3.387-.868,1.673-.213,2.027.649,3.5,1.342C384.747,261.866,385.871,261.194,386.306,259.615Z" fill="#ebebeb"/>
            <path id="Path_407" data-name="Path 407" d="M397.788,267.351a6.75,6.75,0,0,0,.207-1.371c.169-2.843,2.883-2.393,5.192-2.779,1.8-.3-2.973-4.859.665-6.329a3.2,3.2,0,0,0,1.755-1.223,2.067,2.067,0,0,0-.792-2.523,4.889,4.889,0,0,0-2.762-.692c-.593-.721-.11-1.807.464-2.544s1.277-1.574,1.06-2.483c-.329-1.371-2.246-1.42-3.631-1.154a9.985,9.985,0,0,1-.75-2.807c-.248-.942-1-1.93-1.964-1.812-.91.111-1.467,1.139-2.36,1.35-1.037.244-1.935-.673-2.749-1.361s-2.237-1.118-2.8-.211c-.336.542-.135,1.3-.483,1.833-.6.926-2.038.351-2.927-.3s-2.308-1.252-2.934-.34a3.841,3.841,0,0,0-.345.951c-.42,1.214-1.733,1.82-2.756,2.6s-1.833,2.329-.967,3.279c.427.469,1.177.659,1.39,1.257.265.747-.5,1.416-1.1,1.93-1.005.854-1.187,3.413.141,4.112.558.294,1.376.384,1.513,1,.123.55-.436.978-.807,1.4a2.64,2.64,0,0,0,.809,3.932c.319.153.711.279.829.612a1.262,1.262,0,0,1-.076.743,3.91,3.91,0,0,0-.128,1.424.651.651,0,0,0,.173.447.674.674,0,0,0,.421.118c1.919.086,2.845-.593,4.016,1.076a1.379,1.379,0,0,0,.4.425,1.25,1.25,0,0,0,.53.132c1.319.109,2.181-.715,3.387-.868,1.672-.214,2.027.649,3.5,1.342C396.229,269.6,397.352,268.93,397.788,267.351Z" fill="#ebebeb"/>
            <path id="Path_408" data-name="Path 408" d="M394.306,277.128s-4.8,6.789-6.457,8.941-9.935,15.564-11.061,24.435c-.121.947-.239,1.761-.355,2.474,3.561,23.505,3,66.507,2.877,73.87H368.029c-.1-8.3-1.063-84.19-1.416-86.507-.375-2.451-5.091-11.788-12.376-15.624s-13.581-16.53-13.581-16.53h2.322s4.3,7.782,10.431,12.087a23.55,23.55,0,0,0,2.757,1.634,39.1,39.1,0,0,1,2.436-13.721l1.253,1.159c-1.692,6.931-1.47,11.37-.957,13.92a25.227,25.227,0,0,1,6.334,4.239c6.355-8.263,9.928-27.161,9.928-27.161l1.628.889a96.219,96.219,0,0,1-2.1,11.59c-1.19,4.891-4.694,14.1-6.324,18.282a43.351,43.351,0,0,1,4.8,9.011,3.706,3.706,0,0,1,.613-.735c4.139-3.742,11.922-21.425,11.922-21.425,1.882-4.111-.994-14.9-.994-14.9h2.172l.974,9.438,5.464-5.961.993.828-5.8,7.451-2.98,9.44,7.782-8.612Z" fill="#e6e6e6"/>
          </g>
        </g>
        <g id="Group_533" data-name="Group 533">
          <rect id="Rectangle_144" data-name="Rectangle 144" width="340.526" height="11.544" transform="translate(78.568 333.983)" fill="#e0e0e0"/>
          <path id="Path_409" data-name="Path 409" d="M87.755,381.454H71.719V310.231l8.018-5.7,8.018,5.7Z" fill="#e6e6e6"/>
          <path id="Path_410" data-name="Path 410" d="M116.132,381.454H100.1V310.231l8.018-5.7,8.018,5.7Z" fill="#e6e6e6"/>
          <path id="Path_411" data-name="Path 411" d="M144.51,381.454H128.473V310.231l8.018-5.7,8.018,5.7Z" fill="#e6e6e6"/>
          <path id="Path_412" data-name="Path 412" d="M172.887,381.454H156.85V310.231l8.018-5.7,8.018,5.7Z" fill="#e6e6e6"/>
          <path id="Path_413" data-name="Path 413" d="M201.264,381.454H185.227V310.231l8.018-5.7,8.018,5.7Z" fill="#e6e6e6"/>
          <path id="Path_414" data-name="Path 414" d="M229.641,381.454H213.6V310.231l8.018-5.7,8.018,5.7Z" fill="#e6e6e6"/>
          <path id="Path_415" data-name="Path 415" d="M258.018,381.454H241.982V310.231l8.018-5.7,8.018,5.7Z" fill="#e6e6e6"/>
          <path id="Path_416" data-name="Path 416" d="M286.4,381.454H270.359V310.231l8.018-5.7,8.018,5.7Z" fill="#e6e6e6"/>
          <path id="Path_417" data-name="Path 417" d="M314.773,381.454H298.736V310.231l8.018-5.7,8.018,5.7Z" fill="#e6e6e6"/>
          <path id="Path_418" data-name="Path 418" d="M343.15,381.454H327.113V310.231l8.018-5.7,8.018,5.7Z" fill="#e6e6e6"/>
          <path id="Path_419" data-name="Path 419" d="M371.527,381.454H355.49V310.231l8.018-5.7,8.018,5.7Z" fill="#e6e6e6"/>
          <path id="Path_420" data-name="Path 420" d="M399.9,381.454H383.867V310.231l8.018-5.7,8.018,5.7Z" fill="#e6e6e6"/>
          <path id="Path_421" data-name="Path 421" d="M428.281,381.454H412.245V310.231l8.018-5.7,8.018,5.7Z" fill="#e6e6e6"/>
        </g>
      </g>
    </g>
    <g id="Shadow">
      <ellipse id="_Path_" data-name="&lt;Path&gt;" cx="193.889" cy="11.323" rx="193.889" ry="11.323" transform="translate(56.111 404.915)" fill="#f5f5f5"/>
    </g>
    <g id="Floor">
      <g id="Group_537" data-name="Group 537">
        <path id="Path_422" data-name="Path 422" d="M424.069,383.244s9.041-7.956,6.333-9.3-6,6.01-6.333,4.9,1.767-11.212-3.251-10.51,0,10.51,0,10.51-3.717-4.023-5.017-3.393,3.955,7.79,3.955,7.79Z" fill="#407bff"/>
        <path id="Path_423" data-name="Path 423" d="M424.069,383.244s9.041-7.956,6.333-9.3-6,6.01-6.333,4.9,1.767-11.212-3.251-10.51,0,10.51,0,10.51-3.717-4.023-5.017-3.393,3.955,7.79,3.955,7.79Z" fill="#fff" opacity="0.5"/>
        <path id="Path_424" data-name="Path 424" d="M219.306,383.244s-9.041-7.956-6.334-9.3,6,6.01,6.334,4.9-1.768-11.212,3.25-10.51,0,10.51,0,10.51,3.718-4.023,5.017-3.393-3.955,7.79-3.955,7.79Z" fill="#407bff"/>
        <path id="Path_425" data-name="Path 425" d="M317.464,384.482s2.44-8.174-2.5-9.8-7.864-5.45-7.7-9.773-5.031-8.531-8.927-4.479-3.377-3.116-8.573-4.857-9.6,2.484-8.176,6.346-3.7,6.274-9.843,2.99-12.893,2.69-11.6,7.366.236,5.195-3.649,3.637-10.832,2.857-8.4,8.572S317.464,384.482,317.464,384.482Z" fill="#407bff"/>
        <path id="Path_426" data-name="Path 426" d="M190.132,385.346c4.383-2.972.438-8.024-3.944-8.619s-8.787-5.824-9-9.153-8.1-13.57-20.366-7.246-8.541.931-17.418-.845-14.475,3.335-10.58,7.169c0,0-8.917-1.516-12.59,4.131s0,9.154,0,9.154-16.77-.336-15.261,6.7S190.132,385.346,190.132,385.346Z" fill="#407bff"/>
        <path id="Path_427" data-name="Path 427" d="M363.676,381.852s-7.951-15.517-5.952-17.037,5.949,12.964,5.952,11.837-.222-20.856,3.451-20.074,0,18.948,0,18.948,4.943-9.282,6.879-8.581-5.711,11.74-5.711,11.74,4.566-2.762,5.711-2.549-5.711,5.716-5.711,5.716Z" fill="#407bff"/>
        <path id="Path_428" data-name="Path 428" d="M75.469,383.743s7.951-15.517,5.952-17.037-5.949,12.963-5.952,11.837.222-20.856-3.451-20.074,0,18.948,0,18.948-4.943-9.282-6.88-8.581,5.712,11.74,5.712,11.74-4.566-2.762-5.712-2.549,5.712,5.716,5.712,5.716Z" fill="#407bff"/>
        <path id="Path_429" data-name="Path 429" d="M219.306,383.244s-9.041-7.956-6.334-9.3,6,6.01,6.334,4.9-1.768-11.212,3.25-10.51,0,10.51,0,10.51,3.718-4.023,5.017-3.393-3.955,7.79-3.955,7.79Z" fill="#fff" opacity="0.5"/>
        <path id="Path_430" data-name="Path 430" d="M317.464,384.482s2.44-8.174-2.5-9.8-7.864-5.45-7.7-9.773-5.031-8.531-8.927-4.479-3.377-3.116-8.573-4.857-9.6,2.484-8.176,6.346-3.7,6.274-9.843,2.99-12.893,2.69-11.6,7.366.236,5.195-3.649,3.637-10.832,2.857-8.4,8.572S317.464,384.482,317.464,384.482Z" fill="#fff" opacity="0.5"/>
        <path id="Path_431" data-name="Path 431" d="M190.132,385.346c4.383-2.972.438-8.024-3.944-8.619s-8.787-5.824-9-9.153-8.1-13.57-20.366-7.246-8.541.931-17.418-.845-14.475,3.335-10.58,7.169c0,0-8.917-1.516-12.59,4.131s0,9.154,0,9.154-16.77-.336-15.261,6.7S190.132,385.346,190.132,385.346Z" fill="#fff" opacity="0.5"/>
        <path id="Path_432" data-name="Path 432" d="M363.676,381.852s-7.951-15.517-5.952-17.037,5.949,12.964,5.952,11.837-.222-20.856,3.451-20.074,0,18.948,0,18.948,4.943-9.282,6.879-8.581-5.711,11.74-5.711,11.74,4.566-2.762,5.711-2.549-5.711,5.716-5.711,5.716Z" fill="#fff" opacity="0.5"/>
        <path id="Path_433" data-name="Path 433" d="M75.469,383.743s7.951-15.517,5.952-17.037-5.949,12.963-5.952,11.837.222-20.856-3.451-20.074,0,18.948,0,18.948-4.943-9.282-6.88-8.581,5.712,11.74,5.712,11.74-4.566-2.762-5.712-2.549,5.712,5.716,5.712,5.716Z" fill="#fff" opacity="0.5"/>
        <g id="Group_536" data-name="Group 536">
          <path id="Rectangle_145" data-name="Rectangle 145" d="M1.892,0H372.678a1.892,1.892,0,0,1,1.892,1.892V19.009a0,0,0,0,1,0,0H0a0,0,0,0,1,0,0V1.892A1.892,1.892,0,0,1,1.892,0Z" transform="translate(60.426 380.614)" fill="#263238"/>
          <path id="Rectangle_146" data-name="Rectangle 146" d="M1.892,0H372.678a1.892,1.892,0,0,1,1.892,1.892V19.009a0,0,0,0,1,0,0H0a0,0,0,0,1,0,0V1.892A1.892,1.892,0,0,1,1.892,0Z" transform="translate(60.426 380.614)" fill="#fff" opacity="0.8"/>
          <g id="Group_535" data-name="Group 535">
            <rect id="Rectangle_147" data-name="Rectangle 147" width="24.528" height="12.879" transform="translate(408.621 384.418)" fill="#fff" opacity="0.2"/>
            <rect id="Rectangle_148" data-name="Rectangle 148" width="24.527" height="12.878" transform="translate(382.779 383.195)" fill="#fff" opacity="0.2"/>
            <rect id="Rectangle_149" data-name="Rectangle 149" width="15.966" height="8.19" transform="translate(365.764 387.883)" fill="#fff" opacity="0.2"/>
            <rect id="Rectangle_150" data-name="Rectangle 150" width="15.966" height="8.19" transform="translate(66.459 388.941)" fill="#fff" opacity="0.2"/>
            <rect id="Rectangle_151" data-name="Rectangle 151" width="16.785" height="11.213" transform="translate(347.698 383.788)" fill="#fff" opacity="0.2"/>
            <rect id="Rectangle_152" data-name="Rectangle 152" width="11.423" height="11.213" transform="translate(335.039 382.276)" fill="#fff" opacity="0.2"/>
            <rect id="Rectangle_153" data-name="Rectangle 153" width="11.423" height="11.213" transform="translate(84.277 384.418)" fill="#fff" opacity="0.2"/>
            <rect id="Rectangle_154" data-name="Rectangle 154" width="11.423" height="11.213" transform="translate(286.913 384.418)" fill="#fff" opacity="0.2"/>
            <rect id="Rectangle_155" data-name="Rectangle 155" width="11.423" height="7.748" transform="translate(298.907 382.276)" fill="#fff" opacity="0.2"/>
            <rect id="Rectangle_156" data-name="Rectangle 156" width="18.806" height="11.213" transform="translate(315.065 385.251)" fill="#fff" opacity="0.2"/>
            <rect id="Rectangle_157" data-name="Rectangle 157" width="18.806" height="11.213" transform="translate(266.807 383.788)" fill="#fff" opacity="0.2"/>
            <rect id="Rectangle_158" data-name="Rectangle 158" width="12.107" height="3.606" transform="translate(368.512 383.195)" fill="#fff" opacity="0.2"/>
            <rect id="Rectangle_159" data-name="Rectangle 159" width="12.107" height="3.606" transform="translate(66.459 383.448)" fill="#fff" opacity="0.2"/>
            <rect id="Rectangle_160" data-name="Rectangle 160" width="12.107" height="3.606" transform="translate(300.748 391.686)" fill="#fff" opacity="0.2"/>
            <rect id="Rectangle_161" data-name="Rectangle 161" width="24.528" height="12.879" transform="translate(240.622 384.418)" fill="#fff" opacity="0.2"/>
            <rect id="Rectangle_162" data-name="Rectangle 162" width="24.527" height="12.878" transform="translate(214.779 383.195)" fill="#fff" opacity="0.2"/>
            <rect id="Rectangle_163" data-name="Rectangle 163" width="15.966" height="8.19" transform="translate(197.764 387.883)" fill="#fff" opacity="0.2"/>
            <rect id="Rectangle_164" data-name="Rectangle 164" width="16.785" height="11.213" transform="translate(179.699 383.788)" fill="#fff" opacity="0.2"/>
            <rect id="Rectangle_165" data-name="Rectangle 165" width="11.423" height="11.213" transform="translate(167.039 382.276)" fill="#fff" opacity="0.2"/>
            <rect id="Rectangle_166" data-name="Rectangle 166" width="11.423" height="11.213" transform="translate(118.913 384.418)" fill="#fff" opacity="0.2"/>
            <rect id="Rectangle_167" data-name="Rectangle 167" width="11.423" height="7.748" transform="translate(130.907 382.276)" fill="#fff" opacity="0.2"/>
            <rect id="Rectangle_168" data-name="Rectangle 168" width="18.806" height="11.213" transform="translate(147.065 385.251)" fill="#fff" opacity="0.2"/>
            <rect id="Rectangle_169" data-name="Rectangle 169" width="18.806" height="11.213" transform="translate(98.807 383.788)" fill="#fff" opacity="0.2"/>
            <rect id="Rectangle_170" data-name="Rectangle 170" width="12.107" height="3.606" transform="translate(200.512 383.195)" fill="#fff" opacity="0.2"/>
            <rect id="Rectangle_171" data-name="Rectangle 171" width="12.107" height="3.606" transform="translate(132.748 391.686)" fill="#fff" opacity="0.2"/>
          </g>
        </g>
      </g>
    </g>
    <g id="Plant_2" data-name="Plant 2">
      <g id="Group_540" data-name="Group 540">
        <g id="Group_538" data-name="Group 538">
          <path id="Path_434" data-name="Path 434" d="M392.216,370.234s-7.753-9.227-12.715-4.924-2.453,13.433,3.27,13.727a14.369,14.369,0,0,0,9.445-2.885Z" fill="#407bff"/>
          <path id="Path_435" data-name="Path 435" d="M392.216,370.234s-7.753-9.227-12.715-4.924-2.453,13.433,3.27,13.727a14.369,14.369,0,0,0,9.445-2.885Z" fill="#fff" opacity="0.2" style="isolation: isolate"/>
          <path id="Path_436" data-name="Path 436" d="M423.849,346.831s6.512-6.821,10.544-5.665S438,358.621,425.5,352.023Z" fill="#407bff"/>
          <path id="Path_437" data-name="Path 437" d="M423.849,346.831s6.512-6.821,10.544-5.665S438,358.621,425.5,352.023Z" fill="#fff" opacity="0.3" style="isolation: isolate"/>
          <path id="Path_438" data-name="Path 438" d="M400.589,397.724s-21.4-29.274-4.031-35.2,20.468,23.553,15.506,31.761S400.589,397.724,400.589,397.724Z" fill="#407bff"/>
          <path id="Path_439" data-name="Path 439" d="M410.513,337.79s13.274-30.821-6.388-31.751-21.8,30.559.82,35.127Z" fill="#407bff"/>
          <path id="Path_440" data-name="Path 440" d="M400.589,397.724s-21.4-29.274-4.031-35.2,20.468,23.553,15.506,31.761S400.589,397.724,400.589,397.724Z" fill="#fff" opacity="0.3" style="isolation: isolate"/>
          <path id="Path_441" data-name="Path 441" d="M410.513,337.79s13.274-30.821-6.388-31.751-21.8,30.559.82,35.127Z" fill="#fff" opacity="0.3" style="isolation: isolate"/>
          <path id="Path_442" data-name="Path 442" d="M405.8,363.024s-6.454-27.213,5.951-29.384,24.65,22.416-1.011,34.777C410.743,368.417,406.342,365.687,405.8,363.024Z" fill="#407bff"/>
          <path id="Path_443" data-name="Path 443" d="M405.8,363.024s-6.454-27.213,5.951-29.384,24.65,22.416-1.011,34.777C410.743,368.417,406.342,365.687,405.8,363.024Z" fill="#fff" opacity="0.2" style="isolation: isolate"/>
        </g>
        <g id="Group_539" data-name="Group 539">
          <path id="Path_444" data-name="Path 444" d="M385.186,393.573h35.927l-3,22.987H388.186Z" fill="#263238"/>
        </g>
        <path id="Path_445" data-name="Path 445" d="M403.872,335.587c-7.4-5.409-12.528-15.863-8.167-24.673-.173.82-.394,1.711-.593,2.524-1.46,8.357,3.112,16.319,8.76,22.149Z" fill="#407bff"/>
        <path id="Path_446" data-name="Path 446" d="M399.162,309.139c8.529,1.726,12.3,10.778,11.311,18.756-.195,1.12-.356,2.239-.58,3.341a55.175,55.175,0,0,0-.076-6.7c-.533-6.573-4.15-12.989-10.655-15.4Z" fill="#407bff"/>
        <path id="Path_447" data-name="Path 447" d="M414.2,335.587c4.787,1.7,7.786,6.954,7.8,11.937.033,4.336-2.4,8.278-5.08,11.512a38.066,38.066,0,0,1-6.647,6.274,56.864,56.864,0,0,0,6.044-6.751c2.229-2.992,4.192-6.253,4.681-9.945.419-5.142-2.09-10.624-6.8-13.027Z" fill="#407bff"/>
        <path id="Path_448" data-name="Path 448" d="M410.513,337.79c1.279,3.981,2.416,8.746.333,12.667-1.736,2.54-1.916,5.864-1.954,8.9-.027,1.052.019,2.105.071,3.165a23.887,23.887,0,0,1-.691-6.346A11.48,11.48,0,0,1,410,349.927c1.916-3.659,1-8.192.515-12.137Z" fill="#407bff"/>
        <path id="Path_449" data-name="Path 449" d="M401.784,365.31c4.966,2.575,7.024,19.828,6.819,25.265-.158-1.1-.326-2.2-.534-3.29-.952-5.439-1.938-10.9-3.376-16.225-.678-2-1.108-4.459-2.909-5.75Z" fill="#407bff"/>
        <path id="Path_450" data-name="Path 450" d="M395.7,366.255a24.071,24.071,0,0,0,4.884,22.913,26.861,26.861,0,0,1-2.251-2.173,19.015,19.015,0,0,1-2.633-20.74Z" fill="#407bff"/>
        <path id="Path_451" data-name="Path 451" d="M428.9,350.155c2.277-.615,4.215-1.17,5.881-2.843-.412,2.548-3.647,3.748-5.881,2.843Z" fill="#407bff"/>
        <path id="Path_452" data-name="Path 452" d="M427.57,345.657c1.071-2.181,4.725-3.538,6.28-1.163-2.188-.954-4.318.241-6.28,1.163Z" fill="#407bff"/>
        <path id="Path_453" data-name="Path 453" d="M388.674,371.612c-2.5-1.764-5.083-4.76-8.32-3.2,2.631-3.113,7.056.371,8.32,3.2Z" fill="#407bff"/>
        <path id="Path_454" data-name="Path 454" d="M388.674,376.152c-3.264,1.2-9.793,1.292-10.2-3.281,1.871,3.729,6.642,2.909,10.2,3.281Z" fill="#407bff"/>
      </g>
    </g>
    <g id="Plant_1" data-name="Plant 1">
      <g id="Group_544" data-name="Group 544">
        <path id="Path_455" data-name="Path 455" d="M95.257,390.968s-1.388-10.175-7.9-11.288-4.544-6.033-6.239-7.937S75,375.457,78.793,380.9s.692,3.732,2.33,8.792S95.852,399.4,95.257,390.968Z" fill="#263238"/>
        <path id="Path_456" data-name="Path 456" d="M95.257,390.968s-1.388-10.175-7.9-11.288-4.544-6.033-6.239-7.937S75,375.457,78.793,380.9s.692,3.732,2.33,8.792S95.852,399.4,95.257,390.968Z" fill="#fff" opacity="0.2" style="isolation: isolate"/>
        <path id="Path_457" data-name="Path 457" d="M94.986,398.025a.45.45,0,0,1-.407-.255c-.05-.1-5.017-10.687-2.408-27.545a70.719,70.719,0,0,1,3.992-14.093c3.147-8.581,5.633-15.36-.053-27.741-1.8-3.92-3.638-7.572-5.416-11.1-6.675-13.257-11.948-23.728-8.026-34.333a.451.451,0,0,1,.847.313c-3.786,10.237,1.408,20.553,7.985,33.615,1.782,3.538,3.624,7.2,5.431,11.131,5.841,12.719,3.171,20,.079,28.429a69,69,0,0,0-3.947,13.92c-2.564,16.562,2.28,26.913,2.33,27.016a.45.45,0,0,1-.212.6A.438.438,0,0,1,94.986,398.025Z" fill="#263238"/>
        <path id="Path_458" data-name="Path 458" d="M91.23,395.54s-4.206-6.338,1.865-9.6,7.286-.635,11.042-2.978,6.6-8.021,7.241-4.388-3.7,5.7-2.163,7.366S99.006,398.4,91.23,395.54Z" fill="#263238"/>
        <g id="Group_542" data-name="Group 542">
          <path id="Path_459" data-name="Path 459" d="M81.309,288.4s-4.1-12.454,5.221-12.715S85.577,287.077,81.309,288.4Z" fill="#263238"/>
          <path id="Path_460" data-name="Path 460" d="M89.4,297.979s2.777-11.324,9.392-8.936S96,298.188,89.4,297.979Z" fill="#263238"/>
          <path id="Path_461" data-name="Path 461" d="M78.182,298.96s1-9.037-6.022-9.216S68.266,297.5,78.182,298.96Z" fill="#263238"/>
          <path id="Path_462" data-name="Path 462" d="M82.852,317.395s-9.42-8.4-12.808-2.149S77.15,322.8,82.852,317.395Z" fill="#263238"/>
          <path id="Path_463" data-name="Path 463" d="M99.517,315.9s1.771-13.947,9.38-9.572S106.146,317.3,99.517,315.9Z" fill="#263238"/>
          <path id="Path_464" data-name="Path 464" d="M106.212,335.873s-5.616-14.092,4.821-12.5S113.58,332.453,106.212,335.873Z" fill="#263238"/>
          <path id="Path_465" data-name="Path 465" d="M90.2,340.9s-8.816-10.385-15.552-7.092S73.414,347.427,90.2,340.9Z" fill="#263238"/>
          <path id="Path_466" data-name="Path 466" d="M98.2,363.91s7.51-16.676,14.187-11.056S108.125,366.877,98.2,363.91Z" fill="#263238"/>
          <path id="Path_467" data-name="Path 467" d="M87.283,362.934s1.985-12.936-5.45-11.9S76.35,359.992,87.283,362.934Z" fill="#263238"/>
          <g id="Group_541" data-name="Group 541" opacity="0.2" style="isolation: isolate">
            <path id="Path_468" data-name="Path 468" d="M81.309,288.4s-4.1-12.454,5.221-12.715S85.577,287.077,81.309,288.4Z" fill="#fff"/>
            <path id="Path_469" data-name="Path 469" d="M89.4,297.979s2.777-11.324,9.392-8.936S96,298.188,89.4,297.979Z" fill="#fff"/>
            <path id="Path_470" data-name="Path 470" d="M78.182,298.96s1-9.037-6.022-9.216S68.266,297.5,78.182,298.96Z" fill="#fff"/>
            <path id="Path_471" data-name="Path 471" d="M82.852,317.395s-9.42-8.4-12.808-2.149S77.15,322.8,82.852,317.395Z" fill="#fff"/>
            <path id="Path_472" data-name="Path 472" d="M99.517,315.9s1.771-13.947,9.38-9.572S106.146,317.3,99.517,315.9Z" fill="#fff"/>
            <path id="Path_473" data-name="Path 473" d="M106.212,335.873s-5.616-14.092,4.821-12.5S113.58,332.453,106.212,335.873Z" fill="#fff"/>
            <path id="Path_474" data-name="Path 474" d="M90.2,340.9s-8.816-10.385-15.552-7.092S73.414,347.427,90.2,340.9Z" fill="#fff"/>
            <path id="Path_475" data-name="Path 475" d="M98.2,363.91s7.51-16.676,14.187-11.056S108.125,366.877,98.2,363.91Z" fill="#fff"/>
            <path id="Path_476" data-name="Path 476" d="M87.283,362.934s1.985-12.936-5.45-11.9S76.35,359.992,87.283,362.934Z" fill="#fff"/>
          </g>
        </g>
        <path id="Path_477" data-name="Path 477" d="M85.34,305.477a.452.452,0,0,1-.22-.058c-5.516-3.088-9.482-8.923-9.648-9.17a.451.451,0,0,1,.749-.5,32.976,32.976,0,0,0,8.94,8.656c.842-1.559,3.875-6.942,6.4-8.46a.451.451,0,1,1,.464.774c-2.689,1.613-6.253,8.449-6.289,8.518a.449.449,0,0,1-.271.225A.445.445,0,0,1,85.34,305.477Z" fill="#263238"/>
        <path id="Path_478" data-name="Path 478" d="M93.882,322.782a.45.45,0,0,1-.272-.091c-7.841-5.927-17.871-5.676-17.977-5.68a.472.472,0,0,1-.465-.437.451.451,0,0,1,.436-.466c.1,0,10.11-.255,18.15,5.568,1.049-1.675,5.083-7.742,10.258-10.789a.451.451,0,0,1,.458.777c-5.708,3.36-10.155,10.821-10.2,10.9a.447.447,0,0,1-.3.213A.432.432,0,0,1,93.882,322.782Z" fill="#263238"/>
        <path id="Path_479" data-name="Path 479" d="M99.322,345.649a.458.458,0,0,1-.226-.06c-.115-.067-11.579-6.657-19.867-6.82a.451.451,0,0,1-.442-.46.421.421,0,0,1,.46-.443c7.9.156,18.187,5.749,20.028,6.786,5.319-4.487,9.546-15.5,9.589-15.613a.451.451,0,0,1,.844.32c-.181.475-4.484,11.685-10.1,16.191A.445.445,0,0,1,99.322,345.649Z" fill="#263238"/>
        <path id="Path_480" data-name="Path 480" d="M92.683,369.3a.453.453,0,0,1-.224-.06c-4.336-2.478-9.932-13.334-10.168-13.795a.451.451,0,0,1,.8-.412c.055.108,5.409,10.5,9.479,13.216a25.811,25.811,0,0,1,12.6-8.05.452.452,0,0,1,.26.866A24.682,24.682,0,0,0,93.051,369.1.449.449,0,0,1,92.683,369.3Z" fill="#263238"/>
        <path id="Path_481" data-name="Path 481" d="M91.876,394.028s-3.607-5.74-7.68-6.557-5.828-5.509-7.331-2.687S79.507,396.96,91.876,394.028Z" fill="#263238"/>
        <g id="Group_543" data-name="Group 543">
          <path id="Path_482" data-name="Path 482" d="M73.16,416.559h39.378l2.635-24.289H70.525Z" fill="#407bff"/>
          <path id="Path_483" data-name="Path 483" d="M69.606,396.872h46.487l.595-5.147H69.011Z" fill="#407bff"/>
          <path id="Path_484" data-name="Path 484" d="M69.606,396.872h46.487l.595-5.147H69.011Z" fill="#fff" opacity="0.3"/>
        </g>
      </g>
    </g>
    <g id="Character">
      <g id="Group_555" data-name="Group 555">
        <g id="Group_545" data-name="Group 545">
          <path id="Path_485" data-name="Path 485" d="M213.746,163.527v81.948h13.846v-79.97Z" fill="#407bff"/>
          <path id="Path_486" data-name="Path 486" d="M213.746,163.527v81.948h13.846v-79.97Z" fill="#fff" opacity="0.7"/>
          <path id="Path_487" data-name="Path 487" d="M214.24,203.355s.693-2.67,1.187-2.868,1.187,7.854,2.275,8.377,2.176-5.706,2.967-5.706.89,5.044,1.978,4.846,1.879-9.693,2.769-9.791,1.484,3.164,1.484,3.164v2.176s-.791-2.67-1.385-2.967-1.088,12.264-2.571,12.462-1.934-6.033-2.55-5.934-1.208,6.923-2.692,7.121-1.978-9.594-2.571-9.594-.891,2.176-.891,2.176Z" fill="#fff" opacity="0.3"/>
          <path id="Path_488" data-name="Path 488" d="M214.24,220.1s1.088,5.143,1.682,5.637,1.286-4.154,2.275-3.659,1.032,6.923,2.2,7.22,2.154-8.011,3.044-8.11,1.286,3.066,1.781,3.066,1.681-6.132,1.681-6.132v4.747s-.791,5.242-1.582,5.143-1.583-2.473-1.979-2.473-1.241,7.593-2.945,7.357-2.1-7.709-2.692-7.384-.989,3.489-1.582,3.39-1.88-3.39-1.88-3.39Z" fill="#fff" opacity="0.3"/>
          <path id="Path_489" data-name="Path 489" d="M214.24,179.073s1.088,5.143,1.682,5.637,1.286-4.153,2.275-3.659,1.032,6.923,2.2,7.22,2.154-8.011,3.044-8.11,1.286,3.066,1.781,3.066S226.9,177.1,226.9,177.1v4.747s-.791,5.242-1.582,5.143-1.583-2.472-1.979-2.472-1.241,7.592-2.945,7.356-2.1-7.709-2.692-7.384-.989,3.489-1.582,3.39-1.88-3.39-1.88-3.39Z" fill="#fff" opacity="0.3"/>
        </g>
        <g id="Group_546" data-name="Group 546">
          <path id="Path_490" data-name="Path 490" d="M324.76,412.226h-20V168.371a37.046,37.046,0,1,0-74.091,0v10.812h-20V168.371a57.046,57.046,0,1,1,114.091,0Z" fill="#263238"/>
        </g>
        <g id="Group_547" data-name="Group 547" opacity="0.6">
          <path id="Path_491" data-name="Path 491" d="M324.76,412.226h-20V168.371a37.046,37.046,0,1,0-74.091,0v10.812h-20V168.371a57.046,57.046,0,1,1,114.091,0Z" fill="#fff"/>
        </g>
        <g id="Group_548" data-name="Group 548">
          <path id="Path_492" data-name="Path 492" d="M229.131,182.185H212.207a2.235,2.235,0,0,1-2.225-2.029l-.813-8.783h23l-.813,8.783A2.234,2.234,0,0,1,229.131,182.185Z" fill="#263238"/>
        </g>
        <g id="Group_549" data-name="Group 549">
          <path id="Path_493" data-name="Path 493" d="M335.262,412.226h-41V333.419a4.947,4.947,0,0,1,4.948-4.947h31.108a4.947,4.947,0,0,1,4.948,4.947Z" fill="#263238"/>
        </g>
        <g id="Group_550" data-name="Group 550" opacity="0.5">
          <path id="Path_494" data-name="Path 494" d="M335.262,412.226h-41V333.419a4.947,4.947,0,0,1,4.948-4.947h31.108a4.947,4.947,0,0,1,4.948,4.947Z" fill="#fff"/>
        </g>
        <g id="Group_553" data-name="Group 553">
          <g id="Group_551" data-name="Group 551">
            <path id="Path_495" data-name="Path 495" d="M336.662,357.275H326.656c-8.794,0-15.923,8.457-15.923,18.89s7.129,18.89,15.923,18.89h10.006c8.794,0,15.924-8.458,15.924-18.89S345.456,357.275,336.662,357.275Z" fill="#263238"/>
            <path id="Path_496" data-name="Path 496" d="M336.662,357.275H326.656c-8.794,0-15.923,8.457-15.923,18.89s7.129,18.89,15.923,18.89h10.006c8.794,0,15.924-8.458,15.924-18.89S345.456,357.275,336.662,357.275Z" fill="#fff" opacity="0.6"/>
            <ellipse id="Ellipse_2" data-name="Ellipse 2" cx="15.923" cy="18.89" rx="15.923" ry="18.89" transform="translate(320.739 357.275)" fill="#fff" opacity="0.2"/>
            <path id="Path_497" data-name="Path 497" d="M336.662,392.555c-7.4,0-13.423-7.353-13.423-16.39s6.022-16.391,13.423-16.391,13.424,7.353,13.424,16.391S344.064,392.555,336.662,392.555Z" opacity="0.2"/>
          </g>
          <g id="Group_552" data-name="Group 552">
            <path id="Path_498" data-name="Path 498" d="M355.084,360.513V317.834h-19.45v42.679c-6.26,1.867-10.874,8.178-10.874,15.7,0,8.989,6.583,16.276,14.7,16.276h11.792c8.121,0,14.7-7.287,14.7-16.276C365.959,368.691,361.345,362.38,355.084,360.513Z" fill="#263238"/>
            <path id="Path_499" data-name="Path 499" d="M355.084,360.513V317.834h-19.45v42.679c-6.26,1.867-10.874,8.178-10.874,15.7,0,8.989,6.583,16.276,14.7,16.276h11.792c8.121,0,14.7-7.287,14.7-16.276C365.959,368.691,361.345,362.38,355.084,360.513Z" fill="#fff" opacity="0.6"/>
            <path id="Path_500" data-name="Path 500" d="M355.084,360.513V317.834h-7.658v42.679c-6.261,1.867-10.875,8.178-10.875,15.7,0,8.989,6.583,16.276,14.7,16.276s14.7-7.287,14.7-16.276C365.959,368.691,361.345,362.38,355.084,360.513Z" fill="#fff" opacity="0.3"/>
          </g>
        </g>
        <g id="Group_554" data-name="Group 554" opacity="0.5">
          <path id="Path_501" data-name="Path 501" d="M229.131,182.185H212.207a2.235,2.235,0,0,1-2.225-2.029l-.813-8.783h23l-.813,8.783A2.234,2.234,0,0,1,229.131,182.185Z" fill="#fff"/>
        </g>
        <path id="Path_502" data-name="Path 502" d="M211.058,241.717c.953-.377,2.077,2.019,4.154,2.316s1.879-4.451,3.857-4.451,1.187,4.181,3.165,4.464,2.868-3.672,3.659-2.98-1.187,2.429.495,3,1.9-1.413,3.078-1.314-.152,5.539-2.566,4.649a11.937,11.937,0,0,1-10.8.494s-1.861.692-3.65-1.582S209.664,242.27,211.058,241.717Z" fill="#407bff"/>
        <path id="Path_503" data-name="Path 503" d="M211.058,241.717c.953-.377,2.077,2.019,4.154,2.316s1.879-4.451,3.857-4.451,1.187,4.181,3.165,4.464,2.868-3.672,3.659-2.98-1.187,2.429.495,3,1.9-1.413,3.078-1.314-.152,5.539-2.566,4.649a11.937,11.937,0,0,1-10.8.494s-1.861.692-3.65-1.582S209.664,242.27,211.058,241.717Z" fill="#fff" opacity="0.6"/>
        <path id="Path_504" data-name="Path 504" d="M344.681,405.887H284.839a7.577,7.577,0,0,0-5.529,2.4l-7.76,8.276h86.42l-7.76-8.276A7.578,7.578,0,0,0,344.681,405.887Z" fill="#263238"/>
        <path id="Path_505" data-name="Path 505" d="M344.681,405.887H284.839a7.577,7.577,0,0,0-5.529,2.4l-7.76,8.276h86.42l-7.76-8.276A7.578,7.578,0,0,0,344.681,405.887Z" fill="#fff" opacity="0.6"/>
      </g>
      <g id="Group_564" data-name="Group 564">
        <path id="Path_506" data-name="Path 506" d="M140.676,195.337c-5.312,7.991-4.7,11.906-3.008,27.672s-3.927,22.385-1.2,29.638,22.251,6.646,30.949-7.886-2.256-45.758-10.559-48.8A27.867,27.867,0,0,0,140.676,195.337Z" fill="#263238"/>
        <path id="Path_507" data-name="Path 507" d="M175.2,231.126a85.8,85.8,0,0,0,16.151,4.969c5.036.22,9.92-1.621,14.961-2.939,3.736-1.111,7.518-2.309,11.24-3.524a2.171,2.171,0,0,1,1.738,3.955c-3.539,1.992-7.116,3.78-10.829,5.416-5.74,2.333-11.677,5.154-18.085,4.9-6.667-.753-13.425-2.02-19.452-5.162a4.365,4.365,0,0,1,4.276-7.611Z" fill="#e9b376"/>
        <path id="Path_508" data-name="Path 508" d="M185.08,232.9c-.22,1.81-2.56,4.69-4.98,7.23-2.77,2.89-5.65,5.35-5.65,5.35a49.135,49.135,0,0,1-3.58-3.88c-3.13-3.76-7.06-9.54-6.08-14C170.33,225.44,175.66,228.24,185.08,232.9Z" fill="#407bff"/>
        <path id="Path_509" data-name="Path 509" d="M180.1,240.13c-2.77,2.89-5.65,5.35-5.65,5.35a49.135,49.135,0,0,1-3.58-3.88,9.663,9.663,0,0,1,3.25-7.58A13.266,13.266,0,0,1,180.1,240.13Z" opacity="0.1"/>
        <path id="Path_510" data-name="Path 510" d="M206.785,416.555c-5.337,0-6.042-.083-9.041-.184-2.568-.091-3.182.23-5.246.184-1.724-.037-1.66-1.688-1.128-3.586.266-.954.676-2.97,1.043-4.51l7.819-.568c1.1,2.1,3.583,5.1,6.591,5.5C209.694,413.776,208.913,416.555,206.785,416.555Z" fill="#407bff"/>
        <g id="Group_556" data-name="Group 556">
          <path id="Path_511" data-name="Path 511" d="M200.264,408.45c-1.07.98-5.6,1.46-8.17,1.24,0,0-24.78-43.55-18.92-67.48q-2.79-7.59-4.82-14.29a199.983,199.983,0,0,1-5.07-20.11c-4.79-24.57-1.15-35.58-1.15-35.58l18.73-2.96s1.18,4.5,2.09,10.28c3.46,22.1,3.57,41.65,4.58,57.24C188.984,359.32,196.274,394.39,200.264,408.45Z" fill="#263238"/>
        </g>
        <path id="Path_512" data-name="Path 512" d="M168.354,327.92a199.983,199.983,0,0,1-5.07-20.11,29.2,29.2,0,0,1,6.38-10.66S171.084,316.25,168.354,327.92Z" opacity="0.3"/>
        <path id="Path_513" data-name="Path 513" d="M167.761,416.555c-5.338,0-6.043-.083-9.042-.184-2.568-.091-3.182.23-5.245.184-1.725-.037-1.66-1.688-1.128-3.586.266-.954.675-2.97,1.042-4.51l7.82-.568c1.1,2.1,3.583,5.1,6.59,5.5C170.669,413.776,169.889,416.555,167.761,416.555Z" fill="#407bff"/>
        <g id="Group_557" data-name="Group 557">
          <path id="Path_514" data-name="Path 514" d="M173.427,270.445s-5.707,44.159-8.977,65.41c-3.435,22.319-3.871,58.131-3.012,72.726-1.251.726-5.781.22-8.244-.55,0,0-14.814-47.873-3.934-69.972-7.04-51.641,3.148-64.287,3.148-64.287Z" fill="#263238"/>
        </g>
        <path id="Path_515" data-name="Path 515" d="M141.363,239.451c7.97,17.23,10.35,26.21,11.05,34.32l28.45-4.5c-.65-9.4-1.141-15.02-1.821-20.71a87.069,87.069,0,0,0-1.879-11.6c-.77-4.05-3.97-8.23-7.9-9.61a7.793,7.793,0,0,0-2.83-.48c-1.42.03-2.9.08-4.329.18a93.081,93.081,0,0,0-12.921,2.04c-1.219.26-2.4.54-3.509.84a5.229,5.229,0,0,0-.7.23A6.717,6.717,0,0,0,141.363,239.451Z" fill="#407bff"/>
        <path id="Path_516" data-name="Path 516" d="M147.786,214.4c1.783,3.979,4.371,11.378,2.108,14.58,0,0,3.844-1.215,13.023,2.632,1.872-3.855-.1-4.677-.1-4.677-4.894-.36-5.575-3.778-5.52-7.1Z" fill="#ebb376"/>
        <path id="Path_517" data-name="Path 517" d="M151.664,216.621l5.627,3.216a13.106,13.106,0,0,0,.135,2.329c-1.83.028-4.716-1.509-5.336-3.311A6.271,6.271,0,0,1,151.664,216.621Z" opacity="0.2"/>
        <g id="Group_558" data-name="Group 558">
          <path id="Path_518" data-name="Path 518" d="M142.915,206.62c2.324,6.513,3.169,9.312,7.509,11.925,6.529,3.932,14.04.116,13.713-6.848-.294-6.268-4.045-15.866-11.314-16.988A8.858,8.858,0,0,0,142.915,206.62Z" fill="#ebb376"/>
          <path id="Path_519" data-name="Path 519" d="M150.572,191.613c5.056,0,12.459,4.656,6.029,6.035.064,2.069-3.717,2.242-6.511,1.265.454,1.5-1.971,4.606-5.458,3.826,2.032,1,2.394,6.174,0,6.576s-7.394,1.963-6.934-6.576S145.17,191.613,150.572,191.613Z" fill="#263238"/>
          <path id="Path_520" data-name="Path 520" d="M151.666,206.381c.171.555.6.937.961.853s.512-.6.341-1.158-.6-.937-.962-.853S151.494,205.826,151.666,206.381Z" fill="#263238"/>
          <path id="Path_521" data-name="Path 521" d="M158.614,204.523c.172.555.6.937.962.852s.512-.6.34-1.158-.6-.936-.961-.852S158.443,203.968,158.614,204.523Z" fill="#263238"/>
          <path id="Path_522" data-name="Path 522" d="M158.806,203.433l1.2-.694S159.652,203.939,158.806,203.433Z" fill="#263238"/>
          <path id="Path_523" data-name="Path 523" d="M156.855,206.244a17.053,17.053,0,0,0,3.054,3.083,2.311,2.311,0,0,1-1.846.832Z" fill="#d58745"/>
          <path id="Path_524" data-name="Path 524" d="M155.535,212.953a5.354,5.354,0,0,0,.947-.137.155.155,0,0,0,.111-.2.182.182,0,0,0-.212-.125,4.822,4.822,0,0,1-4.083-.885.162.162,0,1,0-.215.241A5.068,5.068,0,0,0,155.535,212.953Z" fill="#263238"/>
          <path id="Path_525" data-name="Path 525" d="M142.293,212.575a5.549,5.549,0,0,0,3.89,1.689c1.879-.011,2.181-1.947,1.124-3.561-.952-1.453-3.076-3.2-4.705-2.41C141,209.07,140.991,211.242,142.293,212.575Z" fill="#ebb376"/>
          <path id="Path_526" data-name="Path 526" d="M149.558,203.145a.307.307,0,0,0,.218-.137,2.48,2.48,0,0,1,2.04-1.178.311.311,0,0,0,.328-.321.369.369,0,0,0-.35-.348,3.1,3.1,0,0,0-2.6,1.458.345.345,0,0,0,.114.467A.351.351,0,0,0,149.558,203.145Z" fill="#263238"/>
          <path id="Path_527" data-name="Path 527" d="M160.356,200.2a.31.31,0,0,0,.224-.1.334.334,0,0,0-.03-.473,3.553,3.553,0,0,0-2.977-1.024.309.309,0,0,0-.236.394.368.368,0,0,0,.416.263,2.835,2.835,0,0,1,2.35.835A.359.359,0,0,0,160.356,200.2Z" fill="#263238"/>
          <path id="Path_528" data-name="Path 528" d="M151.857,205.291l1.2-.694S152.7,205.8,151.857,205.291Z" fill="#263238"/>
        </g>
        <g id="Group_559" data-name="Group 559">
          <path id="Path_529" data-name="Path 529" d="M144.972,230.161a72.945,72.945,0,0,0,7.06,3.19h.01c.621.23,1.25.46,1.89.67,3.661,1.23,7.491,1.99,10.221,1.19a6.706,6.706,0,0,0,4.5-3.62,6.364,6.364,0,0,0,.42-1.22,9.182,9.182,0,0,0,.189-3.02,7.793,7.793,0,0,0-2.83-.48c-.319.01-.63.01-.949.03-.42,0-.83.02-1.25.03-.71.03-1.431.07-2.13.12a93.081,93.081,0,0,0-12.921,2.04l-.279.06c-.32.07-.641.14-.951.21-.779.18-1.549.37-2.279.57A5.229,5.229,0,0,0,144.972,230.161Z" fill="#ebb376"/>
          <path id="Path_530" data-name="Path 530" d="M147.952,229.361a23.79,23.79,0,0,1,4.08,3.99h.01c.621.23,1.25.46,1.89.67a19.59,19.59,0,0,0-5.029-4.87C148.583,229.221,148.262,229.291,147.952,229.361Z" fill="#263238"/>
          <path id="Path_531" data-name="Path 531" d="M164.233,226.931a25.76,25.76,0,0,1,4.42,4.66,6.364,6.364,0,0,0,.42-1.22,19.615,19.615,0,0,0-3.59-3.47C165.063,226.9,164.653,226.921,164.233,226.931Z" fill="#263238"/>
          <path id="Path_532" data-name="Path 532" d="M147.952,229.361a23.79,23.79,0,0,1,4.08,3.99h.01c.621.23,1.25.46,1.89.67a19.59,19.59,0,0,0-5.029-4.87C148.583,229.221,148.262,229.291,147.952,229.361Z" fill="#fff" opacity="0.2"/>
          <path id="Path_533" data-name="Path 533" d="M164.233,226.931a25.76,25.76,0,0,1,4.42,4.66,6.364,6.364,0,0,0,.42-1.22,19.615,19.615,0,0,0-3.59-3.47C165.063,226.9,164.653,226.921,164.233,226.931Z" fill="#fff" opacity="0.2"/>
        </g>
        <path id="Path_534" data-name="Path 534" d="M227.295,226.029,227,227.884a2.187,2.187,0,0,1-1.184,1.614l-2.956,1.47a4.071,4.071,0,0,1-3.738-.055l-.721-.385c.279-3.11,2.872-6.266,2.872-6.266l.639-.982a1.817,1.817,0,0,1,2.517-.593l1.961,1.242A2.093,2.093,0,0,1,227.295,226.029Z" fill="#ebb376"/>
        <g id="Group_562" data-name="Group 562">
          <path id="Path_535" data-name="Path 535" d="M262.732,321.1l-73.414-3.62a2.342,2.342,0,0,1-2.227-2.352l.547-104.92a2.343,2.343,0,0,1,2.458-2.328l82.643,4.075a2.343,2.343,0,0,1,2.218,2.558L265.18,318.98A2.344,2.344,0,0,1,262.732,321.1Z" fill="#407bff"/>
          <path id="Path_536" data-name="Path 536" d="M262.732,321.1l-73.414-3.62a2.342,2.342,0,0,1-2.227-2.352l.547-104.92a2.343,2.343,0,0,1,2.458-2.328l82.643,4.075a2.343,2.343,0,0,1,2.218,2.558L265.18,318.98A2.344,2.344,0,0,1,262.732,321.1Z" fill="#fff" opacity="0.5"/>
          <path id="Path_537" data-name="Path 537" d="M270.341,247.754l-6.65,71.09a.853.853,0,0,1-.84.76l-73.46-3.62a.84.84,0,0,1-.8-.85l.32-61.08c4.05-9.72,16.71-10.11,27.39-3.78,5.33,3.16,10.9,7.24,16.79,10.27,5.92,3.04,12.17,5.03,18.81,3.95C265.161,262.334,268.021,256.454,270.341,247.754Z" fill="#fff" opacity="0.2"/>
          <g id="Group_560" data-name="Group 560">
            <path id="Path_538" data-name="Path 538" d="M227.591,211.234v56.25h-13.85v-56.93l5.08.25,3.36.16Z" fill="#407bff"/>
            <path id="Path_539" data-name="Path 539" d="M227.591,211.234v56.25h-13.85v-56.93l5.08.25,3.36.16Z" fill="#fff" opacity="0.7"/>
            <path id="Path_540" data-name="Path 540" d="M214.24,225.369s.693-2.67,1.187-2.868,1.187,7.854,2.275,8.377,2.176-5.706,2.967-5.706.89,5.043,1.978,4.846,1.879-9.693,2.769-9.792,1.484,3.165,1.484,3.165v2.176s-.791-2.67-1.385-2.967-1.088,12.264-2.571,12.462-1.934-6.033-2.55-5.935-1.208,6.924-2.692,7.121-1.978-9.593-2.571-9.593-.891,2.176-.891,2.176Z" fill="#fff" opacity="0.3"/>
            <path id="Path_541" data-name="Path 541" d="M214.24,242.113s1.088,5.143,1.682,5.637,1.286-4.154,2.275-3.659,1.032,6.923,2.2,7.22,2.154-8.011,3.044-8.11,1.286,3.066,1.781,3.066,1.681-6.132,1.681-6.132v4.747s-.791,5.242-1.582,5.143-1.583-2.473-1.979-2.473-1.241,7.593-2.945,7.357-2.1-7.709-2.692-7.385-.989,3.49-1.582,3.391-1.88-3.391-1.88-3.391Z" fill="#fff" opacity="0.3"/>
          </g>
          <g id="Group_561" data-name="Group 561">
            <path id="Path_542" data-name="Path 542" d="M206.014,262.83s3.363-2.076-.593-10.384c-1.923-4.038,1.324-4.154,2.195-2.275s.745,8.6,2.786,8.6,1.176-5.934,3.339-6.527,2.262,5.143,5.625,6.132,7.64-8.605,10.1-7.517-2.186,5.539.434,6.726,6.971-8.407,8.554-7.912-5.044,6.725-5.143,9,2.769,3.362,2.769,3.362S218.575,273.611,206.014,262.83Z" fill="#407bff"/>
            <path id="Path_543" data-name="Path 543" d="M206.014,262.83s3.363-2.076-.593-10.384c-1.923-4.038,1.324-4.154,2.195-2.275s.745,8.6,2.786,8.6,1.176-5.934,3.339-6.527,2.262,5.143,5.625,6.132,7.64-8.605,10.1-7.517-2.186,5.539.434,6.726,6.971-8.407,8.554-7.912-5.044,6.725-5.143,9,2.769,3.362,2.769,3.362S218.575,273.611,206.014,262.83Z" fill="#fff" opacity="0.8"/>
          </g>
          <path id="Path_544" data-name="Path 544" d="M270.341,247.754l-6.65,71.09a.853.853,0,0,1-.84.76l-73.46-3.62a.84.84,0,0,1-.8-.85l.32-61.08a6.345,6.345,0,0,1,5.729-1.213c7.392,2.24,11.021,11.693,25.341,11.653,4.02-.01,8.53-1.65,13.11-3.95,11.74-5.9,23.936-15.006,30.22-15.12C267.715,245.344,270.341,246.043,270.341,247.754Z" fill="#407bff"/>
          <path id="Path_545" data-name="Path 545" d="M270.341,247.754l-6.65,71.09a.853.853,0,0,1-.84.76l-73.46-3.62a.84.84,0,0,1-.8-.85l.32-61.08a6.345,6.345,0,0,1,5.729-1.213c7.392,2.24,11.021,11.693,25.341,11.653,4.02-.01,8.53-1.65,13.11-3.95,11.74-5.9,23.936-15.006,30.22-15.12C267.715,245.344,270.341,246.043,270.341,247.754Z" fill="#fff" opacity="0.7"/>
          <circle id="Ellipse_3" data-name="Ellipse 3" cx="1.879" cy="1.879" r="1.879" transform="translate(233.113 271.039)" fill="#fff" opacity="0.2"/>
          <circle id="Ellipse_4" data-name="Ellipse 4" cx="1.879" cy="1.879" r="1.879" transform="translate(202.943 307.722)" fill="#fff" opacity="0.2"/>
          <path id="Path_546" data-name="Path 546" d="M209.567,276.581a3.359,3.359,0,1,1-3.359-3.359A3.359,3.359,0,0,1,209.567,276.581Z" fill="#fff" opacity="0.2"/>
          <path id="Path_547" data-name="Path 547" d="M221.76,305.2a3.359,3.359,0,1,1-3.359-3.359A3.359,3.359,0,0,1,221.76,305.2Z" fill="#fff" opacity="0.2"/>
          <path id="Path_548" data-name="Path 548" d="M226.091,298.385a1.236,1.236,0,1,1-1.236-1.236A1.236,1.236,0,0,1,226.091,298.385Z" fill="#fff" opacity="0.2"/>
          <path id="Path_549" data-name="Path 549" d="M221.217,312.784a1.236,1.236,0,1,1-1.236-1.236A1.235,1.235,0,0,1,221.217,312.784Z" fill="#fff" opacity="0.2"/>
          <path id="Path_550" data-name="Path 550" d="M255.154,260.429a2.219,2.219,0,1,1-2.219-2.218A2.219,2.219,0,0,1,255.154,260.429Z" fill="#fff" opacity="0.2"/>
          <circle id="Ellipse_5" data-name="Ellipse 5" cx="2.218" cy="2.218" r="2.218" transform="translate(216.183 277.722)" fill="#fff" opacity="0.2"/>
          <path id="Path_551" data-name="Path 551" d="M214.1,298.385a2.218,2.218,0,1,1-2.217-2.218A2.218,2.218,0,0,1,214.1,298.385Z" fill="#fff" opacity="0.2"/>
          <circle id="Ellipse_6" data-name="Ellipse 6" cx="1.488" cy="1.488" r="1.488" transform="translate(221.76 281.127)" fill="#fff" opacity="0.2"/>
          <circle id="Ellipse_7" data-name="Ellipse 7" cx="1.488" cy="1.488" r="1.488" transform="translate(193.637 275.093)" fill="#fff" opacity="0.2"/>
          <path id="Path_552" data-name="Path 552" d="M221.76,289.536a4.94,4.94,0,1,1-4.94-4.94A4.94,4.94,0,0,1,221.76,289.536Z" fill="#fff" opacity="0.2"/>
          <circle id="Ellipse_8" data-name="Ellipse 8" cx="0.781" cy="0.781" r="0.781" transform="translate(229.466 308.819)" fill="#fff" opacity="0.2"/>
          <circle id="Ellipse_9" data-name="Ellipse 9" cx="0.781" cy="0.781" r="0.781" transform="translate(193.562 260.429)" fill="#fff" opacity="0.2"/>
          <circle id="Ellipse_10" data-name="Ellipse 10" cx="0.781" cy="0.781" r="0.781" transform="translate(219.37 272.441)" fill="#fff" opacity="0.2"/>
          <circle id="Ellipse_11" data-name="Ellipse 11" cx="0.781" cy="0.781" r="0.781" transform="translate(202.068 288.754)" fill="#fff" opacity="0.2"/>
          <path id="Path_553" data-name="Path 553" d="M233.113,293.043a1.433,1.433,0,1,1-1.433-1.432A1.433,1.433,0,0,1,233.113,293.043Z" fill="#fff" opacity="0.2"/>
          <path id="Path_554" data-name="Path 554" d="M205.064,267.484a1.433,1.433,0,1,1-1.433-1.433A1.434,1.434,0,0,1,205.064,267.484Z" fill="#fff" opacity="0.2"/>
          <circle id="Ellipse_12" data-name="Ellipse 12" cx="0.396" cy="0.396" r="0.396" transform="translate(207.789 290.819)" fill="#fff" opacity="0.2"/>
          <path id="Path_555" data-name="Path 555" d="M267.71,214.122l-9.77,104.47a.853.853,0,0,1-.839.76l-9.391-.461a.846.846,0,0,0,.09-.309l9.9-105.83,9.21.45a.855.855,0,0,1,.6.29A.82.82,0,0,1,267.71,214.122Z" fill="#fff" opacity="0.2"/>
        </g>
        <path id="Path_556" data-name="Path 556" d="M161.212,252.257s-14.981,5.292-19.135-13.762l6.53-.422Z" opacity="0.1"/>
        <g id="Group_563" data-name="Group 563">
          <path id="Path_557" data-name="Path 557" d="M202.685,247.267l-1.886-1.032a2.5,2.5,0,0,0-2.289-.058l-3.4,1.645a4.659,4.659,0,0,0-2.568,3.422l-.156.922c3.01,1.926,7.682,1.79,7.682,1.79l1.336.109a2.082,2.082,0,0,0,2.3-1.863l.25-2.645A2.4,2.4,0,0,0,202.685,247.267Z" fill="#ebb376"/>
          <path id="Path_558" data-name="Path 558" d="M149.853,233.37A101.967,101.967,0,0,0,164.6,245.194c2.565,1.525,4.685,2.761,7.487,3.044a72.661,72.661,0,0,0,9.413.215c4.346-.127,8.792-.367,13.19-.6a2.174,2.174,0,0,1,.737,4.255,106.562,106.562,0,0,1-13.292,3.039,49.533,49.533,0,0,1-12.609.725c-8.111-1.457-14.511-6.6-20.665-11.564-1.766-1.523-3.444-3.008-5.151-4.734-3.908-4.148,1.959-10.075,6.146-6.2Z" fill="#e9b376"/>
          <path id="Path_559" data-name="Path 559" d="M143.476,230.942c-4.856,3.432-1.341,13.33,7.466,19.378,5.913-.614,11.195-9.839,11.195-9.839S152.32,232.068,143.476,230.942Z" fill="#407bff"/>
        </g>
      </g>
    </g>
  </g>
</svg>
