<svg xmlns="http://www.w3.org/2000/svg" width="2631.547" height="1349" viewBox="0 0 2631.547 1349">
  <g id="Group_18" data-name="Group 18" transform="translate(-196.12 -183.872)">
    <g id="Group_17" data-name="Group 17">
      <path id="Path_1" data-name="Path 1" d="M327.568,1532.465S44.879,930.47,602.027,930.47c294.377,0,173.108-165.168,373.246-356.319S1875.338,230.284,2024.31,599.4s-219.193,649.37,136.564,601.294c427.51-57.771,596.39,331.771,596.39,331.771Z" fill="#fbecdb"/>
      <path id="Path_2" data-name="Path 2" d="M2617.076,1456.082c-26.381-19.277-80.284-6.263-120.07,7.657a181.624,181.624,0,0,0-21.867-25.372c85.706-55.211,204.077-172.951,141.338-182.918-54.538-8.664-128.143,97.317-167.477,161.833-40.849-27.479-103.44-47.68-199-40.675-248.011,18.183-441.759-141.794-584.577-88.439-113.554,42.424-217.616,66.19-317.98,58.071,4.32-73.316,5.257-217.266-52.315-232.2-58.447-15.161-1.116,148.318,30.748,229.948q-11.216-1.434-22.378-3.425c-20.633-40.684-54.634-93.924-91.968-95.745-35.159-1.713,8.235,46.151,50.938,86.7-122.735-25.768-268.323,74-270.738,191.962H2523.982s-2.712-17.219-14.737-39.921C2568.467,1482.4,2645.731,1477.022,2617.076,1456.082Z" fill="#a8d29f"/>
      <g id="Group_2" data-name="Group 2">
        <g id="Group_1" data-name="Group 1">
          <rect id="Rectangle_1" data-name="Rectangle 1" width="403.846" height="91.189" transform="translate(922.119 1432.311)" fill="#4a75cb"/>
          <rect id="Rectangle_2" data-name="Rectangle 2" width="403.843" height="91.196" transform="translate(797.599 1432.308)" fill="#699dee"/>
        </g>
      </g>
      <g id="Group_5" data-name="Group 5">
        <g id="Group_4" data-name="Group 4">
          <g id="Group_3" data-name="Group 3">
            <rect id="Rectangle_3" data-name="Rectangle 3" width="300.709" height="420.313" transform="translate(1785.543 1523.481) rotate(180)" fill="#d86713"/>
            <rect id="Rectangle_4" data-name="Rectangle 4" width="300.708" height="420.313" transform="translate(1692.823 1523.481) rotate(180)" fill="#f1a34f"/>
          </g>
        </g>
        <path id="Path_3" data-name="Path 3" d="M1692.823,1103.168l92.72,63.111v-63.111Z" fill="#c95c12"/>
      </g>
      <g id="Group_8" data-name="Group 8">
        <path id="Path_4" data-name="Path 4" d="M764.561,1196.272s-56.236,41.818-67.2,39.281,41.1-45.141,41.1-45.141c-19.592-9.42-80.494-3.514-80.494-3.514s-20.285,65.417-30.29,60.26,20.918-57.008,20.918-57.008c-21.821-1.315-48.584,14.887-48.584,14.887-36.638,28.935,2.408,74.488,2.408,74.488s-7.52,22.52-30.657,43.026c0,0-33.045,24.438-35.34,68.1l6,.536s9.509-40.668,26.786-59.9c.672-.695,1.649-1.7,2.854-2.911,2.815-2.6,4.787-4.565,6.112-6.019,8.6-8.263,20.483-18.788,26.208-19.807a11.036,11.036,0,0,1-.244-2.879c.078.921.159,1.87.244,2.879,1.961,23.023,46.628,43.13,74.1,47.265s18.985-7.161,9.517-23.909-39.431-24.242-46.267-31.955,7.3-7.73,23.855-.169,18.822,27.724,45.382,40.444,66.521-31.354,66.521-31.354c-21.166-1.074-51.392-24.062-50.3-31.095s51.31,12.135,59.894,13.054,28.116-9.757,31.138-44.336S764.561,1196.272,764.561,1196.272Z" fill="#82b378"/>
        <g id="Group_6" data-name="Group 6">
          <path id="Path_5" data-name="Path 5" d="M465.9,1222.237s62.114-34.784,33.127-81.989c0,0-23.188-28.986-48.033-36.44,0,0,13.25,70.4,0,72.051s-9.11-79.505-9.11-79.505-65.426-31.47-91.1-28.986c0,0,40.581,68.739,27.33,67.083s-58.8-71.223-58.8-71.223-67.083-12.423-77.848,27.33,6.625,59.628,16.563,62.113,73.707,1.655,72.051,9.937-44.721,21.534-68.738,14.08c0,0,26.5,65.425,61.285,62.113s45.55-24.846,67.082-26.5,37.268,4.141,26.5,9.938-47.206,1.9-64.6,16.685-31.47,23.9.828,30.52,90.271,2.485,101.865-22.36Z" fill="#a8d29f"/>
          <path id="Path_6" data-name="Path 6" d="M482.46,1282.693c-17.392-32.3-16.564-60.456-16.564-60.456C446.02,1159.3,272.1,1102.98,272.1,1102.98c221.122,89.443,182.2,144.1,182.2,144.1,5.959,3.477,14.894,20.051,21.1,32.769.882,2.163,2.282,5.158,4.359,9.224h0c.842,1.838,1.515,3.343,1.98,4.393,11.385,28.486,5.354,77.679,5.354,77.679l6.9,1.854C509.281,1323.422,482.46,1282.693,482.46,1282.693Z" fill="#82b378"/>
        </g>
        <g id="Group_7" data-name="Group 7">
          <path id="Path_7" data-name="Path 7" d="M564.714,1174.267s-81.877-45.851-43.668-108.077c0,0,30.567-38.21,63.317-48.035,0,0-17.467,92.793,0,94.977s12.009-104.8,12.009-104.8,86.243-41.484,120.086-38.209c0,0-53.493,90.61-36.026,88.426s77.509-93.884,77.509-93.884,88.427-16.376,102.619,36.026-8.734,78.6-21.833,81.876-97.161,2.183-94.977,13.1,58.95,28.384,90.609,18.559c0,0-34.933,86.243-80.784,81.877s-60.043-32.751-88.427-34.935-49.126,5.458-34.933,13.1,62.226,2.5,85.151,21.994,41.485,31.5-1.093,40.231S595.28,1239.768,580,1207.017Z" fill="#a8d29f"/>
          <path id="Path_8" data-name="Path 8" d="M820.168,1017.064s-229.254,74.234-255.454,157.2c0,0,1.092,37.117-21.835,79.692,0,0-35.355,53.688-15.2,119.042l9.095-2.444s-7.95-64.844,7.058-102.4c.612-1.384,1.5-3.367,2.609-5.789h0c2.74-5.36,4.583-9.308,5.747-12.161,8.174-16.764,19.953-38.612,27.807-43.194C580,1207.017,528.688,1134.966,820.168,1017.064Z" fill="#82b378"/>
        </g>
        <path id="Path_9" data-name="Path 9" d="M561.955,1514.722a160.382,160.382,0,0,0,160.382-160.383H401.572A160.383,160.383,0,0,0,561.955,1514.722Z" fill="#f1a34f"/>
        <path id="Path_10" data-name="Path 10" d="M601.42,1513.495a160.494,160.494,0,0,1-180.3-159.157h39.844A160.41,160.41,0,0,0,601.42,1513.495Z" fill="#ffb973"/>
        <path id="Path_11" data-name="Path 11" d="M704.766,1503.694H419.144a19.789,19.789,0,0,0-19.788,19.787h325.2A19.787,19.787,0,0,0,704.766,1503.694Z" fill="#f1a34f"/>
        <path id="Path_12" data-name="Path 12" d="M723.525,1354.338H398.758a2.46,2.46,0,0,0,0,4.92H723.525a2.46,2.46,0,0,0,0-4.92Z" fill="#d86713"/>
      </g>
      <g id="Group_9" data-name="Group 9">
        <path id="Path_13" data-name="Path 13" d="M1961.129,509.779c-4.649-.706-18.656,12.245-18.656,12.245h0c-29.913,3.456-73.647,11.4-89.387,14.429-11.164,2.15-41.174-8.083-70.493-19.831-34.868-13.978-68.752-30.1-68.752-30.1-19.348-.986-41.319,34.313-2.083,56.755,5.989,3.427,28.5,9.274,54.41,14.613l.006,0c35.75,7.366,77.982,13.761,92.359,11.514,16.7-2.613,63.969-19.905,92.086-33.147h0l.072-.035.313-.148c1.687-.789,8.57-3.854,13.164-3.583,5.267.313,17-9.328,17.357-11.9S1965.779,510.484,1961.129,509.779Z" fill="#ed975d"/>
        <path id="Path_14" data-name="Path 14" d="M1924.6,954.465l-16.468,3.346s-75.369-84.682-87-120.316c-6.224-19.043-46.013-27.272-87.6-38.022-36.192-9.358-73.744-20.632-91.677-42.63-38.546-47.264,24.208-105.34,24.208-105.34s66.724,39.655,124.285,80.624c40.234,28.631,75.993,57.9,81.381,74.723C1884.825,847.757,1912.576,925.516,1924.6,954.465Z" fill="#2b478b"/>
        <path id="Path_15" data-name="Path 15" d="M1902.563,982.4h9.264c3.1-.487,5.4-1.385,8.577-1.8,4.833-.634,7.058,1.347,7.5,1.8a1.225,1.225,0,0,1,.087.094h39.353c.99-1.413.04-4.688-.891-7.1a5.6,5.6,0,0,0-3.684-3.368c-4.173-1.209-12.4-2.285-19.935-9.106-4.238-3.83-20.469-14.084-20.469-14.084l-.086-.02c-.357.007-2.053.528-9.435,6.762-3.817,3.216-10.321-4.543-10.321-4.543a9.257,9.257,0,0,0-2.132,2.893,9.77,9.77,0,0,0-.846,6.041c.588,3.546-1.307,10.135-2.82,14.593-.916,2.7-1.69,4.616-1.69,4.616S1894.593,981.4,1902.563,982.4Z" fill="#233862"/>
        <path id="Path_16" data-name="Path 16" d="M1790.359,732.127l-56.816,67.346c-36.192-9.358-73.744-20.632-91.677-42.63-38.546-47.264,24.208-105.34,24.208-105.34S1732.8,691.158,1790.359,732.127Z" fill="#1e3d70"/>
        <path id="Path_17" data-name="Path 17" d="M1738.729,696.95s-4.581,14.444-12.037,36.175c-9.428,27.477-23.473,66.6-38.707,102.882-3.346,7.972-6.755,15.811-10.182,23.356-12.668,27.92-25.638,51.854-37.055,64.016-20.516,21.865-70.392,162.434-70.392,162.434l-12.428-3.44s-17.326-120.031,44.053-188.334a4.341,4.341,0,0,0,1.243-2.549.032.032,0,0,0,.008-.026c.817-10.111,3.738-55.386,10.094-101.265,1.563-11.257,3.329-22.54,5.319-33.353.123-.693.256-1.376.38-2.059,9.339-50,18.28-72.237,29.82-83.422l84.86,24.156Z" fill="#2b478b"/>
        <path id="Path_18" data-name="Path 18" d="M1556.542,1103.076h9.264c3.1-.489,5.394-1.387,8.577-1.8,4.833-.633,7.058,1.347,7.5,1.8.059.06.086.093.086.093h39.353c.991-1.414.04-4.689-.891-7.1a5.6,5.6,0,0,0-3.685-3.368c-4.173-1.208-12.4-2.284-19.934-9.1-4.239-3.83-20.469-14.085-20.469-14.085l-.086-.02c-.357.006-2.053.529-9.436,6.761-3.816,3.216-10.32-4.543-10.32-4.543a9.283,9.283,0,0,0-2.133,2.893,9.788,9.788,0,0,0-.845,6.042c.588,3.545-1.307,10.135-2.819,14.592-.918,2.7-1.691,4.615-1.691,4.615S1548.572,1102.079,1556.542,1103.076Z" fill="#233862"/>
        <path id="Path_19" data-name="Path 19" d="M1574.743,533.707s-14.2,34.735-30.569,68.547c-13.771,28.426-29.07,56.195-38.773,62.122-13.678,8.357-51.363,31.928-75.807,49.511,0,0-19.077-.145-22.04,3.507s-9.8,20.061-7.806,21.721,17.162.891,20.847-2.885c3.214-3.295,10.369-5.663,12.146-6.214l.331-.1.076-.021h0c29.706-9.138,76.3-28.177,90.405-37.489,12.143-8.017,39.066-41.178,60.541-70.694l.006,0c15.567-21.394,28.272-40.871,30.394-47.436C1628.4,531.262,1588.385,519.953,1574.743,533.707Z" fill="#ffb27d"/>
        <path id="Path_20" data-name="Path 20" d="M1649,397.494a71.587,71.587,0,0,0-5.087-6.572,15.945,15.945,0,0,0,6.267-.942c4.984-2.06,7.256-17.883,6.507-22.576s-7.669-18.264-16.207-19.617-17.36,8.128-17.36,8.128c1.577-6.844,16.022-10.791,16.022-10.791-29.753,5.486-28.236,25.33-28.031,27.162-27.236-9.7-43.223,41.586-43.223,41.586l70.546,41.574s.185-11.329,6.918-10.6C1655.851,445.986,1664.587,420.211,1649,397.494Z" fill="#2c3a64"/>
        <path id="Path_21" data-name="Path 21" d="M1653.5,505.11c-16.187,7.63-37.668-3.359-37.553-3.475,1.388-1.388.9-5.544-.372-10.978-1.271-5.666-4.278-13.414-9.827-22.662-1.156-1.967-2.312-3.931-3.7-6.014l1.851-.692,31.449-12.6s5.088,9.134,10.406,17.459c4.509,6.938,9.249,13.181,11.331,12.951C1657.195,478.98,1678.007,493.316,1653.5,505.11Z" fill="#ffb27d"/>
        <path id="Path_22" data-name="Path 22" d="M1635.343,451.807c-.81,11.214-4.625,31.449-19.772,38.85-1.271-5.666-4.278-13.414-9.827-22.662Z" fill="#ed975d"/>
        <path id="Path_23" data-name="Path 23" d="M1603.9,480.759s40.945-16.139,30.5-41.482-12.191-44.494-38.774-35.261S1567.984,425,1569.412,434.3,1592.982,484.3,1603.9,480.759Z" fill="#ffb27d"/>
        <path id="Path_24" data-name="Path 24" d="M1619.175,433.5c18.9-2.669,24.423-10.31,24.423-10.31a52.369,52.369,0,0,1-27.643-22.047s-21.249-7.166-36.995,4.813a10.613,10.613,0,0,0-1.991,4.441c-3.609-1.183-9.037-.875-12.168,9.325-4.705,15.323,12.032,32.055,12.032,32.055,4.058-1.147-.519-14.8-1.159-22.091-.47-5.365,2.423-12.23,3.984-15.486,2,2.6,21.949,27.664,46.3,28.664a102.721,102.721,0,0,1-24.571-13.194C1607.2,432.529,1613.4,434.314,1619.175,433.5Z" fill="#2c3a64"/>
        <path id="Path_25" data-name="Path 25" d="M1731.45,557.325c-.346-1.222-.719-2.491-1.11-3.793a96.058,96.058,0,0,0,10.334-30.963c2.775-18.732-1.965-30.295-1.965-30.295s-28.4-15.06-40.94-16.977a.7.7,0,0,0-.157-.047c-.147-.02-.318-.035-.5-.047-12.658-1.746-40.064,3.849-40.064,3.849s5.286,14.074-9.629,23.456-30.843-2.4-30.843-2.4c-.48.323-.992.679-1.517,1.051l0,0s-39.244,25.893-42.767,31.81-18.615,35.215-18.615,35.215,4.785,24.595,57.8,26.652c4.356,10.569,7.694,20.88,8.779,29.479,4.211,33.387-.677,59.724,4.23,79.211s93.362,8.375,109.378,4.627,12.415-20.855,13.648-37.471C1749.056,649.8,1736.666,575.744,1731.45,557.325Z" fill="#699dee"/>
        <path id="Path_26" data-name="Path 26" d="M1740.674,522.569a96.088,96.088,0,0,1-10.4,31.1c-1.388-6.127-7.053-28.558-16.187-38.735C1714.082,514.935,1729.459,516.325,1740.674,522.569Z" fill="#4a82d3"/>
      </g>
      <g id="Group_13" data-name="Group 13">
        <path id="Path_27" data-name="Path 27" d="M1380.523,741.379s16.48-19.97,20.026-22.33,19.113-6.5,20-5.666.929,2.04-1,3.743-9.289,6-8.239,6.483,23.258-10.572,26.46-6.853-1.813,19.068-10.371,26.427-34.1,10.5-35.709,11.524C1378.072,763.419,1380.523,741.379,1380.523,741.379Z" fill="#ed975d"/>
        <path id="Path_28" data-name="Path 28" d="M1090.393,695.267s23.673,28.087,53.822,16.338c0,0,6.486-15.687,6.577-27.25.01-1.423.028-2.8.05-4.114.161-13.021.6-20.327.6-20.327a.165.165,0,0,0-.031-.006c-1.371-.572-46.087-18.929-46.049-17.406C1106.129,677.719,1090.393,695.267,1090.393,695.267Z" fill="#ffb27d"/>
        <path id="Path_29" data-name="Path 29" d="M1109.851,650.9c4.312,7.993,19.108,23.629,40.991,29.341.161-13.021.6-20.327.6-20.327a.165.165,0,0,0-.031-.006C1150.174,659.576,1108.568,648.544,1109.851,650.9Z" fill="#ed975d"/>
        <path id="Path_30" data-name="Path 30" d="M1160.807,658.56s-50.287,11.824-57.167-19.606-18.005-51.071,13.811-59.948,40.7,1.746,45.548,11.678S1173.711,654.676,1160.807,658.56Z" fill="#ffb27d"/>
        <path id="Path_31" data-name="Path 31" d="M1105.36,647.518c-.687.439-11.507,3.763-32-37.059-3.215-6.408-5.407-20.27,2.091-32.519s34.086-21.88,56.176-26.072,27.393,8.238,32.6,20.732c5.46,13.113,21.231,23.909,21.231,23.909-19.049,10.641-41.992-4.578-49.94-2.075s-10.756,15.029-11.353,19.046-1.513,7.35-11.508,3.764-4.518,14.165-2.919,17.559C1109.734,634.8,1111.093,643.845,1105.36,647.518Z" fill="#a9453d"/>
        <g id="Group_10" data-name="Group 10">
          <path id="Path_32" data-name="Path 32" d="M975.818,1432.31h-30.45c-6.382,0-13.475-6.476-15.251-18.334s-14.9-18.334-17.737-28.041,11.71-23.374,11.71-23.374l2.431-3.166,2.531-3.3,24.12,5.748s.6,5.821.967,13.234c.259,5.352.4,11.542.1,16.967-.71,12.945,3.578,26.881,14.923,29.4S975.818,1432.31,975.818,1432.31Z" fill="#2c3a64"/>
          <path id="Path_33" data-name="Path 33" d="M1187.8,1432.6h-80.714a7.147,7.147,0,0,1-1.714-.512c-5.388-2.777-3.7-24.021-3.053-30.583.125-1.215.212-1.928.212-1.928s28.382-23.372,32.289-5.476c.124.558.265,1.107.416,1.646v.009c4.928,16.745,26.953,24.349,39.674,26.47C1184.626,1423.857,1187.148,1429.689,1187.8,1432.6Z" fill="#2c3a64"/>
          <path id="Path_34" data-name="Path 34" d="M1171.526,965.853s-4.31,53.778-9.376,118.421c-6.885,87.816-15.167,195.681-15.985,216.115-1.416,35.483-7.1,92.242-7.1,92.242s-13.474,13.484-40.443,7.8c0,0-24.032-81.025-30.9-166.752-.107-1.406-.213-2.821-.32-4.237-6.384-87.27-16.315-271.042-16.315-271.042Z" fill="#ee9849"/>
          <path id="Path_35" data-name="Path 35" d="M1171.526,965.853s-4.31,53.778-9.376,118.421l-94.423,149.406c-.107-1.406-.213-2.821-.32-4.237-6.384-87.27-16.315-271.042-16.315-271.042Z" fill="#e58638"/>
          <path id="Path_36" data-name="Path 36" d="M1151.843,972.238S1074.149,1167,1023.064,1258.531,956.015,1375.6,956.015,1375.6s-29.269-11.707-31.93-19.689c0,0,19.536-176.7,53.747-219.776,19.331-24.339,42.039-97.381,43.1-122.925s6.919-76.1,6.919-76.1Z" fill="#ee9849"/>
        </g>
        <g id="Group_11" data-name="Group 11">
          <path id="Path_37" data-name="Path 37" d="M973.958,939.8s-2.012,24.323-3.486,28.058-11.3,15.313-12.434,15.147-1.817-1.078-1.242-3.435,3.963-9.639,2.89-9.451-12.315,20.7-16.792,19.542-8.857-15.736-6.193-26.035,20.748-26.472,21.439-28.131C964,921.426,973.958,939.8,973.958,939.8Z" fill="#ed975d"/>
          <path id="Path_38" data-name="Path 38" d="M965.621,945.972c8.6,2.76,9.978,2.136,9.978,2.136s41.854-76.2,46.094-83.178,88.867-85.453,88.867-85.453l-21.749-81.1S992.559,823.021,982.164,840.907c-17.176,29.555-27.24,98.2-27.24,98.2A25.165,25.165,0,0,0,965.621,945.972Z" fill="#1e3d70"/>
        </g>
        <path id="Path_39" data-name="Path 39" d="M1187.928,811.316c-.3,16.656-1.269,35.377-2.574,54.393q-.122,1.692-.24,3.383c-.835,11.78-1.74,23.588-2.779,35.1-.417,4.617-.86,9.18-1.322,13.662l-.072.605c-.036,1.678-.24,3.5-.425,5.158-4.243,43.126-8.692,77.2-9.517,77.722a4.844,4.844,0,0,1-3.311.844c-11.31-1.421-45.054,1.145-72.68-4.866-23.313-4.918-43.385-14.239-64.655-26.81-2.824-1.668-9.259-6.089-8.736-9.392.515-3.631,1.465-8.878,2.673-15.473,4.19-22.94,11.425-62.4,13.893-108.58q.719-12.906,2.086-25.453a386.345,386.345,0,0,1,11.266-60.785c9.472-34.106,23.391-60.224,40.854-70.441,2.282-1.279,14.558,6.533,25.834,13.768a49.774,49.774,0,0,0,32.038,7.59l9.384,10.378c11.363,13.21,23.462,30.8,26.765,55.795q.374,2.771.639,5.9A366.621,366.621,0,0,1,1187.928,811.316Z" fill="#2a4e96"/>
        <path id="Path_40" data-name="Path 40" d="M1187.928,811.316c-.3,16.656-1.269,35.377-2.574,54.393q-.122,1.692-.24,3.383c-64.6-40.437-74.554-114.432-74.554-114.432,31.782,1.4,57.03,8.7,76.489,19.15A366.621,366.621,0,0,1,1187.928,811.316Z" fill="#1e3d70"/>
        <g id="Group_12" data-name="Group 12">
          <path id="Path_41" data-name="Path 41" d="M1390.325,743.377c-3.33-9.009-8.509-8.423-8.509-8.423s-96.051,23.937-104.671,24.964S1173.711,722.9,1173.711,722.9s-37.319-16.748-54.8-1.456c-15.19,13.29-15.882,30.125-12.327,44.262a42.265,42.265,0,0,0,35.724,31.489c38.681,4.927,115.858,14.2,132.034,11.95,36-5.013,117.576-52.1,117.576-52.1A30.23,30.23,0,0,0,1390.325,743.377Z" fill="#2a4e96"/>
        </g>
      </g>
      <g id="man">
        <g id="Group_14" data-name="Group 14">
          <path id="Path_42" data-name="Path 42" d="M2337.458,919.432s13.344,12.368,10.74,21.156-14.647,14.646-16.274,25.388-8.137,16.6-14,16.6H2290s-4.312-7.558,6.1-9.837,14.342-14.9,13.691-26.617.977-27.34.977-27.34l22.131-5.208Z" fill="#2c3a64"/>
          <path id="Path_43" data-name="Path 43" d="M2171.139,981.112c-1.353.68-6.113,1.148-12.64,1.462h-63.164c.212-1.879,1.683-8.576,12.011-10.242,11.67-1.9,31.883-8.679,36.388-23.6.153-.476.281-.97.391-1.462,3.578-15.947,29.614,4.879,29.614,4.879s.076.637.188,1.725C2174.538,959.734,2176.076,978.647,2171.139,981.112Z" fill="#2c3a64"/>
          <path id="Path_44" data-name="Path 44" d="M2110.44,554.539s3.955,49.34,8.6,108.649c6.318,80.566,13.915,179.529,14.667,198.276,1.3,32.555,6.512,84.628,6.512,84.628s12.362,12.372,37.1,7.157c0,0,22.048-74.336,28.346-152.988.1-1.289.195-2.587.293-3.886,5.859-80.069,14.969-248.67,14.969-248.67Z" fill="#35488b"/>
          <path id="Path_45" data-name="Path 45" d="M2110.44,554.539s3.955,49.34,8.6,108.649l86.63,137.073c.1-1.289.195-2.587.293-3.886,5.859-80.069,14.969-248.67,14.969-248.67Z" fill="#2c3a64"/>
          <path id="Path_46" data-name="Path 46" d="M2128.5,560.4s71.279,178.689,118.148,262.661,61.516,107.41,61.516,107.41,26.853-10.742,29.294-18.065c0,0-17.923-162.116-49.311-201.634-17.736-22.331-38.569-89.344-39.545-112.78s-6.348-69.815-6.348-69.815Z" fill="#35488b"/>
        </g>
        <g id="Group_15" data-name="Group 15">
          <path id="Path_47" data-name="Path 47" d="M1908.643,463.484s-19.334-4.42-22.589-4.2-14.638,4.985-14.788,5.908.387,1.673,2.353,1.806,8.441-.7,8.031.085-19.058,4.449-19.263,8.2,10.01,10.728,18.642,11.2,25.6-9.561,27.059-9.688C1920.428,475.717,1908.643,463.484,1908.643,463.484Z" fill="#ffb27d"/>
          <path id="Path_48" data-name="Path 48" d="M1900.365,468.395c-2.771-8.832-2.123-10.239-2.123-10.239s78.373-42.378,85.55-46.676,88.169-90.489,88.169-90.489l82.959,22.834S2026.541,441.62,2008.144,452.15c-30.4,17.4-100.813,27.252-100.813,27.252A25.778,25.778,0,0,1,1900.365,468.395Z" fill="#e58638"/>
        </g>
        <path id="Path_49" data-name="Path 49" d="M2097.1,279.09s-29.083,51.172-57.511,57.851c0,0,1.184-17.186,8.1-28.947-2.835-3.343-5.323-6.414-7.478-9.163a171.741,171.741,0,0,1-10.559-14.782l9.649-25.938,6.546-17.6a84.588,84.588,0,0,0,10.229,14.739C2074.711,276.673,2097.1,279.09,2097.1,279.09Z" fill="#ffb27d"/>
        <path id="Path_50" data-name="Path 50" d="M2056.08,255.253s3.47,25.643-15.865,43.578a171.741,171.741,0,0,1-10.559-14.782l9.649-25.938C2049.648,254.959,2056.08,255.253,2056.08,255.253Z" fill="#ed975d"/>
        <path id="Path_51" data-name="Path 51" d="M2021.992,287.83s43.455-16.941,32.488-43.839-12.744-47.2-40.951-37.522-29.381,22.127-27.9,32S2010.406,291.543,2021.992,287.83Z" fill="#ffb27d"/>
        <path id="Path_52" data-name="Path 52" d="M2246.469,541.683c-17.534,25.2-148.592,58.876-147.038,41.43a189.54,189.54,0,0,0-.018-34.408q-.492-5.607-1.393-11.888c-3.33-22.921-11.24-52.4-28.879-86.51-1.324-2.558-2.7-5.132-4.128-7.742a266.62,266.62,0,0,1-18.172-40.828c-9.082-26.241-12.739-51.347-8.159-67.761a2.189,2.189,0,0,1,.072-.231c27.395-12.668,38.012-61.8,38.012-61.8s93.468,16.779,145.822,141.366C2222.588,413.314,2261.721,519.746,2246.469,541.683Z" fill="#ee9849"/>
        <path id="Path_53" data-name="Path 53" d="M2099.413,548.705q-.492-5.607-1.393-11.888c-3.33-22.921-11.24-52.4-28.879-86.51,3.027-18.36,7.209-33.628,11.8-40.5,18.642-27.938,29.5-32.3,29.5-32.3S2138.4,495.4,2099.413,548.705Z" fill="#e58638"/>
        <g id="Group_16" data-name="Group 16">
          <path id="Path_54" data-name="Path 54" d="M1952.078,520.655s-25.855,1.358-29.863,2.8-16.6,11.49-16.459,12.7,1.086,1.961,3.6,1.426,10.349-3.9,10.114-2.763-22.339,12.4-21.257,17.183,16.4,9.893,27.41,7.4,28.731-21.155,30.514-21.835C1971.247,531.8,1952.078,520.655,1952.078,520.655Z" fill="#ffb27d"/>
          <path id="Path_55" data-name="Path 55" d="M1947.2,530.461c-5.18-8.368-1.446-12.186-1.446-12.186s79.874-62.538,86.135-68.856S2067.153,342.5,2067.153,342.5s9.982-40.714,33.357-45.2c20.312-3.9,34.351,6.148,43.537,17.929a43.317,43.317,0,0,1,2.935,48.714c-20.394,34.365-61.534,102.577-73.547,114.231-26.737,25.936-116.2,62.183-116.2,62.183A30.985,30.985,0,0,1,1947.2,530.461Z" fill="#ee9849"/>
        </g>
        <path id="Path_56" data-name="Path 56" d="M2060.718,194.024c.3-.6,1.188-1.244,3.347-1.9a9.035,9.035,0,0,0-4.375-.162c-1.219-2.978-4.185-8.047-9.749-8.086a6.856,6.856,0,0,1,4.368,4.024c-7.624-4.831-21.751-6.234-57.022,5.514-46.484,15.483-23.26,42.467-16.216,44.631s20.016-11.721,31.681-13.617,17.976,14.354,22.423,15.7,1.919-2.35,6.575-6.053,7.331,5.009,7.23,11.127,8.98,11.918,8.98,11.918l5.325-9.769c5.325-9.768,3.877-45.232-1.212-51.615C2061.625,195.17,2061.177,194.6,2060.718,194.024Z" fill="#2b478b"/>
      </g>
      <path id="Rectangle_5" data-name="Rectangle 5" d="M3.459,0h2624.63a3.458,3.458,0,0,1,3.458,3.458V5.933a3.458,3.458,0,0,1-3.458,3.458H3.459A3.459,3.459,0,0,1,0,5.932V3.459A3.459,3.459,0,0,1,3.459,0Z" transform="translate(196.12 1523.481)" fill="#2e3552"/>
      <path id="Path_57" data-name="Path 57" d="M1325.965,1431.284v52.607l-124.524-52.607Z" fill="#4271bc"/>
      <rect id="Rectangle_6" data-name="Rectangle 6" width="411.818" height="540.906" transform="translate(1979.827 982.572)" fill="#4a75cb"/>
      <rect id="Rectangle_7" data-name="Rectangle 7" width="411.825" height="540.906" transform="translate(1852.844 982.575)" fill="#699dee"/>
      <path id="Path_58" data-name="Path 58" d="M2391.646,982.575v80.883l-126.975-80.883Z" fill="#4271bc"/>
    </g>
  </g>
</svg>
