<svg xmlns="http://www.w3.org/2000/svg" width="305.516" height="175.235" viewBox="0 0 305.516 175.235">
  <g id="Group_604" data-name="Group 604" transform="translate(-399.404 -54.756)">
    <g id="Group_590" data-name="Group 590">
      <rect id="Rectangle_181" data-name="Rectangle 181" width="103.384" height="27.861" transform="translate(488.802 201.364)" fill="#5c2b61"/>
      <rect id="Rectangle_182" data-name="Rectangle 182" width="116.734" height="138.255" transform="translate(483.391 75.439)" fill="#c4c6ff"/>
      <rect id="Rectangle_183" data-name="Rectangle 183" width="23.33" height="138.255" transform="translate(576.795 75.439)" fill="#5c2b61"/>
      <rect id="Rectangle_184" data-name="Rectangle 184" width="128.107" height="9.44" transform="translate(476.815 65.999)" fill="#5c2b61"/>
      <rect id="Rectangle_185" data-name="Rectangle 185" width="106.927" height="9.44" transform="translate(476.815 65.999)" fill="#c4c6ff"/>
      <rect id="Rectangle_186" data-name="Rectangle 186" width="98.681" height="4.045" transform="translate(483.391 75.439)" fill="#5c2b61"/>
      <path id="Path_537" data-name="Path 537" d="M527.035,105.295a3.746,3.746,0,0,1,6.488,0l13.8,23.9,13.8,23.9a3.746,3.746,0,0,1-3.244,5.619h-55.2a3.746,3.746,0,0,1-3.244-5.619l13.8-23.9Z" fill="#ff565e"/>
      <path id="Path_538" data-name="Path 538" d="M537.634,131.869h-7.926l1.445-16.486-12.963,22.453h7.926l-1.445,16.486Z" fill="#fff"/>
    </g>
    <g id="Group_595" data-name="Group 595">
      <g id="Group_591" data-name="Group 591">
        <path id="Path_539" data-name="Path 539" d="M638.336,221.751a24.5,24.5,0,0,1,.414-4.529c1.187-6.4,4.422-24.945,3.2-30.889-1.483-7.229.251-48.188.251-48.188h-17.68a120.555,120.555,0,0,0,2.6,37.16c4.633,20.85,5.592,47.209,5.592,47.209l-3.679,2.092-4.354.656a2.131,2.131,0,0,0-1.85,2.112V228.5h15.51Z" fill="#5c2b61"/>
        <path id="Path_540" data-name="Path 540" d="M656.9,224.531l-4.355.656a2.131,2.131,0,0,0-1.85,2.112v1.128h15.922l-1.241-5.666a37,37,0,0,1-.818-6.871A72.37,72.37,0,0,0,654,179.846l-3.151-20.569c1.112-9.819-.817-21.132-.817-21.132H624.524c-.342,10.432,12.61,34.287,14.148,38.735s21.5,45.559,21.5,45.559Z" fill="#ff565e"/>
        <path id="Path_541" data-name="Path 541" d="M656.9,224.531l-4.355.656a2.131,2.131,0,0,0-1.85,2.112v1.128h15.922l-1.241-5.666c-.021-.094-.039-.19-.059-.285h-5.2Z" fill="#5c2b61"/>
      </g>
      <g id="Group_592" data-name="Group 592">
        <path id="Path_542" data-name="Path 542" d="M555.15,157.2l-6.938-1.236-9.741,5.754.995,3.756,11.312.177,5.478-4.278,56.338-14.925-1.1-4.171Z" fill="#fff"/>
        <path id="Path_543" data-name="Path 543" d="M680.763,107.907l1.157,4.368-61.972,16.417,6.719,25.364,61.972-16.417,1.157,4.368L704.919,138l-9.033-34.1Z" fill="#1d9de2"/>
        <path id="Path_544" data-name="Path 544" d="M650.935,147.4a2.191,2.191,0,0,0,0-1.53,17.871,17.871,0,0,1-.371-2.872l.334-1,1.658.6s9.172-13.138,9.456-19.112a34.463,34.463,0,0,0-.482-5.815l-12.8,3.823v1.85l-2.7,16.875h0l-.7,1.941-1.946,1.853a7.831,7.831,0,0,0-.95,2.919c.029.568.082,1.241.125,1.746a.826.826,0,0,0,.824.756h.14s0,.059.006.15l7.093-1.879Z" fill="#5c2b61"/>
        <rect id="Rectangle_187" data-name="Rectangle 187" width="12.576" height="18.711" transform="translate(608.755 135.55) rotate(-14.837)" fill="#5c2b61"/>
        <rect id="Rectangle_188" data-name="Rectangle 188" width="4.294" height="26.239" transform="matrix(0.967, -0.256, 0.256, 0.967, 677.769, 113.374)" fill="#5c2b61"/>
      </g>
      <g id="Group_593" data-name="Group 593">
        <path id="Path_545" data-name="Path 545" d="M645.187,139.147l-1.085,3.018-1.946,1.853a7.83,7.83,0,0,0-.95,2.919c.029.568.082,1.241.125,1.746a.826.826,0,0,0,.824.756h.14s0,1.205.6,1.344h1.158l.669-.324,1.926-.047,3.058-3.011a2.191,2.191,0,0,0,0-1.53,17.874,17.874,0,0,1-.371-2.872l.7-2.085Z" fill="#fff"/>
        <path id="Path_546" data-name="Path 546" d="M624.213,109.084S619.9,97.418,622.38,94.189c3.493-4.544,12.494-5.924,16.422-5.548s13.307,2.873,15.3,4.992,6.97,23.884,6.686,29.858-9.457,19.112-9.457,19.112l-6.531-2.379,2.7-16.875V121.5l-22.633,6.214Z" fill="#1d9de2"/>
      </g>
      <g id="Group_594" data-name="Group 594">
        <path id="Path_547" data-name="Path 547" d="M629.042,71.412A33.77,33.77,0,0,0,626.5,82.128c-.208,5.421,1.877,5.421,2.711,5.56l2.641.417,1.165,6.507s.488.515,2.727-.206c2.734-.88,4.309-2.27,5.044-4.126l-.387-6s3.544-2.71,3.475-6.255a9.263,9.263,0,0,0-7.9-8.9S630.786,68.32,629.042,71.412Z" fill="#fff"/>
        <path id="Path_548" data-name="Path 548" d="M632.67,92.673c3.131-3.491,4.279-9.85,4.279-9.85l-5.1,5.282Z" fill="#c4c6ff"/>
        <path id="Path_549" data-name="Path 549" d="M646.331,72.421c-1.482-5.143-6.188-4.535-10.865-5.723-7.64-1.939-7.228,5.7-7.228,5.7l5.074,2.155a8.322,8.322,0,0,0,1.86,4.849c-.4,1.226-1.508,3.8-3.007,3.665-1.527-.141-4.43-2.089-5.422-2.763a.334.334,0,0,0-.514.2,17.031,17.031,0,0,0-.18,4.651c.235,3.869,5.8,2.954,5.8,2.954s3.579-.834,4.518-2.954a15.247,15.247,0,0,0,1.146-3.51,2.793,2.793,0,0,1,1.217-1.842c1.042-.625,2.849.244,2.224,2.468s-1.877,2.224-1.877,2.224l1.6,4.123,3.265-2.733C646.59,83.448,647.764,77.389,646.331,72.421Z" fill="#5c2b61"/>
      </g>
      <path id="Path_550" data-name="Path 550" d="M648.659,77.015l-.325-.08a.018.018,0,0,1-.014-.02,11.269,11.269,0,0,0-8.113-13.222,10.706,10.706,0,0,0-7.377.855l-.01,0-4.423-.607a.018.018,0,0,0-.019.012l-2.3,6.423a1.2,1.2,0,0,1-1.411.759l-1.24-.3a.647.647,0,0,0-.761.354.614.614,0,0,0,.423.827l25.324,6.2a.613.613,0,0,0,.757-.538A.647.647,0,0,0,648.659,77.015Z" fill="#ff565e"/>
      <path id="Path_551" data-name="Path 551" d="M647.5,121.5l-1.168-8.684-5.129-6.9H624.518l-.3,3.17.654,18.629Z" fill="#ff565e"/>
      <path id="Path_552" data-name="Path 552" d="M624.612,106.926l2.755-.184-1.046-15.627a13.331,13.331,0,0,0-2.651,1.734Z" fill="#ff565e"/>
      <path id="Path_553" data-name="Path 553" d="M645.35,89.962l-7.343,17.251,2.54,1.082,7.47-17.548C647.147,90.467,646.246,90.2,645.35,89.962Z" fill="#ff565e"/>
    </g>
    <g id="Group_603" data-name="Group 603">
      <g id="Group_602" data-name="Group 602">
        <g id="Group_596" data-name="Group 596">
          <path id="Path_554" data-name="Path 554" d="M441.063,120.68l4.88,4.83-1.8,9.23-1.661-1.5-1.107-5.458-3.322-2.689Z" fill="#fff"/>
          <path id="Path_555" data-name="Path 555" d="M436.159,88.473l-15.243,21.065c-1.695,2.343-1.522,6.321,1.006,7.726L440.9,127.71l3.093-4.6-10.24-12.247,11.734-11.079s9.78-8.782,4.182-13.37C443.232,81.136,436.159,88.473,436.159,88.473Z" fill="#1d9de2"/>
          <path id="Path_556" data-name="Path 556" d="M444,123.11l-10.24-12.247s-6.706,6.632-11.816,6.411L440.9,127.71Z" fill="#5c2b61"/>
        </g>
        <g id="Group_597" data-name="Group 597">
          <path id="Path_557" data-name="Path 557" d="M478.76,226.11l-6.7-1.891.837-3.729c11.694-42.784,4.278-89.275,4.278-89.275H444.658c-3.708,15.117,17.576,24.226,17.576,24.226,4.849,19.11.963,65.049.963,65.049l-1.492,8.648,18.848.087.006-1.081A2.056,2.056,0,0,0,478.76,226.11Z" fill="#ff565e"/>
          <path id="Path_558" data-name="Path 558" d="M462.621,223.83l-.916,5.308,18.848.087.006-1.081a2.056,2.056,0,0,0-1.8-2.034l-6.7-1.891.021-.094Z" fill="#5c2b61"/>
          <path id="Path_559" data-name="Path 559" d="M444.331,226.11l-4.252-.648-2.441-1.116,2.937-3.6c13.976-20.821,21.659-65.3,21.659-65.3-20.691-9.18-17.576-24.226-17.576-24.226-3.708,15.117,3.06,15.4-.286,34.8-3.56,20.65-13.78,53.022-13.78,53.022l-3.166,10.121,18.7.07.006-1.081A2.056,2.056,0,0,0,444.331,226.11Z" fill="#5c2b61"/>
        </g>
        <g id="Group_598" data-name="Group 598">
          <path id="Path_560" data-name="Path 560" d="M466.957,84.412l-21.488-.159a6.334,6.334,0,0,0-5.187,3.627c-2.611,8.475-.881,12.486,1.515,17.064,2.023,3.866,4,6.206,4.581,8.954,1.378,6.5-1.72,17.317-1.72,17.317h32.515c0-14.737,2.463-30.455,0-39.095A10.621,10.621,0,0,0,466.957,84.412Z" fill="#1d9de2"/>
          <path id="Path_561" data-name="Path 561" d="M441.8,104.944c2.023,3.866,4,6.206,4.581,8.954,1.378,6.5-1.72,17.317-1.72,17.317h32.515c0-6.248.442-12.671.765-18.658-8.318-.221-12.826-8.744-14.451-12.623a3.069,3.069,0,0,0-2.831-1.889H444.287a3.068,3.068,0,0,0-3.068,3.068v2.705h0C441.406,104.192,441.6,104.566,441.8,104.944Z" fill="#ff565e"/>
        </g>
        <g id="Group_600" data-name="Group 600">
          <g id="Group_599" data-name="Group 599">
            <path id="Path_562" data-name="Path 562" d="M462.53,67.092v3.2h0a1.066,1.066,0,0,0,.924-1.6Z" fill="#fff"/>
            <path id="Path_563" data-name="Path 563" d="M462.778,71.673V66.352a6.552,6.552,0,0,0-13.1,0V78.226l2.234,6.027h10.131l-2.365-7.016A6.563,6.563,0,0,0,462.778,71.673Z" fill="#fff"/>
            <path id="Path_564" data-name="Path 564" d="M462.005,58.88l-2.994.163c-3.459-.114-6.58-.428-7.376-.428-3.829,0-6.933,3.477-6.933,7.765a8.317,8.317,0,0,0,1.569,4.918,3.591,3.591,0,0,1,.684,2.664l-.217,1.421a2.856,2.856,0,0,0,2.824,3.289h2.554a2.857,2.857,0,0,0,2.564-1.6l3.72-7.565a5.586,5.586,0,0,0,.572-2.461l.51-3.375a.9.9,0,0,1,.9-.9h1.654a1.532,1.532,0,0,0,1.532-1.532v-.83A1.531,1.531,0,0,0,462.005,58.88Z" fill="#5c2b61"/>
            <path id="Path_565" data-name="Path 565" d="M459.07,68.515A1.788,1.788,0,1,1,457,66.669,1.979,1.979,0,0,1,459.07,68.515Z" fill="#fff"/>
          </g>
          <path id="Path_566" data-name="Path 566" d="M465.381,84.412H448.04c0-2.5.308-4.531,5.1-4.531S465.381,81.91,465.381,84.412Z" fill="#1d9de2"/>
        </g>
        <g id="Group_601" data-name="Group 601">
          <path id="Path_567" data-name="Path 567" d="M475.553,120.68l-3.327,2.591-1.339.595a1.491,1.491,0,0,0-.689,2.1l2.028,3.551,5,2.065.274,1.971,1.13-.714-.365-3.56-2.4-3.393,2.4-1.669Z" fill="#fff"/>
          <path id="Path_568" data-name="Path 568" d="M476.838,89.1l18.74,16.785s4.43,4.182,1.463,8.385c-2.366,3.353-6.7,7.108-21.414,12.17l-2.721-4.26,10.26-11.5-15.3-9.032s-10.913-6.633-4.74-13.568C469.154,81.307,476.838,89.1,476.838,89.1Z" fill="#1d9de2"/>
          <path id="Path_569" data-name="Path 569" d="M497.041,114.265a5.793,5.793,0,0,0,.583-1.031c-5.129,3.637-14.458-2.56-14.458-2.56l-10.26,11.5,2.721,4.26C490.339,121.373,494.675,117.618,497.041,114.265Z" fill="#5c2b61"/>
        </g>
      </g>
      <path id="Path_570" data-name="Path 570" d="M443.1,66.815l.334-.033a.018.018,0,0,0,.016-.018c-.286-6.083,1.254-10.947,9.9-11.943a10.487,10.487,0,0,1,7.182,1.889l.01,0,2.318.025a.018.018,0,0,1,.017.014l1.369,6.684a1.2,1.2,0,0,0,1.29.951l1.27-.126a.646.646,0,0,1,.7.457.614.614,0,0,1-.535.759l-23.8,2.564a.614.614,0,0,1-.673-.64A.646.646,0,0,1,443.1,66.815Z" fill="#ff565e"/>
      <path id="Path_571" data-name="Path 571" d="M469.76,84.79a10.6,10.6,0,0,0-2.8-.378l-1.315-.01-6.267,16.488,3.727,1.417Z" fill="#ff565e"/>
      <path id="Path_572" data-name="Path 572" d="M442.847,100.571l3.974-.332-1.335-15.986h-.017c-1.505,0-3.288-.006-4.25.911Z" fill="#ff565e"/>
    </g>
    <line id="Line_36" data-name="Line 36" x2="297.542" transform="translate(399.404 229.225)" fill="none" stroke="#5c2b61" stroke-miterlimit="10" stroke-width="1.534"/>
  </g>
</svg>
