<svg xmlns="http://www.w3.org/2000/svg" xmlns:xlink="http://www.w3.org/1999/xlink" width="871.354" height="615.393" viewBox="0 0 871.354 615.393">
  <defs>
    <linearGradient id="linear-gradient" y1="0.5" x2="1" y2="0.5" gradientUnits="objectBoundingBox">
      <stop offset="0" stop-color="#b37cff"/>
      <stop offset="1" stop-color="#f895e7"/>
    </linearGradient>
    <linearGradient id="linear-gradient-3" x1="0.478" y1="0.454" x2="0.258" y2="-0.012" gradientUnits="objectBoundingBox">
      <stop offset="0" stop-color="#a737d5"/>
      <stop offset="1" stop-color="#ef497a"/>
    </linearGradient>
    <linearGradient id="linear-gradient-5" x1="0.158" y1="0.479" x2="1.166" y2="0.531" gradientUnits="objectBoundingBox">
      <stop offset="0" stop-color="#cb236d"/>
      <stop offset="0.867" stop-color="#5d246d"/>
      <stop offset="1" stop-color="#4c246d"/>
    </linearGradient>
    <linearGradient id="linear-gradient-6" x1="35.74" y1="-1.219" x2="35.974" y2="0.305" gradientUnits="objectBoundingBox">
      <stop offset="0" stop-color="#c32b78"/>
      <stop offset="1" stop-color="#593092"/>
    </linearGradient>
    <linearGradient id="linear-gradient-7" x1="2.291" y1="0.038" x2="1.307" y2="-1.364" gradientUnits="objectBoundingBox">
      <stop offset="0" stop-color="#7a2ddb"/>
      <stop offset="1" stop-color="#7077ff"/>
    </linearGradient>
    <linearGradient id="linear-gradient-8" x1="1.584" y1="-2.42" x2="1.896" y2="-0.39" xlink:href="#linear-gradient-6"/>
    <linearGradient id="linear-gradient-9" x1="0.502" y1="-0.732" x2="0.498" y2="2.747" xlink:href="#linear-gradient"/>
    <linearGradient id="linear-gradient-10" x1="0.52" y1="1.509" x2="0.468" y2="0.18" gradientUnits="objectBoundingBox">
      <stop offset="0" stop-color="#2b3582"/>
      <stop offset="1" stop-color="#150e42"/>
    </linearGradient>
    <linearGradient id="linear-gradient-11" x1="0.525" y1="0.297" x2="0.225" y2="5.134" xlink:href="#linear-gradient-10"/>
    <linearGradient id="linear-gradient-12" x1="0" y1="0.5" x2="1" y2="0.5" xlink:href="#linear-gradient-10"/>
    <linearGradient id="linear-gradient-13" x1="0.061" y1="-0.121" x2="1.252" y2="1.567" gradientUnits="objectBoundingBox">
      <stop offset="0" stop-color="#53d8ff"/>
      <stop offset="1" stop-color="#3840f7"/>
    </linearGradient>
    <linearGradient id="linear-gradient-14" x1="1.326" y1="-0.343" x2="-0.782" y2="1.809" gradientUnits="objectBoundingBox">
      <stop offset="0" stop-color="#fdf53f"/>
      <stop offset="1" stop-color="#d93c65"/>
    </linearGradient>
    <linearGradient id="linear-gradient-15" x1="1.529" y1="-0.191" x2="-0.872" y2="1.679" xlink:href="#linear-gradient-14"/>
    <linearGradient id="linear-gradient-16" x1="1.285" y1="-0.185" x2="-0.724" y2="1.684" xlink:href="#linear-gradient-14"/>
    <linearGradient id="linear-gradient-17" x1="0.492" y1="-0.12" x2="0.529" y2="2.626" xlink:href="#linear-gradient-14"/>
    <linearGradient id="linear-gradient-18" x1="10.76" y1="-2.725" x2="-5.744" y2="2.463" xlink:href="#linear-gradient-14"/>
    <linearGradient id="linear-gradient-19" x1="10.636" y1="-4.355" x2="-6.337" y2="3.775" xlink:href="#linear-gradient-14"/>
    <linearGradient id="linear-gradient-20" x1="8.804" y1="-1.234" x2="-7.343" y2="2.138" xlink:href="#linear-gradient-14"/>
    <linearGradient id="linear-gradient-21" x1="9.913" y1="-7.681" x2="-7.88" y2="7.783" xlink:href="#linear-gradient-14"/>
    <linearGradient id="linear-gradient-22" x1="8.844" y1="-1.167" x2="-10.055" y2="2.609" xlink:href="#linear-gradient-14"/>
    <linearGradient id="linear-gradient-23" x1="7.257" y1="-1.469" x2="-9.173" y2="3.319" xlink:href="#linear-gradient-14"/>
    <linearGradient id="linear-gradient-24" x1="6.877" y1="-1.906" x2="-9.818" y2="4.393" xlink:href="#linear-gradient-14"/>
    <linearGradient id="linear-gradient-25" x1="5.189" y1="-0.314" x2="-10.827" y2="2.467" xlink:href="#linear-gradient-14"/>
    <linearGradient id="linear-gradient-26" x1="5.5" y1="-0.288" x2="-13.668" y2="2.732" xlink:href="#linear-gradient-14"/>
    <linearGradient id="linear-gradient-27" x1="4.297" y1="-0.398" x2="-11.948" y2="3.445" xlink:href="#linear-gradient-14"/>
    <linearGradient id="linear-gradient-28" x1="4.832" y1="-3.65" x2="-13.108" y2="13.536" xlink:href="#linear-gradient-14"/>
    <linearGradient id="linear-gradient-29" x1="3.293" y1="-0.409" x2="-13.245" y2="4.975" xlink:href="#linear-gradient-14"/>
    <linearGradient id="linear-gradient-30" x1="-0.06" y1="-0.493" x2="2.186" y2="3.49" xlink:href="#linear-gradient"/>
    <linearGradient id="linear-gradient-31" x1="1.648" y1="-3.074" x2="-1.589" y2="7.004" xlink:href="#linear-gradient"/>
    <linearGradient id="linear-gradient-32" x1="1.698" y1="-5.186" x2="-1.533" y2="10.144" xlink:href="#linear-gradient"/>
    <linearGradient id="linear-gradient-33" x1="1.563" y1="-1.699" x2="-1.677" y2="5.002" xlink:href="#linear-gradient"/>
    <linearGradient id="linear-gradient-34" x1="1.736" y1="-10.136" x2="-1.483" y2="17.566" xlink:href="#linear-gradient"/>
    <linearGradient id="linear-gradient-35" x1="1.59" y1="-2.103" x2="-1.649" y2="5.63" xlink:href="#linear-gradient"/>
    <linearGradient id="linear-gradient-36" x1="1.623" y1="-2.743" x2="-1.614" y2="6.603" xlink:href="#linear-gradient"/>
    <linearGradient id="linear-gradient-37" x1="1.659" y1="-3.833" x2="-1.575" y2="8.257" xlink:href="#linear-gradient"/>
    <linearGradient id="linear-gradient-38" x1="1.503" y1="-1.225" x2="-1.739" y2="4.351" xlink:href="#linear-gradient"/>
    <linearGradient id="linear-gradient-39" x1="1.531" y1="-1.483" x2="-1.71" y2="4.751" xlink:href="#linear-gradient"/>
    <linearGradient id="linear-gradient-40" x1="1.574" y1="-2.017" x2="-1.665" y2="5.573" xlink:href="#linear-gradient"/>
    <linearGradient id="linear-gradient-41" x1="1.723" y1="-11.103" x2="-1.492" y2="19.405" xlink:href="#linear-gradient"/>
    <linearGradient id="linear-gradient-42" x1="1.627" y1="-3.133" x2="-1.61" y2="7.303" xlink:href="#linear-gradient"/>
    <linearGradient id="linear-gradient-43" x1="1" y1="0.5" x2="0" y2="0.5" gradientUnits="objectBoundingBox">
      <stop offset="0" stop-color="#f9b776"/>
      <stop offset="1" stop-color="#f47960"/>
    </linearGradient>
    <linearGradient id="linear-gradient-44" x1="-38.638" y1="-3.045" x2="-38.618" y2="1.639" gradientUnits="objectBoundingBox">
      <stop offset="0" stop-color="#cb236d"/>
      <stop offset="1" stop-color="#4c246d"/>
    </linearGradient>
    <linearGradient id="linear-gradient-45" x1="-158.157" y1="0.5" x2="-157.157" y2="0.5" xlink:href="#linear-gradient-43"/>
    <linearGradient id="linear-gradient-46" x1="-64.188" y1="-3.966" x2="-58.85" y2="-2.505" xlink:href="#linear-gradient-13"/>
    <linearGradient id="linear-gradient-47" x1="-102.502" y1="-3.752" x2="-102.452" y2="1.733" xlink:href="#linear-gradient-44"/>
    <linearGradient id="linear-gradient-48" x1="-191.678" y1="0.5" x2="-190.678" y2="0.5" xlink:href="#linear-gradient-43"/>
    <linearGradient id="linear-gradient-49" x1="-45.579" y1="-3.83" x2="-41.818" y2="-2.395" xlink:href="#linear-gradient-13"/>
    <linearGradient id="linear-gradient-50" x1="0.451" y1="0.149" x2="1.177" y2="1.434" xlink:href="#linear-gradient-14"/>
    <linearGradient id="linear-gradient-51" x1="0.176" y1="-0.047" x2="1.513" y2="3.076" xlink:href="#linear-gradient-14"/>
    <linearGradient id="linear-gradient-52" x1="-25.737" y1="0.5" x2="-24.737" y2="0.5" xlink:href="#linear-gradient-43"/>
    <linearGradient id="linear-gradient-53" x1="0.816" y1="-0.363" x2="0.407" y2="0.753" xlink:href="#linear-gradient-10"/>
    <linearGradient id="linear-gradient-54" x1="-114.687" y1="-3.497" x2="-115.261" y2="1.805" xlink:href="#linear-gradient-10"/>
    <linearGradient id="linear-gradient-55" x1="-60.021" y1="-1.235" x2="-60.165" y2="1.146" xlink:href="#linear-gradient-10"/>
    <linearGradient id="linear-gradient-56" x1="-78.876" y1="0.5" x2="-77.876" y2="0.5" xlink:href="#linear-gradient-43"/>
    <linearGradient id="linear-gradient-57" x1="-17.35" y1="16.451" x2="-16.218" y2="16.451" xlink:href="#linear-gradient-43"/>
    <linearGradient id="linear-gradient-58" x1="-62.656" y1="0.5" x2="-61.656" y2="0.5" xlink:href="#linear-gradient-43"/>
    <linearGradient id="linear-gradient-59" x1="-167.99" y1="-68.678" x2="-168.312" y2="-69.744" xlink:href="#linear-gradient-43"/>
    <linearGradient id="linear-gradient-60" x1="-128.331" y1="-53.63" x2="-128.126" y2="-52.451" xlink:href="#linear-gradient-10"/>
    <linearGradient id="linear-gradient-61" x1="-550.619" y1="-335.389" x2="-551.563" y2="-340.036" xlink:href="#linear-gradient-43"/>
    <linearGradient id="linear-gradient-62" x1="29.413" y1="-0.477" x2="28.319" y2="0.726" xlink:href="#linear-gradient-43"/>
    <linearGradient id="linear-gradient-63" x1="-70.544" y1="6.299" x2="-71.156" y2="6.92" xlink:href="#linear-gradient-10"/>
    <linearGradient id="linear-gradient-64" x1="0.506" y1="0.305" x2="1.29" y2="1.631" xlink:href="#linear-gradient-13"/>
    <linearGradient id="linear-gradient-65" x1="-321.825" y1="20.979" x2="-321.601" y2="20.069" xlink:href="#linear-gradient-43"/>
    <linearGradient id="linear-gradient-66" x1="-185.809" y1="16.854" x2="-184.6" y2="18.017" xlink:href="#linear-gradient-43"/>
    <linearGradient id="linear-gradient-67" x1="-218.014" y1="18.536" x2="-219.894" y2="20.441" xlink:href="#linear-gradient-10"/>
    <linearGradient id="linear-gradient-68" x1="-520.218" y1="60.05" x2="-516.842" y2="64.369" xlink:href="#linear-gradient-43"/>
    <linearGradient id="linear-gradient-69" x1="27.876" y1="1.255" x2="29.277" y2="0.119" xlink:href="#linear-gradient-43"/>
    <linearGradient id="linear-gradient-70" x1="66.676" y1="0.368" x2="67.671" y2="0.368" xlink:href="#linear-gradient-10"/>
    <linearGradient id="linear-gradient-71" x1="54.128" y1="0.359" x2="50.231" y2="0.69" xlink:href="#linear-gradient-43"/>
    <linearGradient id="linear-gradient-72" x1="57.493" y1="0.349" x2="58.485" y2="0.349" xlink:href="#linear-gradient-10"/>
    <linearGradient id="linear-gradient-73" x1="-0.098" y1="1.088" x2="1.585" y2="-0.391" xlink:href="#linear-gradient-10"/>
    <linearGradient id="linear-gradient-74" x1="35.607" y1="0.721" x2="38.577" y2="-1.456" xlink:href="#linear-gradient-43"/>
    <linearGradient id="linear-gradient-75" x1="-0.447" y1="-1.994" x2="-2.052" y2="0.324" xlink:href="#linear-gradient-14"/>
    <linearGradient id="linear-gradient-76" x1="-76.589" y1="-56.86" x2="-75.137" y2="-56.86" xlink:href="#linear-gradient"/>
    <linearGradient id="linear-gradient-77" x1="-39.236" y1="-60.302" x2="-38.43" y2="-60.302" xlink:href="#linear-gradient"/>
    <linearGradient id="linear-gradient-78" x1="-65.197" y1="-57.558" x2="-63.828" y2="-57.558" xlink:href="#linear-gradient"/>
    <linearGradient id="linear-gradient-79" x1="-37.024" y1="-64.275" x2="-36.193" y2="-64.275" xlink:href="#linear-gradient"/>
    <linearGradient id="linear-gradient-80" x1="-57.036" y1="-58.551" x2="-55.73" y2="-58.551" xlink:href="#linear-gradient"/>
    <linearGradient id="linear-gradient-81" x1="-35.278" y1="-69.215" x2="-34.424" y2="-69.215" xlink:href="#linear-gradient"/>
    <linearGradient id="linear-gradient-82" x1="-51.003" y1="-59.95" x2="-49.745" y2="-59.95" xlink:href="#linear-gradient"/>
    <linearGradient id="linear-gradient-83" x1="-33.889" y1="-75.414" x2="-33.015" y2="-75.414" xlink:href="#linear-gradient"/>
    <linearGradient id="linear-gradient-84" x1="-46.399" y1="-61.824" x2="-45.181" y2="-61.824" xlink:href="#linear-gradient"/>
    <linearGradient id="linear-gradient-85" x1="-32.806" y1="-83.272" x2="-31.912" y2="-83.272" xlink:href="#linear-gradient"/>
    <linearGradient id="linear-gradient-86" x1="-42.801" y1="-64.241" x2="-41.616" y2="-64.241" xlink:href="#linear-gradient"/>
    <linearGradient id="linear-gradient-87" x1="-31.975" y1="-93.389" x2="-31.064" y2="-93.389" xlink:href="#linear-gradient"/>
    <linearGradient id="linear-gradient-88" x1="-39.934" y1="-67.291" x2="-38.779" y2="-67.291" xlink:href="#linear-gradient"/>
    <linearGradient id="linear-gradient-89" x1="-31.366" y1="-106.77" x2="-30.438" y2="-106.77" xlink:href="#linear-gradient"/>
    <linearGradient id="linear-gradient-90" x1="-37.632" y1="-71.142" x2="-36.503" y2="-71.142" xlink:href="#linear-gradient"/>
    <linearGradient id="linear-gradient-91" x1="-30.961" y1="-124.954" x2="-30.015" y2="-124.954" xlink:href="#linear-gradient"/>
    <linearGradient id="linear-gradient-92" x1="-35.766" y1="-75.971" x2="-34.659" y2="-75.971" xlink:href="#linear-gradient"/>
    <linearGradient id="linear-gradient-93" x1="-30.684" y1="-150.92" x2="-29.721" y2="-150.92" xlink:href="#linear-gradient"/>
    <linearGradient id="linear-gradient-94" x1="-34.259" y1="-82.11" x2="-33.174" y2="-82.11" xlink:href="#linear-gradient"/>
    <linearGradient id="linear-gradient-95" x1="-30.63" y1="-189.151" x2="-29.651" y2="-189.151" xlink:href="#linear-gradient"/>
    <linearGradient id="linear-gradient-96" x1="-33.136" y1="-90.078" x2="-32.071" y2="-90.078" xlink:href="#linear-gradient"/>
    <linearGradient id="linear-gradient-97" x1="-30.758" y1="-157.655" x2="-29.763" y2="-157.655" xlink:href="#linear-gradient"/>
    <linearGradient id="linear-gradient-98" x1="-32.22" y1="-100.266" x2="-31.174" y2="-100.266" xlink:href="#linear-gradient"/>
    <linearGradient id="linear-gradient-99" x1="-31.054" y1="-131.582" x2="-30.042" y2="-131.582" xlink:href="#linear-gradient"/>
    <linearGradient id="linear-gradient-100" x1="-31.533" y1="-113.504" x2="-30.504" y2="-113.504" xlink:href="#linear-gradient"/>
    <linearGradient id="linear-gradient-101" x1="10.445" y1="-0.284" x2="8.965" y2="1.093" xlink:href="#linear-gradient-5"/>
    <linearGradient id="linear-gradient-102" x1="57.133" y1="-1.12" x2="57.369" y2="0.937" xlink:href="#linear-gradient-6"/>
    <linearGradient id="linear-gradient-103" x1="-11.58" y1="4.005" x2="-12.564" y2="2.603" xlink:href="#linear-gradient-7"/>
    <linearGradient id="linear-gradient-104" x1="-65.819" y1="-0.078" x2="-65.586" y2="1.446" xlink:href="#linear-gradient-6"/>
    <linearGradient id="linear-gradient-105" x1="-19.461" y1="-0.183" x2="-21.533" y2="0.947" xlink:href="#linear-gradient-13"/>
    <linearGradient id="linear-gradient-106" x1="-18.653" y1="-2.129" x2="-18.193" y2="-0.165" xlink:href="#linear-gradient-6"/>
    <linearGradient id="linear-gradient-107" x1="-6.78" y1="2.562" x2="-6.529" y2="1.705" gradientUnits="objectBoundingBox">
      <stop offset="0" stop-color="#ce1567"/>
      <stop offset="1" stop-color="#7a1dbc"/>
    </linearGradient>
    <linearGradient id="linear-gradient-108" x1="-60.058" y1="-0.185" x2="-59.823" y2="1.867" xlink:href="#linear-gradient-6"/>
    <linearGradient id="linear-gradient-109" x1="0" y1="0.5" x2="1" y2="0.5" xlink:href="#linear-gradient-44"/>
    <linearGradient id="linear-gradient-111" x1="2.091" y1="-0.773" x2="-3.394" y2="3.617" xlink:href="#linear-gradient-14"/>
    <linearGradient id="linear-gradient-121" x1="-29.774" y1="-0.358" x2="-29.378" y2="0.293" xlink:href="#linear-gradient-10"/>
    <linearGradient id="linear-gradient-122" x1="-42.835" y1="-3.55" x2="-42.283" y2="-2.473" xlink:href="#linear-gradient-43"/>
    <linearGradient id="linear-gradient-123" x1="-149.631" y1="0.5" x2="-148.631" y2="0.5" xlink:href="#linear-gradient-10"/>
    <linearGradient id="linear-gradient-124" x1="-113.553" y1="1.602" x2="-112.519" y2="-1.187" xlink:href="#linear-gradient-43"/>
    <linearGradient id="linear-gradient-125" x1="-97.836" y1="0.5" x2="-96.836" y2="0.5" xlink:href="#linear-gradient-10"/>
    <linearGradient id="linear-gradient-126" x1="-48.675" y1="1.698" x2="-48.211" y2="-1.193" xlink:href="#linear-gradient-43"/>
    <linearGradient id="linear-gradient-127" x1="0.869" y1="0.07" x2="-0.251" y2="1.24" gradientUnits="objectBoundingBox">
      <stop offset="0.277" stop-color="#fdf53f"/>
      <stop offset="1" stop-color="#d93c65"/>
    </linearGradient>
    <linearGradient id="linear-gradient-128" x1="1.346" y1="-0.31" x2="0.212" y2="0.911" xlink:href="#linear-gradient-127"/>
    <linearGradient id="linear-gradient-129" x1="-149.283" y1="1.857" x2="-149.029" y2="0.807" xlink:href="#linear-gradient-43"/>
    <linearGradient id="linear-gradient-130" x1="-107.852" y1="-7.305" x2="-106.319" y2="-9.559" xlink:href="#linear-gradient-43"/>
    <linearGradient id="linear-gradient-131" x1="-88.257" y1="-7.918" x2="-87.626" y2="-6.515" xlink:href="#linear-gradient-10"/>
    <linearGradient id="linear-gradient-132" x1="-126.344" y1="-9.17" x2="-124.753" y2="-6.163" xlink:href="#linear-gradient-43"/>
    <linearGradient id="linear-gradient-133" x1="0" y1="0.5" x2="1" y2="0.5" xlink:href="#linear-gradient-43"/>
  </defs>
  <g id="Group_64" data-name="Group 64" transform="translate(-152.323 -42.28)">
    <g id="Group_2" data-name="Group 2" transform="translate(152.323 77.092)">
      <path id="Path_1" data-name="Path 1" d="M927.954,639.7a64.982,64.982,0,0,1-4.318,5.787c-15.578,18.626-40.695,27.345-64.721,34.394-20.034,5.878-40.645,11.371-61.713,12.389-16.514.8-30.9-4.2-47.55-3.587-43.424,1.6-86.859,2.366-130.313,1.507-50.658-1-122.555,4.4-157.222-37.635-5.891-7.142-10.594-15.21-17.442-21.549-18.427-17.058-47.09-17.712-72.832-19.692s-55.354-9.183-65.524-31.561c-5.913-13.01-3.488-27.827-2.519-41.95s-.377-29.976-11.39-39.6c-9.1-7.947-22.38-9.5-34.72-10.677-31.99-3.04-58.069-6.393-79.163-32.188-21.31-26.059-17.586-55.4-4.112-83.36,13.459-27.932,23.149-49.442,21.987-81.16-.981-26.768-4.128-55.01,8.382-79.058,15.247-29.308,51.63-45.2,86.257-44.684s67.478,14.96,96.156,33.259c18.407,11.745,36.692,25.616,58.714,28.459,19.909,2.571,39.9-4.426,57.333-13.853s33.273-21.36,51.094-30.114c23.373-11.482,49.423-17.146,75.335-21.7,47.056-8.263,96.07-13.147,142.408-1.84,14.381,3.509,28.7,8.756,39.676,18.191,13.9,11.945,20.987,29.231,32.134,43.51,25.635,32.836,92.082,12.267,107.091,55.442,4.178,12.019.483,25.067-3.217,37.224-6.751,22.187-24.294,46.064-6.065,66.3,13.57,15.067,34.644,21.867,46.519,38.657,11.279,18.141,12.831,43.088-1.618,59.108C973,494.814,948.18,499.654,938.655,517.3c-6.608,12.243-3.694,26.891-1.3,40.442C942.247,585.448,943.468,616.3,927.954,639.7Z" transform="translate(-158.969 -144.358)" opacity="0.5" fill="url(#linear-gradient)"/>
      <g id="Group_1" data-name="Group 1" transform="translate(0 0)" opacity="0.5">
        <path id="Path_2" data-name="Path 2" d="M996.134,339.972c-.961-1.02-1.948-2.015-2.951-2.994-6.463-6.308-13.6-11.963-18.837-19.362-12.407-17.534-11.866-41.306-8.771-62.774s8.2-43.486,3.148-64.556c-5.061-21.125-20.369-38.946-39.328-48.514s-41.187-11.244-61.818-6.638c-20.738,4.63-39.749,15.218-60.035,21.635s-43.775,8.132-61.441-3.985c-8.912-6.113-15.734-15.359-25.392-20.121-12.25-6.04-26.824-3.763-39.728.6-17.121,5.784-32.967,14.911-48.689,23.982-26.97,15.559-53.707,34.776-83.407,43.932-29.31,9.036-59.336,13.405-89.468,18.413-42.85,7.121-90.393-11.143-131.858-20.5-28.7-6.476-58.395-11.14-87.825-8.281-12.608,1.225-30.62,2.882-41.458,10.294-9.081,6.211-17.746,18.428-23.162,28.035-19.54,34.659-15.592,71.647-1.425,107.241,11.606,29.158,26.78,58.079,27.313,89.592a233.23,233.23,0,0,1-4.411,46.7c-3.052,15.425-14.873,31.674-21.924,45.638-4.955,9.815-9.928,19.669-13.5,30.1-11.436,33.4-18.29,89.743,21.866,105.47,18.482,7.239,34.368,2.657,52.722.148,42.07-5.751,80.09,8.587,121.279,12.649A380.434,380.434,0,0,0,526.384,645c20.2-7.507,41.383-15.455,60.6-25.341,16.816-8.65,36.534-7.426,55.212-6.093,43.7,3.118,85.917,16.383,128.277,26.966a1051.926,1051.926,0,0,0,157.852,26.88c11.31,1.048,23,1.87,33.766-1.842,15.425-5.317,26.808-19.41,33.082-34.879,10.844-26.734,13.244-54.192,14.07-82.5.913-31.294,8.577-61.876,12.417-92.824C1026.69,414.847,1023.742,369.271,996.134,339.972Z" transform="translate(-152.323 -128.99)" fill="url(#linear-gradient)"/>
      </g>
    </g>
    <g id="Group_4" data-name="Group 4" transform="translate(207.861 42.28)">
      <ellipse id="Ellipse_5" data-name="Ellipse 5" cx="283.754" cy="306.284" rx="283.754" ry="306.284" transform="matrix(0.044, -0.999, 0.999, 0.044, 0, 566.961)" fill="url(#linear-gradient-3)"/>
      <ellipse id="Ellipse_6" data-name="Ellipse 6" cx="240.338" cy="227.043" rx="240.338" ry="227.043" transform="translate(61.52 49.398)" opacity="0.26" fill="url(#linear-gradient)"/>
      <g id="Group_3" data-name="Group 3" transform="translate(39.858 20.525)" opacity="0.68">
        <path id="Path_3" data-name="Path 3" d="M1044.992,373.447c-.073,50.047-3.506,100.2-12.325,149.533-2.233,12.324-4.821,24.589-7.906,36.738a354.06,354.06,0,0,1-11.038,35.953c-4.41,11.739-9.528,23.31-16.468,33.885a67.667,67.667,0,0,1-12.36,14.416,35.232,35.232,0,0,1-8.09,5.214,24.231,24.231,0,0,1-9.446,2.225,23.829,23.829,0,0,1-9.548-1.755,33.091,33.091,0,0,1-8.279-4.928,64.251,64.251,0,0,1-12.626-14.19c-7.064-10.5-12.251-22.047-16.707-33.768a346.054,346.054,0,0,1-11.156-35.916c-3.115-12.141-5.729-24.4-7.981-36.721-4.493-24.646-7.557-49.529-9.625-74.48q-3.079-37.433-3.208-75.029c-.062-12.518.28-25.033.725-37.541q.7-18.762,2.078-37.49c1.851-24.962,4.617-49.869,8.728-74.572,2.063-12.348,4.468-24.644,7.361-36.831a354.136,354.136,0,0,1,10.452-36.094c2.1-5.907,4.4-11.751,7.019-17.457a127.482,127.482,0,0,1,8.986-16.561A61.728,61.728,0,0,1,945.931,103.8,31.543,31.543,0,0,1,954.1,98.9a23.039,23.039,0,0,1,9.39-1.667,24.893,24.893,0,0,1,9.279,2.174,36.251,36.251,0,0,1,8.063,5.033,68.815,68.815,0,0,1,12.617,14.034c7.189,10.348,12.609,21.761,17.3,33.373a342.272,342.272,0,0,1,11.861,35.658c3.34,12.075,6.168,24.284,8.616,36.564C1040.913,273.237,1044.847,323.392,1044.992,373.447Zm-3.7,0c.046-24.937-.9-49.88-2.975-74.73a719.579,719.579,0,0,0-9.75-74.131c-2.3-12.25-4.984-24.431-8.176-36.476a340.234,340.234,0,0,0-11.4-35.566c-4.532-11.575-9.788-22.948-16.763-33.223a67.462,67.462,0,0,0-12.207-13.888,35.032,35.032,0,0,0-7.734-4.948,23.138,23.138,0,0,0-8.832-2.154,21.687,21.687,0,0,0-8.91,1.677,30.319,30.319,0,0,0-7.794,4.79,60.383,60.383,0,0,0-11.911,14.092,125.855,125.855,0,0,0-8.693,16.45c-2.532,5.677-4.748,11.5-6.77,17.383a352.128,352.128,0,0,0-10,35.989c-2.746,12.157-5.006,24.424-6.926,36.743-3.825,24.643-6.309,49.488-7.882,74.379-1.589,24.894-2.137,49.845-2.092,74.785q-.1,37.4,2.62,74.746c1.868,24.864,4.729,49.665,9.011,74.223,2.146,12.276,4.652,24.49,7.655,36.577a343.438,343.438,0,0,0,10.794,35.723c4.319,11.638,9.37,23.089,16.2,33.4A62.146,62.146,0,0,0,950.838,643.1a31.056,31.056,0,0,0,7.728,4.689,21.326,21.326,0,0,0,8.74,1.662,22.228,22.228,0,0,0,8.653-2.117,33.18,33.18,0,0,0,7.57-4.971,65.569,65.569,0,0,0,11.835-14.046c6.706-10.395,11.684-21.871,15.955-33.529a351.238,351.238,0,0,0,10.667-35.762c2.969-12.1,5.446-24.315,7.57-36.594,4.253-24.563,7.079-49.367,8.958-74.23C1040.418,423.334,1041.3,398.388,1041.288,373.447Z" transform="translate(-688.17 -95.688)" fill="#fff" style="mix-blend-mode: soft-light;isolation: isolate"/>
        <path id="Path_4" data-name="Path 4" d="M958.954,371.163a364.84,364.84,0,0,1-12.943,95.551c-8.778,31.008-22.011,60.839-39.976,87.621A252.331,252.331,0,0,1,875.5,591.725a214.219,214.219,0,0,1-37.586,30.258,181.192,181.192,0,0,1-43.855,20.052,164.024,164.024,0,0,1-95.358.042,181.246,181.246,0,0,1-43.889-20.019,214.391,214.391,0,0,1-37.637-30.235,252.508,252.508,0,0,1-30.593-37.383c-18-26.785-31.262-56.629-40.081-87.652a346.994,346.994,0,0,1-9.7-47.375,356.269,356.269,0,0,1,.03-96.493,346.821,346.821,0,0,1,9.737-47.362c8.841-31.011,22.122-60.834,40.135-87.592a252.4,252.4,0,0,1,30.6-37.342,213.7,213.7,0,0,1,37.625-30.181A181.988,181.988,0,0,1,698.778,100.5a162.866,162.866,0,0,1,95.209.039,181.861,181.861,0,0,1,43.82,19.98,213.529,213.529,0,0,1,37.574,30.2,252.229,252.229,0,0,1,30.537,37.35c17.976,26.754,31.23,56.564,40.03,87.56A364.816,364.816,0,0,1,958.954,371.163Zm-4.246,0a360.786,360.786,0,0,0-12.423-94.517c-8.454-30.71-21.182-60.358-38.706-87.02a249.639,249.639,0,0,0-29.843-37.281,208.539,208.539,0,0,0-36.915-30.268,178.362,178.362,0,0,0-43.3-20.014,158.834,158.834,0,0,0-94.261.039A178.251,178.251,0,0,0,656,122.152a208.375,208.375,0,0,0-36.864,30.29,249.488,249.488,0,0,0-29.783,37.289c-17.487,26.659-30.189,56.294-38.6,86.988a349.431,349.431,0,0,0-9.281,46.816,364.078,364.078,0,0,0,.03,95.252,349.17,349.17,0,0,0,9.314,46.8c8.434,30.682,21.156,60.3,38.655,86.928a249.285,249.285,0,0,0,29.787,37.247A207.664,207.664,0,0,0,656.113,620a178.933,178.933,0,0,0,43.226,19.975,157.714,157.714,0,0,0,94.112.042,179.015,179.015,0,0,0,43.261-19.943,207.867,207.867,0,0,0,36.9-30.214,249.462,249.462,0,0,0,29.846-37.239c17.535-26.635,30.285-56.263,38.76-86.96A360.757,360.757,0,0,0,954.708,371.163Z" transform="translate(-475.881 -93.404)" fill="#fff" style="mix-blend-mode: soft-light;isolation: isolate"/>
        <path id="Path_5" data-name="Path 5" d="M445.468,509.71l63.836-.516,63.836-.292,127.672-.236,127.672.259,63.836.319,63.836.557a.188.188,0,0,1,0,.375l-63.836.556-63.836.319-127.672.26-127.672-.236-63.836-.292-63.836-.516a.279.279,0,0,1,0-.558Z" transform="translate(-423.007 -341.947)" fill="#fff" style="mix-blend-mode: soft-light;isolation: isolate"/>
        <path id="Path_6" data-name="Path 6" d="M629.932,243.4c15.107-.239,30.214-.342,45.322-.515l45.321-.292c15.107-.124,30.215-.111,45.322-.15l45.321-.086,90.643.26,45.322.319c15.107.189,30.215.3,45.322.557a.187.187,0,0,1,0,.375c-15.107.257-30.215.367-45.322.557l-45.322.319L811.218,245l-45.321-.086c-15.107-.039-30.215-.025-45.322-.15l-45.321-.292c-15.107-.173-30.215-.276-45.322-.516a.279.279,0,0,1,0-.558Z" transform="translate(-533.413 -182.552)" fill="#fff" style="mix-blend-mode: soft-light;isolation: isolate"/>
        <path id="Path_7" data-name="Path 7" d="M390.212,776.025l69.382-.514,69.382-.294,138.764-.236,138.764.259,69.382.32,69.382.557a.187.187,0,0,1,0,.375l-69.382.556-69.382.32-138.764.259-138.764-.236-69.382-.294-69.382-.514a.279.279,0,0,1,0-.558Z" transform="translate(-389.935 -501.341)" fill="#fff" style="mix-blend-mode: soft-light;isolation: isolate"/>
        <path id="Path_8" data-name="Path 8" d="M445.468,1042.339l63.836-.516,63.836-.292,127.672-.236,127.672.26,63.836.319,63.836.557a.188.188,0,0,1,0,.375l-63.836.557-63.836.319-127.672.259-127.672-.236-63.836-.292-63.836-.516a.279.279,0,0,1,0-.558Z" transform="translate(-423.007 -660.736)" fill="#fff" style="mix-blend-mode: soft-light;isolation: isolate"/>
        <path id="Path_9" data-name="Path 9" d="M1014.208,1310.425H651.635a.979.979,0,0,1,0-1.958h362.573a.979.979,0,1,1,0,1.958Z" transform="translate(-545.982 -820.643)" fill="#fff" style="mix-blend-mode: soft-light;isolation: isolate"/>
      </g>
    </g>
    <g id="Group_6" data-name="Group 6" transform="translate(810.411 221.998)">
      <g id="Group_5" data-name="Group 5">
        <path id="Path_10" data-name="Path 10" d="M1945,736.039c3.815-34.358-10.169-73.067-17.812-108.933-4.041-18.963-6.316-37.852-4.02-57.211,2.282-19.249,10.44-40.295,1.39-59.018-18.235-37.721-57.227-18.659-78.8,11.154-25.039,34.6-30.054,89.687-38.384,132.289-5.021,25.683-13.076,52.141-15.223,78.193-3.557,43.158,7.348,72.584,28.7,91.9a62.221,62.221,0,0,0,74.216,6.934C1916.346,818.342,1938.842,791.467,1945,736.039Z" transform="translate(-1791.479 -489.919)" fill="url(#linear-gradient-5)"/>
        <path id="Path_11" data-name="Path 11" d="M1939.57,943.166a.952.952,0,0,1-.538-.672c-3.729-17.772-11.439-66.569-13.924-124.044a823.71,823.71,0,0,1,3.317-121.22c5.034-47.825,14.657-91.8,28.6-130.694a.953.953,0,0,1,1.795.644c-13.892,38.748-23.481,82.563-28.5,130.228a821.719,821.719,0,0,0-3.312,120.923c2.478,57.357,10.167,106.042,13.887,123.772a.953.953,0,0,1-1.328,1.063Z" transform="translate(-1870.949 -535.398)" fill="url(#linear-gradient-6)"/>
      </g>
    </g>
    <g id="Group_8" data-name="Group 8" transform="translate(913.421 357.03)">
      <g id="Group_7" data-name="Group 7">
        <path id="Path_12" data-name="Path 12" d="M2150.653,990.74c2.55-22.962-6.8-48.832-11.9-72.8-2.7-12.673-4.221-25.3-2.687-38.235,1.526-12.864,6.978-26.93.929-39.443-12.187-25.209-38.246-12.47-52.667,7.454-16.734,23.12-20.086,59.94-25.653,88.411-3.356,17.164-8.739,34.847-10.174,52.258-2.377,28.843,4.911,48.509,19.18,61.416a41.584,41.584,0,0,0,49.6,4.634C2131.505,1045.744,2146.54,1027.783,2150.653,990.74Z" transform="translate(-2048.054 -826.253)" fill="url(#linear-gradient-7)"/>
        <path id="Path_13" data-name="Path 13" d="M2147.026,1129.166a.636.636,0,0,1-.36-.449c-2.492-11.877-7.645-44.489-9.306-82.9a550.5,550.5,0,0,1,2.217-81.013c3.365-31.963,9.8-61.35,19.116-87.345a.637.637,0,1,1,1.2.43c-9.284,25.9-15.692,55.178-19.046,87.034a549.177,549.177,0,0,0-2.214,80.815c1.656,38.333,6.795,70.87,9.281,82.719a.637.637,0,0,1-.887.71Z" transform="translate(-2101.166 -856.647)" fill="url(#linear-gradient-8)"/>
      </g>
    </g>
    <path id="Path_14" data-name="Path 14" d="M162.751,1451.117c58.941-50.445,279.381-57.808,374.709,2.729,4.443,2.822,1.081,7.447-5.4,7.428l-361.352-1.03C162.865,1460.222,158.267,1454.955,162.751,1451.117Z" transform="translate(-5.187 -819.114)" fill="url(#linear-gradient-9)"/>
    <g id="Group_9" data-name="Group 9" transform="translate(424.214 249.626)">
      <path id="Path_15" data-name="Path 15" d="M1242.375,1198.778,1230.5,1305.29h137.786l-17.947-106.512Z" transform="translate(-1069.524 -941.813)" fill="url(#linear-gradient-10)"/>
      <path id="Path_16" data-name="Path 16" d="M1334.017,1473.845H1132.358c-5.478,0-9.593-3.9-8.533-8.089l2.588-10.233c.778-3.078,4.164-5.337,8.185-5.463L1329,1443.994c4.2-.131,7.922,2.1,8.837,5.3l4.665,16.3C1343.718,1469.826,1339.584,1473.845,1334.017,1473.845Z" transform="translate(-1005.578 -1088.576)" fill="url(#linear-gradient-11)"/>
      <path id="Path_17" data-name="Path 17" d="M829.545,585.933v243.94A37.006,37.006,0,0,0,865.6,866.868c89.1,2.3,318.584,7.869,403.4,6.618a27.229,27.229,0,0,0,26.808-26.453c1.636-56.671,4.292-192.945-5.538-256.211a28.021,28.021,0,0,0-26.792-23.717c-74.654-2.388-322.857-9.972-407.633-8.068A26.9,26.9,0,0,0,829.545,585.933Z" transform="translate(-829.545 -558.733)" fill="url(#linear-gradient-12)"/>
      <path id="Path_18" data-name="Path 18" d="M867.67,598.875v231.76a21.441,21.441,0,0,0,21.12,21.438l390.823,5.843a20.867,20.867,0,0,0,21.178-20.787l.791-229.689a15.261,15.261,0,0,0-14.889-15.313l-402.086-9.782A16.535,16.535,0,0,0,867.67,598.875Z" transform="translate(-852.364 -572.862)" fill="url(#linear-gradient-13)"/>
      <path id="Path_19" data-name="Path 19" d="M1303.451,1277.29h-.012l-436.682-8.84a.6.6,0,1,1,.024-1.209l436.682,8.84a.6.6,0,0,1-.012,1.21Z" transform="translate(-851.462 -982.789)" fill="#fff" opacity="0.65"/>
      <path id="Path_20" data-name="Path 20" d="M1414.818,1463.9a.6.6,0,0,1-.008-1.21l8.331-.122h.009a.6.6,0,0,1,.009,1.209l-8.331.122Z" transform="translate(-1179.481 -1099.698)" fill="#fff"/>
      <path id="Path_21" data-name="Path 21" d="M1141.767,1479.729a.6.6,0,0,1-.6-.7l1.189-7.443a8.25,8.25,0,0,1,8.041-6.961l88.358-1.292a.631.631,0,0,1,.613.6.6.6,0,0,1-.6.614l-88.358,1.292a7.043,7.043,0,0,0-6.864,5.942l-1.188,7.443A.605.605,0,0,1,1141.767,1479.729Z" transform="translate(-1016.053 -1100.154)" fill="#fff"/>
    </g>
    <g id="Group_18" data-name="Group 18" transform="translate(443.811 276.079)">
      <g id="Group_11" data-name="Group 11" transform="translate(1.55 0)" opacity="0.49">
        <path id="Path_22" data-name="Path 22" d="M947.929,887.043H894.9c-7.245,0-13.018,5.112-12.663,11.216l6.035,103.95c.331,5.7,5.9,10.17,12.664,10.17h47c7,0,12.678-4.788,12.678-10.693V897.736C960.607,891.831,954.931,887.043,947.929,887.043Z" transform="translate(-882.217 -781.686)" fill="#fff" opacity="0.5"/>
        <path id="Path_23" data-name="Path 23" d="M1192.309,887.043h-78.643c-6.353,0-11.5,4.788-11.5,10.693v103.95c0,5.906,5.15,10.693,11.5,10.693h78.643c6.353,0,11.5-4.788,11.5-10.693V897.736C1203.812,891.831,1198.662,887.043,1192.309,887.043Z" transform="translate(-1013.859 -781.686)" fill="#fff" opacity="0.5"/>
        <g id="Group_10" data-name="Group 10" transform="translate(2.91)">
          <path id="Path_24" data-name="Path 24" d="M940.974,624.622V675l-51.509,1.8a48.149,48.149,0,1,0,51.509-52.181Z" transform="translate(-889.465 -624.622)" fill="#fff"/>
        </g>
        <path id="Path_25" data-name="Path 25" d="M1232.331,699.976h-72.282a3.925,3.925,0,0,1-3.914-3.914h0a3.925,3.925,0,0,1,3.914-3.914h72.282a3.926,3.926,0,0,1,3.914,3.914h0A3.926,3.926,0,0,1,1232.331,699.976Z" transform="translate(-1046.163 -665.038)" fill="#fff"/>
        <rect id="Rectangle_1" data-name="Rectangle 1" width="80.11" height="7.829" rx="3.914" transform="translate(109.972 9.082)" fill="#fff"/>
        <path id="Path_26" data-name="Path 26" d="M1232.331,742.985h-72.282a3.926,3.926,0,0,1-3.914-3.914h0a3.926,3.926,0,0,1,3.914-3.914h72.282a3.926,3.926,0,0,1,3.914,3.914h0A3.926,3.926,0,0,1,1232.331,742.985Z" transform="translate(-1046.163 -690.779)" fill="#fff"/>
        <path id="Path_27" data-name="Path 27" d="M1232.331,791.094h-72.282a3.926,3.926,0,0,1-3.914-3.914h0a3.926,3.926,0,0,1,3.914-3.914h72.282a3.926,3.926,0,0,1,3.914,3.914h0A3.926,3.926,0,0,1,1232.331,791.094Z" transform="translate(-1046.163 -719.574)" fill="#fff"/>
        <rect id="Rectangle_2" data-name="Rectangle 2" width="80.11" height="7.829" rx="3.914" transform="translate(109.972 81.376)" fill="#fff"/>
      </g>
      <g id="Group_14" data-name="Group 14" transform="translate(219.6 13.306)">
        <ellipse id="Ellipse_7" data-name="Ellipse 7" cx="28.887" cy="26.852" rx="28.887" ry="26.852" transform="translate(0)" fill="#fff" opacity="0.5"/>
        <ellipse id="Ellipse_8" data-name="Ellipse 8" cx="28.887" cy="26.852" rx="28.887" ry="26.852" transform="translate(71.793)" fill="#fff" opacity="0.5"/>
        <ellipse id="Ellipse_9" data-name="Ellipse 9" cx="28.887" cy="26.852" rx="28.887" ry="26.852" transform="translate(143.587 0.879)" fill="#fff" opacity="0.5"/>
        <g id="Group_12" data-name="Group 12" transform="translate(5.632 6.114)">
          <path id="Path_28" data-name="Path 28" d="M1479.779,688.057a16.145,16.145,0,0,1,1.39,6.554c0,9.526-8.307,17.248-18.555,17.248s-18.555-7.722-18.555-17.248,8.307-17.248,18.555-17.248q.471,0,.936.022v-4.372c-.311-.012-.622-.019-.936-.019-12.843,0-23.255,9.678-23.255,21.616s10.412,21.617,23.255,21.617,23.255-9.678,23.255-21.617a20.243,20.243,0,0,0-1.776-8.3Z" transform="translate(-1439.359 -672.994)" fill="url(#linear-gradient-14)"/>
          <path id="Path_29" data-name="Path 29" d="M1650.538,709.2a19.5,19.5,0,0,1-9.887,2.655c-10.248,0-18.555-7.722-18.555-17.248s8.307-17.248,18.555-17.248q.471,0,.936.022v-4.372c-.311-.012-.622-.019-.936-.019-12.843,0-23.255,9.678-23.255,21.616s10.412,21.617,23.255,21.617A24.461,24.461,0,0,0,1652.87,713Z" transform="translate(-1545.918 -672.994)" fill="url(#linear-gradient-15)"/>
          <path id="Path_30" data-name="Path 30" d="M1835.949,704.308a18.953,18.953,0,0,1-15.345,7.55c-10.248,0-18.555-7.722-18.555-17.248s8.307-17.248,18.555-17.248q.471,0,.936.022v-4.372c-.31-.012-.622-.019-.936-.019-12.843,0-23.255,9.678-23.255,21.616s10.412,21.617,23.255,21.617a23.767,23.767,0,0,0,19.154-9.357Z" transform="translate(-1653.623 -672.994)" fill="url(#linear-gradient-16)"/>
        </g>
        <g id="Group_13" data-name="Group 13" transform="translate(0 65.078)" opacity="0.64">
          <path id="Path_31" data-name="Path 31" d="M1477.756,819.86h-47.075a4.986,4.986,0,1,0,0,9.946h47.075a4.986,4.986,0,1,0,0-9.946Z" transform="translate(-1425.331 -819.86)" fill="#fff" opacity="0.5"/>
          <path id="Path_32" data-name="Path 32" d="M1656.577,819.86H1609.5a4.986,4.986,0,1,0,0,9.946h47.074a4.986,4.986,0,1,0,0-9.946Z" transform="translate(-1532.359 -819.86)" fill="#fff" opacity="0.5"/>
          <path id="Path_33" data-name="Path 33" d="M1788.325,829.806H1835.4a4.986,4.986,0,1,0,0-9.946h-47.074a4.986,4.986,0,1,0,0,9.946Z" transform="translate(-1639.388 -819.86)" fill="#fff" opacity="0.5"/>
          <path id="Path_34" data-name="Path 34" d="M1477.756,858.4h-47.075a5.172,5.172,0,0,0-5.35,4.973v29.286a5.172,5.172,0,0,0,5.35,4.973h47.075a5.172,5.172,0,0,0,5.35-4.973V863.369A5.172,5.172,0,0,0,1477.756,858.4Z" transform="translate(-1425.331 -842.925)" fill="#fff" opacity="0.5"/>
          <path id="Path_35" data-name="Path 35" d="M1656.577,858.4H1609.5a5.172,5.172,0,0,0-5.35,4.973v29.286a5.172,5.172,0,0,0,5.35,4.973h47.074a5.172,5.172,0,0,0,5.35-4.973V863.369A5.172,5.172,0,0,0,1656.577,858.4Z" transform="translate(-1532.359 -842.925)" fill="#fff" opacity="0.5"/>
          <path id="Path_36" data-name="Path 36" d="M1835.4,858.4h-47.074a5.172,5.172,0,0,0-5.35,4.973v29.286a5.172,5.172,0,0,0,5.35,4.973H1835.4a5.172,5.172,0,0,0,5.35-4.973V863.369A5.172,5.172,0,0,0,1835.4,858.4Z" transform="translate(-1639.388 -842.925)" fill="#fff" opacity="0.5"/>
        </g>
      </g>
      <path id="Path_37" data-name="Path 37" d="M1124.986,1015.379v39.464c0,6.17,5.381,11.172,12.019,11.172h58.148c6.818,0,12.344-5.137,12.344-11.474V995.122c0-5-6.641-7.359-10.228-3.632l-11.237,11.673a13.068,13.068,0,0,1-16.788,1.449l-1.076-.769a11.235,11.235,0,0,0-13.335.3l-6.154,4.864a17.248,17.248,0,0,1-17.055,2.333h0C1128.494,1010.07,1124.986,1012.2,1124.986,1015.379Z" transform="translate(-1025.969 -843.107)" fill="url(#linear-gradient-17)"/>
      <g id="Group_15" data-name="Group 15" transform="translate(222.458 156.478)" opacity="0.5">
        <rect id="Rectangle_3" data-name="Rectangle 3" width="9.745" height="41" transform="translate(0 33.215)" fill="#fff"/>
        <rect id="Rectangle_4" data-name="Rectangle 4" width="9.745" height="26.909" transform="translate(16.284 47.306)" fill="#fff"/>
        <rect id="Rectangle_5" data-name="Rectangle 5" width="9.745" height="61.735" transform="translate(32.567 12.481)" fill="#fff"/>
        <rect id="Rectangle_6" data-name="Rectangle 6" width="9.745" height="14.831" transform="translate(48.851 59.384)" fill="#fff"/>
        <rect id="Rectangle_7" data-name="Rectangle 7" width="9.745" height="53.481" transform="translate(65.134 20.734)" fill="#fff"/>
        <rect id="Rectangle_8" data-name="Rectangle 8" width="9.745" height="44.221" transform="translate(81.418 29.994)" fill="#fff"/>
        <rect id="Rectangle_9" data-name="Rectangle 9" width="9.745" height="34.156" transform="translate(97.701 40.059)" fill="#fff"/>
        <rect id="Rectangle_10" data-name="Rectangle 10" width="9.745" height="74.215" transform="translate(113.985)" fill="#fff"/>
        <rect id="Rectangle_11" data-name="Rectangle 11" width="9.745" height="66.365" transform="translate(130.269 7.851)" fill="#fff"/>
        <rect id="Rectangle_12" data-name="Rectangle 12" width="9.745" height="54.488" transform="translate(146.552 19.728)" fill="#fff"/>
        <rect id="Rectangle_13" data-name="Rectangle 13" width="9.745" height="13.455" transform="translate(162.836 60.761)" fill="#fff"/>
        <rect id="Rectangle_14" data-name="Rectangle 14" width="9.745" height="39.591" transform="translate(179.119 34.624)" fill="#fff"/>
      </g>
      <path id="Path_38" data-name="Path 38" d="M1426.958,1014.375h-42.88a3.179,3.179,0,1,0,0,6.341h42.88a3.179,3.179,0,1,0,0-6.341Z" transform="translate(-1178.999 -857.897)" fill="#fff" opacity="0.54"/>
      <path id="Path_39" data-name="Path 39" d="M1426.958,989.663h-42.88a3.179,3.179,0,1,0,0,6.341h42.88a3.179,3.179,0,1,0,0-6.341Z" transform="translate(-1178.999 -843.106)" fill="#fff" opacity="0.5"/>
      <path id="Path_40" data-name="Path 40" d="M1619.638,1014.375h-42.88a3.179,3.179,0,1,0,0,6.341h42.88a3.179,3.179,0,1,0,0-6.341Z" transform="translate(-1294.322 -857.897)" fill="#fff" opacity="0.54"/>
      <path id="Path_41" data-name="Path 41" d="M1619.638,989.663h-42.88a3.179,3.179,0,1,0,0,6.341h42.88a3.179,3.179,0,1,0,0-6.341Z" transform="translate(-1294.322 -843.106)" fill="#fff" opacity="0.5"/>
      <g id="Group_16" data-name="Group 16" transform="translate(222.458 172.403)">
        <rect id="Rectangle_15" data-name="Rectangle 15" width="9.745" height="29.211" transform="translate(0 29.079)" fill="url(#linear-gradient-18)"/>
        <rect id="Rectangle_16" data-name="Rectangle 16" width="9.745" height="19.172" transform="translate(16.284 39.119)" fill="url(#linear-gradient-19)"/>
        <rect id="Rectangle_17" data-name="Rectangle 17" width="9.745" height="43.984" transform="translate(32.567 14.307)" fill="url(#linear-gradient-20)"/>
        <rect id="Rectangle_18" data-name="Rectangle 18" width="9.745" height="10.567" transform="translate(48.851 47.724)" fill="url(#linear-gradient-21)"/>
        <rect id="Rectangle_19" data-name="Rectangle 19" width="9.745" height="45.961" transform="translate(65.134 12.33)" fill="url(#linear-gradient-22)"/>
        <rect id="Rectangle_20" data-name="Rectangle 20" width="9.745" height="31.506" transform="translate(81.418 26.785)" fill="url(#linear-gradient-23)"/>
        <rect id="Rectangle_21" data-name="Rectangle 21" width="9.745" height="24.335" transform="translate(97.701 33.956)" fill="url(#linear-gradient-24)"/>
        <rect id="Rectangle_22" data-name="Rectangle 22" width="9.745" height="52.876" transform="translate(113.985 5.415)" fill="url(#linear-gradient-25)"/>
        <rect id="Rectangle_23" data-name="Rectangle 23" width="9.745" height="58.291" transform="translate(130.269)" fill="url(#linear-gradient-26)"/>
        <rect id="Rectangle_24" data-name="Rectangle 24" width="9.745" height="38.821" transform="translate(146.552 19.47)" fill="url(#linear-gradient-27)"/>
        <rect id="Rectangle_25" data-name="Rectangle 25" width="9.745" height="9.586" transform="translate(162.836 48.705)" fill="url(#linear-gradient-28)"/>
        <rect id="Rectangle_26" data-name="Rectangle 26" width="9.745" height="28.207" transform="translate(179.119 30.083)" fill="url(#linear-gradient-29)"/>
      </g>
      <path id="Path_42" data-name="Path 42" d="M938.142,672.576V625.717a48.37,48.37,0,0,0-47.37,47.628Z" transform="translate(-885.787 -625.277)" fill="url(#linear-gradient-30)"/>
      <g id="Group_17" data-name="Group 17" transform="translate(0 111.375)">
        <rect id="Rectangle_27" data-name="Rectangle 27" width="3.879" height="61.874" transform="translate(0 50.125)" fill="url(#linear-gradient-31)"/>
        <rect id="Rectangle_28" data-name="Rectangle 28" width="3.879" height="40.609" transform="translate(6.482 71.39)" fill="url(#linear-gradient-32)"/>
        <rect id="Rectangle_29" data-name="Rectangle 29" width="3.879" height="93.165" transform="translate(12.964 18.835)" fill="url(#linear-gradient-33)"/>
        <rect id="Rectangle_30" data-name="Rectangle 30" width="3.879" height="22.382" transform="translate(19.446 89.618)" fill="url(#linear-gradient-34)"/>
        <rect id="Rectangle_31" data-name="Rectangle 31" width="3.879" height="80.709" transform="translate(25.927 31.29)" fill="url(#linear-gradient-35)"/>
        <rect id="Rectangle_32" data-name="Rectangle 32" width="3.879" height="66.735" transform="translate(32.409 45.265)" fill="url(#linear-gradient-36)"/>
        <rect id="Rectangle_33" data-name="Rectangle 33" width="3.879" height="51.545" transform="translate(38.891 60.454)" fill="url(#linear-gradient-37)"/>
        <rect id="Rectangle_34" data-name="Rectangle 34" width="3.879" height="111.999" transform="translate(45.373)" fill="url(#linear-gradient-38)"/>
        <rect id="Rectangle_35" data-name="Rectangle 35" width="3.879" height="100.152" transform="translate(51.855 11.848)" fill="url(#linear-gradient-39)"/>
        <rect id="Rectangle_36" data-name="Rectangle 36" width="3.879" height="82.228" transform="translate(58.337 29.771)" fill="url(#linear-gradient-40)"/>
        <rect id="Rectangle_37" data-name="Rectangle 37" width="3.879" height="20.304" transform="translate(64.819 91.695)" fill="url(#linear-gradient-41)"/>
        <rect id="Rectangle_38" data-name="Rectangle 38" width="3.879" height="59.748" transform="translate(71.301 52.252)" fill="url(#linear-gradient-42)"/>
      </g>
    </g>
    <g id="Group_24" data-name="Group 24" transform="translate(813.647 421.434)">
      <g id="Group_22" data-name="Group 22">
        <path id="Path_43" data-name="Path 43" d="M1814.284,1148.5s9.327,21.524,15.067,18.654,10.045-26.546,10.045-26.546S1821.458,1136.3,1814.284,1148.5Z" transform="translate(-1808.364 -1078.363)" fill="url(#linear-gradient-43)"/>
        <path id="Path_44" data-name="Path 44" d="M1857.331,1494.054s.78,4.414,1.162,8.784a3.011,3.011,0,0,1-2.88,3.262c-5.819.242-18.266.714-22.733.514a.98.98,0,0,1-.862-1.342h0a2.192,2.192,0,0,1,1.122-1.182l20.56-9.45Z" transform="translate(-1818.936 -1290.349)" fill="url(#linear-gradient-44)"/>
        <path id="Path_45" data-name="Path 45" d="M1886.792,1486.378l-.627,5.28s-3.6,1.677-6.061-.211l1.492-5.884Z" transform="translate(-1847.758 -1285.267)" fill="url(#linear-gradient-45)"/>
        <path id="Path_46" data-name="Path 46" d="M1886.966,1240.343c.271,1.379,1.453,68.807-5.755,99.023a1.027,1.027,0,0,0,.6,1.193,17.851,17.851,0,0,0,5.87,1.193,1.766,1.766,0,0,0,1.752-1.268c2.06-7.011,11.933-42.136,13.221-75.691,1.439-37.494,0-1.277,0-1.277l-.844-23.176Z" transform="translate(-1848.404 -1138.496)" fill="url(#linear-gradient-46)"/>
        <path id="Path_47" data-name="Path 47" d="M1941.783,1499.79s1.241,2.229,2.443,8.15a1.837,1.837,0,0,1-1.616,2.2c-1.922.189-4.879.432-7.249.416a1.831,1.831,0,0,1-1.813-2.043,15.446,15.446,0,0,1,3.606-8.471Z" transform="translate(-1879.737 -1293.782)" fill="url(#linear-gradient-47)"/>
        <path id="Path_48" data-name="Path 48" d="M1948.188,1482.412l-1.464,7.985s-1.447,1.076-4.311.3l.7-8.591Z" transform="translate(-1885.051 -1283.196)" fill="url(#linear-gradient-48)"/>
        <path id="Path_49" data-name="Path 49" d="M1923.228,1239.937c5.9,35.575-1.279,87.928-3.7,98.174a1.6,1.6,0,0,1-1.29,1.214,10.736,10.736,0,0,1-4.611-.184,1.464,1.464,0,0,1-1.053-1.349c-.325-8.284.259-59.141-5.233-79.239a4.569,4.569,0,0,0-1.761-2.519l-10.661-7.579-.818-12.251Z" transform="translate(-1856.138 -1136.021)" fill="url(#linear-gradient-49)"/>
        <g id="Group_19" data-name="Group 19" transform="translate(21.417 37.347)">
          <path id="Path_50" data-name="Path 50" d="M1860.344,1080.2a99.592,99.592,0,0,1,37.807,3.295c5.266,30.725.921,66.165.921,66.165-13.676,3.586-29.1-2.193-29.1-2.193-2.273-12.843-12.879-48.985-12.879-48.985C1848.458,1097.406,1854.922,1080.738,1860.344,1080.2Z" transform="translate(-1852.882 -1079.692)" fill="url(#linear-gradient-50)"/>
        </g>
        <path id="Path_51" data-name="Path 51" d="M1948.761,1106.259l6.776-17.106s16.5,11.211,19.214,25.427a39.041,39.041,0,0,0-14.344,3.844C1959.187,1111.712,1948.761,1106.259,1948.761,1106.259Z" transform="translate(-1888.851 -1048.008)" fill="url(#linear-gradient-51)"/>
        <path id="Path_52" data-name="Path 52" d="M1905.616,1160.26s18.526,10.47,24.777,1.53a7.028,7.028,0,0,0,1.288-5.46,39.041,39.041,0,0,1,14.344-3.844,19.62,19.62,0,0,1-2.133,13.45c-10.949,20.03-40.729-1.107-40.729-1.107Z" transform="translate(-1861.56 -1085.913)" fill="url(#linear-gradient-52)"/>
        <g id="Group_20" data-name="Group 20" transform="translate(0 45.919)">
          <path id="Path_53" data-name="Path 53" d="M1845.819,1147.83l-10.111-35.309a1.028,1.028,0,0,0-.871-.741c-1.832-.214-7.14-.814-13.269-1.333-7.382-.624-15.956-1.13-21.078-.7a1.033,1.033,0,0,0-.844,1.487c2.913,5.894,14.9,29.869,20.9,37.723a1.035,1.035,0,0,0,.833.409l23.459-.218A1.033,1.033,0,0,0,1845.819,1147.83Z" transform="translate(-1799.538 -1106.157)" fill="url(#linear-gradient-53)"/>
          <path id="Path_54" data-name="Path 54" d="M1839.957,1102.272l-7.331-1.221a.526.526,0,0,0-.586.684l.726,2.2a.527.527,0,0,0,.43.357l7.054.942a.526.526,0,0,0,.582-.642l-.449-1.92A.527.527,0,0,0,1839.957,1102.272Z" transform="translate(-1818.975 -1101.043)" fill="url(#linear-gradient-54)"/>
          <path id="Path_55" data-name="Path 55" d="M1840.35,1111.753l-.6-3.146a.727.727,0,0,0-.641-.586l-14.806-1.5a.727.727,0,0,0-.78.893l.941,3.92a.727.727,0,0,0,.67.556l14.469.728A.727.727,0,0,0,1840.35,1111.753Z" transform="translate(-1813.879 -1104.319)" fill="url(#linear-gradient-55)"/>
          <path id="Path_56" data-name="Path 56" d="M1890.1,1165.647s1.408-5.791.84-7.846-1.669-4.7-5.338-4.109a53.682,53.682,0,0,0-8,2.133,2.1,2.1,0,0,0,3.007,1.813l-1.73,1.338s.247,2.143,2.6,1l-1.608,1.774a1.874,1.874,0,0,0,2.745.631C1884.358,1161.249,1885.189,1166.344,1890.1,1165.647Z" transform="translate(-1846.265 -1132.504)" fill="url(#linear-gradient-56)"/>
          <path id="Path_57" data-name="Path 57" d="M1807.178,1139.829s-4.27-4.159-4.88-6.2-1.081-4.866,2.339-6.318a53.759,53.759,0,0,1,7.909-2.441,2.1,2.1,0,0,1-1.585,3.134l2.176.215s.929,1.947-1.675,2.228l2.305.649a1.875,1.875,0,0,1-1.99,1.993C1809.709,1133.052,1811.712,1137.81,1807.178,1139.829Z" transform="translate(-1800.932 -1115.304)" fill="url(#linear-gradient-57)"/>
        </g>
        <path id="Path_58" data-name="Path 58" d="M1895.239,1045.2l5.621,16.255a.585.585,0,0,1-.267.705c-1.532.847-7.052,3.3-13.7-.922a2.757,2.757,0,0,1-1.27-1.97l-1.82-14.069Z" transform="translate(-1849.969 -1021.704)" fill="url(#linear-gradient-58)"/>
        <g id="Group_21" data-name="Group 21" transform="translate(27.588)">
          <path id="Path_59" data-name="Path 59" d="M1873.706,1007.711s-6.172,11.619-5.381,16.313,8.441,4.356,15.121.544l4.667-12.546Z" transform="translate(-1868.254 -999.263)" fill="url(#linear-gradient-59)"/>
          <path id="Path_60" data-name="Path 60" d="M1886.565,1005.813a.479.479,0,0,1-.209-.7,12.5,12.5,0,0,0,1.718-3.646s1.11-.711-2.824-1.652-9.8-2.4-11.033-5.752c-1.2-3.264,1.956-11.474,7-4.933a.479.479,0,0,0,.759.005c.826-1.075,3-3.307,6.013-1.954,2.822,1.266,3.14,3.334,3.1,4.376a.476.476,0,0,0,.564.487,5.524,5.524,0,0,1,6.448,3.006c1.316,2.893.46,4.531-.318,5.332a.477.477,0,0,0,.2.792,2.874,2.874,0,0,1,2.027,3.279c-.167,3.037-3.563,2.769-4.53,2.631a.479.479,0,0,0-.425.151c-.829.917-4.564,4.812-8.606,5.281a.483.483,0,0,1-.507-.638l1.75-5.085a.482.482,0,0,0-.26-.6Z" transform="translate(-1871.67 -986.669)" fill="url(#linear-gradient-60)"/>
          <path id="Path_61" data-name="Path 61" d="M1901.576,1033.924s4.395-3.016,4.716-.476-3.957,3.678-6.077,2.731Z" transform="translate(-1887.383 -1014.058)" fill="url(#linear-gradient-61)"/>
        </g>
      </g>
      <g id="Group_23" data-name="Group 23" transform="translate(64.85 7.946)">
        <path id="Path_62" data-name="Path 62" d="M1962.119,1059.264a.673.673,0,0,1,1.243.132c.6,2.171,2.064,5.961,5.127,7.306.154.068.3.136.442.205a1.558,1.558,0,0,0-.192-1.409c-.953-1.456.767-3.444.767-3.444a4.433,4.433,0,0,0,1.445,2.853,4.263,4.263,0,0,1,.913,4.8c-1.658,6.441-4.141,14.96,5.531,21.183s23.294-11.745,23.294-11.745l-6.76,21.432s-10.435,7.7-22.573-3.128-4.093-26.585-4.093-26.585S1958.006,1067.128,1962.119,1059.264Z" transform="translate(-1961.066 -1037.849)" fill="url(#linear-gradient-62)"/>
        <path id="Path_63" data-name="Path 63" d="M2057.188,1016.265s-2.8-12.57,11.6-9.242c0,0,6.989-1.142,7.345,5.455,0,0,4.5,2.969,1.207,8.678,0,0,13.389-5.172,19.223,6.564s.471,18.193-5.15,19.875a5.6,5.6,0,0,1,2.4,7.45c-2.156,5.163-13.073,8.8-19.522,2.524,0,0-18.351,2.425-17.983-10.537,0,0-8.535-5.512.429-16.223S2057.188,1016.265,2057.188,1016.265Z" transform="translate(-2015.87 -1006.461)" fill="url(#linear-gradient-63)"/>
        <path id="Path_64" data-name="Path 64" d="M2045.257,1102.3c2.894-.867,11.318-2.469,19.331,4.926a4.963,4.963,0,0,1,1.43,4.945c-2.152,7.924-7.831,31.333-2.852,41.462,0,0-8.774,9.673-18.347,1.877,0,0-4.3-18.719-9.92-26.937-3.884-5.673,6.193-21.3,8.742-25.08A2.987,2.987,0,0,1,2045.257,1102.3Z" transform="translate(-2004.73 -1063.359)" fill="url(#linear-gradient-64)"/>
        <path id="Path_65" data-name="Path 65" d="M2073.371,1064.24s4.279,12.1,4.6,17.443a9.153,9.153,0,0,1-9.186-1.479s-.467-12.089-1.143-14.254Z" transform="translate(-2024.854 -1041.043)" fill="url(#linear-gradient-65)"/>
        <path id="Path_66" data-name="Path 66" d="M2057.215,1023s-11.192,15.663-4.5,20.212,14.657-6.582,14.657-6.582,2.6-8.572-.118-11.481S2057.215,1023,2057.215,1023Z" transform="translate(-2014.643 -1016.308)" fill="url(#linear-gradient-66)"/>
        <path id="Path_67" data-name="Path 67" d="M2071.2,1013.5s-5.141,1.219-5.862,3.545,7.292,4.484,9.536,4.589l1.809,9.388s5.347-8.831,3.229-13.931S2071.2,1013.5,2071.2,1013.5Z" transform="translate(-2023.448 -1010.549)" fill="url(#linear-gradient-67)"/>
        <path id="Path_68" data-name="Path 68" d="M2087,1049.938s4.356-5.045,6.089-1.756-3.921,5.758-5.878,4.143Z" transform="translate(-2036.438 -1030.766)" fill="url(#linear-gradient-68)"/>
        <path id="Path_69" data-name="Path 69" d="M2029.483,1333.876c.033.85-1.459,7.59-2.271,11.186a5.92,5.92,0,0,0,.637,4.248l28.121,47.329a6.458,6.458,0,0,1,.738,1.841,40.611,40.611,0,0,1,1.026,12.616l-1.455,3.021,6.292-1.428,1.369-16.9-1.781-1.086a8.466,8.466,0,0,1-3.423-4.007c-2.543-6.177-8.857-21.9-10.485-29.561-1.85-8.709-11.52-15.781-11.52-15.781l1.7-4.017Z" transform="translate(-2000.568 -1202.426)" fill="url(#linear-gradient-69)"/>
        <path id="Path_70" data-name="Path 70" d="M2110.295,1497.255s-3.4-5.387-3.8-7.484-1.512-5.8-3.607-4.684c0,0-.987,10.186-.647,14.165s-4.5,3.852-4.5,3.852a4.52,4.52,0,0,0-2.311,1.164,1.133,1.133,0,0,0,.76,1.906,27.227,27.227,0,0,0,6.74-.382,2.062,2.062,0,0,0,1.663-1.9l.7-11.722,4.286,5.411Z" transform="translate(-2041.3 -1292.806)" fill="url(#linear-gradient-70)"/>
        <path id="Path_71" data-name="Path 71" d="M2066.207,1350.955s.991,42.335,1.126,48.348-.949,19.338-6.977,23.32l2.623,1.942a35.065,35.065,0,0,0,6.48-8.148c3.6-6.023,4.685-7.124,4.685-7.124l-1.194-2.445a5.377,5.377,0,0,1-.436-3.448c1.3-6.3,5.646-27.273,6.832-31.789,1.4-5.33,1.5-12.449-3.369-18.407S2066.207,1350.955,2066.207,1350.955Z" transform="translate(-2020.493 -1211.965)" fill="url(#linear-gradient-71)"/>
        <path id="Path_72" data-name="Path 72" d="M2067.367,1513.632a.37.37,0,0,0,.372-.317c.2-1.412,1.035-7.07,1.719-8.535.783-1.678,3.34-8.74,0-9.34,0,0-8.306,12.135-9.9,13.771a3.125,3.125,0,0,1-3.606.572,6,6,0,0,0-2.725,1.956,1.1,1.1,0,0,0,.867,1.767l5.594.053a3.936,3.936,0,0,0,3.69-2.479c.985-2.46,2.677-6.068,4.648-7.668l-1.025,9.81a.373.373,0,0,0,.367.412Z" transform="translate(-2016.087 -1299.125)" fill="url(#linear-gradient-72)"/>
        <path id="Path_73" data-name="Path 73" d="M2038.628,1220.483s1.26,4.018-.676,10.637l-12.015,41.955a1.3,1.3,0,0,0,.813,1.581,80.151,80.151,0,0,0,31.535,3.824,1.832,1.832,0,0,0,1.669-1.426c1.063-4.783,4.688-21.1,5.435-24.455,2.844-12.777,6.021-26.556-7.952-34.887C2051,1220.47,2044.992,1222.1,2038.628,1220.483Z" transform="translate(-1999.862 -1132.899)" fill="url(#linear-gradient-73)"/>
        <path id="Path_74" data-name="Path 74" d="M2095.937,1118.2s13.67,11.36,17.063,26.884-19.975,17.173-19.975,17.173-3.172-3.542-6.938-2.279-.292-6.182,4.115-6.163,2.365,3.5,8.6.68c6.072-2.75,9.826-11.257-5.667-24.152a7.016,7.016,0,0,1-2.046-2.786C2088.076,1119.978,2090.463,1115.011,2095.937,1118.2Z" transform="translate(-2034.932 -1072.751)" fill="url(#linear-gradient-74)"/>
      </g>
    </g>
    <g id="Group_26" data-name="Group 26" transform="translate(829.504 58.57)">
      <circle id="Ellipse_10" data-name="Ellipse 10" cx="48.904" cy="48.904" r="48.904" transform="translate(0 69.161) rotate(-45)" fill="url(#linear-gradient-75)"/>
      <g id="Group_25" data-name="Group 25" transform="translate(6.494 7.143)">
        <path id="Path_75" data-name="Path 75" d="M1970.567,402.173q-.709-.17-1.411-.356a.555.555,0,0,1,.271-1.076l.013,0c.943.249,1.9.478,2.853.683l.013,0a.555.555,0,0,1-.246,1.082Q1971.314,402.353,1970.567,402.173Z" transform="translate(-1923.161 -280.249)" fill="#fff"/>
        <path id="Path_76" data-name="Path 76" d="M1957.918,398.338l-.039-.011c-.945-.3-1.895-.624-2.824-.968a.555.555,0,0,1,.385-1.041c.913.337,1.846.657,2.774.951a.555.555,0,0,1-.3,1.069Z" transform="translate(-1914.752 -277.591)" fill="#fff"/>
        <path id="Path_77" data-name="Path 77" d="M1983.58,404.908a.555.555,0,0,1,.22-1.088c.96.158,1.938.3,2.9.407a.555.555,0,0,1-.128,1.1c-.984-.114-1.979-.254-2.957-.415Z" transform="translate(-1931.787 -282.097)" fill="#fff"/>
        <path id="Path_78" data-name="Path 78" d="M1944.253,392.827a.529.529,0,0,1-.089-.029c-.914-.389-1.829-.805-2.718-1.236a.555.555,0,0,1,.484-1c.873.424,1.771.832,2.669,1.214a.555.555,0,0,1-.346,1.051Z" transform="translate(-1906.636 -274.133)" fill="#fff"/>
        <path id="Path_79" data-name="Path 79" d="M1998.221,406.6a.555.555,0,0,1,.167-1.094c.971.065,1.956.107,2.93.125a.555.555,0,1,1-.02,1.11c-.991-.018-2-.061-2.983-.127A.582.582,0,0,1,1998.221,406.6Z" transform="translate(-1940.55 -283.111)" fill="#fff"/>
        <path id="Path_80" data-name="Path 80" d="M1931.187,386.019a.561.561,0,0,1-.137-.053c-.871-.476-1.741-.979-2.585-1.5a.555.555,0,1,1,.579-.947c.829.507,1.683,1,2.538,1.468a.555.555,0,0,1-.4,1.027Z" transform="translate(-1898.895 -269.905)" fill="#fff"/>
        <path id="Path_81" data-name="Path 81" d="M2012.956,406.631a.555.555,0,0,1,.113-1.095c.975-.03,1.96-.084,2.927-.161a.555.555,0,1,1,.088,1.107c-.985.078-1.989.133-2.982.163A.554.554,0,0,1,2012.956,406.631Z" transform="translate(-1949.369 -283.031)" fill="#fff"/>
        <path id="Path_82" data-name="Path 82" d="M1918.822,377.957a.55.55,0,0,1-.183-.081c-.823-.56-1.642-1.147-2.432-1.743a.555.555,0,1,1,.668-.886c.776.586,1.58,1.161,2.388,1.712a.555.555,0,0,1-.442,1Z" transform="translate(-1891.585 -264.933)" fill="#fff"/>
        <path id="Path_83" data-name="Path 83" d="M2027.648,405.042a.555.555,0,0,1,.059-1.091c.966-.124,1.938-.273,2.892-.443a.555.555,0,1,1,.195,1.093c-.971.173-1.962.325-2.945.451A.546.546,0,0,1,2027.648,405.042Z" transform="translate(-1958.162 -281.909)" fill="#fff"/>
        <path id="Path_84" data-name="Path 84" d="M1907.3,368.73a.555.555,0,0,1-.225-.113c-.763-.636-1.52-1.3-2.25-1.97a.555.555,0,0,1,.752-.817c.717.659,1.46,1.31,2.209,1.934a.555.555,0,0,1-.485.966Z" transform="translate(-1884.798 -259.276)" fill="#fff"/>
        <path id="Path_85" data-name="Path 85" d="M2042.128,402.044a.556.556,0,0,1,.005-1.082c.949-.217,1.9-.46,2.838-.721a.555.555,0,1,1,.3,1.069c-.952.267-1.924.514-2.89.735A.549.549,0,0,1,2042.128,402.044Z" transform="translate(-1966.828 -279.947)" fill="#fff"/>
        <path id="Path_86" data-name="Path 86" d="M1896.734,358.438a.554.554,0,0,1-.265-.15c-.7-.7-1.385-1.437-2.048-2.177a.555.555,0,0,1,.827-.742c.652.727,1.328,1.446,2.012,2.138a.556.556,0,0,1-.525.93Z" transform="translate(-1878.593 -252.993)" fill="#fff"/>
        <path id="Path_87" data-name="Path 87" d="M2056.3,397.666a.555.555,0,0,1-.046-1.067c.921-.307,1.848-.64,2.756-.992a.555.555,0,0,1,.4,1.036c-.925.358-1.869.7-2.807,1.01A.557.557,0,0,1,2056.3,397.666Z" transform="translate(-1975.311 -277.163)" fill="#fff"/>
        <path id="Path_88" data-name="Path 88" d="M1887.214,347.179a.549.549,0,0,1-.3-.19c-.626-.769-1.241-1.564-1.828-2.363a.555.555,0,0,1,.895-.658c.577.785,1.181,1.565,1.8,2.321a.555.555,0,0,1-.561.89Z" transform="translate(-1873.026 -246.144)" fill="#fff"/>
        <path id="Path_89" data-name="Path 89" d="M2070.03,391.955a.555.555,0,0,1-.1-1.047c.89-.4,1.781-.817,2.65-1.253a.555.555,0,0,1,.5.992c-.885.444-1.793.874-2.7,1.276A.556.556,0,0,1,2070.03,391.955Z" transform="translate(-1983.528 -273.588)" fill="#fff"/>
        <path id="Path_90" data-name="Path 90" d="M1878.823,335.063a.553.553,0,0,1-.333-.233c-.548-.824-1.083-1.674-1.592-2.526a.555.555,0,1,1,.953-.57c.5.837,1.027,1.672,1.565,2.481a.555.555,0,0,1-.592.848Z" transform="translate(-1868.143 -238.795)" fill="#fff"/>
        <path id="Path_91" data-name="Path 91" d="M2083.194,384.963a.555.555,0,0,1-.143-1.023c.85-.481,1.7-.986,2.519-1.5a.555.555,0,0,1,.592.94c-.836.526-1.7,1.041-2.565,1.53A.554.554,0,0,1,2083.194,384.963Z" transform="translate(-1991.408 -269.252)" fill="#fff"/>
        <path id="Path_92" data-name="Path 92" d="M1871.635,322.2a.554.554,0,0,1-.361-.278c-.467-.875-.919-1.772-1.342-2.666a.555.555,0,1,1,1-.475c.416.878.86,1.759,1.319,2.618a.555.555,0,0,1-.619.8Z" transform="translate(-1863.989 -231.014)" fill="#fff"/>
        <path id="Path_93" data-name="Path 93" d="M2095.667,376.756a.555.555,0,0,1-.188-.995c.8-.56,1.6-1.145,2.364-1.738a.555.555,0,1,1,.679.878c-.781.6-1.591,1.2-2.407,1.77A.554.554,0,0,1,2095.667,376.756Z" transform="translate(-1998.873 -264.198)" fill="#fff"/>
        <path id="Path_94" data-name="Path 94" d="M1865.719,308.719a.556.556,0,0,1-.384-.327c-.381-.917-.744-1.853-1.079-2.781a.555.555,0,0,1,1.045-.376c.329.912.685,1.831,1.06,2.732a.555.555,0,0,1-.642.753Z" transform="translate(-1860.604 -222.876)" fill="#fff"/>
        <path id="Path_95" data-name="Path 95" d="M2107.335,367.407a.555.555,0,0,1-.23-.962c.744-.635,1.479-1.294,2.187-1.958a.555.555,0,1,1,.76.809c-.72.676-1.469,1.347-2.227,1.993A.552.552,0,0,1,2107.335,367.407Z" transform="translate(-2005.856 -258.47)" fill="#fff"/>
        <path id="Path_96" data-name="Path 96" d="M1861.128,294.734a.554.554,0,0,1-.4-.377c-.291-.946-.562-1.912-.806-2.871a.555.555,0,1,1,1.076-.274c.24.941.507,1.89.792,2.819a.555.555,0,0,1-.368.694A.55.55,0,0,1,1861.128,294.734Z" transform="translate(-1858.019 -214.453)" fill="#fff"/>
        <path id="Path_97" data-name="Path 97" d="M2118.085,357a.555.555,0,0,1-.27-.926c.678-.7,1.347-1.428,1.989-2.161a.555.555,0,1,1,.835.732c-.653.746-1.334,1.486-2.025,2.2A.554.554,0,0,1,2118.085,357Z" transform="translate(-2012.291 -252.117)" fill="#fff"/>
        <path id="Path_98" data-name="Path 98" d="M1857.912,280.383a.555.555,0,0,1-.415-.429c-.2-.974-.375-1.962-.524-2.934a.555.555,0,0,1,1.1-.168c.146.955.319,1.924.514,2.88a.555.555,0,0,1-.673.651Z" transform="translate(-1856.261 -205.826)" fill="#fff"/>
        <path id="Path_99" data-name="Path 99" d="M2127.813,345.621a.556.556,0,0,1-.305-.885c.608-.766,1.2-1.555,1.771-2.345a.555.555,0,0,1,.9.647c-.577.8-1.184,1.608-1.8,2.388A.556.556,0,0,1,2127.813,345.621Z" transform="translate(-2018.113 -245.196)" fill="#fff"/>
        <path id="Path_100" data-name="Path 100" d="M1856.1,265.767a.554.554,0,0,1-.423-.482c-.1-.987-.183-1.988-.238-2.977a.556.556,0,0,1,1.109-.061c.053.971.132,1.954.232,2.923a.555.555,0,0,1-.681.6Z" transform="translate(-1855.345 -197.053)" fill="#fff"/>
        <path id="Path_101" data-name="Path 101" d="M2136.421,333.386a.569.569,0,0,1-.172-.074.556.556,0,0,1-.165-.768c.529-.818,1.043-1.659,1.531-2.5a.555.555,0,1,1,.961.556c-.5.857-1.021,1.714-1.559,2.547A.556.556,0,0,1,2136.421,333.386Z" transform="translate(-2023.266 -237.779)" fill="#fff"/>
        <path id="Path_102" data-name="Path 102" d="M1855.635,251.039a.555.555,0,0,1-.425-.537c-.006-1,.011-2,.053-2.986a.556.556,0,0,1,1.11.047c-.041.966-.059,1.953-.053,2.932a.556.556,0,0,1-.552.559A.58.58,0,0,1,1855.635,251.039Z" transform="translate(-1855.209 -188.232)" fill="#fff"/>
        <path id="Path_103" data-name="Path 103" d="M2143.807,320.427a.58.58,0,0,1-.125-.047.555.555,0,0,1-.239-.748c.447-.868.878-1.756,1.28-2.639a.555.555,0,0,1,1.01.46c-.409.9-.848,1.8-1.3,2.687A.555.555,0,0,1,2143.807,320.427Z" transform="translate(-2027.686 -229.94)" fill="#fff"/>
        <path id="Path_104" data-name="Path 104" d="M1856.256,236.343a.556.556,0,0,1-.423-.59c.089-.987.2-1.985.342-2.966a.555.555,0,1,1,1.1.154c-.135.964-.248,1.944-.336,2.913a.556.556,0,0,1-.6.5A.583.583,0,0,1,1856.256,236.343Z" transform="translate(-1855.582 -179.448)" fill="#fff"/>
        <path id="Path_105" data-name="Path 105" d="M2149.919,306.846a.611.611,0,0,1-.077-.024.555.555,0,0,1-.31-.721c.36-.9.7-1.83,1.019-2.75a.555.555,0,0,1,1.051.361c-.322.937-.671,1.879-1.038,2.8A.555.555,0,0,1,2149.919,306.846Z" transform="translate(-2031.343 -221.743)" fill="#fff"/>
        <path id="Path_106" data-name="Path 106" d="M1858.3,221.815a.555.555,0,0,1-.416-.643c.183-.968.393-1.951.624-2.92a.555.555,0,0,1,.669-.412h0a.555.555,0,0,1,.41.669c-.227.952-.433,1.917-.613,2.869a.555.555,0,0,1-.649.442Z" transform="translate(-1856.802 -170.78)" fill="#fff"/>
        <path id="Path_107" data-name="Path 107" d="M2154.7,292.591l-.026-.007a.555.555,0,0,1-.378-.688c.271-.929.523-1.883.751-2.835l.031-.128a.555.555,0,0,1,1.08.259l-.031.128c-.232.969-.49,1.94-.766,2.886A.555.555,0,0,1,2154.7,292.591Z" transform="translate(-2034.208 -213.084)" fill="#fff"/>
        <path id="Path_108" data-name="Path 108" d="M1861.718,207.586l-.025-.006a.555.555,0,0,1-.379-.688c.276-.954.579-1.912.9-2.848a.555.555,0,0,1,1.051.36c-.314.919-.611,1.859-.883,2.8A.555.555,0,0,1,1861.718,207.586Z" transform="translate(-1858.85 -162.307)" fill="#fff"/>
        <path id="Path_109" data-name="Path 109" d="M2158.2,278.037a.555.555,0,0,1-.416-.643c.18-.956.339-1.93.472-2.893a.555.555,0,0,1,1.1.152c-.136.982-.3,1.973-.482,2.947a.555.555,0,0,1-.648.443Z" transform="translate(-2036.301 -204.414)" fill="#fff"/>
        <path id="Path_110" data-name="Path 110" d="M1866.491,193.791a.634.634,0,0,1-.076-.024.555.555,0,0,1-.311-.721c.364-.918.758-1.843,1.169-2.748a.555.555,0,1,1,1.011.459c-.4.889-.79,1.8-1.148,2.7A.556.556,0,0,1,1866.491,193.791Z" transform="translate(-1861.706 -154.109)" fill="#fff"/>
        <path id="Path_111" data-name="Path 111" d="M2160.225,263.392a.555.555,0,0,1-.423-.589c.088-.971.152-1.956.192-2.926a.555.555,0,0,1,1.109.045c-.041.988-.106,1.991-.2,2.98a.555.555,0,0,1-.6.5A.58.58,0,0,1,2160.225,263.392Z" transform="translate(-2037.513 -195.629)" fill="#fff"/>
        <path id="Path_112" data-name="Path 112" d="M1872.587,180.561a.556.556,0,0,1-.365-.794c.452-.878.933-1.76,1.43-2.622a.555.555,0,0,1,.962.555c-.489.846-.961,1.712-1.4,2.574A.556.556,0,0,1,1872.587,180.561Z" transform="translate(-1865.355 -146.266)" fill="#fff"/>
        <path id="Path_113" data-name="Path 113" d="M2160.69,248.659a.555.555,0,0,1-.426-.536c-.007-.974-.039-1.96-.093-2.931a.555.555,0,1,1,1.108-.062c.055.988.087,1.992.095,2.985a.555.555,0,0,1-.551.56A.567.567,0,0,1,2160.69,248.659Z" transform="translate(-2037.735 -186.809)" fill="#fff"/>
        <path id="Path_114" data-name="Path 114" d="M1879.958,168.014a.543.543,0,0,1-.171-.073.555.555,0,0,1-.166-.767c.538-.834,1.1-1.667,1.682-2.476a.555.555,0,0,1,.9.646c-.568.794-1.124,1.612-1.652,2.431A.556.556,0,0,1,1879.958,168.014Z" transform="translate(-1869.767 -138.843)" fill="#fff"/>
        <path id="Path_115" data-name="Path 115" d="M2159.434,233.979a.556.556,0,0,1-.423-.482c-.1-.968-.229-1.946-.378-2.908a.555.555,0,0,1,1.1-.17c.152.98.281,1.976.385,2.962a.556.556,0,0,1-.682.6Z" transform="translate(-2036.81 -178.036)" opacity="0.5" fill="url(#linear-gradient-76)"/>
        <path id="Path_116" data-name="Path 116" d="M1888.554,156.266a.556.556,0,0,1-.305-.885c.618-.78,1.262-1.553,1.914-2.3a.555.555,0,0,1,.835.731c-.64.732-1.272,1.492-1.879,2.257A.556.556,0,0,1,1888.554,156.266Z" transform="translate(-1874.912 -131.917)" opacity="0.5" fill="url(#linear-gradient-77)"/>
        <path id="Path_117" data-name="Path 117" d="M2156.762,219.513a.555.555,0,0,1-.415-.429c-.195-.95-.416-1.91-.656-2.853a.555.555,0,0,1,1.076-.275c.245.96.47,1.938.668,2.905a.556.556,0,0,1-.673.652Z" transform="translate(-2035.043 -169.411)" opacity="0.5" fill="url(#linear-gradient-78)"/>
        <path id="Path_118" data-name="Path 118" d="M1898.27,145.446a.555.555,0,0,1-.27-.925c.688-.714,1.4-1.421,2.125-2.1a.555.555,0,1,1,.762.808c-.709.668-1.412,1.363-2.088,2.064A.554.554,0,0,1,1898.27,145.446Z" transform="translate(-1880.727 -125.557)" opacity="0.5" fill="url(#linear-gradient-79)"/>
        <path id="Path_119" data-name="Path 119" d="M2152.7,205.37a.554.554,0,0,1-.4-.376c-.286-.929-.6-1.863-.93-2.778a.555.555,0,1,1,1.044-.378c.337.931.655,1.883.947,2.828a.555.555,0,0,1-.66.7Z" transform="translate(-2032.449 -160.992)" opacity="0.5" fill="url(#linear-gradient-80)"/>
        <path id="Path_120" data-name="Path 120" d="M1909.009,135.648a.555.555,0,0,1-.231-.962c.754-.644,1.534-1.279,2.317-1.886a.555.555,0,0,1,.68.878c-.769.6-1.535,1.219-2.276,1.852A.554.554,0,0,1,1909.009,135.648Z" transform="translate(-1887.155 -119.821)" opacity="0.5" fill="url(#linear-gradient-81)"/>
        <path id="Path_121" data-name="Path 121" d="M2147.3,191.676a.555.555,0,0,1-.383-.326c-.373-.895-.774-1.8-1.193-2.677a.555.555,0,1,1,1-.477c.427.9.835,1.815,1.216,2.726a.556.556,0,0,1-.642.754Z" transform="translate(-2029.054 -152.856)" opacity="0.5" fill="url(#linear-gradient-82)"/>
        <path id="Path_122" data-name="Path 122" d="M1920.666,126.961a.555.555,0,0,1-.189-.994c.812-.569,1.649-1.125,2.487-1.654a.555.555,0,0,1,.593.939c-.823.52-1.645,1.066-2.443,1.624A.554.554,0,0,1,1920.666,126.961Z" transform="translate(-1894.132 -114.759)" opacity="0.5" fill="url(#linear-gradient-83)"/>
        <path id="Path_123" data-name="Path 123" d="M2140.6,178.558a.553.553,0,0,1-.36-.278c-.46-.858-.946-1.717-1.446-2.551a.555.555,0,0,1,.953-.57c.508.849,1,1.724,1.472,2.6a.556.556,0,0,1-.619.8Z" transform="translate(-2024.893 -145.081)" opacity="0.5" fill="url(#linear-gradient-84)"/>
        <path id="Path_124" data-name="Path 124" d="M1933.132,119.46a.555.555,0,0,1-.144-1.023c.861-.487,1.747-.961,2.633-1.407a.555.555,0,1,1,.5.991c-.87.439-1.74.9-2.586,1.382A.554.554,0,0,1,1933.132,119.46Z" transform="translate(-1901.593 -110.416)" opacity="0.5" fill="url(#linear-gradient-85)"/>
        <path id="Path_125" data-name="Path 125" d="M2132.669,166.137a.552.552,0,0,1-.333-.232c-.54-.812-1.107-1.62-1.684-2.4a.555.555,0,1,1,.893-.659c.587.8,1.164,1.619,1.715,2.445a.555.555,0,0,1-.592.848Z" transform="translate(-2020.002 -137.737)" opacity="0.5" fill="url(#linear-gradient-86)"/>
        <path id="Path_126" data-name="Path 126" d="M1946.289,113.213a.555.555,0,0,1-.1-1.047c.9-.4,1.831-.788,2.755-1.147a.555.555,0,1,1,.4,1.035c-.906.353-1.817.732-2.7,1.127A.557.557,0,0,1,1946.289,113.213Z" transform="translate(-1909.467 -106.831)" opacity="0.5" fill="url(#linear-gradient-87)"/>
        <path id="Path_127" data-name="Path 127" d="M2123.581,154.53a.556.556,0,0,1-.3-.189c-.616-.756-1.258-1.507-1.908-2.23a.555.555,0,0,1,.826-.742c.662.736,1.315,1.5,1.943,2.271a.555.555,0,0,1-.561.89Z" transform="translate(-2014.428 -130.894)" opacity="0.5" fill="url(#linear-gradient-88)"/>
        <path id="Path_128" data-name="Path 128" d="M1960.015,108.279a.555.555,0,0,1-.047-1.067c.942-.315,1.9-.61,2.851-.876a.555.555,0,1,1,.3,1.069c-.932.262-1.874.552-2.8.861A.555.555,0,0,1,1960.015,108.279Z" transform="translate(-1917.682 -104.039)" opacity="0.5" fill="url(#linear-gradient-89)"/>
        <path id="Path_129" data-name="Path 129" d="M2113.41,143.847a.557.557,0,0,1-.265-.149c-.684-.692-1.4-1.377-2.115-2.037a.555.555,0,0,1,.751-.818c.731.671,1.457,1.369,2.154,2.074a.555.555,0,0,1-.525.93Z" transform="translate(-2008.215 -124.617)" opacity="0.5" fill="url(#linear-gradient-90)"/>
        <path id="Path_130" data-name="Path 130" d="M1974.182,104.707a.555.555,0,0,1,0-1.081c.966-.222,1.949-.423,2.92-.6a.555.555,0,0,1,.2,1.093c-.953.171-1.919.368-2.867.587A.558.558,0,0,1,1974.182,104.707Z" transform="translate(-1926.161 -102.066)" opacity="0.5" fill="url(#linear-gradient-91)"/>
        <path id="Path_131" data-name="Path 131" d="M2102.25,134.193a.555.555,0,0,1-.225-.113c-.748-.623-1.523-1.236-2.3-1.823a.555.555,0,0,1,.668-.888c.795.6,1.584,1.223,2.346,1.856a.555.555,0,0,1-.485.967Z" transform="translate(-2001.422 -118.967)" opacity="0.5" fill="url(#linear-gradient-92)"/>
        <path id="Path_132" data-name="Path 132" d="M1988.658,102.534a.555.555,0,0,1,.058-1.09c.982-.128,1.982-.232,2.97-.312a.555.555,0,0,1,.089,1.107c-.97.078-1.952.181-2.917.306A.549.549,0,0,1,1988.658,102.534Z" transform="translate(-1934.826 -100.936)" opacity="0.5" fill="url(#linear-gradient-93)"/>
        <path id="Path_133" data-name="Path 133" d="M2090.2,125.664a.554.554,0,0,1-.183-.081c-.806-.547-1.638-1.083-2.471-1.591a.555.555,0,1,1,.578-.948c.849.518,1.7,1.063,2.517,1.62a.555.555,0,0,1-.441,1Z" transform="translate(-1994.108 -114.003)" opacity="0.5" fill="url(#linear-gradient-94)"/>
        <path id="Path_134" data-name="Path 134" d="M2003.349,101.77a.555.555,0,0,1,.112-1.095c.99-.031,1.995-.039,2.986-.021a.555.555,0,1,1-.019,1.11c-.973-.017-1.96-.01-2.932.021A.557.557,0,0,1,2003.349,101.77Z" transform="translate(-1943.619 -100.645)" opacity="0.5" fill="url(#linear-gradient-95)"/>
        <path id="Path_135" data-name="Path 135" d="M2077.4,118.359a.551.551,0,0,1-.136-.053c-.855-.466-1.732-.917-2.608-1.34a.555.555,0,1,1,.483-1c.893.431,1.786.89,2.657,1.364a.555.555,0,0,1-.4,1.028Z" transform="translate(-1986.361 -109.782)" opacity="0.5" fill="url(#linear-gradient-96)"/>
        <path id="Path_136" data-name="Path 136" d="M2018.084,102.068a.555.555,0,0,1,.167-1.094c.987.065,1.987.155,2.973.268a.555.555,0,1,1-.126,1.1c-.968-.111-1.951-.2-2.92-.263A.56.56,0,0,1,2018.084,102.068Z" transform="translate(-1952.438 -100.841)" opacity="0.5" fill="url(#linear-gradient-97)"/>
        <path id="Path_137" data-name="Path 137" d="M2063.948,112.337a.56.56,0,0,1-.088-.029c-.9-.381-1.813-.744-2.726-1.081a.555.555,0,1,1,.384-1.042c.93.343,1.863.713,2.776,1.1a.555.555,0,0,1-.346,1.051Z" transform="translate(-1978.242 -106.335)" opacity="0.5" fill="url(#linear-gradient-98)"/>
        <path id="Path_138" data-name="Path 138" d="M2032.724,103.746a.555.555,0,0,1,.22-1.088c.976.16,1.963.346,2.934.553a.555.555,0,0,1-.231,1.086c-.955-.2-1.924-.386-2.883-.543Z" transform="translate(-1961.201 -101.846)" opacity="0.5" fill="url(#linear-gradient-99)"/>
        <path id="Path_139" data-name="Path 139" d="M2049.985,107.637l-.038-.01c-.926-.292-1.874-.566-2.818-.814a.555.555,0,1,1,.283-1.074c.961.253,1.926.532,2.869.829a.555.555,0,0,1-.3,1.07Z" transform="translate(-1969.829 -103.682)" opacity="0.5" fill="url(#linear-gradient-100)"/>
      </g>
    </g>
    <g id="Group_27" data-name="Group 27" transform="translate(165.381 303.325)">
      <path id="Path_140" data-name="Path 140" d="M251.857,993.471c-40.621-1.953-76.181-53.178-64.89-79.614,7.63-17.862,31.7-12.823,44.089-33.257,15.816-26.09-14.127-49.641-13.272-97.185.728-40.461,23.58-88.241,47.79-90.816,25.343-2.7,59.048,43.41,53.115,82.389-3.859,25.348-22.472,34.484-18.625,54.875,4.464,23.66,31.833,23.6,40.932,44.491C357.342,911.885,305.6,996.055,251.857,993.471Z" transform="translate(-184.847 -692.486)" fill="url(#linear-gradient-101)"/>
      <path id="Path_141" data-name="Path 141" d="M376.413,1139.488a1.57,1.57,0,0,1-.652.127,1.35,1.35,0,0,1-1.366-1.437c7.842-104.826-21.694-209.887-21.993-210.936a1.471,1.471,0,0,1,1.042-1.77,1.415,1.415,0,0,1,1.806.907c.3,1.053,29.963,106.565,22.086,211.859A1.5,1.5,0,0,1,376.413,1139.488Z" transform="translate(-285.102 -831.892)" fill="url(#linear-gradient-102)"/>
    </g>
    <g id="Group_29" data-name="Group 29" transform="translate(249.587 288.173)">
      <g id="Group_28" data-name="Group 28">
        <path id="Path_142" data-name="Path 142" d="M395.122,858.93c-3.165-28.5,8.436-60.617,14.777-90.372,3.352-15.732,5.239-31.4,3.335-47.463-1.893-15.969-8.661-33.429-1.153-48.962,15.128-31.293,47.476-15.479,65.377,9.253,20.773,28.7,24.934,74.405,31.844,109.747,4.166,21.307,10.848,43.257,12.629,64.87,2.951,35.8-6.1,60.216-23.809,76.238a51.619,51.619,0,0,1-61.569,5.752C418.891,927.208,400.227,904.912,395.122,858.93Z" transform="translate(-394.586 -654.747)" fill="url(#linear-gradient-103)"/>
        <path id="Path_143" data-name="Path 143" d="M547.47,1030.763a.79.79,0,0,0,.446-.557c3.094-14.744,9.49-55.226,11.552-102.908a683.424,683.424,0,0,0-2.752-100.565c-4.176-39.676-12.16-76.155-23.729-108.424a.791.791,0,0,0-1.489.534c11.525,32.146,19.479,68.495,23.643,108.038A681.715,681.715,0,0,1,557.89,927.2c-2.056,47.583-8.435,87.973-11.521,102.682a.79.79,0,0,0,1.1.882Z" transform="translate(-476.503 -692.476)" fill="url(#linear-gradient-104)"/>
      </g>
    </g>
    <g id="Group_30" data-name="Group 30" transform="translate(334.104 336.499)">
      <path id="Path_144" data-name="Path 144" d="M654.964,1055.162c-18.47,1.2-38.835-21.471-43.384-43.885-4.682-23.067,10.514-30.446,14.479-61.061,4.5-34.778-12.881-42.424-18.6-90.871-1.292-10.931-8.765-74.186,12.117-83.077,19.307-8.22,65.525,28.9,69.151,69.016,2.586,28.606-18.387,37.681-15.274,71.012,2.73,29.246,19.78,31.933,22.689,60.185C699.678,1010.877,679.216,1053.583,654.964,1055.162Z" transform="translate(-605.101 -775.117)" fill="url(#linear-gradient-105)"/>
      <path id="Path_145" data-name="Path 145" d="M714.114,1158.8c9.835-36.807,8.065-95.847,4.847-138.895-3.483-46.606-9.363-85.026-9.422-85.409l-1.556.24c.059.382,5.931,38.751,9.409,85.3,3.207,42.922,4.978,101.768-4.8,138.359Z" transform="translate(-666.678 -870.511)" fill="url(#linear-gradient-106)"/>
    </g>
    <g id="Group_31" data-name="Group 31" transform="translate(384.518 397.184)">
      <path id="Path_146" data-name="Path 146" d="M731.371,1066.748c-2.94-19.365,4.1-41.6,7.612-62.077,1.857-10.828,2.716-21.573.977-32.482-1.729-10.846-6.825-22.576-2.126-33.381,9.468-21.769,31.976-11.863,44.868,4.526,14.962,19.018,19.051,50.094,24.734,74.024,3.425,14.426,8.586,29.223,10.393,43.924,2.993,24.353-2.513,41.26-14.162,52.678a35.254,35.254,0,0,1-41.86,5.61C749.459,1112.693,736.113,1097.988,731.371,1066.748Z" transform="translate(-730.67 -926.269)" fill="url(#linear-gradient-107)"/>
      <path id="Path_147" data-name="Path 147" d="M830.828,1181.2a1.327,1.327,0,0,0,1.307-1.107c.05-.294,4.951-29.87,5.079-70.672.119-37.677-3.922-92.929-23.846-142.194a1.327,1.327,0,1,0-2.461,1c19.756,48.849,23.767,103.714,23.653,141.138-.124,40.6-4.993,70-5.042,70.291a1.327,1.327,0,0,0,1.088,1.529A1.347,1.347,0,0,0,830.828,1181.2Z" transform="translate(-778.635 -950.286)" fill="url(#linear-gradient-108)"/>
    </g>
    <g id="Group_38" data-name="Group 38" transform="translate(363.815 83.196)">
      <g id="Group_35" data-name="Group 35" transform="translate(0 0)">
        <g id="Group_32" data-name="Group 32">
          <circle id="Ellipse_11" data-name="Ellipse 11" cx="25.716" cy="25.716" r="25.716" transform="translate(0 50.057) rotate(-76.717)" fill="url(#linear-gradient-109)"/>
          <path id="Path_148" data-name="Path 148" d="M743.423,217.816H692.037s-2.048,14.274,20.9,53.37a5.618,5.618,0,0,0,9.621.019C745.512,232.105,743.423,217.816,743.423,217.816Z" transform="translate(-686.817 -188.258)" fill="url(#linear-gradient-109)"/>
        </g>
        <g id="Group_33" data-name="Group 33" transform="translate(4.427 4.765)">
          <path id="Path_149" data-name="Path 149" d="M716.629,237.786v.145h.008a6.378,6.378,0,0,1-5.452-3.148c-13.416-22.853-18.332-37.3-20.093-45.389a25.957,25.957,0,0,1-.882-5.552,12.921,12.921,0,0,1-.023-2.8l.068-.412a26.462,26.462,0,0,1,52.8.262,11.621,11.621,0,0,1,.043,1.418v.095a26.5,26.5,0,0,1-1.061,7.437c-1.822,8.079-6.768,22.386-19.955,44.853A6.229,6.229,0,0,1,716.629,237.786Zm-25-55.774c-.006.385.006.936.073,1.765l0,0a24.21,24.21,0,0,0,.837,5.241l.009.03c1.734,7.976,6.6,22.245,19.926,44.945a4.831,4.831,0,0,0,4.16,2.369l0,.745v-.747a5.068,5.068,0,0,0,4.171-2.389c13.1-22.324,17.994-36.511,19.789-44.481l.013-.046a24.881,24.881,0,0,0,.858-7.039l-.15-.105v-.008a9.847,9.847,0,0,1,.114-1.253l.071-.043a24.938,24.938,0,0,0-49.8.26l-.021.76Z" transform="translate(-690.131 -156.062)" fill="#fff" opacity="0.8"/>
        </g>
        <circle id="Ellipse_12" data-name="Ellipse 12" cx="14.849" cy="14.849" r="14.849" transform="translate(10.02 30.854) rotate(-45)" fill="#fff"/>
        <g id="Group_34" data-name="Group 34" transform="translate(15.341 15.175)">
          <path id="Path_150" data-name="Path 150" d="M732.994,213.349a15.679,15.679,0,1,1,15.679-15.679A15.7,15.7,0,0,1,732.994,213.349Zm0-29.7a14.02,14.02,0,1,0,14.02,14.02A14.036,14.036,0,0,0,732.994,183.65Z" transform="translate(-717.315 -181.991)" fill="url(#linear-gradient-111)"/>
        </g>
      </g>
      <g id="Group_36" data-name="Group 36" transform="translate(16.685 9.4)">
        <path id="Path_151" data-name="Path 151" d="M720.912,173.6a.249.249,0,0,1-.162-.438,23.043,23.043,0,0,1,15.007-5.556.249.249,0,0,1,0,.5,22.548,22.548,0,0,0-14.683,5.435A.246.246,0,0,1,720.912,173.6Z" transform="translate(-720.663 -167.607)" fill="#fff"/>
      </g>
      <g id="Group_37" data-name="Group 37" transform="translate(8.733 20.197)">
        <path id="Path_152" data-name="Path 152" d="M701.106,207a.249.249,0,0,1-.249-.249,22.992,22.992,0,0,1,3.448-12.131.249.249,0,0,1,.423.262,22.493,22.493,0,0,0-3.373,11.869A.249.249,0,0,1,701.106,207Z" transform="translate(-700.857 -194.5)" fill="#fff"/>
      </g>
    </g>
    <g id="Group_45" data-name="Group 45" transform="translate(571.736 45.183)">
      <g id="Group_42" data-name="Group 42">
        <g id="Group_39" data-name="Group 39">
          <circle id="Ellipse_13" data-name="Ellipse 13" cx="25.717" cy="25.717" r="25.717" transform="translate(0 36.369) rotate(-45)" fill="url(#linear-gradient-109)"/>
          <path id="Path_153" data-name="Path 153" d="M1274.837,136.663h-51.386s-2.047,14.274,20.9,53.37a5.618,5.618,0,0,0,9.621.019C1276.926,150.952,1274.837,136.663,1274.837,136.663Z" transform="translate(-1212.799 -101.673)" fill="url(#linear-gradient-109)"/>
        </g>
        <g id="Group_40" data-name="Group 40" transform="translate(9.859 10.197)">
          <path id="Path_154" data-name="Path 154" d="M1248.044,156.633v.145h.008a6.377,6.377,0,0,1-5.452-3.148c-13.416-22.853-18.332-37.3-20.093-45.389a25.934,25.934,0,0,1-.882-5.553,12.93,12.93,0,0,1-.022-2.8l.068-.412a26.462,26.462,0,0,1,52.805.263,11.589,11.589,0,0,1,.043,1.418v.095a26.5,26.5,0,0,1-1.061,7.436c-1.822,8.079-6.768,22.386-19.955,44.853A6.229,6.229,0,0,1,1248.044,156.633Zm-25-55.774c-.006.386.006.936.073,1.765l0,0a24.255,24.255,0,0,0,.837,5.241l.009.03c1.735,7.976,6.6,22.245,19.926,44.945a4.833,4.833,0,0,0,4.16,2.369l0,.745v-.746a5.069,5.069,0,0,0,4.171-2.389c13.1-22.324,17.994-36.511,19.788-44.482l.013-.046a24.893,24.893,0,0,0,.858-7.039l-.15-.105v-.008a9.836,9.836,0,0,1,.114-1.253l.071-.043a24.938,24.938,0,0,0-49.8.261l-.021.759Z" transform="translate(-1221.546 -74.91)" fill="#fff" opacity="0.8"/>
        </g>
        <circle id="Ellipse_14" data-name="Ellipse 14" cx="14.849" cy="14.849" r="14.849" transform="translate(15.452 36.286) rotate(-45)" fill="#fff"/>
        <g id="Group_41" data-name="Group 41" transform="translate(20.773 20.607)">
          <path id="Path_155" data-name="Path 155" d="M1264.409,132.2a15.679,15.679,0,1,1,15.679-15.679A15.7,15.7,0,0,1,1264.409,132.2Zm0-29.7a14.02,14.02,0,1,0,14.02,14.02A14.036,14.036,0,0,0,1264.409,102.5Z" transform="translate(-1248.73 -100.838)" fill="url(#linear-gradient-111)"/>
        </g>
      </g>
      <g id="Group_43" data-name="Group 43" transform="translate(22.117 14.832)">
        <path id="Path_156" data-name="Path 156" d="M1252.326,92.448a.249.249,0,0,1-.162-.438,23.046,23.046,0,0,1,15.007-5.555.249.249,0,1,1,0,.5,22.546,22.546,0,0,0-14.683,5.436A.249.249,0,0,1,1252.326,92.448Z" transform="translate(-1252.077 -86.455)" fill="#fff"/>
      </g>
      <g id="Group_44" data-name="Group 44" transform="translate(14.165 25.629)">
        <path id="Path_157" data-name="Path 157" d="M1232.521,125.845a.249.249,0,0,1-.249-.249,22.99,22.99,0,0,1,3.448-12.131.249.249,0,0,1,.423.263,22.492,22.492,0,0,0-3.373,11.869A.249.249,0,0,1,1232.521,125.845Z" transform="translate(-1232.272 -113.347)" fill="#fff"/>
      </g>
    </g>
    <g id="Group_52" data-name="Group 52" transform="translate(484.658 127.621)">
      <g id="Group_49" data-name="Group 49">
        <g id="Group_46" data-name="Group 46">
          <circle id="Ellipse_15" data-name="Ellipse 15" cx="25.717" cy="25.717" r="25.717" transform="translate(0 36.369) rotate(-45)" fill="url(#linear-gradient-109)"/>
          <path id="Path_158" data-name="Path 158" d="M1057.946,342H1006.56s-2.048,14.274,20.9,53.37a5.618,5.618,0,0,0,9.621.019C1060.035,356.287,1057.946,342,1057.946,342Z" transform="translate(-995.908 -307.008)" fill="url(#linear-gradient-109)"/>
        </g>
        <g id="Group_47" data-name="Group 47" transform="translate(9.859 10.197)">
          <path id="Path_159" data-name="Path 159" d="M1031.152,361.968v.145h.008a6.378,6.378,0,0,1-5.453-3.148c-13.416-22.853-18.332-37.3-20.093-45.389a25.937,25.937,0,0,1-.882-5.553,12.915,12.915,0,0,1-.022-2.8l.067-.411a26.462,26.462,0,0,1,52.805.262,11.589,11.589,0,0,1,.043,1.418v.095a26.5,26.5,0,0,1-1.061,7.436c-1.822,8.079-6.768,22.386-19.955,44.854A6.229,6.229,0,0,1,1031.152,361.968Zm-25-55.774c-.006.386.006.936.073,1.766l0,0a24.254,24.254,0,0,0,.837,5.241l.009.03c1.735,7.976,6.6,22.245,19.925,44.945a4.833,4.833,0,0,0,4.16,2.369l0,.745v-.746a5.069,5.069,0,0,0,4.171-2.389c13.1-22.324,17.994-36.511,19.788-44.482l.013-.046a24.893,24.893,0,0,0,.858-7.039l-.15-.105v-.008a9.811,9.811,0,0,1,.114-1.253l.071-.043a24.938,24.938,0,0,0-49.8.261l-.021.759Z" transform="translate(-1004.654 -280.245)" fill="#fff" opacity="0.8"/>
        </g>
        <circle id="Ellipse_16" data-name="Ellipse 16" cx="14.849" cy="14.849" r="14.849" transform="translate(15.452 36.286) rotate(-45)" fill="#fff"/>
        <g id="Group_48" data-name="Group 48" transform="translate(20.773 20.607)">
          <path id="Path_160" data-name="Path 160" d="M1047.517,337.531a15.679,15.679,0,1,1,15.679-15.679A15.7,15.7,0,0,1,1047.517,337.531Zm0-29.7a14.02,14.02,0,1,0,14.02,14.02A14.035,14.035,0,0,0,1047.517,307.832Z" transform="translate(-1031.838 -306.173)" fill="url(#linear-gradient-111)"/>
        </g>
      </g>
      <g id="Group_50" data-name="Group 50" transform="translate(22.117 14.832)">
        <path id="Path_161" data-name="Path 161" d="M1035.434,297.783a.249.249,0,0,1-.162-.437,23.044,23.044,0,0,1,15.007-5.556.249.249,0,1,1,0,.5,22.548,22.548,0,0,0-14.683,5.436A.249.249,0,0,1,1035.434,297.783Z" transform="translate(-1035.185 -291.79)" fill="#fff"/>
      </g>
      <g id="Group_51" data-name="Group 51" transform="translate(14.165 25.629)">
        <path id="Path_162" data-name="Path 162" d="M1015.629,331.179a.249.249,0,0,1-.249-.249,22.99,22.99,0,0,1,3.448-12.131.249.249,0,1,1,.423.263,22.5,22.5,0,0,0-3.372,11.869A.249.249,0,0,1,1015.629,331.179Z" transform="translate(-1015.38 -318.682)" fill="#fff"/>
      </g>
    </g>
    <g id="Group_59" data-name="Group 59" transform="translate(314.149 193.791)">
      <g id="Group_56" data-name="Group 56" transform="translate(0)">
        <g id="Group_53" data-name="Group 53">
          <circle id="Ellipse_17" data-name="Ellipse 17" cx="25.716" cy="25.716" r="25.716" transform="translate(0 36.369) rotate(-45)" fill="url(#linear-gradient-109)"/>
          <path id="Path_163" data-name="Path 163" d="M633.243,506.814H581.857s-2.047,14.274,20.9,53.37a5.618,5.618,0,0,0,9.621.019C635.332,521.1,633.243,506.814,633.243,506.814Z" transform="translate(-571.205 -471.824)" fill="url(#linear-gradient-109)"/>
        </g>
        <g id="Group_54" data-name="Group 54" transform="translate(9.859 10.197)">
          <path id="Path_164" data-name="Path 164" d="M606.45,526.784v.145h.008a6.377,6.377,0,0,1-5.452-3.148c-13.416-22.853-18.332-37.3-20.093-45.389a25.926,25.926,0,0,1-.882-5.552,12.913,12.913,0,0,1-.022-2.8l.067-.412a26.462,26.462,0,0,1,52.805.262,11.585,11.585,0,0,1,.043,1.418v.1a26.5,26.5,0,0,1-1.061,7.436c-1.822,8.079-6.768,22.386-19.955,44.853A6.23,6.23,0,0,1,606.45,526.784Zm-25-55.774c-.006.385.006.936.073,1.765l0,0a24.258,24.258,0,0,0,.837,5.241l.009.03c1.734,7.976,6.6,22.245,19.925,44.945a4.834,4.834,0,0,0,4.16,2.369l0,.745v-.747a5.068,5.068,0,0,0,4.171-2.389c13.1-22.324,17.995-36.511,19.789-44.481l.013-.046a24.9,24.9,0,0,0,.858-7.039l-.15-.105v-.008a9.986,9.986,0,0,1,.114-1.253l.071-.043a24.938,24.938,0,0,0-49.8.261l-.022.759Z" transform="translate(-579.952 -445.06)" fill="#fff" opacity="0.8"/>
        </g>
        <circle id="Ellipse_18" data-name="Ellipse 18" cx="14.849" cy="14.849" r="14.849" transform="translate(17.05 44.322) rotate(-67.5)" fill="#fff"/>
        <g id="Group_55" data-name="Group 55" transform="translate(20.773 20.607)">
          <path id="Path_165" data-name="Path 165" d="M622.815,502.347a15.679,15.679,0,1,1,15.679-15.679A15.7,15.7,0,0,1,622.815,502.347Zm0-29.7a14.02,14.02,0,1,0,14.02,14.02A14.036,14.036,0,0,0,622.815,472.648Z" transform="translate(-607.136 -470.989)" fill="url(#linear-gradient-111)"/>
        </g>
      </g>
      <g id="Group_57" data-name="Group 57" transform="translate(22.117 14.832)">
        <path id="Path_166" data-name="Path 166" d="M610.732,462.6a.249.249,0,0,1-.162-.438,23.045,23.045,0,0,1,15.007-5.556.249.249,0,0,1,0,.5,22.546,22.546,0,0,0-14.683,5.435A.247.247,0,0,1,610.732,462.6Z" transform="translate(-610.483 -456.605)" fill="#fff"/>
      </g>
      <g id="Group_58" data-name="Group 58" transform="translate(14.165 25.629)">
        <path id="Path_167" data-name="Path 167" d="M590.927,495.995a.249.249,0,0,1-.249-.249,22.989,22.989,0,0,1,3.448-12.131.249.249,0,1,1,.423.262,22.5,22.5,0,0,0-3.373,11.869A.249.249,0,0,1,590.927,495.995Z" transform="translate(-590.678 -483.498)" fill="#fff"/>
      </g>
    </g>
    <g id="Group_60" data-name="Group 60" transform="translate(578.576 169.056)" opacity="0.6">
      <path id="Path_168" data-name="Path 168" d="M1214.079,434.623c3.286-15.6,11.463-10.245,25.156-15.043s9.683-21.914,18.18-27.195c11.329-7.041,21.731-.505,28.779,8.735,11.709,15.353,19.721,2.867,33.718,9.09,8.019,3.564,4.6,8.558,15.445,10.569,7.579,1.4,15.783-1.9,23.253.119,5.532,1.5,9.545,4.124,10.769,9.483q-2.343,1.1-4.846,2c-20.913,7.539-49.443,5.021-70.581,6.133C1286.748,438.892,1211.749,445.677,1214.079,434.623Z" transform="translate(-1214.026 -376.826)" fill="#fff"/>
      <path id="Path_169" data-name="Path 169" d="M1624.119,363.352a13.79,13.79,0,0,1,14.206-4.88c5.725,1.432,8.961,6.9,14.288,9.091,9.3,3.817,22.151-3.725,29.211,6.116,8.635,12.036,15.307,3.009,15.307,11.176s-59.659,2.149-89.1,2.579c-4.253.062-22.717-.248-14.768-9.075,2.468-2.741,5.99-3.2,9.273-3.842,4.281-.836,14.459-1.3,17.559-4.626,1.668-1.792,2.311-4.368,3.818-6.286C1623.984,363.52,1624.051,363.435,1624.119,363.352Z" transform="translate(-1439.834 -358.052)" fill="#fff"/>
    </g>
    <g id="Group_63" data-name="Group 63" transform="translate(370.2 457.595)">
      <path id="Path_170" data-name="Path 170" d="M756.642,1106.693s-7.21,2.4-11.88,12.7c-1.277,2.816-8.211,3.316-8.926,9.093a6.63,6.63,0,0,1-5.547,5.827c-7.4,1.134-18.8,4.976-20.626,17.822-1.392,9.8,3.606,13.523,8.852,14.81a7.43,7.43,0,0,1,5.634,8.583c-.748,3.731.367,8.044,6.831,11.455,14.485,7.643,28.95-18.107,28.95-18.107l2.965-44.961Z" transform="translate(-703.637 -1094.667)" fill="url(#linear-gradient-121)"/>
      <path id="Path_171" data-name="Path 171" d="M884.085,1103.218s-18.043,28.54-39.5,34.052c0,0,4.181,11.907,7.408,13.271,0,0,26.4-22.025,33.18-43.267Z" transform="translate(-784.533 -1092.587)" fill="url(#linear-gradient-122)"/>
      <path id="Path_172" data-name="Path 172" d="M712.662,1555.139l-.585,4.807a1.986,1.986,0,0,1-1.742,1.738,30.766,30.766,0,0,1-6.434.1,1.7,1.7,0,0,1-1.428-2.206,17.5,17.5,0,0,1,3.225-6.281h5.333A1.643,1.643,0,0,1,712.662,1555.139Z" transform="translate(-699.428 -1361.969)" fill="url(#linear-gradient-123)"/>
      <path id="Path_173" data-name="Path 173" d="M816.667,1417.614l.9,5.295s-3.014,30.533-3.551,42.745a9.571,9.571,0,0,0,1.416,5.439l5.241,8.511-13.321-7.861-.265-1.625,2.181-3-2.857-34.2a10.5,10.5,0,0,1,1.194-5.8l2.755-5.176Z" transform="translate(-761.664 -1280.76)" fill="url(#linear-gradient-124)"/>
      <path id="Path_174" data-name="Path 174" d="M821.05,1556.249H816.8a2.56,2.56,0,0,1-2.031-1c-1.325-1.722-4.071-5.082-5.384-5.169-1.767-.118-1.541,6.165-1.541,6.165h-.99l-1.255-7.808a4.622,4.622,0,0,1,2.425-4.831h0s.4,2.988,2.595,4.309,8.914,6.055,8.914,6.055a6.069,6.069,0,0,1,1.728.046A1.124,1.124,0,0,1,821.05,1556.249Z" transform="translate(-761.162 -1356.171)" fill="url(#linear-gradient-125)"/>
      <path id="Path_175" data-name="Path 175" d="M738.97,1420.6s-17.659,33.5-20.466,41.144a73.452,73.452,0,0,0-3.828,14.632c-.059.944-1.233,1.849-4.47,1.849a3.105,3.105,0,0,1-2.889-1.318,1.888,1.888,0,0,1-.071-1.828c1.021-2.067,4.263-8.674,5.464-11.67,1.433-3.578,4.517-19.79,6.208-25.427s3.6-11.751,10.966-17.384C729.884,1420.6,734.939,1415.646,738.97,1420.6Z" transform="translate(-702.212 -1281.228)" fill="url(#linear-gradient-126)"/>
      <path id="Path_176" data-name="Path 176" d="M803.938,1226.958c4.555-19.3-6.985-30.219-6.985-30.219,7.281-6.989,20.547-10.17,20.547-10.17s12.659,9.255,11.158,16.5c-.88,4.246-8.9,25.431-8.9,25.431A17.616,17.616,0,0,1,803.938,1226.958Z" transform="translate(-756.024 -1142.474)" fill="url(#linear-gradient-127)"/>
      <path id="Path_177" data-name="Path 177" d="M773.238,1296.724c1.854-5.585,10.1-9.556,10.1-9.556a17.616,17.616,0,0,0,15.822,1.541,31.739,31.739,0,0,1,.515,12.262c-1.148,5.906-8.348,43.863-8.348,43.863-11.345,2.3-28.793-2.312-28.793-2.312C769.761,1329.692,771.384,1302.308,773.238,1296.724Z" transform="translate(-735.424 -1202.685)" fill="url(#linear-gradient-128)"/>
      <path id="Path_178" data-name="Path 178" d="M821.912,1152.434l-3.7,16.635c-.354,1.465.981,1.225,2.463.946,2.426-.458,5.553-1.4,6.6-3.287a1.8,1.8,0,0,0,.19-.627l1.591-11.535a2.072,2.072,0,0,0-1.213-2.178l-3.07-1.361A2.073,2.073,0,0,0,821.912,1152.434Z" transform="translate(-768.711 -1121.094)" fill="url(#linear-gradient-129)"/>
      <g id="Group_61" data-name="Group 61" transform="translate(45.868 9.762)">
        <path id="Path_179" data-name="Path 179" d="M830.787,1116.143s3.943,2.669,5.637,9.465-1.059,9.235-3.881,9.086-6.914-1.022-10.46-5.9S825.62,1112.882,830.787,1116.143Z" transform="translate(-816.36 -1109.73)" fill="url(#linear-gradient-130)"/>
        <path id="Path_180" data-name="Path 180" d="M818.551,1117.378s-1.445-9.739,6.641-8.25l1.635,1.7s3.958-4.457-.422-7.826-10.458-2.507-13.82,3.627-4.583,10.444-1.764,14.255,4.938.543,4.938.543-1.292-3.3-.22-4.715,2.456.823,2.456.823Z" transform="translate(-809.253 -1101.053)" fill="url(#linear-gradient-131)"/>
      </g>
      <g id="Group_62" data-name="Group 62" transform="translate(96.597)">
        <path id="Path_181" data-name="Path 181" d="M938.44,1093.245c.055.589-2.135,1-2.831-1.514.192-1.09.532-5.861,1.367-6.6,4.45-3.949,12.384-8.39,12.384-8.39a1.623,1.623,0,0,1-.276,2.247l-3.961,2.673a16,16,0,0,1,1.084,4.141,4.636,4.636,0,0,1-1.17,3.239c-.789.9-1.85,2.064-2.806,2.946A4.578,4.578,0,0,1,938.44,1093.245Z" transform="translate(-935.609 -1076.739)" fill="url(#linear-gradient-132)"/>
        <path id="Path_182" data-name="Path 182" d="M944.186,1100.894l-.556-.228c.08-.2,1.98-4.81,2.9-5.767a1.419,1.419,0,0,0,.51-.949.7.7,0,0,0-.225-.44l-3.23,1.727-1.419,2.223-.506-.323,1.5-2.355,3.732-1.995.155.127a1.4,1.4,0,0,1,.589,1,1.925,1.925,0,0,1-.676,1.4C946.264,1096.041,944.722,1099.588,944.186,1100.894Z" transform="translate(-939.228 -1086.344)" fill="url(#linear-gradient-133)"/>
      </g>
      <path id="Path_183" data-name="Path 183" d="M735.936,1211.4s-20.5,42.095-27.927,45.775a83.536,83.536,0,0,0-12.152,2.183,1.206,1.206,0,0,0,.048,2.318c3.213.876,8.536,1.609,13.414-1.039,0,0-2.62,3.928-1.092,5.458,0,0,3.494-4.148,4.8-5.458,1.154-1.154,22.149-24.043,30.976-37.848.713-1.115.218-4.43-.277-5.658C742.591,1214.3,740.061,1209.793,735.936,1211.4Z" transform="translate(-695.007 -1157.134)" fill="url(#linear-gradient-133)"/>
      <path id="Path_184" data-name="Path 184" d="M767.881,1107.821a14.958,14.958,0,0,0-4.695,2.761,19.972,19.972,0,0,0-6.11,8.892,19.766,19.766,0,0,0-.685,2.636,25.474,25.474,0,0,1-.593,2.721,6.006,6.006,0,0,1-1.394,2.492,8.989,8.989,0,0,1-2.3,1.652c-.821.44-1.658.821-2.444,1.265a9.995,9.995,0,0,0-4.828,6.159c-.25.87-.44,1.779-.77,2.673a5.46,5.46,0,0,1-1.6,2.4,6.924,6.924,0,0,1-2.567,1.278,25.878,25.878,0,0,1-2.732.57,22.583,22.583,0,0,0-5.234,1.465,15.543,15.543,0,0,0-7.99,6.985,9.039,9.039,0,0,0-.96,5.206,7.788,7.788,0,0,0,2.347,4.71,5.834,5.834,0,0,0,2.3,1.324,6.116,6.116,0,0,0,2.666.125,5.281,5.281,0,0,0,4.131-3.115l.141.053a5.488,5.488,0,0,1-4.224,3.325,6.409,6.409,0,0,1-2.8-.074,6.185,6.185,0,0,1-2.468-1.353,8.162,8.162,0,0,1-2.539-4.933,9.523,9.523,0,0,1,.943-5.5,13.6,13.6,0,0,1,3.462-4.386,18.647,18.647,0,0,1,4.762-2.913,23.16,23.16,0,0,1,5.359-1.525,25.483,25.483,0,0,0,2.663-.564,6.312,6.312,0,0,0,2.333-1.166,4.916,4.916,0,0,0,1.423-2.134c.312-.832.506-1.728.765-2.624a10.591,10.591,0,0,1,5.136-6.5c.818-.457,1.659-.835,2.46-1.261a8.462,8.462,0,0,0,2.169-1.535,5.478,5.478,0,0,0,1.3-2.263,25.339,25.339,0,0,0,.612-2.659,20.284,20.284,0,0,1,.734-2.689,19.691,19.691,0,0,1,6.375-8.954,15.161,15.161,0,0,1,4.822-2.694Z" transform="translate(-711.424 -1095.256)" fill="#fff" opacity="0.44"/>
      <path id="Path_185" data-name="Path 185" d="M762.859,1139.4a26.4,26.4,0,0,1-.343,3.554,9.9,9.9,0,0,1-1.2,3.411,6.821,6.821,0,0,1-1.158,1.432,12.124,12.124,0,0,1-1.432,1.123,28.163,28.163,0,0,0-2.837,2.078,10.432,10.432,0,0,0-3.686,5.637c-.528,2.228-.383,4.7-1.376,7.036a7.58,7.58,0,0,1-2.323,2.913,11.925,11.925,0,0,1-3.229,1.743,57.061,57.061,0,0,1-6.96,1.639,11.934,11.934,0,0,0-6.121,3.043,4.643,4.643,0,0,0-1.473,2.98,7.533,7.533,0,0,0,1.037,3.293l-.133.071a7.358,7.358,0,0,1-1.249-3.363,3.868,3.868,0,0,1,.417-1.8,6.975,6.975,0,0,1,1.026-1.522,12.482,12.482,0,0,1,6.326-3.391,70.032,70.032,0,0,0,6.846-1.711,8.427,8.427,0,0,0,5.032-4.247c.918-2.061.823-4.495,1.389-6.868a9.492,9.492,0,0,1,1.508-3.357,12.881,12.881,0,0,1,2.515-2.637c1.828-1.593,4.233-2.389,5.454-4.36a9.492,9.492,0,0,0,1.288-3.208,32.412,32.412,0,0,0,.529-3.5Z" transform="translate(-716.177 -1114.234)" fill="#fff" opacity="0.44"/>
    </g>
  </g>
</svg>
