<svg xmlns="http://www.w3.org/2000/svg" width="299.52" height="208.339" viewBox="0 0 299.52 208.339">
  <g id="Group_607" data-name="Group 607" transform="translate(-46.174 -21.652)">
    <g id="Group_597" data-name="Group 597">
      <g id="Group_592" data-name="Group 592">
        <g id="Group_590" data-name="Group 590">
          <path id="Path_537" data-name="Path 537" d="M149.276,229.225,127.8,85.3H96.44l21.472,143.925" fill="none" stroke="#5c2b61" stroke-miterlimit="10" stroke-width="1.534"/>
          <line id="Line_36" data-name="Line 36" x1="31.364" transform="translate(98.271 97.57)" fill="none" stroke="#5c2b61" stroke-miterlimit="10" stroke-width="1.534"/>
          <line id="Line_37" data-name="Line 37" x1="31.364" transform="translate(100.102 109.839)" fill="none" stroke="#5c2b61" stroke-miterlimit="10" stroke-width="1.534"/>
          <line id="Line_38" data-name="Line 38" x1="30.766" transform="translate(102.576 122.416)" fill="none" stroke="#5c2b61" stroke-miterlimit="10" stroke-width="1.534"/>
          <line id="Line_39" data-name="Line 39" x1="31.364" transform="translate(103.854 134.992)" fill="none" stroke="#5c2b61" stroke-miterlimit="10" stroke-width="1.534"/>
          <line id="Line_40" data-name="Line 40" x1="31.364" transform="translate(105.73 147.569)" fill="none" stroke="#5c2b61" stroke-miterlimit="10" stroke-width="1.534"/>
          <line id="Line_41" data-name="Line 41" x1="31.063" transform="translate(107.607 160.145)" fill="none" stroke="#5c2b61" stroke-miterlimit="10" stroke-width="1.534"/>
          <line id="Line_42" data-name="Line 42" x1="31.364" transform="translate(109.483 172.722)" fill="none" stroke="#5c2b61" stroke-miterlimit="10" stroke-width="1.534"/>
          <line id="Line_43" data-name="Line 43" x1="31.364" transform="translate(111.359 185.298)" fill="none" stroke="#5c2b61" stroke-miterlimit="10" stroke-width="1.534"/>
          <line id="Line_44" data-name="Line 44" x1="31.364" transform="translate(113.235 197.875)" fill="none" stroke="#5c2b61" stroke-miterlimit="10" stroke-width="1.534"/>
          <line id="Line_45" data-name="Line 45" x1="31.364" transform="translate(115.112 210.451)" fill="none" stroke="#5c2b61" stroke-miterlimit="10" stroke-width="1.534"/>
        </g>
        <g id="Group_591" data-name="Group 591">
          <path id="Path_538" data-name="Path 538" d="M57.153,229.225,78.625,85.3h31.364L88.517,229.225" fill="none" stroke="#c4c6ff" stroke-miterlimit="10" stroke-width="1.534"/>
          <line id="Line_46" data-name="Line 46" x2="31.364" transform="translate(76.795 97.57)" fill="none" stroke="#c4c6ff" stroke-miterlimit="10" stroke-width="1.534"/>
          <line id="Line_47" data-name="Line 47" x2="31.364" transform="translate(74.964 109.839)" fill="none" stroke="#c4c6ff" stroke-miterlimit="10" stroke-width="1.534"/>
          <line id="Line_48" data-name="Line 48" x2="30.766" transform="translate(73.088 122.416)" fill="none" stroke="#c4c6ff" stroke-miterlimit="10" stroke-width="1.534"/>
          <line id="Line_49" data-name="Line 49" x2="31.364" transform="translate(71.211 134.992)" fill="none" stroke="#c4c6ff" stroke-miterlimit="10" stroke-width="1.534"/>
          <line id="Line_50" data-name="Line 50" x2="31.364" transform="translate(69.335 147.569)" fill="none" stroke="#c4c6ff" stroke-miterlimit="10" stroke-width="1.534"/>
          <line id="Line_51" data-name="Line 51" x2="31.062" transform="translate(67.76 160.145)" fill="none" stroke="#c4c6ff" stroke-miterlimit="10" stroke-width="1.534"/>
          <line id="Line_52" data-name="Line 52" x2="31.364" transform="translate(65.583 172.722)" fill="none" stroke="#c4c6ff" stroke-miterlimit="10" stroke-width="1.534"/>
          <line id="Line_53" data-name="Line 53" x2="31.364" transform="translate(63.706 185.298)" fill="none" stroke="#c4c6ff" stroke-miterlimit="10" stroke-width="1.534"/>
          <line id="Line_54" data-name="Line 54" x2="31.364" transform="translate(61.83 197.875)" fill="none" stroke="#c4c6ff" stroke-miterlimit="10" stroke-width="1.534"/>
          <line id="Line_55" data-name="Line 55" x2="31.364" transform="translate(59.954 210.451)" fill="none" stroke="#c4c6ff" stroke-miterlimit="10" stroke-width="1.534"/>
        </g>
      </g>
      <g id="Group_596" data-name="Group 596">
        <g id="Group_594" data-name="Group 594">
          <rect id="Rectangle_181" data-name="Rectangle 181" width="92.483" height="31.277" rx="5" transform="translate(165.526 60.087) rotate(180)" fill="#c4c6ff"/>
          <rect id="Rectangle_182" data-name="Rectangle 182" width="64.953" height="4.754" transform="translate(151.761 60.087) rotate(180)" fill="#5c2b61"/>
          <rect id="Rectangle_183" data-name="Rectangle 183" width="61.349" height="3.221" transform="translate(88.61 58.093)" fill="#c4c6ff"/>
          <path id="Path_539" data-name="Path 539" d="M83.391,28.81V49.678h71.787V28.81" fill="none" stroke="#5c2b61" stroke-miterlimit="10" stroke-width="0.613"/>
          <g id="Group_593" data-name="Group 593">
            <rect id="Rectangle_184" data-name="Rectangle 184" width="58.818" height="0.92" transform="translate(148.694 33.113) rotate(180)" fill="#5c2b61"/>
            <rect id="Rectangle_185" data-name="Rectangle 185" width="58.818" height="0.92" transform="translate(148.694 34.954) rotate(180)" fill="#5c2b61"/>
            <rect id="Rectangle_186" data-name="Rectangle 186" width="58.818" height="0.92" transform="translate(148.694 37.101) rotate(180)" fill="#5c2b61"/>
          </g>
          <path id="Path_540" data-name="Path 540" d="M149.959,46.311a1.234,1.234,0,1,0,1.234-1.235A1.233,1.233,0,0,0,149.959,46.311Z" fill="#ff565e"/>
        </g>
        <g id="Group_595" data-name="Group 595">
          <path id="Path_541" data-name="Path 541" d="M84.612,41.4,60.306,48.385s-4.249,2.99,0,7.868l9.63,6.371,2.685-5.48-2.685-2.779,14.676-2.351a5.482,5.482,0,0,0,4.208-5.045C89.186,43.752,86.189,40.951,84.612,41.4Z" fill="#1d9de2"/>
          <path id="Path_542" data-name="Path 542" d="M60.527,56.4l9.409-2.035,2.684,2.779-2.684,5.48Z" fill="#5c2b61"/>
          <path id="Path_543" data-name="Path 543" d="M89.289,36.751V29.243a5.995,5.995,0,1,1,11.99,0V31.2l2.054,3.9h-2.054V36.71a4.746,4.746,0,0,1-4.746,4.746H94.777l-2.79,4.833-5.609-4.606Z" fill="#fff"/>
          <path id="Path_544" data-name="Path 544" d="M64.651,151.623s-1.185-20.7,5.222-30.069c3.41-4.986-4.394-23.643-1.259-44.391l20.472,5.621c-.614,6.279-5.049,47.36-18.114,66.847a16.861,16.861,0,0,0-2.224,4.848l-.065.231,2.852,1.621,3.487.525a1.706,1.706,0,0,1,1.481,1.692v.9H64.453Z" fill="#5c2b61"/>
          <path id="Path_545" data-name="Path 545" d="M97.352,28.5s5.444-.548,6.211-3.757-3.3-3.911-4.754-2.147c0,0-6.231-2.148-9.663,1.61s-1.687,8.623-.383,10.561c0,0-1.479,1.6.334,2.307s4.609-2.618,4.285-4.33C93.382,32.745,97.889,32.719,97.352,28.5Z" fill="#5c2b61"/>
          <path id="Path_546" data-name="Path 546" d="M91.5,33.339c.206,1.333,1.143,2.295,2.092,2.148s1.551-1.347,1.344-2.68-1.143-2.3-2.092-2.148S91.3,32.006,91.5,33.339Z" fill="#fff"/>
          <path id="Path_547" data-name="Path 547" d="M94.777,41.456a4.608,4.608,0,0,1-2.552-3.38l-.238,8.213Z" fill="#c4c6ff"/>
          <path id="Path_548" data-name="Path 548" d="M122.937,63.008s2.086-4.059,4.167-4.057c0,0,.561.346-1.328,2.686a10.17,10.17,0,0,1,5.338-1.355s2.053,4.517-4.722,6.4l-2.618.681Z" fill="#fff"/>
          <path id="Path_549" data-name="Path 549" d="M83.566,41.608a2.607,2.607,0,0,1,3.012.226l8.3,6.846a4.5,4.5,0,0,1,1.148,1.432l7.842,14.432,19.221-1.819,1.5,4.564-22.926,6.368a5.483,5.483,0,0,1-6.3-2.667l-3.539-6.531c-1.347,6.608-2.438,14.075-2,19.556L68.614,78.39S65.82,52.413,83.566,41.608Z" fill="#1d9de2"/>
          <path id="Path_550" data-name="Path 550" d="M72.953,53.4h0c.179-.357.367-.712.56-1.066l.128-.233c.075-.134.151-.269.228-.4.05-.086.1-.172.151-.258.076-.13.151-.259.229-.387h0a27.91,27.91,0,0,1,7.869-8.5,90.959,90.959,0,0,0-6.6,8.873l6.73,2,10.4-6.6,1.7,1.4L85.08,55.262l6.214,11.582.034.2c-1.1,5.911-1.879,12.2-1.5,16.973L68.614,78.39S67.172,64.966,72.953,53.4Z" fill="#ff565e"/>
          <path id="Path_551" data-name="Path 551" d="M88.277,57.566l3.554,6.893a100.232,100.232,0,0,0-2.045,14.786C88.018,70.926,88.277,57.566,88.277,57.566Z" fill="#5c2b61"/>
          <path id="Path_552" data-name="Path 552" d="M68.614,78.39l21.217,5.625s24.993,13.915,21.144,25.9-14.644,26.12-14.644,26.12l3.015,3.1,4.088,1.886a2.18,2.18,0,0,1,1.214,2.6l-.322,1.107L89.1,140.313l2.733-7.3L96.7,109.18S68.885,103.555,68.614,78.39Z" fill="#ff565e"/>
          <path id="Path_553" data-name="Path 553" d="M104.326,144.738,89.1,140.313l2.2-5.887,5.029,1.614,3.015,3.1,4.088,1.886a2.18,2.18,0,0,1,1.214,2.6Z" fill="#5c2b61"/>
          <rect id="Rectangle_187" data-name="Rectangle 187" width="2.352" height="8.589" transform="matrix(-0.751, -0.66, 0.66, -0.751, 82.135, 89.149)" fill="#1d9de2"/>
          <path id="Path_554" data-name="Path 554" d="M96.7,109.18h5.79l-6.384,2.905Z" fill="#5c2b61"/>
        </g>
      </g>
    </g>
    <g id="Group_606" data-name="Group 606">
      <g id="Group_599" data-name="Group 599">
        <path id="Rectangle_188" data-name="Rectangle 188" d="M0,0H5.337a10,10,0,0,1,10,10V20.674a10,10,0,0,1-10,10H0a0,0,0,0,1,0,0V0A0,0,0,0,1,0,0Z" transform="translate(270.254 137.921)" fill="#5c2b61"/>
        <rect id="Rectangle_189" data-name="Rectangle 189" width="12.276" height="7.055" transform="translate(147.665 177.184)" fill="#5c2b61"/>
        <rect id="Rectangle_190" data-name="Rectangle 190" width="12.276" height="7.055" transform="translate(255.333 177.184)" fill="#5c2b61"/>
        <rect id="Rectangle_191" data-name="Rectangle 191" width="138.794" height="99.691" rx="5" transform="translate(138.463 80.085)" fill="#c4c6ff"/>
        <rect id="Rectangle_192" data-name="Rectangle 192" width="75.151" height="71.924" rx="5" transform="translate(222.656 96.343) rotate(90)" fill="none" stroke="#5c2b61" stroke-miterlimit="10" stroke-width="0.613"/>
        <circle id="Ellipse_6" data-name="Ellipse 6" cx="29.936" cy="29.936" r="29.936" transform="translate(156.759 102.658)" fill="#5c2b61"/>
        <path id="Path_555" data-name="Path 555" d="M154.606,102.658a2.153,2.153,0,1,1,2.153,2.154A2.153,2.153,0,0,1,154.606,102.658Z" fill="#5c2b61"/>
        <path id="Path_556" data-name="Path 556" d="M213.654,102.658a2.153,2.153,0,1,1,2.153,2.154A2.153,2.153,0,0,1,213.654,102.658Z" fill="#5c2b61"/>
        <path id="Path_557" data-name="Path 557" d="M154.606,164.683a2.153,2.153,0,1,1,2.153,2.153A2.153,2.153,0,0,1,154.606,164.683Z" fill="#5c2b61"/>
        <path id="Path_558" data-name="Path 558" d="M213.654,164.683a2.153,2.153,0,1,1,2.153,2.153A2.153,2.153,0,0,1,213.654,164.683Z" fill="#5c2b61"/>
        <g id="Group_598" data-name="Group 598">
          <path id="Path_559" data-name="Path 559" d="M187.768,108.111A25.564,25.564,0,0,0,178.6,109.8c-4.7,1.8-7.935,8.551-2.774,11.532h0a19.091,19.091,0,0,1,10.2,10.287h0a1.38,1.38,0,0,0,2.353.334l7.845-9.819C204,108.535,187.768,108.111,187.768,108.111Z" fill="#fff"/>
          <path id="Path_560" data-name="Path 560" d="M167.754,149.773a25.576,25.576,0,0,0,7.677,5.289c4.6,2.051,11.657-.435,10.116-6.193h0a19.088,19.088,0,0,1,.06-14.488h0a1.38,1.38,0,0,0-1.428-1.9l-12.491,1.4C156.578,138,167.754,149.773,167.754,149.773Z" fill="#fff"/>
          <path id="Path_561" data-name="Path 561" d="M209.636,147.139a25.546,25.546,0,0,0,3.545-8.622c1.032-4.929-2.89-11.3-8.192-8.577h0a19.089,19.089,0,0,1-14.173,3.006h0a1.38,1.38,0,0,0-1.555,1.8l4.006,11.913C200.491,160.553,209.636,147.139,209.636,147.139Z" fill="#fff"/>
        </g>
        <line id="Line_56" data-name="Line 56" y2="62.805" transform="translate(162.281 101.878)" fill="none" stroke="#c4c6ff" stroke-miterlimit="10" stroke-width="1.894"/>
        <line id="Line_57" data-name="Line 57" y2="62.805" transform="translate(168.415 101.878)" fill="none" stroke="#c4c6ff" stroke-miterlimit="10" stroke-width="1.894"/>
        <line id="Line_58" data-name="Line 58" y2="62.805" transform="translate(174.55 101.878)" fill="none" stroke="#c4c6ff" stroke-miterlimit="10" stroke-width="1.894"/>
        <line id="Line_59" data-name="Line 59" y2="62.805" transform="translate(180.685 101.878)" fill="none" stroke="#c4c6ff" stroke-miterlimit="10" stroke-width="1.894"/>
        <line id="Line_60" data-name="Line 60" y2="62.805" transform="translate(186.82 101.878)" fill="none" stroke="#c4c6ff" stroke-miterlimit="10" stroke-width="1.894"/>
        <line id="Line_61" data-name="Line 61" y2="62.805" transform="translate(192.955 101.878)" fill="none" stroke="#c4c6ff" stroke-miterlimit="10" stroke-width="1.894"/>
        <line id="Line_62" data-name="Line 62" y2="62.805" transform="translate(199.09 101.878)" fill="none" stroke="#c4c6ff" stroke-miterlimit="10" stroke-width="1.894"/>
        <line id="Line_63" data-name="Line 63" y2="62.805" transform="translate(205.225 101.878)" fill="none" stroke="#c4c6ff" stroke-miterlimit="10" stroke-width="1.894"/>
        <line id="Line_64" data-name="Line 64" y2="62.805" transform="translate(211.36 101.878)" fill="none" stroke="#c4c6ff" stroke-miterlimit="10" stroke-width="1.894"/>
        <line id="Line_65" data-name="Line 65" x2="138.794" transform="translate(138.463 88.702)" fill="none" stroke="#5c2b61" stroke-miterlimit="10" stroke-width="0.613"/>
        <path id="Path_562" data-name="Path 562" d="M249.852,110.616a1.888,1.888,0,1,1-1.888-1.888A1.888,1.888,0,0,1,249.852,110.616Z" fill="#fff"/>
        <path id="Path_563" data-name="Path 563" d="M249.852,104.546a1.888,1.888,0,1,1-1.888-1.888A1.888,1.888,0,0,1,249.852,104.546Z" fill="#ff565e"/>
      </g>
      <g id="Group_605" data-name="Group 605">
        <path id="Path_564" data-name="Path 564" d="M327.027,185.841l-.23-18.8a49.417,49.417,0,0,0,0-21.012s5.062-34.355,1.994-40.183l-11.532-4.706h-6.291s-8.343,2.722-9.191,3.012l-14.344,4.9,3.669,9.111s5.417-1.256,9.9-2.314a59,59,0,0,0,1.414,8.553,49.036,49.036,0,0,1,.94,12.512h0l-7.479,43.14,3.348,43.174c-2.137.791-10.213,2.922-10.3,5.058h17.433l-1.227-5.058c.722-2.805,8.372-30.349,4.373-37.386l-.892-2.721s1.99-4.321,4.551-10.278c.453,6.066.942,12.744.942,12.744.331,2.467-.946,13.91-.464,17.779.6,4.8,5.548,18.794,6.6,21.741a29.458,29.458,0,0,0-2.647,1.865.91.91,0,0,0,.563,1.625h8.606a.91.91,0,0,0,.739-1.441,12.22,12.22,0,0,0-2.211-2.432C326.2,220.96,330.673,201.14,327.027,185.841Z" fill="#ff565e"/>
        <path id="Path_565" data-name="Path 565" d="M320.237,225.106a29.458,29.458,0,0,0-2.647,1.865.91.91,0,0,0,.563,1.625h8.606a.91.91,0,0,0,.739-1.441,12.22,12.22,0,0,0-2.211-2.432A4,4,0,0,0,320.237,225.106Z" fill="#5c2b61"/>
        <path id="Path_566" data-name="Path 566" d="M299.194,222.9h0l.025.328c-2.137.791-10.213,2.922-10.3,5.058h17.433l-1.206-4.972Z" fill="#5c2b61"/>
        <g id="Group_604" data-name="Group 604">
          <g id="Group_600" data-name="Group 600">
            <path id="Path_567" data-name="Path 567" d="M303,104.48l-15.35,4.775L274.456,97.9l-2.309,2.16s10.724,16.4,14.124,18.205l17.915-4.464s5.464-.765,5.854-4.832C310.611,103.009,303,104.48,303,104.48Z" fill="#fff"/>
            <path id="Path_568" data-name="Path 568" d="M272.147,100.059s-2.178-1.329-1.334-3.354a8.813,8.813,0,0,0,.894-4.125l.571.112a.927.927,0,0,1,.723.692l.091,2.49,3.479-1.556.686-2.224a11.517,11.517,0,0,1,.771,3.99c-.123.968-1.877,2.464-1.877,2.464l.605,1.332-3.283,2.172Z" fill="#1d9de2"/>
          </g>
          <g id="Group_601" data-name="Group 601">
            <path id="Path_569" data-name="Path 569" d="M317.259,101.137h-6.291s-8.343,2.722-9.191,3.012l-14.344,4.9,3.669,9.111c.7-.164,9.217-2.154,9.9-2.314.164,1.618.377,3.278.648,4.88l1.945-4.059h17.485s.549,6.6,7.769,12.5c.942-9.6,1.538-20.3-.053-23.323Z" fill="#1d9de2"/>
            <path id="Path_570" data-name="Path 570" d="M322.135,103.127l-3.108,13.542h2.048s.013.15.058.422l3.017-13.142Z" fill="#ff565e"/>
            <path id="Path_571" data-name="Path 571" d="M304.681,103.192l-2.131.7.351,14.148h.032l.657-1.371h1.424Z" fill="#ff565e"/>
            <path id="Path_572" data-name="Path 572" d="M301,115.848l-.426-6.064-3.064,6.885Z" fill="#5c2b61"/>
          </g>
          <g id="Group_602" data-name="Group 602">
            <path id="Path_573" data-name="Path 573" d="M318.035,91.473a1.564,1.564,0,1,0,2.233-.941A1.732,1.732,0,0,0,318.035,91.473Z" fill="#c4c6ff"/>
            <path id="Path_574" data-name="Path 574" d="M310.594,82.46c-2.3.56-2.934,2.76-2.934,4.737v4.539a4.7,4.7,0,0,0,4.688,4.688h3.245a4.7,4.7,0,0,0,4.688-4.688s-.043-4.064-.088-5.434C320.1,84.247,319.183,81.384,310.594,82.46Z" fill="#5c2b61"/>
            <path id="Path_575" data-name="Path 575" d="M314.96,105h-2.291a3.172,3.172,0,0,1-3.172-3.172l.446-7.061h8.636l-.447,7.061A3.172,3.172,0,0,1,314.96,105Z" fill="#fff"/>
            <path id="Path_576" data-name="Path 576" d="M309.612,100a4.406,4.406,0,0,0,3.509,1.668h1.74a4.811,4.811,0,0,0,3.357-1.205l.361-5.7h-8.636Z" fill="#c4c6ff"/>
            <path id="Path_577" data-name="Path 577" d="M315.9,87.569a7.627,7.627,0,0,1-4.253-1.165L309,92.778l-.3-2.3a1.38,1.38,0,0,0-1.133.051,1.732,1.732,0,0,0-.474,2.377A1.934,1.934,0,0,0,308.7,94v1.26a4.7,4.7,0,0,0,4.688,4.688h1.74a4.7,4.7,0,0,0,4.688-4.688v-6.9a4.628,4.628,0,0,0-.286-1.593A8.139,8.139,0,0,1,315.9,87.569Z" fill="#fff"/>
            <path id="Path_578" data-name="Path 578" d="M319.819,95.258V93.732s-3.508-1.739-9.683,0a5.261,5.261,0,0,1-.591-2.269L309,92.778l-.192-1.483h0L308.7,94l.025,1.74a4.7,4.7,0,0,0,4.663,4.208h1.741A4.7,4.7,0,0,0,319.819,95.258Z" fill="#5c2b61"/>
          </g>
          <path id="Path_579" data-name="Path 579" d="M324.756,110.575c-2.3,4.165,2.454,19.939,2.454,19.939a45.5,45.5,0,0,1-6.889,17.629l-3.771,3.516s-1.994,3.444-1.3,4.185,1.484-.5,1.484-.5l4.185,1.071,1.031-1.621a8.232,8.232,0,0,0,2.262-4.435c7.458-6.236,10.217-12.613,11.348-16.149a6.006,6.006,0,0,0,.2-2.836l-1.657-13.809C333.011,108.454,327.809,105.05,324.756,110.575Z" fill="#fff"/>
          <path id="Path_580" data-name="Path 580" d="M315.254,155.844c.7.741,1.484-.5,1.484-.5l4.185,1.071,1.031-1.621a8.232,8.232,0,0,0,2.262-4.435l-3.895-2.218-3.771,3.516S314.556,155.1,315.254,155.844Z" fill="#1d9de2"/>
          <g id="Group_603" data-name="Group 603">
            <path id="Path_581" data-name="Path 581" d="M325.479,129.615h10.367s.489-22.915-7.722-24.044C318.579,104.258,325.479,129.615,325.479,129.615Z" fill="#1d9de2"/>
          </g>
        </g>
        <path id="Path_582" data-name="Path 582" d="M313.156,172.842l-3.085-15.335,1.211,19.642Z" fill="#5c2b61"/>
        <rect id="Rectangle_193" data-name="Rectangle 193" width="12.688" height="3.528" transform="translate(305.891 124.379)" fill="#1d9de2"/>
      </g>
    </g>
    <line id="Line_66" data-name="Line 66" x2="299.52" transform="translate(46.174 229.225)" fill="none" stroke="#5c2b61" stroke-miterlimit="10" stroke-width="1.534"/>
  </g>
</svg>
