<svg xmlns="http://www.w3.org/2000/svg" width="287.283" height="283.701" viewBox="0 0 287.283 283.701">
  <defs>
    <style>
      .cls-1 {
        fill: #cedaff;
      }

      .cls-2 {
        fill: #ffeabf;
      }

      .cls-3 {
        fill: #f9c89b;
      }

      .cls-4 {
        fill: #fff;
      }

      .cls-5 {
        fill: #ff7f82;
      }

      .cls-6 {
        fill: #7194ff;
      }

      .cls-7 {
        fill: #4e74d1;
      }

      .cls-8 {
        fill: #a7baea;
      }

      .cls-9 {
        fill: #92aef4;
      }

      .cls-10 {
        fill: #c8ffd4;
      }

      .cls-11 {
        fill: #ff9627;
      }

      .cls-12 {
        fill: #ffdd4f;
      }

      .cls-13 {
        fill: #efc233;
      }

      .cls-14 {
        fill: #ffae9f;
      }

      .cls-15 {
        fill: #014373;
      }

      .cls-16 {
        fill: #3f62a8;
      }

      .cls-17 {
        fill: #d38b85;
      }

      .cls-18 {
        fill: #5a80e0;
      }

      .cls-19 {
        fill: #003556;
      }

      .cls-20 {
        fill: #ffe3af;
      }

      .cls-21 {
        fill: #d1656f;
      }

      .cls-22 {
        fill: #00385b;
      }

      .cls-23 {
        fill: #0c6296;
      }
    </style>
  </defs>
  <g id="Group_541" data-name="Group 541" transform="translate(-24.1 -46.299)">
    <g id="Group_539" data-name="Group 539" transform="translate(116.504 46.299)">
      <rect id="Rectangle_137" data-name="Rectangle 137" class="cls-1" width="180.104" height="210.903" rx="90.052" transform="translate(11.624 14.06)"/>
      <g id="Group_528" data-name="Group 528" transform="translate(118.749)">
        <rect id="Rectangle_138" data-name="Rectangle 138" class="cls-2" width="60.704" height="84.807" rx="10.707" transform="translate(0 4.91)"/>
        <rect id="Rectangle_139" data-name="Rectangle 139" class="cls-3" width="46.421" height="1.785" transform="translate(6.918 14.283)"/>
        <rect id="Rectangle_140" data-name="Rectangle 140" class="cls-3" width="46.421" height="1.785" transform="translate(6.918 19.416)"/>
        <rect id="Rectangle_141" data-name="Rectangle 141" class="cls-3" width="46.421" height="1.785" transform="translate(6.918 24.549)"/>
        <rect id="Rectangle_142" data-name="Rectangle 142" class="cls-3" width="46.421" height="1.785" transform="translate(6.918 29.683)"/>
        <rect id="Rectangle_143" data-name="Rectangle 143" class="cls-3" width="46.421" height="1.785" transform="translate(6.918 34.816)"/>
        <rect id="Rectangle_144" data-name="Rectangle 144" class="cls-3" width="46.421" height="1.785" transform="translate(6.918 39.949)"/>
        <rect id="Rectangle_145" data-name="Rectangle 145" class="cls-3" width="46.421" height="1.785" transform="translate(6.918 45.082)"/>
        <rect id="Rectangle_146" data-name="Rectangle 146" class="cls-3" width="46.421" height="1.785" transform="translate(6.918 50.215)"/>
        <rect id="Rectangle_147" data-name="Rectangle 147" class="cls-3" width="46.421" height="1.785" transform="translate(6.918 55.348)"/>
        <rect id="Rectangle_148" data-name="Rectangle 148" class="cls-3" width="46.421" height="1.785" transform="translate(6.918 60.481)"/>
        <rect id="Rectangle_149" data-name="Rectangle 149" class="cls-3" width="46.421" height="1.785" transform="translate(6.918 65.614)"/>
        <rect id="Rectangle_150" data-name="Rectangle 150" class="cls-3" width="46.421" height="1.785" transform="translate(6.918 70.747)"/>
        <path id="Path_378" data-name="Path 378" class="cls-4" d="M433.7,176.219h0a4.464,4.464,0,0,1-4.463-4.463h0a4.464,4.464,0,0,1,4.463-4.463h0a4.464,4.464,0,0,1,4.463,4.463h0A4.464,4.464,0,0,1,433.7,176.219Z" transform="translate(-387.057 -91.635)"/>
        <path id="Path_379" data-name="Path 379" class="cls-5" d="M387.349,58.909l-4.743-2.734L378.2,58.909V46.3h9.15Z" transform="translate(-367.933 -46.299)"/>
      </g>
      <g id="Group_529" data-name="Group 529" transform="translate(16.878 31.587)">
        <path id="Path_380" data-name="Path 380" class="cls-6" d="M277.838,136.712l-16.739-.057-2.822-23.772h21.356Z" transform="translate(-221.127 -102.835)"/>
        <rect id="Rectangle_151" data-name="Rectangle 151" class="cls-7" width="23.685" height="4.151" transform="translate(35.701 8.37)"/>
        <path id="Path_381" data-name="Path 381" class="cls-7" d="M409.258,201.7l-8.654,37.35H387.623l8.6-42.986Z" transform="translate(-269.593 -134.001)"/>
        <path id="Path_382" data-name="Path 382" class="cls-6" d="M402.339,186.5l21.635,12.526-2.277,4.783-20.326-11.33Z" transform="translate(-274.745 -130.419)"/>
        <path id="Path_383" data-name="Path 383" class="cls-8" d="M358.268,301.353a10.945,10.945,0,0,0,8.516-17.807,105.5,105.5,0,0,0-165.484,0,10.944,10.944,0,0,0,8.516,17.807Z" transform="translate(-198.867 -151.776)"/>
        <path id="Path_384" data-name="Path 384" class="cls-6" d="M354.429,148.686H343.156l-10.8,66.457H261.641l-11.635-66.5H237.386L295.918,104v.055Z" transform="translate(-213.3 -99.508)"/>
        <path id="Path_385" data-name="Path 385" class="cls-7" d="M354.964,141.2,294.677,96.855v-.042l-60.295,44.353,1.907,4.783,58.36-44.53,58.407,44.566Z" transform="translate(-212.174 -96.814)"/>
        <path id="Path_386" data-name="Path 386" class="cls-4" d="M337.859,210.937v37.779H303.191V210.937a17.334,17.334,0,1,1,34.668,0Z" transform="translate(-237.957 -133.08)"/>
        <path id="Path_387" data-name="Path 387" class="cls-6" d="M336.961,212V249.91H306.224V212a15.369,15.369,0,1,1,30.737,0Z" transform="translate(-239.093 -134.217)"/>
        <path id="Path_388" data-name="Path 388" class="cls-7" d="M240.664,202.244l8.654,37.35H262.3l-8.6-42.986Z" transform="translate(-214.528 -134.206)"/>
        <path id="Path_389" data-name="Path 389" class="cls-9" d="M350.251,152.191l-46.2-36.211-.014.065L257.873,152.22h54.162l-.006-.029Z" transform="translate(-220.976 -103.996)"/>
        <path id="Path_390" data-name="Path 390" class="cls-10" d="M272,264.746a8.128,8.128,0,0,0-11.486-7.4,8.129,8.129,0,0,0-16-.6,8.129,8.129,0,1,0-.253,16.055l19.546.08h.375l0-.008A8.128,8.128,0,0,0,272,264.746Z" transform="translate(-212.404 -154.335)"/>
        <path id="Path_391" data-name="Path 391" class="cls-10" d="M364.653,261.468a8.128,8.128,0,0,1,11.486-7.4,8.129,8.129,0,0,1,16-.6,8.129,8.129,0,1,1,.253,16.055l-19.545.08h-.376l0-.008A8.128,8.128,0,0,1,364.653,261.468Z" transform="translate(-260.986 -153.107)"/>
        <path id="Path_392" data-name="Path 392" class="cls-6" d="M247,187.047l-21.636,12.526,2.277,4.783,20.326-11.33Z" transform="translate(-208.796 -130.624)"/>
        <circle id="Ellipse_2" data-name="Ellipse 2" class="cls-4" cx="8.199" cy="8.199" r="8.199" transform="translate(74.645 25.678)"/>
        <rect id="Rectangle_152" data-name="Rectangle 152" class="cls-4" width="14.12" height="14.576" rx="3.824" transform="translate(47.771 73.504)"/>
        <rect id="Rectangle_153" data-name="Rectangle 153" class="cls-9" width="12.024" height="12.721" rx="3.297" transform="translate(48.772 74.366)"/>
        <path id="Path_393" data-name="Path 393" class="cls-4" d="M289.424,221.383h-6.388v-6.444H282v6.444h-6.165v1.032H282v6.109h1.032v-6.109h6.388Z" transform="translate(-227.708 -141.075)"/>
        <rect id="Rectangle_154" data-name="Rectangle 154" class="cls-4" width="14.12" height="14.576" rx="3.824" transform="translate(104.458 73.504)"/>
        <rect id="Rectangle_155" data-name="Rectangle 155" class="cls-9" width="12.024" height="12.721" rx="3.297" transform="translate(105.459 74.366)"/>
        <path id="Path_394" data-name="Path 394" class="cls-4" d="M380.079,221.383h-6.388v-6.444h-1.032v6.444h-6.165v1.032h6.165v6.109h1.032v-6.109h6.388Z" transform="translate(-261.676 -141.075)"/>
        <path id="Path_395" data-name="Path 395" class="cls-9" d="M336.2,211.952a13.054,13.054,0,0,0-26.062,0Z" transform="translate(-240.561 -135.354)"/>
        <rect id="Rectangle_156" data-name="Rectangle 156" class="cls-9" width="11.382" height="21.425" transform="translate(69.834 79.22)"/>
        <rect id="Rectangle_157" data-name="Rectangle 157" class="cls-9" width="11.801" height="21.425" transform="translate(83.309 79.22)"/>
        <rect id="Rectangle_158" data-name="Rectangle 158" class="cls-9" width="25.428" height="11.41" transform="translate(69.96 102.068)"/>
        <path id="Path_396" data-name="Path 396" class="cls-6" d="M306.564,286.833h28.764l3.96,7.712H302.5Z" transform="translate(-237.698 -168.013)"/>
      </g>
      <g id="Group_530" data-name="Group 530" transform="translate(14.163 15.215)">
        <path id="Path_397" data-name="Path 397" class="cls-5" d="M210.728,70.691v0a17.784,17.784,0,0,0-2.8,0v0c-4.814.38-14.1,2.94-13.368,17.14.5,9.7,13.9,33.092,14.766,31.866C210.2,120.923,223.6,97.531,224.1,87.83,224.824,73.631,215.543,71.071,210.728,70.691Z" transform="translate(-194.524 -70.632)"/>
        <circle id="Ellipse_3" data-name="Ellipse 3" class="cls-4" cx="8.388" cy="8.388" r="8.388" transform="translate(6.163 5.321)"/>
      </g>
      <g id="Group_534" data-name="Group 534" transform="translate(0 85.114)">
        <g id="Group_531" data-name="Group 531" transform="translate(8.118 16.32)">
          <path id="Path_398" data-name="Path 398" class="cls-11" d="M205.4,217.757v-2.984l-3.287.027a19.06,19.06,0,0,0-6.965-1.2,18.7,18.7,0,0,0-7.255,1.314l-3.038.025v3.473h.034c.345,2.359,4.8,4.226,10.26,4.226,5.685,0,10.294-2.023,10.294-4.519A2.034,2.034,0,0,0,205.4,217.757Z" transform="translate(-184.858 -210.421)"/>
          <ellipse id="Ellipse_4" data-name="Ellipse 4" class="cls-12" cx="10.294" cy="4.519" rx="10.294" ry="4.519"/>
          <ellipse id="Ellipse_5" data-name="Ellipse 5" class="cls-13" cx="7.371" cy="3.236" rx="7.371" ry="3.236" transform="translate(2.867 0.948)"/>
        </g>
        <g id="Group_532" data-name="Group 532" transform="translate(0 10.796)">
          <path id="Path_399" data-name="Path 399" class="cls-11" d="M192.421,208.924V205.94l-3.287.026a19.063,19.063,0,0,0-6.965-1.2,18.7,18.7,0,0,0-7.255,1.314l-3.039.024v3.474h.034c.346,2.359,4.8,4.226,10.261,4.226,5.685,0,10.294-2.023,10.294-4.52A2.028,2.028,0,0,0,192.421,208.924Z" transform="translate(-171.875 -201.588)"/>
          <ellipse id="Ellipse_6" data-name="Ellipse 6" class="cls-12" cx="10.294" cy="4.519" rx="10.294" ry="4.519" transform="translate(0)"/>
          <ellipse id="Ellipse_7" data-name="Ellipse 7" class="cls-13" cx="7.371" cy="3.236" rx="7.371" ry="3.236" transform="translate(2.867 0.948)"/>
        </g>
        <g id="Group_533" data-name="Group 533" transform="translate(13.893)">
          <path id="Path_400" data-name="Path 400" class="cls-11" d="M214.639,191.658v-2.984l-3.287.027a19.057,19.057,0,0,0-6.965-1.2,18.712,18.712,0,0,0-7.255,1.314l-3.038.025v3.473h.034c.345,2.359,4.8,4.226,10.26,4.226,5.685,0,10.294-2.023,10.294-4.519A2.035,2.035,0,0,0,214.639,191.658Z" transform="translate(-194.093 -184.322)"/>
          <path id="Path_401" data-name="Path 401" class="cls-12" d="M214.681,186.936c0,2.5-4.609,4.519-10.294,4.519s-10.294-2.023-10.294-4.519,4.608-4.52,10.294-4.52S214.681,184.439,214.681,186.936Z" transform="translate(-194.093 -182.416)"/>
          <ellipse id="Ellipse_8" data-name="Ellipse 8" class="cls-13" cx="7.371" cy="3.236" rx="7.371" ry="3.236" transform="translate(2.867 0.949)"/>
        </g>
      </g>
      <g id="Group_535" data-name="Group 535" transform="translate(32.784 166.887)">
        <path id="Path_402" data-name="Path 402" class="cls-11" d="M233.277,384.834l-4.385,2.087-3.48-4.806-1.109-1.536,11.285-23.8,8.046,3.991-2.653,5.595-2.657,1.342.8,3.073-.872,1.838-2.888,1.668.805,2.725-1.007,2.125-2.46,1.786Z" transform="translate(-224.304 -329.522)"/>
        <rect id="Rectangle_159" data-name="Rectangle 159" class="cls-13" width="1.03" height="26.856" transform="matrix(0.904, 0.428, -0.428, 0.904, 15.218, 30.613)"/>
        <path id="Path_403" data-name="Path 403" class="cls-13" d="M236.772,358.563l-11.359,23.954L224.3,380.98l10.968-23.129Z" transform="translate(-224.304 -329.924)"/>
        <path id="Path_404" data-name="Path 404" class="cls-13" d="M262.826,327.51a8.93,8.93,0,0,1-1.492,1.712,7.763,7.763,0,0,1-8.487,1.376,7.054,7.054,0,0,1-.858-.484,3.506,3.506,0,0,1-3.479.237,3.408,3.408,0,0,1-1.724-4.5,3.206,3.206,0,0,1,1.786-1.636,3.367,3.367,0,0,1,1.1-.221,3.522,3.522,0,0,1,1.688.345,3.409,3.409,0,0,1,1.724,4.5,2.688,2.688,0,0,1-.255.433c.175.1.353.2.542.292a6.76,6.76,0,0,0,7.652-1.492,7.571,7.571,0,0,0,1.135-1.447,3.4,3.4,0,0,0-.929-.644l-17.1-8.108a3.527,3.527,0,0,0-4.7,1.677l-7.769,16.384a3.527,3.527,0,0,0,1.678,4.7l17.1,8.108a3.528,3.528,0,0,0,4.7-1.677l7.769-16.384A3.5,3.5,0,0,0,262.826,327.51Z" transform="translate(-226.932 -314.816)"/>
        <path id="Path_405" data-name="Path 405" class="cls-11" d="M262.6,330.251a7.763,7.763,0,0,1-8.487,1.376,7.051,7.051,0,0,1-.858-.484,3.506,3.506,0,0,1-3.479.237,3.408,3.408,0,0,1-1.724-4.5,3.206,3.206,0,0,1,1.786-1.636,3.365,3.365,0,0,1,1.1-.221,3.521,3.521,0,0,1,1.688.345,3.409,3.409,0,0,1,1.724,4.5,2.686,2.686,0,0,1-.255.433c.175.1.353.2.542.292a6.76,6.76,0,0,0,7.652-1.492,3.051,3.051,0,0,0-1.451-1.438l-14.946-7.087a3.084,3.084,0,0,0-4.108,1.461l-6.791,14.321a3.086,3.086,0,0,0,1.466,4.111l14.946,7.087a3.086,3.086,0,0,0,4.111-1.466l6.791-14.322A3.073,3.073,0,0,0,262.6,330.251Z" transform="translate(-228.197 -315.845)"/>
        <path id="Path_406" data-name="Path 406" class="cls-4" d="M270.316,313.894a8.076,8.076,0,0,0-10.6,4.2c-.084.178-.163.358-.233.535a8.08,8.08,0,0,0-.391,1.253,8.361,8.361,0,0,0-.2,2.7,7.73,7.73,0,0,0,3.417,5.9,3.007,3.007,0,0,0,.842-.842,6.662,6.662,0,0,1-3.158-5.278,7.147,7.147,0,0,1,.114-2,7.258,7.258,0,0,1,.362-1.266c.07-.191.151-.377.238-.56a6.737,6.737,0,1,1,12.146,5.759c-.114.241-.239.476-.373.7a3.239,3.239,0,0,1,.667.885,9.456,9.456,0,0,0,.629-1.119A8.077,8.077,0,0,0,270.316,313.894Z" transform="translate(-237.251 -313.189)"/>
        <path id="Path_407" data-name="Path 407" class="cls-13" d="M280.627,332.96a8.928,8.928,0,0,1-1.492,1.712,3.039,3.039,0,0,0-.31-1.15,7.574,7.574,0,0,0,1.135-1.447A3.239,3.239,0,0,1,280.627,332.96Z" transform="translate(-244.733 -320.265)"/>
        <path id="Path_408" data-name="Path 408" class="cls-11" d="M273.721,335.539a7.763,7.763,0,0,1-8.487,1.376,7.049,7.049,0,0,1-.858-.484,3.007,3.007,0,0,0,.842-.842c.175.1.353.2.542.292a6.76,6.76,0,0,0,7.652-1.492A3.039,3.039,0,0,1,273.721,335.539Z" transform="translate(-239.319 -321.132)"/>
      </g>
      <g id="Group_537" data-name="Group 537" transform="translate(160.792 111.507)">
        <circle id="Ellipse_9" data-name="Ellipse 9" class="cls-4" cx="12.052" cy="12.052" r="12.052" transform="translate(0 17.043) rotate(-45)"/>
        <g id="Group_536" data-name="Group 536" transform="translate(4.471 4.845)">
          <path id="Path_409" data-name="Path 409" class="cls-5" d="M443.71,251.042l-6.778-5.787a2.078,2.078,0,0,1-.376-2.813,2,2,0,0,1,2.89-.306l5.78,4.935,13.8-14a2,2,0,1,1,3.041,2.6l-14.727,15.082A2.579,2.579,0,0,1,443.71,251.042Z" transform="translate(-436.166 -232.372)"/>
        </g>
      </g>
      <g id="Group_538" data-name="Group 538" transform="translate(116.74 161.169)">
        <path id="Path_410" data-name="Path 410" class="cls-6" d="M419.945,313.847v31.468a9.8,9.8,0,0,1-9.8,9.8H368.371a9.8,9.8,0,0,1-9.8-9.8V313.847a9.8,9.8,0,0,1,9.8-9.8h41.772A9.807,9.807,0,0,1,419.945,313.847Z" transform="translate(-358.569 -304.045)"/>
        <rect id="Rectangle_160" data-name="Rectangle 160" class="cls-1" width="49.769" height="8.481" rx="4.24" transform="translate(5.133 6.214)"/>
        <path id="Path_411" data-name="Path 411" class="cls-9" d="M419.945,333.437v22.891a9.8,9.8,0,0,1-9.8,9.8H368.371a9.8,9.8,0,0,1-9.8-9.8V333.437Z" transform="translate(-358.569 -315.058)"/>
        <rect id="Rectangle_161" data-name="Rectangle 161" class="cls-4" width="9.262" height="6.249" transform="translate(5.691 21.278)"/>
        <rect id="Rectangle_162" data-name="Rectangle 162" class="cls-4" width="9.262" height="6.249" transform="translate(17.408 21.278)"/>
        <rect id="Rectangle_163" data-name="Rectangle 163" class="cls-4" width="9.262" height="6.249" transform="translate(29.236 21.278)"/>
        <rect id="Rectangle_164" data-name="Rectangle 164" class="cls-4" width="9.262" height="6.249" transform="translate(44.189 21.278)"/>
        <rect id="Rectangle_165" data-name="Rectangle 165" class="cls-4" width="9.262" height="6.249" transform="translate(5.691 29.87)"/>
        <rect id="Rectangle_166" data-name="Rectangle 166" class="cls-4" width="9.262" height="6.249" transform="translate(17.408 29.87)"/>
        <rect id="Rectangle_167" data-name="Rectangle 167" class="cls-4" width="9.262" height="6.249" transform="translate(29.236 29.87)"/>
        <rect id="Rectangle_168" data-name="Rectangle 168" class="cls-4" width="9.262" height="6.249" transform="translate(5.691 38.797)"/>
        <rect id="Rectangle_169" data-name="Rectangle 169" class="cls-4" width="9.262" height="6.249" transform="translate(17.408 38.797)"/>
        <rect id="Rectangle_170" data-name="Rectangle 170" class="cls-4" width="9.262" height="6.249" transform="translate(29.236 38.797)"/>
        <rect id="Rectangle_171" data-name="Rectangle 171" class="cls-4" width="9.262" height="14.506" transform="translate(44.524 30.54)"/>
      </g>
    </g>
    <g id="Group_540" data-name="Group 540" transform="translate(24.1 65.12)">
      <path id="Path_412" data-name="Path 412" class="cls-14" d="M271.545,234.422a29.51,29.51,0,0,1-4.408,2.3,19.986,19.986,0,0,1,3.944-3.258c3.058-1.937,4.714-4.782,2.851-4.545-1.051.134-6.2,3.24-8.479,4.64-.029-.083-.057-.166-.084-.248,2.3-1.326,4.964-4.135,6.3-4.988,1.493-.954,2.779-3.444,1.493-3.734-1.1-.247-7.185,4.019-8.966,5.289l-.057-.165a41.9,41.9,0,0,1,3.8-3.8c1.182-.872,4.045-2.738,2.551-3.609s-3.734,1.369-7.28,3.173c-3.173,1.614-9.646,5.289-9.646,5.289s.436-2.053.623-2.551,1.929-2.427,2.115-4.357-1.431-2.925-2.178-1.742-2.925,3.609-4.792,6.223-2.738,7.343-2.738,7.343l-2.116,1.182c-1.556,4.915,1.556,11.948,1.556,11.948l6.6-3.734c9.272-1.058,14.852-5.144,14.852-5.393,0,0,5.6-3.526,6.555-4.6S273.62,233.011,271.545,234.422Z" transform="translate(-106.511 -130.809)"/>
      <path id="Path_413" data-name="Path 413" class="cls-7" d="M209.459,242.8s-31.184,16.564-45.1,19.072c-11.637,2.089-22.492-15.458-25.744-21.279-.638-1.144-.982-1.832-.982-1.832l6.96-35.817s4.177,3.527,9.186,14.382,13.088,24.5,13.088,24.5,24.775-6.266,37.306-12.669l3.514,9.054Z" transform="translate(-66.639 -123.813)"/>
      <path id="Path_414" data-name="Path 414" class="cls-15" d="M111.635,140.956c-3.889,5.015-12.794,3.008-12.794,3.008s-.125,3.258-6.015,5.14-15.426-5.14-22.2-2.633-15.8-4.265-15.8-4.265a10.409,10.409,0,0,1-9.9-.363,7.517,7.517,0,0,1-2.507-2.77c-2.758-5.14,2.257-7.522,8.154-11.537s.875-15.676,1.876-26.332a19.088,19.088,0,0,1,8.979-14.857l.006-.006a29.938,29.938,0,0,1,2-2.5c12.988-14.52,31.2-3.752,35-1.282,8.273,5.4,13.281,13.594,12.281,20.866-.394,2.864-1.407,6.941-2.2,11.037-1.226,6.3-1.945,12.656.869,14.707C113.686,132.314,115.525,135.941,111.635,140.956Z" transform="translate(-30.671 -76.398)"/>
      <path id="Path_415" data-name="Path 415" class="cls-16" d="M210.047,263.551s-31.184,16.564-45.1,19.072c-11.637,2.089-22.492-15.458-25.744-21.279l4.877-3.014s7.5,12.093,15.007,16.883c6.878,4.4,44.145-10.738,50.129-13.7Z" transform="translate(-67.228 -144.568)"/>
      <path id="Path_416" data-name="Path 416" class="cls-6" d="M51.92,273.957s5.559-6.078,1.169-20.841a62.1,62.1,0,0,0-3.621-9.229q-1.013-2.139-2.282-4.446c-8.26-15.014-8.823-30.215-7.979-39.869A60.335,60.335,0,0,1,40.883,189.4a.2.2,0,0,1,.013-.038l.694-.269,22.361-8.773.219-.088,28.77,3.245L107.6,194.431c2.783,4.727,6.885,26.388,1.488,42.127-9.148,26.669,4.915,64.406,4.915,64.406L47.162,289.346l.094-.306Z" transform="translate(-29.653 -115.304)"/>
      <path id="Path_417" data-name="Path 417" class="cls-14" d="M108.987,178.659s-.634,2.668-7.506,3.384-20.7-9.111-20.7-9.111c3.173-6.425,3.666-14.575,3.476-20.553-.08-2.337,0-4.636-.168-6.079-.171-1.535,21.46,12.744,21.46,12.744-.069.229-.131.464-.189.687a24.62,24.62,0,0,0-.842,7.823C104.967,174.879,108.987,178.659,108.987,178.659Z" transform="translate(-45.339 -102.547)"/>
      <path id="Path_418" data-name="Path 418" class="cls-17" d="M106.471,167.361c-.8-.109-1.7-.275-2.692-.493-7.342-1.615-15.548-11.992-17.57-14.683-.08-2.337-.056-5.074-.222-6.517l21.325,13.87A24.62,24.62,0,0,0,106.471,167.361Z" transform="translate(-47.289 -102.353)"/>
      <path id="Path_419" data-name="Path 419" class="cls-14" d="M119.72,109.028s-.485,7.982-.961,17.514c-.5,10.032-12.582,17.1-13.92,17.43s-16.45-6.051-18.791-15.414-4.45-21.871,1.9-29.228S118.047,90.3,119.72,109.028Z" transform="translate(-46.446 -83.053)"/>
      <path id="Path_420" data-name="Path 420" class="cls-14" d="M80.925,128.214s-1-4.348-5.183-3.177-3.177,11.2.5,13.042,5.518,0,5.518,0Z" transform="translate(-42.43 -94.548)"/>
      <path id="Path_421" data-name="Path 421" class="cls-15" d="M81.5,110.682s.961,9.154,3.846,10.408l.794-10.659a11.159,11.159,0,0,0,7.064-10.575s8.695,7.273,25.791,7.127a13.561,13.561,0,0,0-2.007-13.606c-5.266-6.646-15.048-9.53-27.211-3.26S80.25,108.425,81.5,110.682Z" transform="translate(-45.182 -80.235)"/>
      <path id="Path_422" data-name="Path 422" class="cls-17" d="M123.071,145.145s-1.5,2.32-3.824,1.881-2.069-.69-2.069-.69Z" transform="translate(-58.973 -102.158)"/>
      <path id="Path_423" data-name="Path 423" class="cls-15" d="M127.659,122.05a4.205,4.205,0,0,1,3.386-2.633c2.7-.439,3.323,1.568,3.323,1.568S130.23,120.357,127.659,122.05Z" transform="translate(-62.903 -92.494)"/>
      <path id="Path_424" data-name="Path 424" class="cls-18" d="M112.542,299.643,63.349,311.112l-11.1-.269,4.665-15.082s5.559-6.078,1.169-20.841a62.094,62.094,0,0,0-3.621-9.229l7.679-27.27s5.584,24.124,3.914,38.087,46.066,18.346,46.066,18.346Z" transform="translate(-34.648 -137.107)"/>
      <path id="Path_425" data-name="Path 425" class="cls-15" d="M100.784,120.585s6.1-.837,9.488.562a5.452,5.452,0,0,0-5.136-2.855C101.4,118.427,100.784,120.585,100.784,120.585Z" transform="translate(-52.833 -92.094)"/>
      <path id="Path_426" data-name="Path 426" class="cls-19" d="M106.6,129.7c0,1.437-.533,2.6-1.191,2.6s-1.192-1.165-1.192-2.6.533-2.6,1.192-2.6S106.6,128.267,106.6,129.7Z" transform="translate(-54.121 -95.397)"/>
      <path id="Path_427" data-name="Path 427" class="cls-19" d="M129.946,130.076c0,1.324-.491,2.4-1.1,2.4s-1.1-1.073-1.1-2.4.491-2.4,1.1-2.4S129.946,128.752,129.946,130.076Z" transform="translate(-62.938 -95.613)"/>
      <path id="Path_428" data-name="Path 428" class="cls-4" d="M119.68,153.668a36.274,36.274,0,0,1-8.715,0s.025,1.863,3.19,2.879C118.279,157.87,119.68,153.668,119.68,153.668Z" transform="translate(-56.648 -105.351)"/>
      <path id="Path_429" data-name="Path 429" class="cls-17" d="M76.226,127.569c.748-.632,2.006.126,3.01,2.508s-.94,3.449-.439,4.577,1.943,1.505.94,2.195a1.548,1.548,0,0,1-2.32-1.254c0-1,1.379-4.013.94-4.577s-1.5,2.446-1.63,1.379,1.129-2.445.69-3.135-1.756,1.943-1.756,3.385S73.8,129.618,76.226,127.569Z" transform="translate(-43.165 -95.492)"/>
      <path id="Path_430" data-name="Path 430" class="cls-4" d="M82.288,173.253l18.221,18.722s-6.356,4.854-12.712,4.854-9.977-18.876-9.977-18.876Z" transform="translate(-44.229 -112.689)"/>
      <path id="Path_431" data-name="Path 431" class="cls-4" d="M116.849,178.763l-2.3,15.486s5.429,3.759,9.187,2.367-2.923-14.338-2.923-14.338Z" transform="translate(-57.992 -114.754)"/>
      <path id="Path_432" data-name="Path 432" class="cls-14" d="M143.312,299.984l5.39-1.828a49.932,49.932,0,0,1,4.919-6.4c1.561-1.566,4.57-5,6.171-5.76s.283,4.707-1.036,5.852-2.449,4.452-2.449,4.834,8.475-.381,10.735-1.272,6.968-3.562,8.475-3.18.847,2.926-2.449,4.961a6.153,6.153,0,0,1-.942,4.07s-.188,4.071-2.731,5.47a19.382,19.382,0,0,1-4.128,4.725c-2.354,1.781-14.046.745-15.741.872a52.769,52.769,0,0,0-5.744,1.145S142.182,302.146,143.312,299.984Z" transform="translate(-68.617 -154.905)"/>
      <path id="Path_433" data-name="Path 433" class="cls-7" d="M100.656,264.6l-.688,13.181-.144,2.689s-42.6,9.467-55.127,9.742-20.041-7.235-20.6-13.081v-.006c.013-.219,2.526-45.991,3.9-64.306.532-7.11,2.326-11.668,3.958-14.432a.006.006,0,0,1,.006-.006,12.3,12.3,0,0,1,3-3.658q.188-.113.375-.206a7.55,7.55,0,0,1,.707-.306,5.122,5.122,0,0,1,4.533.519c.144.088.288.181.438.281,5.1,3.545,8.61,14.688,10.111,20.322a17.41,17.41,0,0,1,.475,6.4l-4.058,36.5-1.007,9.086-.031.275C60.812,267.206,87.643,267.913,100.656,264.6Z" transform="translate(-24.1 -120.428)"/>
      <path id="Path_434" data-name="Path 434" class="cls-17" d="M123.815,130.651s.7,7.5,1.746,9.063C125.561,139.714,126.771,134.38,123.815,130.651Z" transform="translate(-61.463 -96.727)"/>
      <path id="Path_435" data-name="Path 435" class="cls-20" d="M117.767,123.947h-6.3a2.713,2.713,0,0,0-2.74,2.684v.817a6.273,6.273,0,0,0-3.227-.038v-.7a2.87,2.87,0,0,0-2.9-2.841H94.965a2.87,2.87,0,0,0-2.875,2.6L83.158,124.4a.721.721,0,0,0-.867.525l.068.2,9.708,2.689v.837a4.238,4.238,0,0,0,4.28,4.195h4.877a4.243,4.243,0,0,0,4.273-4.05,4.877,4.877,0,0,1,3.234.032v.158a3.984,3.984,0,0,0,4.023,3.943h3.729a3.983,3.983,0,0,0,4.023-3.943v-2.353A2.713,2.713,0,0,0,117.767,123.947Zm-13.6,4.7a2.914,2.914,0,0,1-2.939,2.881H96.347a2.914,2.914,0,0,1-2.94-2.881V126.7a1.544,1.544,0,0,1,1.558-1.526h7.641a1.544,1.544,0,0,1,1.557,1.526Zm15,.335a2.659,2.659,0,0,1-2.683,2.628h-3.729a2.659,2.659,0,0,1-2.682-2.628v-2.353a1.387,1.387,0,0,1,1.4-1.371h6.3a1.387,1.387,0,0,1,1.4,1.371Z" transform="translate(-45.904 -94.184)"/>
      <path id="Path_436" data-name="Path 436" class="cls-17" d="M111.38,159.2a7.322,7.322,0,0,0,6.626.657,3.4,3.4,0,0,1-3.011,2.19C112.585,162.263,111.38,159.2,111.38,159.2Z" transform="translate(-56.803 -107.423)"/>
      <path id="Path_437" data-name="Path 437" class="cls-17" d="M272.5,231.75a20.4,20.4,0,0,1,5.315,10.552S272.734,232.688,272.5,231.75Z" transform="translate(-117.175 -134.608)"/>
      <path id="Path_438" data-name="Path 438" class="cls-17" d="M259.048,236.938s.391,5.159-1.8,8.207c0,0,.547-6.957,1.72-8.52" transform="translate(-111.46 -136.435)"/>
      <path id="Path_439" data-name="Path 439" class="cls-5" d="M93.234,445.381h32.853S122.4,400.913,120,386.246c-3.439-21.026-9.106-31.949-9.106-31.949L47.5,354.23c-1.079,5.158-1.375,9.56-2.886,13.4a66.769,66.769,0,0,0-4.418,29.365l8.689,48.389h35.81s-.415-14.922.173-31.273Z" transform="translate(-30.062 -180.501)"/>
      <path id="Path_440" data-name="Path 440" class="cls-21" d="M111.743,433.685s1.908-17.787,11.764-27.205a179.173,179.173,0,0,0-2.409,21.683c-.219,9.2,6.351,36.8,6.351,36.8h-7.337Z" transform="translate(-56.939 -200.079)"/>
      <path id="Path_441" data-name="Path 441" class="cls-22" d="M76.167,93.967l13.965,5.94S85.755,93.237,76.167,93.967Z" transform="translate(-43.609 -82.96)"/>
      <path id="Path_442" data-name="Path 442" class="cls-23" d="M123.769,103.425c-.394,2.864-1.407,6.941-2.2,11.037.538-5.653,1.119-15.645-.988-20.072-3.02-6.359-13.444-14.907-25.431-15.845a27.887,27.887,0,0,0-18.659,5.3c12.988-14.52,31.2-3.752,35-1.282C119.761,87.955,124.77,96.153,123.769,103.425Z" transform="translate(-43.73 -76.398)"/>
      <path id="Path_443" data-name="Path 443" class="cls-23" d="M100.9,107.777s17.673,6.6,28.2,5.975c0,0-2.293,2.762-13.7.156S100.9,107.777,100.9,107.777Z" transform="translate(-52.878 -88.156)"/>
      <path id="Path_444" data-name="Path 444" class="cls-17" d="M185.93,304.417s-4.742,3.127-7.347,3.7C178.583,308.116,184.523,308.116,185.93,304.417Z" transform="translate(-81.984 -161.836)"/>
      <path id="Path_445" data-name="Path 445" class="cls-17" d="M184,311.417a7.269,7.269,0,0,1-3.231,2.24,11.074,11.074,0,0,1-4.273.834Z" transform="translate(-81.204 -164.459)"/>
      <path id="Path_446" data-name="Path 446" class="cls-17" d="M180.878,319.667a12.96,12.96,0,0,1-3.178,1.407,8.927,8.927,0,0,1-2.866.365,4.859,4.859,0,0,0,3.127.365A8.908,8.908,0,0,0,180.878,319.667Z" transform="translate(-80.579 -167.55)"/>
      <path id="Path_447" data-name="Path 447" class="cls-23" d="M54.057,112.958c1.357,10.736,2.5,14.695.313,20.429s-10,5.628-10.63,9.486a7.759,7.759,0,0,0,1.182,4.934,7.517,7.517,0,0,1-2.507-2.77c-2.758-5.14,2.257-7.522,8.154-11.537s.875-15.676,1.876-26.332A19.088,19.088,0,0,1,61.423,92.31C61.179,92.591,52.719,102.384,54.057,112.958Z" transform="translate(-30.671 -82.36)"/>
      <path id="Path_448" data-name="Path 448" class="cls-18" d="M81.667,267l39.811,1.459S98.341,276.588,81.667,267Z" transform="translate(-45.67 -147.816)"/>
      <path id="Path_449" data-name="Path 449" class="cls-16" d="M51.724,313.776l-10.474,5.94S43.282,311.587,51.724,313.776Z" transform="translate(-30.526 -165.203)"/>
      <path id="Path_450" data-name="Path 450" class="cls-21" d="M55.333,366.918,113.9,364S70.966,372.337,55.333,366.918Z" transform="translate(-35.803 -184.162)"/>
      <path id="Path_451" data-name="Path 451" class="cls-16" d="M178.971,267.5l-4.221,12.193,4.064.313S182.41,272.19,178.971,267.5Z" transform="translate(-80.548 -148.003)"/>
      <path id="Path_452" data-name="Path 452" class="cls-16" d="M99.968,277.786l-.144,2.689s-42.6,9.467-55.127,9.742-20.035-3.4-20.6-13.081v-.006c.013-.219,2.526-45.991,3.9-64.306.532-7.11,2.326-11.668,3.958-14.432a.006.006,0,0,1,.006-.006,12.3,12.3,0,0,1,3-3.658q.188-.113.375-.206a7.55,7.55,0,0,1,.707-.306,5.122,5.122,0,0,1,4.533.519c.144.088.288.181.438.281,0,0-8.01-1.469-10.924,36.674s-4.588,49.505,3.958,52.526C39.805,286.251,90.745,279.331,99.968,277.786Z" transform="translate(-24.1 -120.428)"/>
    </g>
  </g>
</svg>
