<svg xmlns="http://www.w3.org/2000/svg" xmlns:xlink="http://www.w3.org/1999/xlink" width="433.374" height="422.817" viewBox="0 0 433.374 422.817">
  <defs>
    <linearGradient id="linear-gradient" x1="0.493" y1="0.024" x2="0.501" y2="0.58" gradientUnits="objectBoundingBox">
      <stop offset="0" stop-color="#fff"/>
      <stop offset="0.449" stop-color="#fcfeff"/>
      <stop offset="0.693" stop-color="#f4fcff"/>
      <stop offset="0.887" stop-color="#e7faff"/>
      <stop offset="1" stop-color="#dbf8ff"/>
    </linearGradient>
  </defs>
  <g id="Group_54" data-name="Group 54" transform="translate(-30.888 -40.281)">
    <g id="Group_15" data-name="Group 15">
      <circle id="Ellipse_1" data-name="Ellipse 1" cx="153.417" cy="153.417" r="153.417" transform="translate(96.583 40.281)" fill="#caffff"/>
      <g id="Group_1" data-name="Group 1">
        <path id="Path_1" data-name="Path 1" d="M184.456,134.547a37.261,37.261,0,1,1-21.9-33.977A37.289,37.289,0,0,1,184.456,134.547Z" fill="#ff3363"/>
        <circle id="Ellipse_2" data-name="Ellipse 2" cx="32.981" cy="32.981" r="32.981" transform="translate(114.183 101.565)" fill="url(#linear-gradient)"/>
        <rect id="Rectangle_1" data-name="Rectangle 1" width="2.993" height="9.479" transform="translate(145.667 103.404)"/>
        <rect id="Rectangle_2" data-name="Rectangle 2" width="2.993" height="9.479" transform="translate(145.667 157.765)"/>
        <rect id="Rectangle_3" data-name="Rectangle 3" width="2.993" height="9.479" transform="translate(115.963 137.539) rotate(-90)"/>
        <rect id="Rectangle_4" data-name="Rectangle 4" width="2.993" height="9.479" transform="translate(168.886 137.539) rotate(-90)"/>
        <rect id="Rectangle_5" data-name="Rectangle 5" width="1.496" height="9.479" transform="translate(124.572 113.072) rotate(-45)"/>
        <rect id="Rectangle_6" data-name="Rectangle 6" width="1.496" height="9.479" transform="translate(161.994 151.932) rotate(-45)"/>
        <rect id="Rectangle_7" data-name="Rectangle 7" width="1.496" height="9.479" transform="translate(125.63 158.634) rotate(-135)"/>
        <rect id="Rectangle_8" data-name="Rectangle 8" width="1.496" height="9.479" transform="translate(163.053 119.774) rotate(-135)"/>
        <rect id="Rectangle_9" data-name="Rectangle 9" width="2.993" height="30.461" transform="translate(130.419 111.426) rotate(-33.131)" fill="#14d8d2"/>
        <rect id="Rectangle_10" data-name="Rectangle 10" width="2.993" height="22.557" transform="matrix(0.662, 0.75, -0.75, 0.662, 163.198, 120.918)" fill="#14d8d2"/>
        <path id="Path_2" data-name="Path 2" d="M184.456,134.547a37.3,37.3,0,0,1-57.9,31.086l36-65.063A37.284,37.284,0,0,1,184.456,134.547Z" opacity="0.43" style="mix-blend-mode: overlay;isolation: isolate"/>
      </g>
      <g id="Group_5" data-name="Group 5">
        <g id="Group_2" data-name="Group 2">
          <path id="Path_3" data-name="Path 3" d="M370.528,78.74H348.934V57.146h21.594Zm-19.243-2.351h16.892V59.5H351.285Z" fill="#14d8d2"/>
        </g>
        <g id="Group_3" data-name="Group 3">
          <path id="Path_4" data-name="Path 4" d="M370.528,106.14H348.934V84.546h21.594Zm-19.243-2.351h16.892V86.9H351.285Z" fill="#14d8d2"/>
        </g>
        <g id="Group_4" data-name="Group 4">
          <path id="Path_5" data-name="Path 5" d="M370.528,132.512H348.934V110.918h21.594Zm-19.243-2.351h16.892V113.269H351.285Z" fill="#14d8d2"/>
        </g>
        <path id="Path_6" data-name="Path 6" d="M354.01,60.246l6.331,6.746-4.015.278L375.435,50.16,360.625,71.1,359.2,73.12l-2.588-1.74-7.676-5.163Z" fill="#ff3363"/>
        <path id="Path_7" data-name="Path 7" d="M354.01,88.079l6.331,6.746-4.015.278,19.109-17.109-14.81,20.941-1.427,2.018-2.588-1.74-7.676-5.163Z" fill="#ff3363"/>
        <path id="Path_8" data-name="Path 8" d="M354.01,114.366l6.331,6.746-4.015.278,19.109-17.109-14.81,20.941L359.2,127.24l-2.588-1.74-7.676-5.163Z" fill="#ff3363"/>
        <rect id="Rectangle_11" data-name="Rectangle 11" width="52.283" height="3.195" transform="translate(374.653 60.5)" fill="#484854" opacity="0.43"/>
        <rect id="Rectangle_12" data-name="Rectangle 12" width="31.079" height="3.195" transform="translate(374.653 66.345)" fill="#484854" opacity="0.43"/>
        <rect id="Rectangle_13" data-name="Rectangle 13" width="52.283" height="3.195" transform="translate(374.653 89.183)" fill="#484854" opacity="0.43"/>
        <rect id="Rectangle_14" data-name="Rectangle 14" width="31.079" height="3.195" transform="translate(374.653 95.028)" fill="#484854" opacity="0.43"/>
        <rect id="Rectangle_15" data-name="Rectangle 15" width="52.283" height="3.195" transform="translate(374.653 116.271)" fill="#484854" opacity="0.43"/>
        <rect id="Rectangle_16" data-name="Rectangle 16" width="31.079" height="3.195" transform="translate(374.653 122.116)" fill="#484854" opacity="0.43"/>
      </g>
      <g id="Group_14" data-name="Group 14">
        <g id="Group_9" data-name="Group 9">
          <g id="Group_6" data-name="Group 6">
            <path id="Path_9" data-name="Path 9" d="M82.063,237.705a.5.5,0,0,1-.468-.675,21.369,21.369,0,0,0,1.019-3.768.5.5,0,0,1,.985.173,22.453,22.453,0,0,1-1.067,3.944A.5.5,0,0,1,82.063,237.705Z"/>
          </g>
          <g id="Group_7" data-name="Group 7">
            <path id="Path_10" data-name="Path 10" d="M83.166,225.869a.5.5,0,0,1-.5-.428,33.489,33.489,0,0,0-2.09-7.6.5.5,0,1,1,.928-.372,34.5,34.5,0,0,1,2.152,7.823.5.5,0,0,1-.423.567A.452.452,0,0,1,83.166,225.869ZM77.38,211.044a.5.5,0,0,1-.423-.232c-.562-.888-1.163-1.77-1.787-2.624-.895-1.226-1.859-2.453-2.949-3.751a.5.5,0,1,1,.766-.643c1.1,1.316,2.082,2.56,2.991,3.8.636.871,1.25,1.773,1.824,2.679a.5.5,0,0,1-.155.69A.494.494,0,0,1,77.38,211.044ZM67.233,198.669a.5.5,0,0,1-.362-.155q-1.368-1.439-2.752-2.863-1.4-1.455-2.8-2.916a.5.5,0,1,1,.725-.689q1.391,1.462,2.8,2.91,1.383,1.431,2.757,2.868a.5.5,0,0,1-.362.845ZM56.31,186.943a.5.5,0,0,1-.383-.179q-.792-.942-1.553-1.91a55.2,55.2,0,0,1-3.246-4.585.5.5,0,1,1,.846-.534,53.972,53.972,0,0,0,3.186,4.5q.75.956,1.533,1.886a.5.5,0,0,1-.383.821ZM47.865,173.4a.5.5,0,0,1-.463-.313,33.706,33.706,0,0,1-2.167-7.82.5.5,0,0,1,.424-.567.5.5,0,0,1,.566.424,32.674,32.674,0,0,0,2.1,7.588.5.5,0,0,1-.464.688Zm-2.042-15.684a.545.545,0,0,1-.089-.008.5.5,0,0,1-.4-.58q.147-.826.357-1.647a25.1,25.1,0,0,1,2.406-6,.5.5,0,1,1,.874.486,24.11,24.11,0,0,0-2.311,5.76q-.2.786-.342,1.576A.5.5,0,0,1,45.823,157.712Zm7.477-13.9a.5.5,0,0,1-.365-.842,63.035,63.035,0,0,1,5.921-5.487.5.5,0,1,1,.639.77,62.13,62.13,0,0,0-5.83,5.4A.5.5,0,0,1,53.3,143.812ZM65.467,133.4a.5.5,0,0,1-.306-.9c2.149-1.663,4.243-3.3,6.239-5a.5.5,0,0,1,.648.761c-2.012,1.715-4.116,3.357-6.275,5.027A.5.5,0,0,1,65.467,133.4ZM77.5,122.832a.5.5,0,0,1-.373-.832,32.834,32.834,0,0,0,4.554-6.417.5.5,0,0,1,.883.471,33.794,33.794,0,0,1-4.691,6.611A.5.5,0,0,1,77.5,122.832Zm7.4-14.007a.544.544,0,0,1-.119-.014.5.5,0,0,1-.367-.6,73.6,73.6,0,0,0,1.371-7.837.491.491,0,0,1,.561-.43.5.5,0,0,1,.43.561,74.364,74.364,0,0,1-1.39,7.943A.5.5,0,0,1,84.9,108.825Zm2.462-15.832a.462.462,0,0,1-.082-.007.5.5,0,0,1-.412-.574c.281-1.711.585-3.215.93-4.6.272-1.089.594-2.188.956-3.266a.5.5,0,1,1,.949.319c-.355,1.053-.669,2.126-.935,3.19-.338,1.355-.637,2.832-.913,4.516A.5.5,0,0,1,87.358,92.993Zm90.912-8.474a.5.5,0,0,1-.387-.184c-1.825-2.225-3.527-4.21-5.2-6.066a.5.5,0,0,1,.742-.67c1.686,1.868,3.4,3.864,5.233,6.1a.5.5,0,0,1-.386.817Zm-85.8-6.625a.5.5,0,0,1-.436-.744A45.031,45.031,0,0,1,96.6,70.468a.5.5,0,1,1,.771.636,44.076,44.076,0,0,0-4.465,6.533A.5.5,0,0,1,92.47,77.894Zm75.024-5.231a.5.5,0,0,1-.348-.141c-1.993-1.925-4-3.7-5.968-5.27a.5.5,0,1,1,.624-.781c1.992,1.592,4.024,3.385,6.039,5.332a.5.5,0,0,1-.347.86ZM102.616,65.6a.5.5,0,0,1-.322-.883,43.1,43.1,0,0,1,5.167-3.731q.738-.453,1.493-.875a.5.5,0,1,1,.487.873q-.737.413-1.457.854a42.277,42.277,0,0,0-5.047,3.644A.5.5,0,0,1,102.616,65.6Zm52.335-2.855a.5.5,0,0,1-.262-.074,52.56,52.56,0,0,0-7.04-3.644.5.5,0,1,1,.389-.92,53.62,53.62,0,0,1,7.175,3.712.5.5,0,0,1-.262.926Zm-38.433-4.93a.5.5,0,0,1-.159-.975,45.071,45.071,0,0,1,7.875-1.869.5.5,0,1,1,.142.99,43.915,43.915,0,0,0-7.7,1.828A.514.514,0,0,1,116.518,57.812Zm23.592-1.235a42.339,42.339,0,0,0-7.831-1.035.5.5,0,0,1-.481-.519.512.512,0,0,1,.519-.481,43.267,43.267,0,0,1,7.973,1.05l-.059.5Z"/>
          </g>
          <g id="Group_8" data-name="Group 8">
            <path id="Path_11" data-name="Path 11" d="M185.76,94.046a.5.5,0,0,1-.4-.2q-1.208-1.58-2.437-3.168a.5.5,0,1,1,.79-.613q1.233,1.59,2.441,3.174a.5.5,0,0,1-.094.7A.491.491,0,0,1,185.76,94.046Z"/>
          </g>
        </g>
        <g id="Group_13" data-name="Group 13">
          <g id="Group_10" data-name="Group 10">
            <path id="Path_12" data-name="Path 12" d="M432.653,110.488a.5.5,0,0,1-.192-.038,23.2,23.2,0,0,0-3.725-1.2.5.5,0,1,1,.223-.974,24.177,24.177,0,0,1,3.887,1.247.5.5,0,0,1-.193.961Z"/>
          </g>
          <g id="Group_11" data-name="Group 11">
            <path id="Path_13" data-name="Path 13" d="M422.964,272.816a.5.5,0,0,1-.165-.971,40.325,40.325,0,0,0,7.255-3.39.5.5,0,1,1,.511.859,41.18,41.18,0,0,1-7.436,3.474A.477.477,0,0,1,422.964,272.816Zm13.872-8.242a.5.5,0,0,1-.335-.871,38.875,38.875,0,0,0,5.363-5.941.5.5,0,1,1,.809.59,39.937,39.937,0,0,1-5.5,6.093A.5.5,0,0,1,436.836,264.574Zm9.468-13.046a.5.5,0,0,1-.459-.7,37.73,37.73,0,0,0,2.383-7.636.5.5,0,0,1,.98.2,38.766,38.766,0,0,1-2.445,7.839A.5.5,0,0,1,446.3,251.528ZM449.5,235.72a.5.5,0,0,1-.5-.5,40.743,40.743,0,0,0-.82-7.967.5.5,0,0,1,.98-.2,41.808,41.808,0,0,1,.84,8.163.5.5,0,0,1-.5.5Zm-3.243-15.8a.5.5,0,0,1-.46-.3,37.022,37.022,0,0,0-3.869-6.9l.357-.36.408-.289-.408.289.455-.223a38.062,38.062,0,0,1,3.977,7.091.5.5,0,0,1-.263.657A.49.49,0,0,1,446.253,219.917Zm-9.141-13.325a.5.5,0,0,1-.372-.166l-.966-1.073c-1.478-1.642-3.007-3.34-4.4-5.061a.5.5,0,1,1,.777-.628c1.373,1.7,2.894,3.387,4.364,5.019l.966,1.075a.5.5,0,0,1-.372.834ZM427.335,193.7a.5.5,0,0,1-.452-.286,20.485,20.485,0,0,1-1.814-5.84,18.643,18.643,0,0,1-.194-2.174.5.5,0,0,1,.484-.515.494.494,0,0,1,.516.485,17.739,17.739,0,0,0,.183,2.057,19.5,19.5,0,0,0,1.729,5.558.5.5,0,0,1-.452.715Zm-.62-15.777a.514.514,0,0,1-.167-.028.5.5,0,0,1-.3-.638,36.363,36.363,0,0,1,3.68-7.349.5.5,0,0,1,.843.538,35.287,35.287,0,0,0-3.579,7.144A.5.5,0,0,1,426.715,177.921Zm8.475-13.757a.5.5,0,0,1-.384-.82c.777-.935,1.568-1.865,2.36-2.8.964-1.132,1.929-2.266,2.87-3.413a.5.5,0,0,1,.774.635c-.947,1.151-1.915,2.29-2.882,3.426-.789.928-1.578,1.855-2.353,2.787A.5.5,0,0,1,435.19,164.164Zm10.047-12.746a.493.493,0,0,1-.265-.076.5.5,0,0,1-.159-.69,32.269,32.269,0,0,0,3.111-6.257c.113-.312.218-.623.315-.936a.5.5,0,0,1,.955.3c-.1.327-.212.654-.33.978a33.272,33.272,0,0,1-3.2,6.451A.5.5,0,0,1,445.237,151.418ZM449.8,136.1a.5.5,0,0,1-.5-.486,27.574,27.574,0,0,0-1.38-7.829.5.5,0,0,1,.951-.31,28.644,28.644,0,0,1,1.429,8.112.5.5,0,0,1-.487.513Zm-4.93-15.26a.5.5,0,0,1-.417-.224,28.714,28.714,0,0,0-5.251-5.978.5.5,0,1,1,.651-.759,29.723,29.723,0,0,1,5.434,6.186.5.5,0,0,1-.141.692A.492.492,0,0,1,444.869,120.836Z"/>
          </g>
          <g id="Group_12" data-name="Group 12">
            <path id="Path_14" data-name="Path 14" d="M411.032,274.983a.5.5,0,0,1-.009-1,35.938,35.938,0,0,0,3.935-.283.5.5,0,1,1,.127.992,36.947,36.947,0,0,1-4.044.291Z"/>
          </g>
        </g>
      </g>
    </g>
    <g id="Group_24" data-name="Group 24">
      <ellipse id="Ellipse_3" data-name="Ellipse 3" cx="196.667" cy="28.113" rx="196.667" ry="28.113" transform="translate(40.603 406.872)" fill="#dcf0f9"/>
      <g id="Group_18" data-name="Group 18">
        <g id="Group_16" data-name="Group 16">
          <path id="Path_15" data-name="Path 15" d="M43.485,271.745c-.25,2.263,1.572,3.869,3.408,4.79a45.036,45.036,0,0,0,6.967,2.558c5.017,1.546,10.2,2.77,14.949,5.079a24.212,24.212,0,0,1,6.5,4.341c.381.373.917.95.876,1.534-.045.65-.762.788-1.295.815-1.173.069-2.376-.029-3.559-.047-4.749-.077-9.814.052-14.035,2.518-1.8,1.047-3.514,2.863-3.7,5.026-.206,2.5,2.063,3.644,4.037,4.453,4.922,2.035,10.25,2.791,15.46,3.748,5.094.923,10.336,2.037,14.785,4.828a11.237,11.237,0,0,1,2.948,2.327,1.463,1.463,0,0,1-.562,2.4,7.607,7.607,0,0,1-2.966.569,18.922,18.922,0,0,0-3.3.4c-4.281.946-8.659,3.709-10.351,7.913-.808,2.012-.793,4.445.9,6,1.764,1.612,4.42,1.965,6.709,2.182,5.286.512,10.565-.437,15.827-.91a43.754,43.754,0,0,1,7.8-.127,10.168,10.168,0,0,1,3.624.711c.76.361,1.81,1.217,1.038,2.1a4.482,4.482,0,0,1-1.577.942l-2.054.972c-1.362.641-2.714,1.283-4.078,1.933-2.149,1.017-4.551,2.339-5.129,4.861-1.243,5.4,6.937,6.252,10.52,6.145,5.181-.142,10.191-1.723,15.349-2.1a25.362,25.362,0,0,1,15.842,4.074.46.46,0,0,0,.684-.249,1.145,1.145,0,0,0,.092-.385.408.408,0,0,0-.082-.667c-.078-.036-.135-.076-.212-.112a1.269,1.269,0,0,0-.627-.37c-3.21-2.072-4.94-5.73-5.475-9.47-.756-5.257,1.008-10.369,3.075-15.133,1.192-2.749,2.5-5.443,3.61-8.229a53.58,53.58,0,0,0,2.555-8.314,47.519,47.519,0,0,0,1.092-8.74c.08-2.526.178-5.443-.962-7.769-.975-2-3.255-3.438-5.467-2.566a7.539,7.539,0,0,0-2.783,2.219,18.3,18.3,0,0,0-2.091,2.989,56.745,56.745,0,0,0-3.062,6.944,23.322,23.322,0,0,1-3.441,6.607,5.043,5.043,0,0,1-2.62,1.765,3.36,3.36,0,0,1-3.122-1.075c-1.7-1.786-2.118-4.484-2.175-6.851-.139-5.021,1.665-9.832,3.3-14.491,1.643-4.676,3.343-9.529,3.2-14.552a10.638,10.638,0,0,0-1.911-6.154,4.775,4.775,0,0,0-5.51-1.84c-2.2.8-3.74,2.861-4.781,4.86a49.42,49.42,0,0,0-2.705,7.3,28.847,28.847,0,0,1-1.441,3.647,6.7,6.7,0,0,1-2.163,2.841,2.883,2.883,0,0,1-3.406-.363,5.294,5.294,0,0,1-1.708-3.323,28.722,28.722,0,0,1,.261-8.419c.4-2.984,1-5.936,1.484-8.9.812-5.014,1.266-10.294-.187-15.248a18.818,18.818,0,0,0-1.331-3.365,6.619,6.619,0,0,0-2.224-2.718c-1.984-1.2-3.883.193-4.985,1.86a25.873,25.873,0,0,0-1.657,3.251c-.635,1.38-1.277,2.749-1.91,4.12-.659,1.4-1.308,2.809-1.967,4.212a15.359,15.359,0,0,1-1.863,3.461c-1.713,2.063-4.563,1.254-6.078-.6-1.673-2.035-2.189-4.99-2.589-7.515-.828-5.272-.667-10.681-2.071-15.86-1.208-4.421-3.639-8.766-7.944-10.781-3.807-1.786-8.621-1.6-11.51,1.77-3.207,3.757-3.016,9.279-1.488,13.7,1.667,4.831,4.824,8.907,7.947,12.873,1.683,2.122,3.366,4.243,4.828,6.516a31.623,31.623,0,0,1,1.937,3.438,6.359,6.359,0,0,1,.759,3.27,2.049,2.049,0,0,1-2.416,1.912,29.215,29.215,0,0,1-4.25-.732,44.477,44.477,0,0,0-8.357-1.255,14.981,14.981,0,0,0-6.876,1.369C45.795,267.645,43.741,269.408,43.485,271.745Z" fill="#1476dd"/>
          <path id="Path_16" data-name="Path 16" d="M62.088,237.007c-.466-1.083,1.158-1.952,1.627-.862a425.573,425.573,0,0,0,22.117,44.168c.6,1.046,1.219,2.085,1.83,3.126a249.977,249.977,0,0,1,5.311-25.789c.3-1.147,2.061-.6,1.76.542A245.711,245.711,0,0,0,89.2,285.38a.959.959,0,0,1-.162.409q6.61,11.1,13.892,21.773a234.57,234.57,0,0,0,12.18-32.585.921.921,0,0,1,1.76.542,237.482,237.482,0,0,1-12.737,33.8q4.335,6.294,8.893,12.429,4.626,6.218,9.485,12.254a104.459,104.459,0,0,0,7.977-25.2c.212-1.164,1.97-.612,1.76.541a106,106,0,0,1-8.455,26.24q3.245,4,6.572,7.936c.766.9-.585,2.153-1.356,1.247q-8.454-9.936-16.284-20.38a.9.9,0,0,1-.292.048q-14.013-.531-28.038-.542a.921.921,0,0,1,.054-1.841q13.461.01,26.914.5-6.343-8.544-12.267-17.393c-.705-1.057-1.4-2.121-2.1-3.185a.872.872,0,0,1-.4.047q-15.195-1.641-30.444-2.718c-1.181-.083-1.13-1.924.054-1.841q14.8,1.045,29.562,2.627-4.385-6.783-8.515-13.727-14.568-5.984-29.5-11.016c-1.122-.378-.584-2.139.541-1.76q13.862,4.666,27.415,10.177Q79.556,273.245,74,262.384,67.627,249.9,62.088,237.007Z" opacity="0.43" style="mix-blend-mode: overlay;isolation: isolate"/>
        </g>
        <g id="Group_17" data-name="Group 17">
          <path id="Path_17" data-name="Path 17" d="M31.645,295.459c2.813,6.733,10.49,9.491,15.192,14.576a3.051,3.051,0,0,1,.873,1.327c.164.685-.1.864-.739.99-.846.167-1.728.2-2.593.32a19.262,19.262,0,0,0-4.984,1.286,11.058,11.058,0,0,0-6.312,7.48c-.713,3.105.322,6.181,3.48,7.31,3.621,1.294,7.883,1.181,11.676,1.326,4.126.169,8.328.335,12.262,1.706,1.533.536,3.791,1.293,2.839,3.274-.6,1.238-1.584,2.25-2.181,3.5-1.471,3.084.667,5.982,3.8,6.671,3.614.8,7.747-.071,11.337-.7a74.842,74.842,0,0,1,11.873-1.569c.962-.01,3.474-.084,3.69,1.281.135.9-1.064,1.975-1.612,2.554-.583.61-1.18,1.2-1.721,1.835-1.979,2.288-2.664,5.352-.206,7.593,2.167,1.972,5.356,2.467,8.172,2.6,12.754.644,24.253-8.276,37.092-6.183.764.126,1.027-.618.813-1.2a.858.858,0,0,0-.384-.93,17.24,17.24,0,0,1-5.909-7.36c-2.929-6.542-2.751-13.83-3.476-20.813a38.322,38.322,0,0,0-2.4-10.629c-1.144-2.788-3.415-5.771-6.819-5.267-3.677.549-4.228,5.139-4.4,8.126-.2,3.629.536,8.044-1.4,11.32a3.409,3.409,0,0,1-4.225,1.741,6.113,6.113,0,0,1-3.367-4.018c-1.291-3.818-1.224-7.994-1.5-11.971a31.7,31.7,0,0,0-2.042-10.109c-1.171-2.794-3.158-5.65-6.157-6.641a4.651,4.651,0,0,0-3.938.361,6.5,6.5,0,0,0-2.443,4.232c-.906,3.921-.228,8.182-1.583,12-.609,1.743-2.025,2.815-3.716,1.52a8.941,8.941,0,0,1-2.6-4.147,40.34,40.34,0,0,1-1.716-8.815,31.084,31.084,0,0,0-2.025-8.655c-1.021-2.31-3.273-5.815-6.286-5.115-3.43.8-3.171,6.27-3.652,8.908-.328,1.794-.887,4.226-2.542,5.265-1.789,1.142-3.783-.406-4.86-1.8-1.122-1.446-1.951-3.112-3.005-4.609a30.252,30.252,0,0,0-3.491-4.186,17.325,17.325,0,0,0-8.7-5.02,10.155,10.155,0,0,0-8.7,1.968C30.553,289.047,30.413,292.51,31.645,295.459Z" fill="#14d8d2"/>
          <path id="Path_18" data-name="Path 18" d="M44.408,295.982a317.4,317.4,0,0,0,25.125,19.847q.341-8.115-.1-16.234c-.067-1.185,1.775-1.121,1.841.054a165.533,165.533,0,0,1,.066,17.313l0,.014a.835.835,0,0,1,.112.2q10.023,7.021,20.57,13.254-.192-11.133-.629-22.26c-.048-1.186,1.794-1.124,1.841.054q.467,11.65.652,23.308,6.6,3.844,13.37,7.37,4.206,2.187,8.478,4.236.1-10.231-.513-20.452c-.072-1.184,1.77-1.12,1.841.055q.638,10.518.511,21.062a.913.913,0,0,1-.042.2q4.583,2.175,9.232,4.206c1.074.468.545,2.234-.541,1.76q-5.005-2.181-9.926-4.541a78.731,78.731,0,0,1-19.319,7.425.921.921,0,0,1-.421-1.793,76.829,76.829,0,0,0,17.675-6.625Q103.3,339.118,92.8,333q-10.848,1.5-21.555,3.827a.922.922,0,0,1-.421-1.794q9.648-2.1,19.424-3.514-10.262-6.108-20.052-12.97-11.613.791-23.253,1.042c-1.188.025-1.127-1.816.054-1.841q10.411-.224,20.806-.888-4.032-2.885-7.976-5.894-8.616-6.582-16.771-13.736C42.162,296.449,43.523,295.207,44.408,295.982Z" opacity="0.43" style="mix-blend-mode: overlay;isolation: isolate"/>
        </g>
      </g>
      <g id="Group_19" data-name="Group 19">
        <path id="Path_19" data-name="Path 19" d="M114.759,365.058l.151-1.1-.222-.037H362.832l45.821,53.194H69.922Z" fill="#e02053"/>
        <rect id="Rectangle_17" data-name="Rectangle 17" width="338.731" height="4.866" transform="translate(69.922 417.111)" fill="#ff3363"/>
        <rect id="Rectangle_18" data-name="Rectangle 18" width="338.731" height="4.866" transform="translate(69.922 437.874)" fill="#ff3363"/>
        <path id="Path_20" data-name="Path 20" d="M72.975,421.977s5.591,7.705,0,15.9h333s-7.212-6.518,0-15.9Z" fill="#fff8e3"/>
        <path id="Path_21" data-name="Path 21" d="M396.349,425.77H79.777c-.511,0-.439.917.069.917H396.418C396.928,426.687,396.856,425.77,396.349,425.77Z" fill="#e5cfa3"/>
        <path id="Path_22" data-name="Path 22" d="M396.679,429.994H80.438c-.51,0-.438.917.069.917H396.749C397.259,430.911,397.187,429.994,396.679,429.994Z" fill="#e5cfa3"/>
        <path id="Path_23" data-name="Path 23" d="M395.356,434.985H79.115c-.511,0-.438.917.069.917H395.425C395.936,435.9,395.864,434.985,395.356,434.985Z" fill="#e5cfa3"/>
        <path id="Path_24" data-name="Path 24" d="M405.976,421.977l-333,15.9a15.485,15.485,0,0,0,0-15.9Z" opacity="0.43" style="mix-blend-mode: overlay;isolation: isolate"/>
      </g>
      <g id="Group_22" data-name="Group 22">
        <g id="Group_20" data-name="Group 20">
          <path id="Path_25" data-name="Path 25" d="M455.987,335.289c-.23,2.265-2.348,3.453-4.337,3.969a44.963,44.963,0,0,1-7.348,1.04c-5.23.461-10.552.571-15.681,1.833a24.2,24.2,0,0,0-7.265,2.882c-.451.285-1.1.736-1.178,1.316-.092.645.58.93,1.1,1.068,1.133.314,2.33.47,3.49.7,4.659.921,9.586,2.109,13.2,5.405,1.538,1.4,2.836,3.536,2.569,5.691-.322,2.486-2.781,3.131-4.88,3.508-5.239.958-10.608.58-15.9.424-5.175-.166-10.534-.175-15.469,1.62A11.284,11.284,0,0,0,400.9,366.4a1.463,1.463,0,0,0,.046,2.467,7.619,7.619,0,0,0,2.781,1.179,18.858,18.858,0,0,1,3.14,1.077c3.987,1.823,7.689,5.442,8.462,9.908.369,2.136-.156,4.512-2.136,5.681-2.063,1.207-4.733.995-7.016.728-5.277-.608-10.24-2.643-15.286-4.208a43.651,43.651,0,0,0-7.6-1.759,10.169,10.169,0,0,0-3.693-.064c-.819.193-2.025.81-1.454,1.832A4.472,4.472,0,0,0,379.5,384.5l1.8,1.381c1.2.912,2.385,1.824,3.582,2.744,1.887,1.446,3.959,3.242,4,5.829.083,5.543-8.094,4.659-11.575,3.8-5.036-1.225-9.6-3.821-14.567-5.276a25.363,25.363,0,0,0-16.344.663.462.462,0,0,1-.617-.387,1.175,1.175,0,0,1-.009-.4.408.408,0,0,1,.221-.635c.083-.019.148-.046.23-.065a1.266,1.266,0,0,1,.691-.23c3.573-1.353,6.031-4.567,7.339-8.112,1.841-4.982,1.188-10.35.165-15.442-.589-2.937-1.307-5.847-1.8-8.8a53.57,53.57,0,0,1-.755-8.664,47.465,47.465,0,0,1,.764-8.775c.451-2.487.967-5.36,2.569-7.394,1.372-1.75,3.9-2.68,5.884-1.363a7.549,7.549,0,0,1,2.256,2.753,18.348,18.348,0,0,1,1.418,3.361,56.666,56.666,0,0,1,1.538,7.431,23.342,23.342,0,0,0,1.979,7.182,5.037,5.037,0,0,0,2.192,2.274,3.358,3.358,0,0,0,3.278-.4c2.035-1.39,3.011-3.941,3.563-6.243,1.188-4.88.433-9.963-.193-14.861-.626-4.917-1.271-10.019-.074-14.9a10.638,10.638,0,0,1,3.159-5.617,4.775,4.775,0,0,1,5.773-.644c1.98,1.243,3.057,3.582,3.655,5.755a49.376,49.376,0,0,1,1.115,7.707,28.968,28.968,0,0,0,.644,3.867,6.71,6.71,0,0,0,1.519,3.232,2.885,2.885,0,0,0,3.407.359,5.293,5.293,0,0,0,2.367-2.891,28.767,28.767,0,0,0,1.51-8.287c.23-3,.267-6.013.414-9.015.258-5.073.921-10.331,3.38-14.871a18.845,18.845,0,0,1,2.007-3.011,6.635,6.635,0,0,1,2.744-2.191c2.191-.755,3.757,1,4.484,2.864a25.8,25.8,0,0,1,.939,3.526c.332,1.483.673,2.956,1,4.429.35,1.51.691,3.02,1.041,4.531a15.326,15.326,0,0,0,1.1,3.775c1.243,2.375,4.2,2.182,6.068.69,2.063-1.639,3.186-4.419,4.107-6.8,1.915-4.982,2.891-10.3,5.35-15.074,2.109-4.07,5.4-7.808,10.027-8.876,4.1-.949,8.766.239,10.884,4.143,2.348,4.347,1,9.706-1.418,13.711-2.642,4.374-6.584,7.7-10.469,10.921-2.09,1.722-4.181,3.443-6.087,5.359a31.765,31.765,0,0,0-2.615,2.955,6.362,6.362,0,0,0-1.427,3.039,2.048,2.048,0,0,0,1.961,2.376,29.351,29.351,0,0,0,4.31.175,44.486,44.486,0,0,1,8.434.525,14.978,14.978,0,0,1,6.436,2.78C454.588,330.8,456.227,332.95,455.987,335.289Z" fill="#1476dd"/>
          <path id="Path_26" data-name="Path 26" d="M445.08,297.423c.683-.961-.723-2.152-1.41-1.184a425.7,425.7,0,0,1-30.885,38.55c-.809.9-1.629,1.783-2.445,2.673a249.986,249.986,0,0,0,.214-26.329c-.055-1.185-1.889-1.023-1.835.16a245.717,245.717,0,0,1-.293,27.743.964.964,0,0,0,.073.434q-8.79,9.463-18.148,18.377a234.629,234.629,0,0,1-5.078-34.414.922.922,0,0,0-1.835.161,237.435,237.435,0,0,0,5.369,35.719q-5.559,5.246-11.3,10.289-5.826,5.109-11.843,9.993a104.448,104.448,0,0,1-2.517-26.31c.036-1.183-1.8-1.012-1.835.16a106.034,106.034,0,0,0,2.766,27.429q-4.011,3.234-8.09,6.382c-.937.72.121,2.228,1.065,1.5q10.35-7.943,20.2-16.513a.913.913,0,0,0,.275.108q13.813,2.42,27.529,5.348c1.162.248,1.491-1.564.333-1.812q-13.164-2.811-26.421-5.148,7.993-7.026,15.64-14.436c.911-.885,1.813-1.781,2.717-2.674a.886.886,0,0,0,.385.131q15.2,1.58,30.338,3.724c1.172.166,1.508-1.645.333-1.811q-14.694-2.082-29.456-3.629,5.709-5.713,11.2-11.637,15.5-2.8,31.154-4.587a.922.922,0,0,0-.161-1.835q-14.531,1.657-28.939,4.2,8.227-9,15.932-18.454Q436.961,308.865,445.08,297.423Z" opacity="0.43" style="mix-blend-mode: overlay;isolation: isolate"/>
        </g>
        <g id="Group_21" data-name="Group 21">
          <path id="Path_27" data-name="Path 27" d="M462.593,360.958c-4.162,5.994-12.247,7.08-17.91,11.067a3.066,3.066,0,0,0-1.132,1.115c-.3.635-.083.865.515,1.123.792.341,1.648.552,2.468.856a19.3,19.3,0,0,1,4.6,2.3,11.06,11.06,0,0,1,4.6,8.637c.046,3.186-1.611,5.976-4.936,6.418-3.812.507-7.955-.5-11.694-1.151-4.07-.7-8.213-1.418-12.348-.9-1.611.2-3.977.47-3.462,2.606.323,1.335,1.078,2.532,1.4,3.876.792,3.324-1.906,5.709-5.111,5.728-3.7.027-7.559-1.7-10.939-3.057a74.715,74.715,0,0,0-11.279-4.024c-.939-.212-3.38-.811-3.877.479-.322.856.626,2.154,1.041,2.836.442.718.9,1.418,1.3,2.154,1.455,2.652,1.482,5.792-1.39,7.468-2.533,1.473-5.755,1.289-8.536.829-12.606-2.045-21.98-13.177-34.972-13.821-.773-.037-.875-.82-.543-1.345a.86.86,0,0,1,.571-.829,17.243,17.243,0,0,0,7.32-5.957c4.236-5.783,5.589-12.946,7.762-19.622a38.34,38.34,0,0,1,4.577-9.89c1.7-2.486,4.548-4.926,7.771-3.72,3.481,1.308,3.057,5.912,2.6,8.868-.562,3.591-2.21,7.753-1,11.362a3.408,3.408,0,0,0,3.766,2.588,6.115,6.115,0,0,0,4.135-3.223c2.062-3.462,2.872-7.56,3.977-11.39a31.752,31.752,0,0,1,4.116-9.457c1.731-2.486,4.273-4.862,7.413-5.2a4.653,4.653,0,0,1,3.775,1.178,6.494,6.494,0,0,1,1.5,4.65c.064,4.024-1.492,8.048-.967,12.063.23,1.832,1.39,3.176,3.315,2.265a8.948,8.948,0,0,0,3.416-3.508,40.462,40.462,0,0,0,3.527-8.26,31.057,31.057,0,0,1,3.793-8.038c1.483-2.045,4.42-5,7.219-3.684,3.186,1.5,1.787,6.8,1.7,9.475-.055,1.824-.019,4.319,1.381,5.682,1.51,1.491,3.785.4,5.129-.737,1.4-1.179,2.56-2.633,3.9-3.876a30.227,30.227,0,0,1,4.291-3.361,17.314,17.314,0,0,1,9.558-3.085,10.154,10.154,0,0,1,8.094,3.748C465.005,354.917,464.416,358.333,462.593,360.958Z" fill="#14d8d2"/>
          <path id="Path_28" data-name="Path 28" d="M450,358.794a317.133,317.133,0,0,1-28.728,14.138q1.368-8.006,3.506-15.851c.313-1.145-1.5-1.468-1.812-.333a165.278,165.278,0,0,0-3.694,16.914.075.075,0,0,0,0,.015.825.825,0,0,0-.152.175q-11.272,4.764-22.891,8.647,2.521-10.845,5.281-21.633c.295-1.151-1.519-1.476-1.812-.333q-2.9,11.292-5.523,22.653-7.255,2.376-14.618,4.4-4.57,1.257-9.178,2.365,2.047-10.026,4.789-19.89c.319-1.143-1.5-1.466-1.811-.333q-2.829,10.152-4.916,20.488a.85.85,0,0,0,0,.2q-4.938,1.166-9.909,2.177c-1.149.233-1,2.07.16,1.835q5.351-1.085,10.657-2.36a78.755,78.755,0,0,0,17.333,11.31.921.921,0,0,0,.787-1.665,76.835,76.835,0,0,1-15.892-10.183q11.8-2.908,23.35-6.693,10.291,3.739,20.273,8.261a.922.922,0,0,0,.788-1.665q-8.993-4.077-18.256-7.509,11.314-3.82,22.325-8.478,11.19,3.207,22.519,5.894c1.156.273,1.482-1.54.333-1.812q-10.134-2.4-20.158-5.23,4.548-1.976,9.035-4.091,9.8-4.629,19.277-9.915C452.1,359.721,451.031,358.221,450,358.794Z" opacity="0.43" style="mix-blend-mode: overlay;isolation: isolate"/>
        </g>
      </g>
      <g id="Group_23" data-name="Group 23">
        <path id="Path_29" data-name="Path 29" d="M123.979,308.4l.122-1.546-.179-.052H324.3l37,74.445H87.773Z" fill="#ffae43"/>
        <rect id="Rectangle_19" data-name="Rectangle 19" width="273.526" height="6.81" transform="translate(87.773 381.242)" fill="#ffc952"/>
        <rect id="Rectangle_20" data-name="Rectangle 20" width="273.526" height="6.81" transform="translate(87.772 410.3)" fill="#ffc952"/>
        <path id="Path_30" data-name="Path 30" d="M90.238,388.053s4.515,10.782,0,22.247h268.9s-5.824-9.122,0-22.247Z" fill="#fff8e3"/>
        <path id="Path_31" data-name="Path 31" d="M351.364,393.361H95.73c-.412,0-.354,1.284.056,1.284H351.42C351.832,394.645,351.773,393.361,351.364,393.361Z" fill="#e5cfa3"/>
        <path id="Path_32" data-name="Path 32" d="M351.631,399.272H96.265c-.413,0-.354,1.283.055,1.283H351.687C352.1,400.555,352.041,399.272,351.631,399.272Z" fill="#e5cfa3"/>
        <path id="Path_33" data-name="Path 33" d="M350.562,406.257H95.2c-.412,0-.354,1.284.056,1.284H350.618C351.03,407.541,350.972,406.257,350.562,406.257Z" fill="#e5cfa3"/>
        <path id="Path_34" data-name="Path 34" d="M359.138,388.053,90.238,410.3a35.5,35.5,0,0,0,0-22.247Z" opacity="0.43" style="mix-blend-mode: overlay;isolation: isolate"/>
      </g>
    </g>
    <g id="Group_53" data-name="Group 53">
      <g id="Group_30" data-name="Group 30">
        <g id="Group_25" data-name="Group 25">
          <path id="Path_35" data-name="Path 35" d="M383.246,135.081H120.111a16.758,16.758,0,0,0-16.74,16.74V314.112a16.758,16.758,0,0,0,16.74,16.74H383.246a16.758,16.758,0,0,0,16.74-16.74V151.821A16.758,16.758,0,0,0,383.246,135.081Zm13.978,179.031a13.994,13.994,0,0,1-13.978,13.977H120.111a13.994,13.994,0,0,1-13.978-13.977V151.821a13.994,13.994,0,0,1,13.978-13.977H383.246a13.994,13.994,0,0,1,13.978,13.977Z" fill="#b2b4d3"/>
          <rect id="Rectangle_21" data-name="Rectangle 21" width="291.091" height="190.245" rx="13.978" transform="translate(106.133 137.844)" fill="#d9e4eb"/>
          <path id="Path_36" data-name="Path 36" d="M394.047,152.678V313.716a11.661,11.661,0,0,1-11.666,11.657H120.5a11.675,11.675,0,0,1-11.666-11.657V152.678Z" fill="#14d8d2"/>
          <path id="Path_37" data-name="Path 37" d="M108.835,152.674a11.659,11.659,0,0,1,11.659-11.659H382.385a11.659,11.659,0,0,1,11.659,11.659Z" fill="#111414"/>
        </g>
        <path id="Path_38" data-name="Path 38" d="M424.839,362.076H74.918l25.34-25.35a20.08,20.08,0,0,1,14.19-5.874H385.3a20.094,20.094,0,0,1,14.189,5.874Z" fill="#d9e4eb"/>
        <path id="Path_39" data-name="Path 39" d="M424.839,362.076v1.869a10.571,10.571,0,0,1-10.571,10.571H85.48a10.571,10.571,0,0,1-10.571-10.571v-1.869Z" fill="#b2b4d3"/>
        <path id="Rectangle_22" data-name="Rectangle 22" d="M0,0H72.953a0,0,0,0,1,0,0V0a6.22,6.22,0,0,1-6.22,6.22H6.22A6.22,6.22,0,0,1,0,0V0A0,0,0,0,1,0,0Z" transform="translate(212.772 362.076)" fill="#111414"/>
        <path id="Path_40" data-name="Path 40" d="M294.939,356.6H199.2L206.136,346a4.787,4.787,0,0,1,3.882-2.456h74.1A4.79,4.79,0,0,1,288,346Z" fill="#fff"/>
        <path id="Path_41" data-name="Path 41" d="M390.89,338.48H110.342c-.592,0-.509.917.08.917H390.97C391.562,339.4,391.479,338.48,390.89,338.48Z" fill="#fff"/>
        <path id="Path_42" data-name="Path 42" d="M388.586,333.361H112.134c-.592,0-.509.917.08.917H388.666C389.259,334.278,389.175,333.361,388.586,333.361Z" fill="#fff"/>
        <g id="Group_29" data-name="Group 29">
          <g id="Group_26" data-name="Group 26" opacity="0.75" style="mix-blend-mode: overlay;isolation: isolate">
            <path id="Path_43" data-name="Path 43" d="M377.206,173.834V311.319a12.138,12.138,0,0,1-11.849,12.341H139.139a12.138,12.138,0,0,1-11.849-12.341V173.834Z"/>
            <path id="Path_44" data-name="Path 44" d="M377.206,168.443v5.391H127.29v-5.391a11.884,11.884,0,0,1,11.849-11.849H365.357A11.884,11.884,0,0,1,377.206,168.443Z"/>
            <circle id="Ellipse_4" data-name="Ellipse 4" cx="4.255" cy="4.255" r="4.255" transform="translate(353.064 160.932)"/>
            <circle id="Ellipse_5" data-name="Ellipse 5" cx="4.255" cy="4.255" r="4.255" transform="translate(336.486 160.959)"/>
            <circle id="Ellipse_6" data-name="Ellipse 6" cx="4.255" cy="4.255" r="4.255" transform="translate(318.981 160.959)"/>
          </g>
          <g id="Group_28" data-name="Group 28">
            <g id="Group_27" data-name="Group 27">
              <path id="Path_45" data-name="Path 45" d="M374.206,171.834V309.319a12.138,12.138,0,0,1-11.849,12.341H136.139a12.138,12.138,0,0,1-11.849-12.341V171.834Z" fill="#cbf4ef"/>
              <path id="Path_46" data-name="Path 46" d="M374.206,166.443v5.391H124.29v-5.391a11.884,11.884,0,0,1,11.849-11.849H362.357A11.884,11.884,0,0,1,374.206,166.443Z" fill="#ff3363"/>
              <circle id="Ellipse_7" data-name="Ellipse 7" cx="4.255" cy="4.255" r="4.255" transform="translate(350.064 158.932)" fill="#1476dd"/>
              <circle id="Ellipse_8" data-name="Ellipse 8" cx="4.255" cy="4.255" r="4.255" transform="translate(333.486 158.959)" fill="pink"/>
              <circle id="Ellipse_9" data-name="Ellipse 9" cx="4.255" cy="4.255" r="4.255" transform="translate(315.981 158.959)" fill="#fdffff"/>
            </g>
          </g>
        </g>
      </g>
      <g id="Group_31" data-name="Group 31">
        <path id="Path_47" data-name="Path 47" d="M377.29,206.29H301.966v-8.8H377.29a1.715,1.715,0,0,0-.536.074c-.033.009-.066.009-.1.018a3.037,3.037,0,0,0-1.6,1.2,5.427,5.427,0,0,0-.926,3.112C374.129,204.31,375.551,206.29,377.29,206.29Z" fill="#ffc952"/>
        <path id="Path_48" data-name="Path 48" d="M377.29,215.093H301.966v-8.8H377.29a2.821,2.821,0,0,0-2.235,1.289,5.427,5.427,0,0,0-.926,3.112C374.129,213.113,375.551,215.093,377.29,215.093Z" fill="#ffae43"/>
        <path id="Path_49" data-name="Path 49" d="M376.3,223.674a2.309,2.309,0,0,0,.992.231H301.966v-8.812H377.29a2.807,2.807,0,0,0-2.235,1.3,5.377,5.377,0,0,0-.926,3.1A4.53,4.53,0,0,0,376.3,223.674Z" fill="#ffc952"/>
        <path id="Path_50" data-name="Path 50" d="M400.6,205.038c-.5,3.71-3.717,8.894-3.717,8.894l-19.6,9.973s-.377-.065-.992-.231a4.53,4.53,0,0,1-2.169-4.18,5.377,5.377,0,0,1,.926-3.1,2.807,2.807,0,0,1,2.235-1.3c-1.739,0-3.161-1.98-3.161-4.4a5.427,5.427,0,0,1,.926-3.112,2.821,2.821,0,0,1,2.235-1.289c-1.739,0-3.161-1.98-3.161-4.4a5.427,5.427,0,0,1,.926-3.112,3.037,3.037,0,0,1,1.6-1.2c.033-.009.066-.009.1-.018.338-.056.536-.074.536-.074Z" fill="pink"/>
        <path id="Path_51" data-name="Path 51" d="M389.432,201.42l3.589,14.479,3.865-1.967a17.866,17.866,0,0,0,3.717-8.894Z" fill="#111414"/>
      </g>
      <g id="Group_39" data-name="Group 39">
        <g id="Group_34" data-name="Group 34">
          <g id="Group_32" data-name="Group 32">
            <circle id="Ellipse_10" data-name="Ellipse 10" cx="2.289" cy="2.289" r="2.289" transform="translate(133.973 184.216)" fill="#ff3363"/>
            <circle id="Ellipse_11" data-name="Ellipse 11" cx="2.289" cy="2.289" r="2.289" transform="translate(143.595 184.216)" fill="#ff3363"/>
            <circle id="Ellipse_12" data-name="Ellipse 12" cx="2.289" cy="2.289" r="2.289" transform="translate(153.217 184.216)" fill="#ff3363"/>
            <circle id="Ellipse_13" data-name="Ellipse 13" cx="2.289" cy="2.289" r="2.289" transform="translate(162.838 184.216)" fill="#ff3363"/>
            <circle id="Ellipse_14" data-name="Ellipse 14" cx="2.289" cy="2.289" r="2.289" transform="translate(172.46 184.216)" fill="#ff3363"/>
          </g>
          <g id="Group_33" data-name="Group 33">
            <circle id="Ellipse_15" data-name="Ellipse 15" cx="2.289" cy="2.289" r="2.289" transform="translate(133.973 193.978)" fill="#ff3363"/>
            <circle id="Ellipse_16" data-name="Ellipse 16" cx="2.289" cy="2.289" r="2.289" transform="translate(143.595 193.978)" fill="#ff3363"/>
            <circle id="Ellipse_17" data-name="Ellipse 17" cx="2.289" cy="2.289" r="2.289" transform="translate(153.217 193.978)" fill="#ff3363"/>
            <circle id="Ellipse_18" data-name="Ellipse 18" cx="2.289" cy="2.289" r="2.289" transform="translate(162.838 193.978)" fill="#ff3363"/>
            <circle id="Ellipse_19" data-name="Ellipse 19" cx="2.289" cy="2.289" r="2.289" transform="translate(172.46 193.978)" fill="#ff3363"/>
          </g>
        </g>
        <g id="Group_38" data-name="Group 38">
          <g id="Group_35" data-name="Group 35">
            <circle id="Ellipse_20" data-name="Ellipse 20" cx="2.289" cy="2.289" r="2.289" transform="translate(133.973 155.891)" fill="#ff3363"/>
            <circle id="Ellipse_21" data-name="Ellipse 21" cx="2.289" cy="2.289" r="2.289" transform="translate(143.595 155.891)" fill="#ff3363"/>
            <circle id="Ellipse_22" data-name="Ellipse 22" cx="2.289" cy="2.289" r="2.289" transform="translate(153.217 155.891)" fill="#ff3363"/>
            <circle id="Ellipse_23" data-name="Ellipse 23" cx="2.289" cy="2.289" r="2.289" transform="translate(162.838 155.891)" fill="#ff3363"/>
            <circle id="Ellipse_24" data-name="Ellipse 24" cx="2.289" cy="2.289" r="2.289" transform="translate(172.46 155.891)" fill="#ff3363"/>
          </g>
          <g id="Group_36" data-name="Group 36">
            <circle id="Ellipse_25" data-name="Ellipse 25" cx="2.289" cy="2.289" r="2.289" transform="translate(133.973 165.653)" fill="#ff3363"/>
            <circle id="Ellipse_26" data-name="Ellipse 26" cx="2.289" cy="2.289" r="2.289" transform="translate(143.595 165.653)" fill="#ff3363"/>
            <circle id="Ellipse_27" data-name="Ellipse 27" cx="2.289" cy="2.289" r="2.289" transform="translate(153.217 165.653)" fill="#ff3363"/>
            <circle id="Ellipse_28" data-name="Ellipse 28" cx="2.289" cy="2.289" r="2.289" transform="translate(162.838 165.653)" fill="#ff3363"/>
            <circle id="Ellipse_29" data-name="Ellipse 29" cx="2.289" cy="2.289" r="2.289" transform="translate(172.46 165.653)" fill="#ff3363"/>
          </g>
          <g id="Group_37" data-name="Group 37">
            <circle id="Ellipse_30" data-name="Ellipse 30" cx="2.289" cy="2.289" r="2.289" transform="translate(133.973 175.415)" fill="#ff3363"/>
            <circle id="Ellipse_31" data-name="Ellipse 31" cx="2.289" cy="2.289" r="2.289" transform="translate(143.595 175.415)" fill="#ff3363"/>
            <circle id="Ellipse_32" data-name="Ellipse 32" cx="2.289" cy="2.289" r="2.289" transform="translate(153.217 175.415)" fill="#ff3363"/>
            <circle id="Ellipse_33" data-name="Ellipse 33" cx="2.289" cy="2.289" r="2.289" transform="translate(162.838 175.415)" fill="#ff3363"/>
            <circle id="Ellipse_34" data-name="Ellipse 34" cx="2.289" cy="2.289" r="2.289" transform="translate(172.46 175.415)" fill="#ff3363"/>
          </g>
        </g>
      </g>
      <g id="Group_47" data-name="Group 47">
        <g id="Group_42" data-name="Group 42">
          <g id="Group_40" data-name="Group 40">
            <circle id="Ellipse_35" data-name="Ellipse 35" cx="2.289" cy="2.289" r="2.289" transform="translate(324.395 292.945)" fill="#fff"/>
            <circle id="Ellipse_36" data-name="Ellipse 36" cx="2.289" cy="2.289" r="2.289" transform="translate(334.017 292.945)" fill="#fff"/>
            <circle id="Ellipse_37" data-name="Ellipse 37" cx="2.289" cy="2.289" r="2.289" transform="translate(343.639 292.945)" fill="#fff"/>
            <circle id="Ellipse_38" data-name="Ellipse 38" cx="2.289" cy="2.289" r="2.289" transform="translate(353.26 292.945)" fill="#fff"/>
            <circle id="Ellipse_39" data-name="Ellipse 39" cx="2.289" cy="2.289" r="2.289" transform="translate(362.882 292.945)" fill="#fff"/>
          </g>
          <g id="Group_41" data-name="Group 41">
            <circle id="Ellipse_40" data-name="Ellipse 40" cx="2.289" cy="2.289" r="2.289" transform="translate(324.395 302.707)" fill="#fff"/>
            <circle id="Ellipse_41" data-name="Ellipse 41" cx="2.289" cy="2.289" r="2.289" transform="translate(334.017 302.707)" fill="#fff"/>
            <circle id="Ellipse_42" data-name="Ellipse 42" cx="2.289" cy="2.289" r="2.289" transform="translate(343.639 302.707)" fill="#fff"/>
            <circle id="Ellipse_43" data-name="Ellipse 43" cx="2.289" cy="2.289" r="2.289" transform="translate(353.26 302.707)" fill="#fff"/>
            <circle id="Ellipse_44" data-name="Ellipse 44" cx="2.289" cy="2.289" r="2.289" transform="translate(362.882 302.707)" fill="#fff"/>
          </g>
        </g>
        <g id="Group_46" data-name="Group 46">
          <g id="Group_43" data-name="Group 43">
            <circle id="Ellipse_45" data-name="Ellipse 45" cx="2.289" cy="2.289" r="2.289" transform="translate(324.395 264.619)" fill="#fff"/>
            <circle id="Ellipse_46" data-name="Ellipse 46" cx="2.289" cy="2.289" r="2.289" transform="translate(334.017 264.619)" fill="#fff"/>
            <circle id="Ellipse_47" data-name="Ellipse 47" cx="2.289" cy="2.289" r="2.289" transform="translate(343.639 264.619)" fill="#fff"/>
            <circle id="Ellipse_48" data-name="Ellipse 48" cx="2.289" cy="2.289" r="2.289" transform="translate(353.26 264.619)" fill="#fff"/>
            <circle id="Ellipse_49" data-name="Ellipse 49" cx="2.289" cy="2.289" r="2.289" transform="translate(362.882 264.619)" fill="#fff"/>
          </g>
          <g id="Group_44" data-name="Group 44">
            <circle id="Ellipse_50" data-name="Ellipse 50" cx="2.289" cy="2.289" r="2.289" transform="translate(324.395 274.382)" fill="#fff"/>
            <circle id="Ellipse_51" data-name="Ellipse 51" cx="2.289" cy="2.289" r="2.289" transform="translate(334.017 274.382)" fill="#fff"/>
            <circle id="Ellipse_52" data-name="Ellipse 52" cx="2.289" cy="2.289" r="2.289" transform="translate(343.639 274.382)" fill="#fff"/>
            <circle id="Ellipse_53" data-name="Ellipse 53" cx="2.289" cy="2.289" r="2.289" transform="translate(353.26 274.382)" fill="#fff"/>
            <circle id="Ellipse_54" data-name="Ellipse 54" cx="2.289" cy="2.289" r="2.289" transform="translate(362.882 274.382)" fill="#fff"/>
          </g>
          <g id="Group_45" data-name="Group 45">
            <circle id="Ellipse_55" data-name="Ellipse 55" cx="2.289" cy="2.289" r="2.289" transform="translate(324.395 284.144)" fill="#fff"/>
            <circle id="Ellipse_56" data-name="Ellipse 56" cx="2.289" cy="2.289" r="2.289" transform="translate(334.017 284.144)" fill="#fff"/>
            <circle id="Ellipse_57" data-name="Ellipse 57" cx="2.289" cy="2.289" r="2.289" transform="translate(343.639 284.144)" fill="#fff"/>
            <circle id="Ellipse_58" data-name="Ellipse 58" cx="2.289" cy="2.289" r="2.289" transform="translate(353.26 284.144)" fill="#fff"/>
            <circle id="Ellipse_59" data-name="Ellipse 59" cx="2.289" cy="2.289" r="2.289" transform="translate(362.882 284.144)" fill="#fff"/>
          </g>
        </g>
      </g>
      <path id="Path_52" data-name="Path 52" d="M191.61,285.953H338.966L191.61,297.523Z" fill="#97f2ed"/>
      <g id="Group_52" data-name="Group 52">
        <g id="Group_50" data-name="Group 50">
          <rect id="Rectangle_23" data-name="Rectangle 23" width="147.356" height="208.747" transform="translate(192.166 77.205)" fill="#fff"/>
          <g id="Group_48" data-name="Group 48">
            <path id="Path_53" data-name="Path 53" d="M305.818,257.027l-10.367,45.819,17.534-12.671,17.4,15.742-8.566-48.891Z" fill="#1476dd"/>
            <path id="Path_54" data-name="Path 54" d="M317.016,210.245h0a3.327,3.327,0,0,1,6.378,1.356h0a3.327,3.327,0,0,0,5.575,2.482h0a3.327,3.327,0,0,1,5.276,3.833h0a3.327,3.327,0,0,0,4.083,4.535h0a3.327,3.327,0,0,1,3.261,5.647h0a3.327,3.327,0,0,0,1.886,5.8h0a3.327,3.327,0,0,1,.681,6.485h0a3.327,3.327,0,0,0-.638,6.069h0a3.327,3.327,0,0,1-2.015,6.2h0a3.327,3.327,0,0,0-3.051,5.285h0a3.327,3.327,0,0,1-4.363,4.846h0a3.328,3.328,0,0,0-4.938,3.587h0a3.327,3.327,0,0,1-5.957,2.652h0a3.327,3.327,0,0,0-5.969,1.269h0a3.327,3.327,0,0,1-6.521,0h0a3.327,3.327,0,0,0-5.969-1.269h0a3.327,3.327,0,0,1-5.957-2.652h0a3.327,3.327,0,0,0-4.937-3.587h0a3.328,3.328,0,0,1-4.364-4.846h0a3.327,3.327,0,0,0-3.051-5.285h0a3.327,3.327,0,0,1-2.015-6.2h0a3.327,3.327,0,0,0-.638-6.069h0a3.327,3.327,0,0,1,.682-6.485h0a3.328,3.328,0,0,0,1.886-5.8h0a3.327,3.327,0,0,1,3.26-5.647h0a3.327,3.327,0,0,0,4.083-4.535h0a3.327,3.327,0,0,1,5.276-3.833h0a3.327,3.327,0,0,0,5.575-2.482h0a3.327,3.327,0,0,1,6.378-1.356h0A3.328,3.328,0,0,0,317.016,210.245Z" fill="#ffc952"/>
            <path id="Path_55" data-name="Path 55" d="M339.56,240.6a24.553,24.553,0,0,1-.369,4.309,25.6,25.6,0,0,1-50.827-4.309,25.622,25.622,0,0,1,32.052-24.769A25.561,25.561,0,0,1,339.56,240.6Z" fill="#ff3363"/>
            <path id="Path_56" data-name="Path 56" d="M313.965,224.091l5.073,10.279,11.344,1.648-8.209,8,1.938,11.3-10.146-5.334-10.146,5.334,1.938-11.3-8.209-8,11.344-1.648Z" fill="#ffc952"/>
            <path id="Path_57" data-name="Path 57" d="M334.357,225.136l-43.121,27.237a25.338,25.338,0,0,1-2.872-11.777,25.853,25.853,0,0,1,.451-4.816l31.6-19.953A25.535,25.535,0,0,1,334.357,225.136Z" fill="#fff" style="mix-blend-mode: soft-light;isolation: isolate"/>
            <path id="Path_58" data-name="Path 58" d="M339.56,240.6a24.553,24.553,0,0,1-.369,4.309L307.01,265.237a25.471,25.471,0,0,1-10.35-5.774l41.776-26.39A25.671,25.671,0,0,1,339.56,240.6Z" fill="#fff" style="mix-blend-mode: soft-light;isolation: isolate"/>
          </g>
          <rect id="Rectangle_24" data-name="Rectangle 24" width="70.634" height="0.949" transform="translate(205.151 261.525)" fill="#ff3363"/>
          <path id="Path_59" data-name="Path 59" d="M271.973,253.536a20.1,20.1,0,0,1-7.736,4.968,8.009,8.009,0,0,1-4.949.388,4.609,4.609,0,0,1-1.8-1.059c.648-.386,1.274-.8,1.866-1.233a21.132,21.132,0,0,0,3.7-3.464c.967-1.156,2.241-2.7,1.728-4.318a2.09,2.09,0,0,0-1.356-1.412,2.84,2.84,0,0,0-2.223.631A16.577,16.577,0,0,0,257.2,251.6c-1.045,1.294-1.937,2.936-1.552,4.649a4.053,4.053,0,0,0,.58,1.337,20.931,20.931,0,0,1-2.1.961c-2.375.928-5.369,1.684-7.788.48a4.028,4.028,0,0,1-1.584-1.381,16.94,16.94,0,0,0,6.631-6.631c.676-1.31.869-3.217-.538-4.144s-3.171.054-4.295.976c-2.45,2.009-4.028,5.437-3.223,8.605a5.2,5.2,0,0,0,.321.889,14.328,14.328,0,0,1-5.35,1.631c-2.5.216-5.42-.708-6.617-3.016a23.285,23.285,0,0,0,3.807-3.131,22.527,22.527,0,0,0,3.038-3.867,4.235,4.235,0,0,0,.878-2.357,1.8,1.8,0,0,0-1.1-1.625,3.094,3.094,0,0,0-2.32.481,8.741,8.741,0,0,0-1.965,1.449,13.42,13.42,0,0,0-3.1,4.332,6.04,6.04,0,0,0-.27,4.374c-.293.181-.577.376-.878.543-2.642,1.462-5.955,2.732-9,2.019a5.875,5.875,0,0,1-3.407-2.159,4.253,4.253,0,0,1-.567-1.075,20.969,20.969,0,0,0,5.111-3.768,19.4,19.4,0,0,0,2.827-3.628c.757-1.253,1.605-3.186.174-4.331-1.343-1.075-3.216.391-4.284,1.229a13.985,13.985,0,0,0-3.219,3.584,9.238,9.238,0,0,0-1.558,6.49,20.021,20.021,0,0,1-6.8,1.95,18.524,18.524,0,0,1-3.939-.029c-.523-.06-.674.747-.149.807a20.423,20.423,0,0,0,11.121-1.939,5.271,5.271,0,0,0,1.32,1.984c2.672,2.545,6.648,2.124,9.835.931a22.184,22.184,0,0,0,3.76-1.84,6.6,6.6,0,0,0,3,2.739c3.2,1.487,7.052.473,10.041-1.074a5.039,5.039,0,0,0,2.01,1.755,7.979,7.979,0,0,0,4.306.58,17.509,17.509,0,0,0,6.4-2.133,5.341,5.341,0,0,0,1.611,1.159c3.285,1.534,7.364-.325,10.189-2.073a21.251,21.251,0,0,0,4.05-3.272C272.971,253.684,272.34,253.159,271.973,253.536Zm-55.246-1.957a12.434,12.434,0,0,1,5.016-6.939,4.4,4.4,0,0,1,2.019-.982c.894-.044,1.206.968,1.073,1.689a6.183,6.183,0,0,1-.959,2.04,17.7,17.7,0,0,1-1.2,1.691,19.863,19.863,0,0,1-6.083,5.06A6.264,6.264,0,0,1,216.727,251.579Zm14.573,3.4a5.956,5.956,0,0,1,.875-4.41,13.03,13.03,0,0,1,2.954-3.551,6.682,6.682,0,0,1,1.86-1.112c.376-.142.874-.322,1.234-.049a1.146,1.146,0,0,1,.353,1.028,5.333,5.333,0,0,1-1.038,2.113q-.576.872-1.234,1.685a22.2,22.2,0,0,1-4.939,4.493C231.344,255.107,231.318,255.044,231.3,254.976Zm13.321-3.277a8.655,8.655,0,0,1,2.588-3.327c1.005-.78,3.045-1.819,3.741-.108.591,1.455-.608,3.038-1.44,4.138a17.145,17.145,0,0,1-3.021,3.093,18.144,18.144,0,0,1-2.114,1.439A6.846,6.846,0,0,1,244.621,251.7ZM256.5,256.3c-.489-1.544.431-3.087,1.377-4.243a15.9,15.9,0,0,1,3.429-3.115c.578-.388,1.469-1.1,2.174-.618a1.654,1.654,0,0,1,.5,1.86,6.159,6.159,0,0,1-1.194,1.976,19.833,19.833,0,0,1-1.456,1.651,20.472,20.472,0,0,1-4.391,3.38A3.463,3.463,0,0,1,256.5,256.3Z" fill="#140b11"/>
          <rect id="Rectangle_25" data-name="Rectangle 25" width="133.927" height="32.253" transform="translate(198.88 81.941)" fill="#ff3363"/>
          <g id="Group_49" data-name="Group 49">
            <path id="Path_60" data-name="Path 60" d="M216.591,102.412V92.73a4.142,4.142,0,1,1,8.284,0v2.046h-2.6V92.73a1.527,1.527,0,1,0-3.045,0v9.682a1.527,1.527,0,1,0,3.045,0v-2.5h2.6v2.5a4.142,4.142,0,1,1-8.284,0Z" fill="#fff"/>
            <path id="Path_61" data-name="Path 61" d="M227.3,88.838h7.511v2.5h-4.866V96.2h3.868v2.5h-3.868v5.116h4.866v2.5H227.3Z" fill="#fff"/>
            <path id="Path_62" data-name="Path 62" d="M242.97,106.305l-1.921-7.212h-1.373v7.212h-2.645V88.838h4.143A3.9,3.9,0,0,1,245.316,93v1.921a3.969,3.969,0,0,1-1.822,3.568l2.221,7.811ZM239.676,96.6h1.373a1.484,1.484,0,0,0,1.622-1.622V92.955a1.484,1.484,0,0,0-1.622-1.622h-1.373Z" fill="#fff"/>
            <path id="Path_63" data-name="Path 63" d="M246.99,88.838h8.434v2.5h-2.895v14.972h-2.645V91.333H246.99Z" fill="#fff"/>
            <path id="Path_64" data-name="Path 64" d="M257.471,88.838h2.645v17.467h-2.645Z" fill="#fff"/>
            <path id="Path_65" data-name="Path 65" d="M263.011,88.838H270.4v2.5h-4.741v5.116H269.4v2.5h-3.742v7.361h-2.646Z" fill="#fff"/>
            <path id="Path_66" data-name="Path 66" d="M272.445,88.838h2.646v17.467h-2.646Z" fill="#fff"/>
            <path id="Path_67" data-name="Path 67" d="M277.761,102.412V92.73a4.143,4.143,0,0,1,8.285,0v2.046h-2.6V92.73a1.527,1.527,0,1,0-3.045,0v9.682a1.527,1.527,0,1,0,3.045,0v-2.5h2.6v2.5a4.143,4.143,0,0,1-8.285,0Z" fill="#fff"/>
            <path id="Path_68" data-name="Path 68" d="M293.683,102.437h-2.845l-.573,3.868h-2.646l2.9-17.467h3.544l2.894,17.467h-2.7Zm-.349-2.545-1.073-7.311-1.074,7.311Z" fill="#fff"/>
            <path id="Path_69" data-name="Path 69" d="M297.1,88.838h8.434v2.5h-2.895v14.972H300V91.333H297.1Z" fill="#fff"/>
            <path id="Path_70" data-name="Path 70" d="M307.585,88.838H315.1v2.5h-4.866V96.2H314.1v2.5h-3.867v5.116H315.1v2.5h-7.512Z" fill="#fff"/>
          </g>
          <rect id="Rectangle_26" data-name="Rectangle 26" width="132.377" height="3.584" transform="translate(199.655 123.665)" fill="#dae6e8"/>
          <rect id="Rectangle_27" data-name="Rectangle 27" width="132.377" height="3.584" transform="translate(199.655 136.052)" fill="#dae6e8"/>
          <rect id="Rectangle_28" data-name="Rectangle 28" width="132.377" height="3.584" transform="translate(199.655 148.697)" fill="#dae6e8"/>
          <rect id="Rectangle_29" data-name="Rectangle 29" width="132.377" height="3.584" transform="translate(199.655 161.084)" fill="#dae6e8"/>
          <rect id="Rectangle_30" data-name="Rectangle 30" width="132.377" height="3.584" transform="translate(200.516 173.452)" fill="#dae6e8"/>
          <rect id="Rectangle_31" data-name="Rectangle 31" width="58.278" height="3.584" transform="translate(200.516 185.839)" fill="#dae6e8"/>
          <rect id="Rectangle_32" data-name="Rectangle 32" width="132.377" height="3.584" transform="translate(200.516 196.314)" fill="#ff3363"/>
          <rect id="Rectangle_33" data-name="Rectangle 33" width="58.278" height="3.584" transform="translate(200.516 208.702)" fill="#ff3363"/>
          <rect id="Rectangle_34" data-name="Rectangle 34" width="58.278" height="3.584" transform="translate(200.516 219.633)" fill="#ff3363"/>
        </g>
        <g id="Group_51" data-name="Group 51">
          <path id="Path_71" data-name="Path 71" d="M120.5,325.373h61.558l13.823-78.841H144.811Z" fill="#1476dd"/>
          <path id="Path_72" data-name="Path 72" d="M142.171,255.092l-5.086,16.491,54.936-3.056,1.738-9.916Z" fill="#ffc952"/>
          <path id="Path_73" data-name="Path 73" d="M192.126,246.534V236.8c21.934-14.724,12.67-37.633,11.4-40.488C205.008,199.408,216.767,226.185,192.126,246.534Z" fill="#ddd"/>
          <path id="Path_74" data-name="Path 74" d="M215.33,179.123a131.043,131.043,0,0,1-11.943,16.9s.056.1.139.294c1.27,2.855,10.534,25.764-11.4,40.488-.6.4-1.225.8-1.878,1.2l-1.7,8.535H150.828l10.406-20.312s4.014-50.6,9.557-55.8S192.126,158.3,192.126,158.3v24.4s13.481-17.145,19.447-24.4S220.708,169.915,215.33,179.123Z" fill="pink"/>
          <path id="Path_75" data-name="Path 75" d="M192.123,182.709l-7.667,7.381,7.667-31.783Z" style="mix-blend-mode: overlay;isolation: isolate"/>
          <path id="Path_76" data-name="Path 76" d="M206.033,166.907a15.839,15.839,0,0,0-.42,2.747,2.788,2.788,0,0,0,.667,1.971,1.2,1.2,0,0,0,1.323.269,6.056,6.056,0,0,0,1.908-1.108,17.447,17.447,0,0,0,3.531-3.7,23.075,23.075,0,0,0,2.595-4.849,9.957,9.957,0,0,1-.691,5.893,12.115,12.115,0,0,1-3.753,4.848,7.065,7.065,0,0,1-3.069,1.479,3.719,3.719,0,0,1-2.071-.216,3.251,3.251,0,0,1-1.566-1.4,4.05,4.05,0,0,1-.193-3.466A7.394,7.394,0,0,1,206.033,166.907Z" style="mix-blend-mode: overlay;isolation: isolate"/>
          <path id="Path_77" data-name="Path 77" d="M195.878,246.532,120.5,325.373h61.558Z" opacity="0.43" style="mix-blend-mode: overlay;isolation: isolate"/>
        </g>
      </g>
    </g>
  </g>
</svg>
