<svg id="Group_136" data-name="Group 136" xmlns="http://www.w3.org/2000/svg" xmlns:xlink="http://www.w3.org/1999/xlink" width="500" height="500" viewBox="0 0 500 500">
  <defs>
    <clipPath id="clip-path">
      <rect id="Rectangle_1" data-name="Rectangle 1" width="500" height="500" fill="none"/>
    </clipPath>
    <linearGradient id="linear-gradient" y1="0.5" x2="1" y2="0.5" gradientUnits="objectBoundingBox">
      <stop offset="0" stop-color="#ff613e"/>
      <stop offset="1" stop-color="#dd3176"/>
    </linearGradient>
    <linearGradient id="linear-gradient-5" x1="0.529" y1="-0.048" x2="0.464" y2="1.189" gradientUnits="objectBoundingBox">
      <stop offset="0" stop-color="#2bc7ff"/>
      <stop offset="1" stop-color="#1576e6"/>
    </linearGradient>
    <linearGradient id="linear-gradient-6" x1="0" y1="0.5" x2="1" y2="0.5" xlink:href="#linear-gradient-5"/>
    <linearGradient id="linear-gradient-7" y1="0.5" x2="1" y2="0.5" gradientUnits="objectBoundingBox">
      <stop offset="0" stop-color="#1576e6"/>
      <stop offset="1" stop-color="#2bc7ff"/>
    </linearGradient>
    <linearGradient id="linear-gradient-8" x1="0.283" y1="1.139" x2="0.395" y2="0.81" xlink:href="#linear-gradient"/>
    <linearGradient id="linear-gradient-9" y1="0.5" x2="1" y2="0.5" gradientUnits="objectBoundingBox">
      <stop offset="0" stop-color="#ee819f"/>
      <stop offset="1" stop-color="#ffaa90"/>
    </linearGradient>
    <linearGradient id="linear-gradient-10" x1="0" y1="0.5" y2="0.5" xlink:href="#linear-gradient-9"/>
    <linearGradient id="linear-gradient-15" x1="0.336" y1="1.03" x2="0.474" y2="0.583" xlink:href="#linear-gradient"/>
    <linearGradient id="linear-gradient-18" x1="-1.053" y1="-0.948" x2="4.32" y2="4.063" xlink:href="#linear-gradient"/>
    <linearGradient id="linear-gradient-19" x1="-0.001" y1="-1.241" x2="1.341" y2="3.55" xlink:href="#linear-gradient"/>
    <linearGradient id="linear-gradient-20" x1="-0.014" y1="-1.806" x2="1.074" y2="3.077" xlink:href="#linear-gradient"/>
    <linearGradient id="linear-gradient-21" x1="-0.141" y1="-1.681" x2="1.306" y2="3.306" xlink:href="#linear-gradient"/>
    <linearGradient id="linear-gradient-22" x1="-0.166" y1="-2.211" x2="1.055" y2="2.759" xlink:href="#linear-gradient"/>
    <linearGradient id="linear-gradient-23" x1="-0.304" y1="-2.774" x2="0.916" y2="2.197" xlink:href="#linear-gradient"/>
    <linearGradient id="linear-gradient-24" x1="-0.946" y1="-3" x2="0.832" y2="1.597" xlink:href="#linear-gradient"/>
    <linearGradient id="linear-gradient-25" x1="-0.246" y1="-0.728" x2="0.824" y2="1.034" gradientUnits="objectBoundingBox">
      <stop offset="0" stop-color="#c89776"/>
      <stop offset="1" stop-color="#a87858"/>
    </linearGradient>
    <linearGradient id="linear-gradient-26" x1="0.691" y1="-0.016" x2="0.307" y2="1.934" gradientUnits="objectBoundingBox">
      <stop offset="0" stop-color="#fff"/>
      <stop offset="1" stop-color="#e2e3ea"/>
    </linearGradient>
    <linearGradient id="linear-gradient-27" x1="0.288" y1="0.5" x2="1.288" y2="0.5" gradientUnits="objectBoundingBox">
      <stop offset="0" stop-color="#9b6339"/>
      <stop offset="1" stop-color="#624324"/>
    </linearGradient>
    <linearGradient id="linear-gradient-33" y1="0.5" x2="1" y2="0.5" gradientUnits="objectBoundingBox">
      <stop offset="0" stop-color="#ffcf00"/>
      <stop offset="1" stop-color="#fb900d"/>
    </linearGradient>
    <linearGradient id="linear-gradient-36" y1="0.5" x2="1" y2="0.5" gradientUnits="objectBoundingBox">
      <stop offset="0" stop-color="#c9671b"/>
      <stop offset="1" stop-color="#cd9a11"/>
    </linearGradient>
    <linearGradient id="linear-gradient-48" x1="6.086" y1="0.5" x2="7.086" y2="0.5" gradientUnits="objectBoundingBox">
      <stop offset="0" stop-color="#59ddff"/>
      <stop offset="1" stop-color="#3c8ee6"/>
    </linearGradient>
    <linearGradient id="linear-gradient-49" x1="0.686" y1="0.5" x2="1.686" y2="0.5" xlink:href="#linear-gradient-48"/>
    <linearGradient id="linear-gradient-50" x1="0.624" y1="0.5" x2="1.624" y2="0.5" xlink:href="#linear-gradient-5"/>
    <linearGradient id="linear-gradient-51" y1="0.5" x2="1.022" y2="0.5" gradientUnits="objectBoundingBox">
      <stop offset="0" stop-color="#343a44"/>
      <stop offset="0.301" stop-color="#232c3d"/>
      <stop offset="0.639" stop-color="#172339"/>
      <stop offset="1" stop-color="#142138"/>
    </linearGradient>
    <linearGradient id="linear-gradient-52" x1="0.188" y1="0.581" x2="1.081" y2="0.581" xlink:href="#linear-gradient-51"/>
    <linearGradient id="linear-gradient-53" x1="0" y1="0.5" x2="1" y2="0.5" xlink:href="#linear-gradient-51"/>
    <linearGradient id="linear-gradient-55" x1="0" y1="0.5" x2="1.082" y2="0.5" xlink:href="#linear-gradient-26"/>
    <linearGradient id="linear-gradient-56" x1="-26.614" y1="0.711" x2="-25.604" y2="0.711" xlink:href="#linear-gradient"/>
    <linearGradient id="linear-gradient-57" x1="0.248" y1="0.105" x2="1.881" y2="0.105" xlink:href="#linear-gradient-51"/>
    <linearGradient id="linear-gradient-59" y1="0.5" x2="1" y2="0.5" gradientUnits="objectBoundingBox">
      <stop offset="0" stop-color="#fff"/>
      <stop offset="1" stop-color="#9c9da2"/>
    </linearGradient>
    <linearGradient id="linear-gradient-61" x1="-42.843" y1="1.319" x2="-41.812" y2="1.319" xlink:href="#linear-gradient"/>
    <linearGradient id="linear-gradient-62" x1="-10.283" y1="0.678" x2="-9.405" y2="0.678" xlink:href="#linear-gradient-51"/>
    <linearGradient id="linear-gradient-63" x1="40.759" y1="0.78" x2="43.088" y2="0.78" xlink:href="#linear-gradient-51"/>
    <linearGradient id="linear-gradient-64" x1="-18.917" y1="0.954" x2="-17.956" y2="0.954" xlink:href="#linear-gradient-26"/>
    <linearGradient id="linear-gradient-65" x1="-37.515" y1="0.992" x2="-36.399" y2="0.992" xlink:href="#linear-gradient-26"/>
    <linearGradient id="linear-gradient-66" x1="0.053" y1="0.323" x2="1.196" y2="0.323" xlink:href="#linear-gradient-51"/>
    <linearGradient id="linear-gradient-67" x1="0.758" y1="-0.024" x2="0.441" y2="0.62" gradientUnits="objectBoundingBox">
      <stop offset="0" stop-color="#fff"/>
      <stop offset="1" stop-color="#babbc1"/>
    </linearGradient>
    <linearGradient id="linear-gradient-68" x1="0.969" y1="0.5" x2="1.969" y2="0.5" gradientUnits="objectBoundingBox">
      <stop offset="0" stop-color="#eef4fb"/>
      <stop offset="0.311" stop-color="#e3edf8"/>
      <stop offset="1" stop-color="#cfe1f3"/>
    </linearGradient>
    <linearGradient id="linear-gradient-69" x1="23.628" y1="0.363" x2="23.741" y2="0.666" xlink:href="#linear-gradient"/>
    <linearGradient id="linear-gradient-70" x1="38.293" y1="0.5" x2="39.293" y2="0.5" xlink:href="#linear-gradient"/>
    <linearGradient id="linear-gradient-71" x1="23.219" y1="0.5" x2="24.219" y2="0.5" xlink:href="#linear-gradient"/>
    <linearGradient id="linear-gradient-72" x1="20.689" y1="0.604" x2="20.48" y2="0.085" xlink:href="#linear-gradient"/>
    <linearGradient id="linear-gradient-73" x1="47.782" y1="0.31" x2="47.966" y2="0.73" xlink:href="#linear-gradient-33"/>
    <linearGradient id="linear-gradient-74" x1="38.293" y1="0.5" x2="39.293" y2="0.5" xlink:href="#linear-gradient-33"/>
    <linearGradient id="linear-gradient-75" x1="47.531" y1="0.5" x2="48.531" y2="0.5" xlink:href="#linear-gradient-33"/>
    <linearGradient id="linear-gradient-76" x1="36.794" y1="0.67" x2="36.454" y2="-0.179" xlink:href="#linear-gradient-33"/>
    <linearGradient id="linear-gradient-77" x1="3.682" y1="0.428" x2="3.732" y2="0.587" xlink:href="#linear-gradient-5"/>
    <linearGradient id="linear-gradient-78" x1="38.293" y1="0.5" x2="39.293" y2="0.5" xlink:href="#linear-gradient-5"/>
    <linearGradient id="linear-gradient-79" x1="3.205" y1="0.5" x2="4.205" y2="0.5" xlink:href="#linear-gradient-5"/>
    <linearGradient id="linear-gradient-80" x1="3.654" y1="0.537" x2="3.579" y2="0.351" xlink:href="#linear-gradient-5"/>
    <linearGradient id="linear-gradient-81" x1="21.621" y1="0.289" x2="21.76" y2="0.911" xlink:href="#linear-gradient-33"/>
    <linearGradient id="linear-gradient-82" x1="103.886" y1="0.5" x2="104.886" y2="0.5" xlink:href="#linear-gradient-33"/>
    <linearGradient id="linear-gradient-83" x1="21.18" y1="0.5" x2="22.18" y2="0.5" xlink:href="#linear-gradient-33"/>
    <linearGradient id="linear-gradient-84" x1="22.446" y1="0.541" x2="22.254" y2="0.176" xlink:href="#linear-gradient-33"/>
    <linearGradient id="linear-gradient-85" x1="52.414" y1="0.379" x2="52.503" y2="0.727" gradientUnits="objectBoundingBox">
      <stop offset="0" stop-color="#414042"/>
      <stop offset="1" stop-color="#231f20"/>
    </linearGradient>
    <linearGradient id="linear-gradient-86" x1="248.973" y1="0.5" x2="249.973" y2="0.5" xlink:href="#linear-gradient-85"/>
    <linearGradient id="linear-gradient-87" x1="51.975" y1="0.5" x2="52.975" y2="0.5" xlink:href="#linear-gradient-85"/>
    <linearGradient id="linear-gradient-88" x1="52.426" y1="0.568" x2="52.287" y2="0.265" xlink:href="#linear-gradient-85"/>
    <linearGradient id="linear-gradient-89" x1="-1.327" y1="-0.065" x2="-1.311" y2="1.237" xlink:href="#linear-gradient-68"/>
    <linearGradient id="linear-gradient-90" x1="-1.587" y1="0.178" x2="-1.926" y2="0.956" xlink:href="#linear-gradient-68"/>
    <linearGradient id="linear-gradient-91" x1="-6.893" y1="0.284" x2="-7.02" y2="0.623" xlink:href="#linear-gradient-68"/>
    <linearGradient id="linear-gradient-94" x1="0.506" y1="-0.038" x2="0.495" y2="0.995" xlink:href="#linear-gradient-33"/>
    <linearGradient id="linear-gradient-95" x1="-49.301" y1="0.5" x2="-48.301" y2="0.5" xlink:href="#linear-gradient-51"/>
    <linearGradient id="linear-gradient-96" x1="-30.504" y1="0.5" x2="-29.504" y2="0.5" xlink:href="#linear-gradient-51"/>
    <linearGradient id="linear-gradient-97" x1="-59.492" y1="0.5" x2="-58.492" y2="0.5" xlink:href="#linear-gradient-51"/>
    <linearGradient id="linear-gradient-98" x1="-31.806" y1="0.5" x2="-30.806" y2="0.5" xlink:href="#linear-gradient-51"/>
    <linearGradient id="linear-gradient-99" x1="-52.464" y1="0.5" x2="-51.464" y2="0.5" xlink:href="#linear-gradient-51"/>
    <linearGradient id="linear-gradient-100" x1="-25.906" y1="0.5" x2="-24.906" y2="0.5" xlink:href="#linear-gradient-51"/>
    <linearGradient id="linear-gradient-101" x1="19.211" y1="0.5" x2="20.211" y2="0.5" xlink:href="#linear-gradient-26"/>
    <linearGradient id="linear-gradient-102" x1="188.535" y1="0.5" x2="189.535" y2="0.5" xlink:href="#linear-gradient"/>
    <linearGradient id="linear-gradient-103" x1="120.794" y1="0.5" x2="121.794" y2="0.5" xlink:href="#linear-gradient"/>
    <linearGradient id="linear-gradient-104" x1="-15.951" y1="0.5" x2="-14.951" y2="0.5" xlink:href="#linear-gradient-51"/>
    <linearGradient id="linear-gradient-105" x1="-39.633" y1="0.5" x2="-38.633" y2="0.5" xlink:href="#linear-gradient-51"/>
    <linearGradient id="linear-gradient-106" x1="-32.451" y1="0.5" x2="-31.451" y2="0.5" xlink:href="#linear-gradient-51"/>
    <linearGradient id="linear-gradient-107" x1="0.646" y1="0.002" x2="0.412" y2="1.453" xlink:href="#linear-gradient-51"/>
    <linearGradient id="linear-gradient-108" x1="26.282" y1="0.5" x2="27.282" y2="0.5" xlink:href="#linear-gradient-51"/>
    <linearGradient id="linear-gradient-109" x1="-27.143" y1="0.5" x2="-26.143" y2="0.5" xlink:href="#linear-gradient-7"/>
    <linearGradient id="linear-gradient-110" x1="-27.188" y1="0.5" x2="-26.188" y2="0.5" xlink:href="#linear-gradient-7"/>
    <linearGradient id="linear-gradient-111" x1="-35.904" y1="0.5" x2="-34.904" y2="0.5" xlink:href="#linear-gradient-51"/>
    <linearGradient id="linear-gradient-112" x1="54.574" y1="0.5" x2="55.574" y2="0.5" xlink:href="#linear-gradient-51"/>
    <linearGradient id="linear-gradient-113" x1="-4.079" y1="-0.061" x2="-2.063" y2="-0.061" xlink:href="#linear-gradient-51"/>
    <linearGradient id="linear-gradient-114" x1="90.582" y1="0.5" x2="91.582" y2="0.5" xlink:href="#linear-gradient-26"/>
    <linearGradient id="linear-gradient-115" x1="150.691" y1="0.5" x2="151.691" y2="0.5" xlink:href="#linear-gradient-26"/>
  </defs>
  <g id="Group_135" data-name="Group 135" clip-path="url(#clip-path)">
    <path id="Path_1" data-name="Path 1" d="M482.29,392.575,255.771,526.755l-8.275-9.861L471.128,386.089Z" fill="#e6eaf5" style="mix-blend-mode: multiply;isolation: isolate"/>
    <path id="Path_2" data-name="Path 2" d="M-19.854,237.779,98.713,167.545l-13.524-7.859L-19.854,221.126Z" fill="#e6eaf5" style="mix-blend-mode: multiply;isolation: isolate"/>
    <g id="Group_7" data-name="Group 7">
      <path id="Path_3" data-name="Path 3" d="M440.588,279.974l-104.856,65.01-116.746-78.9L319.942,208.6Z" fill="#e6eaf5" style="mix-blend-mode: multiply;isolation: isolate"/>
      <g id="Group_6" data-name="Group 6">
        <path id="Path_4" data-name="Path 4" d="M319.245,155.363,440.5,226.078l151.356-87.386L470.6,67.978Z" fill="url(#linear-gradient)"/>
        <path id="Path_5" data-name="Path 5" d="M328.485,161.153l93.833,53.684,133.21-78.115L461.7,83.038Z" fill="#e6eaf5" style="mix-blend-mode: multiply;isolation: isolate"/>
        <path id="Path_6" data-name="Path 6" d="M416.03,115l98.851,57.6,47.686-27.531-98.851-57.6Z" fill="#e6eaf5"/>
        <g id="Group_1" data-name="Group 1">
          <path id="Path_7" data-name="Path 7" d="M319.245,155.363l.087,53.9,121.256,70.715-.087-53.9Z" fill="url(#linear-gradient)"/>
        </g>
        <path id="Path_8" data-name="Path 8" d="M322.834,161.809l.087,46.571L440.6,276.789l-.087-46.571Z" fill="#e6eaf5"/>
        <path id="Path_9" data-name="Path 9" d="M322.834,161.809l.087,5.549L440.6,235.767l-.087-5.549Z" fill="#eff0f0" style="mix-blend-mode: multiply;isolation: isolate"/>
        <g id="Group_2" data-name="Group 2">
          <path id="Path_10" data-name="Path 10" d="M440.615,225.85l.087,53.9L592.059,192.36l-.087-53.9Z" fill="#e6eaf5"/>
        </g>
        <g id="Group_3" data-name="Group 3">
          <path id="Path_11" data-name="Path 11" d="M440.615,225.85l.087,10.368,151.356-87.386-.087-10.368Z" fill="#eff0f0" style="mix-blend-mode: multiply;isolation: isolate"/>
        </g>
        <g id="Group_4" data-name="Group 4">
          <path id="Path_12" data-name="Path 12" d="M440.615,225.85l.087,4.582,151.356-87.386-.087-4.582Z" fill="url(#linear-gradient)"/>
        </g>
        <g id="Group_5" data-name="Group 5">
          <path id="Path_13" data-name="Path 13" d="M440.615,275.825l.087,4.582,151.356-87.385-.087-4.582Z" fill="url(#linear-gradient)"/>
        </g>
      </g>
    </g>
    <g id="Group_10" data-name="Group 10">
      <path id="Path_14" data-name="Path 14" d="M354.818,118.625l93.833,53.684,133.21-78.115L488.029,40.509Z" fill="url(#linear-gradient-5)"/>
      <path id="Path_15" data-name="Path 15" d="M446.557,79.294l67.167,38.241,41.82-24.524L488.378,54.771Z" fill="#e6eaf5"/>
      <g id="Group_8" data-name="Group 8">
        <path id="Path_16" data-name="Path 16" d="M354.818,118.625l.26,27.141,93.833,53.684-.261-27.141Z" fill="url(#linear-gradient-6)"/>
      </g>
      <path id="Path_17" data-name="Path 17" d="M354.683,122.1l.217,20.668,90.657,51.667-.217-20.668Z" fill="#e6eaf5"/>
      <path id="Path_18" data-name="Path 18" d="M354.683,122.1l.11,4.9,90.657,51.667-.11-4.9Z" fill="#eff0f0" style="mix-blend-mode: multiply;isolation: isolate"/>
      <g id="Group_9" data-name="Group 9">
        <path id="Path_19" data-name="Path 19" d="M448.651,172.308l.261,27.141,133.21-78.115-.261-27.141Z" fill="url(#linear-gradient-7)"/>
      </g>
    </g>
    <g id="Group_35" data-name="Group 35">
      <g id="Group_15" data-name="Group 15">
        <g id="Group_14" data-name="Group 14" style="isolation: isolate">
          <g id="Group_11" data-name="Group 11">
            <path id="Path_20" data-name="Path 20" d="M246.131,97.512l20.027,21.98-25.1,52.1-8.5-14.827-11.539-7.159Z" fill="url(#linear-gradient-8)"/>
          </g>
          <g id="Group_12" data-name="Group 12">
            <path id="Path_21" data-name="Path 21" d="M246.131,97.512l3.406-1.979,20.027,21.98-3.406,1.979Z" fill="#00a8a9"/>
          </g>
          <g id="Group_13" data-name="Group 13">
            <path id="Path_22" data-name="Path 22" d="M266.159,119.492l3.406-1.979-25.1,52.1-3.406,1.98Z" fill="url(#linear-gradient-9)"/>
          </g>
        </g>
      </g>
      <g id="Group_16" data-name="Group 16">
        <path id="Path_23" data-name="Path 23" d="M266.472,147.355a5.367,5.367,0,0,1-1.306,1.072l4.539-2.638a5.344,5.344,0,0,0,1.306-1.072,5.373,5.373,0,0,1,1.3-1.064l-4.539,2.638A5.349,5.349,0,0,0,266.472,147.355Z" fill="url(#linear-gradient-10)"/>
        <path id="Path_24" data-name="Path 24" d="M210.449,39.82a5.761,5.761,0,0,0-.762.208,5.407,5.407,0,0,0-.9.413l-4.539,2.638a5.327,5.327,0,0,1,.9-.413,5.612,5.612,0,0,1,.762-.208,5.577,5.577,0,0,0,.757-.206,5.2,5.2,0,0,0,.9-.416l4.539-2.638a5.2,5.2,0,0,1-.9.416A5.576,5.576,0,0,1,210.449,39.82Z" fill="url(#linear-gradient-10)"/>
        <path id="Path_25" data-name="Path 25" d="M292.749,132.007l-4.539,2.637a5.587,5.587,0,0,0-1.9,1.865,6.785,6.785,0,0,0-.41.743c-.1.205-.187.419-.27.64q-.105.285-.193.585-.08.271-.145.558-.06.264-.108.538c-.03.173-.056.348-.078.527s-.039.344-.054.52c-.005.064-.01.129-.014.193l-.015.2q-.023.266-.054.522-.035.273-.08.535c-.032.182-.067.36-.107.534-.044.192-.092.378-.145.56-.06.2-.126.4-.2.592-.082.221-.173.435-.27.639a6.85,6.85,0,0,1-.409.738,5.577,5.577,0,0,1-1.9,1.857l4.539-2.638a5.577,5.577,0,0,0,1.9-1.857,6.85,6.85,0,0,0,.409-.738c.1-.2.188-.417.27-.639.071-.191.137-.389.2-.592.053-.182.1-.368.145-.56.04-.174.075-.352.107-.534s.057-.353.08-.535.039-.345.054-.522l.015-.2c0-.065.009-.129.014-.193.015-.177.033-.35.054-.521s.048-.354.078-.526.068-.363.108-.539.092-.376.145-.557q.089-.3.193-.585.124-.333.27-.641a7.055,7.055,0,0,1,.41-.743A5.575,5.575,0,0,1,292.749,132.007Z" fill="url(#linear-gradient-9)"/>
        <path id="Path_26" data-name="Path 26" d="M230.884,28.177a5.917,5.917,0,0,1-.633.09c-.184.017-.37.025-.56.026-.171,0-.345,0-.52-.017s-.328-.029-.494-.051-.316-.047-.475-.079-.307-.063-.461-.1-.3-.079-.452-.125-.3-.093-.445-.146-.294-.106-.442-.166-.293-.121-.441-.187-.294-.135-.441-.208L225.5,27.2l-.015-.008c-.149-.073-.3-.143-.443-.208s-.295-.129-.44-.187-.3-.116-.445-.167-.3-.1-.445-.146-.3-.087-.45-.124-.31-.073-.463-.1-.314-.056-.468-.077-.333-.04-.5-.051-.351-.018-.523-.017c-.191,0-.378.01-.561.026a6.085,6.085,0,0,0-.63.091,5.579,5.579,0,0,0-.771.212,5.221,5.221,0,0,0-.891.411L213.923,29.5a5.247,5.247,0,0,1,.89-.411,5.631,5.631,0,0,1,.772-.212,6.083,6.083,0,0,1,.63-.091c.183-.017.37-.026.561-.026.172,0,.346,0,.523.017s.329.028.5.051.31.046.468.077.307.064.463.1.3.078.45.124.3.093.445.146.3.107.445.167.292.12.44.186.294.135.443.209l.015.007.016.008c.147.073.295.143.441.208s.295.128.441.187.295.115.441.166.3.1.446.146.3.087.451.125.309.073.462.1.318.058.475.079.331.039.494.05.349.019.52.018c.19,0,.376-.009.56-.026a5.916,5.916,0,0,0,.633-.09,5.5,5.5,0,0,0,.763-.208,5.154,5.154,0,0,0,.9-.415l4.539-2.637a5.3,5.3,0,0,1-.9.415A5.637,5.637,0,0,1,230.884,28.177Z" fill="url(#linear-gradient-9)"/>
        <path id="Path_27" data-name="Path 27" d="M299.329,101.139c-.005-.174-.013-.349-.025-.526s-.025-.353-.042-.532-.037-.36-.06-.542-.05-.367-.079-.551-.062-.377-.1-.566-.074-.384-.116-.576-.088-.39-.137-.586-.1-.391-.154-.588-.112-.391-.172-.587-.12-.382-.183-.573-.128-.373-.2-.56-.133-.361-.2-.542-.14-.353-.214-.53-.146-.347-.223-.521-.161-.359-.245-.539-.174-.364-.265-.546q-.166-.336-.345-.669-.264-.5-.553-.986-.419-.709-.887-1.4-.292-.432-.6-.855t-.611-.866q-.5-.74-.948-1.509-.256-.441-.5-.89-.17-.319-.331-.642c-.092-.186-.183-.373-.27-.561s-.164-.354-.243-.532-.151-.348-.224-.522-.143-.352-.212-.527-.138-.363-.2-.544-.133-.374-.2-.56-.126-.383-.185-.575-.116-.389-.17-.584-.106-.391-.154-.586-.094-.389-.136-.583-.08-.382-.116-.572-.068-.375-.1-.562-.055-.367-.078-.549-.043-.36-.06-.538-.032-.358-.043-.536l-.006-.1-.006-.1c-.011-.179-.026-.358-.043-.538s-.038-.363-.061-.545-.049-.367-.078-.551-.062-.375-.1-.563-.075-.38-.116-.571-.088-.387-.136-.581-.1-.389-.153-.584-.111-.387-.17-.581-.119-.381-.183-.572-.127-.371-.194-.557-.134-.361-.2-.541-.14-.353-.213-.529-.149-.353-.226-.529-.158-.351-.24-.526c-.091-.194-.184-.388-.281-.581-.106-.213-.216-.426-.329-.637q-.26-.489-.54-.966-.41-.7-.859-1.366c-.218-.326-.444-.645-.675-.959q-.231-.312-.469-.615-.215-.273-.435-.537-.205-.248-.417-.488c-.142-.162-.285-.321-.431-.478s-.295-.313-.445-.466-.311-.313-.47-.465-.319-.3-.481-.448-.327-.29-.493-.43-.325-.269-.489-.4-.325-.252-.489-.373-.317-.229-.477-.338c-.083-.058-.167-.114-.25-.169s-.167-.111-.25-.167c-.16-.11-.319-.224-.478-.34s-.324-.243-.485-.37-.328-.264-.491-.4-.33-.283-.493-.43-.325-.3-.485-.451-.315-.307-.47-.465-.3-.311-.449-.471-.289-.315-.431-.477-.282-.326-.421-.492-.287-.35-.428-.529c-.158-.2-.313-.4-.465-.61q-.309-.417-.6-.848-.5-.74-.96-1.521-.275-.468-.53-.95-.167-.313-.326-.633-.138-.277-.27-.559-.123-.262-.241-.528l-.039-.09-.04-.091q-.12-.271-.245-.54-.135-.286-.275-.569c-.109-.217-.22-.433-.333-.646q-.242-.453-.5-.894-.449-.768-.939-1.494-.311-.459-.637-.9-.228-.308-.462-.606-.21-.265-.425-.524c-.138-.167-.278-.33-.42-.491s-.286-.322-.431-.478-.3-.318-.45-.472-.313-.314-.471-.466-.325-.306-.489-.454-.329-.292-.495-.432-.329-.273-.494-.4-.324-.251-.487-.371-.317-.229-.477-.338-.309-.209-.465-.308-.3-.189-.454-.278l-.105-.061c-.115-.066-.229-.13-.344-.192-.147-.08-.295-.156-.442-.229s-.293-.142-.44-.207-.292-.128-.438-.186-.293-.114-.439-.166-.3-.1-.444-.145-.3-.087-.45-.124-.307-.073-.46-.1-.318-.057-.476-.079-.332-.039-.5-.051c-.126-.009-.252-.014-.376-.017s-.247-.007-.372-.016c-.163-.011-.328-.029-.494-.051s-.315-.047-.474-.079-.307-.063-.461-.1-.3-.079-.451-.125-.3-.093-.446-.145-.294-.108-.441-.167-.294-.121-.441-.187-.294-.135-.441-.208-.3-.149-.444-.23c-.115-.062-.23-.126-.345-.193l-.105-.061q-.228-.134-.456-.279t-.464-.306c-.159-.109-.317-.221-.475-.338s-.324-.242-.485-.369-.329-.264-.492-.4-.33-.283-.494-.431-.325-.3-.487-.452-.314-.307-.47-.466-.3-.31-.449-.47-.285-.312-.426-.472-.286-.322-.431-.477-.3-.32-.452-.475-.314-.315-.472-.466-.323-.306-.486-.452-.327-.291-.492-.43-.327-.271-.49-.4-.322-.249-.483-.368-.315-.227-.472-.335-.308-.207-.462-.305-.3-.19-.455-.279l-.1-.061c-.115-.066-.23-.13-.344-.192q-.224-.12-.445-.23c-.147-.073-.295-.143-.442-.208s-.294-.129-.441-.188-.3-.115-.443-.166-.3-.1-.447-.147-.3-.088-.455-.125-.31-.074-.464-.1-.319-.057-.477-.078-.331-.04-.5-.051-.35-.018-.521-.018c-.189,0-.375.01-.559.026a5.917,5.917,0,0,0-.631.09,5.673,5.673,0,0,0-.75.2,5.255,5.255,0,0,0-.9.416l-4.539,2.638a5.181,5.181,0,0,1,.9-.416,5.524,5.524,0,0,1,.75-.2,5.916,5.916,0,0,1,.631-.09c.183-.017.37-.025.558-.026q.258,0,.522.018c.163.011.329.028.5.051s.317.047.477.078.309.065.464.1.3.079.455.125.3.094.447.147.295.107.443.166.294.121.441.187.295.136.442.209.3.15.445.23c.114.062.229.126.344.192l.1.061c.152.089.3.182.455.279s.308.2.462.305.315.219.472.335.322.241.483.368.327.263.49.4.329.282.492.43.325.3.486.451.315.308.472.467.3.313.452.474.288.315.431.478.283.317.426.472.3.317.449.47.313.314.47.465.324.306.487.453.328.291.494.43.327.273.492.4.323.251.485.37.316.229.475.337.309.208.463.307.3.19.457.279l.1.061c.115.067.23.131.345.193q.222.12.444.23c.147.073.294.143.441.208s.294.128.441.187.294.115.441.166.3.1.446.146.3.087.451.125.308.073.461.1.317.058.474.079.33.039.494.051c.125.008.248.014.372.016s.25.008.376.017c.165.012.33.029.5.051s.316.048.476.079.306.064.46.1.3.078.45.124.3.093.444.145.292.107.439.165.292.121.438.186.293.135.44.207.295.15.442.23c.115.062.229.126.344.192l.1.061c.151.089.3.182.454.278s.311.2.465.307.318.222.477.339.325.244.486.371.331.265.495.4.331.284.495.432.327.3.489.454.315.307.471.466.3.311.45.472.289.315.431.477.282.325.42.492.285.347.425.524q.234.3.462.606.325.439.637.9.49.725.939,1.494.258.441.5.894.17.32.332.646.141.282.276.569.125.269.245.54l.04.091.039.089c.079.177.159.354.241.529s.178.374.27.559q.159.32.326.633.256.482.53.95.456.78.96,1.521.294.431.6.848.228.309.465.61c.141.179.283.355.428.528s.279.332.421.493.286.321.431.477.3.317.449.471.312.313.47.464.322.305.485.452.327.29.493.43.326.271.491.4.322.25.485.369.318.231.478.34l.249.168c.084.055.168.111.251.169q.24.164.477.338t.489.373q.246.2.489.4t.493.43c.162.146.322.3.481.448s.315.307.47.465.3.308.445.466.289.316.431.478.28.323.417.488.292.355.435.537q.238.3.469.615.346.471.675.959c.3.445.586.9.859,1.366q.281.477.54.965c.113.212.223.424.329.638q.144.29.281.581.123.262.24.526c.077.176.153.352.226.528s.144.353.213.529.138.361.2.542.131.371.194.557.125.381.183.572.116.387.17.581.105.389.153.584.093.388.136.581.08.381.116.571.067.375.1.562.055.369.078.552.044.364.061.545.031.359.043.538l.006.1.006.1c.011.177.026.356.043.536s.037.358.06.538.049.365.078.549.061.374.1.562.074.381.116.572.087.388.136.582.1.391.154.587.111.389.17.584.12.383.185.574.127.374.2.561.134.362.2.543.139.352.212.528.147.348.224.522.159.355.242.532.179.374.271.56c.107.216.218.43.331.643q.238.447.5.89.447.768.948,1.509.3.438.611.866c.208.281.409.567.6.854q.468.691.887,1.4.288.489.553.986.179.333.345.669c.091.181.179.364.265.546s.166.359.245.539.151.347.223.521.145.353.214.53.138.361.2.542.133.373.195.56.126.382.184.572.117.393.172.588.106.393.154.588.094.391.136.586.081.384.117.576.069.378.1.565.055.369.079.552.043.362.06.542.031.356.042.532.02.352.025.525.007.348.007.52-.005.346-.013.517-.017.344-.031.513-.033.351-.054.523-.049.351-.078.524-.068.359-.107.534q-.066.287-.147.562-.088.3-.2.589c-.082.22-.173.435-.272.642q-.106.225-.228.439c-.081.144-.158.293-.231.445q-.146.306-.267.635-.107.287-.2.59c-.053.182-.1.369-.145.56q-.06.264-.108.539-.045.26-.079.528c-.021.171-.039.345-.053.522s-.025.343-.032.518-.011.344-.012.519,0,.345.006.52.014.349.025.526.025.353.042.532.037.359.06.541.05.366.079.551.061.373.1.562.074.381.116.574.088.387.136.582.1.391.154.587.111.39.171.586.12.382.184.574l.021.06.02.062c.066.2.129.392.189.587s.117.392.171.586.106.393.155.588.093.388.135.58.08.383.116.572.067.373.1.558.055.367.078.548.043.36.06.537.031.354.042.529.019.35.024.522.008.349.007.52-.005.345-.012.515-.018.35-.032.522-.033.348-.054.519-.049.357-.079.531-.069.367-.11.546-.092.376-.145.558q-.088.3-.193.585-.123.33-.269.638a6.959,6.959,0,0,1-.42.762,5.57,5.57,0,0,1-1.889,1.846l4.539-2.638a5.57,5.57,0,0,0,1.889-1.846,6.96,6.96,0,0,0,.42-.762q.146-.308.269-.638.1-.283.193-.584c.053-.182.1-.369.145-.559s.078-.36.11-.546.056-.351.079-.531.039-.344.054-.519.025-.346.032-.522.011-.341.012-.515,0-.344-.007-.519-.013-.347-.024-.523-.025-.351-.042-.529-.037-.356-.06-.536-.049-.364-.078-.549-.061-.37-.1-.558-.074-.38-.116-.572-.087-.385-.135-.58-.1-.391-.155-.588-.111-.389-.171-.585-.122-.391-.188-.588l-.021-.062-.021-.06c-.064-.192-.125-.384-.184-.574s-.117-.391-.171-.586-.106-.392-.154-.587-.093-.389-.136-.582-.08-.384-.116-.574-.068-.376-.1-.562-.055-.369-.079-.551-.043-.362-.06-.54-.031-.357-.042-.533-.019-.352-.025-.526-.007-.348-.006-.52.005-.347.012-.518.018-.348.032-.519.032-.351.054-.522.048-.355.078-.528.068-.363.108-.539c.043-.191.092-.377.145-.56q.088-.3.2-.59.121-.329.267-.634.109-.229.231-.446c.081-.142.157-.289.228-.439q.148-.31.272-.642c.071-.192.137-.388.2-.589q.081-.276.147-.562c.04-.175.075-.353.107-.534s.056-.347.078-.524.039-.347.054-.523.024-.34.031-.513.012-.343.013-.517S299.334,101.313,299.329,101.139Z" fill="url(#linear-gradient-9)"/>
      </g>
      <g id="Group_22" data-name="Group 22">
        <g id="Group_21" data-name="Group 21" style="isolation: isolate">
          <g id="Group_17" data-name="Group 17">
            <path id="Path_28" data-name="Path 28" d="M274.524,179.089l3.406-1.979-8.555,4.981-3.406,1.98Z" fill="#005656"/>
          </g>
          <g id="Group_18" data-name="Group 18">
            <path id="Path_29" data-name="Path 29" d="M269.939,131.977l16.127,53.278-11.542-6.167-8.555,4.981-16.127-53.278Z" fill="url(#linear-gradient-15)"/>
          </g>
          <g id="Group_19" data-name="Group 19">
            <path id="Path_30" data-name="Path 30" d="M269.939,131.977,273.345,130l16.127,53.278-3.406,1.98Z" fill="url(#linear-gradient-9)"/>
          </g>
          <g id="Group_20" data-name="Group 20">
            <path id="Path_31" data-name="Path 31" d="M249.842,130.792l3.406-1.98,20.1,1.185-3.406,1.979Z" fill="#006e6e"/>
          </g>
        </g>
      </g>
      <g id="Group_23" data-name="Group 23">
        <path id="Path_32" data-name="Path 32" d="M257.653,39.925a23.569,23.569,0,0,1,9.093,10.817,24.213,24.213,0,0,0,8.313,10.332A24.579,24.579,0,0,1,285.21,78.66,24.085,24.085,0,0,0,289.989,91c4.522,6.139,6.093,13.871,3.683,18.138-1.486,2.634-1.5,6.713-.031,11.051,2.378,7.031.768,12.927-3.774,13.833-2.8.559-4.585,3.064-4.833,6.79-.406,6.05-4.761,8.531-10.217,5.828-3.368-1.671-6.444-1.407-8.345.714-2.112,2.363-5.573,2.35-9.125.3a19.478,19.478,0,0,1-4.8-4.047,19.54,19.54,0,0,0-4.8-4.047,10.183,10.183,0,0,0-4.81-1.5,10.157,10.157,0,0,1-4.807-1.5,23.567,23.567,0,0,1-9.093-10.818,24.2,24.2,0,0,0-8.313-10.331,24.569,24.569,0,0,1-10.151-17.582,24.094,24.094,0,0,0-4.784-12.348c-4.517-6.136-6.088-13.869-3.678-18.135,1.486-2.634,1.5-6.713.032-11.051-2.378-7.031-.769-12.928,3.768-13.836,2.807-.557,4.585-3.064,4.838-6.788.4-6.052,4.761-8.531,10.217-5.828,3.368,1.672,6.444,1.407,8.345-.714,2.112-2.362,5.573-2.349,9.125-.3a19.5,19.5,0,0,1,4.8,4.048,19.52,19.52,0,0,0,4.8,4.046,10.154,10.154,0,0,0,4.81,1.5A10.144,10.144,0,0,1,257.653,39.925Z" fill="url(#linear-gradient)"/>
      </g>
      <g id="Group_24" data-name="Group 24" style="mix-blend-mode: multiply;isolation: isolate">
        <path id="Path_33" data-name="Path 33" d="M246.727,49.345c20.39,11.77,36.817,40.12,36.816,63.479a43.508,43.508,0,0,1-.264,5,36.151,36.151,0,0,1-.924,5.038c-.173.672-.359,1.337-.572,1.971a24.416,24.416,0,0,1-1.379,3.352,20.508,20.508,0,0,1-4.154,5.792,17.258,17.258,0,0,1-4.66,3.259c-6.544,3.141-15.263,2.361-24.839-3.138-9.684-5.59-18.36-14.77-24.869-25.379a88.611,88.611,0,0,1-4.6-8.47,79.8,79.8,0,0,1-5.8-16.536A63.787,63.787,0,0,1,210.2,76a53.372,53.372,0,0,1-.274-5.381C209.909,47.209,226.392,37.695,246.727,49.345Z" fill="#e6eaf5"/>
      </g>
      <g id="Group_25" data-name="Group 25">
        <path id="Path_34" data-name="Path 34" d="M246.727,46.611c20.39,11.77,36.817,40.12,36.816,63.479a43.508,43.508,0,0,1-.264,5,36.178,36.178,0,0,1-.924,5.038c-.173.672-.359,1.336-.572,1.971a24.351,24.351,0,0,1-1.379,3.351,20.513,20.513,0,0,1-4.154,5.793,17.28,17.28,0,0,1-4.66,3.259c-6.544,3.14-15.263,2.36-24.839-3.138-9.684-5.59-18.36-14.77-24.869-25.379a88.854,88.854,0,0,1-4.6-8.47,79.789,79.789,0,0,1-5.8-16.537,63.738,63.738,0,0,1-1.283-7.7,53.376,53.376,0,0,1-.274-5.382C209.909,44.475,226.392,34.961,246.727,46.611Z" fill="#fff"/>
      </g>
      <g id="Group_29" data-name="Group 29">
        <g id="Group_26" data-name="Group 26">
          <path id="Path_35" data-name="Path 35" d="M233.908,61.458l-.05,17.609-2.977-1.719.05-17.609Z" fill="url(#linear-gradient-18)"/>
        </g>
        <g id="Group_27" data-name="Group 27">
          <path id="Path_36" data-name="Path 36" d="M242.2,66.122a14.3,14.3,0,0,1,2.981,2.3,24.891,24.891,0,0,1,2.367,2.748l-1.32,2.021c-.106-.176-.288-.437-.552-.793a14.758,14.758,0,0,0-.969-1.142c-.382-.41-.793-.81-1.24-1.2a8.8,8.8,0,0,0-1.358-.981,2.694,2.694,0,0,0-1.837-.539c-.407.111-.608.489-.61,1.117a2.4,2.4,0,0,0,.227,1.032,4.53,4.53,0,0,0,.657,1.016,10.971,10.971,0,0,0,1.087,1.121c.435.4.946.858,1.516,1.35.753.665,1.428,1.305,2.039,1.922a12.331,12.331,0,0,1,1.551,1.89,8.373,8.373,0,0,1,.978,1.994,7.018,7.018,0,0,1,.341,2.248,4.026,4.026,0,0,1-.471,2.145,1.912,1.912,0,0,1-1.258.906,3.691,3.691,0,0,1-1.814-.14,10.222,10.222,0,0,1-2.148-.956,19.144,19.144,0,0,1-3.411-2.565,22.916,22.916,0,0,1-3.013-3.432L237.266,76a9.8,9.8,0,0,0,.7.986c.334.43.734.9,1.192,1.406a17.871,17.871,0,0,0,1.534,1.5,10.676,10.676,0,0,0,1.723,1.245q2.461,1.422,2.47-.388a2.486,2.486,0,0,0-.28-1.13,5.859,5.859,0,0,0-.8-1.158,15.977,15.977,0,0,0-1.252-1.271c-.487-.444-1.034-.943-1.634-1.485-.734-.661-1.369-1.278-1.909-1.861a11.712,11.712,0,0,1-1.345-1.745,7.393,7.393,0,0,1-.808-1.759,6.446,6.446,0,0,1-.266-1.907,4.444,4.444,0,0,1,.443-2.128,2.071,2.071,0,0,1,1.2-1.048,3.424,3.424,0,0,1,1.785-.026A7.9,7.9,0,0,1,242.2,66.122Z" fill="url(#linear-gradient-19)"/>
        </g>
        <g id="Group_28" data-name="Group 28">
          <path id="Path_37" data-name="Path 37" d="M263.811,84.315a13.274,13.274,0,0,1,.527,3.581,7.442,7.442,0,0,1-.569,3.037,4.388,4.388,0,0,1-1.561,1.936,3.935,3.935,0,0,1-2.382.588,6.723,6.723,0,0,1-3-1,12.281,12.281,0,0,1-3.051-2.52,18.063,18.063,0,0,1-3.857-7.108,13.214,13.214,0,0,1-.532-3.612,7.384,7.384,0,0,1,.58-3.043,4.4,4.4,0,0,1,1.585-1.943,3.938,3.938,0,0,1,2.388-.6,6.755,6.755,0,0,1,3,1,11.936,11.936,0,0,1,3.033,2.537,18.15,18.15,0,0,1,2.336,3.393A18.663,18.663,0,0,1,263.811,84.315Zm-2.768,3.778a6.3,6.3,0,0,0,.294-1.976,9.626,9.626,0,0,0-.3-2.391,11.718,11.718,0,0,0-.877-2.388,10.039,10.039,0,0,0-1.4-2.117,7.2,7.2,0,0,0-1.864-1.563,3.773,3.773,0,0,0-1.925-.6,2.121,2.121,0,0,0-1.4.53,3.145,3.145,0,0,0-.858,1.394,6.267,6.267,0,0,0-.3,1.973,10.072,10.072,0,0,0,.3,2.38,11.26,11.26,0,0,0,.866,2.388,10.406,10.406,0,0,0,1.4,2.13,7.13,7.13,0,0,0,1.887,1.584,3.689,3.689,0,0,0,1.913.6,2.156,2.156,0,0,0,1.4-.544,3.147,3.147,0,0,0,.87-1.4" fill="url(#linear-gradient-20)"/>
        </g>
      </g>
      <g id="Group_34" data-name="Group 34">
        <g id="Group_30" data-name="Group 30">
          <path id="Path_38" data-name="Path 38" d="M231.711,85.985a17.955,17.955,0,0,1-.045,7.652,5.648,5.648,0,0,1-1.192,2.427,2.51,2.51,0,0,1-1.876.832,4.97,4.97,0,0,1-2.461-.777,10.172,10.172,0,0,1-2.662-2.269,14.052,14.052,0,0,1-2.053-3.264l1.664-1.124a9.013,9.013,0,0,0,1.326,2.235,6.519,6.519,0,0,0,1.775,1.546q1.447.836,2.316.017c.579-.54.882-1.61.916-3.195a1.588,1.588,0,0,1-1.3.665,3.654,3.654,0,0,1-1.925-.59,9.571,9.571,0,0,1-2.111-1.665,12.2,12.2,0,0,1-1.691-2.216,11.919,11.919,0,0,1-1.13-2.521,8.472,8.472,0,0,1-.4-2.539,4.82,4.82,0,0,1,.436-2.159,2.754,2.754,0,0,1,1.194-1.261,2.972,2.972,0,0,1,1.78-.272,5.831,5.831,0,0,1,2.213.8,9.737,9.737,0,0,1,2.346,1.9,11.361,11.361,0,0,1,1.76,2.594A14.011,14.011,0,0,1,231.711,85.985ZM229.074,87.2a2.593,2.593,0,0,0,.227-1.128,4.9,4.9,0,0,0-.22-1.406,7.033,7.033,0,0,0-.615-1.418,6.828,6.828,0,0,0-.9-1.26,4.548,4.548,0,0,0-1.1-.906,2.418,2.418,0,0,0-1.1-.361,1.507,1.507,0,0,0-1.493.919,2.728,2.728,0,0,0-.228,1.148,4.662,4.662,0,0,0,.22,1.38,7.315,7.315,0,0,0,.6,1.377,6.545,6.545,0,0,0,.893,1.213,4.942,4.942,0,0,0,1.1.878,2.866,2.866,0,0,0,1.107.395,1.528,1.528,0,0,0,.9-.166,1.568,1.568,0,0,0,.609-.665" fill="url(#linear-gradient-21)"/>
        </g>
        <g id="Group_31" data-name="Group 31">
          <path id="Path_39" data-name="Path 39" d="M246.9,96.144a14.474,14.474,0,0,1,.415,3.259,8.849,8.849,0,0,1-.474,2.929,5.006,5.006,0,0,1-1.337,2.1,3.416,3.416,0,0,1-2.1.866,5.018,5.018,0,0,1-2.785-.816,10.547,10.547,0,0,1-2.88-2.523,16.709,16.709,0,0,1-2.077-3.331,17.866,17.866,0,0,1-1.251-3.607A14.645,14.645,0,0,1,234,91.713a8.74,8.74,0,0,1,.473-2.915,5.028,5.028,0,0,1,1.332-2.116,3.4,3.4,0,0,1,2.1-.859,4.975,4.975,0,0,1,2.767.8,10.173,10.173,0,0,1,2.892,2.529,17.059,17.059,0,0,1,2.088,3.379A18.4,18.4,0,0,1,246.9,96.144Zm-2.808,3.375a8.138,8.138,0,0,0,.223-1.848,11.224,11.224,0,0,0-.235-2.222,13.078,13.078,0,0,0-.683-2.3,9.085,9.085,0,0,0-1.143-2.048,5.189,5.189,0,0,0-1.593-1.455,2.262,2.262,0,0,0-1.643-.38,1.965,1.965,0,0,0-1.134.8,4.25,4.25,0,0,0-.664,1.539A7.844,7.844,0,0,0,237,93.445a13.211,13.211,0,0,0,.906,4.512,9.269,9.269,0,0,0,1.12,2.041,5.258,5.258,0,0,0,1.6,1.455,2.3,2.3,0,0,0,1.661.39,1.909,1.909,0,0,0,1.139-.8,4.446,4.446,0,0,0,.665-1.526" fill="url(#linear-gradient-22)"/>
        </g>
        <g id="Group_32" data-name="Group 32">
          <path id="Path_40" data-name="Path 40" d="M262.033,104.879a14.6,14.6,0,0,1,.415,3.259,8.855,8.855,0,0,1-.474,2.93,5.013,5.013,0,0,1-1.338,2.1,3.4,3.4,0,0,1-2.1.866,5.027,5.027,0,0,1-2.785-.815,10.564,10.564,0,0,1-2.88-2.523,16.481,16.481,0,0,1-2.076-3.332,18.144,18.144,0,0,1-1.257-3.61,14.907,14.907,0,0,1-.409-3.3,8.725,8.725,0,0,1,.474-2.916,5.024,5.024,0,0,1,1.332-2.115,3.4,3.4,0,0,1,2.1-.859,4.975,4.975,0,0,1,2.767.8,10.22,10.22,0,0,1,2.892,2.53,16.84,16.84,0,0,1,2.082,3.375A18.258,18.258,0,0,1,262.033,104.879Zm-2.809,3.376a8.147,8.147,0,0,0,.224-1.849,11.219,11.219,0,0,0-.236-2.221,13,13,0,0,0-.683-2.3,9.029,9.029,0,0,0-1.143-2.048,5.185,5.185,0,0,0-1.593-1.454,2.258,2.258,0,0,0-1.643-.38,1.968,1.968,0,0,0-1.139.8,4.516,4.516,0,0,0-.664,1.539,8.229,8.229,0,0,0-.218,1.838,13.245,13.245,0,0,0,.907,4.512,9.266,9.266,0,0,0,1.119,2.041,5.233,5.233,0,0,0,1.6,1.454,2.291,2.291,0,0,0,1.661.39,1.907,1.907,0,0,0,1.139-.8,4.44,4.44,0,0,0,.664-1.525" fill="url(#linear-gradient-23)"/>
        </g>
        <g id="Group_33" data-name="Group 33">
          <path id="Path_41" data-name="Path 41" d="M270.521,103.686l-.042,14.777,2.742,1.583-.009,3-8.677-5.01.009-3,2.976,1.719.033-11.458a1.25,1.25,0,0,1-.573.333,4.558,4.558,0,0,1-1.945.13,2.743,2.743,0,0,1-.959-.331l.009-3.076a2.306,2.306,0,0,0,1.189.328,4.485,4.485,0,0,0,1.108-.159,3.406,3.406,0,0,0,.838-.322,1.915,1.915,0,0,0,.342-.222Z" fill="url(#linear-gradient-24)"/>
        </g>
      </g>
    </g>
    <g id="Group_63" data-name="Group 63">
      <path id="Path_42" data-name="Path 42" d="M22.092,272.166c-3.742,2.16-3.762,5.672-.044,7.832L274.788,425.86a14.886,14.886,0,0,0,13.508-.008l149.5-86.313c3.742-2.161,3.777-5.664.059-7.824L185.113,185.852a14.918,14.918,0,0,0-13.522,0Z" fill="#dae1e9" style="mix-blend-mode: multiply;isolation: isolate"/>
      <path id="Path_43" data-name="Path 43" d="M29.9,256.3c-3.742,2.16-3.762,5.672-.044,7.832L282.6,409.995a14.884,14.884,0,0,0,13.507-.008l149.5-86.313c3.742-2.161,3.777-5.664.059-7.824L192.92,169.988a14.917,14.917,0,0,0-13.523,0Z" fill="url(#linear-gradient-25)"/>
      <path id="Path_44" data-name="Path 44" d="M58.468,258.1c-3.154,1.821-3.171,4.781-.037,6.6L271.483,387.662a12.548,12.548,0,0,0,11.386-.007l126.023-72.76c3.155-1.821,3.184-4.774.05-6.6L195.89,185.342a12.575,12.575,0,0,0-11.4,0Z" fill="url(#linear-gradient-26)"/>
      <path id="Path_45" data-name="Path 45" d="M27.081,260.328a3.208,3.208,0,0,0,.063.55,3.425,3.425,0,0,0,.154.539,3.873,3.873,0,0,0,.255.544,4.584,4.584,0,0,0,.385.572,5.467,5.467,0,0,0,.593.637,7.342,7.342,0,0,0,1.207.894l.117.069L282.6,409.995a10.8,10.8,0,0,0,2.087.918,13.864,13.864,0,0,0,1.8.449c.4.072.8.128,1.215.169.35.035.7.059,1.058.071.326.011.653.012.979,0s.629-.024.941-.05.623-.06.93-.1.637-.1.949-.165q.51-.1,1-.245c.4-.114.788-.245,1.163-.393a10.41,10.41,0,0,0,1.381-.662l149.5-86.313c1.887-1.089,2.831-2.52,2.827-3.948l.021,7.516c0,1.428-.94,2.858-2.827,3.948L296.124,417.5a10.425,10.425,0,0,1-1.382.662c-.374.148-.763.279-1.163.393-.326.093-.66.174-1,.244-.312.065-.629.121-.949.166s-.618.078-.93.1-.627.042-.942.05-.653.007-.978,0c-.355-.013-.708-.036-1.059-.071-.41-.041-.816-.1-1.215-.169a13.864,13.864,0,0,1-1.8-.449,10.825,10.825,0,0,1-2.087-.918L29.876,271.649l-.116-.069a7.409,7.409,0,0,1-1.208-.894,5.555,5.555,0,0,1-.593-.637,4.586,4.586,0,0,1-.385-.572,3.928,3.928,0,0,1-.255-.544,3.569,3.569,0,0,1-.154-.539,3.208,3.208,0,0,1-.063-.55c0-.028,0-.056,0-.084l-.022-7.516C27.079,260.272,27.08,260.3,27.081,260.328Z" fill="url(#linear-gradient-27)"/>
      <g id="Group_62" data-name="Group 62">
        <g id="Group_39" data-name="Group 39">
          <g id="Group_36" data-name="Group 36">
            <path id="Path_46" data-name="Path 46" d="M175.507,277.438c8.452,4.911,8.407,12.877-.1,17.789s-22.26,4.911-30.711,0-8.4-12.876.1-17.787S167.055,272.526,175.507,277.438Zm-2.144,16.6c7.372-4.257,7.411-11.157.086-15.413s-19.236-4.257-26.609,0-7.408,11.159-.087,15.414,19.237,4.256,26.61,0" fill="#dcdcdc"/>
          </g>
          <g id="Group_37" data-name="Group 37">
            <path id="Path_47" data-name="Path 47" d="M173.449,278.626c7.325,4.256,7.286,11.156-.086,15.413s-19.285,4.256-26.61,0-7.286-11.157.087-15.414S166.128,274.371,173.449,278.626Zm-19,12.268,8.721.128a2.342,2.342,0,0,0,1.193-.276.8.8,0,0,0,.469-.693l-.615-10.489c-.026-.517-.776-.919-1.668-.9a2.293,2.293,0,0,0-1.08.274.8.8,0,0,0-.479.7l.555,9.494-7-.1a2.337,2.337,0,0,0-1.187.273.824.824,0,0,0-.475.638c-.028.515.673.946,1.565.958" fill="url(#linear-gradient-7)"/>
          </g>
          <g id="Group_38" data-name="Group 38">
            <path id="Path_48" data-name="Path 48" d="M161.465,278.935a.8.8,0,0,0-.479.7l.555,9.494-7-.1a2.336,2.336,0,0,0-1.186.273.824.824,0,0,0-.475.638c-.028.515.673.946,1.565.958l8.721.128a2.342,2.342,0,0,0,1.193-.276.8.8,0,0,0,.469-.693l-.615-10.489c-.026-.517-.776-.919-1.668-.9A2.293,2.293,0,0,0,161.465,278.935Z" fill="#fff"/>
          </g>
        </g>
        <g id="Group_40" data-name="Group 40">
          <path id="Path_49" data-name="Path 49" d="M205.982,230.164l-2.8-1.628L177,243.649l2.8,1.629Z" fill="#adb1ba"/>
        </g>
        <g id="Group_41" data-name="Group 41">
          <path id="Path_50" data-name="Path 50" d="M173.983,248.639l-2.8-1.628-12.558,7.25,2.8,1.629Z" fill="#adb1ba"/>
        </g>
        <g id="Group_45" data-name="Group 45" style="isolation: isolate">
          <g id="Group_42" data-name="Group 42">
            <path id="Path_51" data-name="Path 51" d="M211.966,266.62l-4-2.326-21.323,12.3,4,2.326Z" fill="#adb1ba"/>
          </g>
          <g id="Group_43" data-name="Group 43">
            <path id="Path_52" data-name="Path 52" d="M252.3,233.732l-4-2.326-70.147,40.259,4,2.326Z" fill="#adb1ba"/>
          </g>
          <g id="Group_44" data-name="Group 44">
            <path id="Path_53" data-name="Path 53" d="M239.011,231.589l-4-2.326L169.681,266.74l4,2.326Z" fill="#adb1ba"/>
          </g>
        </g>
        <g id="Group_49" data-name="Group 49">
          <g id="Group_46" data-name="Group 46">
            <path id="Path_54" data-name="Path 54" d="M218.518,304.319c8.452,4.912,8.407,12.878-.1,17.79s-22.26,4.911-30.711,0-8.4-12.875.1-17.786S210.066,299.408,218.518,304.319Zm-2.144,16.6c7.373-4.257,7.411-11.157.086-15.414s-19.236-4.256-26.609,0-7.408,11.159-.087,15.413,19.237,4.257,26.61,0" fill="#dcdcdc"/>
          </g>
          <g id="Group_47" data-name="Group 47">
            <path id="Path_55" data-name="Path 55" d="M216.46,305.507c7.325,4.257,7.287,11.157-.086,15.414s-19.285,4.256-26.61,0-7.286-11.156.087-15.413S209.139,301.253,216.46,305.507Zm-19,12.268,8.721.129a2.342,2.342,0,0,0,1.193-.276.8.8,0,0,0,.469-.693l-.615-10.49c-.026-.516-.776-.919-1.668-.9a2.3,2.3,0,0,0-1.08.274.8.8,0,0,0-.479.7l.555,9.495-7-.1a2.337,2.337,0,0,0-1.187.273.825.825,0,0,0-.475.638c-.027.515.673.946,1.565.957" fill="url(#linear-gradient-7)"/>
          </g>
          <g id="Group_48" data-name="Group 48">
            <path id="Path_56" data-name="Path 56" d="M204.476,305.817a.8.8,0,0,0-.479.7l.555,9.495-7-.1a2.337,2.337,0,0,0-1.187.273.825.825,0,0,0-.475.638c-.027.515.673.946,1.565.957l8.721.129a2.342,2.342,0,0,0,1.193-.276.8.8,0,0,0,.469-.693l-.615-10.49c-.026-.516-.776-.919-1.668-.9A2.3,2.3,0,0,0,204.476,305.817Z" fill="#fff"/>
          </g>
        </g>
        <g id="Group_52" data-name="Group 52" style="isolation: isolate">
          <g id="Group_50" data-name="Group 50">
            <path id="Path_57" data-name="Path 57" d="M297.411,260.3l-4-2.326L223.263,298.23l4,2.326Z" fill="#adb1ba"/>
          </g>
          <g id="Group_51" data-name="Group 51">
            <path id="Path_58" data-name="Path 58" d="M284.119,258.154l-4-2.326-65.329,37.477,4,2.326Z" fill="#adb1ba"/>
          </g>
        </g>
        <g id="Group_56" data-name="Group 56">
          <g id="Group_53" data-name="Group 53">
            <path id="Path_59" data-name="Path 59" d="M261.529,331.2c8.452,4.912,8.407,12.878-.1,17.789s-22.26,4.912-30.711,0-8.4-12.875.1-17.786S253.077,326.29,261.529,331.2Zm-2.144,16.6c7.373-4.256,7.411-11.156.086-15.413s-19.236-4.257-26.609,0-7.407,11.159-.087,15.413,19.237,4.257,26.61,0" fill="#dcdcdc"/>
          </g>
          <g id="Group_54" data-name="Group 54">
            <path id="Path_60" data-name="Path 60" d="M259.471,332.389c7.325,4.257,7.287,11.157-.086,15.413s-19.285,4.257-26.61,0-7.286-11.156.087-15.413S252.151,328.135,259.471,332.389Zm-19,12.268,8.721.129a2.342,2.342,0,0,0,1.193-.276.8.8,0,0,0,.469-.693l-.615-10.49c-.026-.516-.776-.919-1.668-.9a2.3,2.3,0,0,0-1.08.274.8.8,0,0,0-.479.7l.555,9.495-7-.1a2.348,2.348,0,0,0-1.187.272.829.829,0,0,0-.475.639c-.027.515.673.946,1.565.957" fill="url(#linear-gradient-7)"/>
          </g>
          <g id="Group_55" data-name="Group 55">
            <path id="Path_61" data-name="Path 61" d="M247.487,332.7a.8.8,0,0,0-.479.7l.555,9.495-7-.1a2.348,2.348,0,0,0-1.187.272.827.827,0,0,0-.475.639c-.027.515.673.946,1.565.957l8.721.129a2.342,2.342,0,0,0,1.193-.276.8.8,0,0,0,.469-.693l-.615-10.49c-.026-.516-.776-.919-1.668-.9A2.3,2.3,0,0,0,247.487,332.7Z" fill="#fff"/>
          </g>
        </g>
        <g id="Group_59" data-name="Group 59" style="isolation: isolate">
          <g id="Group_57" data-name="Group 57">
            <path id="Path_62" data-name="Path 62" d="M306.786,304.913l-4-2.326-39.246,22.221,4,2.326Z" fill="#adb1ba"/>
          </g>
          <g id="Group_58" data-name="Group 58">
            <path id="Path_63" data-name="Path 63" d="M324.394,284.732l-4-2.326-65.329,37.477,4,2.326Z" fill="#adb1ba"/>
          </g>
        </g>
        <g id="Group_60" data-name="Group 60">
          <path id="Path_64" data-name="Path 64" d="M182.324,232.223l-3.263-1.9-28.172,16.265,3.263,1.9Z" fill="url(#linear-gradient-7)"/>
        </g>
        <path id="Path_65" data-name="Path 65" d="M188.69,220.573l-9.387-5.455-60.927,35.126,9.387,5.456Z" fill="url(#linear-gradient-7)"/>
        <g id="Group_61" data-name="Group 61">
          <path id="Path_66" data-name="Path 66" d="M151.005,250.3l-3.263-1.9-4.389,2.534,3.263,1.9Z" fill="#adb1ba"/>
        </g>
      </g>
    </g>
    <g id="Group_85" data-name="Group 85">
      <g id="Group_70" data-name="Group 70">
        <g id="Group_69" data-name="Group 69" style="isolation: isolate">
          <g id="Group_64" data-name="Group 64">
            <path id="Path_67" data-name="Path 67" d="M367,425.97l-11.161-6.486,17.858-9.527,11.161,6.486Z" fill="url(#linear-gradient-33)"/>
          </g>
          <g id="Group_65" data-name="Group 65">
            <path id="Path_68" data-name="Path 68" d="M346.09,471.325l-11.161-6.486,4.818-22.573,11.161,6.486Z" fill="url(#linear-gradient-33)"/>
          </g>
          <g id="Group_66" data-name="Group 66">
            <path id="Path_69" data-name="Path 69" d="M354.678,433.084,343.516,426.6l6.106-22.828,11.161,6.486Z" fill="url(#linear-gradient-33)"/>
          </g>
          <g id="Group_67" data-name="Group 67">
            <path id="Path_70" data-name="Path 70" d="M360.784,410.256,367,425.97l17.858-9.527-14.012,20.8,4.93,16.945L360.9,451.323l-14.811,20,4.818-22.573-14.084-4.577,17.854-11.091Z" fill="url(#linear-gradient-36)"/>
          </g>
          <g id="Group_68" data-name="Group 68">
            <path id="Path_71" data-name="Path 71" d="M336.824,444.176l-11.161-6.486L343.516,426.6l11.161,6.486Z" fill="url(#linear-gradient-33)"/>
          </g>
        </g>
      </g>
      <g id="Group_77" data-name="Group 77">
        <g id="Group_76" data-name="Group 76" style="isolation: isolate">
          <g id="Group_71" data-name="Group 71">
            <path id="Path_72" data-name="Path 72" d="M420.257,395.165,409.1,388.678l17.858-9.527,11.161,6.486Z" fill="url(#linear-gradient-33)"/>
          </g>
          <g id="Group_72" data-name="Group 72">
            <path id="Path_73" data-name="Path 73" d="M399.347,440.52l-11.161-6.486L393,411.461l11.161,6.486Z" fill="url(#linear-gradient-33)"/>
          </g>
          <g id="Group_73" data-name="Group 73">
            <path id="Path_74" data-name="Path 74" d="M407.935,402.279l-11.161-6.486,6.106-22.828,11.161,6.486Z" fill="url(#linear-gradient-33)"/>
          </g>
          <g id="Group_74" data-name="Group 74">
            <path id="Path_75" data-name="Path 75" d="M414.041,379.451l6.216,15.714,17.858-9.527-14.012,20.8,4.929,16.945-14.875-2.863-14.811,20,4.817-22.573-14.084-4.577,17.854-11.091Z" fill="url(#linear-gradient-36)"/>
          </g>
          <g id="Group_75" data-name="Group 75">
            <path id="Path_76" data-name="Path 76" d="M390.081,413.37l-11.161-6.486,17.854-11.091,11.161,6.486Z" fill="url(#linear-gradient-33)"/>
          </g>
        </g>
      </g>
      <g id="Group_84" data-name="Group 84">
        <g id="Group_83" data-name="Group 83" style="isolation: isolate">
          <g id="Group_78" data-name="Group 78">
            <path id="Path_77" data-name="Path 77" d="M473.513,364.359l-11.161-6.486,17.858-9.527,11.161,6.486Z" fill="url(#linear-gradient-33)"/>
          </g>
          <g id="Group_79" data-name="Group 79">
            <path id="Path_78" data-name="Path 78" d="M452.6,409.714l-11.161-6.486,4.818-22.573,11.161,6.486Z" fill="url(#linear-gradient-33)"/>
          </g>
          <g id="Group_80" data-name="Group 80">
            <path id="Path_79" data-name="Path 79" d="M461.191,371.473l-11.161-6.486,6.106-22.828,11.161,6.486Z" fill="url(#linear-gradient-33)"/>
          </g>
          <g id="Group_81" data-name="Group 81">
            <path id="Path_80" data-name="Path 80" d="M467.3,348.645l6.216,15.714,17.858-9.527-14.012,20.8,4.93,16.945-14.875-2.863-14.811,20,4.818-22.573-14.084-4.577,17.854-11.092Z" fill="url(#linear-gradient-36)"/>
          </g>
          <g id="Group_82" data-name="Group 82">
            <path id="Path_81" data-name="Path 81" d="M443.337,382.565l-11.161-6.486,17.854-11.092,11.161,6.486Z" fill="url(#linear-gradient-33)"/>
          </g>
        </g>
      </g>
    </g>
    <g id="Group_88" data-name="Group 88">
      <g id="Group_87" data-name="Group 87">
        <path id="Path_82" data-name="Path 82" d="M109.918,149.938,99.349,143.8l-6.888-7.549,10.569,6.142Z" fill="url(#linear-gradient-48)"/>
        <path id="Path_83" data-name="Path 83" d="M36.283,118.324q.006-.232.021-.465c.01-.156.023-.312.037-.469s.033-.313.053-.471.044-.322.069-.484.054-.324.084-.487.066-.334.1-.5.076-.336.118-.5.087-.341.134-.512.1-.34.15-.51.1-.333.16-.5.112-.328.171-.492.116-.315.178-.473.124-.313.188-.469.13-.308.2-.461.14-.313.213-.468c.08-.171.163-.341.247-.51q.146-.292.3-.58.229-.429.477-.849.345-.586.722-1.151.3-.443.611-.869.21-.285.427-.561.184-.234.373-.46c.122-.147.246-.293.372-.436s.249-.279.375-.415.262-.279.4-.414.27-.271.407-.4.281-.265.424-.394.284-.252.428-.374.285-.236.429-.35.281-.218.422-.322.278-.2.419-.3.271-.183.409-.27.27-.17.407-.25l.094-.055L158.855,38.637c.1-.059.206-.117.308-.172.133-.072.265-.141.4-.205s.262-.127.392-.185.259-.113.387-.164.261-.1.39-.147.258-.088.386-.126.268-.077.4-.11.265-.062.4-.088.283-.051.422-.07.288-.034.429-.044.3-.015.453-.015c.17,0,.336.009.5.024a5.533,5.533,0,0,1,.555.081,4.814,4.814,0,0,1,.674.185,4.685,4.685,0,0,1,.78.361L176.291,44.1a4.606,4.606,0,0,0-.78-.361,4.815,4.815,0,0,0-.674-.185,5.532,5.532,0,0,0-.555-.081c-.164-.015-.331-.023-.5-.024-.149,0-.3.005-.453.016s-.284.024-.429.043-.28.042-.422.07-.263.054-.4.088-.265.069-.4.11-.256.08-.387.126-.258.1-.389.147-.258.106-.387.164-.26.12-.392.184-.263.134-.4.206c-.1.055-.205.113-.308.172L56.465,108.238l-.1.055q-.2.12-.407.249c-.137.087-.273.178-.408.27s-.28.2-.419.3-.283.212-.422.322-.287.231-.429.35-.287.247-.429.374-.283.26-.423.394-.273.266-.407.4-.265.273-.4.413-.252.275-.375.416-.25.289-.373.436-.249.305-.372.46q-.218.276-.427.561-.315.426-.611.869-.376.564-.722,1.151c-.165.279-.324.563-.477.849q-.153.288-.3.58-.127.253-.247.51-.11.232-.213.467t-.2.462c-.065.156-.128.313-.189.469s-.12.315-.177.473-.117.328-.172.492-.109.333-.16.5-.1.34-.149.51-.092.342-.134.512-.081.337-.118.5-.07.336-.1.5-.059.325-.084.487-.049.323-.069.484-.038.315-.053.471-.027.313-.037.468-.017.311-.022.466-.006.29-.005.433l.107,38.109v.028c0,.157,0,.312.011.465s.015.3.028.453.029.312.048.464.042.309.068.459.06.318.095.472.081.333.128.492c.051.175.108.344.169.508.07.19.147.372.231.548a5.868,5.868,0,0,0,.364.66,4.91,4.91,0,0,0,1.675,1.637L39.2,163.052a4.924,4.924,0,0,1-1.675-1.636,6.238,6.238,0,0,1-.364-.661c-.084-.176-.161-.358-.231-.548-.061-.164-.118-.333-.169-.508q-.071-.239-.128-.492c-.035-.153-.067-.311-.094-.471s-.05-.3-.069-.46-.035-.306-.048-.463-.022-.3-.028-.454-.01-.308-.011-.465v-.028l-.108-38.109C36.276,118.614,36.279,118.469,36.283,118.324Z" fill="url(#linear-gradient-49)"/>
        <g id="Group_86" data-name="Group 86">
          <path id="Path_84" data-name="Path 84" d="M169.424,44.779c5.343-3.084,9.665-.6,9.682,5.518l.108,38.108c.018,6.117-4.276,13.577-9.619,16.662l-52.644,29.284-7.033,15.587-6.888-7.55L56.636,168.526c-5.324,3.073-9.665.6-9.683-5.518L46.846,124.9c-.018-6.116,4.295-13.588,9.619-16.661Z" fill="url(#linear-gradient-50)"/>
        </g>
      </g>
      <text id="CERTIFIED" transform="translate(60.837 147.727)" fill="#fff" font-size="28" font-family="SegoeUI, Segoe UI"><tspan x="0" y="0">CERTIFIED</tspan></text>
    </g>
    <g id="Group_91" data-name="Group 91">
      <path id="Path_85" data-name="Path 85" d="M366.164,250.631l-.3,2.816s-4.958,6.8-3.552,8.544c1.752,2.172,11.925-5.631,11.925-5.631l.42-5.386Z" fill="url(#linear-gradient-51)"/>
      <path id="Path_86" data-name="Path 86" d="M350.356,239.758,350,245.8s-6.967,3.916-7.325,6.007a1.642,1.642,0,0,0,1.48,1.614c5.732.187,12.579-3.36,12.579-3.36l1.48-9.79Z" fill="url(#linear-gradient-52)"/>
      <g id="Group_89" data-name="Group 89">
        <path id="Path_87" data-name="Path 87" d="M376.059,182.227s-17.11,14.189-19.614,17.528-7.269,44.9-7.269,44.9l9.3,2.714,10.271-37.139a112.4,112.4,0,0,1,15.664-12.983c5.007-3.339,5.842-11.685,5.842-11.685Z" fill="url(#linear-gradient-53)"/>
      </g>
      <path id="Path_88" data-name="Path 88" d="M402.33,183.785s.547,12.021-3.874,17.222-16.41,10.417-18.49,11.977-1.748,11.109-2.788,19.431-2.112,19.69-2.112,19.69H364.953s-.071-20.47.189-28.792-.78-19.244,2.081-21.845,18.464-14.823,18.464-14.823Z" fill="url(#linear-gradient-53)"/>
      <path id="Path_89" data-name="Path 89" d="M397.879,142.149c-1.631-1.684-3.682-3.407-3.76-4.888a56.532,56.532,0,0,1,.525-6l-6.26-2.422s-1.18,6.662-2.6,7.685-2.127.6-2.127.6-6.737,6.521-1.122,12.529,11.1,4.67,11.1,4.67Z" fill="#fec4ad"/>
      <path id="Path_90" data-name="Path 90" d="M402.991,147.916a4.5,4.5,0,0,1,.458-.888,87.934,87.934,0,0,0-6.7-7.3s-6.242,6.666-9.987,5.378c-6.469-2.225-3.971-6.973-3.971-6.973-4.107-.809-3.643.16-3.643.16s-1.919,9.91-1.768,14.733c.109,3.483-1.9,3.648-2.425,10.985-.379,5.257-.841,13.65-.215,18.474a95.653,95.653,0,0,0,18.857-1.207A215.925,215.925,0,0,1,402.991,147.916Z" fill="url(#linear-gradient-55)"/>
      <path id="Path_91" data-name="Path 91" d="M385.282,148.6l1.679.153.24,18.857-4.167,3.281-2.017-4.261Z" fill="url(#linear-gradient-56)"/>
      <path id="Path_92" data-name="Path 92" d="M377.394,137.467c2.5-.73,6.676,2.745,7.379,9.476s-4.425,19.654-7.14,24.208-16.294,21.925-16.294,21.925l-4.9-2.833s9.628-17.174,12.024-21.937C373.325,158.649,369.58,139.75,377.394,137.467Z" fill="url(#linear-gradient-57)"/>
      <path id="Path_93" data-name="Path 93" d="M399.521,142.546c-.307.424-.69.922-1,1.293-2.78,5.287-13.906,19.086-13.906,19.086s-3.91-25.042-3.91-25.975a18.31,18.31,0,0,0-2.889.4s-2.118,7.922-1.967,12.745c.108,3.483-.363,6.574-.89,13.911s-1.232,20.818,1.109,22.118,9.1,3.641,15.343,2.341a31.8,31.8,0,0,0,10.922-4.681,74.063,74.063,0,0,1,.825-9.933c.794-4.884,2.688-23.344,2.688-23.344A45.653,45.653,0,0,0,399.521,142.546Z" fill="url(#linear-gradient-53)"/>
      <path id="Path_94" data-name="Path 94" d="M380.947,121.621c-.58,2.946-.1,8.257.147,10.453s1.254,6.4,3.384,7.859,7.367.336,9.641-2.672a14.9,14.9,0,0,0,2.85-11.711C396.08,121.2,380.947,121.621,380.947,121.621Z" fill="#fec4ad"/>
      <path id="Path_95" data-name="Path 95" d="M380.105,123.419c1.592,1.582,4,1.768,7.718,2.259s5.293-1.782,6.356-1.642.686,3.717-.329,5.142-.927,2.2-.594,2.816,1.085-1.956,2.037-.494-.764,3.621-1.48,4.226.166,2.6.166,2.6.919.026,4.019-4.908,5.184-14.2-.046-15.307c0,0-2.6-5.592-7.6-4.629s-9.52,4.882-11.775,4.616A5.724,5.724,0,0,0,380.105,123.419Z" fill="#33383b"/>
      <path id="Path_96" data-name="Path 96" d="M385.665,198.919l-14.115,6.912-2.912-2.613L385.567,198Z" fill="url(#linear-gradient-59)"/>
      <path id="Path_97" data-name="Path 97" d="M385.567,198l-14.521,7.026-19.2-11.529,7.976-6.062Z" fill="url(#linear-gradient-59)"/>
      <path id="Path_98" data-name="Path 98" d="M388.167,143.786l.525,2.782-1.73,2.181-1.679-.153-.478-3.559,1.292-1.849Z" fill="url(#linear-gradient-61)"/>
      <path id="Path_99" data-name="Path 99" d="M398.611,140.918s-9.562,14.6-11.542,17.168a25.287,25.287,0,0,0-3.2,5.923s7.023-6.824,9.138-8.128a36.19,36.19,0,0,0,3.735-2.655l-2.61-1.485,3.105-1.215,2.662-7.473Z" fill="url(#linear-gradient-62)"/>
      <path id="Path_100" data-name="Path 100" d="M382.367,137.29s1.395,16.966,1.9,20.005a25.87,25.87,0,0,1-.032,6.748s-2.892-8.433-4.122-10.2a24.456,24.456,0,0,1-2-3.479l3-1.017-2.141-1.868L380.4,136.8Z" fill="url(#linear-gradient-63)"/>
      <path id="Path_101" data-name="Path 101" d="M388.641,148.046l-.474-4.26,7.285-4.7,1.526,1.3Z" fill="url(#linear-gradient-64)"/>
      <path id="Path_102" data-name="Path 102" d="M381.638,137.3l2.006-.253,2.452,6.139-2.182,3.654Z" fill="url(#linear-gradient-65)"/>
      <g id="Group_90" data-name="Group 90">
        <path id="Path_103" data-name="Path 103" d="M376.466,190.373c-2.887.876-4.513-.172-5.839,1.367s-4.085,3.187-4.684,4.342-2.469,2.955-.942,3.849c1.754,1.027,2.78,1.647,4.384.985s2.46-3.443,3.444-4.662,3.915-4.213,3.915-4.213Z" fill="#fec4ad"/>
        <path id="Path_104" data-name="Path 104" d="M404.717,149.406c2.575-.386,5.553,5.379,3.124,11.8-2.395,6.329-8.343,17.886-12.352,21.356s-21.1,13.406-21.1,13.406l-3.758-4.228s13.283-10.988,17.054-14.757C395.326,169.34,397.239,150.526,404.717,149.406Z" fill="url(#linear-gradient-66)"/>
      </g>
      <path id="Path_105" data-name="Path 105" d="M346.772,192.44l24.778,13.392-4.145-21.1-25.532-13.752Z" fill="url(#linear-gradient-67)"/>
    </g>
    <g id="Group_123" data-name="Group 123">
      <path id="Path_106" data-name="Path 106" d="M156.569,381.962l13.931,6.386L26.2,475.688l-13.12-7.694Z" fill="url(#linear-gradient-68)" style="mix-blend-mode: multiply;isolation: isolate"/>
      <g id="Group_122" data-name="Group 122">
        <g id="Group_97" data-name="Group 97">
          <g id="Group_96" data-name="Group 96" style="isolation: isolate">
            <g id="Group_92" data-name="Group 92">
              <path id="Path_107" data-name="Path 107" d="M149.38,393.117l13.566-8.1-2.435,3.42-13.566,8.1Z" fill="url(#linear-gradient-69)"/>
            </g>
            <g id="Group_93" data-name="Group 93">
              <path id="Path_108" data-name="Path 108" d="M146.972,386.9l2.408,6.219-2.435,3.42-4.843-2.8-2.408-6.216,2.435-3.423Z" fill="url(#linear-gradient-70)"/>
            </g>
            <g id="Group_94" data-name="Group 94">
              <path id="Path_109" data-name="Path 109" d="M146.972,386.9l13.566-8.1,2.408,6.219-13.566,8.1Z" fill="url(#linear-gradient-71)"/>
            </g>
            <g id="Group_95" data-name="Group 95">
              <path id="Path_110" data-name="Path 110" d="M142.13,384.1,155.7,376l4.843,2.8-13.566,8.1Z" fill="url(#linear-gradient-72)"/>
            </g>
          </g>
        </g>
        <g id="Group_103" data-name="Group 103">
          <g id="Group_102" data-name="Group 102" style="isolation: isolate">
            <g id="Group_98" data-name="Group 98">
              <path id="Path_111" data-name="Path 111" d="M149.38,393.117l5.4-3.226-2.435,3.42-5.4,3.226Z" fill="url(#linear-gradient-73)"/>
            </g>
            <g id="Group_99" data-name="Group 99">
              <path id="Path_112" data-name="Path 112" d="M146.972,386.9l2.408,6.219-2.435,3.42-4.843-2.8-2.408-6.216,2.435-3.423Z" fill="url(#linear-gradient-74)"/>
            </g>
            <g id="Group_100" data-name="Group 100">
              <path id="Path_113" data-name="Path 113" d="M146.972,386.9l5.4-3.226,2.408,6.219-5.4,3.226Z" fill="url(#linear-gradient-75)"/>
            </g>
            <g id="Group_101" data-name="Group 101">
              <path id="Path_114" data-name="Path 114" d="M142.13,384.1l5.4-3.226,4.843,2.8-5.4,3.226Z" fill="url(#linear-gradient-76)"/>
            </g>
          </g>
        </g>
        <g id="Group_109" data-name="Group 109">
          <g id="Group_108" data-name="Group 108" style="isolation: isolate">
            <g id="Group_104" data-name="Group 104">
              <path id="Path_115" data-name="Path 115" d="M38.066,458.712l113.314-66.784-2.435,3.42L35.631,462.132Z" fill="url(#linear-gradient-77)"/>
            </g>
            <g id="Group_105" data-name="Group 105">
              <path id="Path_116" data-name="Path 116" d="M35.659,452.493l2.408,6.219-2.435,3.42-4.843-2.8-2.408-6.216,2.435-3.423Z" fill="url(#linear-gradient-78)"/>
            </g>
            <g id="Group_106" data-name="Group 106">
              <path id="Path_117" data-name="Path 117" d="M35.659,452.493l113.314-66.784,2.408,6.219L38.066,458.712Z" fill="url(#linear-gradient-79)"/>
            </g>
            <g id="Group_107" data-name="Group 107">
              <path id="Path_118" data-name="Path 118" d="M30.816,449.7,144.13,382.913l4.843,2.8L35.659,452.493Z" fill="url(#linear-gradient-80)"/>
            </g>
          </g>
        </g>
        <g id="Group_115" data-name="Group 115">
          <g id="Group_114" data-name="Group 114" style="isolation: isolate">
            <g id="Group_110" data-name="Group 110">
              <path id="Path_119" data-name="Path 119" d="M21.442,465.045l16.624-6.333-2.435,3.42-15.087,4.173Z" fill="url(#linear-gradient-81)"/>
            </g>
            <g id="Group_111" data-name="Group 111">
              <path id="Path_120" data-name="Path 120" d="M20.555,462.752l.887,2.292-.9,1.261-1.785-1.031-.888-2.292.9-1.262Z" fill="url(#linear-gradient-82)"/>
            </g>
            <g id="Group_112" data-name="Group 112">
              <path id="Path_121" data-name="Path 121" d="M20.555,462.752l15.1-10.259,2.408,6.219-16.624,6.333Z" fill="url(#linear-gradient-83)"/>
            </g>
            <g id="Group_113" data-name="Group 113">
              <path id="Path_122" data-name="Path 122" d="M18.769,461.722,30.816,449.7l4.843,2.8-15.1,10.259Z" fill="url(#linear-gradient-84)"/>
            </g>
          </g>
        </g>
        <g id="Group_121" data-name="Group 121">
          <g id="Group_120" data-name="Group 120" style="isolation: isolate">
            <g id="Group_116" data-name="Group 116">
              <path id="Path_123" data-name="Path 123" d="M14.2,467.9l6.766-3.008-.745,1.046-6.4,2.488Z" fill="url(#linear-gradient-85)"/>
            </g>
            <g id="Group_117" data-name="Group 117">
              <path id="Path_124" data-name="Path 124" d="M13.83,466.942l.37.957-.375.526-.745-.43-.37-.956.375-.526Z" fill="url(#linear-gradient-86)"/>
            </g>
            <g id="Group_118" data-name="Group 118">
              <path id="Path_125" data-name="Path 125" d="M13.83,466.942l6.4-3.954.736,1.9L14.2,467.9Z" fill="url(#linear-gradient-87)"/>
            </g>
            <g id="Group_119" data-name="Group 119">
              <path id="Path_126" data-name="Path 126" d="M13.085,466.512l5.663-4.379,1.481.855-6.4,3.954Z" fill="url(#linear-gradient-88)"/>
            </g>
          </g>
        </g>
      </g>
    </g>
    <g id="Group_127" data-name="Group 127">
      <path id="Path_127" data-name="Path 127" d="M164.429,421.868l35.973,20.9,17.908-9.635-35.973-20.9Z" fill="#dae1e9"/>
      <g id="Group_126" data-name="Group 126">
        <path id="Path_128" data-name="Path 128" d="M170.747,407.84l35.973,20.9,17.908-9.635-35.973-20.9Z" fill="url(#linear-gradient-89)"/>
        <path id="Path_129" data-name="Path 129" d="M170.747,407.84l.03,10.446,35.973,20.905-.029-10.446Z" fill="url(#linear-gradient-90)"/>
        <g id="Group_124" data-name="Group 124">
          <path id="Path_130" data-name="Path 130" d="M206.719,428.745l.029,10.446,17.908-9.635-.03-10.446Z" fill="url(#linear-gradient-91)"/>
        </g>
        <path id="Path_131" data-name="Path 131" d="M170.747,407.84l35.973,20.9,17.908-9.635-35.973-20.9Z" fill="url(#linear-gradient-89)" style="mix-blend-mode: multiply;isolation: isolate"/>
        <g id="Group_125" data-name="Group 125" style="mix-blend-mode: multiply;isolation: isolate">
          <path id="Path_132" data-name="Path 132" d="M206.719,428.745l.029,10.446,17.908-9.635-.03-10.446Z" fill="url(#linear-gradient-91)"/>
        </g>
      </g>
    </g>
    <g id="Group_128" data-name="Group 128">
      <path id="Path_133" data-name="Path 133" d="M288.714,80.515,343.17,111.55l53.25-31.575L341.964,48.94Z" fill="#e6eaf5" style="mix-blend-mode: multiply;isolation: isolate"/>
      <path id="Path_134" data-name="Path 134" d="M306.9,56.841l54.455,31.035L414.6,56.3,360.147,25.265Z" fill="#dde0eb"/>
      <path id="Path_135" data-name="Path 135" d="M308.672,55.893,365,85.605,414.6,56.3,360.147,25.265Z" fill="#b4b6bf"/>
      <path id="Path_136" data-name="Path 136" d="M306.967,52.383s37.2,26.056,51.748,28.749c3.643.674,9.185,2.018,12.68.789C383.241,77.754,414.6,56.3,414.6,56.3L360.147,25.265s-29.835,18.689-40.328,23.913C316.23,50.966,306.967,52.383,306.967,52.383Z" fill="url(#linear-gradient-94)"/>
      <path id="Path_137" data-name="Path 137" d="M354.59,39.459l34.66,19.753,2.381-1.554-34.66-19.753Z" fill="#bcc8e8" style="mix-blend-mode: multiply;isolation: isolate"/>
      <path id="Path_138" data-name="Path 138" d="M347.186,43.841l34.66,19.753,2.381-1.554-34.66-19.753Z" fill="#bcc8e8" style="mix-blend-mode: multiply;isolation: isolate"/>
      <path id="Path_139" data-name="Path 139" d="M339.783,48.223l15.377,8.788,2.381-1.554-15.377-8.788Z" fill="#bcc8e8" style="mix-blend-mode: multiply;isolation: isolate"/>
      <path id="Path_140" data-name="Path 140" d="M306.9,56.841l.13,12.415,54.455,31.035-.13-12.415Z" fill="#fff"/>
      <path id="Path_141" data-name="Path 141" d="M414.6,56.3l.13,12.415-53.249,31.575-.13-12.415Z" fill="#c7cad3"/>
    </g>
    <g id="Group_134" data-name="Group 134">
      <path id="Path_142" data-name="Path 142" d="M-173.771,470.415c4.841-3.153,14.644-7.5,20.839-7.95a29.218,29.218,0,0,0,8.3-1.626c.49-.261.955-.512,1.374-.745a11.573,11.573,0,0,0,3.154-2.828l-.711.025,1.147-1.506.53-.074.754-1.266-1.227.322,2.061-1.722,3.742-6.282a58.212,58.212,0,0,1,7-5.808c6.855-4.9,32.171-17.534,32.171-17.534s.214-.091.541-.2c6.661-3.119,13.69-6.121,15.842-6.6a4.042,4.042,0,0,1,4.02,1.39c9.318-4.874,20.915-11.086,20.915-11.086a18.976,18.976,0,0,1,2.508.528c9.267-4.363,20.387-9.287,29.888-13.589C.8,384.028,2.375,382.543,22.93,373.05c13.2-6.1,34.695-15.782,47.049-21.473,1.212,1.232,12.794,4.842,14.117,5.985-13.651,7.123-49.257,27.739-60.281,33.919s-20.2,10.292-36.072,18.674c-11.662,6.159-23.2,11.416-31.929,15.179-.257.664-.434,1.061-.434,1.061s-21.218,9.573-26.589,11.882c-.459.2-.983.414-1.534.64l-.036.937a.4.4,0,0,1-.03.093l0,.067c-.009.227-.312.549-.792.841l-8.044,4.894a7.99,7.99,0,0,1-1.475,1.572,15.651,15.651,0,0,1-2.246,1.489c-1.475.834-3.207,1.885-4.563,2.556a13.055,13.055,0,0,1-2.394.879l-9.047,5.5a1.841,1.841,0,0,1-1.362.386c-.495.09-.861.026-.851-.236l.113-2.883c-6.241,2.708-18.168,7.833-22.671,9.429a21.824,21.824,0,0,1-8.527,1.583,3.148,3.148,0,0,1-2.944-1.238l-.214.1-.071-.577-.29-.552-.621-.338.323-.229-.1-.184-.546.266a1.132,1.132,0,0,1-.151,1.089c-1.1,1.739-9.124,7.027-12.577,8.438s-5.658,2.851-8.823,4.23c-.63.275-1.2.489-1.737.674-.032.483-.445,1.02-1.585,1.573-3.867,1.879-10.338,3.937-14.868,2.665-1.508-.424-1.819-1.335-1.579-2.359C-181.9,478.4-180.349,474.7-173.771,470.415Z" fill="#dae1e9" style="mix-blend-mode: multiply;isolation: isolate"/>
      <g id="Group_133" data-name="Group 133">
        <path id="Path_143" data-name="Path 143" d="M67.5,339.032s.026,5.849.026,7.1-.525,5.206-.176,5.923,4.979,6.1,7.778,5.745,3.77-4.667,3.77-4.667-2.8-1.616-3.674-3.231.525-11.488.525-11.488Z" fill="url(#linear-gradient-95)"/>
        <path id="Path_144" data-name="Path 144" d="M67.722,259.292s-4.307,19.647-3.368,31.854,2.128,22.453,1.815,32.468,1.1,26.827,1.1,26.827a14.118,14.118,0,0,0,7.961-.534s2.761-28.332,4.326-35.843,1.29-13.444,2.752-24.1a98.4,98.4,0,0,0-.967-30.515Z" fill="url(#linear-gradient-96)"/>
        <path id="Path_145" data-name="Path 145" d="M79.146,210a8.057,8.057,0,0,1,4.695,5.321c1.081,3.84,2,16.961,2,16.961a28.533,28.533,0,0,0-4.882,6.214c-2.034,3.6-4.787-12.377-4.787-12.377Z" fill="url(#linear-gradient-97)"/>
        <path id="Path_146" data-name="Path 146" d="M67.352,352.06s6.7,5.864,11.548,1.078c0,0,4.357,2.831,5.08,3.875,1.077,1.555-1.279,4.827-7.723,2.993-5.911-1.682-7.918-2.086-9.025-2.56C64.719,356.369,67.352,352.06,67.352,352.06Z" fill="url(#linear-gradient-98)"/>
        <path id="Path_147" data-name="Path 147" d="M52.352,345.612s.024,5.495.024,6.676-.493,4.892-.164,5.566,4.678,5.736,7.308,5.4,3.543-4.385,3.543-4.385-2.631-1.518-3.453-3.037.493-10.795.493-10.795Z" fill="url(#linear-gradient-99)"/>
        <path id="Path_148" data-name="Path 148" d="M76.956,190.749a4.855,4.855,0,0,1,1.408,3.13c.156,2.034-.469,3.6-.156,5.79s-2.035,7.9-3.913,9-5.32-.078-7.2-1.643-4.852-4.7-4.852-4.7l-2.973-8.137L63.5,190.28Z" fill="#fec4ad"/>
        <path id="Path_149" data-name="Path 149" d="M72.887,205.146s-.157,5.008-.313,6.573,1.9,6.61,0,7.511a10.3,10.3,0,0,1-10.642-1.408,20.342,20.342,0,0,1-3.912-4.538s6.416-2.974,6.886-5.321a55.171,55.171,0,0,0,.626-6.573Z" fill="#fec4ad"/>
        <path id="Path_150" data-name="Path 150" d="M51.291,261.8c-1.408,6.26-.51,18.854-.156,28.794.5,14.08-.646,15.339-.455,28.717.162,11.366,1.107,32.043.794,36.112,0,0,3.029,1.191,7.724-.687,0,0,4.143-33.782,5.082-39.729s3.442-10.641,4.695-21.283,3.755-30.046,3.755-30.046Z" fill="url(#linear-gradient-100)"/>
        <path id="Path_151" data-name="Path 151" d="M68.662,209.528l7.2-.157s1.252,7.668-3.286,9.859L66,212.188Z" fill="#fec4ad"/>
        <path id="Path_152" data-name="Path 152" d="M61.288,211.331s3.282,3.685,7.266,3.577c5.417-.147,4.63-5.384,4.63-5.384s6.119-.466,7.527,1.569.313,9.859.783,12.676.371,6.124-.157,11.267c-.546,5.325,1.479,12.84,1.792,16.282s.857,17.183.857,17.183-11.869,5.248-20.789,5.091a37.2,37.2,0,0,1-15.274-3.5s2.495-16.2,2.652-20.577,2.437-14.166,2.437-14.166.783-9.233.157-13.145-1.912-5.321-1.912-5.321Z" fill="url(#linear-gradient-101)"/>
        <path id="Path_153" data-name="Path 153" d="M68.554,214.908l-.7,2.469,1.383,2.111h1.529l.724-3.174-1.015-1.776Z" fill="url(#linear-gradient-102)"/>
        <path id="Path_154" data-name="Path 154" d="M70.764,219.488H69.235l-1.765,17,3.493,3.3,2.171-3.681Z" fill="url(#linear-gradient-103)"/>
        <path id="Path_155" data-name="Path 155" d="M50.575,249.515c.156-4.382,2.437-14.166,2.437-14.166s.783-9.233.157-13.145-1.912-5.321-1.912-5.321l7.943-4.4,10.006,17.9s6.7-19.472,6.654-21.015c3.078-.016,4.33.968,4.851,1.722,1.409,2.034.313,9.859.783,12.676s.371,6.124-.157,11.267c-.546,5.325,1.479,12.84,1.792,16.282s.857,17.183.857,17.183-11.869,5.248-20.789,5.091a37.2,37.2,0,0,1-15.274-3.5S50.418,253.9,50.575,249.515Z" fill="url(#linear-gradient-104)"/>
        <path id="Path_156" data-name="Path 156" d="M72.637,189.587c-1.273,1.485-2.334,1.167-3.819,4.031-.532,1.026-.106,2.439-1.272,3.394a3,3,0,0,0-1.167,3.076s-1.395-3.783-2.725-2.61c-1.47,1.3-.235,4.7,1.8,5.634a19.894,19.894,0,0,1-.347,4.4s.256-1.911-3.5-5.2-4.119-9.612-2.758-13.046c2.227-5.622,8.4-7.284,10.753-5.719S72.637,189.587,72.637,189.587Z" fill="url(#linear-gradient-105)"/>
        <path id="Path_157" data-name="Path 157" d="M51.851,356.285s6.657,7.08,11.212,2.582c0,0,4.729,3.466,5.408,4.446,1.012,1.462-1.261,3.178-6.3,2.585A29.74,29.74,0,0,1,52.1,362.915C49.737,361.9,51.851,356.285,51.851,356.285Z" fill="url(#linear-gradient-106)"/>
        <path id="Path_158" data-name="Path 158" d="M51.257,216.883a23.361,23.361,0,0,0-3.882,5.351c-2.592,5-3.8,21.766-3.8,21.766s.213,2.651,5.3,1.909c1.861-.272,6.682-3.288,6.682-3.288s-.715-16.4-1.1-20.954S51.257,216.883,51.257,216.883Z" fill="url(#linear-gradient-107)"/>
        <g id="Group_131" data-name="Group 131">
          <path id="Path_159" data-name="Path 159" d="M65.106,244.848a18.405,18.405,0,0,0,3.885-3.311c.57-.719,1.206-2.522,2.267-2.947s7.106-.106,7.106-.106-2.121,2.864-3.288,4.349-5.939,3.394-5.939,3.394Z" fill="#fec4ad"/>
          <g id="Group_129" data-name="Group 129">
            <path id="Path_160" data-name="Path 160" d="M68.991,241.537s-3.036,3.47-11.31,4.743c-2.384.367-4.188,1.1-4.295.477-.042-.238-.045-1.264-.028-2.643a20.015,20.015,0,0,1-6.756,1.557c.463,3.807,1.11,7.176,2.011,8.564.922,1.422,2.175,2.871,8.75-.636,4.773-2.546,11.774-7.372,11.774-7.372Z" fill="#fec4ad"/>
          </g>
          <g id="Group_130" data-name="Group 130">
            <path id="Path_161" data-name="Path 161" d="M68.991,241.537s-13.295,4.35-13.4,3.727c-.041-.238-.045-1.264-.028-2.643-2.147.935-9.651.069-11.879.194-.122,4.767.322,10.223,1.222,11.611.923,1.422,6.868,3.018,13.443-.489C63.12,251.391,70.69,247.7,70.69,247.7Z" fill="url(#linear-gradient-108)"/>
          </g>
        </g>
        <g id="Group_132" data-name="Group 132">
          <path id="Path_162" data-name="Path 162" d="M84.421,250.033l-13.269,2.9a.972.972,0,0,1-1.136-1.236l5.978-19.33a.972.972,0,0,1,.721-.663l13.269-2.9a.971.971,0,0,1,1.135,1.237l-5.977,19.33A.972.972,0,0,1,84.421,250.033Z" fill="url(#linear-gradient-109)"/>
          <path id="Path_163" data-name="Path 163" d="M84.642,249.967l-13.269,2.9c-.727.159-1.445.219-1.017-1.549l5.94-18.455c.1-.335.158-.522.5-.6l13.4-3.116c.727-.159,1.369.114,1.15.825L85.363,249.3A.969.969,0,0,1,84.642,249.967Z" fill="url(#linear-gradient-110)"/>
          <path id="Path_164" data-name="Path 164" d="M88.446,242.471a4.009,4.009,0,0,1-2.44,1.662c-.873.119-1.654-.4-1.562-1.032s-.5-1.087-.323-1.733-.043-.972.212-1.717a1.558,1.558,0,0,1,1.44-1.172c.623,0,2.351.3,2.653-.093a13.4,13.4,0,0,0,.839-2.335,3.109,3.109,0,0,1,.5,1.71,24.505,24.505,0,0,1-.645,3.108A4.408,4.408,0,0,1,88.446,242.471Z" fill="#fec4ad"/>
        </g>
        <path id="Path_165" data-name="Path 165" d="M63.409,186.087s4.243-4.879,9.44-2.97,6.682,5.834,6.576,8.379-5.834.849-5.834.849Z" fill="url(#linear-gradient-111)"/>
        <path id="Path_166" data-name="Path 166" d="M59.36,211.462s7.434,13.968,9.011,16.446a22.939,22.939,0,0,1,2.4,5.61s-5.78-6.737-7.582-8.088a32.7,32.7,0,0,1-3.154-2.7l2.478-1.126-2.7-1.352-1.79-6.964Z" fill="url(#linear-gradient-112)"/>
        <path id="Path_167" data-name="Path 167" d="M74.323,209.52s-2.652,15.2-3.361,17.9a23.45,23.45,0,0,0-.525,6.094s3.3-7.376,4.559-8.869a22.24,22.24,0,0,0,2.1-2.977l-2.625-1.164L76.553,219l-.412-9.754Z" fill="url(#linear-gradient-113)"/>
        <path id="Path_168" data-name="Path 168" d="M67.776,218.715l.778-3.807-6.191-4.837-1.484,1.048Z" fill="url(#linear-gradient-114)"/>
        <path id="Path_169" data-name="Path 169" d="M74.98,209.59l-1.79-.393-2.718,5.341,1.67,3.478Z" fill="url(#linear-gradient-115)"/>
      </g>
    </g>
  </g>
</svg>
