<svg xmlns="http://www.w3.org/2000/svg" width="356.368" height="343.646" viewBox="0 0 356.368 343.646">
  <g id="Group_735" data-name="Group 735" transform="translate(-71.816 -78.177)">
    <g id="Group_682" data-name="Group 682">
      <g id="Group_549" data-name="Group 549">
        <g id="Group_530" data-name="Group 530">
          <g id="Group_529" data-name="Group 529">
            <g id="Group_528" data-name="Group 528">
              <path id="Path_378" data-name="Path 378" d="M342.449,260.012l.283,2.879c-.02-.168,7.383-.386,7.383-.386l0-2.9S342.441,259.836,342.449,260.012Z" fill="#fbe366"/>
            </g>
          </g>
        </g>
        <g id="Group_533" data-name="Group 533">
          <g id="Group_532" data-name="Group 532">
            <g id="Group_531" data-name="Group 531">
              <path id="Path_379" data-name="Path 379" d="M331.129,262.256l.927,2.748s.439-.136,1.087-.329a18.625,18.625,0,0,1,2.419-.644c1.789-.36,3.589-.725,3.589-.725l-.455-2.859s-1.9.381-3.81.767a19.722,19.722,0,0,0-2.588.693C331.6,262.112,331.129,262.256,331.129,262.256Z" fill="#fbe366"/>
            </g>
          </g>
        </g>
        <g id="Group_536" data-name="Group 536">
          <g id="Group_535" data-name="Group 535">
            <g id="Group_534" data-name="Group 534">
              <path id="Path_380" data-name="Path 380" d="M320.7,267.337l1.673,2.375c-.14-.234,6.267-3.671,6.353-3.478l-1.181-2.649C327.445,263.383,320.543,267.091,320.7,267.337Z" fill="#fbe366"/>
            </g>
          </g>
        </g>
        <g id="Group_539" data-name="Group 539">
          <g id="Group_538" data-name="Group 538">
            <g id="Group_537" data-name="Group 537">
              <path id="Path_381" data-name="Path 381" d="M312.388,275.438l2.285,1.788a22.411,22.411,0,0,1,2.314-2.789,21.238,21.238,0,0,1,2.592-2.539l-1.9-2.2a23.36,23.36,0,0,0-2.793,2.731A25.514,25.514,0,0,0,312.388,275.438Z" fill="#fbe366"/>
            </g>
          </g>
        </g>
        <g id="Group_542" data-name="Group 542">
          <g id="Group_541" data-name="Group 541">
            <g id="Group_540" data-name="Group 540">
              <path id="Path_382" data-name="Path 382" d="M306.6,285.433l2.633,1.2s.759-1.685,1.625-3.314c.438-.8.882-1.6,1.2-2.2.365-.575.608-.964.608-.964l-2.437-1.559-.652,1.034c-.349.632-.82,1.489-1.284,2.342C307.381,283.686,306.6,285.433,306.6,285.433Z" fill="#fbe366"/>
            </g>
          </g>
        </g>
        <g id="Group_545" data-name="Group 545">
          <g id="Group_544" data-name="Group 544">
            <g id="Group_543" data-name="Group 543">
              <path id="Path_383" data-name="Path 383" d="M302.582,295.531l2.379,1.85,1.357-3.654c.714-1.821,1.424-3.638,1.424-3.638l-2.581-1.334s-.656,1.686-1.324,3.376C303.214,293.829,302.582,295.531,302.582,295.531Z" fill="#fbe366"/>
            </g>
          </g>
        </g>
        <g id="Group_548" data-name="Group 548">
          <g id="Group_547" data-name="Group 547">
            <g id="Group_546" data-name="Group 546">
              <path id="Path_384" data-name="Path 384" d="M298.644,305.576l2,2.535s.828-1.743,1.546-3.544c.763-1.784,1.432-3.609,1.432-3.609l-2.265-2.1s-.648,1.69-1.3,3.383S298.644,305.576,298.644,305.576Z" fill="#fbe366"/>
            </g>
          </g>
        </g>
      </g>
      <g id="Group_571" data-name="Group 571">
        <g id="Group_552" data-name="Group 552">
          <g id="Group_551" data-name="Group 551">
            <g id="Group_550" data-name="Group 550">
              <path id="Path_385" data-name="Path 385" d="M293.181,314.846l1.489,3.035a6.868,6.868,0,0,0,.759-.927c.426-.586.992-1.366,1.554-2.145.513-.816,1.013-1.641,1.4-2.256.369-.615.57-1.05.57-1.05l-1.834-2.728s-.857,1.6-1.8,3.146c-.525.743-1.05,1.481-1.436,2.039A5.851,5.851,0,0,1,293.181,314.846Z" fill="#fbe366"/>
            </g>
          </g>
        </g>
        <g id="Group_555" data-name="Group 555">
          <g id="Group_554" data-name="Group 554">
            <g id="Group_553" data-name="Group 553">
              <path id="Path_386" data-name="Path 386" d="M284.728,321.392l.853,3.363s.435-.217,1.082-.537a14.289,14.289,0,0,0,2.306-1.309,20.653,20.653,0,0,0,3.067-2.333l-1.3-3.167a18.562,18.562,0,0,1-2.855,2.227,12.128,12.128,0,0,1-2.15,1.243C285.13,321.191,284.728,321.392,284.728,321.392Z" fill="#fbe366"/>
            </g>
          </g>
        </g>
        <g id="Group_558" data-name="Group 558">
          <g id="Group_557" data-name="Group 557">
            <g id="Group_556" data-name="Group 556">
              <path id="Path_387" data-name="Path 387" d="M274.269,323.787l.143,3.491s1.92-.193,3.843-.4c.948-.2,1.891-.4,2.6-.554a10.826,10.826,0,0,0,1.177-.275l-.627-3.433c-.005,0-.435.139-1.1.271s-1.55.332-2.436.521C276.065,323.594,274.269,323.787,274.269,323.787Z" fill="#fbe366"/>
            </g>
          </g>
        </g>
        <g id="Group_561" data-name="Group 561">
          <g id="Group_560" data-name="Group 560">
            <g id="Group_559" data-name="Group 559">
              <path id="Path_388" data-name="Path 388" d="M263.514,323.188l-.574,3.454s.468.1,1.182.246l2.649.226c.964.077,1.928.159,2.65.217.722,0,1.206,0,1.206,0l.094-3.5s-.451,0-1.136,0c-.669-.057-1.575-.127-2.482-.2l-2.473-.213C263.957,323.282,263.514,323.188,263.514,323.188Z" fill="#fbe366"/>
            </g>
          </g>
        </g>
        <g id="Group_564" data-name="Group 564">
          <g id="Group_563" data-name="Group 563">
            <g id="Group_562" data-name="Group 562">
              <path id="Path_389" data-name="Path 389" d="M253.818,318.754l-1.251,3.22a27.184,27.184,0,0,0,3.208,2.137,12.691,12.691,0,0,0,2.4,1.128c.668.275,1.116.455,1.116.455l.808-3.392-1.046-.438a11.73,11.73,0,0,1-2.239-1.071A25.815,25.815,0,0,1,253.818,318.754Z" fill="#fbe366"/>
            </g>
          </g>
        </g>
        <g id="Group_567" data-name="Group 567">
          <g id="Group_566" data-name="Group 566">
            <g id="Group_565" data-name="Group 565">
              <path id="Path_390" data-name="Path 390" d="M246.842,310.584l-1.813,2.8s1.1,1.584,2.194,3.167c1.263,1.456,2.531,2.912,2.531,2.912l1.452-3.1s-1.17-1.386-2.338-2.764C247.85,312.085,246.842,310.584,246.842,310.584Z" fill="#fbe366"/>
            </g>
          </g>
        </g>
        <g id="Group_570" data-name="Group 570">
          <g id="Group_569" data-name="Group 569">
            <g id="Group_568" data-name="Group 568">
              <path id="Path_391" data-name="Path 391" d="M242.059,300.925l-2.264,2.2s.755,1.789,1.575,3.544a31.5,31.5,0,0,0,1.747,3.45l1.977-2.613a29.845,29.845,0,0,1-1.6-3.257C242.752,302.6,242.059,300.925,242.059,300.925Z" fill="#fbe366"/>
            </g>
          </g>
        </g>
      </g>
      <g id="Group_593" data-name="Group 593">
        <g id="Group_574" data-name="Group 574">
          <g id="Group_573" data-name="Group 573">
            <g id="Group_572" data-name="Group 572">
              <path id="Path_392" data-name="Path 392" d="M238.618,290.7l-2.592,1.468s.541,1.874,1.161,3.72c.578,1.862,1.247,3.688,1.247,3.688l2.382-1.973s-.607-1.71-1.14-3.441C239.114,292.443,238.618,290.7,238.618,290.7Z" fill="#fbe366"/>
            </g>
          </g>
        </g>
        <g id="Group_577" data-name="Group 577">
          <g id="Group_576" data-name="Group 576">
            <g id="Group_575" data-name="Group 575">
              <path id="Path_393" data-name="Path 393" d="M235.972,280.22l-2.813.694s.447,1.891.9,3.785.947,3.79.947,3.79l2.679-1.214s-.472-1.747-.878-3.515S235.972,280.22,235.972,280.22Z" fill="#fbe366"/>
            </g>
          </g>
        </g>
        <g id="Group_580" data-name="Group 580">
          <g id="Group_579" data-name="Group 579">
            <g id="Group_578" data-name="Group 578">
              <path id="Path_394" data-name="Path 394" d="M233.766,269.3l-2.851.525,1.464,7.436,2.834-.607Z" fill="#fbe366"/>
            </g>
          </g>
        </g>
        <g id="Group_583" data-name="Group 583">
          <g id="Group_582" data-name="Group 582">
            <g id="Group_581" data-name="Group 581">
              <path id="Path_395" data-name="Path 395" d="M231.85,258.269l-2.855.467,1.267,7.448,2.851-.5Z" fill="#fbe366"/>
            </g>
          </g>
        </g>
        <g id="Group_586" data-name="Group 586">
          <g id="Group_585" data-name="Group 585">
            <g id="Group_584" data-name="Group 584">
              <path id="Path_396" data-name="Path 396" d="M230.083,247.191l-2.855.451L228.4,255.1l2.859-.468Z" fill="#fbe366"/>
            </g>
          </g>
        </g>
        <g id="Group_589" data-name="Group 589">
          <g id="Group_588" data-name="Group 588">
            <g id="Group_587" data-name="Group 587">
              <path id="Path_397" data-name="Path 397" d="M228.343,236.092l-2.859.459,1.173,7.44,2.859-.447Z" fill="#fbe366"/>
            </g>
          </g>
        </g>
        <g id="Group_592" data-name="Group 592">
          <g id="Group_591" data-name="Group 591">
            <g id="Group_590" data-name="Group 590">
              <path id="Path_398" data-name="Path 398" d="M226.49,225l-2.846.5,1.251,7.407,2.855-.463Z" fill="#fbe366"/>
            </g>
          </g>
        </g>
      </g>
      <g id="Group_615" data-name="Group 615">
        <g id="Group_596" data-name="Group 596">
          <g id="Group_595" data-name="Group 595">
            <g id="Group_594" data-name="Group 594">
              <path id="Path_399" data-name="Path 399" d="M224.369,213.931l-2.822.578.747,3.679c.348,1.85.685,3.692.685,3.692l2.855-.529s-.341-1.858-.69-3.717C224.759,215.78,224.369,213.931,224.369,213.931Z" fill="#fbe366"/>
            </g>
          </g>
        </g>
        <g id="Group_599" data-name="Group 599">
          <g id="Group_598" data-name="Group 598">
            <g id="Group_597" data-name="Group 597">
              <path id="Path_400" data-name="Path 400" d="M221.8,202.91l-2.8.755s.467,1.808.931,3.617c.427,1.821.849,3.643.849,3.643l2.822-.628s-.426-1.854-.857-3.7C222.269,204.76,221.8,202.91,221.8,202.91Z" fill="#fbe366"/>
            </g>
          </g>
        </g>
        <g id="Group_602" data-name="Group 602">
          <g id="Group_601" data-name="Group 601">
            <g id="Group_600" data-name="Group 600">
              <path id="Path_401" data-name="Path 401" d="M218.4,192.074l-2.707,1s.66,1.726,1.239,3.5c.545,1.789,1.1,3.564,1.1,3.564l2.777-.816s-.558-1.825-1.124-3.646C219.082,193.862,218.4,192.074,218.4,192.074Z" fill="#fbe366"/>
            </g>
          </g>
        </g>
        <g id="Group_605" data-name="Group 605">
          <g id="Group_604" data-name="Group 604">
            <g id="Group_603" data-name="Group 603">
              <path id="Path_402" data-name="Path 402" d="M213.57,181.611l-2.453,1.55s.861,1.6,1.714,3.207c.825,1.625,1.518,3.343,1.518,3.352l2.662-1.149s-.718-1.772-1.6-3.511C214.5,183.333,213.57,181.611,213.57,181.611Z" fill="#fbe366"/>
            </g>
          </g>
        </g>
        <g id="Group_608" data-name="Group 608">
          <g id="Group_607" data-name="Group 607">
            <g id="Group_606" data-name="Group 606">
              <path id="Path_403" data-name="Path 403" d="M206.064,172.78l-1.9,2.186s.348.291.861.738a14.413,14.413,0,0,1,1.817,1.7c.586.69,1.181,1.387,1.62,1.9a5.113,5.113,0,0,1,.7.895l2.285-1.785a5.66,5.66,0,0,0-.747-.963c-.479-.558-1.111-1.3-1.751-2.047a15.9,15.9,0,0,0-1.961-1.834C206.433,173.1,206.064,172.78,206.064,172.78Z" fill="#fbe366"/>
            </g>
          </g>
        </g>
        <g id="Group_611" data-name="Group 611">
          <g id="Group_610" data-name="Group 610">
            <g id="Group_609" data-name="Group 609">
              <path id="Path_404" data-name="Path 404" d="M196.327,166.546l-1.337,2.563a7.957,7.957,0,0,1,1.017.537c.59.353,1.39.821,2.182,1.284a30.364,30.364,0,0,1,3.08,1.977l1.686-2.366a35.028,35.028,0,0,0-3.282-2.092c-.82-.488-1.652-.981-2.276-1.341A7.722,7.722,0,0,0,196.327,166.546Z" fill="#fbe366"/>
            </g>
          </g>
        </g>
        <g id="Group_614" data-name="Group 614">
          <g id="Group_613" data-name="Group 613">
            <g id="Group_612" data-name="Group 612">
              <path id="Path_405" data-name="Path 405" d="M185.548,162.362l-.673,2.814,3.487,1.017c1.7.673,3.4,1.337,3.4,1.337l1.161-2.645-3.621-1.424C187.43,162.916,185.548,162.362,185.548,162.362Z" fill="#fbe366"/>
            </g>
          </g>
        </g>
      </g>
      <g id="Group_637" data-name="Group 637">
        <g id="Group_618" data-name="Group 618">
          <g id="Group_617" data-name="Group 617">
            <g id="Group_616" data-name="Group 616">
              <path id="Path_406" data-name="Path 406" d="M173.838,161.784l.435,2.862s.439-.077,1.1-.176c.656-.07,1.559-.07,2.444-.11a32.14,32.14,0,0,1,3.577.188l.361-2.875a36.609,36.609,0,0,0-3.962-.214c-.989.05-1.985.058-2.728.136C174.33,161.706,173.838,161.784,173.838,161.784Z" fill="#fbe366"/>
            </g>
          </g>
        </g>
        <g id="Group_621" data-name="Group 621">
          <g id="Group_620" data-name="Group 620">
            <g id="Group_619" data-name="Group 619">
              <path id="Path_407" data-name="Path 407" d="M162.874,166.062l1.608,2.411s.373-.25.923-.623c.591-.32,1.382-.742,2.162-1.165.808-.378,1.644-.673,2.26-.939a8.791,8.791,0,0,1,1.05-.345l-.845-2.764a5.268,5.268,0,0,0-1.19.394c-.689.287-1.628.619-2.526,1.045-.878.472-1.756.939-2.408,1.3C163.285,165.791,162.874,166.062,162.874,166.062Z" fill="#fbe366"/>
            </g>
          </g>
        </g>
        <g id="Group_624" data-name="Group 624">
          <g id="Group_623" data-name="Group 623">
            <g id="Group_622" data-name="Group 622">
              <path id="Path_408" data-name="Path 408" d="M154.446,174.121l2.293,1.76s.274-.369.688-.907c.456-.512,1.047-1.194,1.645-1.887,1.255-1.3,2.609-2.5,2.609-2.5l-1.887-2.191s-1.485,1.3-2.838,2.716c-.644.742-1.288,1.476-1.768,2.034C154.745,173.723,154.446,174.121,154.446,174.121Z" fill="#fbe366"/>
            </g>
          </g>
        </g>
        <g id="Group_627" data-name="Group 627">
          <g id="Group_626" data-name="Group 626">
            <g id="Group_625" data-name="Group 625">
              <path id="Path_409" data-name="Path 409" d="M148.539,184.014l2.617,1.214a57.789,57.789,0,0,1,3.523-6.427l-2.428-1.571s-1.038,1.645-1.989,3.331C149.356,182.271,148.539,184.014,148.539,184.014Z" fill="#fbe366"/>
            </g>
          </g>
        </g>
        <g id="Group_630" data-name="Group 630">
          <g id="Group_629" data-name="Group 629">
            <g id="Group_628" data-name="Group 628">
              <path id="Path_410" data-name="Path 410" d="M144.627,194.8l2.793.755s.492-1.78,1.054-3.536c.594-1.751,1.271-3.466,1.271-3.466l-2.7-1.062s-.7,1.793-1.321,3.617C145.135,192.939,144.631,194.8,144.627,194.8Z" fill="#fbe366"/>
            </g>
          </g>
        </g>
        <g id="Group_633" data-name="Group 633">
          <g id="Group_632" data-name="Group 632">
            <g id="Group_631" data-name="Group 631">
              <path id="Path_411" data-name="Path 411" d="M142.58,206.113l2.887.2s.14-1.8.431-3.625.669-3.622.669-3.622l-2.835-.611s-.406,1.887-.693,3.794C142.727,204.153,142.58,206.113,142.58,206.113Z" fill="#fbe366"/>
            </g>
          </g>
        </g>
        <g id="Group_636" data-name="Group 636">
          <g id="Group_635" data-name="Group 635">
            <g id="Group_634" data-name="Group 634">
              <path id="Path_412" data-name="Path 412" d="M143.2,217.552l2.88-.291-.529-4.95c-.1-.808-.148-1.633-.185-2.449l-2.9.082c.041.878.095,1.764.2,2.637Z" fill="#fbe366"/>
            </g>
          </g>
        </g>
      </g>
      <g id="Group_659" data-name="Group 659">
        <g id="Group_640" data-name="Group 640">
          <g id="Group_639" data-name="Group 639">
            <g id="Group_638" data-name="Group 638">
              <path id="Path_413" data-name="Path 413" d="M144.147,228.693l2.888-.2-.6-7.547-2.884.263Z" fill="#fbe366"/>
            </g>
          </g>
        </g>
        <g id="Group_643" data-name="Group 643">
          <g id="Group_642" data-name="Group 642">
            <g id="Group_641" data-name="Group 641">
              <path id="Path_414" data-name="Path 414" d="M144.7,239.849l2.892-.082s-.061-1.9-.131-3.794c-.1-1.879-.193-3.782-.193-3.782l-2.892.164s.1,1.874.193,3.749C144.639,237.974,144.7,239.849,144.7,239.849Z" fill="#fbe366"/>
            </g>
          </g>
        </g>
        <g id="Group_646" data-name="Group 646">
          <g id="Group_645" data-name="Group 645">
            <g id="Group_644" data-name="Group 644">
              <path id="Path_415" data-name="Path 415" d="M144.787,251.005l2.891.049s.012-1.9.029-3.794c-.017-1.9-.033-3.79-.033-3.79l-2.892.041s.017,1.875.029,3.745C144.8,249.131,144.787,251.005,144.787,251.005Z" fill="#fbe366"/>
            </g>
          </g>
        </g>
        <g id="Group_649" data-name="Group 649">
          <g id="Group_648" data-name="Group 648">
            <g id="Group_647" data-name="Group 647">
              <path id="Path_416" data-name="Path 416" d="M144.286,262.132l2.884.222s.11-1.895.229-3.794c.139-1.895.173-3.79.173-3.79l-2.9-.106s-.037,1.874-.165,3.736S144.286,262.132,144.286,262.132Z" fill="#fbe366"/>
            </g>
          </g>
        </g>
        <g id="Group_652" data-name="Group 652">
          <g id="Group_651" data-name="Group 651">
            <g id="Group_650" data-name="Group 650">
              <path id="Path_417" data-name="Path 417" d="M143.035,273.174l2.863.439s.258-1.887.5-3.77c.267-1.891.427-3.786.427-3.786l-2.883-.286s-.152,1.866-.419,3.707C143.293,271.328,143.035,273.174,143.035,273.174Z" fill="#fbe366"/>
            </g>
          </g>
        </g>
        <g id="Group_655" data-name="Group 655">
          <g id="Group_654" data-name="Group 654">
            <g id="Group_653" data-name="Group 653">
              <path id="Path_418" data-name="Path 418" d="M140.824,284.022l2.806.726s.492-1.849.878-3.716c.439-1.857.758-3.74.758-3.74l-2.842-.525s-.32,1.837-.747,3.642C141.3,282.238,140.824,284.022,140.824,284.022Z" fill="#fbe366"/>
            </g>
          </g>
        </g>
        <g id="Group_658" data-name="Group 658">
          <g id="Group_657" data-name="Group 657">
            <g id="Group_656" data-name="Group 656">
              <path id="Path_419" data-name="Path 419" d="M137.346,294.453l2.666,1.124a32.48,32.48,0,0,0,1.4-3.581c.627-1.813,1.222-3.634,1.222-3.634l-2.764-.841s-.587,1.756-1.181,3.5A30.525,30.525,0,0,1,137.346,294.453Z" fill="#fbe366"/>
            </g>
          </g>
        </g>
      </g>
      <g id="Group_681" data-name="Group 681">
        <g id="Group_662" data-name="Group 662">
          <g id="Group_661" data-name="Group 661">
            <g id="Group_660" data-name="Group 660">
              <path id="Path_420" data-name="Path 420" d="M132.191,303.993l2.325,1.743s1.1-1.624,2.125-3.277c.914-1.718,1.825-3.433,1.825-3.433l-2.592-1.292s-.853,1.616-1.71,3.22C133.175,302.475,132.191,303.993,132.191,303.993Z" fill="#fbe366"/>
            </g>
          </g>
        </g>
        <g id="Group_665" data-name="Group 665">
          <g id="Group_664" data-name="Group 664">
            <g id="Group_663" data-name="Group 663">
              <path id="Path_421" data-name="Path 421" d="M124.874,311.868l1.747,2.33c.172.209,5.721-5.3,5.561-5.451l-2.153-1.945C130.177,306.934,125.037,312.065,124.874,311.868Z" fill="#fbe366"/>
            </g>
          </g>
        </g>
        <g id="Group_668" data-name="Group 668">
          <g id="Group_667" data-name="Group 667">
            <g id="Group_666" data-name="Group 666">
              <path id="Path_422" data-name="Path 422" d="M115.415,316.95l1.013,2.727s.464-.159,1.157-.41a14.075,14.075,0,0,0,2.477-1.021c1.723-.907,3.454-1.813,3.454-1.813l-1.518-2.5s-1.612.849-3.207,1.686a12.891,12.891,0,0,1-2.305.947C115.85,316.8,115.415,316.95,115.415,316.95Z" fill="#fbe366"/>
            </g>
          </g>
        </g>
        <g id="Group_671" data-name="Group 671">
          <g id="Group_670" data-name="Group 670">
            <g id="Group_669" data-name="Group 669">
              <path id="Path_423" data-name="Path 423" d="M104.841,318.849l.193,2.887s1.944-.139,3.9-.291c1.928-.263,3.831-.722,3.835-.726l-.751-2.8s-1.764.426-3.56.664Z" fill="#fbe366"/>
            </g>
          </g>
        </g>
        <g id="Group_674" data-name="Group 674">
          <g id="Group_673" data-name="Group 673">
            <g id="Group_672" data-name="Group 672">
              <path id="Path_424" data-name="Path 424" d="M94.013,318.053l-.471,2.855s1.907.287,3.806.582c1.927.168,3.876.217,3.876.217l.069-2.895s-1.821-.045-3.638-.2C95.834,318.332,94.013,318.053,94.013,318.053Z" fill="#fbe366"/>
            </g>
          </g>
        </g>
        <g id="Group_677" data-name="Group 677">
          <g id="Group_676" data-name="Group 676">
            <g id="Group_675" data-name="Group 675">
              <path id="Path_425" data-name="Path 425" d="M83.316,315.457l-.861,2.764c-.061.173,7.391,1.994,7.391,1.994l.624-2.831S83.275,315.633,83.316,315.457Z" fill="#fbe366"/>
            </g>
          </g>
        </g>
        <g id="Group_680" data-name="Group 680">
          <g id="Group_679" data-name="Group 679">
            <g id="Group_678" data-name="Group 678">
              <path id="Path_426" data-name="Path 426" d="M72.944,311.573l-1.128,2.674s1.759.73,3.515,1.464a21.523,21.523,0,0,0,2.453.923c.676.234,1.127.385,1.127.385l.964-2.727s-.443-.147-1.1-.373a22.08,22.08,0,0,1-2.391-.9C74.666,312.3,72.944,311.573,72.944,311.573Z" fill="#fbe366"/>
            </g>
          </g>
        </g>
      </g>
    </g>
    <g id="Group_688" data-name="Group 688">
      <g id="Group_684" data-name="Group 684">
        <g id="Group_683" data-name="Group 683">
          <path id="Path_427" data-name="Path 427" d="M356.887,321.773a20.4,20.4,0,1,1-19.5-21.258A20.356,20.356,0,0,1,356.887,321.773Z" fill="#cbe9f4"/>
        </g>
      </g>
      <g id="Group_685" data-name="Group 685">
        <path id="Path_428" data-name="Path 428" d="M407.447,309.559a27.608,27.608,0,0,1-8.544-23.678c.795-5.152,15.286-14.122,15.286-14.122l-21.615-23.49s-10.143,13.745-15.327,14.1a25.9,25.9,0,0,1-21.735-10.118c-3.064-4.217.907-20.791.907-20.791l-31.931-1.374s2.5,16.874-.894,20.787a22.154,22.154,0,0,1-19.962,6.792c-5.111-1.013-13.371-15.918-13.371-15.918L265.8,262.293s13.24,10.729,13.375,15.918a29.347,29.347,0,0,1-11.73,23.551c-4.25,3.027-20.807-1.157-20.807-1.157l-1.789,31.906s16.874-2.317,20.738,1.136a27.7,27.7,0,0,1,8.56,23.7c-.792,5.143-15.307,14.109-15.307,14.109l21.615,23.49s10.135-13.732,15.336-14.093a26.062,26.062,0,0,1,21.746,10.11c3.06,4.225-.881,20.787-.881,20.787l31.9,1.378s-2.526-16.866.87-20.786a22.26,22.26,0,0,1,20-6.789c5.09,1.03,13.363,15.923,13.363,15.923l24.454-20.549S394.018,370.188,393.862,365A29.417,29.417,0,0,1,405.6,341.448c4.249-3.006,20.819,1.178,20.819,1.178l1.764-31.9S411.335,313.016,407.447,309.559Zm-73.185,64.185A52.908,52.908,0,1,1,389.4,323.168,52.9,52.9,0,0,1,334.262,373.744Z" fill="#cbe9f4"/>
      </g>
      <g id="Group_687" data-name="Group 687">
        <g id="Group_686" data-name="Group 686">
          <path id="Path_429" data-name="Path 429" d="M376.935,323.352A40.427,40.427,0,1,1,338.29,281.2,40.406,40.406,0,0,1,376.935,323.352Z" fill="#cbe9f4"/>
        </g>
      </g>
    </g>
    <g id="Group_691" data-name="Group 691">
      <g id="Group_689" data-name="Group 689">
        <path id="Path_430" data-name="Path 430" d="M276.685,177.911c.34-2.5-1.194-9.881-8.023-12.009-9.13-2.839-28.28.873-37.213-8.839-8.958-9.758-6.243-18.244-5.189-24.175,1.078-5.943,4.3-7.8,4.524-11.32.246-3.54-3.95-3.634-7.957,5.475-1.92,4.352-13.941,24.729-5.43,38.28C228.54,183.091,274.564,192.681,276.685,177.911Z" fill="#fbc6b4"/>
      </g>
      <g id="Group_690" data-name="Group 690">
        <path id="Path_431" data-name="Path 431" d="M278.481,173.264s.591,10.471-14.95,11.784-22.5-.271-22.5-.271-3.811-9.462.808-24.794C241.838,159.983,279.765,158.425,278.481,173.264Z" fill="#eda503"/>
      </g>
    </g>
    <g id="Group_692" data-name="Group 692">
      <path id="Path_432" data-name="Path 432" d="M303.919,165.939l-.025-.054c-5.242-2.834-11.956-3.474-17.108-4.011-11.344-1.189-29.871.393-33.407,20.266-1.152,6.55-1.488,16.131-.9,25.913.1,2.129.226,4.3.5,6.436.906,9.548-1.977,15.967,1.431,20.84,9.9,14.15,67.2,26.123,57.988,8.523-.181-.4-2.239-6.226,1.882-7.986-2.895-8.137-2.592-17.87-3.924-24.63a50.926,50.926,0,0,1-.8-6.152,52.036,52.036,0,0,1,1.362-15.935C314.025,175.864,310.026,169.363,303.919,165.939Z" fill="#ffb502"/>
    </g>
    <g id="Group_696" data-name="Group 696">
      <g id="Group_694" data-name="Group 694">
        <g id="Group_693" data-name="Group 693">
          <path id="Path_433" data-name="Path 433" d="M231.469,301.446c11.037,11.689,29.031,24.737,35.142,33.7.976,1.427,1.107,2.079-2.912,6.2-4.052,4.089,2.157,4.335,10.406-.373,8.256-4.73-18.486-42.152-32.969-58.624C228.483,267.936,218.643,287.882,231.469,301.446Z" fill="#fbc6b4"/>
        </g>
      </g>
      <g id="Group_695" data-name="Group 695">
        <path id="Path_434" data-name="Path 434" d="M275.47,335s-5.578,7.112-11.771,6.345c0,0-7.572,5.644-1.235,5.057C268.822,345.8,279.786,342.285,275.47,335Z" fill="#ffb502"/>
      </g>
    </g>
    <g id="Group_697" data-name="Group 697">
      <path id="Path_435" data-name="Path 435" d="M295.962,179.843c-1.981,9.877-6.9,25.06,15.787,37.094,0,0-39.2,47.382-62.652,23.125,0,0,3.1-42.845,8.848-60.026,1.648-4.93,5.561-18.462,16.275-17.912,0,0-16,24.253-8.831,30.364s13.559.554,16.46-4.327c4.663-7.847,14.978-24.819,14.978-24.819L303.1,165.5A33.13,33.13,0,0,0,295.962,179.843Z" fill="#1c2745"/>
    </g>
    <g id="Group_701" data-name="Group 701">
      <g id="Group_698" data-name="Group 698">
        <path id="Path_436" data-name="Path 436" d="M295.634,147.74s-6.378,6.952-2,13.108c4.508,6.321-22.222,11.337-20.155,6.739,2.65-5.939,6.94-8.605,6.14-16.628Z" fill="#f7b2a0"/>
      </g>
      <g id="Group_699" data-name="Group 699">
        <path id="Path_437" data-name="Path 437" d="M287.468,128.175c-6.8,3.306-19.212,23.277-15.213,29.786,1.776,2.826,12.379,3.56,21.6-4.052,3.794-3.1,9.269-9.471,7.612-18.1C300.712,131.9,295.355,124.332,287.468,128.175Z" fill="#fbc6b4"/>
      </g>
      <g id="Group_700" data-name="Group 700">
        <path id="Path_438" data-name="Path 438" d="M281.3,129.131c-2.006,2.367-1.87,3.093,5.951,6.9,7.8,3.827,9.393,3.708,7.945,5.4-4.249,4.991,1.952,5.684-3.191,11.6s3.051,3.917,7.834-.755c.939-.947,6.115-5.381,4.786-15.143C303.086,125.727,288.718,120.46,281.3,129.131Z" fill="#1d1b3a"/>
      </g>
    </g>
    <g id="Group_702" data-name="Group 702">
      <path id="Path_439" data-name="Path 439" d="M290.113,143.794s-18.888-8.974-16.3-16.722c1.6-4.766,16.053-.226,16.053-.226Z" fill="#eda503"/>
    </g>
    <g id="Group_703" data-name="Group 703">
      <path id="Path_440" data-name="Path 440" d="M280.282,130.152c.689,8.039,5.623,12.576,21.709,20.033,0,0,11.132-13.667,1.592-23.617C295.158,117.794,279.847,125.021,280.282,130.152Z" fill="#ffb502"/>
    </g>
    <g id="Group_704" data-name="Group 704">
      <path id="Path_441" data-name="Path 441" d="M254.684,230.571s-46.438,15.647-54.223,29.1S260.926,334.8,260.926,334.8s10.915-7.194,8.4-16.3c-9.413-34.133-13.145-45.207-13.145-45.207L301.2,249.065Z" fill="#1c2745"/>
    </g>
    <g id="Group_708" data-name="Group 708">
      <g id="Group_706" data-name="Group 706">
        <g id="Group_705" data-name="Group 705">
          <path id="Path_442" data-name="Path 442" d="M275.561,327.068c1.689,15.989,8.08,37.275,7.506,48.1-.091,1.723-.378,2.334-6.079,3.167-5.7.8-.914,4.754,8.507,6.017,9.429,1.243,10.865-44.728,9.339-66.614C293.509,298.616,273.6,308.505,275.561,327.068Z" fill="#fbc6b4"/>
        </g>
      </g>
      <g id="Group_707" data-name="Group 707">
        <path id="Path_443" data-name="Path 443" d="M290.2,380.434s-8.756,2.272-13.215-2.1c0,0-9.438-.1-4.044,3.265C278.362,384.99,289.211,388.838,290.2,380.434Z" fill="#ffb502"/>
      </g>
    </g>
    <g id="Group_709" data-name="Group 709">
      <path id="Path_444" data-name="Path 444" d="M311.749,216.937a202.987,202.987,0,0,1,5.164,45.409c.164,31.545-20.717,104.676-20.717,104.676s.828,2.645-17.219-3.441c-4.864-1.649-7.288-107.531-7.288-107.531l11.919-27.075Z" fill="#1c2745"/>
    </g>
    <g id="Group_710" data-name="Group 710">
      <path id="Path_445" data-name="Path 445" d="M289.982,366.915l-.985-.361c18.322-50.17,14.247-134.88,14.2-135.729l1.05-.057C304.294,231.621,308.38,316.548,289.982,366.915Z" fill="#fff"/>
    </g>
    <g id="Group_718" data-name="Group 718">
      <g id="Group_711" data-name="Group 711">
        <path id="Path_446" data-name="Path 446" d="M317.489,418.656,248.4,248.364H208.48L276.92,417.082l-3.892,1.575L202.245,244.164h48.989l70.147,172.918Z" fill="#464f72"/>
      </g>
      <g id="Group_712" data-name="Group 712">
        <rect id="Rectangle_137" data-name="Rectangle 137" width="44.457" height="4.2" transform="translate(236.149 320.059)" fill="#464f72"/>
      </g>
      <g id="Group_713" data-name="Group 713">
        <rect id="Rectangle_138" data-name="Rectangle 138" width="44.457" height="4.2" transform="translate(245.049 340.899)" fill="#464f72"/>
      </g>
      <g id="Group_714" data-name="Group 714">
        <rect id="Rectangle_139" data-name="Rectangle 139" width="44.456" height="4.2" transform="translate(252.744 361.94)" fill="#464f72"/>
      </g>
      <g id="Group_715" data-name="Group 715">
        <rect id="Rectangle_140" data-name="Rectangle 140" width="44.461" height="4.2" transform="translate(262.395 383.395)" fill="#464f72"/>
      </g>
      <g id="Group_716" data-name="Group 716">
        <rect id="Rectangle_141" data-name="Rectangle 141" width="131.242" height="4.201" transform="translate(177.037 417.134) rotate(-69.429)" fill="#464f72"/>
      </g>
      <g id="Group_717" data-name="Group 717">
        <rect id="Rectangle_142" data-name="Rectangle 142" width="131.246" height="4.201" transform="translate(223.163 420.347) rotate(-69.422)" fill="#464f72"/>
      </g>
    </g>
    <g id="Group_723" data-name="Group 723">
      <g id="Group_719" data-name="Group 719">
        <path id="Path_447" data-name="Path 447" d="M240.648,147.272a14.386,14.386,0,1,1-14.388-14.384A14.39,14.39,0,0,1,240.648,147.272Z" fill="#ffcf03"/>
      </g>
      <g id="Group_720" data-name="Group 720">
        <rect id="Rectangle_143" data-name="Rectangle 143" width="5.434" height="38.53" transform="translate(223.537 78.177)" fill="#464f72"/>
      </g>
      <g id="Group_721" data-name="Group 721">
        <rect id="Rectangle_144" data-name="Rectangle 144" width="13.338" height="17.785" transform="translate(219.587 107.815)" fill="#6d76a1"/>
      </g>
      <g id="Group_722" data-name="Group 722">
        <path id="Path_448" data-name="Path 448" d="M226.256,116.211a33.349,33.349,0,0,0-33.346,33.346H259.6A33.347,33.347,0,0,0,226.256,116.211Z" fill="#c1e4fa"/>
      </g>
    </g>
    <g id="Group_726" data-name="Group 726">
      <g id="Group_724" data-name="Group 724">
        <path id="Path_449" data-name="Path 449" d="M310.724,174.876c-.485-2.367-3.717-7.006-10.525-6.673-9.126.414-25.089,9.97-36.258,4.155-11.2-5.837-11.525-14.331-12.51-20-.959-5.668,1.309-8.379.382-11.611-.936-3.257-4.742-1.973-5.365,7.489-.3,4.528-4.467,26.714,7.571,36.106C269.79,196.655,313.627,188.8,310.724,174.876Z" fill="#fbc6b4"/>
      </g>
      <g id="Group_725" data-name="Group 725">
        <path id="Path_450" data-name="Path 450" d="M310.752,172.555s3.929,9.207-9.6,15.434c-13.5,6.213-20.253,7.075-20.253,7.075s-6.489-7.268-7.334-22.506C273.563,172.558,307.073,158.831,310.752,172.555Z" fill="#eda503"/>
      </g>
    </g>
    <g id="Group_728" data-name="Group 728">
      <g id="Group_727" data-name="Group 727">
        <path id="Path_451" data-name="Path 451" d="M181.762,216.162a8.862,8.862,0,1,1,8.863-8.863A8.874,8.874,0,0,1,181.762,216.162Zm0-13.773a4.907,4.907,0,1,0,4.91,4.91A4.919,4.919,0,0,0,181.762,202.389Z" fill="#64b4d7"/>
      </g>
    </g>
    <g id="Group_731" data-name="Group 731">
      <g id="Group_730" data-name="Group 730">
        <g id="Group_729" data-name="Group 729">
          <rect id="Rectangle_145" data-name="Rectangle 145" width="36.36" height="2.81" transform="translate(127.088 356.394)" fill="#27355c"/>
        </g>
      </g>
    </g>
    <g id="Group_734" data-name="Group 734">
      <g id="Group_733" data-name="Group 733">
        <g id="Group_732" data-name="Group 732">
          <rect id="Rectangle_146" data-name="Rectangle 146" width="20.045" height="2.806" transform="translate(141.284 347.215)" fill="#27355c"/>
        </g>
      </g>
    </g>
  </g>
</svg>
