<svg xmlns="http://www.w3.org/2000/svg" width="393.252" height="443.274" viewBox="0 0 393.252 443.274">
  <g id="Group_148" data-name="Group 148" transform="translate(-53.374 -37.667)">
    <g id="OBJECT">
      <g id="Group_147" data-name="Group 147">
        <g id="Group_1" data-name="Group 1" opacity="0.3">
          <path id="Path_1" data-name="Path 1" d="M355.367,102.471l.11,38.821-48.793,28.171-.11-38.821Z" fill="#65b1fc"/>
        </g>
        <g id="Group_2" data-name="Group 2" opacity="0.3">
          <path id="Path_2" data-name="Path 2" d="M415.183,167.3l-.057,19.967,25.1,14.489.057-19.967Z" fill="#dfe5f3"/>
        </g>
        <path id="Path_3" data-name="Path 3" d="M247.785,138.51c.01-2.075.214-4.143.377-6.212a160.577,160.577,0,0,0,.385-18.614L238.3,113.8q-.033,16.939-.067,33.878c0,1.793.071,3.788,1.333,5.063a6.637,6.637,0,0,0,2.541,1.392q3.656,1.327,7.428,2.3C249.342,150.43,247.756,144.518,247.785,138.51Z" fill="#5b383b"/>
        <path id="Path_4" data-name="Path 4" d="M233.858,138.855c.011-2.075.214-4.144.378-6.213a160.78,160.78,0,0,0,.385-18.613l-8.019.09a2.255,2.255,0,0,0-2.231,2.252q-.031,15.825-.063,31.65c0,1.794.072,3.788,1.333,5.063a6.626,6.626,0,0,0,2.541,1.393q3.657,1.326,7.428,2.3C235.416,150.774,233.829,144.862,233.858,138.855Z" fill="#5b383b"/>
        <g id="Group_4" data-name="Group 4">
          <g id="Group_3" data-name="Group 3">
            <path id="Path_5" data-name="Path 5" d="M317.419,184.893c6.3,3.638,6.335,9.536.074,13.174l-55.875,32.471c-6.261,3.638-16.441,3.638-22.743,0l-56.241-32.47c-6.3-3.637-6.335-9.536-.074-13.174l55.875-32.471c6.261-3.639,16.445-3.637,22.744,0Z" fill="#dfe5f3"/>
          </g>
          <path id="Path_6" data-name="Path 6" d="M322.155,191.81c-.005.08-.009.161-.017.241s-.017.142-.027.213-.023.16-.038.24-.029.142-.044.213-.036.156-.057.234-.041.142-.063.213-.049.155-.077.232-.051.139-.078.208-.067.163-.1.244-.062.135-.1.2-.081.161-.124.241c-.035.065-.071.13-.109.195-.055.1-.115.191-.176.285-.037.058-.073.115-.112.172-.072.1-.149.208-.228.312-.034.045-.065.09-.1.135-.13.164-.27.326-.417.487-.038.041-.078.081-.117.121-.117.123-.238.244-.365.364-.058.054-.116.109-.175.162q-.114.1-.234.2c-.072.062-.145.123-.22.184s-.167.132-.253.2-.157.12-.238.179-.181.128-.273.192-.169.116-.256.173-.194.124-.293.186c-.123.076-.244.153-.372.227l-55.875,32.471c-.348.2-.713.389-1.084.57-.1.047-.2.093-.3.139q-.5.232-1.029.439c-.046.018-.091.039-.137.057-.377.143-.764.272-1.155.4-.272.085-.55.16-.828.236-.21.057-.419.118-.633.17-.292.071-.59.13-.888.19-.216.044-.43.093-.649.132-.09.016-.182.028-.272.043q-.552.091-1.113.158c-.109.013-.217.027-.327.039q-.649.069-1.306.109l-.24.012c-.294.015-.589.019-.885.024s-.586.008-.88.005c-.246,0-.491-.011-.737-.021q-.408-.016-.814-.043c-.249-.017-.5-.039-.744-.062q-.4-.039-.8-.09-.361-.047-.72-.1c-.286-.044-.569-.094-.851-.148-.3-.057-.594-.112-.886-.179l-.209-.047q-.615-.147-1.211-.326c-.114-.033-.227-.07-.339-.1q-.5-.156-.979-.334c-.092-.034-.187-.067-.278-.1-.292-.113-.574-.238-.855-.363-.138-.061-.28-.117-.415-.181-.406-.193-.8-.4-1.18-.616l-56.241-32.47c-3.17-1.831-4.754-4.234-4.747-6.634l-.054,66.191c-.007,2.4,1.577,4.8,4.747,6.634l56.24,32.47c.38.219.774.423,1.18.616.135.064.277.12.415.181.241.107.478.218.726.316.042.016.087.03.129.047.092.036.186.068.279.1q.481.178.978.334c.113.036.225.072.339.1.077.023.151.049.228.071.324.092.653.176.984.255l.209.047c.161.037.322.076.485.11.131.027.267.044.4.069.282.054.565.1.852.148.115.018.227.043.342.06s.252.026.378.042q.4.051.8.09c.129.012.256.032.384.042s.241.012.36.02c.272.019.542.033.815.043.136.006.272.019.409.022.109,0,.219,0,.328,0,.294,0,.586,0,.88,0,.146,0,.293,0,.439,0s.3-.015.446-.023l.24-.012c.367-.022.733-.048,1.1-.084.07-.007.139-.018.209-.025.109-.012.218-.026.327-.039q.56-.068,1.112-.158c.091-.015.182-.027.273-.043.043-.008.087-.013.13-.021.175-.031.344-.076.518-.111.3-.06.6-.119.889-.19.214-.051.421-.113.632-.17.278-.076.556-.151.828-.236.059-.019.12-.032.178-.051q.5-.16.977-.346c.047-.017.092-.037.138-.055.351-.138.693-.285,1.029-.44l.3-.139c.372-.18.736-.367,1.085-.57l55.875-32.471c.066-.038.131-.077.2-.116s.116-.074.176-.111c.1-.062.2-.123.293-.186s.171-.115.255-.173.184-.127.273-.192.16-.119.239-.179.17-.131.253-.2.148-.122.22-.184.157-.135.233-.2c.031-.028.065-.055.1-.084s.053-.053.08-.079q.19-.18.366-.364c.038-.04.079-.08.116-.121.148-.161.288-.323.418-.487l.018-.021c.03-.038.055-.077.084-.116.078-.1.155-.205.226-.309.04-.058.076-.116.113-.173.061-.1.12-.189.176-.285.015-.026.033-.052.048-.078s.04-.078.061-.117c.043-.08.084-.16.124-.241s.064-.135.095-.2.07-.162.1-.244c.015-.036.033-.073.046-.109s.021-.066.033-.1c.028-.077.053-.154.077-.232s.043-.142.062-.213.04-.156.057-.234c.01-.042.023-.085.031-.127s.008-.058.014-.086c.015-.08.026-.161.037-.241s.02-.141.027-.211.013-.162.017-.243c0-.047.009-.094.011-.142s0-.094,0-.141l.054-66.191C322.167,191.621,322.16,191.715,322.155,191.81Z" fill="#65b1fc"/>
        </g>
        <g id="Group_6" data-name="Group 6">
          <g id="Group_5" data-name="Group 5">
            <path id="Path_7" data-name="Path 7" d="M441.878,283.018c6.3,3.638,6.335,9.535.074,13.174l-55.875,32.471c-6.261,3.638-16.442,3.638-22.744,0l-56.24-32.471c-6.3-3.636-6.335-9.535-.074-13.174l55.874-32.471c6.262-3.638,16.445-3.636,22.744,0Z" fill="#dfe5f3"/>
          </g>
          <path id="Path_8" data-name="Path 8" d="M446.613,289.934c0,.081-.009.162-.017.242s-.017.142-.027.213-.023.16-.037.24-.029.142-.045.213-.036.156-.057.234-.04.142-.062.213-.049.155-.077.232-.051.139-.078.208-.067.162-.1.243-.062.136-.095.2-.081.161-.125.241-.07.13-.108.2q-.084.143-.177.285c-.037.057-.072.115-.111.172-.072.105-.149.208-.228.312-.034.045-.066.09-.1.135-.13.164-.27.326-.418.487-.037.04-.078.081-.116.121-.117.122-.239.244-.366.364-.057.054-.115.108-.175.162-.076.069-.154.136-.233.2s-.145.123-.22.184-.168.132-.253.2-.158.12-.239.179-.18.128-.273.192-.168.116-.255.173-.194.124-.293.186c-.123.076-.244.153-.372.227l-55.875,32.471c-.348.2-.713.389-1.085.569-.1.048-.2.094-.3.14-.336.155-.678.3-1.029.439-.047.018-.091.039-.138.056-.376.144-.763.273-1.155.4-.271.085-.549.16-.827.236-.211.057-.419.118-.633.17-.292.071-.591.13-.888.19-.217.044-.43.093-.649.132l-.273.043q-.552.09-1.112.157c-.109.014-.218.028-.327.04q-.65.069-1.306.109c-.08.005-.16.008-.24.012-.294.015-.59.019-.885.024s-.587.008-.88,0q-.369,0-.737-.02-.408-.016-.815-.043-.372-.027-.744-.063c-.268-.026-.535-.055-.8-.089q-.361-.046-.72-.1c-.286-.044-.57-.094-.852-.148s-.594-.113-.886-.179l-.208-.047c-.41-.1-.814-.208-1.212-.326-.114-.033-.226-.07-.339-.105q-.5-.156-.978-.334c-.093-.035-.187-.067-.279-.1-.292-.113-.573-.238-.854-.363-.138-.062-.281-.117-.416-.181-.406-.193-.8-.4-1.18-.616l-56.24-32.471c-3.17-1.83-4.754-4.233-4.747-6.633l-.055,42.679c-.006,2.4,1.577,4.8,4.748,6.633l56.24,32.471c.379.218.774.423,1.18.616.135.064.277.119.415.18.24.107.477.218.726.316.042.017.086.031.129.048.092.035.186.067.279.1q.482.178.978.335c.113.035.225.071.339.105.076.023.151.049.228.071.324.092.652.175.984.254.069.017.139.031.209.047.161.037.321.076.485.11.131.027.267.044.4.069.283.054.566.1.852.149.115.018.227.043.343.059s.252.027.378.042q.4.051.8.09c.129.013.255.032.384.043s.24.011.36.019c.271.019.542.033.814.044.137.005.273.018.41.022.109,0,.218,0,.328,0,.293,0,.586,0,.88,0,.146,0,.292,0,.439,0s.3-.015.446-.022l.24-.012c.366-.022.733-.049,1.1-.085.07-.007.139-.017.208-.025.11-.011.219-.026.328-.039q.56-.066,1.112-.157c.091-.015.182-.028.272-.044.044-.007.088-.013.131-.021.175-.031.344-.075.517-.11.3-.06.6-.119.89-.19.214-.052.421-.113.631-.17.279-.076.557-.151.829-.237.058-.018.12-.032.177-.05q.5-.162.978-.346c.047-.018.091-.038.138-.056.351-.137.693-.284,1.029-.439.1-.046.2-.092.3-.14.371-.18.736-.367,1.085-.569L441.9,338.871l.2-.117c.06-.036.116-.074.175-.111.1-.061.2-.123.293-.185s.172-.115.256-.173.184-.128.273-.192.16-.119.238-.179.171-.131.253-.2.148-.122.221-.184.157-.135.233-.2c.031-.028.065-.055.1-.083s.052-.053.08-.079c.127-.12.249-.242.365-.364.039-.041.08-.081.117-.122q.222-.24.418-.487l.018-.021c.03-.038.055-.077.084-.115.078-.1.155-.206.226-.31.039-.057.075-.115.113-.173.06-.094.12-.189.175-.284.016-.026.034-.052.049-.078s.039-.079.06-.118c.044-.08.085-.16.125-.24s.064-.136.094-.2.071-.162.1-.243c.015-.037.032-.073.046-.11s.021-.066.033-.1c.027-.077.053-.154.077-.231s.043-.142.062-.214.039-.155.057-.233c.009-.043.022-.085.031-.128s.008-.057.013-.086c.015-.08.027-.16.038-.24s.02-.141.027-.212.013-.161.017-.242c0-.048.009-.1.01-.142s0-.094,0-.142l.054-42.678C446.626,289.745,446.619,289.84,446.613,289.934Z" fill="#65b1fc"/>
        </g>
        <g id="Group_7" data-name="Group 7">
          <path id="Path_9" data-name="Path 9" d="M423.216,175.273l13.4,15.029-13.44-.467Z" fill="#f0b7cf"/>
        </g>
        <g id="Group_8" data-name="Group 8">
          <path id="Path_10" data-name="Path 10" d="M321.687,126.541l.018,6.439,0,.7.045,15.827c.007,2.237,2.427,3.155,5.4,2.054a9.384,9.384,0,0,0,1.437-.678c2.28-1.316,3.95-3.5,3.945-5.368-.006-2.235-2.425-3.156-5.4-2.051a9.123,9.123,0,0,0-1.425.671q-.426.246-.823.53l-.034-12.148,11.63-4.3.045,15.827c.006,2.237,2.427,3.155,5.4,2.053a9.4,9.4,0,0,0,1.435-.676c2.281-1.317,3.953-3.506,3.947-5.37-.006-2.236-2.424-3.155-5.4-2.053a9.659,9.659,0,0,0-2.247,1.2l-.035-12.148,0-.7-.018-6.439Z" fill="#fff"/>
        </g>
        <g id="Group_10" data-name="Group 10">
          <path id="Path_11" data-name="Path 11" d="M229.924,255.617c-.811-2.419-3.668-2.38-3.668-2.38a11.331,11.331,0,0,0-3.714,0c-1.8.355-1.183,3.265-1.893,6.459s-3.123,6.6-3.407,10.434a2.056,2.056,0,0,0,.537,1.621c.645,3.081,7.644,2.33,8.974-3.656,1.42-6.388,2.484-3.052,3.691-8.517A4.605,4.605,0,0,0,229.924,255.617Z" fill="#dfe5f3"/>
          <g id="Group_9" data-name="Group 9">
            <path id="Path_12" data-name="Path 12" d="M228.977,254.793h0a9.628,9.628,0,0,1-6.435,0h0V249.5h6.435Z" fill="#f0b7cf"/>
          </g>
        </g>
        <g id="Group_12" data-name="Group 12">
          <path id="Path_13" data-name="Path 13" d="M211.519,251.259a3.139,3.139,0,0,0,.034-1.13c-.373-2.434-2.2-5.07-8.614-4.321a30.128,30.128,0,0,0-7.572,3.691c-2.389,1.679-5.308,1.683-6.92,3.742a2.744,2.744,0,0,0-.52,2.352c-.406,1.556.858,3.035,2.792,3.035h2.51a6.331,6.331,0,0,0,4.22-1.6,8.029,8.029,0,0,1,3.218-1.753c.848-.181,4.951-.208,7.8-.2a3.129,3.129,0,0,0,3.09-3.613C211.543,251.39,211.531,251.325,211.519,251.259Z" fill="#dfe5f3"/>
          <g id="Group_11" data-name="Group 11">
            <path id="Path_14" data-name="Path 14" d="M208.428,247.7h0a9.629,9.629,0,0,1-6.435,0h0V242.4h6.435Z" fill="#f0b7cf"/>
          </g>
        </g>
        <path id="Path_15" data-name="Path 15" d="M212.612,96.952a4.217,4.217,0,1,0,0,.7,1.818,1.818,0,0,0,0-.7Zm-6.022.35c0-2.376,3.547-2.354,3.674,0C210.137,99.657,206.59,99.676,206.59,97.3Z" fill="#f0b7cf"/>
        <path id="Path_16" data-name="Path 16" d="M82.764,216.6a4.218,4.218,0,1,0,0,.706,1.216,1.216,0,0,0,.036-.355A1.193,1.193,0,0,0,82.764,216.6Zm-6.021.351c0-2.376,3.546-2.354,3.673,0C80.289,219.31,76.743,219.329,76.743,216.955Z" fill="#f0b7cf"/>
        <path id="Path_17" data-name="Path 17" d="M381.978,120.175a4.217,4.217,0,1,0,0,.706,1.823,1.823,0,0,0,0-.706Zm-6.022.351c0-2.376,3.547-2.355,3.674,0C379.5,122.881,375.956,122.9,375.956,120.526Z" fill="#65b1fc"/>
        <path id="Path_18" data-name="Path 18" d="M347.507,210.265a4.217,4.217,0,1,0,0,.705,1.211,1.211,0,0,0,.036-.355A1.182,1.182,0,0,0,347.507,210.265Zm-6.022.35c0-2.376,3.547-2.354,3.674,0C345.032,212.97,341.485,212.989,341.485,210.615Z" fill="#f0b7cf"/>
        <path id="Path_19" data-name="Path 19" d="M299.6,347.2a4.218,4.218,0,1,0,0,.706,1.213,1.213,0,0,0,.035-.355A1.229,1.229,0,0,0,299.6,347.2Zm-6.022.351c0-2.376,3.547-2.354,3.674,0C297.121,349.9,293.574,349.924,293.574,347.55Z" fill="#f0b7cf"/>
        <g id="Group_13" data-name="Group 13">
          <path id="Path_20" data-name="Path 20" d="M300.8,99.323a1.213,1.213,0,0,0-1.685,0l-.495.5a1.191,1.191,0,0,0,1.685,1.684l.495-.495A1.2,1.2,0,0,0,300.8,99.323Z" fill="#65b1fc"/>
          <path id="Path_21" data-name="Path 21" d="M296.686,103.438a1.211,1.211,0,0,0-1.684,0l-.5.495a1.191,1.191,0,0,0,1.685,1.685l.495-.495A1.2,1.2,0,0,0,296.686,103.438Z" fill="#65b1fc"/>
          <path id="Path_22" data-name="Path 22" d="M300.8,103.933l-.495-.495a1.191,1.191,0,0,0-1.685,1.685l.495.495a1.191,1.191,0,0,0,1.685-1.685Z" fill="#65b1fc"/>
          <path id="Path_23" data-name="Path 23" d="M296.687,99.818l-.5-.5a1.191,1.191,0,1,0-1.685,1.685l.5.495a1.191,1.191,0,1,0,1.685-1.685Z" fill="#65b1fc"/>
        </g>
        <g id="Group_14" data-name="Group 14">
          <path id="Path_24" data-name="Path 24" d="M161.7,219.061a1.213,1.213,0,0,0-1.685,0l-.5.495a1.191,1.191,0,0,0,1.685,1.685l.5-.495A1.206,1.206,0,0,0,161.7,219.061Z" fill="#ffe9b3"/>
          <path id="Path_25" data-name="Path 25" d="M157.586,223.176a1.212,1.212,0,0,0-1.685,0l-.495.5a1.191,1.191,0,1,0,1.685,1.685l.495-.5A1.206,1.206,0,0,0,157.586,223.176Z" fill="#ffe9b3"/>
          <path id="Path_26" data-name="Path 26" d="M161.7,223.671l-.5-.5a1.191,1.191,0,0,0-1.684,1.685l.5.5a1.191,1.191,0,0,0,1.685-1.685Z" fill="#ffe9b3"/>
          <path id="Path_27" data-name="Path 27" d="M157.586,219.556l-.495-.495a1.191,1.191,0,0,0-1.685,1.685l.495.495a1.191,1.191,0,0,0,1.685-1.685Z" fill="#ffe9b3"/>
        </g>
        <g id="Group_15" data-name="Group 15">
          <path id="Path_28" data-name="Path 28" d="M342.979,160.738a1.213,1.213,0,0,0-1.685,0l-.495.495a1.191,1.191,0,1,0,1.685,1.685l.495-.495A1.2,1.2,0,0,0,342.979,160.738Z" fill="#ffe9b3"/>
          <path id="Path_29" data-name="Path 29" d="M338.865,164.852a1.214,1.214,0,0,0-1.685,0l-.495.5a1.191,1.191,0,1,0,1.684,1.685l.5-.5A1.206,1.206,0,0,0,338.865,164.852Z" fill="#ffe9b3"/>
          <path id="Path_30" data-name="Path 30" d="M342.979,165.348l-.495-.5a1.191,1.191,0,1,0-1.685,1.685l.5.495a1.191,1.191,0,0,0,1.684-1.684Z" fill="#ffe9b3"/>
          <path id="Path_31" data-name="Path 31" d="M338.865,161.233l-.5-.495a1.191,1.191,0,1,0-1.684,1.684l.495.5a1.191,1.191,0,1,0,1.685-1.685Z" fill="#ffe9b3"/>
        </g>
        <g id="Group_16" data-name="Group 16">
          <path id="Path_32" data-name="Path 32" d="M433.433,240.011a1.213,1.213,0,0,0-1.685,0l-.495.495a1.191,1.191,0,0,0,1.685,1.685l.5-.495A1.2,1.2,0,0,0,433.433,240.011Z" fill="#5b383b"/>
          <path id="Path_33" data-name="Path 33" d="M429.318,244.126a1.213,1.213,0,0,0-1.685,0l-.495.495a1.191,1.191,0,0,0,1.685,1.685l.495-.495A1.2,1.2,0,0,0,429.318,244.126Z" fill="#5b383b"/>
          <path id="Path_34" data-name="Path 34" d="M433.433,244.621l-.5-.495a1.191,1.191,0,0,0-1.685,1.685l.495.495a1.191,1.191,0,0,0,1.685-1.685Z" fill="#5b383b"/>
          <path id="Path_35" data-name="Path 35" d="M429.318,240.506l-.495-.495a1.191,1.191,0,0,0-1.685,1.685l.495.495a1.191,1.191,0,0,0,1.685-1.685Z" fill="#5b383b"/>
        </g>
        <g id="Group_17" data-name="Group 17">
          <path id="Path_36" data-name="Path 36" d="M218.325,299.226a1.212,1.212,0,0,0-1.685,0l-.5.495a1.191,1.191,0,1,0,1.685,1.685q.248-.249.5-.5A1.2,1.2,0,0,0,218.325,299.226Z" fill="#5b383b"/>
          <path id="Path_37" data-name="Path 37" d="M214.21,303.34a1.213,1.213,0,0,0-1.685,0c-.165.165-.33.331-.495.495a1.191,1.191,0,0,0,1.685,1.685l.5-.495A1.206,1.206,0,0,0,214.21,303.34Z" fill="#5b383b"/>
          <path id="Path_38" data-name="Path 38" d="M218.325,303.835l-.5-.495a1.191,1.191,0,0,0-1.684,1.685l.495.495a1.191,1.191,0,1,0,1.685-1.685Z" fill="#5b383b"/>
          <path id="Path_39" data-name="Path 39" d="M214.21,299.721l-.5-.5a1.191,1.191,0,0,0-1.685,1.685l.495.5a1.191,1.191,0,1,0,1.685-1.685Z" fill="#5b383b"/>
        </g>
        <path id="Path_40" data-name="Path 40" d="M276,127.657h-1.837V125.82a1.192,1.192,0,0,0-2.383,0v1.837h-1.837a1.192,1.192,0,0,0,0,2.382h1.837v1.837a1.192,1.192,0,0,0,2.383,0v-1.837H276A1.192,1.192,0,0,0,276,127.657Z" fill="#5b383b"/>
        <path id="Path_41" data-name="Path 41" d="M127.81,103.337h-1.836V101.5a1.192,1.192,0,0,0-2.383,0v1.837h-1.837a1.192,1.192,0,0,0,0,2.382h1.837v1.837a1.192,1.192,0,0,0,2.383,0v-1.837h1.836A1.192,1.192,0,0,0,127.81,103.337Z" fill="#5b383b"/>
        <path id="Path_42" data-name="Path 42" d="M423.037,206.475H421.2v-1.837a1.192,1.192,0,0,0-2.382,0v1.837h-1.837a1.192,1.192,0,0,0,0,2.383h1.837v1.836a1.192,1.192,0,0,0,2.382,0v-1.836h1.837A1.192,1.192,0,0,0,423.037,206.475Z" fill="#f0b7cf"/>
        <path id="Path_43" data-name="Path 43" d="M293.762,300.818h-1.837v-1.837a1.192,1.192,0,0,0-2.382,0v1.837h-1.837a1.192,1.192,0,0,0,0,2.383h1.837v1.836a1.192,1.192,0,0,0,2.382,0V303.2h1.837A1.192,1.192,0,0,0,293.762,300.818Z" fill="#ffe9b3"/>
        <path id="Path_44" data-name="Path 44" d="M199.589,350.574h-1.836v-1.837a1.192,1.192,0,0,0-2.383,0v1.837h-1.837a1.192,1.192,0,0,0,0,2.383h1.837v1.836a1.192,1.192,0,0,0,2.383,0v-1.836h1.836A1.192,1.192,0,0,0,199.589,350.574Z" fill="#65b1fc"/>
        <g id="Group_19" data-name="Group 19">
          <g id="Group_18" data-name="Group 18">
            <path id="Path_45" data-name="Path 45" d="M192.96,283.018c6.3,3.638,6.335,9.535.074,13.174L137.16,328.663c-6.261,3.638-16.442,3.638-22.744,0l-56.24-32.471c-6.3-3.636-6.336-9.535-.075-13.174l55.875-32.471c6.261-3.638,16.445-3.636,22.744,0Z" fill="#dfe5f3"/>
          </g>
          <path id="Path_46" data-name="Path 46" d="M197.7,289.934c0,.081-.009.162-.017.242s-.017.142-.027.213-.023.16-.038.24-.028.142-.044.213-.036.156-.057.234-.04.142-.062.213-.05.155-.077.232-.051.139-.079.208-.066.162-.1.243-.061.136-.094.2-.082.161-.125.241-.071.13-.108.2c-.056.1-.116.19-.177.285-.037.057-.073.115-.112.172-.072.105-.149.208-.227.312-.034.045-.066.09-.1.135q-.2.246-.418.487c-.037.04-.078.081-.117.121-.116.122-.238.244-.365.364-.058.054-.115.108-.175.162-.076.069-.154.136-.233.2s-.146.123-.221.184-.167.132-.253.2-.157.12-.238.179-.181.128-.273.192-.169.116-.256.173-.194.124-.293.186c-.123.076-.244.153-.372.227L137.16,328.663c-.349.2-.714.389-1.085.569-.1.048-.2.094-.3.14-.336.155-.678.3-1.03.439-.046.018-.09.039-.137.056-.376.144-.764.273-1.155.4-.271.085-.55.16-.827.236-.211.057-.419.118-.633.17-.293.071-.591.13-.889.19-.216.044-.43.093-.649.132l-.272.043q-.552.09-1.112.157c-.109.014-.218.028-.328.04q-.649.069-1.306.109c-.079.005-.159.008-.239.012-.3.015-.59.019-.885.024s-.587.008-.88,0q-.369,0-.738-.02-.408-.016-.814-.043-.374-.027-.744-.063c-.268-.026-.535-.055-.8-.089q-.361-.046-.72-.1c-.285-.044-.569-.094-.851-.148s-.594-.113-.886-.179l-.208-.047c-.411-.1-.814-.208-1.212-.326-.114-.033-.226-.07-.339-.105q-.5-.156-.978-.334c-.093-.035-.187-.067-.279-.1-.292-.113-.573-.238-.855-.363-.137-.062-.28-.117-.415-.181-.406-.193-.8-.4-1.18-.616l-56.24-32.471c-3.171-1.83-4.754-4.233-4.748-6.633l-.054,42.679c-.007,2.4,1.577,4.8,4.747,6.633l56.241,32.471c.379.218.774.423,1.18.616.134.064.277.119.414.18.241.107.478.218.726.316.043.017.087.031.129.048.092.035.187.067.279.1q.482.178.979.335c.112.035.224.071.338.105.077.023.151.049.229.071.323.092.652.175.983.254.07.017.14.031.209.047.162.037.322.076.485.11.132.027.267.044.4.069q.423.081.852.149c.115.018.227.043.342.059s.253.027.378.042q.4.051.8.09c.128.013.255.032.384.043s.24.011.36.019c.271.019.542.033.814.044.137.005.273.018.409.022.11,0,.219,0,.328,0,.294,0,.587,0,.88,0,.147,0,.293,0,.439,0s.3-.015.446-.022l.24-.012c.367-.022.733-.049,1.1-.085.07-.007.139-.017.209-.025.11-.011.218-.026.327-.039q.561-.066,1.113-.157c.09-.015.182-.028.272-.044.043-.007.087-.013.13-.021.175-.031.345-.075.518-.11.3-.06.6-.119.89-.19.213-.052.421-.113.631-.17.278-.076.557-.151.829-.237.058-.018.119-.032.177-.05.332-.108.657-.224.978-.346l.137-.056q.526-.205,1.029-.439c.1-.046.2-.092.3-.14.371-.18.736-.367,1.084-.569l55.875-32.471.2-.117c.061-.036.117-.074.176-.111.1-.061.2-.123.293-.185s.172-.115.256-.173.184-.128.273-.192.16-.119.238-.179.171-.131.253-.2.148-.122.22-.184.158-.135.234-.2l.1-.083c.028-.026.052-.053.08-.079.127-.12.248-.242.365-.364.039-.041.079-.081.117-.122.147-.16.287-.322.417-.487l.018-.021c.03-.038.055-.077.084-.115.078-.1.155-.206.227-.31.039-.057.075-.115.112-.173.061-.094.121-.189.176-.284.015-.026.034-.052.048-.078s.04-.079.061-.118c.043-.08.085-.16.124-.24s.065-.136.1-.2.07-.162.1-.243c.014-.037.032-.073.046-.11s.021-.066.032-.1c.028-.077.053-.154.077-.231s.043-.142.063-.214.039-.155.056-.233c.01-.043.023-.085.032-.128s.008-.057.013-.086c.015-.08.027-.16.038-.24s.019-.141.026-.212.013-.161.018-.242c0-.048.009-.1.01-.142s0-.094,0-.142l.055-42.678C197.708,289.745,197.7,289.84,197.7,289.934Z" fill="#65b1fc"/>
        </g>
        <g id="Group_21" data-name="Group 21">
          <g id="Group_20" data-name="Group 20">
            <path id="Path_47" data-name="Path 47" d="M317.419,381.143c6.3,3.638,6.335,9.535.074,13.174l-55.875,32.471c-6.261,3.638-16.441,3.638-22.743,0l-56.241-32.471c-6.3-3.636-6.335-9.535-.074-13.174l55.875-32.471c6.261-3.638,16.445-3.636,22.744,0Z" fill="#dfe5f3"/>
          </g>
          <path id="Path_48" data-name="Path 48" d="M322.155,388.059c-.005.081-.009.161-.017.242s-.017.142-.027.213-.023.159-.038.239-.029.143-.044.214-.036.156-.057.234-.041.142-.063.212-.049.156-.077.233-.051.138-.078.207-.067.163-.1.244-.062.136-.1.2-.081.161-.124.241-.071.13-.109.2c-.055.1-.115.19-.176.285-.037.057-.073.115-.112.172-.072.105-.149.208-.228.312-.034.044-.065.09-.1.134-.13.165-.27.327-.417.488l-.117.121c-.117.122-.238.244-.365.364l-.175.162c-.076.069-.154.136-.234.2s-.145.123-.22.183-.167.133-.253.2-.157.12-.238.179-.181.128-.273.192-.169.116-.256.173-.194.124-.293.186c-.123.076-.244.152-.372.227l-55.875,32.471c-.348.2-.713.389-1.084.569-.1.048-.2.094-.3.14q-.5.232-1.029.439l-.137.056c-.377.144-.764.273-1.155.4-.272.086-.55.161-.828.236-.21.058-.419.119-.633.171-.292.071-.59.13-.888.19-.216.044-.43.093-.649.132l-.272.043q-.552.09-1.113.157c-.109.014-.217.028-.327.039q-.649.071-1.306.11l-.24.012c-.294.015-.589.019-.885.024s-.586.008-.88,0c-.246,0-.491-.01-.737-.02-.272-.011-.543-.025-.814-.044q-.373-.025-.744-.062c-.269-.026-.536-.055-.8-.089q-.361-.046-.72-.1c-.286-.044-.569-.1-.851-.148-.3-.057-.594-.113-.886-.18-.07-.016-.14-.03-.209-.047-.41-.1-.813-.207-1.211-.325-.114-.034-.227-.07-.339-.105q-.5-.156-.979-.334c-.092-.035-.187-.067-.278-.1-.292-.113-.574-.238-.855-.363-.138-.062-.28-.117-.415-.181-.406-.193-.8-.4-1.18-.616l-56.241-32.471c-3.17-1.83-4.754-4.233-4.747-6.633l-.054,19.167c-.007,2.4,1.577,4.8,4.747,6.633l56.24,32.47c.38.219.774.423,1.18.616.135.064.277.12.415.181.241.107.478.218.726.316.042.017.087.031.129.047.092.036.186.068.279.1q.481.178.978.334c.113.036.225.072.339.105.077.023.151.049.228.071.324.092.653.176.984.255l.209.047c.161.037.322.076.485.11.131.027.267.044.4.069.282.054.565.1.852.148.115.018.227.043.342.06s.252.026.378.042q.4.051.8.09c.129.012.256.032.384.043s.241.011.36.019c.272.019.542.033.815.043.136.006.272.019.409.022.109,0,.219,0,.328,0,.294,0,.586,0,.88,0,.146,0,.293,0,.439,0s.3-.015.446-.023l.24-.012c.367-.022.733-.048,1.1-.084.07-.007.139-.018.209-.025l.327-.039q.56-.068,1.112-.158c.091-.015.182-.027.273-.043.043-.008.087-.013.13-.021.175-.031.344-.076.518-.111.3-.06.6-.119.889-.19.214-.051.421-.112.632-.17.278-.076.556-.151.828-.236.059-.019.12-.032.178-.051q.5-.16.977-.346c.047-.017.092-.037.138-.055.351-.138.693-.285,1.029-.44.1-.046.2-.092.3-.14.372-.179.736-.367,1.085-.569l55.875-32.471c.066-.038.131-.077.2-.116s.116-.074.176-.111c.1-.062.2-.123.293-.186s.171-.115.255-.173.184-.127.273-.192.16-.119.239-.179.17-.131.253-.2.148-.122.22-.184.157-.135.233-.2c.031-.028.065-.055.1-.083s.053-.054.08-.08q.19-.18.366-.364c.038-.04.079-.08.116-.121.148-.161.288-.323.418-.487l.018-.021c.03-.038.055-.077.084-.115.078-.1.155-.206.226-.31.04-.058.076-.116.113-.173.061-.1.12-.189.176-.285.015-.026.033-.052.048-.078s.04-.078.061-.117c.043-.08.084-.16.124-.241s.064-.135.095-.2.07-.162.1-.244c.015-.036.033-.072.046-.109s.021-.066.033-.1c.028-.077.053-.154.077-.232s.043-.142.062-.213.04-.156.057-.234c.01-.042.023-.085.031-.127s.008-.058.014-.086c.015-.08.026-.16.037-.241s.02-.141.027-.211.013-.162.017-.243c0-.047.009-.094.011-.142s0-.094,0-.141l.054-19.166C322.167,387.87,322.16,387.965,322.155,388.059Z" fill="#65b1fc"/>
        </g>
        <path id="Path_49" data-name="Path 49" d="M253.879,199.166l-15.568-33.783-2.438,2.38-22.128,21.6C211.478,191.577,205,199.4,201.2,204.205a12.332,12.332,0,0,0-2.666,7.011,71.664,71.664,0,0,0,.55,13.322l1.739,19.3s2.979,2.037,8.291.792l2.294-28.985h0a8.99,8.99,0,0,1,2.236-5.252l.847-.954a42.1,42.1,0,0,1,3.356-3.71l6.861-6.974a3.218,3.218,0,0,1,5.091.8,3,3,0,0,1-.708,3.686l-4.237,3.142a88.763,88.763,0,0,0-7.137,6.816,9.216,9.216,0,0,0-2.424,7.431,98.006,98.006,0,0,0,1.788,10.213l4.489,19.491a11.485,11.485,0,0,0,8.14,0l-1.448-23.166a9.31,9.31,0,0,1,3.6-7.947l10.81-4.691a18.782,18.782,0,0,0,11.213-15.362Z" fill="#5b383b"/>
        <g id="Group_47" data-name="Group 47">
          <g id="Group_22" data-name="Group 22">
            <path id="Path_50" data-name="Path 50" d="M208.4,141.134l-5.673,3.235a10.721,10.721,0,0,1-7.371,1.208l-19.087-3.735a44.24,44.24,0,0,1-3.732-2.476,24.211,24.211,0,0,0-4.8-2.237c-1.569-.6-3.138-1.743-4.8-1.973-.883-.122-1.719-.1-1.949.949-.267,1.213.808,1.33,1.58,1.978,2.006,1.689,2.2,3.408,2.668,5.773a6.63,6.63,0,0,0,3.154,4.235c1.962,1.187,2.985.653,4.951.412.024,0,.051,0,.074,0l22.922,5.5a13.485,13.485,0,0,0,10.016-1.507l6.358-3.76Z" fill="#f0b7cf"/>
          </g>
          <g id="Group_24" data-name="Group 24">
            <g id="Group_23" data-name="Group 23">
              <path id="Path_51" data-name="Path 51" d="M254.188,146.99s-8.139-7.381-15.332-10.788-14.007-9.275-23.092-1.893-10.789,8.707-10.789,8.707,2.65,6.057,6.625,6.624l9.085-6.246-.378,20.632-4.354,22.713s6.419,9.919,37.926,12.427l-.07-26.433-.189-9.843,2.453,7.16s6.383.1,8.465-5.09C264.538,164.96,258.824,150.846,254.188,146.99Z" fill="#ffe9b3"/>
            </g>
          </g>
          <g id="Group_40" data-name="Group 40">
            <g id="Group_30" data-name="Group 30">
              <g id="Group_29" data-name="Group 29" style="isolation: isolate">
                <g id="Group_25" data-name="Group 25">
                  <path id="Path_52" data-name="Path 52" d="M251.384,205.426l-24.463,14.216L192.6,199.828l24.463-14.216Z" fill="#65b1fc"/>
                </g>
                <g id="Group_26" data-name="Group 26">
                  <path id="Path_53" data-name="Path 53" d="M238.668,205.836l-14.719,8.554L203.3,202.468l14.719-8.554Z" fill="#5b383b"/>
                </g>
                <g id="Group_27" data-name="Group 27">
                  <path id="Path_54" data-name="Path 54" d="M251.384,205.426l-.007,2.566-24.463,14.216.007-2.566Z" fill="#dfe5f3"/>
                </g>
                <g id="Group_28" data-name="Group 28">
                  <path id="Path_55" data-name="Path 55" d="M226.921,219.642l-.007,2.566-34.319-19.814.007-2.566Z" fill="#65b1fc"/>
                </g>
              </g>
            </g>
            <g id="Group_39" data-name="Group 39">
              <g id="Group_38" data-name="Group 38" style="isolation: isolate">
                <g id="Group_31" data-name="Group 31">
                  <path id="Path_56" data-name="Path 56" d="M193.625,176.762l-.955-2.663-.08,28.294.964-.545Z" fill="#65b1fc"/>
                </g>
                <g id="Group_32" data-name="Group 32">
                  <path id="Path_57" data-name="Path 57" d="M193.554,201.848l-.964.545,34.322,19.816-1.827-2.156Z" fill="#65b1fc"/>
                </g>
                <g id="Group_33" data-name="Group 33">
                  <path id="Path_58" data-name="Path 58" d="M193.625,176.762l-.071,25.086,31.53,18.2.071-25.086Z" fill="#dfe5f3"/>
                </g>
                <g id="Group_34" data-name="Group 34">
                  <path id="Path_59" data-name="Path 59" d="M226.992,193.914l1.9-1.105-34.322-19.816-1.9,1.1Z" fill="#dfe5f3"/>
                </g>
                <g id="Group_35" data-name="Group 35">
                  <path id="Path_60" data-name="Path 60" d="M225.084,220.052l1.827,2.156.08-28.294-1.837,1.051Z" fill="#65b1fc"/>
                </g>
                <g id="Group_36" data-name="Group 36">
                  <path id="Path_61" data-name="Path 61" d="M225.155,194.966l1.837-1.051L192.67,174.1l.955,2.663Z" fill="#65b1fc"/>
                </g>
                <g id="Group_37" data-name="Group 37">
                  <path id="Path_62" data-name="Path 62" d="M226.911,222.208l1.9-1.1.08-28.294-1.9,1.105Z" fill="#dfe5f3"/>
                </g>
              </g>
            </g>
          </g>
          <g id="Group_41" data-name="Group 41">
            <path id="Path_63" data-name="Path 63" d="M230.774,141.5l.123.735a5.126,5.126,0,0,0,7.548,3.635h0a7.644,7.644,0,0,0,3.844-7.8h0l.778-8.4-8.233-2.129-.71,6.06h0A7.992,7.992,0,0,0,230.774,141.5Z" fill="#d8a0ba"/>
          </g>
          <g id="Group_42" data-name="Group 42">
            <path id="Path_64" data-name="Path 64" d="M247.163,124.1c-.32-.369.552-9.359-4.009-9.9-11.172-1.331-18.078.252-18.074,1.363.008,2.533-.055,6.169.185,8.7a26.033,26.033,0,0,0,2.687,9.964,12.615,12.615,0,0,0,1.891,2.716,7.251,7.251,0,0,0,1.963,1.53,4.813,4.813,0,0,0,2.177.49,8.594,8.594,0,0,0,3.563-.743,5.918,5.918,0,0,0,.779-.415,13.846,13.846,0,0,0,4.988-6.066,22.244,22.244,0,0,0,.944-2.154,1.018,1.018,0,0,0,.767.468h.13c.54,0,1.113-.609,1.712-1.831a7.84,7.84,0,0,0,.849-2.607v-.2A1.891,1.891,0,0,0,247.163,124.1Z" fill="#f0b7cf"/>
          </g>
          <g id="Group_43" data-name="Group 43">
            <path id="Path_65" data-name="Path 65" d="M240.837,142.458l1.231-14.266c-.017-.227-.045-.46-.073-.7-.077-.653-11.779-6.013-15.878-8.942a4.182,4.182,0,0,1-1.767-3.693h0c.007-.161.021-.324.043-.489.525-3.9,4.048-6.928,7.1-8.088a16.947,16.947,0,0,1,12.661.632,8.825,8.825,0,0,1,4.79,5.436c1.127,3.941-.1,8.124-1.182,11.815l-.986.55a.653.653,0,0,0-.568-.2c-.385.083-.862.621-1.245,1.4a3.156,3.156,0,0,0-.164.7c-.067.409-1.623,9.452-1.731,9.512l-.728,7.465A1.124,1.124,0,0,1,240.837,142.458Z" fill="#5b383b"/>
          </g>
          <g id="Group_44" data-name="Group 44">
            <path id="Path_66" data-name="Path 66" d="M241.277,124.942a.985.985,0,0,0-.444.77l.008,2.817c0,.284.2.4.449.258l4.987-2.946a6.383,6.383,0,0,0,2.876-5h0c0-.283-.2-.4-.447-.257Z" fill="#dfe5f3"/>
          </g>
          <g id="Group_46" data-name="Group 46">
            <path id="Path_67" data-name="Path 67" d="M242.253,126.549v-.006l-.005-.021c-.013-.055-.028-.11-.043-.166s-.032-.11-.049-.165-.036-.11-.055-.165-.041-.113-.062-.169-.044-.113-.068-.17l-.027-.063-.008-.016c-.013-.031-.026-.062-.04-.093-.027-.059-.054-.117-.082-.175s-.058-.116-.088-.173-.061-.116-.093-.174-.064-.113-.1-.169l-.07-.116-.007-.011-.022-.036c-.034-.054-.068-.108-.1-.161s-.068-.1-.1-.154l-.107-.151c-.039-.054-.078-.106-.118-.159s-.081-.105-.122-.158l-.033-.039-.014-.017c-.038-.047-.076-.1-.116-.142-.084-.1-.17-.2-.258-.292s-.206-.217-.313-.321l-.024-.023-.023-.021c-.082-.08-.166-.158-.251-.234-.066-.059-.133-.117-.2-.173s-.111-.091-.167-.135l-.167-.128-.009-.006h0c-.053-.04-.106-.078-.159-.115s-.114-.079-.171-.117-.119-.077-.179-.115-.12-.073-.18-.108-.12-.068-.181-.1-.121-.063-.181-.093-.115-.056-.173-.082-.115-.051-.173-.075-.109-.044-.164-.064-.109-.04-.164-.058l-.038-.012-.36-.117L227.047,118l-.347-.112c-.04-.014-.081-.026-.121-.038s-.1-.03-.155-.043-.1-.025-.153-.035l-.15-.03c-.051-.008-.1-.016-.149-.022l-.037,0h-.013l-.1-.011-.148-.009c-.052,0-.1,0-.154,0s-.1,0-.151.007-.078.008-.116.013h-.016l-.031,0c-.056.008-.111.018-.165.029s-.118.029-.175.046a2.041,2.041,0,0,0-.2.074l-.007,0-.011.006a1.8,1.8,0,0,0-.214.11,1.858,1.858,0,0,0-.256.192l-3.45,3.128a1.749,1.749,0,0,1,.47-.3l.01,0a2.108,2.108,0,0,1,.579-.156l.014,0a2.841,2.841,0,0,1,.671,0l.012,0a3.951,3.951,0,0,1,.765.171l.347.113,10.136,3.287.36.117a5.568,5.568,0,0,1,.9.386h0a6.979,6.979,0,0,1,.864.551l0,0a8.467,8.467,0,0,1,.792.673l.026.024a8.863,8.863,0,0,1,.71.777l.014.018a8.444,8.444,0,0,1,.608.857l.006.011a7.249,7.249,0,0,1,.471.9l.007.016a5.651,5.651,0,0,1,.31.919v0a4.2,4.2,0,0,1,.12.909,2.427,2.427,0,0,1-.145.923,1.735,1.735,0,0,1-.455.68h0l3.451-3.128a1.736,1.736,0,0,0,.454-.68l.005-.008a1.991,1.991,0,0,0,.074-.241c.016-.066.029-.135.039-.2s.016-.121.021-.184.006-.112.007-.17c0-.037,0-.075,0-.114l0-.063c0-.063-.006-.126-.011-.189s-.012-.121-.019-.182-.016-.112-.026-.169-.02-.112-.031-.169S242.265,126.6,242.253,126.549Z" fill="#65b1fc"/>
            <g id="Group_45" data-name="Group 45">
              <path id="Path_68" data-name="Path 68" d="M234.093,124.534c2.4.78,4.79,3.669,4.83,6.051.039,1.784-1.44,2.5-3.323,1.891l-.187-.061a7.5,7.5,0,0,1-3.491-2.7,4.085,4.085,0,0,0-1.854-1.481l-.534-.173a1.158,1.158,0,0,0-1.458.406c-.5.782-1.49,1.084-2.8.659l-.174-.056a8.137,8.137,0,0,1-4.675-4.485c-1.029-2.7.417-4.349,2.821-3.569l.347.113,10.136,3.287Z" fill="#dfe5f3"/>
            </g>
          </g>
        </g>
        <path id="Path_69" data-name="Path 69" d="M241.213,201.415a1.788,1.788,0,0,1-.339-1.055,1.734,1.734,0,0,1,.188-.712c.659-1.437,1.8-1.662,2.87-2.6.523-.455.947-.968,1.453-1.436a2.366,2.366,0,0,0,.689-.9c.536-1.519-2.791-1.669-3.178-2.911-.13-.418.094-.692.642-.829a19.7,19.7,0,0,1,3.46-.129c.709-.052,1.4-.263,2.109-.3,1.033-.052,1.816.985,2.789.14a16.227,16.227,0,0,0,1.2-1.55q.916-1.014,1.866-2c1.239-1.291,2.51-2.55,3.787-3.8a4.027,4.027,0,0,0,1.523-2.643,4.42,4.42,0,0,0-.247-1.239c-.6-2.062-4.334-11.08-4.458-13.225l7.633-2.567c1.216,3.143,5.522,13.279,6.178,16.585a4.933,4.933,0,0,1,.077,2.27,5.033,5.033,0,0,1-1.36,2.01c-1.7,1.783-3.4,3.572-5.26,5.2a41.854,41.854,0,0,1-6.1,4.251,16.041,16.041,0,0,0-4.475,3.962c-.909,1.168-1.574,2.721-2.951,3.439a12.42,12.42,0,0,1-4.141,1.45C244.035,202.962,242.013,202.544,241.213,201.415Z" fill="#f0b7cf"/>
        <path id="Path_70" data-name="Path 70" d="M253.62,162.89l2.453,7.16s6.383.1,8.465-5.09c0,0-1.865-4.6-4.326-9.269Z" fill="#ffe9b3"/>
        <g id="Group_65" data-name="Group 65">
          <path id="Path_71" data-name="Path 71" d="M178.323,171.2a2.328,2.328,0,0,0-1.432-1.915c-.629-.124-1.446.43-1.958.713a6.941,6.941,0,0,1-2.1,1.016,2.458,2.458,0,0,1-2.177-.452,2.2,2.2,0,0,1-.426-1.564c-.051-.93-.018-2.224-1.172-2.358-1.112-.129-1.463,1.068-1.852,1.924-.518,1.138-1.2,3.546-2.57,4.082a122.265,122.265,0,0,0-12.66-.617c-1.38.077-2.126-.93-3-1.919a13.29,13.29,0,0,1-1.6-2.552c-1.195-2.208-2.066-4.6-3.092-6.871-1.266-2.806-8.715-5.561-12.535-3.738-3.122,1.49,2.78,3.452,3.56,5.807,1.247,3.759,3.64,10.658,6.382,13.6a21.307,21.307,0,0,0,3.836,3.251c1.412.934,3.114.922,4.786.9,1.032-.011,2.088.181,3.127.258a82.552,82.552,0,0,0,10.937-1.174,4.95,4.95,0,0,1,2-.284,8.5,8.5,0,0,0,3.885-.183,10.94,10.94,0,0,0,4.7-1.587C176.9,176.145,178.525,173.7,178.323,171.2Z" fill="#f0b7cf"/>
          <g id="Group_64" data-name="Group 64">
            <g id="Group_60" data-name="Group 60">
              <g id="Group_48" data-name="Group 48">
                <path id="Path_72" data-name="Path 72" d="M123.836,275.617a30.112,30.112,0,0,1,7.571,3.691c2.39,1.679,5.309,1.684,6.921,3.743,1.455,1.858.088,4.06-2.272,4.06h-2.511a6.331,6.331,0,0,1-4.219-1.6,8.036,8.036,0,0,0-3.218-1.753c-.848-.181-4.951-.208-7.8-.2a3.129,3.129,0,0,1-3.09-3.613C115.6,277.5,117.419,274.868,123.836,275.617Z" fill="#5b383b"/>
              </g>
              <g id="Group_49" data-name="Group 49">
                <path id="Path_73" data-name="Path 73" d="M106.8,282.666s-4.9-.071-3.691,5.4,2.271,2.129,3.691,8.517,9.3,6.814,9.015,2.981-2.7-7.24-3.408-10.433-.095-6.105-1.893-6.46A11.334,11.334,0,0,0,106.8,282.666Z" fill="#5b383b"/>
              </g>
              <g id="Group_50" data-name="Group 50">
                <path id="Path_74" data-name="Path 74" d="M123.836,274.29a30.154,30.154,0,0,1,7.571,3.691c2.39,1.68,5.309,1.684,6.921,3.743a2.853,2.853,0,0,1-2.272,4.586h-2.511a6.327,6.327,0,0,1-4.219-1.6,11.105,11.105,0,0,0-3.218-2.277c-.848-.182-4.951-.209-7.8-.2a3.13,3.13,0,0,1-3.09-3.614C115.6,276.178,117.419,273.542,123.836,274.29Z" fill="#5b383b"/>
              </g>
              <g id="Group_51" data-name="Group 51">
                <path id="Path_75" data-name="Path 75" d="M107.3,281.72s-4.9-.071-3.691,5.394,2.271,2.13,3.691,8.518,9.3,6.814,9.014,2.981-2.7-7.24-3.407-10.434-.1-6.1-1.893-6.459A11.331,11.331,0,0,0,107.3,281.72Z" fill="#5b383b"/>
              </g>
              <g id="Group_52" data-name="Group 52">
                <path id="Path_76" data-name="Path 76" d="M104.577,283.276h0a9.628,9.628,0,0,0,6.435,0h0v-5.3h-6.435Z" fill="#f0b7cf"/>
              </g>
              <g id="Group_53" data-name="Group 53">
                <path id="Path_77" data-name="Path 77" d="M118.347,276.178h0a9.629,9.629,0,0,0,6.435,0h0v-5.3h-6.435Z" fill="#f0b7cf"/>
              </g>
              <g id="Group_54" data-name="Group 54">
                <path id="Path_78" data-name="Path 78" d="M138.411,196.118v30.924A71.8,71.8,0,0,1,132.5,255.58l-6.956,16.061-1,.437a9.292,9.292,0,0,1-7.138.13h0l5.638-28.523a42.009,42.009,0,0,0,.8-8.143l.2-9.781a3.218,3.218,0,0,0-4.126-3.087h0a3,3,0,0,0-2.143,3.081l.712,5.227a97.913,97.913,0,0,1-2.265,28.739l-4.49,19.491a11.483,11.483,0,0,1-8.139,0l1.7-27.158a69.228,69.228,0,0,0-.325-12.282L101.5,209.935l36.91-17.224Z" fill="#5b383b"/>
              </g>
              <g id="Group_56" data-name="Group 56">
                <g id="Group_55" data-name="Group 55">
                  <path id="Path_79" data-name="Path 79" d="M102.637,161.669s8.139-7.382,15.331-10.789,14.57-2.431,22.97,5.723a41.567,41.567,0,0,1,6.7,8.4s-4.784,8.308-8.759,8.876l-3.527-9.522,1.165,14.348,4.353,22.714s-4.921,13.249-41.452,10.789l3.6-24.8,1.067-7.6-2.939,7.054s-5.51-2.709-7.592-7.9C93.551,178.972,98,165.525,102.637,161.669Z" fill="#65b1fc"/>
                </g>
              </g>
              <g id="Group_57" data-name="Group 57">
                <path id="Path_80" data-name="Path 80" d="M126.05,156.179l-.123.736a5.125,5.125,0,0,1-7.547,3.635h0a7.641,7.641,0,0,1-3.844-7.8h0l-.779-8.4,8.234-2.129.709,6.059h0A7.989,7.989,0,0,1,126.05,156.179Z" fill="#d8a0ba"/>
              </g>
              <g id="Group_58" data-name="Group 58">
                <path id="Path_81" data-name="Path 81" d="M109.661,138.773c.32-.368-.551-9.359,4.01-9.9,11.172-1.332,18.077.251,18.074,1.362-.008,2.534.055,6.17-.185,8.7a26.056,26.056,0,0,1-2.688,9.965,12.607,12.607,0,0,1-1.891,2.715,7.221,7.221,0,0,1-1.963,1.531,4.809,4.809,0,0,1-2.177.489,8.616,8.616,0,0,1-3.563-.742,6.1,6.1,0,0,1-.779-.415,13.859,13.859,0,0,1-4.988-6.066,22.151,22.151,0,0,1-.943-2.155,1.018,1.018,0,0,1-.767.468h-.131c-.539,0-1.113-.609-1.712-1.83a7.839,7.839,0,0,1-.848-2.608v-.2A1.894,1.894,0,0,1,109.661,138.773Z" fill="#f0b7cf"/>
              </g>
              <g id="Group_59" data-name="Group 59">
                <path id="Path_82" data-name="Path 82" d="M131.907,129.563c-.006-.144-.019-.29-.039-.437-.464-3.459-3.6-6.443-6.737-7.634-5.436-2.067-14.87-.717-16.7,5.694-1.109,3.877.168,8.043,1.26,11.771,1.166-.965,2.17.344,2.685,1.4.23.47.208,1.354.453,1.726.231.349.976.534,1.364.749a11.4,11.4,0,0,0,.13-2.56c-.181-1.142-.6-2.319-.868-3.45-.237-1.009-.8-2.033-.655-3.088.3-2.149,2.137-2.6,3.953-1.937,4.374,1.6,9.293,4.075,13.627.978A3.611,3.611,0,0,0,131.907,129.563Z" fill="#5b383b"/>
                <path id="Path_83" data-name="Path 83" d="M113.915,143.325a3.881,3.881,0,0,0-.393-.175,2.429,2.429,0,0,1-1.169-.759,2.807,2.807,0,0,1-.327-1.091,3.06,3.06,0,0,0-.164-.7c-.383-.783-.86-1.32-1.244-1.4a.654.654,0,0,0-.568.2l-.665.549-.322-1.1c-1.082-3.691-2.308-7.875-1.182-11.815a8.83,8.83,0,0,1,4.79-5.437,16.955,16.955,0,0,1,12.662-.632c3.051,1.16,6.573,4.187,7.1,8.088.022.166.037.329.043.489v0a4.179,4.179,0,0,1-1.767,3.693c-4.1,2.929-8.656,1.185-12.678-.351-.5-.19-.988-.378-1.474-.555a2.8,2.8,0,0,0-2.354.015,1.91,1.91,0,0,0-.842,1.468,4.3,4.3,0,0,0,.348,1.887c.111.333.221.663.3.992.1.423.221.854.344,1.287a19.423,19.423,0,0,1,.532,2.2,7.268,7.268,0,0,1-.051,1.994c-.029.236-.056.469-.073.7l-.067.884Zm3.03-12.065c.49.179.987.369,1.49.561,3.937,1.505,8.008,3.064,11.612.487a3.038,3.038,0,0,0,1.293-2.721c-.006-.127-.017-.255-.035-.386-.442-3.289-3.542-6.1-6.376-7.177a15.732,15.732,0,0,0-11.749.584,7.719,7.719,0,0,0-4.206,4.735c-1,3.488.055,7.338,1.062,10.782a1.606,1.606,0,0,1,.821-.037c1.011.219,1.7,1.357,2.025,2.015a3.7,3.7,0,0,1,.265,1.012,2.713,2.713,0,0,0,.152.65,1.406,1.406,0,0,0,.408.232,6.254,6.254,0,0,0,.052-1.64,18.552,18.552,0,0,0-.5-2.072c-.127-.45-.253-.9-.357-1.337-.069-.3-.169-.592-.269-.89a5.2,5.2,0,0,1-.395-2.406,2.982,2.982,0,0,1,1.382-2.282,3.189,3.189,0,0,1,1.655-.424A4.9,4.9,0,0,1,116.945,131.26Z" fill="#5b383b"/>
              </g>
            </g>
            <g id="Group_61" data-name="Group 61">
              <path id="Path_84" data-name="Path 84" d="M115.548,139.62a.987.987,0,0,1,.443.771l-.008,2.817c0,.284-.2.4-.449.258l-4.986-2.946a6.38,6.38,0,0,1-2.876-5h0c0-.283.2-.4.446-.257Z" fill="#ffe9b3"/>
            </g>
            <g id="Group_63" data-name="Group 63">
              <path id="Path_85" data-name="Path 85" d="M114.571,141.227v-.005l.005-.022c.014-.055.028-.11.043-.165s.032-.11.05-.165.035-.11.055-.166.04-.112.062-.169.044-.113.068-.169l.027-.063.007-.016c.013-.031.026-.063.041-.094q.039-.087.081-.174c.029-.058.058-.116.088-.174s.061-.115.093-.173.064-.113.1-.169c.023-.039.047-.078.071-.117l.006-.01.022-.037c.034-.054.068-.107.1-.16s.069-.1.1-.154.07-.1.107-.152.077-.106.117-.158.081-.106.123-.158l.032-.039.014-.017c.038-.048.077-.1.116-.142.084-.1.17-.2.258-.292s.206-.217.313-.322l.025-.023.022-.02c.083-.08.166-.159.251-.234.067-.059.134-.117.2-.173s.111-.091.167-.135.111-.087.168-.128l.008-.007h0l.16-.115c.056-.04.113-.078.17-.117s.119-.077.179-.114.12-.073.181-.108.12-.068.18-.1.121-.064.182-.093.115-.056.172-.082l.174-.075c.054-.023.109-.044.163-.064s.11-.04.164-.058l.038-.013.361-.117,10.135-3.287.347-.113c.041-.013.081-.026.121-.037s.1-.03.156-.043.1-.025.153-.036.1-.021.15-.029.1-.016.149-.023l.036,0,.013,0c.034,0,.067-.008.1-.01s.1-.008.147-.009.1,0,.154,0,.1,0,.152.008.077.008.115.012l.016,0,.031,0q.086.012.165.03c.06.013.119.029.176.046s.134.046.2.073l.008,0,.011.006a1.79,1.79,0,0,1,.213.111,1.662,1.662,0,0,1,.256.192l3.45,3.127a1.77,1.77,0,0,0-.47-.3l-.01-.005a2.1,2.1,0,0,0-.578-.157h-.015a2.833,2.833,0,0,0-.67,0h-.013a4.048,4.048,0,0,0-.765.172l-.347.112L123.092,139.1l-.361.117a5.47,5.47,0,0,0-.9.386h0a7.009,7.009,0,0,0-.864.551l0,0a8.09,8.09,0,0,0-.792.674l-.026.024a8.682,8.682,0,0,0-.71.776l-.015.018a8.291,8.291,0,0,0-.607.858l-.007.011a7.166,7.166,0,0,0-.471.9l-.007.017a5.7,5.7,0,0,0-.31.918v.006a4.25,4.25,0,0,0-.12.909,2.417,2.417,0,0,0,.146.922,1.726,1.726,0,0,0,.454.68h0l-3.45-3.127a1.738,1.738,0,0,1-.455-.68l0-.008a2,2,0,0,1-.073-.242c-.016-.066-.029-.134-.04-.2s-.015-.121-.02-.184-.007-.112-.008-.17c0-.038,0-.076,0-.115v-.062c0-.063.006-.126.012-.19s.011-.12.019-.181.016-.113.025-.17.02-.112.032-.168S114.56,141.273,114.571,141.227Z" fill="#65b1fc"/>
              <g id="Group_62" data-name="Group 62">
                <path id="Path_86" data-name="Path 86" d="M122.731,139.213c-2.4.779-4.79,3.668-4.83,6.051-.039,1.783,1.44,2.5,3.323,1.89l.187-.06a7.5,7.5,0,0,0,3.492-2.7,4.077,4.077,0,0,1,1.854-1.48l.534-.174a1.16,1.16,0,0,1,1.458.407c.5.782,1.489,1.084,2.8.659l.173-.056a8.142,8.142,0,0,0,4.676-4.485c1.028-2.7-.418-4.349-2.822-3.569l-.347.112L123.092,139.1Z" fill="#ffe9b3"/>
              </g>
            </g>
          </g>
          <path id="Path_87" data-name="Path 87" d="M118.419,214.859a2.33,2.33,0,0,0,.394-2.359c-.346-.54-1.31-.747-1.868-.922a6.93,6.93,0,0,1-2.186-.815,2.459,2.459,0,0,1-1.178-1.886,2.2,2.2,0,0,1,.837-1.389c.637-.679,1.594-1.55.894-2.476-.675-.893-1.783-.319-2.67-.01-1.181.413-3.394,1.582-4.727.964a122.384,122.384,0,0,0-8.3-9.577c-1.01-.944-.8-2.179-.69-3.5a13.253,13.253,0,0,1,.74-2.92c.77-2.389,1.9-4.671,2.829-6.983,1.153-2.854,2.826-7.775-1.132-9.276-3.234-1.226-5.4,2.028-6.565,4.219-1.856,3.5-5.189,10-5.417,14.009a21.274,21.274,0,0,0,.3,5.019c.3,1.666,1.485,2.888,2.654,4.084.722.738,1.312,1.634,1.975,2.438a82.573,82.573,0,0,0,8.406,7.094c.535.4,1.261.657,1.586,1.247a8.5,8.5,0,0,0,2.817,2.682,10.919,10.919,0,0,0,4.394,2.3C113.859,217.247,116.753,216.731,118.419,214.859Z" fill="#f0b7cf"/>
          <path id="Path_88" data-name="Path 88" d="M101.427,162.89c-4.171,4.889-7.876,16.082-7.876,16.082,2.082,5.188,7.592,7.9,7.592,7.9l2.939-7.054,4.49-10.11Z" fill="#65b1fc"/>
        </g>
        <path id="Path_89" data-name="Path 89" d="M208.443,193.15c-2.527-1.46-4.582-.288-4.591,2.615a10.055,10.055,0,0,0,4.561,7.9c2.527,1.458,4.582.287,4.59-2.617A10.049,10.049,0,0,0,208.443,193.15Z" fill="#65b1fc"/>
        <g id="Group_129" data-name="Group 129">
          <path id="Path_90" data-name="Path 90" d="M238.429,352.886l.111,11.94a10.7,10.7,0,0,1-.152,1.9l-5.229,21.965,10.584-1.038a8.349,8.349,0,0,1-2.91,4.874s-15.9,5.765-15.584,3.563l.692-4.9V378a31.535,31.535,0,0,1,1.564-9.808l.912-2.784a10.676,10.676,0,0,0,.529-3.18l.171-13Z" fill="#f0b7cf"/>
          <path id="Path_91" data-name="Path 91" d="M233.492,388.09s8.383-2.759,10.217-2.638,3.746,2.567,3.745,4.508-2.953,3.371-6.027,4.921c-2,1.011-7.018,3.12-10.264,4.466a5.62,5.62,0,0,1-5.778-.877c-1.126-.951-2.159-2.024-2.149-2.754.013-1.022,1.13-3.8,1.284-5.222.083-.77,1.215-1.361,1.99-1.365C228.634,389.117,231.352,389.533,233.492,388.09Z" fill="#5b383b"/>
          <path id="Path_92" data-name="Path 92" d="M285.821,272.334a4.336,4.336,0,0,0-3.319-1.911,48.071,48.071,0,0,0-5.847.245A7.307,7.307,0,0,0,273.7,271.8c-.655.389-1.609.837-1.339,1.5s1.739,1.948,1.472,2.546c-.21.472-1.014.737-1.813.945-4.634,1.207-23.555-3.45-25.072-3.929-1.913-.605,1.316,3.213.418,2.178-.376-.433-.752-.94-.355-1.254l-7.023-.315-3.471-.156-1.776-.08a16.713,16.713,0,0,0-1.739-.067c.093.357.34.726.406,1.089a3.432,3.432,0,0,1,.01,1.1,14.092,14.092,0,0,1-.586,2.127,3.646,3.646,0,0,0,1.4,4.415c1.725,1.287,4.638,2.038,7.332,2.439a71.143,71.143,0,0,0,14.919.306c6.88-.412,13.706-1.048,19.287-2.689s10.692-5.183,11.207-8.815C287.044,272.706,286.131,272.895,285.821,272.334Z" fill="#d8a0ba"/>
          <g id="Group_123" data-name="Group 123">
            <g id="Group_118" data-name="Group 118">
              <g id="Group_70" data-name="Group 70">
                <g id="Group_69" data-name="Group 69" style="isolation: isolate">
                  <g id="Group_66" data-name="Group 66">
                    <path id="Path_93" data-name="Path 93" d="M302.647,254.408l.006,2.239-.888.513-.006-2.239Z" fill="#5b383b"/>
                  </g>
                  <g id="Group_67" data-name="Group 67">
                    <path id="Path_94" data-name="Path 94" d="M301.766,257.16l-3.335-1.938-.006-2.239,3.335,1.938Z" fill="#5b383b"/>
                  </g>
                  <g id="Group_68" data-name="Group 68">
                    <path id="Path_95" data-name="Path 95" d="M301.759,254.921l-3.335-1.938.888-.513,3.335,1.938Z" fill="#5b383b"/>
                  </g>
                </g>
              </g>
              <g id="Group_75" data-name="Group 75">
                <g id="Group_74" data-name="Group 74" style="isolation: isolate">
                  <g id="Group_71" data-name="Group 71">
                    <path id="Path_96" data-name="Path 96" d="M300.985,254.709l0,1.614-5.653,3.263,0-1.614Z" fill="#dfe5f3"/>
                  </g>
                  <g id="Group_72" data-name="Group 72">
                    <path id="Path_97" data-name="Path 97" d="M295.337,259.587l-1.668-.969,0-1.614,1.668.969Z" fill="#dfe5f3"/>
                  </g>
                  <g id="Group_73" data-name="Group 73">
                    <path id="Path_98" data-name="Path 98" d="M295.333,257.973,293.665,257l5.653-3.264,1.667.969Z" fill="#dfe5f3"/>
                  </g>
                </g>
              </g>
              <g id="Group_78" data-name="Group 78">
                <g id="Group_76" data-name="Group 76">
                  <path id="Path_99" data-name="Path 99" d="M294.945,257.626c.254-.147.46-.029.461.262l.006,1.965a1.008,1.008,0,0,1-.458.793l-4.211,2.431-.009-3.02Z" fill="#dfe5f3"/>
                </g>
                <g id="Group_77" data-name="Group 77">
                  <path id="Path_100" data-name="Path 100" d="M290.743,263.077l-3.335-1.938-.009-3.02,3.335,1.938Z" fill="#dfe5f3"/>
                </g>
                <path id="Path_101" data-name="Path 101" d="M295.272,257.594l0,0h0l0,0-3.335-1.938h0l-.024-.012-.025-.009-.025-.006-.028,0a.15.15,0,0,0-.03,0h-.015l-.02,0-.04.009a.386.386,0,0,0-.054.019.433.433,0,0,0-.065.032l-4.211,2.431,3.335,1.938,4.211-2.431a.456.456,0,0,1,.179-.062h0A.247.247,0,0,1,295.272,257.594Z" fill="#dfe5f3"/>
              </g>
              <g id="Group_81" data-name="Group 81">
                <g id="Group_79" data-name="Group 79">
                  <path id="Path_102" data-name="Path 102" d="M290.192,259.369c.468-.27.847-.054.849.484l.008,2.964a3.224,3.224,0,0,1-.824,2l-2.77,3.821a2.792,2.792,0,0,1-.848.8l-3.909,2.257-.023-7.984Z" fill="#5b383b"/>
                </g>
                <g id="Group_80" data-name="Group 80">
                  <path id="Path_103" data-name="Path 103" d="M282.7,271.693l-3.335-1.938-.023-7.984,3.335,1.938Z" fill="#5b383b"/>
                </g>
                <path id="Path_104" data-name="Path 104" d="M290.517,259.256h.012a.467.467,0,0,1,.136.007h.007a.417.417,0,0,1,.122.046h0l-3.335-1.938,0,0a.341.341,0,0,0-.043-.021l-.044-.016-.031-.007h-.007l-.01,0a.394.394,0,0,0-.051-.006.5.5,0,0,0-.055,0l-.02,0h-.012l-.032,0a.7.7,0,0,0-.074.016l-.033.011-.03.011-.037.012a1.024,1.024,0,0,0-.119.06l-7.517,4.34,3.335,1.938,7.517-4.34a.976.976,0,0,1,.156-.072l.03-.01A.671.671,0,0,1,290.517,259.256Z" fill="#5b383b"/>
              </g>
              <g id="Group_84" data-name="Group 84">
                <g id="Group_82" data-name="Group 82">
                  <path id="Path_105" data-name="Path 105" d="M281.527,272.147l0,1.51c.006,1.94.769,3.308,2.1,3.747l-2.473,5.037c-2.3-.758-3.619-3.12-3.629-6.473l0-1.51Z" fill="#5b383b"/>
                </g>
                <path id="Path_106" data-name="Path 106" d="M277.528,275.968l0-1.51-3.335-1.938,0,1.51c.008,2.9,1,5.061,2.755,6.081l3.335,1.938C278.528,281.029,277.536,278.87,277.528,275.968Z" fill="#5b383b"/>
                <g id="Group_83" data-name="Group 83">
                  <path id="Path_107" data-name="Path 107" d="M277.524,274.458l-3.335-1.938,4-2.311,3.335,1.938Z" fill="#5b383b"/>
                </g>
              </g>
              <g id="Group_88" data-name="Group 88">
                <g id="Group_85" data-name="Group 85">
                  <path id="Path_108" data-name="Path 108" d="M273.239,277.522l-1.668-.969,1.619-.935,1.667.969Z" fill="#dfe5f3"/>
                </g>
                <g id="Group_86" data-name="Group 86">
                  <path id="Path_109" data-name="Path 109" d="M273.239,277.522l1.619-.935a9.124,9.124,0,0,1-3.7,4.758L269,282.594l.766-1.99,1.392-.8A5.837,5.837,0,0,0,273.239,277.522Z" fill="#dfe5f3"/>
                </g>
                <g id="Group_87" data-name="Group 87">
                  <path id="Path_110" data-name="Path 110" d="M269,282.594l-1.668-.969.766-1.99,1.668.969Z" fill="#dfe5f3"/>
                </g>
                <path id="Path_111" data-name="Path 111" d="M273.121,277.732c.041-.069.08-.139.118-.21l-1.668-.969c-.057.106-.118.21-.18.312-.016.026-.031.052-.048.078-.065.105-.132.208-.2.308l-.015.02c-.066.093-.134.183-.2.271-.031.039-.064.077-.1.116-.047.056-.093.111-.141.165s-.12.13-.181.193c-.035.036-.068.072-.1.106a5.171,5.171,0,0,1-.4.35c-.029.024-.058.045-.088.068a4.453,4.453,0,0,1-.43.291l-1.393.8,1.668.969,1.392-.8a4.033,4.033,0,0,0,.431-.292c.029-.022.059-.043.088-.067a5.154,5.154,0,0,0,.4-.35l.022-.019c.028-.027.054-.058.081-.086.061-.064.122-.127.181-.194.014-.016.029-.029.043-.045.033-.039.065-.08.1-.12s.064-.077.1-.116l.033-.04c.058-.074.113-.151.168-.228l.018-.024,0,0c.056-.08.11-.161.163-.244.013-.019.024-.039.037-.059l.048-.079C273.08,277.8,273.1,277.766,273.121,277.732Z" fill="#dfe5f3"/>
              </g>
              <g id="Group_91" data-name="Group 91">
                <g id="Group_89" data-name="Group 89">
                  <path id="Path_112" data-name="Path 112" d="M271.64,277.08l-2.373,6.158a7.335,7.335,0,0,1-2.913,3.629c-.9.52-1.468-.275-1.024-1.429l2.337-6.064Z" fill="#5b383b"/>
                </g>
                <path id="Path_113" data-name="Path 113" d="M265.34,286.775a.758.758,0,0,1-.1-.178l-.008-.018a1.171,1.171,0,0,1-.05-.244c0-.023,0-.046,0-.069a1.469,1.469,0,0,1,.007-.255c0-.017,0-.032,0-.049l.007-.039a2.059,2.059,0,0,1,.042-.2l.005-.024c.023-.083.05-.169.084-.257l2.337-6.064-3.335-1.938-2.337,6.064h0c-.015.04-.029.079-.042.118s-.027.082-.038.122l0,.016-.005.023c-.008.032-.017.064-.023.1s-.014.073-.019.11l-.007.038,0,.016c0,.012,0,.021,0,.033a1.465,1.465,0,0,0-.007.254c0,.024,0,.047,0,.07a1.169,1.169,0,0,0,.05.244l.008.017a.744.744,0,0,0,.1.179c.01.015.021.029.032.043a.593.593,0,0,0,.151.133l3.335,1.938a.592.592,0,0,1-.151-.133C265.361,286.8,265.35,286.79,265.34,286.775Z" fill="#5b383b"/>
                <g id="Group_90" data-name="Group 90">
                  <path id="Path_114" data-name="Path 114" d="M267.667,279.374l-3.335-1.938,3.973-2.294,3.335,1.938Z" fill="#5b383b"/>
                </g>
              </g>
              <g id="Group_93" data-name="Group 93">
                <g id="Group_92" data-name="Group 92">
                  <path id="Path_115" data-name="Path 115" d="M282.3,262.589c.362-.209.659-.043.661.373l.024,8.457a1.444,1.444,0,0,1-.657,1.133l-13.39,7.731c-.362.209-.656.042-.657-.375l-.024-8.457a1.436,1.436,0,0,1,.653-1.131Z" fill="#ffe9b3"/>
                </g>
                <path id="Path_116" data-name="Path 116" d="M282.443,262.525a.506.506,0,0,1,.109-.023h.009a.376.376,0,0,1,.107.005h.005a.312.312,0,0,1,.1.036l-5-2.907,0,0a.247.247,0,0,0-.033-.016l-.035-.013-.023-.005h-.006l-.008,0-.04,0a.306.306,0,0,0-.043,0h-.025l-.025,0-.058.012-.025.009-.023.008-.029.01a.889.889,0,0,0-.093.046l-13.389,7.731a1.059,1.059,0,0,0-.2.154c-.006.006-.014.009-.02.016l-.024.026-.022.023-.026.027c-.018.021-.035.042-.053.065l-.017.023-.009.012-.017.024c-.013.018-.026.037-.038.056s-.023.037-.034.056l0,0,0,0-.026.047-.028.055-.024.052v0l0,0-.024.059c-.008.02-.015.041-.022.062l-.01.031,0,.014-.006.021c-.007.025-.014.051-.019.076s-.005.03-.008.045l0,.024,0,.022a.933.933,0,0,0-.009.128l.024,8.457a.462.462,0,0,0,.191.421l5,2.907a.457.457,0,0,1-.191-.421l-.024-8.457a.978.978,0,0,1,.012-.15l0-.023a1.243,1.243,0,0,1,.033-.144l0-.013a1.509,1.509,0,0,1,.057-.154v0a1.462,1.462,0,0,1,.078-.153l0-.005c.028-.048.059-.1.091-.14l.01-.012c.03-.04.062-.078.1-.115l.022-.023c.014-.015.03-.028.045-.042a1.053,1.053,0,0,1,.2-.154l13.39-7.731a.73.73,0,0,1,.122-.056Z" fill="#ffe9b3"/>
              </g>
              <g id="Group_99" data-name="Group 99">
                <g id="Group_98" data-name="Group 98" style="isolation: isolate">
                  <g id="Group_94" data-name="Group 94">
                    <path id="Path_117" data-name="Path 117" d="M298.625,254.426l-1.668-.969,1.914.543,1.668.969Z" fill="#ffe9b3"/>
                  </g>
                  <g id="Group_95" data-name="Group 95">
                    <path id="Path_118" data-name="Path 118" d="M298.625,254.426l1.914.543-1.121.647-1.014-.29-1.562.9,0,.875-.671.387,0-1.645Z" fill="#ffe9b3"/>
                  </g>
                  <g id="Group_96" data-name="Group 96">
                    <path id="Path_119" data-name="Path 119" d="M296.173,257.489l-1.667-.969,0-1.646,1.667.969Z" fill="#ffe9b3"/>
                  </g>
                  <g id="Group_97" data-name="Group 97">
                    <path id="Path_120" data-name="Path 120" d="M296.169,255.844l-1.667-.969,2.456-1.418,1.668.969Z" fill="#ffe9b3"/>
                  </g>
                </g>
              </g>
              <g id="Group_105" data-name="Group 105">
                <g id="Group_104" data-name="Group 104" style="isolation: isolate">
                  <g id="Group_100" data-name="Group 100">
                    <path id="Path_121" data-name="Path 121" d="M273.957,261.339l-1.086-.6,4.3,1.22,1.086.6Z" fill="#5b383b"/>
                  </g>
                  <g id="Group_101" data-name="Group 101">
                    <path id="Path_122" data-name="Path 122" d="M273.957,261.339l4.3,1.22-2.519,1.454-2.28-.653-3.51,2.026.005,1.966-1.507.87-.01-3.7Z" fill="#5b383b"/>
                  </g>
                  <g id="Group_102" data-name="Group 102">
                    <path id="Path_123" data-name="Path 123" d="M268.448,268.223l-1.086-.6-.01-3.7,1.086.6Z" fill="#5b383b"/>
                  </g>
                  <g id="Group_103" data-name="Group 103">
                    <path id="Path_124" data-name="Path 124" d="M268.438,264.526l-1.086-.6,5.519-3.187,1.086.6Z" fill="#5b383b"/>
                  </g>
                </g>
              </g>
              <g id="Group_117" data-name="Group 117">
                <g id="Group_114" data-name="Group 114">
                  <g id="Group_109" data-name="Group 109" style="isolation: isolate">
                    <g id="Group_106" data-name="Group 106">
                      <path id="Path_125" data-name="Path 125" d="M266.285,275.077l.007,2.381-10.474,7.832-.007-2.378Z" fill="#dfe5f3"/>
                    </g>
                    <g id="Group_107" data-name="Group 107">
                      <path id="Path_126" data-name="Path 126" d="M255.818,285.29l-1.667-.969-.007-2.378,1.667.969Z" fill="#dfe5f3"/>
                    </g>
                    <g id="Group_108" data-name="Group 108">
                      <path id="Path_127" data-name="Path 127" d="M255.811,282.912l-1.667-.969,10.474-7.835,1.668.969Z" fill="#dfe5f3"/>
                    </g>
                  </g>
                  <g id="Group_113" data-name="Group 113" style="isolation: isolate">
                    <g id="Group_110" data-name="Group 110">
                      <path id="Path_128" data-name="Path 128" d="M266.274,271.432l.007,2.316L255.8,279.972l-.007-2.316Z" fill="#dfe5f3"/>
                    </g>
                    <g id="Group_111" data-name="Group 111">
                      <path id="Path_129" data-name="Path 129" d="M255.8,279.972,254.135,279l-.007-2.315,1.667.969Z" fill="#dfe5f3"/>
                    </g>
                    <g id="Group_112" data-name="Group 112">
                      <path id="Path_130" data-name="Path 130" d="M255.8,277.656l-1.667-.969,10.478-6.224,1.667.969Z" fill="#dfe5f3"/>
                    </g>
                  </g>
                </g>
                <g id="Group_116" data-name="Group 116">
                  <g id="Group_115" data-name="Group 115">
                    <path id="Path_131" data-name="Path 131" d="M255.442,275.956c.68-.392,1.235-.076,1.237.705l.025,8.728a2.713,2.713,0,0,1-1.229,2.128c-.68.392-1.231.074-1.234-.707l-.024-8.727A2.709,2.709,0,0,1,255.442,275.956Z" fill="#5b383b"/>
                  </g>
                  <path id="Path_132" data-name="Path 132" d="M254.247,277.756a2.421,2.421,0,0,1,.062-.269l.008-.024a2.7,2.7,0,0,1,.107-.292v0a3.009,3.009,0,0,1,.146-.289l.005-.008a2.7,2.7,0,0,1,.172-.263l.016-.023a2.555,2.555,0,0,1,.18-.217l.041-.043a2.119,2.119,0,0,1,.155-.146c.024-.021.047-.043.071-.062a1.924,1.924,0,0,1,.231-.161,1.517,1.517,0,0,1,.228-.1l.043-.015a.967.967,0,0,1,.2-.044l.018,0a.76.76,0,0,1,.2.01l.01,0a.6.6,0,0,1,.178.067l-3.335-1.938-.007,0a.6.6,0,0,0-.062-.03.5.5,0,0,0-.065-.023l-.044-.01-.01,0-.015,0q-.038-.006-.075-.009a.742.742,0,0,0-.082,0l-.026,0-.018,0a.409.409,0,0,0-.048,0,.908.908,0,0,0-.108.023c-.015,0-.031.011-.046.016l-.044.015c-.018.007-.036.011-.055.019a1.6,1.6,0,0,0-.172.085,1.92,1.92,0,0,0-.231.161c-.024.019-.047.041-.071.062s-.073.061-.108.1c-.016.016-.031.034-.047.05l-.041.044c-.015.016-.031.032-.045.048-.035.04-.068.08-.1.122-.012.015-.023.031-.034.046l-.018.024-.03.041c-.025.035-.048.07-.071.106s-.043.069-.064.1l-.006.012-.005.009c-.016.027-.032.055-.047.083s-.036.07-.053.105-.031.067-.046.1v0l0,0q-.024.055-.045.111c-.015.038-.029.077-.042.116-.007.02-.012.04-.018.06l-.008.025-.012.041c-.013.047-.025.1-.035.142-.006.029-.01.057-.015.086l-.008.044c0,.014-.005.028-.006.041a1.82,1.82,0,0,0-.016.242l.024,8.727a1.178,1.178,0,0,0,.1.493.66.66,0,0,0,.262.3L254.6,287.6a.868.868,0,0,1-.36-.792l-.024-8.727a1.816,1.816,0,0,1,.022-.282Z" fill="#5b383b"/>
                </g>
              </g>
            </g>
            <g id="Group_122" data-name="Group 122">
              <path id="Path_133" data-name="Path 133" d="M280.4,265.828l-.333-.194h0l-.021-.011-.022-.007-.024-.006-.025,0h-.043l-.017,0-.037.008a.5.5,0,0,0-.05.017.422.422,0,0,0-.06.03l-8.637,4.987a.662.662,0,0,0-.142.11l-.019.02-.007.007-.02.022c-.012.014-.024.027-.035.042l-.028.038-.024.036-.022.036v0h0l-.018.032-.018.036-.017.037-.015.038-.014.039-.007.022v.005l0,.016a.439.439,0,0,0-.012.049.38.38,0,0,0-.01.059.59.59,0,0,0-.006.083.3.3,0,0,0,.124.271l.333.193a.293.293,0,0,1-.123-.27.7.7,0,0,1,.032-.208v0a1,1,0,0,1,.09-.2h0a.958.958,0,0,1,.131-.176l.007-.008a.688.688,0,0,1,.16-.129l8.638-4.987a.4.4,0,0,1,.164-.057h0a.228.228,0,0,1,.134.027h0Z" fill="#5b383b"/>
              <path id="Path_134" data-name="Path 134" d="M280.071,268.327h0l-.022-.011-.022-.008L280,268.3l-.026,0h-.041l-.019,0-.037.008c-.016.005-.032.01-.049.017a.644.644,0,0,0-.059.029l-8.637,4.987a.752.752,0,0,0-.141.109l-.02.021-.007.008-.019.02-.034.042-.029.039-.024.036-.022.036,0,0h0l-.017.031-.019.037-.016.036-.016.039-.014.04-.007.021v.005l-.006.017c0,.016-.008.032-.011.048a.412.412,0,0,0-.01.058.59.59,0,0,0-.006.083.3.3,0,0,0,.124.27l.333.194a.3.3,0,0,1-.123-.271.689.689,0,0,1,.032-.206v0a1.023,1.023,0,0,1,.09-.2h0a.977.977,0,0,1,.131-.177l.007-.008a.72.72,0,0,1,.16-.13l8.638-4.987a.416.416,0,0,1,.163-.056h0a.227.227,0,0,1,.134.027h0Z" fill="#5b383b"/>
              <path id="Path_135" data-name="Path 135" d="M280.071,271.018h0l-.022-.011-.022-.008-.024,0-.026,0h-.041l-.019,0a.272.272,0,0,0-.037.008.355.355,0,0,0-.049.017.459.459,0,0,0-.059.029l-8.637,4.987a.707.707,0,0,0-.141.108l-.02.022-.007.007-.019.021a.476.476,0,0,0-.034.042l-.029.038-.024.037-.022.036,0,0h0l-.017.031-.019.036-.016.037-.016.038-.014.04-.007.022v0l-.006.017c0,.016-.008.033-.011.049a.388.388,0,0,0-.01.058.576.576,0,0,0-.006.082.3.3,0,0,0,.123.271l.334.194a.294.294,0,0,1-.123-.271.689.689,0,0,1,.032-.206v-.005a1.049,1.049,0,0,1,.09-.2h0a1.053,1.053,0,0,1,.131-.177l.007-.007a.668.668,0,0,1,.16-.13l8.638-4.987a.387.387,0,0,1,.163-.056h0a.227.227,0,0,1,.134.028h0Z" fill="#5b383b"/>
              <g id="Group_119" data-name="Group 119">
                <path id="Path_136" data-name="Path 136" d="M280.1,265.858c.232-.135.423-.029.424.242a.933.933,0,0,1-.422.73l-8.637,4.987c-.233.134-.424.025-.424-.242a.926.926,0,0,1,.421-.73Z" fill="#5b383b"/>
              </g>
              <g id="Group_120" data-name="Group 120">
                <path id="Path_137" data-name="Path 137" d="M280.1,268.549c.232-.134.423-.025.424.242a.931.931,0,0,1-.422.73l-8.637,4.987c-.233.134-.424.026-.424-.242a.933.933,0,0,1,.421-.73Z" fill="#5b383b"/>
              </g>
              <g id="Group_121" data-name="Group 121">
                <path id="Path_138" data-name="Path 138" d="M280.1,271.241c.232-.135.423-.026.424.242a.928.928,0,0,1-.422.73l-8.637,4.987c-.233.134-.424.028-.424-.242a.933.933,0,0,1,.421-.73Z" fill="#5b383b"/>
              </g>
            </g>
          </g>
          <path id="Path_139" data-name="Path 139" d="M246.5,262.823l-11.355.751q.42,2.226.838,4.453a2.4,2.4,0,0,0,.572,1.352,3.5,3.5,0,0,0,1.453.7,77.166,77.166,0,0,0,8.415,2.032,11.063,11.063,0,0,0,.155-2.465Z" fill="#d8a0ba"/>
          <path id="Path_140" data-name="Path 140" d="M254.912,357.6v10.74a20.846,20.846,0,0,1-.211,2.954l-4.485,29.466,7.453-1.483a9.8,9.8,0,0,1,4.435,1.06h0a2.6,2.6,0,0,1-.212,4.725l-14.333,5.709a5.156,5.156,0,0,1-5.432-1.028h0a5.155,5.155,0,0,1-1.431-5.177l1.344-4.706a4.468,4.468,0,0,0,.173-1.189l.128-12.551a45.548,45.548,0,0,1,1.524-11.224l1.807-6.8-.419-13.266Z" fill="#f0b7cf"/>
          <path id="Path_141" data-name="Path 141" d="M256.7,329.508l-2.411-24.325a24.663,24.663,0,0,1,.265-6.776l2.481-13.873a7.663,7.663,0,0,0-2.673-7.264l-8.291-5.176a55.075,55.075,0,0,0-12.626-5.813l-.713-.224a4.5,4.5,0,0,0-5.329,3.192l-.224.814a35.161,35.161,0,0,0-.867,14.523l1.253,8.364a52.822,52.822,0,0,1,.321,13.073L227.1,313.9l1.614,15.6Z" fill="#dfe5f3"/>
          <path id="Path_142" data-name="Path 142" d="M256.7,329.508s-25.864,1.922-29.6-15.6c0,0-2.6,10.684,0,19.924a34.892,34.892,0,0,1,.577,16.825s3.754,3.388,11.839,3.388V340.9h0a16.036,16.036,0,0,1,4.5,10.71l.12,4.45s2.021,3.754,11.55,4.331C255.682,360.393,259.724,347.4,256.7,329.508Z" fill="#5b383b"/>
          <path id="Path_143" data-name="Path 143" d="M231.633,244.789s-3.064,5.267-2.181,9.385,18.748-7.68,18.748-7.68l-5.348-4.438-5.887.878Z" fill="#ffe9b3"/>
          <path id="Path_144" data-name="Path 144" d="M273.079,290.112a14.492,14.492,0,0,0-.728-5.542,39.909,39.909,0,0,1-.5-5.032.9.9,0,0,0-.155-.745.451.451,0,0,0-.07-.047l-.808.466-1.048,2.719c-.005.022-.011.042-.016.064a.781.781,0,0,0-.22.122,4.259,4.259,0,0,1-2.281.842c-1.212.041-2.43-.579-3.6-.269a.437.437,0,0,0-.381.393,2.25,2.25,0,0,0,.322,1.769c.3.44.869.633,1.179,1.066a13.023,13.023,0,0,1,2.715,7.369l-.133.271c-.565.766-1.655,3.763-2.564,4.046-1.146.356-2.045-3.53-5.814-5.776-.959,1.048-.077,3.868-1.036,4.916l-1.422,1.553-.727.794a18.656,18.656,0,0,0-1.532,1.187c.286.3,1.265,1.9,2.925,3.932,1.105,1.353,2.782,3.047,4.475,3.476a5.591,5.591,0,0,0,4.478-1.248C271.221,302.776,272.872,296.132,273.079,290.112Z" fill="#f0b7cf"/>
          <path id="Path_145" data-name="Path 145" d="M286.077,268.147l-.013-.014a2.48,2.48,0,0,0-1.335-.659,1.612,1.612,0,0,0-1.364.4,3.034,3.034,0,0,0-.8,1.222,3.61,3.61,0,0,0-.271,1.252c-.005.36.062.718.062,1.078a2.894,2.894,0,0,1-.611,1.767c-.159.2-.336.529-.122.675a.452.452,0,0,0,.3.038,13.794,13.794,0,0,1,3.293.036s1.54-.119,1.74-.683a9.063,9.063,0,0,0,.247-1.661,8.184,8.184,0,0,0-.395-1.93A3.767,3.767,0,0,0,286.077,268.147Z" fill="#d8a0ba"/>
          <path id="Path_146" data-name="Path 146" d="M263.061,292.763a73.555,73.555,0,0,1-6.3-9.483,11.5,11.5,0,0,0-1.677-2.508A3.513,3.513,0,0,0,252.4,279.6a4.362,4.362,0,0,0-3.082,2.366,13.166,13.166,0,0,0-.716,12.212,16.435,16.435,0,0,0,2.76,4.054l3.62,4.143a16.8,16.8,0,0,0,8.288-8.027,1.532,1.532,0,0,0,.206-.759A1.632,1.632,0,0,0,263.061,292.763Z" fill="#dfe5f3"/>
          <path id="Path_147" data-name="Path 147" d="M250.3,400.235s7.33-1.537,9.155-1.309,4.788,2.052,4.674,3.99-3.145,3.193-6.3,4.561c-2.06.892-7.188,2.706-10.507,3.859a5.617,5.617,0,0,1-5.717-1.212c-1.069-1.015-2.037-2.147-1.985-2.875.073-1.019.413-3.153.65-4.563a1.514,1.514,0,0,1,1.577-1.265C243.962,401.533,248.077,401.55,250.3,400.235Z" fill="#5b383b"/>
          <g id="Group_128" data-name="Group 128">
            <g id="Group_125" data-name="Group 125">
              <path id="Path_148" data-name="Path 148" d="M262.165,251.061v-.026c0-.054,0-.108-.008-.162s-.008-.109-.013-.163-.011-.11-.018-.165-.015-.112-.024-.169-.019-.114-.03-.171c0-.021-.009-.042-.013-.063l0-.017c-.007-.031-.012-.063-.019-.1-.013-.059-.027-.118-.042-.178s-.03-.119-.047-.178-.034-.119-.052-.179-.037-.118-.057-.176c-.013-.041-.028-.082-.042-.122l0-.012-.013-.038c-.021-.056-.042-.113-.064-.169s-.043-.109-.066-.163-.045-.108-.069-.162-.051-.114-.078-.171-.054-.114-.082-.17l-.022-.043-.01-.019c-.026-.051-.052-.1-.08-.154-.058-.109-.118-.216-.181-.322-.073-.122-.149-.242-.227-.361l-.018-.026-.017-.023c-.061-.09-.123-.18-.187-.267-.05-.068-.1-.135-.153-.2s-.084-.107-.128-.159-.086-.1-.13-.152l-.006-.007h0c-.042-.047-.083-.093-.125-.138s-.09-.1-.136-.143-.1-.1-.143-.141-.1-.092-.146-.136-.1-.087-.148-.129-.1-.083-.15-.122-.1-.075-.144-.11-.1-.071-.146-.1-.092-.062-.139-.092-.094-.059-.141-.086l-.032-.019-.312-.18-8.755-5.055-.3-.173c-.035-.021-.071-.04-.106-.059s-.09-.048-.135-.071-.09-.043-.135-.063-.089-.039-.134-.057-.089-.034-.133-.05l-.033-.011-.012,0-.091-.03c-.046-.014-.091-.026-.136-.038s-.1-.022-.142-.031-.095-.017-.142-.024-.074-.008-.11-.011h-.015l-.03,0q-.079-.006-.159-.006t-.171.009a1.832,1.832,0,0,0-.2.028l-.008,0-.011,0a1.735,1.735,0,0,0-.22.06,1.644,1.644,0,0,0-.276.128l-3.82,2.22a1.688,1.688,0,0,1,.5-.189l.01,0a1.97,1.97,0,0,1,.568-.031h.014a2.634,2.634,0,0,1,.622.134l.011,0a3.8,3.8,0,0,1,.676.311l.3.173,8.756,5.055.311.18a5.226,5.226,0,0,1,.755.535h0a6.654,6.654,0,0,1,.693.683l0,0a7.927,7.927,0,0,1,.6.781l.019.028a8.33,8.33,0,0,1,.506.861l.01.019a7.982,7.982,0,0,1,.394.917l0,.011a7.03,7.03,0,0,1,.259.928l0,.017a5.41,5.41,0,0,1,.106.914v.005a4.048,4.048,0,0,1-.069.868,2.312,2.312,0,0,1-.317.827,1.649,1.649,0,0,1-.556.541h0l3.82-2.22a1.649,1.649,0,0,0,.556-.541l.007-.007a1.984,1.984,0,0,0,.116-.209c.027-.059.053-.119.077-.183s.038-.109.055-.166.028-.1.04-.156c.008-.035.016-.07.023-.106l.011-.059c.01-.059.019-.118.027-.178s.013-.114.018-.172.007-.108.01-.162,0-.109,0-.163S262.166,251.106,262.165,251.061Z" fill="#65b1fc"/>
              <g id="Group_124" data-name="Group 124">
                <path id="Path_149" data-name="Path 149" d="M254.99,247.578c2.077,1.2,3.72,4.352,3.286,6.571-.316,1.662-1.831,2.036-3.457,1.1l-.162-.093a7.128,7.128,0,0,1-2.706-3.2,3.87,3.87,0,0,0-1.428-1.74l-.462-.267a1.1,1.1,0,0,0-1.433.089,2.135,2.135,0,0,1-2.727.058l-.15-.086a7.725,7.725,0,0,1-3.452-5.087c-.419-2.712,1.248-3.953,3.324-2.754l.3.173,8.756,5.055Z" fill="#65b1fc"/>
                <path id="Path_150" data-name="Path 150" d="M256.477,254.647a2.339,2.339,0,0,1-1.107-.357l-.161-.093a5.989,5.989,0,0,1-2.253-2.693,4.93,4.93,0,0,0-1.882-2.243l-.461-.266a2.538,2.538,0,0,0-1.275-.366,2.071,2.071,0,0,0-1.506.646.592.592,0,0,1-.451.172,1.9,1.9,0,0,1-.928-.305l-.153-.087a6.621,6.621,0,0,1-2.91-4.3,2.3,2.3,0,0,1,.241-1.731.591.591,0,0,1,.491-.207,1.937,1.937,0,0,1,.95.31l9.367,5.408c1.7.979,3.087,3.707,2.755,5.4C257.075,254.564,256.764,254.647,256.477,254.647Z" fill="#5b383b"/>
              </g>
            </g>
            <path id="Path_151" data-name="Path 151" d="M254.99,252.739a30.37,30.37,0,0,0-.986-7.976l-8.692,1.858a8.711,8.711,0,0,0-2.742,3.861,8.617,8.617,0,0,0-.193,1.772c-.125,3.135-.206,6.46,1.355,9.182a10.128,10.128,0,0,0,2.742,3.013,5.023,5.023,0,0,0,2.7,1.155,4.548,4.548,0,0,0,3.529-1.873,10.663,10.663,0,0,0,2.14-5.256A31.839,31.839,0,0,0,254.99,252.739Z" fill="#f0b7cf"/>
            <path id="Path_152" data-name="Path 152" d="M253.374,238.441a11.819,11.819,0,0,0-5.1-1.313,26.472,26.472,0,0,0-8.474.917,13.385,13.385,0,0,0-6.515,3.487,17.589,17.589,0,0,0-3.447,6.7,16.371,16.371,0,0,0-.938,7.216,12.477,12.477,0,0,0,6.813,8.782,14.845,14.845,0,0,0,5.51.739c1.8.012,4.538-.061,4.866-2.35.244-1.7-1.143-3.714-.034-5.279.5-.7,2.489-1.618,3.226-.8a14.088,14.088,0,0,1,.416,3.013l1.843.007q-.015-2.121-.031-4.24a1.635,1.635,0,0,1,.1-.7c.154-.339.512-.528.8-.77.944-.806,1.062-2.189,1.243-3.417a24.359,24.359,0,0,1,1.725-5.512,5.121,5.121,0,0,0-.786-5.544A5.322,5.322,0,0,0,253.374,238.441Z" fill="#ffe9b3"/>
            <g id="Group_127" data-name="Group 127">
              <path id="Path_153" data-name="Path 153" d="M257.6,250.552a.657.657,0,0,1-.389.54l-10.454,6.036a13.342,13.342,0,0,1-1.721.824,16.219,16.219,0,0,1-1.705.566c-.109.03-.223.054-.334.082-.508.129-1.026.24-1.555.328-.094.015-.187.034-.282.049-.589.089-1.188.149-1.79.185q-.163.011-.327.018c-.6.027-1.2.029-1.8,0-.108-.005-.216-.015-.325-.022-.516-.031-1.027-.087-1.533-.16-.143-.021-.288-.036-.43-.06-.305-.051-.6-.132-.9-.2-.384-.087-.769-.17-1.139-.282a13.794,13.794,0,0,1-1.618-.591,11.952,11.952,0,0,1-1.17-.606c-.191-.111-.367-.228-.542-.346-.1-.065-.2-.129-.295-.2-.223-.162-.426-.331-.619-.5-.035-.031-.078-.061-.112-.093s-.053-.058-.082-.086a6.705,6.705,0,0,1-.586-.63c-.092-.115-.167-.233-.248-.35s-.16-.222-.226-.335a4.613,4.613,0,0,1-.23-.469c-.032-.071-.073-.142-.1-.213a4.2,4.2,0,0,1-.2-.691c-.01-.05-.009-.1-.017-.149a3.93,3.93,0,0,1-.058-.6l.028,4.491c0,.034,0,.067,0,.1a4.013,4.013,0,0,0,.057.5c.008.05.007.1.017.149l0,.015a4.075,4.075,0,0,0,.186.649c0,.009.009.018.012.027.028.072.069.143.1.215.061.138.117.277.194.414.01.018.025.035.036.053.066.114.149.224.226.336s.125.2.2.3c.013.017.032.033.046.05a6.617,6.617,0,0,0,.582.627c.028.027.048.055.077.082l.009.008c.033.03.073.057.106.087.194.173.4.343.625.507.092.067.2.13.294.2.147.1.285.2.444.295.03.018.069.034.1.052a12.011,12.011,0,0,0,1.168.605,13.44,13.44,0,0,0,1.408.538c.067.022.142.032.211.053.37.113.754.195,1.139.282.231.052.451.127.686.17.069.012.14.017.209.029.142.024.286.039.43.06.266.038.53.085.8.112.243.024.49.034.735.048.108.007.214.017.322.022.07,0,.14.012.21.014q.6.02,1.192,0c.133,0,.266-.015.4-.021l.327-.018c.147-.009.295-.011.442-.024q.591-.048,1.174-.131c.058-.008.115-.021.173-.03.1-.014.189-.034.285-.05.252-.041.506-.079.755-.131.271-.056.533-.128.8-.2.112-.028.225-.051.335-.082.054-.015.111-.025.165-.04.515-.147,1.015-.316,1.5-.506.015-.005.027-.014.042-.02a13.21,13.21,0,0,0,1.721-.824l10.454-6.036a.652.652,0,0,0,.389-.54Z" fill="#5b383b"/>
              <g id="Group_126" data-name="Group 126">
                <path id="Path_154" data-name="Path 154" d="M230.22,247.845c-4.865,2.809-4.518,7.515,1.085,10.023a18.566,18.566,0,0,0,15.454-.74l10.454-6.036a.566.566,0,0,0,.006-1.073,2.01,2.01,0,0,0-1.854,0l-10.737,6.2c-3.7,2.134-9.822,2-13.2-.38-2.949-2.082-2.378-5.178.922-7.083l10.454-6.036a.566.566,0,0,0,.006-1.073,2.034,2.034,0,0,0-1.854,0Z" fill="#5b383b"/>
              </g>
            </g>
            <path id="Path_155" data-name="Path 155" d="M231.78,243.606s-3.127,5.374-2.226,9.575,19.128-7.836,19.128-7.836l-5.456-4.527-6.006.9Z" fill="#ffe9b3"/>
          </g>
        </g>
        <path id="Path_156" data-name="Path 156" d="M330.117,186a1.872,1.872,0,0,1,.838-.8,1.8,1.8,0,0,1,.756-.147c1.651-.033,2.38.934,3.748,1.52.666.285,1.341.451,2.011.713a2.476,2.476,0,0,0,1.158.241c1.673-.187.3-3.385,1.294-4.314.334-.312.693-.226,1.071.227a20.662,20.662,0,0,1,1.7,3.2c.37.643.883,1.2,1.239,1.848.519.948-.1,2.157,1.137,2.689a17.036,17.036,0,0,0,2.005.425q1.371.4,2.73.847c1.777.579,3.539,1.2,5.3,1.833a4.2,4.2,0,0,0,3.179.232,4.642,4.642,0,0,0,1.053-.8c1.666-1.505,8.454-9.116,10.417-10.207l5.885,6.014c-2.4,2.573-9.983,11.233-12.795,13.354a5.16,5.16,0,0,1-2.1,1.1,5.257,5.257,0,0,1-2.509-.365c-2.451-.79-4.908-1.579-7.281-2.587a43.653,43.653,0,0,1-6.772-3.8,16.759,16.759,0,0,0-5.763-2.409c-1.512-.324-3.275-.243-4.577-1.212a12.988,12.988,0,0,1-3.247-3.237C329.944,189.354,329.419,187.262,330.117,186Z" fill="#f0b7cf"/>
        <path id="Path_157" data-name="Path 157" d="M363.19,160.247a1.871,1.871,0,0,1,1.15-.132,1.808,1.808,0,0,1,.691.339c1.338.97,1.336,2.181,2.073,3.473.359.629.8,1.169,1.173,1.783a2.487,2.487,0,0,0,.779.891c1.446.859,2.282-2.519,3.634-2.66.454-.048.69.237.717.827a20.534,20.534,0,0,1-.576,3.572c-.092.737-.017,1.487-.126,2.222-.158,1.069-1.382,1.659-.716,2.83a16.947,16.947,0,0,0,1.342,1.548q.852,1.149,1.667,2.323c1.068,1.534,2.1,3.094,3.119,4.659a4.2,4.2,0,0,0,2.4,2.1,4.6,4.6,0,0,0,1.32,0c2.237-.2,12.242-2.17,14.465-1.857l1.066,8.348c-3.47.6-14.739,2.936-18.261,2.93a5.153,5.153,0,0,1-2.341-.386,5.27,5.27,0,0,1-1.781-1.8c-1.478-2.109-2.962-4.22-4.246-6.455a43.732,43.732,0,0,1-3.106-7.119,16.764,16.764,0,0,0-3.143-5.4c-1.01-1.17-2.465-2.17-2.919-3.728a12.991,12.991,0,0,1-.636-4.54C361.026,162.821,361.869,160.835,363.19,160.247Z" fill="#f0b7cf"/>
        <path id="Path_158" data-name="Path 158" d="M388.906,249.3l-.112,11.94a10.6,10.6,0,0,0,.153,1.9l5.228,21.965-10.583-1.039a8.347,8.347,0,0,0,2.909,4.875s15.9,5.765,15.585,3.563l-.692-4.9V274.418a31.508,31.508,0,0,0-1.565-9.808l-.911-2.784a10.644,10.644,0,0,1-.529-3.18l-.171-13Z" fill="#f0b7cf"/>
        <path id="Path_159" data-name="Path 159" d="M393.843,284.508s-8.383-2.759-10.217-2.638-3.746,2.566-3.746,4.508,2.954,3.37,6.028,4.921c2,1.01,7.018,3.12,10.264,4.465a5.62,5.62,0,0,0,5.778-.876c1.126-.951,2.158-2.024,2.149-2.754-.013-1.022-1.131-3.8-1.284-5.223-.084-.77-1.216-1.36-1.99-1.365C398.7,285.534,395.982,285.951,393.843,284.508Z" fill="#65b1fc"/>
        <path id="Path_160" data-name="Path 160" d="M380.836,159.241l11.355.751q-.419,2.226-.838,4.453a2.391,2.391,0,0,1-.571,1.352,3.507,3.507,0,0,1-1.453.7,77.183,77.183,0,0,1-8.416,2.032,11.182,11.182,0,0,1-.155-2.465Z" fill="#d8a0ba"/>
        <path id="Path_161" data-name="Path 161" d="M372.423,254.019v10.74a20.711,20.711,0,0,0,.211,2.954l4.484,29.466-7.452-1.483a9.808,9.808,0,0,0-4.436,1.06h0a2.594,2.594,0,0,0,.213,4.725l14.332,5.709a5.155,5.155,0,0,0,5.432-1.028h0a5.156,5.156,0,0,0,1.432-5.177l-1.345-4.706a4.513,4.513,0,0,1-.172-1.189l-.129-12.552a45.493,45.493,0,0,0-1.523-11.223l-1.807-6.8.418-13.266Z" fill="#f0b7cf"/>
        <path id="Path_162" data-name="Path 162" d="M370.637,225.926l2.411-24.325a24.7,24.7,0,0,0-.265-6.776L370.3,180.952a7.661,7.661,0,0,1,2.672-7.264l8.291-5.176a55.081,55.081,0,0,1,12.627-5.813l.713-.224a4.5,4.5,0,0,1,5.329,3.192l.223.813A35.166,35.166,0,0,1,401.025,181l-1.253,8.364a52.771,52.771,0,0,0-.321,13.073l.788,7.881-1.614,15.6Z" fill="#65b1fc"/>
        <path id="Path_163" data-name="Path 163" d="M370.637,225.926s25.864,1.922,29.6-15.6c0,0,2.6,10.684,0,19.924a34.873,34.873,0,0,0-.577,16.824s-3.754,3.388-11.839,3.388V237.32h0a16.031,16.031,0,0,0-4.5,10.71l-.12,4.45s-2.022,3.754-11.55,4.331C371.653,256.811,367.61,243.817,370.637,225.926Z" fill="#ffe9b3"/>
        <path id="Path_164" data-name="Path 164" d="M363.511,187.51a73.553,73.553,0,0,0,6.3-9.483,11.473,11.473,0,0,1,1.677-2.507,3.513,3.513,0,0,1,2.685-1.175,4.364,4.364,0,0,1,3.082,2.366,13.168,13.168,0,0,1,.715,12.212,16.407,16.407,0,0,1-2.76,4.054l-3.62,4.143a16.8,16.8,0,0,1-8.288-8.027,1.528,1.528,0,0,1-.2-.759A1.623,1.623,0,0,1,363.511,187.51Z" fill="#dfe5f3"/>
        <path id="Path_165" data-name="Path 165" d="M377.038,296.653s-7.331-1.537-9.155-1.309-4.789,2.052-4.675,3.99,3.145,3.193,6.3,4.561c2.06.892,7.189,2.705,10.508,3.859a5.62,5.62,0,0,0,5.717-1.212c1.068-1.015,2.036-2.147,1.984-2.875-.072-1.019-.413-3.153-.649-4.563a1.514,1.514,0,0,0-1.578-1.265C383.372,297.951,379.258,297.968,377.038,296.653Z" fill="#65b1fc"/>
        <g id="Group_134" data-name="Group 134">
          <g id="Group_131" data-name="Group 131">
            <path id="Path_166" data-name="Path 166" d="M365.919,148.2v-.027c0-.053,0-.107.007-.161s.008-.109.013-.164.012-.109.019-.164.015-.113.024-.169.018-.114.029-.171c0-.021.009-.042.013-.063l0-.017c.007-.032.013-.063.02-.095.013-.059.027-.119.041-.178s.031-.119.047-.179.034-.119.052-.178.037-.118.057-.177l.042-.122,0-.011.014-.038c.02-.057.041-.113.063-.17s.043-.108.066-.162.045-.109.069-.163.051-.113.078-.17.054-.114.082-.17l.023-.043.009-.019c.027-.052.053-.1.08-.154.058-.109.119-.217.182-.322.072-.123.148-.243.226-.361l.019-.026.016-.024c.061-.09.123-.179.187-.266q.075-.1.153-.2c.042-.053.085-.106.128-.158s.086-.1.13-.152l.007-.007h0c.041-.048.082-.094.124-.139s.09-.1.136-.142.095-.1.143-.141.1-.092.146-.136.1-.087.148-.129l.15-.123.144-.11.146-.1c.046-.031.093-.062.139-.091s.094-.059.141-.087l.033-.019.311-.179,8.756-5.055.3-.174c.035-.02.07-.04.105-.058s.09-.048.135-.071l.135-.063.134-.057c.045-.018.089-.035.134-.05l.033-.011.011,0,.092-.03c.045-.013.09-.026.135-.037s.1-.023.143-.032.1-.017.142-.023.073-.008.109-.011l.015,0,.03,0c.054,0,.107-.005.159-.005s.115,0,.172.008.134.016.2.029l.008,0,.012,0a1.722,1.722,0,0,1,.219.061,1.649,1.649,0,0,1,.276.127l3.82,2.221a1.66,1.66,0,0,0-.5-.189l-.01,0a2.04,2.04,0,0,0-.568-.031l-.014,0a2.692,2.692,0,0,0-.622.133l-.011,0a3.8,3.8,0,0,0-.676.31l-.3.174-8.756,5.055-.311.18a5.152,5.152,0,0,0-.755.535h0a6.645,6.645,0,0,0-.693.682l0,0a8.058,8.058,0,0,0-.6.782l-.019.028a8.305,8.305,0,0,0-.505.86l-.01.02a7.868,7.868,0,0,0-.394.916l0,.011a6.792,6.792,0,0,0-.259.929l0,.017a5.4,5.4,0,0,0-.105.913v.006a3.969,3.969,0,0,0,.068.867,2.317,2.317,0,0,0,.317.828,1.648,1.648,0,0,0,.557.54h0l-3.821-2.221a1.64,1.64,0,0,1-.556-.541l-.006-.006a1.912,1.912,0,0,1-.116-.21c-.028-.058-.054-.119-.077-.182s-.039-.109-.056-.166-.028-.1-.04-.156c-.008-.035-.016-.071-.022-.107l-.011-.058c-.011-.059-.02-.118-.027-.179s-.014-.114-.018-.171-.008-.108-.01-.163,0-.108,0-.162S365.918,148.243,365.919,148.2Z" fill="#ffe9b3"/>
            <g id="Group_130" data-name="Group 130">
              <path id="Path_167" data-name="Path 167" d="M373.094,144.715c-2.077,1.2-3.72,4.351-3.286,6.57.317,1.663,1.831,2.037,3.458,1.1l.161-.093a7.127,7.127,0,0,0,2.707-3.2,3.877,3.877,0,0,1,1.427-1.741l.462-.266a1.1,1.1,0,0,1,1.433.089,2.137,2.137,0,0,0,2.727.058l.15-.086a7.725,7.725,0,0,0,3.452-5.087c.42-2.712-1.248-3.953-3.324-2.755l-.3.174-8.756,5.055Z" fill="#ffe9b3"/>
              <path id="Path_168" data-name="Path 168" d="M371.608,151.784a2.339,2.339,0,0,0,1.106-.357l.161-.093a5.988,5.988,0,0,0,2.253-2.693,4.93,4.93,0,0,1,1.882-2.243l.461-.266a2.54,2.54,0,0,1,1.275-.366,2.069,2.069,0,0,1,1.506.646.6.6,0,0,0,.452.171,1.893,1.893,0,0,0,.927-.3l.153-.088a6.624,6.624,0,0,0,2.911-4.3,2.294,2.294,0,0,0-.242-1.731.591.591,0,0,0-.491-.207,1.943,1.943,0,0,0-.95.31l-9.366,5.407c-1.7.98-3.088,3.708-2.756,5.4C371.01,151.7,371.32,151.784,371.608,151.784Z" fill="#65b1fc"/>
            </g>
          </g>
          <path id="Path_169" data-name="Path 169" d="M373.094,149.876a30.4,30.4,0,0,1,.986-7.976l8.693,1.858a6.523,6.523,0,0,1,2.935,5.632c.125,3.135.206,6.461-1.356,9.182a10.12,10.12,0,0,1-2.742,3.014,5.019,5.019,0,0,1-2.7,1.154,4.541,4.541,0,0,1-3.528-1.872,10.664,10.664,0,0,1-2.141-5.257A31.829,31.829,0,0,1,373.094,149.876Z" fill="#f0b7cf"/>
          <path id="Path_170" data-name="Path 170" d="M374.71,135.578a11.822,11.822,0,0,1,5.1-1.313,26.5,26.5,0,0,1,8.474.916,13.4,13.4,0,0,1,6.515,3.488,17.6,17.6,0,0,1,3.448,6.7,16.387,16.387,0,0,1,.938,7.216,12.474,12.474,0,0,1-6.814,8.782,14.8,14.8,0,0,1-5.51.739c-1.8.013-4.538-.061-4.866-2.349-.244-1.7,1.144-3.714.035-5.279-.5-.7-2.49-1.618-3.226-.8a14.033,14.033,0,0,0-.417,3.013l-1.843.006q.017-2.119.031-4.24a1.647,1.647,0,0,0-.1-.7c-.155-.339-.512-.528-.8-.771-.944-.806-1.062-2.189-1.243-3.417a24.326,24.326,0,0,0-1.725-5.512,5.119,5.119,0,0,1,.786-5.543A5.337,5.337,0,0,1,374.71,135.578Z" fill="#5b383b"/>
          <g id="Group_133" data-name="Group 133">
            <path id="Path_171" data-name="Path 171" d="M370.483,147.689a.654.654,0,0,0,.389.54l10.454,6.036a13.33,13.33,0,0,0,1.72.824,16.3,16.3,0,0,0,1.705.566c.109.03.223.054.334.082.508.129,1.026.24,1.555.327.094.016.187.035.282.049.589.089,1.188.149,1.79.186.109.007.218.013.327.017.6.027,1.2.029,1.8,0,.109-.005.216-.015.325-.022.516-.032,1.027-.088,1.533-.16.143-.021.288-.036.43-.06.3-.052.6-.132.895-.2.384-.086.77-.169,1.139-.282A13.518,13.518,0,0,0,396.78,155a12.151,12.151,0,0,0,1.169-.6c.191-.112.368-.228.542-.346.1-.066.2-.129.3-.2.223-.163.426-.331.619-.5.035-.032.078-.061.112-.093s.053-.058.082-.086a6.449,6.449,0,0,0,.586-.63c.092-.115.168-.233.248-.35s.16-.222.226-.336a4.721,4.721,0,0,0,.231-.468c.031-.072.072-.142.1-.214a4.158,4.158,0,0,0,.2-.69c.01-.05.009-.1.017-.15a3.9,3.9,0,0,0,.059-.6l-.029,4.491c0,.033,0,.067,0,.1a3.7,3.7,0,0,1-.057.5c-.007.049-.007.1-.017.149v.015a4.22,4.22,0,0,1-.187.649c0,.009-.009.017-.012.026-.028.073-.069.143-.1.215a4.411,4.411,0,0,1-.194.414c-.01.018-.025.036-.036.054-.066.113-.149.224-.226.336s-.124.2-.2.3c-.013.017-.032.033-.046.05a6.607,6.607,0,0,1-.582.626c-.028.027-.048.056-.076.083l-.01.007c-.032.03-.072.058-.106.088a7.952,7.952,0,0,1-.625.507c-.092.067-.2.13-.294.195-.146.1-.285.2-.443.3-.031.018-.07.033-.1.052a12.014,12.014,0,0,1-1.168.6,13.5,13.5,0,0,1-1.407.538c-.068.022-.143.031-.212.052-.37.113-.754.2-1.139.283-.231.052-.45.127-.686.17-.069.012-.14.017-.208.029-.143.024-.287.039-.431.06-.266.038-.53.084-.8.111-.243.025-.489.034-.734.049-.108.007-.214.017-.322.022-.071,0-.14.011-.211.014q-.6.02-1.192,0c-.133,0-.265-.015-.4-.022-.11,0-.218-.01-.328-.017-.147-.009-.3-.012-.442-.024-.393-.032-.785-.076-1.173-.131-.059-.008-.115-.021-.174-.03-.1-.015-.189-.034-.284-.05-.253-.042-.507-.08-.756-.131-.271-.056-.533-.129-.8-.2-.111-.028-.224-.052-.334-.082-.055-.015-.112-.025-.166-.041-.515-.147-1.015-.315-1.5-.5-.015-.006-.027-.014-.042-.02a13.212,13.212,0,0,1-1.721-.824l-10.454-6.036a.656.656,0,0,1-.389-.54Z" fill="#65b1fc"/>
            <g id="Group_132" data-name="Group 132">
              <path id="Path_172" data-name="Path 172" d="M397.865,144.982c4.864,2.808,4.518,7.515-1.085,10.022a18.569,18.569,0,0,1-15.454-.739l-10.455-6.036a.567.567,0,0,1-.006-1.074,2.016,2.016,0,0,1,1.854,0l10.738,6.2c3.7,2.134,9.821,2,13.2-.38,2.95-2.082,2.378-5.178-.921-7.083l-10.455-6.036a.567.567,0,0,1-.006-1.074,2.037,2.037,0,0,1,1.854,0Z" fill="#65b1fc"/>
            </g>
          </g>
          <path id="Path_173" data-name="Path 173" d="M396.3,140.743s3.126,5.373,2.225,9.575-19.128-7.836-19.128-7.836l5.456-4.528,6.007.9Z" fill="#5b383b"/>
        </g>
        <g id="Group_135" data-name="Group 135" opacity="0.3">
          <path id="Path_174" data-name="Path 174" d="M146.783,113.856l-.071,25.086,31.53,18.2.071-25.086Z" fill="#dfe5f3"/>
        </g>
        <g id="Group_136" data-name="Group 136" opacity="0.3">
          <path id="Path_175" data-name="Path 175" d="M136.947,202.647l.044,15.361-19.306,11.146-.043-15.361Z" fill="#dfe5f3"/>
        </g>
        <g id="Group_137" data-name="Group 137" opacity="0.3">
          <path id="Path_176" data-name="Path 176" d="M74.888,164.135l-.068,23.956,30.109,17.384L105,181.519Z" fill="#dfe5f3"/>
        </g>
        <g id="Group_138" data-name="Group 138" opacity="0.3">
          <path id="Path_177" data-name="Path 177" d="M292.529,207.4l-.121,42.524,53.448,30.858.121-42.524Z" fill="#dfe5f3"/>
        </g>
        <g id="Group_139" data-name="Group 139" opacity="0.3">
          <path id="Path_178" data-name="Path 178" d="M404.26,124.223l-.071,25.086,31.53,18.2.071-25.086Z" fill="#ffe9b3"/>
        </g>
        <g id="Group_140" data-name="Group 140" opacity="0.3">
          <path id="Path_179" data-name="Path 179" d="M183.22,155.437l.091,31.974-40.187,23.2-.091-31.974Z" fill="#ffe9b3"/>
        </g>
        <g id="Group_141" data-name="Group 141" opacity="0.3">
          <path id="Path_180" data-name="Path 180" d="M160.92,93.083l-.053,18.573,23.344,13.478.053-18.573Z" fill="#ffe9b3"/>
        </g>
        <g id="Group_142" data-name="Group 142" opacity="0.2">
          <path id="Path_181" data-name="Path 181" d="M156.611,152.042l.071,25.086-31.53,18.2-.071-25.086Z" fill="#5b383b"/>
        </g>
        <g id="Group_143" data-name="Group 143" opacity="0.2">
          <path id="Path_182" data-name="Path 182" d="M173.8,108.625l-.05,17.574,22.088,12.752.05-17.574Z" fill="#5b383b"/>
        </g>
        <g id="Group_144" data-name="Group 144" opacity="0.3">
          <path id="Path_183" data-name="Path 183" d="M66.318,118.274l-.065,22.809,28.668,16.551.065-22.809Z" fill="#65b1fc"/>
        </g>
        <path id="Path_184" data-name="Path 184" d="M161.829,144.152c3.928,2.268,7.135.44,7.148-4.073a15.677,15.677,0,0,0-7.1-12.3c-3.927-2.267-7.134-.44-7.147,4.072A15.672,15.672,0,0,0,161.829,144.152Zm.007-2.341a10.637,10.637,0,0,1-1.138-4.264c.379.251.764.492,1.148.714s.766.426,1.148.612C162.729,140.909,162.137,141.784,161.836,141.811Zm4.952-4.49a2.637,2.637,0,0,1-1.643,0,22.869,22.869,0,0,0-.592-4.781A11.889,11.889,0,0,1,166.788,137.321Zm-1.723,2.387a7.217,7.217,0,0,0,1.775.338,2.8,2.8,0,0,1-2.315,2.449A12.447,12.447,0,0,0,165.065,139.708Zm-3.2-9.586c.389.482,1.249,2.921,1.255,6.478-.4-.187-.816-.4-1.272-.665s-.877-.535-1.273-.8C160.6,131.592,161.478,130.153,161.869,130.122Zm-5.01,4.161a17.951,17.951,0,0,0,1.767,1.707,22.337,22.337,0,0,0,.526,3.4A11.716,11.716,0,0,1,156.859,134.283Zm1.7-.762a9.429,9.429,0,0,1-1.636-1.894,2.72,2.72,0,0,1,2.254-2.189A14.475,14.475,0,0,0,158.562,133.521Z" fill="#65b1fc"/>
        <path id="Path_185" data-name="Path 185" d="M137.076,170.04l8.647-4.993c1.484-.857,2.691-.169,2.7,1.536l.013,4.728a5.9,5.9,0,0,1-2.678,4.636l-.308.178.009,3.127-2.73-1.556-5.618,3.244c-1.484.857-2.691.171-2.7-1.534l-.014-4.727A5.9,5.9,0,0,1,137.076,170.04Z" fill="#ffe9b3"/>
        <path id="Path_186" data-name="Path 186" d="M90.361,194.189l5.45,3.147-.482-3.058a7.556,7.556,0,0,0-2.241-4.145l-1.365-1.269a7.266,7.266,0,0,1-.577-1.634c1.129.415,1.924.287,1.927-.6a1.881,1.881,0,0,0-.032-.325c-.02-.109-.039-.216-.057-.324a1.534,1.534,0,0,0,.156.1c.452.261.822.218.824-.372a2.036,2.036,0,0,0-.552-1.328,4,4,0,0,0,.258-3.206,2.95,2.95,0,0,0-1-1.258c-.312-.18-.491-.083-.5-.078a7.839,7.839,0,0,0-2.655-2.957,3.178,3.178,0,0,0-2.155-.436c-1.753.3-1.5,2.379-1.053,3.935-.237.051-.394.3-.395.68a1.544,1.544,0,0,0,.819,1.321,1.409,1.409,0,0,0,.189.091c-.021.087-.041.176-.061.263a1.29,1.29,0,0,0-.034.287,4.251,4.251,0,0,0,1.918,2.822,2.057,2.057,0,0,1-.574.955l-1.409-.318a1.768,1.768,0,0,0-2.259,1.547l-.5,2.493,5.448,3.145Z" fill="#5b383b"/>
        <path id="Path_187" data-name="Path 187" d="M328.584,240.8c-.12-.075-.24-.146-.359-.216a9.316,9.316,0,0,0-1.827-.82,25.539,25.539,0,0,1-4.885-2.21l-4.6-2.653a35.2,35.2,0,0,1-4.877-3.426,12.9,12.9,0,0,0-1.831-1.291c-.119-.069-.239-.136-.359-.2-4.321-2.3-7.891-.343-8.156,4.472-.3,5.482,3.588,12.429,8.447,15.234,3.537,2.043,6.577,1.3,7.86-1.5.2-.429.671-.5,1.181-.2a2.794,2.794,0,0,1,1.174,1.564c1.263,4.268,4.288,8.512,7.833,10.559,4.852,2.8,8.773.364,8.5-5.449A19.006,19.006,0,0,0,328.584,240.8Zm-19.547-5.793c0-.293.213-.406.466-.26l1.359.784a1.016,1.016,0,0,1,.46.795l-.006,1.793a.316.316,0,0,1-.161.31l-.679.278a.353.353,0,0,1-.3-.048.91.91,0,0,1-.3-.3l-.678-1.062a1,1,0,0,1-.161-.5Zm-.675,5.013a.31.31,0,0,1-.35-.02l-1.554-.9a1.016,1.016,0,0,1-.465-.8l0-1.567c0-.291.209-.409.469-.259l1.553.9a.951.951,0,0,1,.35.392l.582,1.118c.146.28.145.578,0,.688Zm2.935,4.831c0,.294-.209.412-.462.266l-1.359-.784a1.029,1.029,0,0,1-.463-.8l.005-1.785a.32.32,0,0,1,.163-.313l.682-.28a.351.351,0,0,1,.3.048.922.922,0,0,1,.3.3l.675,1.062a.965.965,0,0,1,.159.5Zm3.045-1.727c0,.293-.21.41-.469.26l-1.554-.9a.949.949,0,0,1-.349-.384l-.582-1.123c-.149-.281-.148-.579,0-.688l.587-.443a.3.3,0,0,1,.351.012l1.553.9a1.019,1.019,0,0,1,.466.8Zm3.928-1.674-1.547-.893a.849.849,0,0,1-.387-.67c0-.244.171-.346.39-.219l1.546.892a.858.858,0,0,1,.388.668C318.659,241.472,318.482,241.573,318.27,241.45Zm9.964,3.165a4.091,4.091,0,0,1,1.854,3.212c0,1.183-.844,1.656-1.866,1.066a4.1,4.1,0,0,1-1.861-3.218C326.364,244.492,327.2,244.02,328.234,244.615Zm-6.553-1.2-1.553-.9a.862.862,0,0,1-.387-.67c0-.244.177-.342.389-.22l1.554.9a.856.856,0,0,1,.385.667C322.068,243.44,321.894,243.542,321.681,243.42Zm3.394,7.263a4.089,4.089,0,0,1-1.854-3.214c0-1.181.839-1.662,1.867-1.069a4.1,4.1,0,0,1,1.856,3.218C326.941,250.8,326.105,251.278,325.075,250.683Zm3.126,5.406a4.1,4.1,0,0,1-1.861-3.218c0-1.18.844-1.654,1.873-1.06a4.1,4.1,0,0,1,1.855,3.212C330.064,256.206,329.224,256.68,328.2,256.089Zm3.137-1.79a4.089,4.089,0,0,1-1.854-3.214c0-1.181.839-1.662,1.867-1.069a4.1,4.1,0,0,1,1.856,3.218C333.2,254.417,332.368,254.893,331.338,254.3Z" fill="#ffe9b3"/>
        <g id="Group_145" data-name="Group 145">
          <path id="Path_188" data-name="Path 188" d="M420,145.4c-1.191-.687-2.162-.134-2.166,1.235a4.748,4.748,0,0,0,2.152,3.726c1.191.688,2.162.135,2.166-1.234A4.747,4.747,0,0,0,420,145.4Z" fill="#5b383b"/>
          <path id="Path_189" data-name="Path 189" d="M416.192,139.327l7.634,4.407-1.114-3.49-5.39-3.112Z" fill="#5b383b"/>
          <path id="Path_190" data-name="Path 190" d="M426.367,145.9l-1.158-.668-10.4-6.006-1.161-.67c-.739-.427-1.343-.085-1.345.765l-.024,8.612a2.946,2.946,0,0,0,1.336,2.314l12.721,7.344c.739.427,1.341.084,1.344-.766l.024-8.612A2.944,2.944,0,0,0,426.367,145.9Zm-6.388,6.193a8.053,8.053,0,0,1-3.654-6.325c.007-2.327,1.655-3.263,3.677-2.1A8.049,8.049,0,0,1,423.656,150C423.649,152.32,422,153.258,419.979,152.089Zm5.926-3.854-2.007-1.159a1.593,1.593,0,0,1-.723-1.247c0-.46.328-.645.728-.414l2.007,1.159a1.593,1.593,0,0,1,.719,1.249C426.628,148.279,426.3,148.464,425.9,148.235Z" fill="#5b383b"/>
        </g>
        <g id="Group_146" data-name="Group 146">
          <path id="Path_191" data-name="Path 191" d="M76.736,136.983l-4.62-6.744a2.156,2.156,0,0,0-.1.664L72,137.881a3.037,3.037,0,0,0,.035.47Z" fill="#fff"/>
          <path id="Path_192" data-name="Path 192" d="M84.5,141.467l4.678,6.784a2.391,2.391,0,0,0,.038-.428l.019-6.978a3.251,3.251,0,0,0-.091-.772Z" fill="#fff"/>
          <path id="Path_193" data-name="Path 193" d="M81.431,142.394a1.06,1.06,0,0,1-.82-.145,2.667,2.667,0,0,1-.817-.8L77.5,138.107l-5.085,1.475a4.467,4.467,0,0,0,1.683,1.941l13,7.508a1.366,1.366,0,0,0,1.685,0L83.732,141.7Z" fill="#fff"/>
          <path id="Path_194" data-name="Path 194" d="M80.614,141.172a.318.318,0,0,0,.252.041l7.811-2.347a4.34,4.34,0,0,0-1.538-1.659l-13-7.507a1.461,1.461,0,0,0-1.545-.121l7.772,11.344A.818.818,0,0,0,80.614,141.172Z" fill="#fff"/>
        </g>
      </g>
      <text transform="translate(149.333 37.667)" font-size="10" font-family="ArialMT, Arial"/>    </g>
  </g>
</svg>
