<svg xmlns="http://www.w3.org/2000/svg" xmlns:xlink="http://www.w3.org/1999/xlink" width="393.777" height="395.765" viewBox="0 0 393.777 395.765">
  <defs>
    <style>
      .cls-1 {
        fill: url(#linear-gradient);
      }

      .cls-2 {
        opacity: 0.3;
      }

      .cls-3 {
        fill: #bdd0fb;
      }

      .cls-4 {
        fill: url(#linear-gradient-2);
      }

      .cls-5, .cls-9 {
        fill: #7d97f4;
      }

      .cls-6 {
        fill: url(#linear-gradient-6);
      }

      .cls-7 {
        fill: url(#linear-gradient-7);
      }

      .cls-8 {
        fill: #91b3fa;
      }

      .cls-9 {
        opacity: 0.9;
      }

      .cls-10 {
        fill: url(#linear-gradient-10);
      }

      .cls-11 {
        fill: url(#linear-gradient-11);
      }

      .cls-12 {
        fill: url(#linear-gradient-12);
      }

      .cls-13 {
        fill: #fff;
        opacity: 0.7;
      }

      .cls-14 {
        fill: url(#linear-gradient-13);
      }

      .cls-15 {
        fill: url(#linear-gradient-14);
      }

      .cls-16 {
        fill: url(#linear-gradient-15);
      }

      .cls-17 {
        fill: url(#linear-gradient-16);
      }

      .cls-18 {
        fill: url(#linear-gradient-17);
      }

      .cls-19 {
        fill: url(#linear-gradient-18);
      }

      .cls-20 {
        fill: url(#linear-gradient-19);
      }

      .cls-21 {
        fill: url(#linear-gradient-20);
      }

      .cls-22 {
        fill: url(#linear-gradient-21);
      }

      .cls-23 {
        fill: url(#linear-gradient-22);
      }

      .cls-24 {
        fill: url(#linear-gradient-23);
      }

      .cls-25 {
        fill: url(#linear-gradient-24);
      }

      .cls-26 {
        fill: url(#linear-gradient-25);
      }

      .cls-27 {
        fill: url(#linear-gradient-26);
      }

      .cls-28 {
        fill: url(#linear-gradient-27);
      }

      .cls-29 {
        fill: url(#linear-gradient-28);
      }

      .cls-30 {
        fill: url(#linear-gradient-29);
      }

      .cls-31 {
        fill: url(#linear-gradient-30);
      }

      .cls-32 {
        fill: url(#linear-gradient-31);
      }

      .cls-33 {
        fill: url(#linear-gradient-32);
      }

      .cls-34 {
        fill: url(#linear-gradient-33);
      }

      .cls-35 {
        fill: url(#linear-gradient-34);
      }

      .cls-36 {
        fill: url(#linear-gradient-35);
      }

      .cls-37 {
        fill: url(#linear-gradient-36);
      }

      .cls-38 {
        fill: url(#linear-gradient-37);
      }

      .cls-39 {
        fill: url(#linear-gradient-38);
      }

      .cls-40 {
        fill: url(#linear-gradient-39);
      }

      .cls-41 {
        fill: url(#linear-gradient-40);
      }

      .cls-42 {
        fill: url(#linear-gradient-41);
      }

      .cls-43 {
        fill: url(#linear-gradient-42);
      }

      .cls-44 {
        fill: url(#linear-gradient-43);
      }

      .cls-45 {
        fill: url(#linear-gradient-44);
      }

      .cls-46 {
        fill: url(#linear-gradient-45);
      }

      .cls-47 {
        fill: url(#linear-gradient-46);
      }

      .cls-48 {
        fill: url(#linear-gradient-47);
      }

      .cls-49 {
        fill: url(#linear-gradient-48);
      }

      .cls-50 {
        fill: url(#linear-gradient-49);
      }

      .cls-51 {
        fill: url(#linear-gradient-50);
      }

      .cls-52 {
        fill: url(#linear-gradient-51);
      }

      .cls-53 {
        fill: url(#linear-gradient-52);
      }

      .cls-54 {
        fill: url(#linear-gradient-53);
      }

      .cls-55 {
        fill: url(#linear-gradient-54);
      }

      .cls-56 {
        fill: url(#linear-gradient-55);
      }

      .cls-57 {
        fill: url(#linear-gradient-56);
      }

      .cls-58 {
        fill: url(#linear-gradient-57);
      }

      .cls-59 {
        fill: url(#linear-gradient-58);
      }

      .cls-60 {
        fill: url(#linear-gradient-59);
      }

      .cls-61 {
        fill: url(#linear-gradient-60);
      }

      .cls-62 {
        fill: url(#linear-gradient-61);
      }

      .cls-63 {
        fill: url(#linear-gradient-62);
      }

      .cls-64 {
        fill: url(#linear-gradient-63);
      }

      .cls-65 {
        fill: url(#linear-gradient-64);
      }

      .cls-66 {
        fill: url(#linear-gradient-65);
      }

      .cls-67 {
        fill: url(#linear-gradient-66);
      }

      .cls-68 {
        fill: url(#linear-gradient-67);
      }

      .cls-69 {
        fill: url(#linear-gradient-68);
      }

      .cls-70 {
        fill: url(#linear-gradient-69);
      }

      .cls-71 {
        fill: url(#linear-gradient-70);
      }

      .cls-72 {
        fill: url(#linear-gradient-71);
      }

      .cls-73 {
        fill: url(#linear-gradient-72);
      }

      .cls-74 {
        fill: url(#linear-gradient-73);
      }

      .cls-75 {
        fill: url(#linear-gradient-74);
      }

      .cls-76 {
        fill: url(#linear-gradient-75);
      }

      .cls-77 {
        fill: url(#linear-gradient-76);
      }

      .cls-78 {
        fill: url(#linear-gradient-77);
      }

      .cls-79 {
        fill: url(#linear-gradient-78);
      }

      .cls-80 {
        fill: url(#linear-gradient-79);
      }

      .cls-81 {
        fill: url(#linear-gradient-80);
      }

      .cls-82 {
        fill: url(#linear-gradient-81);
      }

      .cls-83 {
        fill: url(#linear-gradient-82);
      }

      .cls-84 {
        fill: url(#linear-gradient-83);
      }

      .cls-85 {
        fill: url(#linear-gradient-84);
      }

      .cls-86 {
        fill: url(#linear-gradient-85);
      }

      .cls-87 {
        fill: url(#linear-gradient-86);
      }

      .cls-88 {
        fill: url(#linear-gradient-87);
      }

      .cls-89 {
        fill: url(#linear-gradient-88);
      }

      .cls-90 {
        fill: url(#linear-gradient-89);
      }

      .cls-91 {
        fill: url(#linear-gradient-90);
      }

      .cls-92 {
        fill: url(#linear-gradient-91);
      }

      .cls-93 {
        fill: url(#linear-gradient-92);
      }

      .cls-94 {
        fill: url(#linear-gradient-93);
      }

      .cls-95 {
        fill: url(#linear-gradient-94);
      }

      .cls-96 {
        fill: url(#linear-gradient-95);
      }

      .cls-97 {
        fill: url(#linear-gradient-96);
      }

      .cls-98 {
        fill: url(#linear-gradient-97);
      }

      .cls-99 {
        fill: url(#linear-gradient-98);
      }

      .cls-100 {
        fill: url(#linear-gradient-99);
      }

      .cls-101 {
        fill: url(#linear-gradient-100);
      }

      .cls-102 {
        fill: url(#linear-gradient-101);
      }

      .cls-103 {
        fill: url(#linear-gradient-102);
      }

      .cls-104 {
        fill: url(#linear-gradient-103);
      }

      .cls-105 {
        fill: url(#linear-gradient-104);
      }

      .cls-106 {
        fill: url(#linear-gradient-105);
      }

      .cls-107 {
        fill: url(#linear-gradient-106);
      }

      .cls-108 {
        fill: url(#linear-gradient-107);
      }

      .cls-109 {
        fill: url(#linear-gradient-108);
      }

      .cls-110 {
        fill: url(#linear-gradient-109);
      }

      .cls-111 {
        fill: url(#linear-gradient-110);
      }

      .cls-112 {
        fill: url(#linear-gradient-111);
      }

      .cls-113 {
        fill: url(#linear-gradient-112);
      }

      .cls-114 {
        fill: url(#linear-gradient-113);
      }

      .cls-115 {
        fill: url(#linear-gradient-114);
      }
    </style>
    <linearGradient id="linear-gradient" x1="1.052" y1="1.139" x2="0.326" y2="0.335" gradientUnits="objectBoundingBox">
      <stop offset="0" stop-color="#dae3fe"/>
      <stop offset="1" stop-color="#e9effd"/>
    </linearGradient>
    <linearGradient id="linear-gradient-2" x1="0" y1="0.5" x2="1" y2="0.5" xlink:href="#linear-gradient"/>
    <linearGradient id="linear-gradient-6" x1="1.082" y1="1.088" x2="-0.261" y2="-0.302" gradientUnits="objectBoundingBox">
      <stop offset="0" stop-color="#4f52ff"/>
      <stop offset="1" stop-color="#4042e2"/>
    </linearGradient>
    <linearGradient id="linear-gradient-7" x1="0.379" y1="-20.626" x2="0.44" y2="-10.016" xlink:href="#linear-gradient-6"/>
    <linearGradient id="linear-gradient-10" x1="0.692" y1="0.028" x2="0.333" y2="1.03" gradientUnits="objectBoundingBox">
      <stop offset="0" stop-color="#ff928e"/>
      <stop offset="1" stop-color="#fe7062"/>
    </linearGradient>
    <linearGradient id="linear-gradient-11" x1="0.474" y1="-0.718" x2="0.512" y2="1.637" xlink:href="#linear-gradient-6"/>
    <linearGradient id="linear-gradient-12" x1="-5.439" y1="-6.054" x2="-6.441" y2="-2.58" gradientUnits="objectBoundingBox">
      <stop offset="0" stop-color="#e1473d"/>
      <stop offset="1" stop-color="#e9605a"/>
    </linearGradient>
    <linearGradient id="linear-gradient-13" x1="0.455" y1="-9.303" x2="0.48" y2="-3.898" xlink:href="#linear-gradient-10"/>
    <linearGradient id="linear-gradient-14" x1="-27.404" y1="0.213" x2="-38.076" y2="1.418" xlink:href="#linear-gradient-10"/>
    <linearGradient id="linear-gradient-15" x1="0.926" y1="-0.135" x2="1.163" y2="2.255" xlink:href="#linear-gradient-10"/>
    <linearGradient id="linear-gradient-16" x1="-2.184" y1="0.373" x2="-1.126" y2="1.349" xlink:href="#linear-gradient-6"/>
    <linearGradient id="linear-gradient-17" x1="-0.928" y1="-2.732" x2="-1.349" y2="-1.705" gradientUnits="objectBoundingBox">
      <stop offset="0" stop-color="#09005d"/>
      <stop offset="1" stop-color="#1a0f91"/>
    </linearGradient>
    <linearGradient id="linear-gradient-18" x1="1.475" y1="16.343" x2="1.058" y2="18.071" xlink:href="#linear-gradient-17"/>
    <linearGradient id="linear-gradient-19" x1="0.477" y1="0.898" x2="-2.267" y2="2.413" xlink:href="#linear-gradient-17"/>
    <linearGradient id="linear-gradient-20" x1="1.739" y1="0.674" x2="0.209" y2="0.442" xlink:href="#linear-gradient-6"/>
    <linearGradient id="linear-gradient-21" x1="1.8" y1="-1.384" x2="1.361" y2="-0.747" gradientUnits="objectBoundingBox">
      <stop offset="0" stop-color="#febbba"/>
      <stop offset="1" stop-color="#ff928e"/>
    </linearGradient>
    <linearGradient id="linear-gradient-22" x1="0.631" y1="0.43" x2="-0.566" y2="1.059" gradientUnits="objectBoundingBox">
      <stop offset="0" stop-color="#febbba"/>
      <stop offset="0.206" stop-color="#feb3b1"/>
      <stop offset="1" stop-color="#ff928e"/>
    </linearGradient>
    <linearGradient id="linear-gradient-23" x1="29.144" y1="54.097" x2="30.295" y2="54.097" xlink:href="#linear-gradient-17"/>
    <linearGradient id="linear-gradient-24" x1="51.752" y1="88.196" x2="51.707" y2="88.933" xlink:href="#linear-gradient-17"/>
    <linearGradient id="linear-gradient-25" x1="52.04" y1="88.312" x2="51.994" y2="89.049" xlink:href="#linear-gradient-17"/>
    <linearGradient id="linear-gradient-26" x1="52.327" y1="88.428" x2="52.281" y2="89.165" xlink:href="#linear-gradient-17"/>
    <linearGradient id="linear-gradient-27" x1="52.613" y1="88.542" x2="52.568" y2="89.279" xlink:href="#linear-gradient-17"/>
    <linearGradient id="linear-gradient-28" x1="30.054" y1="54.482" x2="31.205" y2="54.482" xlink:href="#linear-gradient-17"/>
    <linearGradient id="linear-gradient-29" x1="53.316" y1="88.824" x2="53.271" y2="89.562" xlink:href="#linear-gradient-17"/>
    <linearGradient id="linear-gradient-30" x1="53.603" y1="88.94" x2="53.558" y2="89.677" xlink:href="#linear-gradient-17"/>
    <linearGradient id="linear-gradient-31" x1="53.891" y1="89.055" x2="53.845" y2="89.792" xlink:href="#linear-gradient-17"/>
    <linearGradient id="linear-gradient-32" x1="54.178" y1="89.171" x2="54.132" y2="89.908" xlink:href="#linear-gradient-17"/>
    <linearGradient id="linear-gradient-33" x1="218.85" y1="32.752" x2="227.101" y2="32.752" xlink:href="#linear-gradient-17"/>
    <linearGradient id="linear-gradient-34" x1="54.88" y1="89.454" x2="54.835" y2="90.191" xlink:href="#linear-gradient-17"/>
    <linearGradient id="linear-gradient-35" x1="55.167" y1="89.568" x2="55.121" y2="90.306" xlink:href="#linear-gradient-17"/>
    <linearGradient id="linear-gradient-36" x1="55.453" y1="89.684" x2="55.408" y2="90.421" xlink:href="#linear-gradient-17"/>
    <linearGradient id="linear-gradient-37" x1="55.741" y1="89.799" x2="55.696" y2="90.536" xlink:href="#linear-gradient-17"/>
    <linearGradient id="linear-gradient-38" x1="31.875" y1="55.252" x2="33.027" y2="55.252" xlink:href="#linear-gradient-17"/>
    <linearGradient id="linear-gradient-39" x1="56.442" y1="90.081" x2="56.397" y2="90.819" xlink:href="#linear-gradient-17"/>
    <linearGradient id="linear-gradient-40" x1="56.73" y1="90.199" x2="56.684" y2="90.936" xlink:href="#linear-gradient-17"/>
    <linearGradient id="linear-gradient-41" x1="57.017" y1="90.312" x2="56.972" y2="91.049" xlink:href="#linear-gradient-17"/>
    <linearGradient id="linear-gradient-42" x1="57.304" y1="90.427" x2="57.259" y2="91.164" xlink:href="#linear-gradient-17"/>
    <linearGradient id="linear-gradient-43" x1="231.902" y1="33.209" x2="240.153" y2="33.209" xlink:href="#linear-gradient-17"/>
    <linearGradient id="linear-gradient-44" x1="58.006" y1="90.71" x2="57.961" y2="91.447" xlink:href="#linear-gradient-17"/>
    <linearGradient id="linear-gradient-45" x1="58.294" y1="90.825" x2="58.249" y2="91.563" xlink:href="#linear-gradient-17"/>
    <linearGradient id="linear-gradient-46" x1="58.581" y1="90.941" x2="58.536" y2="91.678" xlink:href="#linear-gradient-17"/>
    <linearGradient id="linear-gradient-47" x1="58.868" y1="91.056" x2="58.823" y2="91.793" xlink:href="#linear-gradient-17"/>
    <linearGradient id="linear-gradient-48" x1="33.696" y1="56.022" x2="34.847" y2="56.022" xlink:href="#linear-gradient-17"/>
    <linearGradient id="linear-gradient-49" x1="59.57" y1="91.338" x2="59.524" y2="92.075" xlink:href="#linear-gradient-17"/>
    <linearGradient id="linear-gradient-50" x1="59.858" y1="91.454" x2="59.812" y2="92.191" xlink:href="#linear-gradient-17"/>
    <linearGradient id="linear-gradient-51" x1="60.145" y1="91.569" x2="60.099" y2="92.306" xlink:href="#linear-gradient-17"/>
    <linearGradient id="linear-gradient-52" x1="60.432" y1="91.685" x2="60.386" y2="92.422" xlink:href="#linear-gradient-17"/>
    <linearGradient id="linear-gradient-53" x1="244.95" y1="33.665" x2="253.201" y2="33.665" xlink:href="#linear-gradient-17"/>
    <linearGradient id="linear-gradient-54" x1="61.134" y1="91.966" x2="61.089" y2="92.703" xlink:href="#linear-gradient-17"/>
    <linearGradient id="linear-gradient-55" x1="61.421" y1="92.082" x2="61.376" y2="92.819" xlink:href="#linear-gradient-17"/>
    <linearGradient id="linear-gradient-56" x1="61.708" y1="92.198" x2="61.663" y2="92.935" xlink:href="#linear-gradient-17"/>
    <linearGradient id="linear-gradient-57" x1="61.995" y1="92.312" x2="61.95" y2="93.049" xlink:href="#linear-gradient-17"/>
    <linearGradient id="linear-gradient-58" x1="35.517" y1="56.792" x2="36.669" y2="56.792" xlink:href="#linear-gradient-17"/>
    <linearGradient id="linear-gradient-59" x1="62.697" y1="92.596" x2="62.652" y2="93.333" xlink:href="#linear-gradient-17"/>
    <linearGradient id="linear-gradient-60" x1="62.984" y1="92.711" x2="62.939" y2="93.448" xlink:href="#linear-gradient-17"/>
    <linearGradient id="linear-gradient-61" x1="63.272" y1="92.827" x2="63.227" y2="93.564" xlink:href="#linear-gradient-17"/>
    <linearGradient id="linear-gradient-62" x1="-6.882" y1="0.206" x2="-8.7" y2="1.44" xlink:href="#linear-gradient-17"/>
    <linearGradient id="linear-gradient-63" x1="-48.56" y1="1.366" x2="-53.973" y2="5.344" xlink:href="#linear-gradient-6"/>
    <linearGradient id="linear-gradient-64" x1="17.31" y1="-1650.414" x2="17.032" y2="-1639.657" xlink:href="#linear-gradient-6"/>
    <linearGradient id="linear-gradient-65" x1="17.45" y1="-149.27" x2="17.178" y2="-148.292" xlink:href="#linear-gradient-6"/>
    <linearGradient id="linear-gradient-66" x1="-36.344" y1="0.023" x2="-37.762" y2="2.675" xlink:href="#linear-gradient-6"/>
    <linearGradient id="linear-gradient-67" x1="1.596" y1="-1.27" x2="3.173" y2="-3.728" xlink:href="#linear-gradient-6"/>
    <linearGradient id="linear-gradient-68" x1="-31.765" y1="-1.361" x2="-30.962" y2="-0.096" xlink:href="#linear-gradient-6"/>
    <linearGradient id="linear-gradient-69" x1="-2.746" y1="0.475" x2="-3.48" y2="3.001" xlink:href="#linear-gradient-17"/>
    <linearGradient id="linear-gradient-70" x1="1.631" y1="-0.784" x2="3.228" y2="-2.597" xlink:href="#linear-gradient-6"/>
    <linearGradient id="linear-gradient-71" x1="-29.103" y1="-0.393" x2="-30.705" y2="1.153" xlink:href="#linear-gradient-17"/>
    <linearGradient id="linear-gradient-72" x1="-2.547" y1="-0.484" x2="-5.612" y2="0.766" xlink:href="#linear-gradient-6"/>
    <linearGradient id="linear-gradient-73" x1="-33.223" y1="-0.252" x2="-35.036" y2="4.078" xlink:href="#linear-gradient-17"/>
    <linearGradient id="linear-gradient-74" x1="0.177" y1="-2.089" x2="-0.372" y2="0.707" xlink:href="#linear-gradient-12"/>
    <linearGradient id="linear-gradient-75" x1="0.46" y1="-3.726" x2="0.502" y2="0.688" gradientUnits="objectBoundingBox">
      <stop offset="0" stop-color="#ff928e"/>
      <stop offset="0.058" stop-color="#ff908b"/>
      <stop offset="1" stop-color="#fe7062"/>
    </linearGradient>
    <linearGradient id="linear-gradient-76" x1="-0.166" y1="-1.567" x2="-0.477" y2="5.938" xlink:href="#linear-gradient-10"/>
    <linearGradient id="linear-gradient-77" x1="0.559" y1="-2.352" x2="0.483" y2="1.325" xlink:href="#linear-gradient-10"/>
    <linearGradient id="linear-gradient-78" x1="463.293" y1="0.23" x2="382.495" y2="1.744" xlink:href="#linear-gradient-17"/>
    <linearGradient id="linear-gradient-79" x1="442.094" y1="0.119" x2="361.296" y2="1.633" xlink:href="#linear-gradient-17"/>
    <linearGradient id="linear-gradient-80" x1="14.721" y1="1.811" x2="14.752" y2="1.367" xlink:href="#linear-gradient-17"/>
    <linearGradient id="linear-gradient-81" x1="15.91" y1="1.819" x2="15.94" y2="1.374" xlink:href="#linear-gradient-17"/>
    <linearGradient id="linear-gradient-82" x1="11.364" y1="78.604" x2="11.399" y2="59.489" xlink:href="#linear-gradient-17"/>
    <linearGradient id="linear-gradient-83" x1="24.893" y1="102.031" x2="24.942" y2="74.849" xlink:href="#linear-gradient-17"/>
    <linearGradient id="linear-gradient-84" x1="25.841" y1="90.521" x2="25.893" y2="63.339" xlink:href="#linear-gradient-17"/>
    <linearGradient id="linear-gradient-85" x1="25.269" y1="79.015" x2="25.321" y2="51.833" xlink:href="#linear-gradient-17"/>
    <linearGradient id="linear-gradient-86" x1="23.233" y1="67.505" x2="23.282" y2="40.322" xlink:href="#linear-gradient-17"/>
    <linearGradient id="linear-gradient-87" x1="22.687" y1="55.992" x2="22.736" y2="28.811" xlink:href="#linear-gradient-17"/>
    <linearGradient id="linear-gradient-88" x1="0.796" y1="-1.023" x2="0.132" y2="2.253" xlink:href="#linear-gradient-6"/>
    <linearGradient id="linear-gradient-89" x1="0.549" y1="-0.66" x2="0.441" y2="1.879" gradientUnits="objectBoundingBox">
      <stop offset="0" stop-color="#53d8ff"/>
      <stop offset="1" stop-color="#3840f7"/>
    </linearGradient>
    <linearGradient id="linear-gradient-90" x1="0.814" y1="-0.971" x2="0.647" y2="-0.225" xlink:href="#linear-gradient-10"/>
    <linearGradient id="linear-gradient-91" x1="0.594" y1="-0.591" x2="0.222" y2="2.502" xlink:href="#linear-gradient-12"/>
    <linearGradient id="linear-gradient-92" x1="0.544" y1="-0.896" x2="0.448" y2="2.16" xlink:href="#linear-gradient-17"/>
    <linearGradient id="linear-gradient-93" x1="-25.576" y1="0.5" x2="-24.576" y2="0.5" xlink:href="#linear-gradient-21"/>
    <linearGradient id="linear-gradient-94" x1="0.303" y1="-0.31" x2="0.572" y2="0.77" xlink:href="#linear-gradient-17"/>
    <linearGradient id="linear-gradient-95" x1="0.195" y1="-0.78" x2="0.974" y2="2.443" xlink:href="#linear-gradient-17"/>
    <linearGradient id="linear-gradient-96" x1="0.51" y1="0.552" x2="0.943" y2="2.655" xlink:href="#linear-gradient-17"/>
    <linearGradient id="linear-gradient-97" x1="-3.906" y1="0.975" x2="-4.268" y2="2.045" xlink:href="#linear-gradient-12"/>
    <linearGradient id="linear-gradient-98" x1="-32.684" y1="8.592" x2="-31.611" y2="2.681" xlink:href="#linear-gradient-6"/>
    <linearGradient id="linear-gradient-99" x1="0.513" y1="-2.652" x2="0.572" y2="-15.33" xlink:href="#linear-gradient-6"/>
    <linearGradient id="linear-gradient-100" x1="-85.086" y1="-0.843" x2="-85.593" y2="2.39" xlink:href="#linear-gradient-21"/>
    <linearGradient id="linear-gradient-101" x1="0.51" y1="-2.716" x2="0.551" y2="-14.862" xlink:href="#linear-gradient-6"/>
    <linearGradient id="linear-gradient-102" x1="-20.189" y1="10.1" x2="-19.443" y2="3.463" xlink:href="#linear-gradient-6"/>
    <linearGradient id="linear-gradient-103" x1="-78.014" y1="-0.224" x2="-78.529" y2="2.539" xlink:href="#linear-gradient-21"/>
    <linearGradient id="linear-gradient-104" x1="1.198" y1="-0.666" x2="0.087" y2="1.307" xlink:href="#linear-gradient-6"/>
    <linearGradient id="linear-gradient-105" x1="5.785" y1="-26.845" x2="5.451" y2="-26.233" xlink:href="#linear-gradient-10"/>
    <linearGradient id="linear-gradient-106" x1="-34.898" y1="-0.222" x2="-35.716" y2="2.966" xlink:href="#linear-gradient-21"/>
    <linearGradient id="linear-gradient-107" x1="-185.084" y1="-0.965" x2="-193.448" y2="1.467" xlink:href="#linear-gradient-12"/>
    <linearGradient id="linear-gradient-108" x1="-56.81" y1="-0.866" x2="-57.733" y2="0.839" xlink:href="#linear-gradient-17"/>
    <linearGradient id="linear-gradient-109" x1="8.279" y1="-61.03" x2="7.865" y2="-59.631" xlink:href="#linear-gradient-10"/>
    <linearGradient id="linear-gradient-110" x1="-22.511" y1="0.5" x2="-21.511" y2="0.5" xlink:href="#linear-gradient-21"/>
    <linearGradient id="linear-gradient-111" x1="-53.085" y1="-13.881" x2="-53.407" y2="-14.947" xlink:href="#linear-gradient-21"/>
    <linearGradient id="linear-gradient-112" x1="-43.016" y1="-11.752" x2="-42.799" y2="-10.569" xlink:href="#linear-gradient-17"/>
    <linearGradient id="linear-gradient-113" x1="-176.171" y1="-69.748" x2="-177.114" y2="-74.395" xlink:href="#linear-gradient-21"/>
    <linearGradient id="linear-gradient-114" x1="-20.335" y1="-0.869" x2="-20.563" y2="0.805" xlink:href="#linear-gradient-10"/>
  </defs>
  <g id="Group_566" data-name="Group 566" transform="translate(-487.04 -463.661)">
    <path id="Path_378" data-name="Path 378" class="cls-1" d="M867.673,725.016C827.976,815.105,723.189,853.8,641.087,847.2c-22.417-1.8-67.521-5.426-102.739-37.762-67.633-62.1-57.217-191.9,7.527-268.323,8.338-9.841,66.05-75.778,155.984-74.9,65.845.646,112.06,36.759,117.68,41.258A177.91,177.91,0,0,1,856.408,548.1C889.565,598.44,892.479,668.72,867.673,725.016Z" transform="translate(-4.454 -2.185)"/>
    <g id="Group_536" data-name="Group 536" transform="translate(491.802 464.07)">
      <g id="Group_531" data-name="Group 531" transform="translate(0 36.028)">
        <g id="Group_528" data-name="Group 528" class="cls-2" transform="translate(42.809 42.921)">
          <path id="Path_379" data-name="Path 379" class="cls-3" d="M971.616,1015.086a1.69,1.69,0,0,1,2,1.052c.662,1.79,1.256,3.636,1.765,5.486a1.69,1.69,0,0,1-1.18,2.078l-.032.008a1.69,1.69,0,0,1-2.046-1.189c-.484-1.757-1.048-3.511-1.677-5.211a1.69,1.69,0,0,1,1-2.171A1.635,1.635,0,0,1,971.616,1015.086Zm3.532,14.292a1.718,1.718,0,0,1,.2-.038,1.69,1.69,0,0,1,1.9,1.453c.252,1.9.425,3.83.515,5.736a1.69,1.69,0,1,1-3.376.159c-.085-1.811-.25-3.645-.49-5.451A1.69,1.69,0,0,1,975.148,1029.377Zm.3,14.714a1.691,1.691,0,0,1,2.1,1.794c-.176,1.9-.438,3.826-.778,5.709a1.69,1.69,0,1,1-3.326-.6c.323-1.789.571-3.612.739-5.422A1.691,1.691,0,0,1,975.445,1044.091Zm-3,14.414a1.691,1.691,0,0,1,2.021,2.167c-.6,1.818-1.284,3.632-2.035,5.392a1.69,1.69,0,1,1-3.108-1.327c.714-1.671,1.364-3.394,1.933-5.122A1.689,1.689,0,0,1,972.444,1058.5Zm-6.14,13.382a1.69,1.69,0,0,1,1.865,2.509c-.985,1.636-2.054,3.253-3.177,4.805a1.69,1.69,0,1,1-2.738-1.981c1.068-1.475,2.084-3.012,3.02-4.567A1.684,1.684,0,0,1,966.3,1071.887Zm-8.947,11.69a1.69,1.69,0,0,1,1.638,2.807c-1.324,1.38-2.724,2.72-4.162,3.984a1.69,1.69,0,0,1-2.231-2.539c1.366-1.2,2.7-2.474,3.954-3.785A1.681,1.681,0,0,1,957.358,1083.577Zm-59.007,19.2a1.686,1.686,0,0,1,.714-.025c1.787.319,3.612.565,5.425.73a1.69,1.69,0,0,1-.306,3.365c-1.909-.173-3.831-.432-5.713-.768a1.69,1.69,0,0,1-.12-3.3Zm47.7-9.788a1.69,1.69,0,0,1,1.346,3.05c-1.6,1.051-3.261,2.046-4.944,2.955a1.69,1.69,0,1,1-1.608-2.973c1.6-.864,3.177-1.808,4.695-2.806A1.7,1.7,0,0,1,946.051,1092.988Zm-33.009,10.727a1.7,1.7,0,0,1,.336-.051c1.815-.089,3.649-.257,5.453-.5a1.69,1.69,0,0,1,.451,3.35c-1.9.255-3.829.433-5.738.527a1.69,1.69,0,0,1-.5-3.325Zm19.883-4.078a1.69,1.69,0,0,1,1,3.222c-1.791.666-3.635,1.263-5.481,1.775l-.035.01a1.69,1.69,0,0,1-.868-3.266c1.753-.486,3.5-1.054,5.206-1.687C932.809,1099.67,932.867,1099.651,932.924,1099.637Z" transform="translate(-885.632 -1015.033)"/>
          <path id="Path_380" data-name="Path 380" class="cls-3" d="M818.832,1602.559a1.682,1.682,0,0,1,1.008.055c.816.305,1.652.6,2.485.873a1.69,1.69,0,1,1-1.055,3.21c-.876-.287-1.755-.6-2.614-.917a1.69,1.69,0,0,1,.176-3.221Z" transform="translate(-817.558 -1517.952)"/>
        </g>
        <g id="Group_529" data-name="Group 529" class="cls-2">
          <path id="Path_381" data-name="Path 381" class="cls-3" d="M559.168,1356.183a1.69,1.69,0,0,1,1.966.967c.346.8.715,1.605,1.1,2.394a1.69,1.69,0,1,1-3.044,1.47c-.4-.831-.789-1.679-1.154-2.521a1.69,1.69,0,0,1,.879-2.222A1.725,1.725,0,0,1,559.168,1356.183Z" transform="translate(-552.457 -1264.116)"/>
          <path id="Path_382" data-name="Path 382" class="cls-3" d="M570.885,718.939q1.13-.288,2.278-.54a1.69,1.69,0,0,1,.725,3.3c-1.767.388-3.513.846-5.212,1.369a1.69,1.69,0,1,1-.995-3.23C568.732,719.516,569.81,719.213,570.885,718.939Zm11.1-1.852a1.716,1.716,0,0,1,.284-.047c1.879-.151,3.786-.225,5.667-.218a1.69,1.69,0,1,1-.012,3.379c-1.786-.006-3.6.064-5.383.207a1.69,1.69,0,0,1-.555-3.321Zm-22.6,5.953a1.69,1.69,0,0,1,1.129,3.17c-1.619.753-3.227,1.586-4.78,2.477a1.69,1.69,0,1,1-1.68-2.933c1.636-.938,3.33-1.815,5.034-2.609A1.7,1.7,0,0,1,559.385,723.04Zm37.086-5.519a1.69,1.69,0,0,1,.655-.035c1.865.265,3.741.613,5.576,1.034a1.69,1.69,0,0,1-.756,3.294c-1.742-.4-3.524-.73-5.295-.982a1.69,1.69,0,0,1-.18-3.311Zm-49.454,13.046a1.69,1.69,0,0,1,1.451,2.975c-1.412,1.09-2.8,2.257-4.118,3.467a1.69,1.69,0,1,1-2.283-2.491c1.39-1.274,2.849-2.5,4.336-3.651A1.687,1.687,0,0,1,547.018,730.567ZM536.6,740.625a1.69,1.69,0,0,1,1.719,2.716c-1.143,1.377-2.241,2.819-3.265,4.284a1.69,1.69,0,1,1-2.771-1.934c1.077-1.542,2.232-3.059,3.436-4.508A1.681,1.681,0,0,1,536.6,740.625Zm-7.976,12.09a1.69,1.69,0,0,1,1.921,2.408c-.817,1.595-1.575,3.24-2.254,4.893a1.69,1.69,0,0,1-3.126-1.285c.715-1.739,1.513-3.472,2.372-5.149A1.687,1.687,0,0,1,528.625,752.716Zm-5.149,13.541a1.69,1.69,0,0,1,2.052,2.061c-.448,1.733-.827,3.505-1.126,5.267a1.69,1.69,0,1,1-3.332-.566c.315-1.856.714-3.722,1.186-5.546A1.69,1.69,0,0,1,523.476,766.257ZM521.425,780.6a1.692,1.692,0,0,1,2.107,1.689c-.055,1.785-.034,3.6.062,5.383a1.69,1.69,0,0,1-3.375.181c-.1-1.882-.123-3.788-.065-5.667A1.691,1.691,0,0,1,521.425,780.6Zm1.15,14.437c.034-.009.068-.016.1-.023a1.689,1.689,0,0,1,1.977,1.343c.247,1.294.537,2.6.862,3.869q.176.692.367,1.376a1.69,1.69,0,0,1-1.175,2.081,1.671,1.671,0,0,1-2.081-1.174q-.2-.721-.386-1.448c-.342-1.34-.647-2.71-.907-4.071A1.69,1.69,0,0,1,522.575,795.041Z" transform="translate(-520.123 -716.821)"/>
          <path id="Path_383" data-name="Path 383" class="cls-3" d="M1140.767,746.58a1.684,1.684,0,0,1,1.016.058c.855.325,1.72.674,2.57,1.038a1.69,1.69,0,0,1-1.329,3.107c-.807-.345-1.629-.677-2.441-.985a1.69,1.69,0,0,1,.184-3.217Z" transform="translate(-1050.348 -742.252)"/>
        </g>
        <g id="Group_530" data-name="Group 530" transform="translate(16.661 17.088)">
          <path id="Path_384" data-name="Path 384" class="cls-3" d="M712.271,842.345a.789.789,0,0,0-.917-.016l-7.922,5.444a41.874,41.874,0,0,0-13.163-3.282l-4.443-8.517a.79.79,0,0,0-.817-.416l-11.4,1.708a.79.79,0,0,0-.66.637l-1.751,9.445a41.872,41.872,0,0,0-11.624,7l-9.17-2.883a.79.79,0,0,0-.872.284l-6.855,9.271a.79.79,0,0,0-.016.917l5.444,7.922a41.871,41.871,0,0,0-3.282,13.163l-8.517,4.443a.79.79,0,0,0-.416.817l1.708,11.4a.79.79,0,0,0,.637.659l9.445,1.751a41.865,41.865,0,0,0,7,11.624l-2.883,9.17a.79.79,0,0,0,.284.872l9.271,6.855a.79.79,0,0,0,.917.016l7.922-5.444a41.868,41.868,0,0,0,13.163,3.282l4.443,8.517a.79.79,0,0,0,.817.416l11.4-1.709a.789.789,0,0,0,.659-.637l1.751-9.445a41.866,41.866,0,0,0,11.624-7l9.17,2.883a.79.79,0,0,0,.872-.284l6.855-9.271a.79.79,0,0,0,.016-.917l-5.444-7.922a41.872,41.872,0,0,0,3.282-13.163l8.517-4.443a.789.789,0,0,0,.416-.817l-1.708-11.4a.79.79,0,0,0-.637-.66l-9.445-1.751a41.874,41.874,0,0,0-7-11.623l2.883-9.17a.79.79,0,0,0-.284-.872Z" transform="translate(-635.879 -835.549)"/>
          <path id="Path_385" data-name="Path 385" class="cls-4" d="M917.94,1109.233a11.6,11.6,0,1,1-1.614.54A11.607,11.607,0,0,1,917.94,1109.233Zm5.034,19.85a9.055,9.055,0,0,0,1.25-.418,8.857,8.857,0,1,0-1.25.418Z" transform="translate(-869.867 -1069.536)"/>
          <path id="Path_386" data-name="Path 386" class="cls-4" d="M812.2,993.723a29.054,29.054,0,0,1,2.871-.579h0q.459-.069.921-.123a28.684,28.684,0,0,1,4.561-.169l.062,0,.176.009.342.02a.676.676,0,1,1-.086,1.349,27.177,27.177,0,0,0-26.564,16.1,26.979,26.979,0,0,0-2.035,15.019,27.551,27.551,0,0,0,.553,2.739,27.147,27.147,0,0,0,53.14-10.783,27.153,27.153,0,0,0-5.87-13.215.676.676,0,1,1,1.044-.859,28.5,28.5,0,1,1-49.623,25.194,29.147,29.147,0,0,1-.58-2.875,28.5,28.5,0,0,1,21.09-31.827Z" transform="translate(-768.498 -970.189)"/>
        </g>
      </g>
      <g id="Group_535" data-name="Group 535" transform="translate(91.968 0)">
        <g id="Group_532" data-name="Group 532" class="cls-2" transform="translate(46.254 21.57)">
          <path id="Path_387" data-name="Path 387" class="cls-3" d="M1722.068,616.4a1.043,1.043,0,0,1,1.155.48c.452.762.887,1.548,1.293,2.337a1.044,1.044,0,0,1-1.856.955c-.387-.751-.8-1.5-1.232-2.228a1.042,1.042,0,0,1,.64-1.543Z" transform="translate(-1686.622 -616.368)"/>
          <path id="Path_388" data-name="Path 388" class="cls-3" d="M1519.36,666.791a1.043,1.043,0,0,1,1.236.652,45.258,45.258,0,0,1,1.359,4.386q.119.467.229.939a1.081,1.081,0,0,1-.78,1.254,1.044,1.044,0,0,1-1.253-.78q-.105-.451-.218-.9a43.4,43.4,0,0,0-1.3-4.183,1.044,1.044,0,0,1,.62-1.339C1519.292,666.81,1519.326,666.8,1519.36,666.791Zm2.455,10.555a1.075,1.075,0,0,1,.148-.027,1.045,1.045,0,0,1,1.149.927,45.26,45.26,0,0,1,.252,5.549,1.044,1.044,0,1,1-2.087-.034,43.216,43.216,0,0,0-.241-5.294A1.044,1.044,0,0,1,1521.815,677.346Zm-.178,10.835a1.055,1.055,0,0,1,.4-.022,1.044,1.044,0,0,1,.887,1.18,45.037,45.037,0,0,1-1.12,5.445,1.044,1.044,0,0,1-2.015-.547,42.832,42.832,0,0,0,1.068-5.192A1.045,1.045,0,0,1,1521.637,688.181Zm-2.836,10.46a1.043,1.043,0,0,1,1.223,1.407,45.307,45.307,0,0,1-2.418,5,1.044,1.044,0,0,1-1.82-1.023,43.113,43.113,0,0,0,2.306-4.771A1.041,1.041,0,0,1,1518.8,698.641Zm-5.305,9.45a1.044,1.044,0,0,1,1.1,1.63,45.63,45.63,0,0,1-3.559,4.264,1.044,1.044,0,1,1-1.518-1.433,43.509,43.509,0,0,0,3.4-4.069A1.039,1.039,0,0,1,1513.5,708.091Zm-7.437,7.875a1.044,1.044,0,0,1,.924,1.815,44.935,44.935,0,0,1-4.49,3.267,1.044,1.044,0,0,1-1.121-1.761,42.824,42.824,0,0,0,4.281-3.114A1.036,1.036,0,0,1,1506.058,715.966Zm-9.134,5.816a1.044,1.044,0,0,1,.7,1.954,45.247,45.247,0,0,1-5.157,2.066,1.044,1.044,0,0,1-.656-1.983,42.9,42.9,0,0,0,4.919-1.97A1.049,1.049,0,0,1,1496.924,721.782Zm-15.669,4.132a1.027,1.027,0,0,1,.182-.029,43.277,43.277,0,0,0,4.571-.587c.23-.041.455-.083.679-.129a1.044,1.044,0,0,1,.411,2.047c-.239.047-.479.094-.719.136a45.432,45.432,0,0,1-4.788.614,1.044,1.044,0,0,1-.336-2.052Z" transform="translate(-1480.471 -659.506)"/>
        </g>
        <g id="Group_533" data-name="Group 533" class="cls-2">
          <path id="Path_389" data-name="Path 389" class="cls-3" d="M1191.44,468.048a1.044,1.044,0,0,1,.529,2.019,43.177,43.177,0,0,0-4.942,1.654,1.044,1.044,0,0,1-.782-1.936,45.47,45.47,0,0,1,5.181-1.734Zm5.23-1.074a1.045,1.045,0,0,1,.111-.022,45.656,45.656,0,0,1,5.447-.452,1.044,1.044,0,0,1,.047,2.087,43.651,43.651,0,0,0-5.2.43,1.044,1.044,0,0,1-.408-2.044Zm-15.111,5.066a1.043,1.043,0,0,1,.764,1.923,43.332,43.332,0,0,0-4.4,2.8,1.044,1.044,0,0,1-1.226-1.69,45.288,45.288,0,0,1,4.609-2.936A1.043,1.043,0,0,1,1181.56,472.04Zm25.771-5.3a1.052,1.052,0,0,1,.362-.027,44.761,44.761,0,0,1,5.4.878,1.044,1.044,0,1,1-.46,2.036,42.875,42.875,0,0,0-5.146-.837,1.044,1.044,0,0,1-.153-2.05ZM1172.938,478.3a1.044,1.044,0,0,1,.97,1.775,42.894,42.894,0,0,0-3.593,3.775,1.044,1.044,0,0,1-1.6-1.345,45.386,45.386,0,0,1,3.767-3.958A1.042,1.042,0,0,1,1172.938,478.3Zm-6.868,8.148a1.044,1.044,0,0,1,1.132,1.582,43.6,43.6,0,0,0-2.588,4.527,1.043,1.043,0,1,1-1.871-.924,45.621,45.621,0,0,1,2.712-4.745A1.041,1.041,0,0,1,1166.069,486.45Zm-4.719,9.559a1.032,1.032,0,0,1,.6.027,1.044,1.044,0,0,1,.639,1.331,42.682,42.682,0,0,0-1.426,5.015,1.044,1.044,0,0,1-2.039-.448,45.112,45.112,0,0,1,1.495-5.26A1.043,1.043,0,0,1,1161.35,496.009Z" transform="translate(-1159.103 -466.5)"/>
          <path id="Path_390" data-name="Path 390" class="cls-3" d="M1562.083,484.409a1.04,1.04,0,0,1,.61.029c.841.3,1.676.631,2.483.976a1.044,1.044,0,1,1-.821,1.92c-.77-.33-1.567-.643-2.369-.932a1.044,1.044,0,0,1,.1-1.994Z" transform="translate(-1503.409 -481.804)"/>
        </g>
        <g id="Group_534" data-name="Group 534" transform="translate(10.047 11.337)">
          <path id="Path_391" data-name="Path 391" class="cls-3" d="M1280.026,549.818a.528.528,0,0,0-.614-.011l-5.3,3.643a28.015,28.015,0,0,0-8.808-2.2l-2.973-5.7a.528.528,0,0,0-.547-.278l-7.63,1.143a.529.529,0,0,0-.441.426l-1.172,6.32a28.019,28.019,0,0,0-7.778,4.681l-6.136-1.929a.529.529,0,0,0-.583.19l-4.587,6.2a.528.528,0,0,0-.01.614l3.643,5.3a28.015,28.015,0,0,0-2.2,8.808l-5.7,2.973a.528.528,0,0,0-.278.547l1.143,7.63a.528.528,0,0,0,.426.441l6.32,1.172a28.015,28.015,0,0,0,4.681,7.778l-1.929,6.136a.529.529,0,0,0,.19.583l6.2,4.587a.529.529,0,0,0,.614.011l5.3-3.643a28.018,28.018,0,0,0,8.808,2.2l2.973,5.7a.528.528,0,0,0,.547.278l7.63-1.143a.529.529,0,0,0,.441-.426l1.172-6.32a28.019,28.019,0,0,0,7.778-4.681l6.136,1.929a.528.528,0,0,0,.583-.19l4.587-6.2a.528.528,0,0,0,.011-.613l-3.643-5.3a28.01,28.01,0,0,0,2.2-8.808l5.7-2.973a.528.528,0,0,0,.278-.547l-1.143-7.63a.529.529,0,0,0-.426-.441l-6.321-1.172a28.021,28.021,0,0,0-4.681-7.778l1.929-6.136a.529.529,0,0,0-.19-.583Z" transform="translate(-1228.908 -545.27)"/>
          <path id="Path_392" data-name="Path 392" class="cls-4" d="M1416.772,727.417a7.915,7.915,0,1,1-1.11.371A8.03,8.03,0,0,1,1416.772,727.417Zm3.367,13.284a5.878,5.878,0,0,0,.809-.27,5.807,5.807,0,0,0-4.481-10.716h0a5.808,5.808,0,0,0,3.672,10.986Z" transform="translate(-1384.627 -700.992)"/>
          <path id="Path_393" data-name="Path 393" class="cls-4" d="M1343.268,647.02a19.973,19.973,0,0,1,1.96-.4,19.773,19.773,0,0,1,4-.191l.18.011a1.043,1.043,0,1,1-.133,2.083,17.635,17.635,0,0,0-3.738.161h0l-.2.032a17.4,17.4,0,0,0-7.9,3.4,17.672,17.672,0,0,0-3.325,3.367l-.024.031-.071.1a17.459,17.459,0,0,0-3.249,13.052,17.765,17.765,0,0,0,.357,1.773,17.575,17.575,0,1,0,30.6-15.535,1.044,1.044,0,1,1,1.612-1.326,19.662,19.662,0,1,1-34.235,17.381,20.125,20.125,0,0,1-.4-1.983A19.689,19.689,0,0,1,1343.268,647.02Z" transform="translate(-1314.147 -631.849)"/>
        </g>
      </g>
    </g>
    <g id="Group_543" data-name="Group 543" transform="translate(487.04 509.661)">
      <g id="Group_537" data-name="Group 537" transform="translate(0 116.06)">
        <path id="Rectangle_137" data-name="Rectangle 137" class="cls-5" d="M0,0H57.294A21.784,21.784,0,0,1,79.078,21.784V163.438a0,0,0,0,1,0,0H0a0,0,0,0,1,0,0V0A0,0,0,0,1,0,0Z" transform="translate(93.732 205.121) rotate(180)"/>
        <path id="Path_394" data-name="Path 394" class="cls-6" d="M491.1,1679.785h93.436l4.555-50.906-77.985.688-23.686,46.006C486.174,1677.538,488.138,1679.785,491.1,1679.785Z" transform="translate(-487.04 -1623.231)"/>
        <path id="Path_395" data-name="Path 395" class="cls-7" d="M651.135,1597.165l73.319-.941,5.116-6.59H655.7a4.567,4.567,0,0,0-4.566,4.567Z" transform="translate(-627.517 -1589.634)"/>
      </g>
      <g id="Group_542" data-name="Group 542" transform="translate(66.291 0)">
        <path id="Path_396" data-name="Path 396" class="cls-8" d="M1127.292,1226.508V993.392L1268.64,914.3l135.639,82.935v229.736Z" transform="translate(-1101.433 -895.44)"/>
        <g id="Group_539" data-name="Group 539" transform="translate(188.833 125.408)">
          <g id="Group_538" data-name="Group 538" transform="translate(9.623 8.925)">
            <path id="Path_397" data-name="Path 397" class="cls-5" d="M2354.059,1716.591h-.554c-14.414,0-27.033,10.2-27.033,24.619v25.958h27.588Z" transform="translate(-2326.471 -1716.591)"/>
            <path id="Path_398" data-name="Path 398" class="cls-5" d="M2326.471,2121.241v76.369c0,2.572,3.019,6.558,5.59,6.558h22v-82.927Z" transform="translate(-2326.471 -2063)"/>
            <path id="Path_399" data-name="Path 399" class="cls-5" d="M2562.144,1716.591h-1.4v50.577h27.587V1741.21C2588.33,1726.8,2576.558,1716.591,2562.144,1716.591Z" transform="translate(-2527.024 -1716.591)"/>
            <path id="Path_400" data-name="Path 400" class="cls-5" d="M2560.742,2204.168h22.845c2.572,0,4.742-3.987,4.742-6.558v-76.369h-27.587Z" transform="translate(-2527.024 -2063)"/>
          </g>
          <path id="Path_401" data-name="Path 401" class="cls-4" d="M2332.929,1809.443H2266.52a6.914,6.914,0,0,1-6.906-6.906V1687.556a33.013,33.013,0,0,1,32.976-32.976h14.27a33.013,33.013,0,0,1,32.975,32.976v114.981A6.914,6.914,0,0,1,2332.929,1809.443ZM2292.59,1655.22a32.373,32.373,0,0,0-32.336,32.336v114.981a6.274,6.274,0,0,0,6.267,6.267h66.409a6.274,6.274,0,0,0,6.266-6.267V1687.556a32.372,32.372,0,0,0-32.336-32.336Z" transform="translate(-2259.614 -1654.58)"/>
        </g>
        <g id="Group_541" data-name="Group 541" transform="translate(60.514 123.869)">
          <g id="Group_540" data-name="Group 540" transform="translate(9.593 8.925)">
            <path id="Path_402" data-name="Path 402" class="cls-9" d="M1462.307,1705.9h-.555c-14.414,0-27.033,10.2-27.033,24.619v25.958h27.588Z" transform="translate(-1434.719 -1705.897)"/>
            <path id="Path_403" data-name="Path 403" class="cls-9" d="M1434.719,2110.546v76.369c0,2.572,3.019,6.558,5.59,6.558h22v-82.927Z" transform="translate(-1434.719 -2052.305)"/>
            <path id="Path_404" data-name="Path 404" class="cls-9" d="M1670.392,1705.9h-1.4v50.577h27.588v-25.958C1696.578,1716.1,1684.806,1705.9,1670.392,1705.9Z" transform="translate(-1635.272 -1705.897)"/>
            <path id="Path_405" data-name="Path 405" class="cls-9" d="M1668.99,2193.473h22.845c2.572,0,4.743-3.987,4.743-6.558v-76.369H1668.99Z" transform="translate(-1635.272 -2052.305)"/>
          </g>
          <path id="Path_406" data-name="Path 406" class="cls-4" d="M1441.385,1798.748h-66.409a6.914,6.914,0,0,1-6.906-6.906V1676.861a33.013,33.013,0,0,1,32.975-32.976h14.27a33.013,33.013,0,0,1,32.976,32.976v114.981A6.914,6.914,0,0,1,1441.385,1798.748Zm-40.34-154.224a32.372,32.372,0,0,0-32.336,32.336v114.981a6.274,6.274,0,0,0,6.266,6.267h66.409a6.274,6.274,0,0,0,6.266-6.267V1676.861a32.373,32.373,0,0,0-32.336-32.336Z" transform="translate(-1368.07 -1643.885)"/>
        </g>
        <path id="Path_407" data-name="Path 407" class="cls-10" d="M1200.851,1093.357c-6.586-.662-12.731-4.191-18.511-7.622-21.51-12.77-4.652-21.94,10.181-28.925a563.865,563.865,0,0,0,67.729-38.229c6.617-4.321,13.307-8.848,20.947-10.87,10.044-2.659,31.609,2.807,28.248,17.4-1.269,5.508-7.142,8.536-10.263,13.248-5.179,7.82-1.923,18.526-4.951,27.4-5.5,16.136-23.738,18.068-38.392,18.676-8.791.365-18.164-.646-26.833,1.062-8.691,1.711-16.237,7.638-25.25,7.954A21.465,21.465,0,0,1,1200.851,1093.357Z" transform="translate(-1139.806 -974.852)"/>
        <path id="Path_408" data-name="Path 408" class="cls-11" d="M1108.686,784.258l-158.842,98c-2.453,1.514-2.945,4.244-1.119,6.217h0c7.106,7.679,21.121,9.147,30.62,3.208l130.332-81.5a7.3,7.3,0,0,1,7.532.061l126.307,82.457c8.332,5.44,20.835,4.5,27.645-2.087l2.194-2.121c2.027-1.959,1.626-4.814-.9-6.393l-156.365-97.831A7.31,7.31,0,0,0,1108.686,784.258Z" transform="translate(-947.623 -783.26)"/>
      </g>
    </g>
    <g id="Group_544" data-name="Group 544" transform="translate(615.524 485.361)">
      <path id="Path_409" data-name="Path 409" class="cls-12" d="M1437.414,633.207a.153.153,0,0,0,.19-.24c-5.4-5.231-26.142-23.493-46.781-17.253-23.995,7.255-4.106,23.678,13.061,15.262C1419.018,623.557,1432.422,629.919,1437.414,633.207Z" transform="translate(-1379.73 -614.431)"/>
      <path id="Path_410" data-name="Path 410" class="cls-13" d="M1403.081,635.12c-.014.012.142-.129.379-.317s.6-.454,1.062-.762a22.678,22.678,0,0,1,4.052-2.08,27.458,27.458,0,0,1,6.162-1.608,30.506,30.506,0,0,1,3.563-.3c.608,0,1.221-.029,1.835,0l.922.031.921.07c.615.039,1.225.113,1.832.194.609.065,1.208.177,1.8.279s1.18.229,1.759.353,1.144.265,1.7.414,1.1.289,1.624.46,1.046.312,1.539.489c.989.351,1.926.675,2.768,1.031l1.215.493,1.078.484.948.425.791.389,1.5.742a.451.451,0,0,1-.39.814l-.016-.007-1.5-.694-.789-.364-.943-.394-1.072-.448-1.205-.453c-.835-.329-1.761-.621-2.737-.94-.487-.161-1-.287-1.515-.438s-1.05-.283-1.594-.407-1.095-.262-1.66-.36-1.132-.225-1.712-.3-1.16-.177-1.749-.224c-.588-.062-1.177-.119-1.769-.141l-.886-.044-.884-.007c-.589-.017-1.173.024-1.753.041a29,29,0,0,0-3.378.375,25.786,25.786,0,0,0-5.745,1.656,20.88,20.88,0,0,0-3.673,2c-.408.287-.713.526-.912.691s-.268.235-.281.247a.951.951,0,1,1-1.29-1.4Z" transform="translate(-1399.458 -627.793)"/>
    </g>
    <g id="Group_559" data-name="Group 559" transform="translate(487.191 664.879)">
      <rect id="Rectangle_138" data-name="Rectangle 138" class="cls-14" width="144.553" height="11.483" transform="translate(161.469 83.523) rotate(180)"/>
      <path id="Rectangle_139" data-name="Rectangle 139" class="cls-15" d="M0,0H8.9a0,0,0,0,1,0,0V49.984a4.2,4.2,0,0,1-4.2,4.2h0a4.7,4.7,0,0,1-4.7-4.7V0A0,0,0,0,1,0,0Z" transform="translate(161.85 124.29) rotate(180)"/>
      <path id="Rectangle_140" data-name="Rectangle 140" class="cls-16" d="M0,0H8.9a0,0,0,0,1,0,0V49.087a5.1,5.1,0,0,1-5.1,5.1h0a3.8,3.8,0,0,1-3.8-3.8V0A0,0,0,0,1,0,0Z" transform="translate(23.882 124.29) rotate(180)"/>
      <g id="Group_545" data-name="Group 545" transform="translate(38.869)">
        <path id="Path_411" data-name="Path 411" class="cls-17" d="M883.565,1969.558l35.387,23.969,30.6-127.174-8.771-4.653Z" transform="translate(-865.514 -1861.701)"/>
        <path id="Path_412" data-name="Path 412" class="cls-5" d="M1101.968,2011.445l30.237-125.653-2.61-1.385-32.671,131.022Z" transform="translate(-1048.164 -1881.139)"/>
        <path id="Path_413" data-name="Path 413" class="cls-18" d="M777.185,2579.968l-18.839,35.51a1.994,1.994,0,0,0,1.5,2.77l15.006,3.269a2.224,2.224,0,0,1,.867.4l20.945,15.839a1.956,1.956,0,0,0,2.991-.575l14.377-32.072c.319-.713-12.377-20.7-15.015-24.838a1.658,1.658,0,0,0-1.362-.767C793.674,2579.416,777.64,2579.11,777.185,2579.968Zm-1.465,22.162a3.25,3.25,0,0,1,4.432-.958c6.209,3.888,13.814,8.95,17.371,11.335a3.036,3.036,0,0,1,1.141,3.615l-3.522,9.125c-.148.383-.941.329-1.617-.111l-13.615-8.856a2.477,2.477,0,0,0-.534-.263l-8.823-3.06c-.776-.269-1.361-.923-1.162-1.3Z" transform="translate(-758.15 -2476.084)"/>
      </g>
      <g id="Group_546" data-name="Group 546" transform="translate(1.565 78.547)">
        <rect id="Rectangle_141" data-name="Rectangle 141" class="cls-19" width="4.961" height="4.961" rx="2.48" transform="translate(25.139 5.983) rotate(156.821)"/>
        <rect id="Rectangle_142" data-name="Rectangle 142" class="cls-20" width="10.791" height="81.029" transform="matrix(-0.919, 0.394, -0.394, -0.919, 61.051, 85.406)"/>
        <path id="Path_414" data-name="Path 414" class="cls-21" d="M506.944,2417.592l23.713-10.153,3.992,9.323-23.713,10.153-11.189.474-.781-1.824Z" transform="translate(-498.965 -2407.439)"/>
      </g>
      <g id="Group_555" data-name="Group 555" transform="translate(75.416 25.416)">
        <path id="Path_415" data-name="Path 415" class="cls-22" d="M1077.006,2038.569l15.424,9.709a1.822,1.822,0,0,1,.571,2.513l-62.14,98.712a1.822,1.822,0,0,1-2.513.572l-15.424-9.709a1.822,1.822,0,0,1-.572-2.513l62.14-98.712A1.822,1.822,0,0,1,1077.006,2038.569Z" transform="translate(-1012.073 -2038.289)"/>
        <path id="Path_416" data-name="Path 416" class="cls-23" d="M1097.069,2057.956l12.163,7.656a1.086,1.086,0,0,1,.351,1.495l-60.664,96.367a1.9,1.9,0,0,1-2.555.638l-10.929-6.88a1.9,1.9,0,0,1-.53-2.58l60.664-96.367A1.085,1.085,0,0,1,1097.069,2057.956Z" transform="translate(-1031.372 -2054.979)"/>
        <g id="Group_547" data-name="Group 547" transform="translate(56.961 2.474)">
          <path id="Path_417" data-name="Path 417" class="cls-24" d="M1449.412,2055.833a.573.573,0,0,0,.18.79l7.756,4.882a.573.573,0,0,0,.79-.18l.055-.088a.573.573,0,0,0-.18-.79l-7.756-4.882a.572.572,0,0,0-.79.179Z" transform="translate(-1443.351 -2055.477)"/>
          <path id="Path_418" data-name="Path 418" class="cls-25" d="M1439.149,2072.44a.625.625,0,0,0,.2.862l3.966,2.5a.625.625,0,0,0,.862-.2h0a.625.625,0,0,0-.2-.862l-3.966-2.5a.625.625,0,0,0-.862.2Z" transform="translate(-1434.559 -2069.748)"/>
          <path id="Path_419" data-name="Path 419" class="cls-26" d="M1428.741,2088.974a.625.625,0,0,0,.2.862l3.966,2.5a.625.625,0,0,0,.862-.2h0a.624.624,0,0,0-.2-.862l-3.966-2.5a.625.625,0,0,0-.862.2Z" transform="translate(-1425.649 -2083.902)"/>
          <path id="Path_420" data-name="Path 420" class="cls-27" d="M1418.333,2105.507a.625.625,0,0,0,.2.862l3.966,2.5a.624.624,0,0,0,.862-.2h0a.624.624,0,0,0-.2-.862l-3.966-2.5a.625.625,0,0,0-.862.2Z" transform="translate(-1416.739 -2098.056)"/>
          <path id="Path_421" data-name="Path 421" class="cls-28" d="M1407.925,2122.041a.625.625,0,0,0,.2.862l3.966,2.5a.625.625,0,0,0,.862-.2h0a.625.625,0,0,0-.2-.862l-3.966-2.5a.625.625,0,0,0-.862.2Z" transform="translate(-1407.829 -2112.21)"/>
        </g>
        <g id="Group_548" data-name="Group 548" transform="translate(48.805 15.43)">
          <path id="Path_422" data-name="Path 422" class="cls-29" d="M1392.746,2145.85a.573.573,0,0,0,.18.79l7.756,4.883a.573.573,0,0,0,.79-.18l.056-.088a.573.573,0,0,0-.18-.79l-7.756-4.883a.573.573,0,0,0-.79.179Z" transform="translate(-1386.685 -2145.494)"/>
          <path id="Path_423" data-name="Path 423" class="cls-30" d="M1382.483,2162.457a.625.625,0,0,0,.2.862l3.966,2.5a.625.625,0,0,0,.862-.2h0a.625.625,0,0,0-.2-.862l-3.966-2.5a.625.625,0,0,0-.862.2Z" transform="translate(-1377.893 -2159.765)"/>
          <path id="Path_424" data-name="Path 424" class="cls-31" d="M1372.075,2178.99a.625.625,0,0,0,.2.862l3.966,2.5a.625.625,0,0,0,.862-.2h0a.625.625,0,0,0-.2-.862l-3.966-2.5a.625.625,0,0,0-.862.2Z" transform="translate(-1368.983 -2173.919)"/>
          <path id="Path_425" data-name="Path 425" class="cls-32" d="M1361.667,2195.524a.625.625,0,0,0,.2.862l3.966,2.5a.625.625,0,0,0,.862-.2h0a.624.624,0,0,0-.2-.861l-3.966-2.5a.625.625,0,0,0-.862.2Z" transform="translate(-1360.073 -2188.073)"/>
          <path id="Path_426" data-name="Path 426" class="cls-33" d="M1351.259,2212.057a.625.625,0,0,0,.2.862l3.966,2.5a.625.625,0,0,0,.862-.2h0a.625.625,0,0,0-.2-.862l-3.966-2.5a.625.625,0,0,0-.862.2Z" transform="translate(-1351.163 -2202.227)"/>
        </g>
        <g id="Group_549" data-name="Group 549" transform="translate(40.649 28.169)">
          <path id="Rectangle_143" data-name="Rectangle 143" class="cls-34" d="M.625,0h0A.625.625,0,0,1,1.25.625V9.686a.625.625,0,0,1-.625.625h0A.625.625,0,0,1,0,9.685V.625A.625.625,0,0,1,.625,0Z" transform="translate(5.755 1.058) rotate(-57.809)"/>
          <path id="Path_427" data-name="Path 427" class="cls-35" d="M1325.817,2252.473a.625.625,0,0,0,.2.862l3.966,2.5a.625.625,0,0,0,.862-.2h0a.625.625,0,0,0-.2-.862l-3.966-2.5a.625.625,0,0,0-.862.2Z" transform="translate(-1321.227 -2249.565)"/>
          <path id="Path_428" data-name="Path 428" class="cls-36" d="M1315.409,2269.007a.625.625,0,0,0,.2.862l3.966,2.5a.625.625,0,0,0,.862-.2h0a.625.625,0,0,0-.2-.862l-3.966-2.5a.625.625,0,0,0-.862.2Z" transform="translate(-1312.317 -2263.719)"/>
          <path id="Path_429" data-name="Path 429" class="cls-37" d="M1305,2285.541a.625.625,0,0,0,.2.862l3.966,2.5a.625.625,0,0,0,.862-.2h0a.624.624,0,0,0-.2-.862l-3.966-2.5a.625.625,0,0,0-.862.2Z" transform="translate(-1303.407 -2277.872)"/>
          <path id="Path_430" data-name="Path 430" class="cls-38" d="M1294.593,2302.074a.625.625,0,0,0,.2.862l3.966,2.5a.625.625,0,0,0,.862-.2h0a.625.625,0,0,0-.2-.862l-3.966-2.5a.625.625,0,0,0-.862.2Z" transform="translate(-1294.497 -2292.026)"/>
        </g>
        <g id="Group_550" data-name="Group 550" transform="translate(32.493 41.342)">
          <path id="Path_431" data-name="Path 431" class="cls-39" d="M1279.414,2325.883a.573.573,0,0,0,.18.79l7.756,4.883a.573.573,0,0,0,.79-.18l.055-.088a.573.573,0,0,0-.18-.79l-7.756-4.883a.573.573,0,0,0-.79.18Z" transform="translate(-1273.354 -2325.527)"/>
          <path id="Path_432" data-name="Path 432" class="cls-40" d="M1269.151,2342.489a.625.625,0,0,0,.2.862l3.966,2.5a.625.625,0,0,0,.862-.2h0a.625.625,0,0,0-.2-.862l-3.966-2.5a.625.625,0,0,0-.862.2Z" transform="translate(-1264.561 -2339.798)"/>
          <path id="Path_433" data-name="Path 433" class="cls-41" d="M1258.743,2359.023a.625.625,0,0,0,.2.862l3.966,2.5a.625.625,0,0,0,.862-.2h0a.625.625,0,0,0-.2-.862l-3.966-2.5a.625.625,0,0,0-.862.2Z" transform="translate(-1255.651 -2353.952)"/>
          <path id="Path_434" data-name="Path 434" class="cls-42" d="M1248.335,2375.557a.625.625,0,0,0,.2.862l3.966,2.5a.625.625,0,0,0,.862-.2h0a.625.625,0,0,0-.2-.862l-3.966-2.5a.625.625,0,0,0-.862.2Z" transform="translate(-1246.741 -2368.106)"/>
          <path id="Path_435" data-name="Path 435" class="cls-43" d="M1237.927,2392.09a.625.625,0,0,0,.2.862l3.966,2.5a.625.625,0,0,0,.862-.2h0a.625.625,0,0,0-.2-.862l-3.966-2.5a.625.625,0,0,0-.862.2Z" transform="translate(-1237.831 -2382.26)"/>
        </g>
        <g id="Group_551" data-name="Group 551" transform="translate(24.337 54.081)">
          <rect id="Rectangle_144" data-name="Rectangle 144" class="cls-44" width="1.25" height="10.31" rx="0.625" transform="matrix(0.533, -0.846, 0.846, 0.533, 5.755, 1.058)"/>
          <path id="Path_436" data-name="Path 436" class="cls-45" d="M1212.485,2432.506a.625.625,0,0,0,.2.862l3.966,2.5a.625.625,0,0,0,.862-.2h0a.625.625,0,0,0-.2-.862l-3.966-2.5a.625.625,0,0,0-.862.2Z" transform="translate(-1207.895 -2429.597)"/>
          <path id="Path_437" data-name="Path 437" class="cls-46" d="M1202.077,2449.04a.625.625,0,0,0,.2.862l3.966,2.5a.625.625,0,0,0,.862-.2h0a.625.625,0,0,0-.2-.862l-3.966-2.5a.625.625,0,0,0-.862.2Z" transform="translate(-1198.985 -2443.751)"/>
          <path id="Path_438" data-name="Path 438" class="cls-47" d="M1191.669,2465.573a.625.625,0,0,0,.2.862l3.966,2.5a.625.625,0,0,0,.862-.2h0a.625.625,0,0,0-.2-.862l-3.966-2.5a.625.625,0,0,0-.862.2Z" transform="translate(-1190.075 -2457.906)"/>
          <path id="Path_439" data-name="Path 439" class="cls-48" d="M1181.261,2482.107a.625.625,0,0,0,.2.862l3.966,2.5a.625.625,0,0,0,.862-.2h0a.625.625,0,0,0-.2-.862l-3.966-2.5a.625.625,0,0,0-.862.2Z" transform="translate(-1181.165 -2472.059)"/>
        </g>
        <g id="Group_552" data-name="Group 552" transform="translate(16.181 67.254)">
          <path id="Path_440" data-name="Path 440" class="cls-49" d="M1166.082,2505.916a.573.573,0,0,0,.18.79l7.756,4.882a.572.572,0,0,0,.79-.179l.056-.088a.573.573,0,0,0-.18-.79l-7.756-4.882a.573.573,0,0,0-.79.179Z" transform="translate(-1160.021 -2505.56)"/>
          <path id="Path_441" data-name="Path 441" class="cls-50" d="M1155.819,2522.522a.625.625,0,0,0,.2.862l3.966,2.5a.625.625,0,0,0,.862-.2h0a.625.625,0,0,0-.2-.862l-3.966-2.5a.625.625,0,0,0-.862.2Z" transform="translate(-1151.229 -2519.831)"/>
          <path id="Path_442" data-name="Path 442" class="cls-51" d="M1145.411,2539.056a.625.625,0,0,0,.2.862l3.966,2.5a.625.625,0,0,0,.862-.2h0a.625.625,0,0,0-.2-.862l-3.966-2.5a.625.625,0,0,0-.862.2Z" transform="translate(-1142.319 -2533.985)"/>
          <path id="Path_443" data-name="Path 443" class="cls-52" d="M1135,2555.59a.625.625,0,0,0,.2.862l3.966,2.5a.625.625,0,0,0,.862-.2h0a.625.625,0,0,0-.2-.862l-3.966-2.5a.625.625,0,0,0-.862.2Z" transform="translate(-1133.409 -2548.139)"/>
          <path id="Path_444" data-name="Path 444" class="cls-53" d="M1124.595,2572.124a.625.625,0,0,0,.2.862l3.966,2.5a.625.625,0,0,0,.862-.2h0a.625.625,0,0,0-.2-.862l-3.966-2.5a.625.625,0,0,0-.862.2Z" transform="translate(-1124.499 -2562.293)"/>
        </g>
        <g id="Group_553" data-name="Group 553" transform="translate(8.025 79.993)">
          <path id="Rectangle_145" data-name="Rectangle 145" class="cls-54" d="M.625,0h0A.625.625,0,0,1,1.25.625V9.685a.625.625,0,0,1-.625.625h0A.625.625,0,0,1,0,9.685V.625A.625.625,0,0,1,.625,0Z" transform="matrix(0.533, -0.846, 0.846, 0.533, 5.755, 1.058)"/>
          <path id="Path_445" data-name="Path 445" class="cls-55" d="M1099.153,2612.539a.624.624,0,0,0,.2.862l3.966,2.5a.625.625,0,0,0,.862-.2h0a.625.625,0,0,0-.2-.862l-3.966-2.5a.625.625,0,0,0-.862.2Z" transform="translate(-1094.563 -2609.631)"/>
          <path id="Path_446" data-name="Path 446" class="cls-56" d="M1088.745,2629.073a.625.625,0,0,0,.2.862l3.966,2.5a.625.625,0,0,0,.862-.2h0a.625.625,0,0,0-.2-.862l-3.966-2.5a.625.625,0,0,0-.862.2Z" transform="translate(-1085.653 -2623.785)"/>
          <path id="Path_447" data-name="Path 447" class="cls-57" d="M1078.337,2645.606a.625.625,0,0,0,.2.862l3.966,2.5a.625.625,0,0,0,.862-.2h0a.625.625,0,0,0-.2-.862l-3.966-2.5a.625.625,0,0,0-.862.2Z" transform="translate(-1076.743 -2637.938)"/>
          <path id="Path_448" data-name="Path 448" class="cls-58" d="M1067.929,2662.14a.625.625,0,0,0,.2.862l3.966,2.5a.625.625,0,0,0,.862-.2h0a.625.625,0,0,0-.2-.862l-3.966-2.5a.625.625,0,0,0-.862.2Z" transform="translate(-1067.833 -2652.092)"/>
        </g>
        <g id="Group_554" data-name="Group 554" transform="translate(1.368 93.166)">
          <path id="Path_449" data-name="Path 449" class="cls-59" d="M1052.75,2685.949a.573.573,0,0,0,.18.79l7.756,4.883a.573.573,0,0,0,.79-.18l.055-.088a.573.573,0,0,0-.18-.79l-7.756-4.882a.573.573,0,0,0-.79.179Z" transform="translate(-1048.188 -2685.593)"/>
          <path id="Path_450" data-name="Path 450" class="cls-60" d="M1042.487,2702.556a.625.625,0,0,0,.2.862l3.966,2.5a.625.625,0,0,0,.862-.2h0a.625.625,0,0,0-.2-.862l-3.966-2.5a.624.624,0,0,0-.862.2Z" transform="translate(-1039.395 -2699.864)"/>
          <path id="Path_451" data-name="Path 451" class="cls-61" d="M1032.079,2719.089a.625.625,0,0,0,.2.862l3.966,2.5a.625.625,0,0,0,.862-.2h0a.625.625,0,0,0-.2-.862l-3.966-2.5a.625.625,0,0,0-.862.2Z" transform="translate(-1030.484 -2714.018)"/>
          <path id="Path_452" data-name="Path 452" class="cls-62" d="M1021.671,2735.623a.625.625,0,0,0,.2.862l3.966,2.5a.625.625,0,0,0,.862-.2h0a.625.625,0,0,0-.2-.862l-3.966-2.5a.625.625,0,0,0-.862.2Z" transform="translate(-1021.575 -2728.172)"/>
        </g>
      </g>
      <g id="Group_556" data-name="Group 556" transform="translate(101.741 90.325)">
        <path id="Path_453" data-name="Path 453" class="cls-63" d="M1318.7,2653.932l-2.053,44.867a2.8,2.8,0,0,0,2.369,2.835l19.685,3.644c3.462.641,6.414-2.44,5.377-5.612l-9.316-28.475a7.08,7.08,0,0,1,.449-5.465,57.565,57.565,0,0,1,7.7-14.937Z" transform="translate(-1299.136 -2627.542)"/>
        <path id="Path_454" data-name="Path 454" class="cls-64" d="M1447.532,2695.83h0a1.114,1.114,0,0,0-1.708.372l-2.518,5.144a1.114,1.114,0,0,0,.443,1.454l.366.212a1.114,1.114,0,0,0,1.591-.549l2.152-5.356A1.114,1.114,0,0,0,1447.532,2695.83Z" transform="translate(-1407.467 -2665.883)"/>
        <rect id="Rectangle_146" data-name="Rectangle 146" class="cls-65" width="14.185" height="0.984" rx="0.492" transform="translate(111.335 7.424) rotate(177.253)"/>
        <path id="Path_455" data-name="Path 455" class="cls-66" d="M1812.313,2512.214l4.448,2.638a1.127,1.127,0,0,1,.551.916l.046.964a.992.992,0,0,1-.285.745l-4.229,4.288a1.221,1.221,0,0,1-.812.363l-8.156.391-.483-10.06,8.3-.4A1.111,1.111,0,0,1,1812.313,2512.214Z" transform="translate(-1715.826 -2508.779)"/>
        <rect id="Rectangle_147" data-name="Rectangle 147" class="cls-67" width="8.642" height="10.072" transform="matrix(-0.999, 0.048, -0.048, -0.999, 86.636, 13.744)"/>
        <path id="Rectangle_148" data-name="Rectangle 148" class="cls-68" d="M6.4,0H9.742a0,0,0,0,1,0,0V12.5a0,0,0,0,1,0,0H6.1A6.1,6.1,0,0,1,0,6.4v0A6.4,6.4,0,0,1,6.4,0Z" transform="translate(82.924 15.075) rotate(177.253)"/>
        <path id="Rectangle_149" data-name="Rectangle 149" class="cls-69" d="M9.742,0h0a0,0,0,0,1,0,0V19.214a0,0,0,0,1,0,0H9.278A9.278,9.278,0,0,1,0,9.936V9.742A9.742,9.742,0,0,1,9.742,0Z" transform="translate(76.829 19.192) rotate(177.253)"/>
        <path id="Path_456" data-name="Path 456" class="cls-70" d="M1208.006,2518l56.338-6.171-1-20.81-56.624.2C1189.695,2493.729,1192.1,2517.682,1208.006,2518Z" transform="translate(-1194.976 -2490.764)"/>
        <rect id="Rectangle_150" data-name="Rectangle 150" class="cls-71" width="9.114" height="13.065" rx="4.557" transform="translate(94.245 14.953) rotate(177.253)"/>
      </g>
      <g id="Group_558" data-name="Group 558" transform="translate(44.974 66.048)">
        <path id="Path_457" data-name="Path 457" class="cls-72" d="M817.752,2423.362l2.963-.314-3.618-31.138-2.339.248Z" transform="translate(-812.714 -2381.645)"/>
        <g id="Group_557" data-name="Group 557" transform="translate(2.077 33.595)">
          <path id="Path_458" data-name="Path 458" class="cls-73" d="M816.382,2554.488l4.467-.474a1.553,1.553,0,0,1,1.7,1.331l3.738,26.876a3.626,3.626,0,0,1-3.209,4.105l-2.1.223a3.626,3.626,0,0,1-4-3.341L815,2556.146A1.553,1.553,0,0,1,816.382,2554.488Z" transform="translate(-814.993 -2554.005)"/>
          <rect id="Rectangle_151" data-name="Rectangle 151" class="cls-5" width="1.135" height="28.288" transform="translate(9.339 29.806) rotate(173.944)"/>
          <rect id="Rectangle_152" data-name="Rectangle 152" class="cls-5" width="1.135" height="28.288" transform="translate(7.286 30.024) rotate(173.946)"/>
          <rect id="Rectangle_153" data-name="Rectangle 153" class="cls-5" width="1.135" height="28.288" transform="translate(5.234 30.242) rotate(173.945)"/>
        </g>
        <path id="Path_459" data-name="Path 459" class="cls-74" d="M801.948,2320.756l1.473-.156a.806.806,0,0,1,.861.454l1.527,4.116a.569.569,0,0,1,.033.25l-.525,5.607a.8.8,0,0,1-.75.653l-1.556.165a.793.793,0,0,1-.875-.495l-1.549-5.379a.567.567,0,0,1-.016-.239l.63-4.352A.806.806,0,0,1,801.948,2320.756Z" transform="translate(-800.565 -2320.594)"/>
      </g>
      <rect id="Rectangle_154" data-name="Rectangle 154" class="cls-75" width="159.421" height="68.992" rx="31.425" transform="translate(167.613 191.706) rotate(180)"/>
      <rect id="Rectangle_155" data-name="Rectangle 155" class="cls-76" width="174.091" height="18.26" rx="5.143" transform="translate(174.091 187.371) rotate(180)"/>
      <rect id="Rectangle_156" data-name="Rectangle 156" class="cls-77" width="174.091" height="20.146" rx="10.073" transform="translate(174.091 166.382) rotate(180)"/>
      <rect id="Rectangle_157" data-name="Rectangle 157" class="cls-78" width="174.091" height="20.517" rx="10.258" transform="translate(174.091 143.231) rotate(180)"/>
    </g>
    <g id="Group_560" data-name="Group 560" transform="translate(769.516 714.078)">
      <path id="Path_460" data-name="Path 460" class="cls-79" d="M2466.331,2361.807a1.14,1.14,0,0,0,1.14-1.14V2224.415a1.14,1.14,0,1,0-2.28,0v136.252A1.14,1.14,0,0,0,2466.331,2361.807Z" transform="translate(-2462.954 -2220.433)"/>
      <path id="Path_461" data-name="Path 461" class="cls-80" d="M2680.956,2361.807a1.14,1.14,0,0,0,1.14-1.14V2224.415a1.14,1.14,0,1,0-2.28,0v136.252A1.14,1.14,0,0,0,2680.956,2361.807Z" transform="translate(-2646.689 -2220.433)"/>
      <path id="Path_462" data-name="Path 462" class="cls-81" d="M2861.547,2362.67a1.141,1.141,0,0,0,1.049-1.587L2804.3,2223.968a1.14,1.14,0,0,0-2.1.893l58.292,137.116A1.14,1.14,0,0,0,2861.547,2362.67Z" transform="translate(-2751.385 -2220.432)"/>
      <path id="Path_463" data-name="Path 463" class="cls-82" d="M2611.382,2362.67a1.141,1.141,0,0,0,1.049-1.587l-58.292-137.116a1.14,1.14,0,0,0-2.1.893l58.292,137.116A1.14,1.14,0,0,0,2611.382,2362.67Z" transform="translate(-2537.226 -2220.432)"/>
      <rect id="Rectangle_158" data-name="Rectangle 158" class="cls-83" width="85.688" height="5.236" rx="2.618" transform="translate(85.688 5.236) rotate(180)"/>
      <path id="Path_464" data-name="Path 464" class="cls-84" d="M2614.278,2371.224h36.113a1.14,1.14,0,0,0,0-2.28h-36.113a1.14,1.14,0,0,0,0,2.28Z" transform="translate(-2589.608 -2345.136)"/>
      <rect id="Rectangle_159" data-name="Rectangle 159" class="cls-85" width="36.113" height="2.28" transform="translate(35.751 49.741)"/>
      <rect id="Rectangle_160" data-name="Rectangle 160" class="cls-86" width="36.113" height="2.28" transform="translate(46.478 75.673)"/>
      <path id="Path_465" data-name="Path 465" class="cls-87" d="M2843.953,2911.745h36.112a1.14,1.14,0,1,0,0-2.28h-36.112a1.14,1.14,0,1,0,0,2.28Z" transform="translate(-2786.226 -2807.861)"/>
      <path id="Path_466" data-name="Path 466" class="cls-88" d="M2919.518,3091.921h36.112a1.14,1.14,0,1,0,0-2.28h-36.112a1.14,1.14,0,1,0,0,2.28Z" transform="translate(-2850.915 -2962.104)"/>
    </g>
    <g id="Group_561" data-name="Group 561" transform="translate(676.492 780.718)">
      <path id="Path_467" data-name="Path 467" class="cls-89" d="M1848.482,2774.375a61.932,61.932,0,0,1-39.726.4,7.859,7.859,0,0,1-5.426-7.471v-62.678a116.675,116.675,0,0,0,49.573,0v63.648A6.443,6.443,0,0,1,1848.482,2774.375Z" transform="translate(-1803.33 -2699.142)"/>
      <ellipse id="Ellipse_2" data-name="Ellipse 2" class="cls-90" cx="24.787" cy="4.982" rx="24.787" ry="4.982"/>
      <path id="Path_468" data-name="Path 468" class="cls-91" d="M1852.9,2891.221a73.416,73.416,0,0,1-49.573,0v-25c16.673,4.111,33.205,4.32,49.573,0Z" transform="translate(-1803.33 -2837.479)"/>
      <path id="Path_469" data-name="Path 469" class="cls-92" d="M1820.758,2703.031a4.128,4.128,0,0,0,4.79,2.832c1.4-.344,2.594-1.439,4.034-1.464,1.635-.028,2.941,1.321,3.895,2.65a26.282,26.282,0,0,1,3.878,7.979,6.527,6.527,0,0,0,1.188,2.69c1.429,1.563,4.13,1.063,5.718-.339s2.45-3.426,3.63-5.185,2.991-3.4,5.106-3.272c.708.043,1.394.285,2.1.315a3.642,3.642,0,0,0,3.545-2.554,6.067,6.067,0,0,1,.413-1.379c.716-1.252,2.61-1.374,3.59-2.39.621-.644.828-1.581,1.553-2.214.274-.24,2.154-1.016,2.193-1.135.331-1.01-.72-1.923-1.691-2.355-5.7-2.538-12.213-.008-18.392.857-6.069.849-11.878-.535-17.889-.482C1825.1,2697.613,1819.521,2698.411,1820.758,2703.031Z" transform="translate(-1818.099 -2691.853)"/>
      <ellipse id="Ellipse_3" data-name="Ellipse 3" class="cls-5" cx="24.787" cy="4.982" rx="24.787" ry="4.982" transform="translate(0.287 0.142)"/>
      <ellipse id="Ellipse_4" data-name="Ellipse 4" class="cls-93" cx="20.405" cy="3.013" rx="20.405" ry="3.013" transform="translate(4.009 2.111)"/>
    </g>
    <g id="Group_565" data-name="Group 565" transform="translate(672.076 463.661)">
      <path id="Path_470" data-name="Path 470" class="cls-94" d="M2885.036,1454.521a28.073,28.073,0,0,0,6.526,4.771,54.2,54.2,0,0,1-11.929,10.608l-1.475,3.311-4.728-5.666S2881.914,1463.323,2885.036,1454.521Z" transform="translate(-2714.996 -1311.908)"/>
      <g id="Group_562" data-name="Group 562" transform="translate(0 0)">
        <path id="Path_471" data-name="Path 471" class="cls-95" d="M2339.921,1141.5a5.084,5.084,0,0,0,7.262.512l6.155-5.481a5.084,5.084,0,0,0,.329-7.273l-95.321-100.943-7.694,6.852Zm-8.541-16.745c-5.115-5.744-7.776-11.724-5.942-13.356s7.466,1.7,12.581,7.444,7.776,11.724,5.943,13.357S2336.495,1130.5,2331.379,1124.751Z" transform="translate(-2181.853 -947.043)"/>
        <path id="Path_472" data-name="Path 472" class="cls-96" d="M2250.651,1035.165l7.694-6.852,28.361,30.271-9.259,8.246Z" transform="translate(-2181.853 -947.043)"/>
        <path id="Path_473" data-name="Path 473" class="cls-97" d="M2040,886.991l58.83-52.391a1.506,1.506,0,0,0,.123-2.126l-5.1-5.729-61.079,54.394,5.1,5.729A1.506,1.506,0,0,0,2040,886.991Z" transform="translate(-1995.333 -774.487)"/>
        <path id="Path_474" data-name="Path 474" class="cls-98" d="M1810.088,570.314l61.079-54.394c-15.571-16.909-28.691-34.183-36.443-52.258l-11.065,9.854-1.588,12.921-9.256-3.264-14.261,12.7-2.242,11.322-6.512-3.526-17.151,15.274C1776.228,535.777,1792.23,553.015,1810.088,570.314Z" transform="translate(-1772.649 -463.661)"/>
        <path id="Path_475" data-name="Path 475" class="cls-13" d="M1860.194,906.393a191.866,191.866,0,0,1-32.459-40.632l.415-.232a191.379,191.379,0,0,0,32.37,40.517Z" transform="translate(-1819.806 -807.689)"/>
        <path id="Path_476" data-name="Path 476" class="cls-13" d="M1887.295,882.269c-17.4-15.349-31.741-40.9-31.884-41.155l.415-.231c.143.255,14.443,25.735,31.783,41.03Z" transform="translate(-1843.499 -786.59)"/>
        <path id="Path_477" data-name="Path 477" class="cls-13" d="M2016.586,767.232c-19.831-14.786-31.135-41.515-31.247-41.783l.439-.183c.111.267,11.367,26.878,31.092,41.584Z" transform="translate(-1954.727 -687.614)"/>
        <path id="Path_478" data-name="Path 478" class="cls-13" d="M2048.882,738.455c-18.954-14-31.24-41.4-31.362-41.675l.435-.193c.121.274,12.358,27.566,31.209,41.486Z" transform="translate(-1982.276 -663.062)"/>
        <path id="Path_479" data-name="Path 479" class="cls-13" d="M2200.273,615.439a138.555,138.555,0,0,1-27.546-43.055l.449-.159a138.053,138.053,0,0,0,27.444,42.888Z" transform="translate(-2115.144 -556.6)"/>
      </g>
      <path id="Path_480" data-name="Path 480" class="cls-99" d="M2778.275,2140.79a1.172,1.172,0,0,1,.031-.307c1.531-6.071,9.132-9.853,9.132-9.853l3.012.236c1.732,5.351,1.509,8.633,1.231,10.094-.008.041-.02.08-.031.12A71.457,71.457,0,0,1,2778.275,2140.79Z" transform="translate(-2633.536 -1890.705)"/>
      <path id="Path_481" data-name="Path 481" class="cls-100" d="M2791.651,2201.508a1.306,1.306,0,0,1-.956.965c-3.534.743-9.151.145-11.51-.163a1.1,1.1,0,0,1-.909-1.093A71.462,71.462,0,0,0,2791.651,2201.508Z" transform="translate(-2633.537 -1951.133)"/>
      <path id="Path_482" data-name="Path 482" class="cls-101" d="M2840.78,2101.1l-1.276,6.141a1,1,0,0,1-.858.826,8.517,8.517,0,0,1-1.976-.031,1.263,1.263,0,0,1-1-1.483l.887-5.452Z" transform="translate(-2682.655 -1865.428)"/>
      <path id="Path_483" data-name="Path 483" class="cls-102" d="M2606.047,2197.761a17.982,17.982,0,0,0,5.936-.848c0,.331,0,.667-.011,1.016a.657.657,0,0,1-.627.668l-18.263-.118a.834.834,0,0,1-.671-1.214C2594.807,2197.463,2600.906,2197.905,2606.047,2197.761Z" transform="translate(-2474.352 -1947.448)"/>
      <path id="Path_484" data-name="Path 484" class="cls-103" d="M2592.914,2146.134a.855.855,0,0,1,.073-.138c1.613-2.254,5.721-6.741,13.838-8.688l3.894-.123s1.734,3.014,1.767,8.6a17.985,17.985,0,0,1-5.936.848C2601.408,2146.774,2595.309,2146.331,2592.914,2146.134Z" transform="translate(-2474.854 -1896.317)"/>
      <path id="Path_485" data-name="Path 485" class="cls-104" d="M2691.622,2090.564c-.043.29-.577,4.7-.784,6.412a.847.847,0,0,1-.715.765,8.924,8.924,0,0,1-2.675-.041,1.152,1.152,0,0,1-.873-1.156v-6.925Z" transform="translate(-2555.036 -1855.598)"/>
      <path id="Path_486" data-name="Path 486" class="cls-105" d="M2688.474,1536.8a346.729,346.729,0,0,0-9.223,80.612,1.739,1.739,0,0,0,1.38,1.695,20.264,20.264,0,0,0,4.354.5,1.613,1.613,0,0,0,1.537-1.347c1.317-7.723,8.875-51.231,13.181-58.295,0,0,2.833,38.75,1.927,58.854a.953.953,0,0,0,.841.991,16,16,0,0,0,3.5-.01,1.275,1.275,0,0,0,1.136-1.083c.938-6.536,6.337-45.443,6.108-73.47-.013-1.58-4.18-8.453-4.18-8.453Z" transform="translate(-2548.763 -1382.348)"/>
      <path id="Path_487" data-name="Path 487" class="cls-106" d="M2652.586,1144.039a39.073,39.073,0,0,0,3.977-6.069,28.228,28.228,0,0,0,3.191-9.5c10.55,1.834,26.636,3.919,33.441,4.776a9.088,9.088,0,0,1,5.743,3.083c5.831,6.748,18.627,25.224,3.566,43.84a28.06,28.06,0,0,1-6.526-4.771c1.666-4.7,1.8-10.7-1.689-18.06a17.246,17.246,0,0,1-.446,1.729,107.113,107.113,0,0,0-5.059,30.861.966.966,0,0,1-.605.9c-6.335,2.538-18.528,1.028-22.621.418a1.377,1.377,0,0,1-1.152-1.562c2.009-14.554-8.3-38.5-11.024-44.493A3.984,3.984,0,0,0,2652.586,1144.039Z" transform="translate(-2525.938 -1032.782)"/>
      <path id="Path_488" data-name="Path 488" class="cls-107" d="M2793.837,1062.283l1.221,12.473s-7.017,2.113-12.12-1.488l3.588-11.336Z" transform="translate(-2637.528 -975.824)"/>
      <path id="Path_489" data-name="Path 489" class="cls-108" d="M2942.808,1228.873c2.553-6.987,1.627-15.424,1.617-15.508l-.7.08c.009.083.916,8.358-1.579,15.185Z" transform="translate(-2773.819 -1105.461)"/>
      <path id="Path_490" data-name="Path 490" class="cls-109" d="M2821.652,1648.235a.354.354,0,0,0,.343-.265c.779-3,6.611-6.305,6.67-6.339a.354.354,0,1,0-.347-.618c-.25.141-6.155,3.483-7.009,6.778a.354.354,0,0,0,.343.443Z" transform="translate(-2670.367 -1471.52)"/>
      <g id="Group_563" data-name="Group 563" transform="translate(80.126 95.618)">
        <path id="Path_491" data-name="Path 491" class="cls-110" d="M2447.733,1144.23c13.214,1.983,20.645-7.509,27.063-12.567a16.367,16.367,0,0,1,17.1-2.18l-9.889,17.151c-13.494,12.723-27.33,9.9-36.052,5.775A16.822,16.822,0,0,1,2447.733,1144.23Z" transform="translate(-2429.162 -1128.002)"/>
        <path id="Path_492" data-name="Path 492" class="cls-111" d="M2329.614,1163.674l4.12,5.569a38.342,38.342,0,0,0,14.19,5.525,16.819,16.819,0,0,0-1.778,8.179,40.457,40.457,0,0,1-9.033-5.775C2327.186,1171.253,2329.614,1163.674,2329.614,1163.674Z" transform="translate(-2329.352 -1158.54)"/>
      </g>
      <g id="Group_564" data-name="Group 564" transform="translate(141.642 68.219)">
        <path id="Path_493" data-name="Path 493" class="cls-112" d="M2761.446,987.567s-5.306,9.988-4.626,14.023,7.256,3.745,13,.468l4.013-10.785Z" transform="translate(-2756.76 -980.381)"/>
        <path id="Path_494" data-name="Path 494" class="cls-113" d="M2781.837,954.019a.412.412,0,0,1-.18-.6,10.739,10.739,0,0,0,1.476-3.134s.954-.611-2.428-1.42-8.424-2.066-9.484-4.944c-1.033-2.806,4.51-6.449,8.842-.826.165.214-2.34-3.2-2.176-3.41.71-.924,2.578-2.843,5.169-1.68a3.893,3.893,0,0,1,2.666,3.762.409.409,0,0,0,.485.419,4.747,4.747,0,0,1,5.543,2.584c1.132,2.487.4,3.895-.273,4.583a.41.41,0,0,0,.176.681c.806.247.535-.146.431,1.742-.144,2.611-1.751,3.458-2.583,3.339a.411.411,0,0,0-.365.129c-.713.789-3.923,4.137-7.4,4.541a.415.415,0,0,1-.435-.549l1.5-4.371a.414.414,0,0,0-.224-.513Z" transform="translate(-2769.032 -937.638)"/>
        <path id="Path_495" data-name="Path 495" class="cls-114" d="M2834.57,1048.126s3.778-2.592,4.054-.409-3.4,3.162-5.224,2.348Z" transform="translate(-2822.369 -1031.125)"/>
      </g>
      <path id="Path_496" data-name="Path 496" class="cls-115" d="M2756.76,930.463l22.413,16.785-.383-1.523s9.129-9.63.128-17.295-19.278,1.4-19.278,1.4Z" transform="translate(-2615.118 -858.903)"/>
    </g>
  </g>
</svg>
