<svg id="Group_128" data-name="Group 128" xmlns="http://www.w3.org/2000/svg" xmlns:xlink="http://www.w3.org/1999/xlink" width="2475" height="1650" viewBox="0 0 2475 1650">
  <defs>
    <linearGradient id="linear-gradient" y1="0.5" x2="1" y2="0.5" gradientUnits="objectBoundingBox">
      <stop offset="0" stop-color="#dae3fe"/>
      <stop offset="1" stop-color="#e9effd"/>
    </linearGradient>
    <linearGradient id="linear-gradient-2" x1="1.367" y1="1.567" x2="0.115" y2="0.079" gradientUnits="objectBoundingBox">
      <stop offset="0" stop-color="#4042e2"/>
      <stop offset="1" stop-color="#4f52ff"/>
    </linearGradient>
    <linearGradient id="linear-gradient-3" x1="0.644" y1="-14.399" x2="0.242" y2="27.067" xlink:href="#linear-gradient-2"/>
    <linearGradient id="linear-gradient-5" x1="0.555" y1="-0.887" x2="0.474" y2="1.169" xlink:href="#linear-gradient-2"/>
    <linearGradient id="linear-gradient-6" x1="0.554" y1="-0.883" x2="0.474" y2="1.173" xlink:href="#linear-gradient-2"/>
    <linearGradient id="linear-gradient-7" x1="-1.114" y1="1.955" x2="1.474" y2="-0.342" xlink:href="#linear-gradient-2"/>
    <linearGradient id="linear-gradient-8" x1="0" y1="0.5" x2="1" y2="0.5" xlink:href="#linear-gradient-2"/>
    <linearGradient id="linear-gradient-10" x1="0.775" y1="-0.47" x2="0.228" y2="1.46" xlink:href="#linear-gradient-2"/>
    <linearGradient id="linear-gradient-11" x1="0.782" y1="-0.497" x2="0.236" y2="1.433" xlink:href="#linear-gradient-2"/>
    <linearGradient id="linear-gradient-12" x1="0.494" y1="-4.729" x2="0.502" y2="1.961" xlink:href="#linear-gradient-2"/>
    <linearGradient id="linear-gradient-13" x1="0.496" y1="0.228" x2="0.556" y2="5.452" xlink:href="#linear-gradient-2"/>
    <linearGradient id="linear-gradient-14" x1="0.304" y1="-0.003" x2="0.731" y2="1.102" xlink:href="#linear-gradient-2"/>
    <linearGradient id="linear-gradient-15" x1="0.773" y1="-0.485" x2="-0.033" y2="3.098" xlink:href="#linear-gradient-2"/>
    <linearGradient id="linear-gradient-16" x1="1.048" y1="-0.987" x2="0.243" y2="1.198" xlink:href="#linear-gradient-2"/>
    <linearGradient id="linear-gradient-17" x1="0.704" y1="-0.408" x2="-0.101" y2="3.175" xlink:href="#linear-gradient-2"/>
    <linearGradient id="linear-gradient-18" x1="1.016" y1="-0.939" x2="0.211" y2="1.247" xlink:href="#linear-gradient-2"/>
    <linearGradient id="linear-gradient-19" x1="1.509" y1="-0.846" x2="-0.164" y2="1.723" xlink:href="#linear-gradient-2"/>
    <linearGradient id="linear-gradient-20" x1="2.242" y1="-1.132" x2="0.569" y2="0.435" xlink:href="#linear-gradient-2"/>
    <linearGradient id="linear-gradient-21" x1="1.254" y1="-0.658" x2="-0.419" y2="1.911" xlink:href="#linear-gradient-2"/>
    <linearGradient id="linear-gradient-22" x1="2.074" y1="-1.007" x2="0.401" y2="0.56" xlink:href="#linear-gradient-2"/>
    <linearGradient id="linear-gradient-24" x1="-0.171" y1="-9.602" x2="0.607" y2="2.117" xlink:href="#linear-gradient-2"/>
    <linearGradient id="linear-gradient-25" x1="0.5" y1="-1.622" x2="0.5" y2="-0.673" gradientUnits="objectBoundingBox">
      <stop offset="0" stop-color="#09005d"/>
      <stop offset="1" stop-color="#1a0f91"/>
    </linearGradient>
    <linearGradient id="linear-gradient-26" x1="53.916" y1="0.5" x2="54.916" y2="0.5" xlink:href="#linear-gradient-2"/>
    <linearGradient id="linear-gradient-27" x1="55.48" y1="0.5" x2="56.48" y2="0.5" xlink:href="#linear-gradient-25"/>
    <linearGradient id="linear-gradient-28" x1="191.417" y1="0.5" x2="192.418" y2="0.5" gradientUnits="objectBoundingBox">
      <stop offset="0" stop-color="#ff928e"/>
      <stop offset="1" stop-color="#feb3b1"/>
    </linearGradient>
    <linearGradient id="linear-gradient-29" x1="140.693" y1="0.5" x2="141.693" y2="0.5" xlink:href="#linear-gradient-2"/>
    <linearGradient id="linear-gradient-30" x1="95.853" y1="0.5" x2="96.853" y2="0.5" xlink:href="#linear-gradient-25"/>
    <linearGradient id="linear-gradient-31" x1="160.167" y1="0.5" x2="161.167" y2="0.5" xlink:href="#linear-gradient-28"/>
    <linearGradient id="linear-gradient-32" x1="0.106" y1="1.477" x2="0.909" y2="0.049" xlink:href="#linear-gradient-25"/>
    <linearGradient id="linear-gradient-33" x1="0.307" y1="0.136" x2="1.598" y2="2.897" gradientUnits="objectBoundingBox">
      <stop offset="0" stop-color="#fe7062"/>
      <stop offset="1" stop-color="#ff928e"/>
    </linearGradient>
    <linearGradient id="linear-gradient-34" x1="1.447" y1="-8.726" x2="0.657" y2="-1.027" xlink:href="#linear-gradient-2"/>
    <linearGradient id="linear-gradient-35" x1="108.863" y1="0.1" x2="106.474" y2="1.142" xlink:href="#linear-gradient-28"/>
    <linearGradient id="linear-gradient-36" x1="0.362" y1="0.379" x2="3.211" y2="5.181" xlink:href="#linear-gradient-33"/>
    <linearGradient id="linear-gradient-37" x1="-0.147" y1="-0.345" x2="3.667" y2="5.294" xlink:href="#linear-gradient-33"/>
    <linearGradient id="linear-gradient-38" x1="57.128" y1="0.5" x2="58.128" y2="0.5" xlink:href="#linear-gradient-28"/>
    <linearGradient id="linear-gradient-39" x1="77.566" y1="-0.004" x2="77.551" y2="1.888" xlink:href="#linear-gradient-28"/>
    <linearGradient id="linear-gradient-40" x1="10.91" y1="0.5" x2="11.91" y2="0.5" xlink:href="#linear-gradient-25"/>
    <linearGradient id="linear-gradient-41" x1="11.885" y1="0.5" x2="12.885" y2="0.5" xlink:href="#linear-gradient"/>
    <linearGradient id="linear-gradient-42" x1="10.681" y1="0.5" x2="11.681" y2="0.5" xlink:href="#linear-gradient-25"/>
    <linearGradient id="linear-gradient-43" x1="77.288" y1="-1.222" x2="75.595" y2="3.818" xlink:href="#linear-gradient-28"/>
    <linearGradient id="linear-gradient-44" x1="159.531" y1="0.5" x2="160.531" y2="0.5" xlink:href="#linear-gradient-28"/>
    <linearGradient id="linear-gradient-45" x1="0.381" y1="-0.455" x2="0.543" y2="0.855" xlink:href="#linear-gradient-28"/>
    <linearGradient id="linear-gradient-46" x1="0.281" y1="0.154" x2="1.01" y2="1.105" xlink:href="#linear-gradient-25"/>
    <linearGradient id="linear-gradient-47" x1="0.016" y1="-2.674" x2="0.677" y2="1.603" xlink:href="#linear-gradient-28"/>
    <linearGradient id="linear-gradient-48" x1="0" y1="0.5" x2="1" y2="0.5" xlink:href="#linear-gradient-33"/>
    <linearGradient id="linear-gradient-49" x1="2.664" y1="0.084" x2="-1.361" y2="0.948" xlink:href="#linear-gradient-2"/>
    <linearGradient id="linear-gradient-50" x1="0.505" y1="1.299" x2="0.542" y2="6.697" xlink:href="#linear-gradient-2"/>
    <linearGradient id="linear-gradient-51" x1="0.5" y1="-2.791" x2="0.5" y2="0.73" xlink:href="#linear-gradient-2"/>
    <linearGradient id="linear-gradient-52" x1="0.561" y1="-5.018" x2="0.443" y2="5.689" xlink:href="#linear-gradient-2"/>
    <linearGradient id="linear-gradient-53" x1="0.5" y1="1.41" x2="0.505" y2="18.51" xlink:href="#linear-gradient-2"/>
    <linearGradient id="linear-gradient-55" x1="0.695" y1="0.04" x2="0.305" y2="0.96" xlink:href="#linear-gradient-2"/>
    <linearGradient id="linear-gradient-56" x1="0.784" y1="0.118" x2="0.423" y2="1.23" xlink:href="#linear-gradient-2"/>
    <linearGradient id="linear-gradient-59" x1="-0.184" y1="1.294" x2="0.486" y2="0.516" gradientUnits="objectBoundingBox">
      <stop offset="0" stop-color="#e1473d"/>
      <stop offset="1" stop-color="#e9605a"/>
    </linearGradient>
    <linearGradient id="linear-gradient-60" x1="0.878" y1="-0.071" x2="-1.173" y2="3.028" xlink:href="#linear-gradient-33"/>
    <linearGradient id="linear-gradient-61" x1="1.304" y1="-0.302" x2="-1.589" y2="2.559" xlink:href="#linear-gradient-33"/>
    <linearGradient id="linear-gradient-62" x1="-0.424" y1="0.4" x2="0.247" y2="-0.379" xlink:href="#linear-gradient-59"/>
    <linearGradient id="linear-gradient-63" x1="0.63" y1="-0.996" x2="-1.421" y2="2.103" xlink:href="#linear-gradient-33"/>
    <linearGradient id="linear-gradient-64" x1="0.627" y1="-1.75" x2="-2.072" y2="1.121" xlink:href="#linear-gradient-33"/>
    <linearGradient id="linear-gradient-65" x1="0.375" y1="2.57" x2="1.045" y2="1.791" xlink:href="#linear-gradient-59"/>
    <linearGradient id="linear-gradient-66" x1="1.456" y1="1.249" x2="-0.595" y2="4.347" xlink:href="#linear-gradient-33"/>
    <linearGradient id="linear-gradient-67" x1="2.598" y1="1.772" x2="0.059" y2="4.675" xlink:href="#linear-gradient-33"/>
    <linearGradient id="linear-gradient-68" x1="-11.723" y1="4.469" x2="-12.066" y2="8.878" gradientUnits="objectBoundingBox">
      <stop offset="0" stop-color="#41a362"/>
      <stop offset="1" stop-color="#204f2e"/>
    </linearGradient>
    <linearGradient id="linear-gradient-69" x1="-10.553" y1="3.237" x2="-10.896" y2="7.647" xlink:href="#linear-gradient-68"/>
    <linearGradient id="linear-gradient-70" x1="0.338" y1="0.93" x2="0.536" y2="-0.093" xlink:href="#linear-gradient-2"/>
    <linearGradient id="linear-gradient-71" x1="0.5" y1="0.515" x2="0.517" y2="6.792" xlink:href="#linear-gradient-2"/>
    <linearGradient id="linear-gradient-72" x1="-4.65" y1="-5.202" x2="-4.993" y2="-0.793" xlink:href="#linear-gradient-68"/>
    <linearGradient id="linear-gradient-73" x1="-2.323" y1="-4.177" x2="-2.665" y2="0.232" xlink:href="#linear-gradient-68"/>
    <linearGradient id="linear-gradient-74" x1="0.43" y1="1.055" x2="0.506" y2="-0.053" xlink:href="#linear-gradient-2"/>
    <linearGradient id="linear-gradient-75" x1="0.485" y1="3.262" x2="0.441" y2="11.348" xlink:href="#linear-gradient-2"/>
    <linearGradient id="linear-gradient-76" x1="0.5" y1="-0.558" x2="0.5" y2="1.283" xlink:href="#linear-gradient-25"/>
    <linearGradient id="linear-gradient-77" x1="10.605" y1="1.505" x2="10.711" y2="0.074" xlink:href="#linear-gradient-33"/>
    <linearGradient id="linear-gradient-78" x1="49.159" y1="2.887" x2="53.253" y2="-3.455" xlink:href="#linear-gradient-2"/>
    <linearGradient id="linear-gradient-79" x1="51.24" y1="4.016" x2="55.335" y2="-2.325" xlink:href="#linear-gradient-2"/>
    <linearGradient id="linear-gradient-80" x1="53.242" y1="5.102" x2="57.336" y2="-1.239" xlink:href="#linear-gradient-2"/>
    <linearGradient id="linear-gradient-81" x1="59.417" y1="-0.076" x2="57.184" y2="4.082" xlink:href="#linear-gradient-59"/>
    <linearGradient id="linear-gradient-82" x1="49.645" y1="2.134" x2="53.739" y2="-4.208" xlink:href="#linear-gradient-2"/>
    <linearGradient id="linear-gradient-83" x1="1.208" y1="-2.007" x2="0.156" y2="1.716" xlink:href="#linear-gradient-2"/>
    <linearGradient id="linear-gradient-84" x1="53.728" y1="4.349" x2="57.822" y2="-1.992" xlink:href="#linear-gradient-2"/>
    <linearGradient id="linear-gradient-85" x1="55.809" y1="5.479" x2="59.904" y2="-0.862" xlink:href="#linear-gradient-2"/>
    <linearGradient id="linear-gradient-86" x1="50.076" y1="1.467" x2="54.17" y2="-4.874" xlink:href="#linear-gradient-2"/>
    <linearGradient id="linear-gradient-87" x1="1.331" y1="-2.173" x2="0.174" y2="1.549" xlink:href="#linear-gradient-2"/>
    <linearGradient id="linear-gradient-88" x1="54.158" y1="3.683" x2="58.253" y2="-2.659" xlink:href="#linear-gradient-2"/>
    <linearGradient id="linear-gradient-89" x1="50.548" y1="0.735" x2="54.643" y2="-5.606" xlink:href="#linear-gradient-2"/>
    <linearGradient id="linear-gradient-90" x1="1.299" y1="-1.962" x2="0.067" y2="1.833" xlink:href="#linear-gradient-2"/>
    <linearGradient id="linear-gradient-91" x1="54.631" y1="2.951" x2="58.725" y2="-3.391" xlink:href="#linear-gradient-2"/>
    <linearGradient id="linear-gradient-92" x1="72.05" y1="0.905" x2="73.712" y2="-0.366" xlink:href="#linear-gradient-2"/>
    <linearGradient id="linear-gradient-93" x1="221.99" y1="-3.858" x2="219.153" y2="2.53" xlink:href="#linear-gradient-25"/>
    <linearGradient id="linear-gradient-94" x1="880.534" y1="-5.912" x2="881.541" y2="-5.912" xlink:href="#linear-gradient-28"/>
    <linearGradient id="linear-gradient-95" x1="41.219" y1="1.876" x2="40.455" y2="0.548" xlink:href="#linear-gradient-25"/>
    <linearGradient id="linear-gradient-96" x1="543.777" y1="-6.195" x2="536.757" y2="1.37" xlink:href="#linear-gradient-25"/>
    <linearGradient id="linear-gradient-97" x1="1017.854" y1="-4.371" x2="1018.867" y2="-4.371" xlink:href="#linear-gradient-28"/>
    <linearGradient id="linear-gradient-98" x1="27.161" y1="1.873" x2="26.65" y2="0.565" xlink:href="#linear-gradient-25"/>
    <linearGradient id="linear-gradient-99" x1="0.506" y1="0.294" x2="1.992" y2="1.738" xlink:href="#linear-gradient-33"/>
    <linearGradient id="linear-gradient-100" x1="1.523" y1="1.266" x2="0.226" y2="0.342" xlink:href="#linear-gradient-28"/>
    <linearGradient id="linear-gradient-101" x1="5.673" y1="3.121" x2="1.82" y2="1.223" xlink:href="#linear-gradient-28"/>
    <linearGradient id="linear-gradient-102" x1="1.964" y1="-2.012" x2="-0.728" y2="2.35" xlink:href="#linear-gradient-28"/>
    <linearGradient id="linear-gradient-103" x1="-134.168" y1="0.045" x2="-135.686" y2="5.26" xlink:href="#linear-gradient-33"/>
    <linearGradient id="linear-gradient-104" x1="-0.054" y1="-1.019" x2="0.791" y2="1.539" xlink:href="#linear-gradient-28"/>
    <linearGradient id="linear-gradient-105" x1="0.463" y1="0.966" x2="1.124" y2="-2.48" xlink:href="#linear-gradient-59"/>
    <linearGradient id="linear-gradient-106" x1="0.5" y1="-3.503" x2="0.5" y2="1.355" xlink:href="#linear-gradient-33"/>
    <linearGradient id="linear-gradient-107" x1="0.5" y1="-3.651" x2="0.5" y2="1.367" xlink:href="#linear-gradient-33"/>
    <linearGradient id="linear-gradient-108" x1="-0.739" y1="0.846" x2="7.356" y2="-1.518" xlink:href="#linear-gradient-59"/>
    <linearGradient id="linear-gradient-109" x1="0.046" y1="1.819" x2="0.711" y2="-0.129" xlink:href="#linear-gradient-28"/>
    <linearGradient id="linear-gradient-110" x1="-0.795" y1="-1.684" x2="0.735" y2="0.732" xlink:href="#linear-gradient-2"/>
    <linearGradient id="linear-gradient-111" x1="-0.241" y1="-0.385" x2="5.126" y2="5.394" xlink:href="#linear-gradient-25"/>
    <linearGradient id="linear-gradient-112" x1="1.149" y1="-2.812" x2="0.736" y2="-0.764" xlink:href="#linear-gradient-28"/>
    <linearGradient id="linear-gradient-113" x1="0.809" y1="-0.406" x2="0.33" y2="0.931" xlink:href="#linear-gradient-28"/>
    <linearGradient id="linear-gradient-114" x1="53.928" y1="0.154" x2="54.657" y2="1.105" xlink:href="#linear-gradient-25"/>
    <linearGradient id="linear-gradient-115" x1="304.268" y1="-0.685" x2="299.718" y2="1.784" gradientUnits="objectBoundingBox">
      <stop offset="0" stop-color="#f9b776"/>
      <stop offset="1" stop-color="#f47960"/>
    </linearGradient>
  </defs>
  <g id="Background">
    <rect id="Rectangle_30" data-name="Rectangle 30" width="2475" height="1650" fill="#fff"/>
  </g>
  <g id="Illustration">
    <g id="Group_127" data-name="Group 127">
      <path id="Path_94" data-name="Path 94" d="M2274.489,426.231c-54.844-106.019-175.266-185.745-292.476-161.285-70.18,14.646-139.933,63.78-207.224,39.114-48.5-17.779-75.879-68.2-116.649-99.833-62.751-48.692-151.821-48.125-228.3-26.309s-146.479,61.935-222.031,86.736c-128.761,42.269-272.473,37.68-398.251-12.717-55.215-22.123-106.9-52.657-163.11-72.135s-119.963-27.043-174.221-2.683-93.191,88.074-74.361,144.3c3.755,11.212,9.644,22.258,8.874,34.051-1.233,18.912-19.576,32.763-38.132,36.969s-37.892,1.459-56.915,1.94c-85.369,2.155-161.66,79.711-162.064,164.752-.336,70.521,43.339,132.491,80.678,192.413s70.9,131.822,48.654,198.775c-13.189,39.7-44.13,70.758-64.4,107.382-52.552,94.946-6.9,215.836,48.919,300.751,40.849,62.142,1077.158,67.967,1234.478,80.322,81.491,6.4,163.03,10.665,244.549,16.2,74.641,5.066,158.8,5.146,232.16-13.125,75.857-18.892,164.473-83.7,165.092-181.37.22-34.644-4.344-69.281-2.264-103.846a264.725,264.725,0,0,1,23.412-94.264c21.877-47.555,56.993-85.2,88.422-125.322,62.325-79.567,75.39-163.68,75.39-267.754C2327.119,587,2312.755,500.2,2274.489,426.231Z" fill="url(#linear-gradient)"/>
      <g id="Group_51" data-name="Group 51">
        <g id="Group_44" data-name="Group 44">
          <g id="Group_39" data-name="Group 39">
            <path id="Path_95" data-name="Path 95" d="M1617.866,291.158a2.191,2.191,0,0,1-1.737-1.969q-.144-1.776-.236-3.562a2.191,2.191,0,0,1,4.377-.222q.087,1.719.227,3.431a2.191,2.191,0,0,1-2.631,2.322Z" fill="#7d97f4"/>
            <path id="Path_96" data-name="Path 96" d="M1617.592,276.037a2.192,2.192,0,0,1-1.741-2.242c.108-2.418.289-4.864.539-7.267a2.191,2.191,0,1,1,4.359.454c-.241,2.318-.416,4.675-.52,7.007a2.19,2.19,0,0,1-2.285,2.092A2.129,2.129,0,0,1,1617.592,276.037Zm2.283-18.631a2.191,2.191,0,0,1-1.7-2.577l.159-.778c.436-2.1.936-4.223,1.484-6.318a2.192,2.192,0,0,1,4.24,1.111c-.531,2.023-1.013,4.075-1.434,6.1l-.153.749a2.191,2.191,0,0,1-2.58,1.716Zm5.091-18.063a2.111,2.111,0,0,1-.309-.088,2.191,2.191,0,0,1-1.3-2.81c.831-2.276,1.74-4.552,2.7-6.764a2.191,2.191,0,1,1,4.021,1.743c-.925,2.135-1.8,4.33-2.6,6.525A2.191,2.191,0,0,1,1624.966,239.343Zm7.777-17.076a2.192,2.192,0,0,1-1.473-3.206c1.166-2.111,2.414-4.22,3.708-6.268a2.191,2.191,0,1,1,3.7,2.34c-1.249,1.976-2.452,4.011-3.577,6.048A2.194,2.194,0,0,1,1632.743,222.267Zm10.316-15.674a2.192,2.192,0,0,1-1.284-3.489c1.484-1.912,3.045-3.805,4.639-5.628a2.192,2.192,0,0,1,3.3,2.886c-1.539,1.758-3.044,3.585-4.475,5.429A2.19,2.19,0,0,1,1643.059,206.593Zm12.623-13.9a2.191,2.191,0,0,1-1.056-3.738c1.762-1.663,3.595-3.293,5.446-4.845a2.191,2.191,0,1,1,2.815,3.359c-1.785,1.5-3.553,3.069-5.253,4.673A2.188,2.188,0,0,1,1655.682,192.691Zm14.6-11.8a2.191,2.191,0,0,1-.8-3.95c1.994-1.373,4.053-2.7,6.12-3.953a2.191,2.191,0,1,1,2.268,3.749c-1.993,1.207-3.98,2.49-5.9,3.814A2.181,2.181,0,0,1,1670.287,180.9Zm16.232-9.426a2.191,2.191,0,0,1-.508-4.119c2.179-1.051,4.415-2.051,6.646-2.972a2.191,2.191,0,1,1,1.672,4.051c-2.153.889-4.311,1.854-6.413,2.869A2.186,2.186,0,0,1,1686.519,171.469Zm17.475-6.838a2.192,2.192,0,0,1-.2-4.242c2.309-.705,4.671-1.35,7.019-1.919a2.191,2.191,0,1,1,1.032,4.259c-2.265.549-4.544,1.172-6.772,1.852A2.189,2.189,0,0,1,1703.994,164.631Zm112.9,22.386a2.18,2.18,0,0,1-.943-.451c-1.8-1.48-3.672-2.926-5.56-4.3a2.191,2.191,0,1,1,2.577-3.545c1.957,1.423,3.9,2.922,5.765,4.455a2.192,2.192,0,0,1-1.839,3.839ZM1722.3,160.552a2.192,2.192,0,0,1,.136-4.315c2.391-.342,4.823-.617,7.227-.816a2.191,2.191,0,1,1,.363,4.367c-2.318.193-4.663.458-6.97.788A2.22,2.22,0,0,1,1722.3,160.552Zm79.208,15.713a2.155,2.155,0,0,1-.666-.258c-2.011-1.184-4.083-2.324-6.158-3.386a2.192,2.192,0,0,1,2-3.9c2.151,1.1,4.3,2.283,6.383,3.512a2.191,2.191,0,0,1-1.558,4.033Zm-60.5-16.922a2.192,2.192,0,0,1,.477-4.337c2.421.032,4.869.136,7.277.311a2.191,2.191,0,0,1-.316,4.371c-2.322-.168-4.684-.269-7.019-.3A2.221,2.221,0,0,1,1741.014,159.343Zm43.637,8.673a2.269,2.269,0,0,1-.365-.109c-2.167-.861-4.39-1.669-6.606-2.4a2.191,2.191,0,1,1,1.377-4.16c2.3.759,4.6,1.6,6.846,2.488a2.192,2.192,0,0,1-1.252,4.183Zm-24.948-6.978a2.191,2.191,0,0,1,.813-4.306c2.374.4,4.77.879,7.142,1.423a2.191,2.191,0,0,1-.979,4.272c-2.292-.526-4.6-.986-6.894-1.374C1759.757,161.049,1759.73,161.043,1759.7,161.038Z" fill="#7d97f4"/>
            <path id="Path_97" data-name="Path 97" d="M1828.023,197.389a2.183,2.183,0,0,1-1.144-.638q-1.18-1.248-2.4-2.464a2.191,2.191,0,0,1,3.094-3.1q1.266,1.26,2.49,2.555a2.192,2.192,0,0,1-2.039,3.651Z" fill="#7d97f4"/>
          </g>
          <g id="Group_40" data-name="Group 40">
            <path id="Path_98" data-name="Path 98" d="M1861.456,285.378a2.194,2.194,0,0,1-1.742-2.22q.06-1.722.067-3.44a2.191,2.191,0,0,1,4.383.02q-.009,1.782-.069,3.569a2.2,2.2,0,0,1-2.639,2.071Z" fill="#7d97f4"/>
            <path id="Path_99" data-name="Path 99" d="M1712.566,400.348l-.04-.009c-2.069-.47-4.153-1-6.193-1.574l-.751-.213a2.191,2.191,0,1,1,1.213-4.211l.724.2c1.97.555,3.982,1.066,5.977,1.52a2.191,2.191,0,0,1-.93,4.282Zm11.258,2.012a2.191,2.191,0,0,1,.733-4.318c2.277.3,4.592.533,6.878.7a2.192,2.192,0,0,1-.316,4.372c-2.37-.172-4.769-.415-7.13-.724C1723.933,402.38,1723.879,402.371,1723.824,402.36Zm-28.917-7.438a2.312,2.312,0,0,1-.355-.105c-2.223-.87-4.443-1.814-6.6-2.8a2.191,2.191,0,1,1,1.83-3.982c2.081.956,4.223,1.867,6.367,2.7a2.192,2.192,0,0,1-1.242,4.187Zm47.358,8.435a2.191,2.191,0,0,1,.4-4.336c2.3-.051,4.618-.171,6.9-.356a2.192,2.192,0,0,1,.353,4.369c-2.37.191-4.778.315-7.158.368A2.2,2.2,0,0,1,1742.265,403.357Zm-64-16.452a2.169,2.169,0,0,1-.652-.25c-2.061-1.193-4.113-2.463-6.1-3.774a2.191,2.191,0,1,1,2.414-3.657c1.915,1.264,3.894,2.488,5.881,3.639a2.192,2.192,0,0,1-1.544,4.042Zm82.384,14.633a2.191,2.191,0,0,1,.064-4.3c2.256-.4,4.532-.869,6.763-1.4a2.191,2.191,0,1,1,1.011,4.264c-2.314.548-4.673,1.036-7.012,1.449A2.18,2.18,0,0,1,1760.645,401.538Zm-97.616-25.086a2.18,2.18,0,0,1-.927-.438c-1.855-1.493-3.689-3.06-5.453-4.656a2.192,2.192,0,1,1,2.942-3.249c1.7,1.539,3.47,3.05,5.26,4.491a2.192,2.192,0,0,1-1.822,3.852Zm115.5,20.506a2.192,2.192,0,0,1-.259-4.222c2.177-.737,4.357-1.546,6.481-2.4a2.191,2.191,0,1,1,1.641,4.063c-2.2.89-4.46,1.728-6.716,2.492A2.188,2.188,0,0,1,1778.528,396.958Zm16.994-7.224a2.191,2.191,0,0,1-.563-4.092c2.041-1.056,4.076-2.184,6.05-3.352a2.191,2.191,0,1,1,2.232,3.771c-2.045,1.211-4.153,2.38-6.267,3.473A2.187,2.187,0,0,1,1795.522,389.734Zm15.719-9.7a2.191,2.191,0,0,1-.841-3.918c1.857-1.348,3.7-2.769,5.48-4.224a2.191,2.191,0,0,1,2.774,3.392c-1.843,1.509-3.755,2.982-5.679,4.379A2.185,2.185,0,0,1,1811.241,380.038Zm14.084-11.95a2.191,2.191,0,0,1-1.092-3.7c1.633-1.613,3.242-3.3,4.781-5.005a2.192,2.192,0,0,1,3.256,2.935c-1.6,1.77-3.264,3.516-4.957,5.188A2.187,2.187,0,0,1,1825.325,368.088Zm12.121-13.944a2.193,2.193,0,0,1-1.311-3.453c1.37-1.843,2.7-3.753,3.968-5.676a2.191,2.191,0,1,1,3.663,2.4c-1.309,1.994-2.693,3.974-4.113,5.885A2.192,2.192,0,0,1,1837.446,354.144Zm9.862-15.628a2.193,2.193,0,0,1-1.491-3.171c1.072-2.029,2.1-4.116,3.054-6.2a2.191,2.191,0,1,1,3.985,1.821c-.988,2.163-2.053,4.326-3.166,6.43A2.192,2.192,0,0,1,1847.308,338.516Zm7.373-16.931a2.195,2.195,0,0,1-1.626-2.866c.754-2.168,1.457-4.386,2.087-6.594a2.191,2.191,0,1,1,4.214,1.2c-.653,2.287-1.381,4.585-2.162,6.83A2.192,2.192,0,0,1,1854.681,321.585Zm4.752-17.848a2.191,2.191,0,0,1-1.707-2.55c.424-2.255.787-4.553,1.081-6.831a2.191,2.191,0,1,1,4.346.559c-.3,2.362-.681,4.744-1.119,7.082a2.192,2.192,0,0,1-2.559,1.748Z" fill="#7d97f4"/>
            <path id="Path_100" data-name="Path 100" d="M1649.51,363.754a2.178,2.178,0,0,1-1.17-.667q-1.2-1.317-2.368-2.667a2.191,2.191,0,1,1,3.319-2.862q1.124,1.3,2.285,2.573a2.191,2.191,0,0,1-2.066,3.623Z" fill="#7d97f4"/>
          </g>
          <g id="Group_43" data-name="Group 43">
            <g id="Group_41" data-name="Group 41">
              <path id="Path_101" data-name="Path 101" d="M1661.877,331.065a1.465,1.465,0,0,0,1.514.773l17.628-2.617a77.639,77.639,0,0,0,19.253,16.184l.464,17.8a1.463,1.463,0,0,0,1.023,1.358l20.383,6.44a1.467,1.467,0,0,0,1.617-.524l10.608-14.306a77.633,77.633,0,0,0,25.056-2.187l12.925,12.268a1.466,1.466,0,0,0,1.684.238l18.966-9.86a1.466,1.466,0,0,0,.773-1.515l-2.617-17.627a77.617,77.617,0,0,0,16.184-19.253l17.8-.464a1.464,1.464,0,0,0,1.358-1.023l6.439-20.383a1.464,1.464,0,0,0-.524-1.617l-14.306-10.608a77.633,77.633,0,0,0-2.187-25.056l12.269-12.926a1.464,1.464,0,0,0,.237-1.683l-9.86-18.966a1.462,1.462,0,0,0-1.514-.773l-17.628,2.617a77.593,77.593,0,0,0-19.252-16.184l-.465-17.8a1.464,1.464,0,0,0-1.022-1.358l-20.384-6.439a1.464,1.464,0,0,0-1.617.524L1746.078,200.4a77.608,77.608,0,0,0-25.056,2.187L1708.1,190.321a1.464,1.464,0,0,0-1.683-.237l-18.967,9.86a1.465,1.465,0,0,0-.773,1.514l2.617,17.628a77.636,77.636,0,0,0-16.184,19.252l-17.8.464a1.464,1.464,0,0,0-1.357,1.023l-6.44,20.383a1.467,1.467,0,0,0,.524,1.618l14.306,10.607a77.633,77.633,0,0,0,2.187,25.056l-12.269,12.926a1.464,1.464,0,0,0-.237,1.683Z" fill="#91b3fa"/>
            </g>
            <g id="Group_42" data-name="Group 42">
              <path id="Path_102" data-name="Path 102" d="M1735.958,298.584a20.763,20.763,0,1,1,3.049.4A21.073,21.073,0,0,1,1735.958,298.584Zm7.784-37.161a17.35,17.35,0,0,0-2.508-.332,17.217,17.217,0,1,0,2.508.332Z" fill="#bdd0fb"/>
            </g>
            <path id="Path_103" data-name="Path 103" d="M1729.965,329.416A53.095,53.095,0,0,1,1717.4,325.1l-.058-.03c-.1-.051-.209-.1-.313-.155l-.043-.021h0l-.039-.021-.151-.075-.023-.012-.059-.03-.02-.01q-.227-.115-.45-.233l-.159-.083q-.488-.256-.967-.523-.276-.153-.55-.309a.879.879,0,0,1-.424-.939.918.918,0,0,1,.1-.256.877.877,0,0,1,1.2-.327,51.119,51.119,0,0,0,9.9,4.319,50.7,50.7,0,0,0,63.621-33.075,50.666,50.666,0,0,0-33.074-63.621,50.7,50.7,0,0,0-63.622,33.074,50.735,50.735,0,0,0-.991,26.991.865.865,0,0,1,.005.382.876.876,0,0,1-1.71.025,52.461,52.461,0,1,1,40.4,39.245Z" fill="#bdd0fb"/>
          </g>
        </g>
        <g id="Group_50" data-name="Group 50">
          <g id="Group_45" data-name="Group 45">
            <path id="Path_104" data-name="Path 104" d="M1835.12,203.533a1.215,1.215,0,0,1-.964-1.093q-.126-1.538-.186-3.087a1.217,1.217,0,0,1,2.432-.093q.057,1.5.178,2.983a1.218,1.218,0,0,1-1.46,1.29Z" fill="#7d97f4"/>
            <path id="Path_105" data-name="Path 105" d="M1834.953,194.478a1.216,1.216,0,0,1-.966-1.245c.089-2.03.264-4.081.52-6.1a1.217,1.217,0,0,1,2.414.306c-.247,1.95-.416,3.935-.5,5.9a1.218,1.218,0,0,1-1.27,1.162A1.254,1.254,0,0,1,1834.953,194.478Zm1.515-11.934h0a1.217,1.217,0,0,1-.939-1.442c.344-1.627.745-3.259,1.194-4.848q.153-.543.314-1.082a1.216,1.216,0,1,1,2.331.692q-.155.523-.3,1.051c-.433,1.537-.822,3.115-1.154,4.69A1.218,1.218,0,0,1,1836.468,182.544Zm3.43-11.53a1.19,1.19,0,0,1-.194-.057,1.216,1.216,0,0,1-.693-1.575c.739-1.9,1.562-3.791,2.445-5.608a1.217,1.217,0,0,1,2.189,1.064c-.854,1.757-1.65,3.583-2.366,5.425A1.216,1.216,0,0,1,1839.9,171.014Zm5.252-10.818a1.2,1.2,0,0,1-.371-.144,1.218,1.218,0,0,1-.428-1.667c1.036-1.75,2.157-3.477,3.333-5.132a1.217,1.217,0,0,1,1.984,1.409c-1.137,1.6-2.222,3.27-3.223,4.962A1.216,1.216,0,0,1,1845.15,160.2Zm6.965-9.81a1.217,1.217,0,0,1-.681-1.975c1.308-1.553,2.7-3.073,4.133-4.516a1.217,1.217,0,1,1,1.726,1.716c-1.388,1.4-2.733,2.865-4,4.368A1.216,1.216,0,0,1,1852.115,150.386Zm8.481-8.534a1.216,1.216,0,0,1-.54-2.116c1.542-1.317,3.162-2.588,4.815-3.78a1.216,1.216,0,0,1,1.422,1.974c-1.6,1.153-3.167,2.383-4.659,3.656A1.213,1.213,0,0,1,1860.6,141.852Zm9.759-7.035a1.217,1.217,0,0,1-.381-2.233c1.744-1.053,3.548-2.044,5.364-2.945a1.217,1.217,0,0,1,1.084,2.18c-1.757.872-3.5,1.83-5.19,2.848A1.217,1.217,0,0,1,1870.355,134.817Zm10.772-5.356a1.217,1.217,0,0,1-.206-2.321c1.889-.755,3.83-1.439,5.772-2.035a1.217,1.217,0,0,1,.713,2.327c-1.878.575-3.756,1.238-5.581,1.967A1.2,1.2,0,0,1,1881.127,129.461Zm73.729,11.433a1.2,1.2,0,0,1-.523-.25c-1.519-1.248-3.109-2.448-4.726-3.566a1.217,1.217,0,1,1,1.385-2c1.672,1.156,3.316,2.4,4.885,3.686a1.216,1.216,0,0,1-1.021,2.131Zm-62.234-14.964a1.217,1.217,0,0,1-.014-2.381c1.987-.435,4.014-.794,6.024-1.064a1.217,1.217,0,0,1,.324,2.412c-1.944.262-3.905.608-5.827,1.029A1.222,1.222,0,0,1,1892.622,125.93Zm52.339,8.121a1.209,1.209,0,0,1-.36-.137c-1.7-.979-3.465-1.9-5.246-2.739a1.217,1.217,0,1,1,1.036-2.2c1.842.867,3.667,1.82,5.425,2.832a1.217,1.217,0,0,1-.855,2.246Zm-40.426-9.723a1.217,1.217,0,0,1,.186-2.406c2.025-.1,4.084-.124,6.119-.06a1.217,1.217,0,1,1-.076,2.432c-1.969-.062-3.959-.042-5.917.058A1.238,1.238,0,0,1,1904.535,124.328Zm29.544,4.6a1.308,1.308,0,0,1-.18-.052c-1.838-.687-3.73-1.308-5.628-1.847a1.217,1.217,0,0,1,.666-2.341c1.96.557,3.916,1.2,5.815,1.909a1.217,1.217,0,0,1-.673,2.331Zm-17.522-4.219a1.217,1.217,0,0,1,.387-2.4c2.013.23,4.046.548,6.045.945l.011,0a1.217,1.217,0,0,1-.485,2.385c-1.934-.384-3.9-.691-5.848-.914C1916.629,124.721,1916.593,124.715,1916.557,124.708Z" fill="#7d97f4"/>
            <path id="Path_106" data-name="Path 106" d="M1961.541,147.126a1.214,1.214,0,0,1-.635-.355q-1.026-1.084-2.1-2.127a1.217,1.217,0,1,1,1.695-1.746q1.11,1.08,2.171,2.2a1.217,1.217,0,0,1-1.132,2.028Z" fill="#7d97f4"/>
          </g>
          <g id="Group_46" data-name="Group 46">
            <path id="Path_107" data-name="Path 107" d="M1981.617,200.987a1.216,1.216,0,0,1-.967-1.247q.07-1.5.076-2.99a1.217,1.217,0,0,1,2.434.013q-.009,1.542-.079,3.09a1.218,1.218,0,0,1-1.272,1.159A1.186,1.186,0,0,1,1981.617,200.987Z" fill="#7d97f4"/>
            <path id="Path_108" data-name="Path 108" d="M1893.471,269.517c-1.17-.249-2.287-.5-3.431-.8a1.217,1.217,0,1,1,.6-2.358c1.107.285,2.24.579,3.322.77q1.188.248,2.374.452a1.217,1.217,0,0,1-.413,2.4Q1894.7,269.772,1893.471,269.517Zm8.286,1.23a1.217,1.217,0,0,1,.359-2.4c1.923.175,3.88.273,5.815.29a1.217,1.217,0,0,1-.021,2.433c-2-.018-4.025-.119-6.014-.3A1.039,1.039,0,0,1,1901.757,270.747Zm-17.339-3.71a1.357,1.357,0,0,1-.148-.041c-1.888-.647-3.777-1.381-5.615-2.18a1.217,1.217,0,0,1,.972-2.231c1.777.773,3.605,1.483,5.432,2.109a1.217,1.217,0,0,1-.641,2.343Zm29.172,3.817a1.217,1.217,0,0,1,.162-2.4c1.926-.139,3.872-.36,5.783-.656a1.217,1.217,0,1,1,.371,2.4c-1.975.306-3.987.534-5.979.678A1.18,1.18,0,0,1,1913.59,270.854Zm-40.028-8.546a1.229,1.229,0,0,1-.327-.12c-1.765-.946-3.511-1.975-5.189-3.057a1.217,1.217,0,0,1,1.319-2.045c1.623,1.047,3.312,2.042,5.019,2.958a1.217,1.217,0,0,1-.822,2.264Zm51.719,6.737a1.217,1.217,0,0,1-.036-2.375c1.879-.448,3.764-.98,5.6-1.58a1.217,1.217,0,0,1,.755,2.314c-1.9.62-3.853,1.169-5.8,1.633A1.208,1.208,0,0,1,1925.281,269.045Zm-61.666-13.158a1.215,1.215,0,0,1-.492-.226c-1.584-1.216-3.14-2.515-4.624-3.858a1.216,1.216,0,1,1,1.632-1.8c1.436,1.3,2.942,2.555,4.474,3.732a1.217,1.217,0,0,1-.99,2.156Zm72.918,9.49a1.217,1.217,0,0,1-.223-2.314c1.782-.743,3.558-1.571,5.281-2.459a1.217,1.217,0,0,1,1.115,2.163c-1.78.918-3.617,1.773-5.458,2.542A1.221,1.221,0,0,1,1936.533,265.377Zm10.518-5.423a1.217,1.217,0,0,1-.394-2.225c1.64-1.018,3.262-2.118,4.82-3.27a1.217,1.217,0,0,1,1.447,1.956c-1.612,1.191-3.288,2.329-4.983,3.382A1.217,1.217,0,0,1,1947.051,259.954Zm9.519-7.036a1.217,1.217,0,0,1-.55-2.109c1.459-1.271,2.884-2.617,4.233-4a1.216,1.216,0,1,1,1.742,1.7c-1.4,1.432-2.868,2.824-4.377,4.138A1.215,1.215,0,0,1,1956.57,252.918Zm8.267-8.475a1.217,1.217,0,0,1-.688-1.967c1.238-1.494,2.426-3.053,3.533-4.634a1.217,1.217,0,0,1,1.994,1.4c-1.145,1.635-2.374,3.247-3.653,4.791A1.215,1.215,0,0,1,1964.837,244.443Zm6.789-9.7a1.234,1.234,0,0,1-.367-.142,1.218,1.218,0,0,1-.436-1.665c.977-1.668,1.9-3.4,2.734-5.141a1.217,1.217,0,1,1,2.194,1.054c-.867,1.8-1.818,3.592-2.827,5.316A1.218,1.218,0,0,1,1971.626,234.745Zm5.129-10.666a1.212,1.212,0,0,1-.889-1.628c.694-1.806,1.325-3.662,1.872-5.515a1.218,1.218,0,0,1,2.335.691c-.567,1.914-1.218,3.831-1.935,5.7A1.217,1.217,0,0,1,1976.755,224.079Zm3.358-11.349a1.218,1.218,0,0,1-.944-1.439l.046-.218c.379-1.821.69-3.682.928-5.53a1.216,1.216,0,1,1,2.413.31c-.245,1.91-.567,3.833-.959,5.716l-.045.217A1.217,1.217,0,0,1,1980.113,212.73Z" fill="#7d97f4"/>
            <path id="Path_109" data-name="Path 109" d="M1854.788,247.888a1.2,1.2,0,0,1-.638-.359q-1.059-1.13-2.066-2.3a1.216,1.216,0,1,1,1.842-1.589q.975,1.133,2,2.223a1.216,1.216,0,0,1-1.137,2.023Z" fill="#7d97f4"/>
          </g>
          <g id="Group_49" data-name="Group 49">
            <g id="Group_47" data-name="Group 47">
              <path id="Path_110" data-name="Path 110" d="M1861.574,227.639a.88.88,0,0,0,.911.464l10.6-1.574a46.7,46.7,0,0,0,11.582,9.736l.279,10.71a.881.881,0,0,0,.615.817l12.262,3.873a.88.88,0,0,0,.973-.315l6.381-8.606a46.7,46.7,0,0,0,15.073-1.315l7.775,7.38a.881.881,0,0,0,1.013.143l11.409-5.932a.879.879,0,0,0,.465-.91l-1.574-10.6a46.715,46.715,0,0,0,9.736-11.581l10.71-.279a.883.883,0,0,0,.817-.616l3.873-12.262a.88.88,0,0,0-.315-.972l-8.606-6.381a46.673,46.673,0,0,0-1.316-15.073l7.381-7.776a.882.882,0,0,0,.143-1.012l-5.932-11.409a.879.879,0,0,0-.911-.465l-10.6,1.574a46.673,46.673,0,0,0-11.581-9.736l-.28-10.71a.88.88,0,0,0-.615-.817l-12.262-3.874a.88.88,0,0,0-.972.316l-6.382,8.606a46.7,46.7,0,0,0-15.072,1.315l-7.776-7.38a.88.88,0,0,0-1.012-.143l-11.41,5.932a.881.881,0,0,0-.465.91l1.574,10.6a46.693,46.693,0,0,0-9.735,11.581l-10.71.279a.881.881,0,0,0-.817.616l-3.874,12.261a.882.882,0,0,0,.316.973l8.6,6.382a46.7,46.7,0,0,0,1.316,15.072l-7.38,7.776a.88.88,0,0,0-.143,1.012Z" fill="#91b3fa"/>
            </g>
            <g id="Group_48" data-name="Group 48">
              <path id="Path_111" data-name="Path 111" d="M1906.124,208.26a12.638,12.638,0,1,1,1.839.244h0A12.617,12.617,0,0,1,1906.124,208.26Zm4.663-22.356a10.2,10.2,0,1,0-2.681,20.171h0a10.2,10.2,0,0,0,2.681-20.171Z" fill="#bdd0fb"/>
            </g>
            <path id="Path_112" data-name="Path 112" d="M1902.428,227.33a33.007,33.007,0,0,1-3.206-.837h0q-.638-.2-1.263-.428a32.318,32.318,0,0,1-4.262-1.9l-.14-.075c-.116-.063-.231-.127-.346-.191-.094-.052-.188-.1-.281-.157a1.22,1.22,0,0,1-.588-1.3,1.218,1.218,0,0,1,1.795-.81,30.027,30.027,0,0,0,5.817,2.54,29.8,29.8,0,1,0-20.028-21.538,1.217,1.217,0,1,1-2.367.564,32.134,32.134,0,0,1-.2-14,32.71,32.71,0,0,1,.828-3.17,32.247,32.247,0,0,1,62.333,16.216q-.336,1.614-.839,3.21a32.251,32.251,0,0,1-37.254,21.872Z" fill="#bdd0fb"/>
          </g>
        </g>
      </g>
      <g id="Group_52" data-name="Group 52">
        <path id="Path_113" data-name="Path 113" d="M1855.188,465.973c40.141,86.57,253.164,599.894-192.625,886.315,0,0-227.235-301.838,178.672-887.541A8.073,8.073,0,0,1,1855.188,465.973Z" fill="#bdd0fb"/>
        <path id="Path_114" data-name="Path 114" d="M1835.49,559.8c2.3,31.388,3.355,62.8,3.928,94.236q.771,47.15-.517,94.3-1.222,47.144-4.713,94.2l-.847,11.761-1.018,11.748-1.025,11.748c-.324,3.918-.687,7.832-1.115,11.74l-2.432,23.462-2.828,23.419c-.881,7.814-2.067,15.589-3.14,23.38-1.095,7.787-2.14,15.582-3.457,23.337l-3.782,23.29-4.265,23.21-1.066,5.8-1.19,5.779-2.407,11.553-2.408,11.553c-.777,3.857-1.769,7.667-2.642,11.5-1.821,7.655-3.566,15.329-5.45,22.97l-6.052,22.824-1.514,5.706-1.677,5.661L1782.5,1144.3l-3.375,11.318c-1.121,3.773-2.464,7.479-3.685,11.221l-3.751,11.2-1.875,5.6c-.619,1.87-1.239,3.739-1.959,5.573l-8.315,22.124a711.861,711.861,0,0,1-40.282,85.537,2.711,2.711,0,1,1-4.731-2.647l.005-.01.018-.032a706.781,706.781,0,0,0,40.309-84.691l8.355-21.954c.723-1.819,1.347-3.675,1.97-5.532l1.888-5.562,3.776-11.126c1.23-3.718,2.582-7.4,3.713-11.147l3.4-11.248,3.4-11.249,1.693-5.628,1.53-5.675,6.12-22.7c1.909-7.6,3.678-15.24,5.524-22.859.886-3.818,1.89-7.608,2.68-11.449l2.447-11.5,2.447-11.5,1.21-5.755,1.087-5.78,4.347-23.121,3.868-23.209c1.346-7.728,2.42-15.5,3.544-23.263,1.1-7.766,2.318-15.517,3.229-23.31l2.919-23.354,2.523-23.4c.443-3.9.822-7.8,1.162-11.712l1.072-11.721,1.064-11.722.894-11.736q3.63-46.941,5.1-94.028,1.448-47.068.906-94.175c-.441-31.385-1.366-62.8-3.53-94.091v-.02a1.148,1.148,0,0,1,2.29-.164Z" fill="#dce5fe"/>
      </g>
      <g id="Group_53" data-name="Group 53">
        <path id="Path_115" data-name="Path 115" d="M1780.688,1464.46s126.988-658.708,417.8-1030.222c19.549-24.974,56.842-17.808,65.685,12.718C2323.3,651.079,2443.188,1273.5,1780.688,1464.46Z" fill="#bdd0fb"/>
        <path id="Path_116" data-name="Path 116" d="M1840.546,1419.152c-1.452,1.635.6,3.982,2.237,2.565,60.507-52.271,293.009-305.555,367.989-789.013a1.161,1.161,0,1,0-2.269-.493C2181.562,744.8,2070.181,1160.624,1840.546,1419.152Z" fill="#dce5fe"/>
      </g>
      <g id="Group_54" data-name="Group 54">
        <path id="Path_117" data-name="Path 117" d="M853.414,263.2c-20.609,111.028-114.158,762.046,480.979,959.565,0,0,171.916-412.736-465.343-965.067A9.553,9.553,0,0,0,853.414,263.2Z" fill="#bdd0fb"/>
        <path id="Path_118" data-name="Path 118" d="M906.663,367.178c6.442,37.353,14.454,74.5,23.188,111.418q13.15,55.386,28.99,110.082c21.156,72.875,45.765,144.783,75,214.78,29.29,69.926,63.133,138.1,104.017,201.879,10.165,15.973,20.935,31.549,32.089,46.828q16.7,22.945,35.113,44.545a609.785,609.785,0,0,0,80.57,79.415l.024.02a3.557,3.557,0,0,1-4.49,5.519l-.012-.011a616.668,616.668,0,0,1-81.13-80.677q-18.463-21.858-35.2-45.072c-11.168-15.444-21.939-31.173-32.094-47.289-40.841-64.355-74.5-132.945-103.562-203.214-29-70.339-53.335-142.509-74.2-215.608Q939.33,534.958,926.418,479.4c-8.583-37.031-16.431-74.214-22.731-111.748a1.507,1.507,0,1,1,2.972-.5Z" fill="#dce5fe"/>
      </g>
      <g id="Group_66" data-name="Group 66">
        <g id="Group_57" data-name="Group 57">
          <path id="Path_119" data-name="Path 119" d="M1249.434,1443.522H1007.955v-503.8h261.232V1423.77A19.752,19.752,0,0,1,1249.434,1443.522Z" fill="#91b3fa"/>
          <path id="Path_120" data-name="Path 120" d="M1304.175,983.256H995.515l-56.49-227.023h299.063l78.246,207.981A13.4,13.4,0,0,1,1304.175,983.256Z" fill="url(#linear-gradient-2)"/>
          <path id="Path_121" data-name="Path 121" d="M1239.717,759.3l-318.09,8.542-8.464-27.948,304.26-5.429c11.413,0,20.665,6.754,20.665,15.085Z" fill="url(#linear-gradient-3)"/>
          <g id="Group_56" data-name="Group 56" opacity="0.89">
            <rect id="Rectangle_31" data-name="Rectangle 31" width="149.275" height="230.133" rx="1.123" transform="translate(1064.711 1076.553)" fill="url(#linear-gradient)"/>
            <g id="Group_55" data-name="Group 55">
              <rect id="Rectangle_32" data-name="Rectangle 32" width="57.957" height="205.254" rx="0.624" transform="translate(1075.595 1088.993)" fill="url(#linear-gradient-5)"/>
              <rect id="Rectangle_33" data-name="Rectangle 33" width="57.957" height="205.254" rx="0.624" transform="translate(1145.144 1088.993)" fill="url(#linear-gradient-6)"/>
            </g>
          </g>
        </g>
        <g id="Group_60" data-name="Group 60">
          <path id="Path_122" data-name="Path 122" d="M199.133,1443.522H446.62v-503.8H185.388v490.059A13.745,13.745,0,0,0,199.133,1443.522Z" fill="#7d97f4"/>
          <path id="Path_123" data-name="Path 123" d="M138.24,964.214a13.4,13.4,0,0,0,12.16,19.042H459.059L519.11,756.233H216.487Z" fill="url(#linear-gradient-7)"/>
          <path id="Path_124" data-name="Path 124" d="M216.487,759.343,556.6,761.664l1.4-27.2H238.747c-12.294,0-22.26,6.754-22.26,15.085Z" fill="url(#linear-gradient-8)"/>
          <g id="Group_59" data-name="Group 59" opacity="0.89">
            <rect id="Rectangle_34" data-name="Rectangle 34" width="149.275" height="230.133" rx="1.123" transform="translate(389.864 1306.687) rotate(180)" fill="url(#linear-gradient)"/>
            <g id="Group_58" data-name="Group 58">
              <rect id="Rectangle_35" data-name="Rectangle 35" width="57.957" height="205.254" rx="0.624" transform="translate(378.979 1294.247) rotate(180)" fill="url(#linear-gradient-10)"/>
              <rect id="Rectangle_36" data-name="Rectangle 36" width="57.957" height="205.254" rx="0.624" transform="translate(309.43 1294.247) rotate(180)" fill="url(#linear-gradient-11)"/>
            </g>
          </g>
        </g>
        <path id="Path_125" data-name="Path 125" d="M722.933,624.612S368.775,891.981,360,891.981v549.325a24.453,24.453,0,0,0,24.453,24.452H1068.5a17.366,17.366,0,0,0,17.367-17.367V891.981Z" fill="#91b3fa"/>
        <g id="Group_64" data-name="Group 64">
          <path id="Rectangle_37" data-name="Rectangle 37" d="M3.171,0H221.882a3.17,3.17,0,0,1,3.17,3.17V38.178a0,0,0,0,1,0,0H0a0,0,0,0,1,0,0V3.171A3.171,3.171,0,0,1,3.171,0Z" transform="translate(594.179 1405.345)" fill="url(#linear-gradient-12)"/>
          <path id="Rectangle_38" data-name="Rectangle 38" d="M3.171,0H221.882a3.17,3.17,0,0,1,3.17,3.17V38.178a0,0,0,0,1,0,0H0a0,0,0,0,1,0,0V3.171A3.171,3.171,0,0,1,3.171,0Z" transform="translate(594.179 1429.635)" fill="url(#linear-gradient-13)"/>
          <path id="Rectangle_39" data-name="Rectangle 39" d="M3.56,0H150.046a3.56,3.56,0,0,1,3.56,3.56v296.1a0,0,0,0,1,0,0H0a0,0,0,0,1,0,0V3.56A3.56,3.56,0,0,1,3.56,0Z" transform="translate(629.903 1105.684)" fill="url(#linear-gradient-14)"/>
          <path id="Path_126" data-name="Path 126" d="M772.663,1085.515H640.748a10.845,10.845,0,0,1-10.845-10.846v-9.474A10.846,10.846,0,0,1,640,1054.375l131.914-9.163a10.846,10.846,0,0,1,11.6,10.82v18.637A10.846,10.846,0,0,1,772.663,1085.515Z" fill="#bdd0fb"/>
          <g id="Group_61" data-name="Group 61">
            <path id="Path_127" data-name="Path 127" d="M905.492,952.4h-1.46c-37.937,0-71.15,26.859-71.15,64.8v68.322h72.61Z" opacity="0.9" fill="url(#linear-gradient-15)"/>
            <path id="Path_128" data-name="Path 128" d="M832.882,1105.684v201c0,6.768,7.945,17.261,14.713,17.261h57.9V1105.684Z" opacity="0.9" fill="url(#linear-gradient-16)"/>
            <path id="Path_129" data-name="Path 129" d="M925.318,952.4h-3.691v133.119h72.611v-68.322C994.238,979.255,963.255,952.4,925.318,952.4Z" opacity="0.9" fill="url(#linear-gradient-17)"/>
            <path id="Path_130" data-name="Path 130" d="M921.627,1323.948h60.128c6.768,0,12.483-10.493,12.483-17.261v-201H921.627Z" opacity="0.9" fill="url(#linear-gradient-18)"/>
          </g>
          <g id="Group_62" data-name="Group 62">
            <path id="Path_131" data-name="Path 131" d="M505.562,952.4H504.1c-37.937,0-71.15,26.859-71.15,64.8v68.322h72.61Z" fill="url(#linear-gradient-19)"/>
            <path id="Path_132" data-name="Path 132" d="M432.952,1105.684v201c0,6.768,7.945,17.261,14.713,17.261h57.9V1105.684Z" fill="url(#linear-gradient-20)"/>
            <path id="Path_133" data-name="Path 133" d="M525.387,952.4H521.7v133.119h72.61v-68.322C594.308,979.255,563.325,952.4,525.387,952.4Z" fill="url(#linear-gradient-21)"/>
            <path id="Path_134" data-name="Path 134" d="M521.7,1323.948h60.127c6.768,0,12.483-10.493,12.483-17.261v-201H521.7Z" fill="url(#linear-gradient-22)"/>
          </g>
          <path id="Path_135" data-name="Path 135" d="M1000.52,1336.5H825.731a18.2,18.2,0,0,1-18.176-18.177V1015.7a86.89,86.89,0,0,1,86.792-86.791h37.558A86.89,86.89,0,0,1,1018.7,1015.7v302.629A18.2,18.2,0,0,1,1000.52,1336.5ZM894.347,930.588a85.2,85.2,0,0,0-85.109,85.108v302.629a16.512,16.512,0,0,0,16.493,16.494H1000.52a16.512,16.512,0,0,0,16.492-16.494V1015.7a85.2,85.2,0,0,0-85.107-85.108Z" fill="url(#linear-gradient)"/>
          <g id="Group_63" data-name="Group 63">
            <path id="Path_136" data-name="Path 136" d="M618.844,1318.325a18.2,18.2,0,0,1-18.176,18.177H425.88a18.2,18.2,0,0,1-18.176-18.177V1015.7a86.889,86.889,0,0,1,86.79-86.791h37.558a86.89,86.89,0,0,1,86.792,86.791ZM494.494,930.588a85.2,85.2,0,0,0-85.107,85.108v302.629a16.512,16.512,0,0,0,16.493,16.494H600.668a16.512,16.512,0,0,0,16.493-16.494V1015.7a85.2,85.2,0,0,0-85.109-85.108Z" fill="#bdd0fb"/>
          </g>
          <path id="Path_137" data-name="Path 137" d="M635.333,1405.345h-3.711a2.619,2.619,0,0,1-2.619-2.618V1107.912a2.229,2.229,0,0,1,2.228-2.228h4.1Z" fill="#91b3fa"/>
        </g>
        <g id="Group_65" data-name="Group 65">
          <rect id="Rectangle_40" data-name="Rectangle 40" width="60.04" height="97.758" transform="translate(881.858 630.451)" fill="url(#linear-gradient-24)"/>
          <path id="Path_138" data-name="Path 138" d="M961.685,646.292H864.641V622.367a6.1,6.1,0,0,1,6.1-6.1h81.671a9.278,9.278,0,0,1,9.278,9.278Z" fill="#7d97f4"/>
          <path id="Path_139" data-name="Path 139" d="M337.749,920.012l385.184-295.4L1088.56,908.218a22.7,22.7,0,0,0,36.151-13.389l5.129-25.084L722.933,559.774,329.064,860.614a19.62,19.62,0,0,0-6.24,23.045Z" fill="url(#linear-gradient-25)"/>
        </g>
      </g>
      <g id="Group_77" data-name="Group 77">
        <g id="Group_76" data-name="Group 76">
          <g id="Group_75" data-name="Group 75">
            <g id="Group_72" data-name="Group 72">
              <g id="Group_67" data-name="Group 67">
                <path id="Path_140" data-name="Path 140" d="M442.622,1496.1c-7.413.641-20.278,1.681-30.421,2.128-6.1.268-9.607-.329-11.628-1.138,0,.228.01.443.019.643a2.1,2.1,0,0,0,1.993,1.982,356.559,356.559,0,0,0,39.832.04,1.5,1.5,0,0,0,1.218-2.245A12.3,12.3,0,0,0,442.622,1496.1Z" fill="url(#linear-gradient-26)"/>
                <path id="Path_141" data-name="Path 141" d="M412.2,1498.231c10.143-.447,23.008-1.487,30.421-2.128-7.288-8.942-30.421-14.968-30.421-14.968h-6.533a27.4,27.4,0,0,0-5.1,15.958C402.594,1497.9,406.1,1498.5,412.2,1498.231Z" fill="url(#linear-gradient-27)"/>
                <path id="Path_142" data-name="Path 142" d="M404.568,1470.468l.611,12.1a2.764,2.764,0,0,0,2.359,2.6,10.746,10.746,0,0,0,4.908-.407,3.271,3.271,0,0,0,2.2-2.513l2.112-11.778Z" fill="url(#linear-gradient-28)"/>
              </g>
              <g id="Group_69" data-name="Group 69">
                <g id="Group_68" data-name="Group 68">
                  <path id="Path_143" data-name="Path 143" d="M319.707,1498.14c-3.214-.448-4.669-2.118-5.278-3.9l-.013.049c-.472,1.883.624,3.835,2.816,4.763a18.383,18.383,0,0,0,7.8,1.22,7.746,7.746,0,0,0,5.845-2.695l.018-.024C328.468,1498.747,325.069,1498.888,319.707,1498.14Z" fill="url(#linear-gradient-29)"/>
                  <path id="Path_144" data-name="Path 144" d="M334.864,1470.391h-5.388c-8.207-.168-13.361,17.142-15.047,23.845.609,1.786,2.064,3.456,5.278,3.9,5.362.748,8.761.607,11.183-.591,4.434-5.835,6.632-14.381,7.689-19.368A6.8,6.8,0,0,0,334.864,1470.391Z" fill="url(#linear-gradient-30)"/>
                </g>
                <path id="Path_145" data-name="Path 145" d="M330.169,1459.161l-2.992,11.9a3.228,3.228,0,0,0,1.68,3.66,11.458,11.458,0,0,0,6.2,1.5,2.7,2.7,0,0,0,2.2-1.8l4.392-12.52Z" fill="url(#linear-gradient-31)"/>
              </g>
              <path id="Path_146" data-name="Path 146" d="M326.6,1462.6c3.722,3.3,15.83,3.737,15.83,3.737,43.613-104.675,61.454-119.546,61.454-119.546-6.3,39.509-1.016,126.978-1.016,126.978,7.2,3.176,16.476,0,16.476,0a674.17,674.17,0,0,1,22.271-165.562c-29.477-.663-45.153-10.75-50.271-14.8C366.772,1333.023,326.6,1462.6,326.6,1462.6Z" fill="url(#linear-gradient-32)"/>
              <path id="Path_147" data-name="Path 147" d="M398.83,1173.032c-5.58,27.83-3.58,77.641-2.266,100.361.368,6.386-4.089,15.239-7.692,21.278a1.893,1.893,0,0,0,.765,2.665c6.032,3.1,26.469,12.709,50.155,13.9a3.377,3.377,0,0,0,3.4-2.524c17.57-65.6,37.977-107.523,37.977-107.523C458.637,1165.215,398.83,1173.032,398.83,1173.032Z" fill="url(#linear-gradient-33)"/>
              <path id="Path_148" data-name="Path 148" d="M406.86,1344.314a1.4,1.4,0,0,1-1.193-2.122,43.815,43.815,0,0,1,17.293-15.013,1.4,1.4,0,1,1,1.214,2.515,41.785,41.785,0,0,0-16.121,13.95A1.4,1.4,0,0,1,406.86,1344.314Z" fill="url(#linear-gradient-34)"/>
              <g id="Group_70" data-name="Group 70">
                <path id="Path_149" data-name="Path 149" d="M363.833,1252.9c1.793,12.965,7.087,27.106,17.68,42.127l4.026-3.282a124.352,124.352,0,0,1-2.006-40.262C377,1250.212,369.283,1251.526,363.833,1252.9Z" fill="url(#linear-gradient-35)"/>
                <path id="Path_150" data-name="Path 150" d="M405.062,1207.371l-6.232-34.339s-41.638,31.828-35,79.872c5.45-1.378,13.166-2.692,19.7-1.417C385.437,1236.069,391.123,1219.331,405.062,1207.371Z" fill="url(#linear-gradient-36)"/>
              </g>
              <g id="Group_71" data-name="Group 71">
                <path id="Path_151" data-name="Path 151" d="M481.167,1201.194,465.1,1235.807c2.6,20.9,13.825,29.933,25.929,33.4a73.445,73.445,0,0,1,5.4-22.541C480.956,1230.7,481.167,1201.194,481.167,1201.194Z" fill="url(#linear-gradient-37)"/>
                <path id="Path_152" data-name="Path 152" d="M496.422,1246.665a73.445,73.445,0,0,0-5.4,22.541c32.294,12.529,40.838-11.77,40.838-11.77l-5.968-1.053C512.416,1257.8,503,1253.458,496.422,1246.665Z" fill="url(#linear-gradient-38)"/>
              </g>
              <path id="Path_153" data-name="Path 153" d="M466.36,1158.461l-7.759,28.523a5.549,5.549,0,0,1-7.421,3.692A112.291,112.291,0,0,1,440,1185.568a7.477,7.477,0,0,1-2.637-10.746l16.131-24.053Z" fill="url(#linear-gradient-39)"/>
            </g>
            <path id="Path_154" data-name="Path 154" d="M546.663,1238.349l-198.82,72.362a15.224,15.224,0,0,0-8.652,20.608l.6,1.326a14.15,14.15,0,0,0,18.823,6.985l193.052-89.306Z" fill="url(#linear-gradient-40)"/>
            <ellipse id="Ellipse_1" data-name="Ellipse 1" cx="98.147" cy="96.377" rx="98.147" ry="96.377" transform="translate(539.902 1098.444)" opacity="0.26" fill="url(#linear-gradient-41)"/>
            <path id="Path_155" data-name="Path 155" d="M638.049,1087.579c-60.316,0-109.211,48.014-109.211,107.241s48.895,107.242,109.211,107.242S747.26,1254.048,747.26,1194.82,698.365,1087.579,638.049,1087.579Zm0,198.729c-51.456,0-93.169-40.96-93.169-91.488s41.713-91.488,93.169-91.488,93.169,40.961,93.169,91.488S689.505,1286.308,638.049,1286.308Z" fill="url(#linear-gradient-42)"/>
            <g id="Group_73" data-name="Group 73">
              <path id="Path_156" data-name="Path 156" d="M537.141,1207.853a.483.483,0,0,1-.478-.42c-.323-2.531-.551-5.111-.677-7.671a.481.481,0,0,1,.457-.5.46.46,0,0,1,.505.457c.126,2.534.351,5.09.671,7.6a.482.482,0,0,1-.417.54A.6.6,0,0,1,537.141,1207.853Zm.75-29.987a.631.631,0,0,1-.086-.007.483.483,0,0,1-.389-.56,98.491,98.491,0,0,1,5.877-20.112v0c15.7-38.1,52.9-62.715,94.755-62.715a103.227,103.227,0,0,1,54.871,15.68.482.482,0,1,1-.512.817,102.261,102.261,0,0,0-54.359-15.534c-41.465,0-78.31,24.384-93.865,62.121h0a97.461,97.461,0,0,0-5.819,19.915A.483.483,0,0,1,537.891,1177.866Z" fill="#bdd0fb"/>
            </g>
            <path id="Path_157" data-name="Path 157" d="M383.879,1291.177l18.8-1.532,8.141,7.5s-1.926,2.662-7.947,1.132a86.14,86.14,0,0,0-14.267-1.906s-8.312,3.747-8.413-3.264Z" fill="url(#linear-gradient-43)"/>
            <path id="Path_158" data-name="Path 158" d="M529.468,1261.882c1.625,1.27,7.194-1.382,10.6-3.215a3.919,3.919,0,0,0,1.9-4.633c-.82-2.586-2.186-5.924-3.87-6.345C535.3,1246.991,522.77,1256.649,529.468,1261.882Z" fill="url(#linear-gradient-44)"/>
            <path id="Path_159" data-name="Path 159" d="M351.765,1336.6a.487.487,0,0,1-.158-.027c-6.128-2.119-9.341-5.626-9.549-10.424A11.574,11.574,0,0,1,349.61,1315l23.872-9.309a.482.482,0,0,1,.35.9l-23.871,9.309a10.611,10.611,0,0,0-6.941,10.211c.189,4.363,3.185,7.577,8.9,9.554a.482.482,0,0,1-.158.938Z" fill="#bdd0fb"/>
            <path id="Path_160" data-name="Path 160" d="M381.014,1303.75a.482.482,0,0,1-.176-.931l3.094-1.207a.482.482,0,1,1,.35.9l-3.093,1.207A.493.493,0,0,1,381.014,1303.75Z" fill="#bdd0fb"/>
            <g id="Group_74" data-name="Group 74">
              <path id="Path_161" data-name="Path 161" d="M468.036,1130.459s6.422,14.753,6.854,22.5,2.1,12.768-6.854,14.327-16.5-2.9-20.582-10.614c0,0-6.4-11.885-4.966-16.752S468.036,1130.459,468.036,1130.459Z" fill="url(#linear-gradient-45)"/>
              <path id="Path_162" data-name="Path 162" d="M450.514,1151.123h1.132s-4.664-9.566-.566-11.247,20.329-4.99,23.831-10.75c3.376-5.552.365-12.724-4.14-14.731a.6.6,0,0,0-.766.283l-.374.706a.608.608,0,0,1-1.121-.115h0a.605.605,0,0,0-1.09-.167c-1.072,1.722-3.975,4.523-11.761,5.96-11.047,2.039-18.35,6.51-18.53,14.144a.608.608,0,0,1-.941.5c-.816-.5-2.121-.73-3.865.736-3.033,2.551-1.792,9.167,4.857,14.61a.6.6,0,0,1-.028.975c-1.206.784-3,2.652,1.654,5.141,4.763,2.546,7.582,2.268,8.646,2a.608.608,0,0,0,.46-.629l-.418-6.766a.608.608,0,0,1,.607-.645Z" fill="url(#linear-gradient-46)"/>
              <path id="Path_163" data-name="Path 163" d="M450.792,1152.538s-2.45-9.424-6.675-6.782,2.192,10.56,5.589,10.912Z" fill="url(#linear-gradient-47)"/>
            </g>
          </g>
        </g>
      </g>
      <g id="Group_78" data-name="Group 78">
        <path id="Path_164" data-name="Path 164" d="M985.979,1489.439a18.983,18.983,0,0,0,24.774,10.158l303.652-126.089a18.984,18.984,0,0,0,10.252-24.813L1135.8,893.9a18.983,18.983,0,0,0-24.765-10.272L804.617,1009.9a18.985,18.985,0,0,0-10.26,24.926Z" fill="url(#linear-gradient-48)"/>
        <path id="Path_165" data-name="Path 165" d="M854.361,1031.742a6.92,6.92,0,0,0-3.737,9.045l.933,2.248a6.92,6.92,0,0,0,9.045,3.737l251.224-104.318a6.921,6.921,0,0,0,3.737-9.045l-.933-2.248a6.92,6.92,0,0,0-9.045-3.737Z" fill="#fff" opacity="0.38"/>
        <path id="Path_166" data-name="Path 166" d="M908.882,1149.783c-3.083,1.33-4.355,5.254-2.84,8.763l.964,2.235c1.515,3.509,5.242,5.274,8.325,3.944l219.438-94.72c3.083-1.331,4.355-5.254,2.84-8.763l-.964-2.235c-1.515-3.509-5.242-5.275-8.325-3.944Z" fill="#fff" opacity="0.38"/>
        <path id="Path_167" data-name="Path 167" d="M973.668,1289.883c-3.083,1.331-4.354,5.254-2.84,8.763l.965,2.235c1.515,3.509,5.242,5.275,8.325,3.944l219.438-94.72c3.083-1.33,4.354-5.254,2.84-8.763l-.965-2.234c-1.515-3.509-5.242-5.275-8.325-3.944Z" fill="#fff" opacity="0.38"/>
        <path id="Path_168" data-name="Path 168" d="M998.911,1344.979c-3.083,1.331-4.355,5.254-2.84,8.763l.965,2.235c1.514,3.509,5.241,5.275,8.324,3.944L1224.8,1265.2c3.083-1.33,4.355-5.254,2.84-8.763l-.965-2.235c-1.514-3.509-5.241-5.274-8.324-3.943Z" fill="#fff" opacity="0.38"/>
        <path id="Path_169" data-name="Path 169" d="M1016.948,1399.386c-3.083,1.331-4.354,5.254-2.84,8.763l.965,2.235c1.514,3.509,5.242,5.275,8.325,3.944l219.437-94.719c3.083-1.331,4.355-5.255,2.84-8.764l-.964-2.234c-1.515-3.509-5.242-5.275-8.325-3.944Z" fill="#fff" opacity="0.38"/>
        <path id="Path_170" data-name="Path 170" d="M890.4,1057.422h0a6.921,6.921,0,0,0,8.775,3.443l221.37-87.228a6.921,6.921,0,0,0,3.854-9.093l-.217-.521a6.919,6.919,0,0,0-8.943-3.779l-221.153,87.75A6.92,6.92,0,0,0,890.4,1057.422Z" fill="#fff" opacity="0.38"/>
        <path id="Path_171" data-name="Path 171" d="M1028.08,1454.966l.183-.077,246.224-105.725a16.421,16.421,0,0,0,8.563-21.67L1137.287,994.443a16.418,16.418,0,0,0-21.631-8.455l-245.03,107.385a16.444,16.444,0,0,0-8.46,21.6h0l144.569,331.392A16.457,16.457,0,0,0,1028.08,1454.966Zm-160.9-342.175a10.972,10.972,0,0,1,5.644-14.415l245.03-107.384a10.952,10.952,0,0,1,14.432,5.642l8.085,18.473-266.927,110.84a2.792,2.792,0,0,0-.427.225Zm144.569,331.391-136.577-313.07a2.764,2.764,0,0,0,.367-.12l267.023-110.879,135.488,309.572a10.955,10.955,0,0,1-5.714,14.459l-246.225,105.725-.121.051A10.98,10.98,0,0,1,1011.744,1444.182Z" fill="#fff" opacity="0.38"/>
      </g>
      <g id="Group_115" data-name="Group 115">
        <path id="Path_172" data-name="Path 172" d="M1650.567,1472.346H1528.015l55.047-1347.13,7.607.945Z" fill="url(#linear-gradient-49)"/>
        <rect id="Rectangle_41" data-name="Rectangle 41" width="573.958" height="57.525" transform="translate(1301.474 1299.772)" fill="url(#linear-gradient-50)"/>
        <rect id="Rectangle_42" data-name="Rectangle 42" width="675.896" height="57.525" transform="translate(1252.72 1357.297)" fill="url(#linear-gradient-51)"/>
        <rect id="Rectangle_43" data-name="Rectangle 43" width="777.834" height="57.525" transform="translate(1199.535 1414.822)" fill="url(#linear-gradient-52)"/>
        <rect id="Rectangle_44" data-name="Rectangle 44" width="909.173" height="22.806" transform="translate(1156.942 423.145)" fill="url(#linear-gradient-53)"/>
        <path id="Path_173" data-name="Path 173" d="M892.939,797.2l-3.856-2.889L1172.215,416.5,1385.821,794.57l-4.2,2.37L1171.647,425.289Z" fill="url(#linear-gradient-8)"/>
        <circle id="Ellipse_2" data-name="Ellipse 2" cx="30.243" cy="30.243" r="30.243" transform="translate(1141.688 400.165)" fill="url(#linear-gradient-55)"/>
        <path id="Path_174" data-name="Path 174" d="M1774.91,805.276l-3.855-2.889,283.13-377.813,213.606,378.073-4.2,2.37L2053.618,433.366Z" fill="url(#linear-gradient-56)"/>
        <circle id="Ellipse_3" data-name="Ellipse 3" cx="87.487" cy="87.487" r="87.487" transform="translate(1500.415 360.797)" fill="url(#linear-gradient-55)"/>
        <circle id="Ellipse_4" data-name="Ellipse 4" cx="30.243" cy="30.243" r="30.243" transform="translate(2016.323 401.921)" fill="url(#linear-gradient-55)"/>
        <g id="Group_80" data-name="Group 80">
          <circle id="Ellipse_5" data-name="Ellipse 5" cx="223.659" cy="223.659" r="223.659" transform="translate(1700.474 703.509) rotate(-45)" fill="url(#linear-gradient-59)"/>
          <circle id="Ellipse_6" data-name="Ellipse 6" cx="216.223" cy="216.223" r="216.223" transform="translate(1710.991 703.509) rotate(-45)" fill="url(#linear-gradient-60)"/>
          <path id="Path_175" data-name="Path 175" d="M1838.478,617.729a4.037,4.037,0,0,1-3.6-5.854,202.776,202.776,0,0,1,181.9-112,205.163,205.163,0,0,1,36.732,3.308,4.035,4.035,0,1,1-1.447,7.939,197.468,197.468,0,0,0-35.285-3.174,194.748,194.748,0,0,0-174.691,107.56A4.035,4.035,0,0,1,1838.478,617.729Z" fill="#fff" opacity="0.63"/>
          <circle id="Ellipse_7" data-name="Ellipse 7" cx="183.005" cy="183.005" r="183.005" transform="translate(1762.679 708.221) rotate(-45)" fill="#fff" opacity="0.63"/>
          <g id="Group_79" data-name="Group 79">
            <path id="Path_176" data-name="Path 176" d="M2003.529,844.269v-19.91c-20.756-.831-41.286-5.729-55.867-12.112a11.518,11.518,0,0,1-6.365-13.606l5.058-18.546a11.609,11.609,0,0,1,15.758-7.6c14.464,6.063,32.323,10.861,51.581,10.861,19.991,0,34.9-6.778,34.9-20.671,0-12.536-11.52-19.99-39.305-27.443-39.643-10.843-68.106-28.124-68.106-63.025,0-31.513,23.042-55.57,63.024-62.007V590.3a11.6,11.6,0,0,1,11.6-11.6h11.7a11.6,11.6,0,0,1,11.6,11.6V608.18c19.206.769,33.187,4.054,44.282,7.952a11.543,11.543,0,0,1,7.213,13.935l-4.651,17.152a11.569,11.569,0,0,1-15.273,7.813,120.787,120.787,0,0,0-43.429-7.885c-23.719,0-30.495,9.826-30.495,18.636,0,10.842,14.231,18.3,45.064,27.784,44.049,13.216,62.346,31.512,62.346,64.38,0,30.156-22.362,57.263-65.733,64.041v22.281a11.6,11.6,0,0,1-11.6,11.6h-11.7A11.6,11.6,0,0,1,2003.529,844.269Z" fill="url(#linear-gradient-61)"/>
          </g>
        </g>
        <g id="Group_82" data-name="Group 82">
          <circle id="Ellipse_8" data-name="Ellipse 8" cx="181.37" cy="181.37" r="181.37" transform="translate(804.767 712.056) rotate(-45)" fill="url(#linear-gradient-62)"/>
          <circle id="Ellipse_9" data-name="Ellipse 9" cx="175.339" cy="175.339" r="175.339" transform="translate(813.296 712.056) rotate(-45)" fill="url(#linear-gradient-63)"/>
          <path id="Path_177" data-name="Path 177" d="M908.126,664.172a3.274,3.274,0,0,1-3.576-4.274,164.438,164.438,0,0,1,132.793-111.231,166.337,166.337,0,0,1,29.861-1.66,3.272,3.272,0,1,1-.228,6.54,160.184,160.184,0,0,0-28.685,1.6A157.928,157.928,0,0,0,910.759,661.968,3.269,3.269,0,0,1,908.126,664.172Z" fill="#fff" opacity="0.63"/>
          <circle id="Ellipse_10" data-name="Ellipse 10" cx="148.402" cy="148.402" r="148.402" transform="translate(909.923 856.04) rotate(-87.119)" fill="#fff" opacity="0.63"/>
          <g id="Group_81" data-name="Group 81">
            <path id="Path_178" data-name="Path 178" d="M1067.168,826.553l-2.339-15.975c-16.751,1.771-33.8.253-46.248-3.156a9.34,9.34,0,0,1-6.705-10.169l1.88-15.475a9.414,9.414,0,0,1,11.751-7.946,109.321,109.321,0,0,0,42.663,2.655c16.04-2.348,27.206-9.537,25.574-20.684-1.472-10.059-11.591-14.686-34.76-17.4-33.082-4.043-57.95-14.566-62.05-42.569-3.7-25.285,11.961-47.294,43.285-57.155L1037.88,622.7a9.407,9.407,0,0,1,7.945-10.671l9.386-1.374a9.408,9.408,0,0,1,10.671,7.946l2.1,14.344c15.5-1.639,27.1-.646,36.464,1.179a9.36,9.36,0,0,1,7.425,10.334l-1.718,14.308a9.381,9.381,0,0,1-11.336,8.063,97.968,97.968,0,0,0-35.773-1.225c-19.031,2.786-23.313,11.466-22.278,18.534,1.273,8.7,13.567,13.009,39.421,17,36.9,5.429,53.726,17.96,57.587,44.332,3.542,24.2-11.216,48.573-45.22,59.106l2.617,17.878a9.407,9.407,0,0,1-7.945,10.671l-9.387,1.374A9.408,9.408,0,0,1,1067.168,826.553Z" fill="url(#linear-gradient-64)"/>
          </g>
        </g>
        <g id="Group_84" data-name="Group 84">
          <circle id="Ellipse_11" data-name="Ellipse 11" cx="181.37" cy="181.37" r="181.37" transform="translate(946.753 712.056) rotate(-45)" fill="url(#linear-gradient-65)"/>
          <circle id="Ellipse_12" data-name="Ellipse 12" cx="175.339" cy="175.339" r="175.339" transform="translate(955.282 712.056) rotate(-45)" fill="url(#linear-gradient-66)"/>
          <path id="Path_179" data-name="Path 179" d="M1077.889,611.912a3.273,3.273,0,0,1-1.782-5.28,164.433,164.433,0,0,1,164.083-55.521,166.339,166.339,0,0,1,28.432,9.278,3.272,3.272,0,1,1-2.584,6.013,160.068,160.068,0,0,0-27.313-8.91,157.924,157.924,0,0,0-157.582,53.32A3.271,3.271,0,0,1,1077.889,611.912Z" fill="#fff" opacity="0.63"/>
          <circle id="Ellipse_13" data-name="Ellipse 13" cx="148.403" cy="148.403" r="148.403" transform="translate(996.245 716.634) rotate(-45)" fill="#fff" opacity="0.63"/>
          <g id="Group_83" data-name="Group 83">
            <path id="Path_180" data-name="Path 180" d="M1167.243,820.905l3.612-15.737c-16.254-4.422-31.592-12.018-41.958-19.708a9.338,9.338,0,0,1-2.562-11.908l7.362-13.74a9.412,9.412,0,0,1,13.832-3.145,109.325,109.325,0,0,0,38.8,17.941c15.8,3.627,28.813.975,31.334-10.006,2.274-9.908-5.479-17.889-26.087-28.821-29.366-15.761-48.727-34.583-42.4-62.168,5.717-24.907,28.293-39.74,61.061-37.574l3.613-15.738a9.406,9.406,0,0,1,11.273-7.064l9.246,2.122a9.407,9.407,0,0,1,7.064,11.273l-3.243,14.13c15.04,4.092,25.494,9.224,33.556,14.318a9.361,9.361,0,0,1,3.173,12.323l-6.788,12.712a9.382,9.382,0,0,1-13.488,3.405,97.968,97.968,0,0,0-32.9-14.111c-18.747-4.3-25.884,2.234-27.483,9.2-1.967,8.569,7.929,17.042,30.577,30.135,32.418,18.436,43.559,36.216,37.6,62.193-5.471,23.835-28.063,41.2-63.572,38.692l-4.042,17.61a9.407,9.407,0,0,1-11.273,7.065l-9.247-2.122A9.407,9.407,0,0,1,1167.243,820.905Z" fill="url(#linear-gradient-67)"/>
          </g>
        </g>
        <g id="Group_99" data-name="Group 99">
          <g id="Group_88" data-name="Group 88">
            <g id="Group_87" data-name="Group 87">
              <rect id="Rectangle_45" data-name="Rectangle 45" width="147.237" height="314.193" transform="translate(895.013 664.505) rotate(-31.403)" fill="#7d97f4"/>
              <path id="Path_181" data-name="Path 181" d="M1148.189,857.269l-71.424,43.6c-3.425-5.611-11.939-7.3-18.305-3.41-.2.124-.344.16-.9.513L925.644,681.882c.568-.332.693-.4.9-.518,6.366-3.886,8.857-11.734,5.289-17.579-.052-.086.053-.224.053-.224l69.816-42.62c5.823,9.537,12.947,6.814,19.312,2.928.2-.123.017-.2.011-.21L1152.936,839.75c-.006-.01.118-.035-.084.088A12.8,12.8,0,0,0,1148.189,857.269Z" fill="#fff" opacity="0.5"/>
              <g id="Group_86" data-name="Group 86">
                <circle id="Ellipse_14" data-name="Ellipse 14" cx="46.009" cy="46.009" r="46.009" transform="translate(975.133 752.504) rotate(-38.327)" fill="url(#linear-gradient-68)"/>
                <g id="Group_85" data-name="Group 85">
                  <path id="Path_182" data-name="Path 182" d="M1010.857,772.271l4.153-2.535a39.683,39.683,0,0,1-4.587-13.193,2.814,2.814,0,0,1,2.027-3.06l4.512-1.307a2.837,2.837,0,0,1,3.591,2.32,32.932,32.932,0,0,0,4.3,12.14c2.545,4.17,5.857,6.416,8.754,4.647,2.615-1.6,2.7-4.948.719-11.691-2.786-9.649-2.805-17.785,4.473-22.229,6.573-4.012,14.524-2.269,20.957,5.25l4.152-2.535a2.835,2.835,0,0,1,3.9.942l1.489,2.44a2.834,2.834,0,0,1-.942,3.9l-3.729,2.277a36.185,36.185,0,0,1,3.98,10.247,2.822,2.822,0,0,1-1.988,3.279l-4.17,1.213a2.827,2.827,0,0,1-3.574-2.19,29.512,29.512,0,0,0-3.884-10.061c-3.02-4.947-5.932-5.109-7.77-3.988-2.261,1.381-2,5.3-.057,12.936,2.852,10.87,1.366,17.015-5.489,21.2-6.289,3.839-14.79,2.627-21.725-5.556l-4.647,2.837a2.835,2.835,0,0,1-3.9-.943l-1.489-2.44A2.834,2.834,0,0,1,1010.857,772.271Z" fill="#fff"/>
                </g>
              </g>
            </g>
            <path id="Path_183" data-name="Path 183" d="M1057.417,667.693a1.445,1.445,0,0,1-1.236-.692l-39.489-64.688-22.61,13.8a1.445,1.445,0,0,1-1.507-2.467l23.844-14.556a1.446,1.446,0,0,1,1.987.481l40.243,65.921a1.446,1.446,0,0,1-1.232,2.2Z" fill="#fff"/>
            <path id="Path_184" data-name="Path 184" d="M1061.332,921.364a1.4,1.4,0,0,1-.34-.041,1.442,1.442,0,0,1-.894-.652l-39.9-65.36a1.445,1.445,0,1,1,2.467-1.506l39.147,64.127,23.171-14.146a1.445,1.445,0,0,1,1.507,2.467l-24.405,14.9A1.453,1.453,0,0,1,1061.332,921.364Z" fill="#fff"/>
          </g>
          <g id="Group_92" data-name="Group 92">
            <g id="Group_91" data-name="Group 91">
              <rect id="Rectangle_46" data-name="Rectangle 46" width="148.273" height="313.395" transform="matrix(0.786, -0.619, 0.619, 0.786, 899.835, 684.469)" fill="#91b3fa"/>
              <path id="Path_185" data-name="Path 185" d="M1173.987,844.582l-65.735,51.782c-3.476-4.412-12.419-5.645-18.277-1.03a3.433,3.433,0,0,0-.528.794L932.781,697.248c.007.009.54-.4.726-.542,5.859-4.616,7.33-12.69,3.093-18.07a.328.328,0,0,1-.045-.214l64.256-50.616c6.95,8.823,14.015,4.992,19.873.377a1.334,1.334,0,0,0,.336-.444L1177.685,826.62a.973.973,0,0,0-.607.1C1171.22,831.334,1170.511,840.17,1173.987,844.582Z" fill="#fff" opacity="0.5"/>
              <g id="Group_90" data-name="Group 90">
                <circle id="Ellipse_15" data-name="Ellipse 15" cx="46.009" cy="46.009" r="46.009" transform="matrix(0.611, -0.791, 0.791, 0.611, 990.642, 769.759)" fill="url(#linear-gradient-69)"/>
                <g id="Group_89" data-name="Group 89">
                  <path id="Path_186" data-name="Path 186" d="M1027.933,777.026l3.821-3.011a39.675,39.675,0,0,1-6.122-12.555,2.815,2.815,0,0,1,1.649-3.279l4.325-1.833a2.837,2.837,0,0,1,3.841,1.876,32.929,32.929,0,0,0,5.714,11.543c3.023,3.837,6.578,5.674,9.245,3.574,2.406-1.9,2.095-5.234-.676-11.694-3.913-9.249-4.9-17.326,1.8-22.6,6.049-4.765,14.15-3.979,21.431,2.722l3.822-3.011a2.835,2.835,0,0,1,3.981.473l1.769,2.245a2.834,2.834,0,0,1-.473,3.981l-3.431,2.7a36.182,36.182,0,0,1,5.169,9.7,2.821,2.821,0,0,1-1.584,3.492l-4,1.7a2.827,2.827,0,0,1-3.809-1.75,29.5,29.5,0,0,0-5.053-9.528c-3.586-4.553-6.5-4.368-8.188-3.036-2.081,1.64-1.36,5.5,1.481,12.851,4.124,10.454,3.378,16.732-2.931,21.7-5.788,4.56-14.372,4.366-22.231-2.934l-4.277,3.369a2.834,2.834,0,0,1-3.981-.473l-1.769-2.246A2.833,2.833,0,0,1,1027.933,777.026Z" fill="#fff"/>
                </g>
              </g>
            </g>
            <path id="Path_187" data-name="Path 187" d="M1061.638,667.132a1.442,1.442,0,0,1-1.136-.551l-46.72-59.309L992.417,624.1a1.446,1.446,0,0,1-1.789-2.272l22.5-17.725a1.457,1.457,0,0,1,1.065-.3,1.44,1.44,0,0,1,.964.541l47.615,60.444a1.444,1.444,0,0,1-1.135,2.339Z" fill="#fff" opacity="0.5"/>
            <path id="Path_188" data-name="Path 188" d="M1095.358,918.691a1.441,1.441,0,0,1-1.136-.551L1047.3,858.579a1.445,1.445,0,1,1,2.271-1.788l46.024,58.425,21.365-16.831a1.446,1.446,0,0,1,1.789,2.272l-22.5,17.725A1.444,1.444,0,0,1,1095.358,918.691Z" fill="#fff"/>
          </g>
          <g id="Group_98" data-name="Group 98">
            <g id="Group_96" data-name="Group 96">
              <g id="Group_95" data-name="Group 95">
                <rect id="Rectangle_47" data-name="Rectangle 47" width="146.58" height="313.536" transform="translate(900.406 721.526) rotate(-51.02)" fill="#7d97f4"/>
                <path id="Path_189" data-name="Path 189" d="M1202.9,817.922l-52.639,65.05c-5.11-4.135-13.437-2.847-18.129,2.95-.149.185-.011.282-.416.8L934.91,727.463c.423-.5.425-.488.574-.672,4.692-5.8,4.448-13.894-.875-18.2-.078-.064.019-.1.019-.1l51.455-63.587c8.686,7.03,14.485,1.882,19.177-3.916.149-.184-.049-.384-.058-.392l196.809,159.26a.237.237,0,0,0-.309.1C1197.011,805.751,1197.794,813.787,1202.9,817.922Z" fill="#fff" opacity="0.5"/>
                <g id="Group_94" data-name="Group 94">
                  <circle id="Ellipse_16" data-name="Ellipse 16" cx="46.009" cy="46.009" r="46.009" transform="translate(1006.975 741.742) rotate(-25.904)" fill="#7d97f4"/>
                  <g id="Group_93" data-name="Group 93">
                    <path id="Path_190" data-name="Path 190" d="M1045.335,784.23l3.06-3.782a39.67,39.67,0,0,1-8.75-10.888,2.814,2.814,0,0,1,.882-3.563l3.812-2.745a2.836,2.836,0,0,1,4.16.979,32.949,32.949,0,0,0,8.129,9.992c3.8,3.072,7.671,4.077,9.806,1.438,1.927-2.381.885-5.568-3.248-11.255-5.863-8.153-8.613-15.81-3.249-22.439,4.844-5.986,12.918-7.014,21.5-2.091l3.06-3.782a2.834,2.834,0,0,1,3.987-.421l2.222,1.8a2.835,2.835,0,0,1,.42,3.987l-2.748,3.4a36.2,36.2,0,0,1,7.189,8.317,2.82,2.82,0,0,1-.772,3.756l-3.519,2.543a2.827,2.827,0,0,1-4.1-.863,29.516,29.516,0,0,0-7.038-8.173c-4.505-3.646-7.3-2.821-8.657-1.148-1.666,2.06-.109,5.663,4.289,12.205,6.336,9.28,7,15.568,1.947,21.811-4.635,5.728-13.049,7.44-22.329,2.061l-3.425,4.232a2.836,2.836,0,0,1-3.987.421l-2.222-1.8A2.834,2.834,0,0,1,1045.335,784.23Z" fill="#fff"/>
                  </g>
                </g>
              </g>
              <path id="Path_191" data-name="Path 191" d="M1053.455,669.676a1.439,1.439,0,0,1-.908-.322l-58.916-47.675-17.077,21.1a1.445,1.445,0,0,1-2.247-1.818l17.986-22.228a1.45,1.45,0,0,1,.972-.529,1.477,1.477,0,0,1,1.061.315l60.039,48.584a1.446,1.446,0,0,1-.91,2.569Z" fill="#fff" opacity="0.5"/>
              <path id="Path_192" data-name="Path 192" d="M1142.408,908.232a1.445,1.445,0,0,1-.909-.321l-59.528-48.171a1.445,1.445,0,1,1,1.818-2.247l58.4,47.261,17.077-21.1a1.446,1.446,0,0,1,2.248,1.819L1143.532,907.7a1.449,1.449,0,0,1-.973.529C1142.509,908.23,1142.458,908.232,1142.408,908.232Z" fill="#fff" opacity="0.5"/>
            </g>
            <g id="Group_97" data-name="Group 97">
              <path id="Path_193" data-name="Path 193" d="M1001.09,711.257a13.032,13.032,0,1,1-1.933-18.329A13.031,13.031,0,0,1,1001.09,711.257Z" fill="#7d97f4"/>
              <circle id="Ellipse_17" data-name="Ellipse 17" cx="13.033" cy="13.033" r="13.033" transform="translate(1125.004 825.042) rotate(-40.763)" fill="#7d97f4"/>
            </g>
          </g>
        </g>
        <path id="Path_194" data-name="Path 194" d="M1137.367,1042.111c136.059,0,246.356-110.3,246.356-246.356H891.011C891.011,931.814,1001.309,1042.111,1137.367,1042.111Z" fill="url(#linear-gradient-70)"/>
        <rect id="Rectangle_48" data-name="Rectangle 48" width="537.216" height="37.516" rx="12" transform="translate(865.745 770.384)" fill="url(#linear-gradient-71)"/>
        <g id="Group_114" data-name="Group 114">
          <g id="Group_103" data-name="Group 103">
            <g id="Group_102" data-name="Group 102">
              <rect id="Rectangle_49" data-name="Rectangle 49" width="147.237" height="314.193" transform="translate(2058.519 521.925) rotate(-3.171)" fill="#7d97f4"/>
              <path id="Path_195" data-name="Path 195" d="M2190.392,811.52l-83.552,4.629c-.364-6.563-7.068-12.075-14.515-11.663-.237.014-.378-.021-1.034.027l-14.005-252.788c.657-.024.8-.02,1.034-.033,7.446-.413,13.354-6.149,12.975-12.986,0-.1.153-.172.153-.172l81.671-4.525c.619,11.157,8.183,12.128,15.63,11.716.236-.014.109-.169.108-.181l14.005,252.787c0-.011.12.025-.116.038A12.805,12.805,0,0,0,2190.392,811.52Z" fill="#fff" opacity="0.5"/>
              <g id="Group_101" data-name="Group 101">
                <circle id="Ellipse_18" data-name="Ellipse 18" cx="46.009" cy="46.009" r="46.009" transform="translate(2078.223 656.909) rotate(-29.234)" fill="url(#linear-gradient-72)"/>
                <g id="Group_100" data-name="Group 100">
                  <path id="Path_196" data-name="Path 196" d="M2109.6,671.671l4.857-.27a39.69,39.69,0,0,1,2.2-13.793,2.815,2.815,0,0,1,3.234-1.737l4.593.983a2.837,2.837,0,0,1,2.066,3.742,32.925,32.925,0,0,0-1.952,12.731c.27,4.878,2.125,8.424,5.514,8.236,3.059-.17,4.722-3.081,6.165-9.961,2.109-9.818,5.941-17,14.455-17.468,7.689-.426,13.87,4.871,15.98,14.538l4.858-.269a2.836,2.836,0,0,1,2.988,2.674l.158,2.854a2.836,2.836,0,0,1-2.674,2.987l-4.361.241a36.171,36.171,0,0,1-1.342,10.911,2.82,2.82,0,0,1-3.3,1.949l-4.248-.9a2.827,2.827,0,0,1-2.112-3.621,29.514,29.514,0,0,0,1.336-10.7c-.32-5.787-2.809-7.307-4.959-7.188-2.645.146-4.271,3.719-6.169,11.37-2.629,10.925-6.845,15.637-14.864,16.081-7.358.407-14.273-4.682-16.513-15.172l-5.436.3a2.834,2.834,0,0,1-2.988-2.673l-.158-2.854A2.835,2.835,0,0,1,2109.6,671.671Z" fill="#fff"/>
                </g>
              </g>
            </g>
            <path id="Path_197" data-name="Path 197" d="M2200.776,601.729a1.446,1.446,0,0,1-1.442-1.366l-4.192-75.672-26.45,1.466a1.446,1.446,0,0,1-.16-2.887l27.893-1.546a1.458,1.458,0,0,1,1.044.366,1.443,1.443,0,0,1,.479,1l4.272,77.116a1.445,1.445,0,0,1-1.363,1.524Z" fill="#fff"/>
            <path id="Path_198" data-name="Path 198" d="M2084.232,827.076a1.444,1.444,0,0,1-1.443-1.366l-4.236-76.458a1.445,1.445,0,1,1,2.886-.16l4.156,75.015,27.106-1.5a1.446,1.446,0,0,1,.16,2.887l-28.549,1.582Z" fill="#fff"/>
          </g>
          <g id="Group_107" data-name="Group 107">
            <g id="Group_106" data-name="Group 106">
              <rect id="Rectangle_50" data-name="Rectangle 50" width="148.273" height="313.395" transform="translate(2053.324 541.795) rotate(-9.997)" fill="#91b3fa"/>
              <path id="Path_199" data-name="Path 199" d="M2219.122,812.546l-82.41,14.527c-.975-5.531-8.27-10.848-15.615-9.553a3.461,3.461,0,0,0-.841.45L2076.3,568.639c0,.011.664-.093.9-.134,7.345-1.295,12.46-7.713,11.271-14.457a.335.335,0,0,1,.063-.21l80.555-14.2c1.95,11.062,9.986,11.028,17.331,9.734a1.337,1.337,0,0,0,.506-.233l43.95,249.331a.972.972,0,0,0-.582-.2C2222.951,799.565,2218.148,807.015,2219.122,812.546Z" fill="#fff" opacity="0.5"/>
              <g id="Group_105" data-name="Group 105">
                <circle id="Ellipse_19" data-name="Ellipse 19" cx="46.009" cy="46.009" r="46.009" transform="translate(2091.548 664.069) rotate(-27.974)" fill="url(#linear-gradient-73)"/>
                <g id="Group_104" data-name="Group 104">
                  <path id="Path_200" data-name="Path 200" d="M2122.4,683.937l4.791-.845a39.649,39.649,0,0,1,.545-13.957,2.814,2.814,0,0,1,3-2.109l4.677.431a2.836,2.836,0,0,1,2.5,3.469,32.926,32.926,0,0,0-.426,12.873c.848,4.811,3.112,8.111,6.455,7.522,3.016-.532,4.321-3.62,4.936-10.622.928-10,3.879-17.582,12.277-19.063,7.584-1.337,14.35,3.188,17.595,12.536l4.792-.845a2.834,2.834,0,0,1,3.283,2.3l.5,2.815a2.834,2.834,0,0,1-2.3,3.283l-4.3.759a36.176,36.176,0,0,1-.035,10.993,2.82,2.82,0,0,1-3.047,2.327l-4.325-.392a2.827,2.827,0,0,1-2.528-3.344,29.526,29.526,0,0,0,.055-10.785c-1.006-5.708-3.658-6.921-5.778-6.548-2.609.46-3.8,4.2-4.774,12.023-1.312,11.161-4.939,16.339-12.848,17.734-7.257,1.279-14.728-2.953-18.2-13.1l-5.362.945a2.834,2.834,0,0,1-3.284-2.3l-.5-2.816A2.834,2.834,0,0,1,2122.4,683.937Z" fill="#fff"/>
                </g>
              </g>
            </g>
            <path id="Path_201" data-name="Path 201" d="M2204.76,603.231a1.444,1.444,0,0,1-1.421-1.194l-13.107-74.353-26.785,4.722a1.446,1.446,0,0,1-.5-2.848l28.209-4.972a1.446,1.446,0,0,1,1.674,1.172l13.358,75.777a1.441,1.441,0,0,1-1.426,1.7Z" fill="#fff" opacity="0.5"/>
            <path id="Path_202" data-name="Path 202" d="M2115.474,840.817a1.446,1.446,0,0,1-1.423-1.194l-13.163-74.67a1.446,1.446,0,0,1,2.847-.5l12.912,73.247,26.785-4.722a1.446,1.446,0,0,1,.5,2.848l-28.209,4.972A1.506,1.506,0,0,1,2115.474,840.817Z" fill="#fff"/>
          </g>
          <g id="Group_113" data-name="Group 113">
            <g id="Group_111" data-name="Group 111">
              <g id="Group_110" data-name="Group 110">
                <rect id="Rectangle_51" data-name="Rectangle 51" width="313.536" height="146.58" transform="translate(2048.822 819.49) rotate(-73.07)" fill="#7d97f4"/>
                <path id="Path_203" data-name="Path 203" d="M2164.342,836.1l-80.054-24.368c1.914-6.288-2.405-13.523-9.54-15.7-.227-.069-.266.1-.9-.085l73.724-242.2c.625.2.612.211.839.28,7.135,2.171,14.547-1.094,16.541-7.645.03-.1.1-.019.1-.019l78.252,23.82c-3.254,10.69,3.694,14.132,10.829,16.3.227.069.338-.19.342-.2l-73.724,242.2c0-.011.022-.181-.205-.25C2173.41,826.072,2166.256,829.814,2164.342,836.1Z" fill="#fff" opacity="0.5"/>
                <g id="Group_109" data-name="Group 109">
                  <circle id="Ellipse_20" data-name="Ellipse 20" cx="46.009" cy="46.009" r="46.009" transform="matrix(0.815, -0.579, 0.579, 0.815, 2100.594, 680.023)" fill="#7d97f4"/>
                  <g id="Group_108" data-name="Group 108">
                    <path id="Path_204" data-name="Path 204" d="M2136.415,677.411l4.654,1.416a39.671,39.671,0,0,1,6.807-12.2,2.814,2.814,0,0,1,3.633-.52l3.976,2.5a2.837,2.837,0,0,1,.654,4.224,32.931,32.931,0,0,0-6.209,11.285c-1.422,4.673-.9,8.64,2.349,9.629,2.93.892,5.492-1.271,9.212-7.235,5.355-8.5,11.42-13.92,19.578-11.437,7.367,2.243,11.351,9.341,10.01,19.145l4.655,1.417a2.834,2.834,0,0,1,1.886,3.537l-.832,2.735a2.834,2.834,0,0,1-3.537,1.886l-4.179-1.272a36.185,36.185,0,0,1-5.01,9.785,2.821,2.821,0,0,1-3.771.7l-3.678-2.308a2.827,2.827,0,0,1-.74-4.126,29.51,29.51,0,0,0,4.934-9.591c1.687-5.544-.128-7.827-2.187-8.454-2.534-.772-5.289,2.024-9.7,8.557-6.224,9.357-11.8,12.332-19.486,9.993-7.049-2.146-11.794-9.3-10.293-19.922l-5.208-1.586a2.836,2.836,0,0,1-1.887-3.537l.833-2.735A2.834,2.834,0,0,1,2136.415,677.411Z" fill="#fff"/>
                  </g>
                </g>
              </g>
              <path id="Path_205" data-name="Path 205" d="M2246.979,642.834a1.413,1.413,0,0,1-.422-.063,1.444,1.444,0,0,1-.961-1.8l22.069-72.5-25.971-7.9a1.445,1.445,0,1,1,.841-2.765l27.354,8.326a1.444,1.444,0,0,1,.962,1.8l-22.49,73.887A1.443,1.443,0,0,1,2246.979,642.834Z" fill="#fff" opacity="0.5"/>
              <path id="Path_206" data-name="Path 206" d="M2086.62,823.166a1.435,1.435,0,0,1-.421-.063l-27.354-8.327a1.444,1.444,0,0,1-.962-1.8l22.3-73.257a1.446,1.446,0,0,1,2.766.841l-21.879,71.875,25.972,7.906a1.445,1.445,0,0,1-.421,2.828Z" fill="#fff" opacity="0.5"/>
            </g>
            <g id="Group_112" data-name="Group 112">
              <circle id="Ellipse_21" data-name="Ellipse 21" cx="13.033" cy="13.033" r="13.033" transform="translate(2175.154 587.532) rotate(-15.746)" fill="#7d97f4"/>
              <path id="Path_207" data-name="Path 207" d="M2130.341,796.59a13.033,13.033,0,1,1,16.263-8.673A13.033,13.033,0,0,1,2130.341,796.59Z" fill="#7d97f4"/>
            </g>
          </g>
        </g>
        <path id="Path_208" data-name="Path 208" d="M2019.338,1050.188c136.059,0,246.356-110.3,246.356-246.355H1772.982C1772.982,939.891,1883.279,1050.188,2019.338,1050.188Z" fill="url(#linear-gradient-74)"/>
        <rect id="Rectangle_52" data-name="Rectangle 52" width="537.216" height="37.516" rx="12" transform="translate(1747.715 778.461)" fill="url(#linear-gradient-75)"/>
      </g>
      <g id="Group_120" data-name="Group 120">
        <g id="Group_119" data-name="Group 119">
          <g id="Group_116" data-name="Group 116">
            <path id="Path_209" data-name="Path 209" d="M1485.712,1070.934c2.005,71.625,8.51,318.689,5.4,406.241-.329,9.276-8.728,16.721-19.2,17.024-51.816,1.5-241.768,5.306-326.521,2.158-17.653-.656-31.691-13.315-32.057-28.954-1.762-75.18-5.647-286.634,3.588-383.5,1.107-11.606,11.4-20.848,24.487-22.008,56.43-5,247.2-17.214,320.421-13.007C1475.036,1049.645,1485.384,1059.221,1485.712,1070.934Z" fill="url(#linear-gradient-76)"/>
            <rect id="Rectangle_53" data-name="Rectangle 53" width="332.164" height="102.853" rx="21.076" transform="translate(1138.665 1081.437)" fill="url(#linear-gradient-77)"/>
            <path id="Path_210" data-name="Path 210" d="M1154.087,1099.532a13.89,13.89,0,0,1,9.838-4.058l271.4.513a13.892,13.892,0,0,1,13.827,12.843l4.567,60.3c.374,4.937-7.808,8.942-18.148,8.884l-266.808-1.51c-10.324-.058-18.787-4.147-18.785-9.074l.026-58.064A13.893,13.893,0,0,1,1154.087,1099.532Z" fill="#fff" opacity="0.2"/>
          </g>
          <path id="Path_211" data-name="Path 211" d="M1398.327,1245.833a19.391,19.391,0,0,0,19.39,19.391h23.606a19.391,19.391,0,0,0,19.39-19.391h0a19.39,19.39,0,0,0-19.39-19.39h-23.606a19.39,19.39,0,0,0-19.39,19.39Z" fill="url(#linear-gradient-78)"/>
          <path id="Path_212" data-name="Path 212" d="M1310.649,1245.833a19.391,19.391,0,0,0,19.39,19.391h23.606a19.391,19.391,0,0,0,19.39-19.391h0a19.39,19.39,0,0,0-19.39-19.39h-23.606a19.39,19.39,0,0,0-19.39,19.39Z" fill="url(#linear-gradient-79)"/>
          <path id="Path_213" data-name="Path 213" d="M1226.343,1245.833a19.391,19.391,0,0,0,19.39,19.391h23.606a19.391,19.391,0,0,0,19.39-19.391h0a19.39,19.39,0,0,0-19.39-19.39h-23.606a19.39,19.39,0,0,0-19.39,19.39Z" fill="url(#linear-gradient-80)"/>
          <path id="Path_214" data-name="Path 214" d="M1140.883,1248.68a19.7,19.7,0,0,0,19.7,19.7H1183.4a19.7,19.7,0,0,0,19.705-19.7h0a19.7,19.7,0,0,0-19.705-19.7h-22.815a19.7,19.7,0,0,0-19.7,19.7Z" fill="url(#linear-gradient-81)"/>
          <path id="Path_215" data-name="Path 215" d="M1398.327,1306.533a19.39,19.39,0,0,0,19.39,19.391h23.606a19.39,19.39,0,0,0,19.39-19.391h0a19.39,19.39,0,0,0-19.39-19.39h-23.606a19.39,19.39,0,0,0-19.39,19.39Z" fill="url(#linear-gradient-82)"/>
          <path id="Path_216" data-name="Path 216" d="M1310.649,1306.533a19.39,19.39,0,0,0,19.39,19.391h23.606a19.39,19.39,0,0,0,19.39-19.391h0a19.39,19.39,0,0,0-19.39-19.39h-23.606a19.39,19.39,0,0,0-19.39,19.39Z" fill="url(#linear-gradient-83)"/>
          <path id="Path_217" data-name="Path 217" d="M1226.343,1306.533a19.39,19.39,0,0,0,19.39,19.391h23.606a19.39,19.39,0,0,0,19.39-19.391h0a19.39,19.39,0,0,0-19.39-19.39h-23.606a19.39,19.39,0,0,0-19.39,19.39Z" fill="url(#linear-gradient-84)"/>
          <path id="Path_218" data-name="Path 218" d="M1138.665,1306.533a19.39,19.39,0,0,0,19.391,19.391h23.6a19.39,19.39,0,0,0,19.39-19.391h0a19.39,19.39,0,0,0-19.39-19.39h-23.6a19.391,19.391,0,0,0-19.391,19.39Z" fill="url(#linear-gradient-85)"/>
          <g id="Group_117" data-name="Group 117">
            <path id="Path_219" data-name="Path 219" d="M1398.327,1360.292a19.39,19.39,0,0,0,19.39,19.39h23.606a19.39,19.39,0,0,0,19.39-19.39h0a19.391,19.391,0,0,0-19.39-19.391h-23.606a19.391,19.391,0,0,0-19.39,19.391Z" opacity="0.63" fill="url(#linear-gradient-86)"/>
            <path id="Path_220" data-name="Path 220" d="M1310.649,1360.292a19.39,19.39,0,0,0,19.39,19.39h23.606a19.39,19.39,0,0,0,19.39-19.39h0a19.391,19.391,0,0,0-19.39-19.391h-23.606a19.391,19.391,0,0,0-19.39,19.391Z" opacity="0.63" fill="url(#linear-gradient-87)"/>
            <path id="Path_221" data-name="Path 221" d="M1226.343,1360.292a19.39,19.39,0,0,0,19.39,19.39h23.606a19.39,19.39,0,0,0,19.39-19.39h0a19.391,19.391,0,0,0-19.39-19.391h-23.606a19.391,19.391,0,0,0-19.39,19.391Z" opacity="0.63" fill="url(#linear-gradient-88)"/>
          </g>
          <g id="Group_118" data-name="Group 118">
            <path id="Path_222" data-name="Path 222" d="M1398.327,1419.306a19.39,19.39,0,0,0,19.39,19.39h23.606a19.39,19.39,0,0,0,19.39-19.39h0a19.391,19.391,0,0,0-19.39-19.391h-23.606a19.391,19.391,0,0,0-19.39,19.391Z" opacity="0.63" fill="url(#linear-gradient-89)"/>
            <path id="Path_223" data-name="Path 223" d="M1310.649,1419.306a19.39,19.39,0,0,0,19.39,19.39h23.606a19.39,19.39,0,0,0,19.39-19.39h0a19.391,19.391,0,0,0-19.39-19.391h-23.606a19.391,19.391,0,0,0-19.39,19.391Z" opacity="0.63" fill="url(#linear-gradient-90)"/>
            <path id="Path_224" data-name="Path 224" d="M1226.343,1419.306a19.39,19.39,0,0,0,19.39,19.39h23.606a19.39,19.39,0,0,0,19.39-19.39h0a19.391,19.391,0,0,0-19.39-19.391h-23.606a19.391,19.391,0,0,0-19.39,19.391Z" opacity="0.63" fill="url(#linear-gradient-91)"/>
          </g>
          <rect id="Rectangle_54" data-name="Rectangle 54" width="50.583" height="96.109" rx="24.544" transform="translate(1147.096 1346.157)" fill="url(#linear-gradient-92)"/>
        </g>
      </g>
      <g id="Group_126" data-name="Group 126">
        <path id="Path_225" data-name="Path 225" d="M1599.945,1460.088s2.874,15.41,4.357,30.678a10.529,10.529,0,0,1-9.962,11.5c-20.34,1.041-63.85,3.105-79.475,2.557a3.426,3.426,0,0,1-3.059-4.664h0a7.669,7.669,0,0,1,3.883-4.169l71.58-33.729Z" fill="url(#linear-gradient-93)"/>
        <path id="Path_226" data-name="Path 226" d="M1602.093,1451l-2.015,18.484s-12.538,5.983-21.2-.537l5.019-20.625Z" fill="url(#linear-gradient-94)"/>
        <path id="Path_227" data-name="Path 227" d="M1597.135,1103.9c.992,4.813,7.374,240.56-16.821,346.465a3.587,3.587,0,0,0,2.143,4.152,62.457,62.457,0,0,0,20.566,3.975,6.177,6.177,0,0,0,6.086-4.492c6.97-24.584,40.321-147.744,43.7-265.123,3.781-131.161-.043-4.465-.043-4.465l-3.724-81.017Z" fill="url(#linear-gradient-95)"/>
        <path id="Path_228" data-name="Path 228" d="M1682.727,1467.352s4.415,7.752,8.814,28.418a6.423,6.423,0,0,1-5.578,7.746c-6.713.725-17.048,1.673-25.334,1.7a6.4,6.4,0,0,1-6.409-7.083c.846-7.567,3.587-19.995,12.327-29.744Z" fill="url(#linear-gradient-96)"/>
        <path id="Path_229" data-name="Path 229" d="M1686.313,1443.568l-4.853,27.97s-5.025,3.813-15.063,1.18l2.157-30.065Z" fill="url(#linear-gradient-97)"/>
        <path id="Path_230" data-name="Path 230" d="M1696.961,1110.181c21.8,124.207-1.538,307.516-9.656,343.427a5.588,5.588,0,0,1-4.471,4.287,37.528,37.528,0,0,1-16.13-.491,5.12,5.12,0,0,1-3.726-4.68c-1.411-28.957-1.065-206.815-20.943-276.914a15.963,15.963,0,0,0-6.242-8.749l-37.532-26.146-3.267-42.812Z" fill="url(#linear-gradient-98)"/>
        <g id="Group_121" data-name="Group 121">
          <path id="Path_231" data-name="Path 231" d="M1563.363,875.714c61.765-1.61,130.091,14.98,130.091,14.98,19.438,107.268,5.427,231.341,5.427,231.341-47.7,13-101.846-6.7-101.846-6.7-8.377-44.833-46.67-170.867-46.67-170.867-30.218-3.458-55.165-11.929-75.751-23.246,15.446-18.254,22.59-41.361,25.657-55.008C1522.177,872.8,1544.313,876.211,1563.363,875.714Z" fill="url(#linear-gradient-99)"/>
          <path id="Path_232" data-name="Path 232" d="M1380.025,786.464a11.819,11.819,0,0,1,13.711-3.993c9.458,38.313,57.42,68.994,106.535,83.746-3.067,13.647-10.211,36.754-25.657,55.008C1392.908,876.3,1380.025,786.464,1380.025,786.464Z" fill="url(#linear-gradient-100)"/>
        </g>
        <g id="Group_122" data-name="Group 122">
          <path id="Path_233" data-name="Path 233" d="M1381.515,788.314c-.615,2.025,6.767,5.029,11.018-3.269.113-3.958,2.358-20.932-.037-24.133-12.757-17.048-37.376-38.335-37.376-38.335a5.81,5.81,0,0,0-.65,8.078l11.962,12.224c-2.435,4.5-5.421,8.308-6.785,13.736a16.6,16.6,0,0,0,1.771,12.2c2.115,3.726,5,8.567,7.716,12.352A16.386,16.386,0,0,0,1381.515,788.314Z" fill="url(#linear-gradient-101)"/>
          <path id="Path_234" data-name="Path 234" d="M1371.688,750.835l10.88,9.047,3.476,9.077-9.521,10.766s-3.408-18.043-5.85-21.932S1369.46,752,1371.688,750.835Z" fill="url(#linear-gradient-102)"/>
        </g>
        <path id="Path_235" data-name="Path 235" d="M1670.33,950.736l23.124-60.042s58.075,38.655,68.038,88.272c-10.895.907-30.707,3.932-50.032,13.923C1706.969,969.459,1670.33,950.736,1670.33,950.736Z" fill="url(#linear-gradient-103)"/>
        <path id="Path_236" data-name="Path 236" d="M1625.457,824.966l20.2,56.655a2.048,2.048,0,0,1-.91,2.476c-5.329,3.013-24.551,11.76-47.954-2.767a9.643,9.643,0,0,1-4.507-6.846l-6.834-49.137Z" fill="url(#linear-gradient-104)"/>
        <path id="Path_237" data-name="Path 237" d="M1619.519,898.424l18.294,124.421a12.173,12.173,0,0,1-.926,6.755l-13.409,29.675a3.277,3.277,0,0,1-6.149-.033l-13.308-30.169a12.136,12.136,0,0,1-.989-5.661l7.933-123.533Z" fill="url(#linear-gradient-105)"/>
        <path id="Path_238" data-name="Path 238" d="M1619.305,887.314l11.781,20.2c1.136,2.461,5.51,2.623,6.94.258l15.337-24.882-10.662-9.555Z" fill="url(#linear-gradient-106)"/>
        <path id="Path_239" data-name="Path 239" d="M1592.284,874.484l19.427,12.83-5.688,19.97c-1.068,2.739-6.055,2.939-7.493.3l-17.539-31.868Z" fill="url(#linear-gradient-107)"/>
        <path id="Path_240" data-name="Path 240" d="M1610.13,887.181l11.947-2.259a.814.814,0,0,1,.959.9l-2.433,18.9a.813.813,0,0,1-.641.692l-8.55,1.786a.814.814,0,0,1-.979-.754l-.964-18.425A.814.814,0,0,1,1610.13,887.181Z" fill="url(#linear-gradient-108)"/>
        <path id="Path_241" data-name="Path 241" d="M1620.443,1007.5s65.133,35.995,86.694,4.523c4.476-6.535,5.5-13,4.323-19.136,19.325-9.991,39.137-13.016,50.032-13.923a68.611,68.611,0,0,1-7.008,47.1c-37.622,70.408-142.462-2.512-142.462-2.512Z" fill="url(#linear-gradient-109)"/>
        <g id="Group_124" data-name="Group 124">
          <g id="Group_123" data-name="Group 123">
            <path id="Path_242" data-name="Path 242" d="M1633.754,1064.387l-34.647-120.994a8.149,8.149,0,0,0-6.913-5.862c-8.187-.932-24.766-2.739-43.539-4.326-22.738-1.924-48.694-3.527-66.858-2.869a8.164,8.164,0,0,0-7.007,11.806c13.467,27.034,49.125,97.348,68.831,124.278a8.156,8.156,0,0,0,6.669,3.335l80.013-.744A3.626,3.626,0,0,0,1633.754,1064.387Z" fill="url(#linear-gradient-110)"/>
            <path id="Path_243" data-name="Path 243" d="M1629.537,1072.363,1594.89,951.369a8.149,8.149,0,0,0-6.913-5.862c-8.187-.932-24.767-2.739-43.539-4.327-22.738-1.923-48.695-3.526-66.859-2.868a8.165,8.165,0,0,0-7.007,11.806c13.468,27.034,49.126,97.348,68.832,124.277a8.158,8.158,0,0,0,6.669,3.336l80.012-.745A3.625,3.625,0,0,0,1629.537,1072.363Z" fill="url(#linear-gradient-111)"/>
            <path id="Path_244" data-name="Path 244" d="M1625.182,1034.451s4.943-20.323,2.949-27.533-5.857-16.481-18.732-14.421-28.064,7.484-28.064,7.484.767,9.392,10.553,6.362l-6.068,4.7s.867,7.519,9.133,3.5l-5.644,6.227s3.55,6.176,9.631,2.215S1607.936,1036.9,1625.182,1034.451Z" fill="url(#linear-gradient-112)"/>
          </g>
          <path id="Path_245" data-name="Path 245" d="M1594.269,977.056l2.637-.779-7.224-24.5a11.157,11.157,0,0,0-8.4-7.817c-22.9-4.778-83.2-5.755-85.757-5.794l-.041,2.75c.623.01,62.6,1.011,85.237,5.735a8.411,8.411,0,0,1,6.322,5.905Z" fill="#91b3fa"/>
        </g>
        <g id="Group_125" data-name="Group 125">
          <path id="Path_246" data-name="Path 246" d="M1572.831,772.64s-13.383,30.744-14.282,46.881-4.376,26.608,14.282,29.857,34.377-6.045,42.892-22.119c0,0,13.342-24.769,10.349-34.912S1572.831,772.64,1572.831,772.64Z" fill="url(#linear-gradient-113)"/>
          <path id="Path_247" data-name="Path 247" d="M1609.347,815.7h-2.358s9.719-19.935,1.179-23.437-42.366-10.4-49.664-22.4c-7.035-11.571-.76-26.517,8.627-30.7a1.255,1.255,0,0,1,1.6.59l.778,1.471a1.267,1.267,0,0,0,2.337-.24h0a1.262,1.262,0,0,1,2.272-.347c2.234,3.589,8.284,9.426,24.508,12.42,23.022,4.249,38.242,13.566,38.616,29.477a1.269,1.269,0,0,0,1.962,1.039c1.7-1.036,4.42-1.522,8.054,1.535,6.322,5.315,3.735,19.1-10.122,30.445a1.26,1.26,0,0,0,.059,2.032c2.513,1.635,6.257,5.527-3.447,10.713-9.926,5.307-15.8,4.728-18.017,4.161a1.268,1.268,0,0,1-.96-1.311l.871-14.1a1.267,1.267,0,0,0-1.265-1.345Z" fill="url(#linear-gradient-114)"/>
          <path id="Path_248" data-name="Path 248" d="M1608.768,818.652s5.106-19.64,13.911-14.133-4.57,22-11.648,22.74Z" fill="url(#linear-gradient-115)"/>
        </g>
      </g>
    </g>
  </g>
</svg>
