<svg xmlns="http://www.w3.org/2000/svg" width="2637.52" height="1924.027" viewBox="0 0 2637.52 1924.027">
  <g id="Group_294" data-name="Group 294" transform="translate(-69.12 -415.805)">
    <g id="Group_6" data-name="Group 6">
      <g id="Group_2" data-name="Group 2">
        <path id="Path_15" data-name="Path 15" d="M2477.444,1142.345C2305.564,514,1504.987,390.356,841.27,715.8s-676.927,1563.76,439.095,1600.587S2590.724,1556.468,2477.444,1142.345Z" fill="#fae9dc"/>
      </g>
      <g id="Group_4" data-name="Group 4">
        <g id="Group_3" data-name="Group 3">
          <path id="Path_16" data-name="Path 16" d="M910.653,2339.832c-124.248,0-239.546-39.829-347.153-159.256-52.21-57.945-86.085-118.386-103.566-184.783-15.607-59.279-17.691-122.032-6.369-191.843,21-129.518,83.868-259.693,150.421-397.513,23.147-47.935,47.084-97.5,68.806-146.516,39.679-89.529,68.63-188.419,96.629-284.053,73.51-251.091,142.944-488.256,391.312-542.916,294.339-64.783,401.466,63.474,537.091,225.849,71.416,85.5,152.361,182.414,273.529,267.7,241.967,170.325,391.227,318.723,469.731,467.02,95.943,181.238,87.274,365.442-26.506,563.138-62.612,108.788-143.369,174.624-254.146,207.186-98.585,28.981-208.73,28.013-325.33,27-115.221-1.014-234.356-2.048-354.261,25.267-68.569,15.62-134.692,34.146-198.637,52.062C1149.988,2305.218,1026.432,2339.832,910.653,2339.832ZM1161.42,436.074l.687,3.122c-244.671,53.846-313.588,289.246-386.55,538.469-28.057,95.833-57.07,194.931-96.921,284.847-21.764,49.109-45.723,98.723-68.893,146.705-131.47,272.249-255.647,529.4-41.494,767.079,205.225,227.768,440.178,161.942,712.23,85.723,64.02-17.935,130.22-36.482,198.942-52.138,120.633-27.481,240.154-26.439,355.737-25.426,235.405,2.054,438.734,3.833,573.879-230.982,112.595-195.635,121.228-377.818,26.4-556.956-78.014-147.371-226.65-295.059-467.762-464.781-121.856-85.777-203.087-183.031-274.756-268.836-134.233-160.708-240.258-287.651-530.809-223.7Z" fill="#f0cdb6"/>
        </g>
      </g>
      <g id="Group_5" data-name="Group 5">
        <path id="Path_17" data-name="Path 17" d="M1301.03,948.8c167.892-80.784,305.726-208.584,442.732-134.323s19.676,300.551,147.391,401.463,400.467,274.624,259.488,574.453-555.31,124.5-670.19,57.95S1266,2162.945,947.323,2043.722s-87.918-399.18-88.214-510.085-207.007-292.95-65.4-414.965S1062,1063.814,1301.03,948.8Z" fill="#fff6f0"/>
      </g>
    </g>
    <g id="Group_7" data-name="Group 7">
      <path id="Path_18" data-name="Path 18" d="M2147.6,1724.408c262.982-252.543,558.881-253.692,559.039-127.947s-523.295,335.147-557.078,317.222S2147.6,1724.408,2147.6,1724.408Z" fill="#ffab3b"/>
    </g>
    <g id="Group_8" data-name="Group 8">
      <path id="Path_19" data-name="Path 19" d="M2137.98,1938.653c168.112-88.51,296.185-89.69,291.795-14.838S2153.6,2065.762,2123.507,2028,2137.98,1938.653,2137.98,1938.653Z" fill="#ffab3b"/>
    </g>
    <g id="Group_9" data-name="Group 9">
      <path id="Path_20" data-name="Path 20" d="M2157.242,1127.5c35.041-216.454,171.568-268.392,206.9-188.175,50.471,114.6-164.015,370.682-183.464,360.76S2157.242,1127.5,2157.242,1127.5Z" fill="#ff7c3b"/>
    </g>
    <g id="Group_10" data-name="Group 10">
      <path id="Path_21" data-name="Path 21" d="M2137.893,1349.959c221.079-228.258,536.756-320.364,545.443-162.555s-613.684,291.007-613.684,291.007Z" fill="#ff7c3b"/>
    </g>
    <g id="Group_11" data-name="Group 11">
      <path id="Path_22" data-name="Path 22" d="M714.74,1298.637c-109.768-270.4-362.792-267.09-392.543-150.848S613.657,1343.348,672.015,1420,714.74,1298.637,714.74,1298.637Z" fill="#ff7c3b"/>
    </g>
    <g id="Group_12" data-name="Group 12">
      <path id="Path_23" data-name="Path 23" d="M744.647,1795.982c-68.267-261.314-418.379-330.965-438.692-218.334s404.6,180.4,398.854,319.211S744.647,1795.982,744.647,1795.982Z" fill="#ffab3b"/>
    </g>
    <g id="Group_13" data-name="Group 13">
      <path id="Path_24" data-name="Path 24" d="M683.3,1796.646c-301.631-128.1-639.577-120.4-612.667,47.686,30.456,190.238,494.069-82.164,576.843,85.659S683.3,1796.646,683.3,1796.646Z" fill="#ffab3b"/>
    </g>
    <g id="Group_34" data-name="Group 34">
      <g id="Group_15" data-name="Group 15">
        <g id="Group_14" data-name="Group 14">
          <path id="Path_25" data-name="Path 25" d="M2154.6,1810.891a5.581,5.581,0,0,1-4.794-9.64c141.693-126.421,431.135-218.847,434.043-219.763a5.579,5.579,0,0,1,3.366,10.639c-2.887.912-290.079,92.633-429.98,217.453A5.562,5.562,0,0,1,2154.6,1810.891Z" fill="#ffd194"/>
        </g>
      </g>
      <g id="Group_17" data-name="Group 17">
        <g id="Group_16" data-name="Group 16">
          <path id="Path_26" data-name="Path 26" d="M2476.871,1700.546a5.705,5.705,0,0,1-1.414.1l-136.29-8.145a5.582,5.582,0,0,1,.668-11.143l136.29,8.145a5.581,5.581,0,0,1,.746,11.046Z" fill="#ffd194"/>
        </g>
      </g>
      <g id="Group_19" data-name="Group 19">
        <g id="Group_18" data-name="Group 18">
          <path id="Path_27" data-name="Path 27" d="M2115.873,1413.982a8.022,8.022,0,0,1-.865-11.309c32.918-38.373,294.528-197.388,451.555-225.1a8.021,8.021,0,0,1,2.793,15.8c-150.571,26.571-411.017,183.427-442.174,219.748A8.022,8.022,0,0,1,2115.873,1413.982Z" fill="#ffd194"/>
        </g>
      </g>
      <g id="Group_21" data-name="Group 21">
        <g id="Group_20" data-name="Group 20">
          <path id="Path_28" data-name="Path 28" d="M697.3,1373.757a6.462,6.462,0,0,1-7.639-2.347c-1.2-1.728-121.569-173.042-295.567-212.529a6.458,6.458,0,1,1,2.856-12.6c178.974,40.616,302.107,216.006,303.33,217.773a6.466,6.466,0,0,1-2.98,9.7Z" fill="#ffd194"/>
        </g>
      </g>
      <g id="Group_23" data-name="Group 23">
        <g id="Group_22" data-name="Group 22">
          <path id="Path_29" data-name="Path 29" d="M682.436,1801.4a4.83,4.83,0,0,1-3.956-4.4c-4.833-66.874-106.363-178.983-277.4-206.591l-.087-.015a4.829,4.829,0,0,1,1.631-9.519c77.189,12.471,149.828,44.459,204.6,90.033,47.851,39.812,78.089,86.691,80.886,125.4a4.83,4.83,0,0,1-5.676,5.1Z" fill="#ffd194"/>
        </g>
      </g>
      <g id="Group_25" data-name="Group 25">
        <g id="Group_24" data-name="Group 24">
          <path id="Path_30" data-name="Path 30" d="M128.813,1819.912a4.829,4.829,0,0,1-.4-9.415c208.807-56.257,461.183-23.421,490.988,63.883a4.828,4.828,0,0,1-9.139,3.118c-12.679-37.139-75.7-66.776-168.611-79.307-97.624-13.154-210.878-5.27-310.726,21.632A4.814,4.814,0,0,1,128.813,1819.912Z" fill="#ffd194"/>
        </g>
      </g>
      <g id="Group_27" data-name="Group 27">
        <g id="Group_26" data-name="Group 26">
          <path id="Path_31" data-name="Path 31" d="M436.886,1636.893a4.828,4.828,0,0,1,.727-9.576l97.9-2.709a4.827,4.827,0,1,1,.268,9.65l-97.9,2.71A4.742,4.742,0,0,1,436.886,1636.893Z" fill="#ffd194"/>
        </g>
      </g>
      <g id="Group_29" data-name="Group 29">
        <g id="Group_28" data-name="Group 28">
          <path id="Path_32" data-name="Path 32" d="M232.141,1851.957a4.828,4.828,0,0,1-2.48-8.234l60.94-58.468a4.828,4.828,0,1,1,6.684,6.968l-60.94,58.467A4.817,4.817,0,0,1,232.141,1851.957Z" fill="#ffd194"/>
        </g>
      </g>
      <g id="Group_31" data-name="Group 31">
        <g id="Group_30" data-name="Group 30">
          <path id="Path_33" data-name="Path 33" d="M303.034,1854.969a4.828,4.828,0,0,1-2.586-8.132l61.564-62.776a4.829,4.829,0,0,1,6.894,6.763L307.342,1853.6A4.822,4.822,0,0,1,303.034,1854.969Z" fill="#ffd194"/>
        </g>
      </g>
      <g id="Group_33" data-name="Group 33">
        <g id="Group_32" data-name="Group 32">
          <path id="Path_34" data-name="Path 34" d="M380.457,1865.3a4.832,4.832,0,0,1-2.97-7.691l52.341-68.243a4.829,4.829,0,0,1,7.663,5.879l-52.341,68.244A4.827,4.827,0,0,1,380.457,1865.3Z" fill="#ffd194"/>
        </g>
      </g>
    </g>
    <g id="Group_35" data-name="Group 35">
      <rect id="Rectangle_1" data-name="Rectangle 1" width="1584.685" height="990.092" rx="69.952" transform="translate(631.349 1034.97)" fill="#404059"/>
    </g>
    <g id="Group_36" data-name="Group 36">
      <path id="Rectangle_2" data-name="Rectangle 2" d="M31.694,0H1458.6a31.693,31.693,0,0,1,31.693,31.693V818.75a31.693,31.693,0,0,1-31.693,31.693H31.694A31.694,31.694,0,0,1,0,818.75V31.694A31.694,31.694,0,0,1,31.694,0Z" transform="translate(678.547 1074.404)" fill="#fff"/>
    </g>
    <g id="Group_37" data-name="Group 37">
      <rect id="Rectangle_3" data-name="Rectangle 3" width="1411.055" height="768.569" transform="translate(718.164 1115.342)" fill="#fae9dc"/>
    </g>
    <g id="Group_38" data-name="Group 38">
      <rect id="Rectangle_4" data-name="Rectangle 4" width="1411.055" height="108.352" transform="translate(718.164 1115.342)" fill="#f0cdb6"/>
    </g>
    <g id="Group_48" data-name="Group 48">
      <g id="Group_42" data-name="Group 42">
        <g id="Group_39" data-name="Group 39">
          <circle id="Ellipse_1" data-name="Ellipse 1" cx="12.624" cy="12.624" r="12.624" transform="translate(784.799 1169.517) rotate(-45)" fill="#fae9dc"/>
        </g>
        <g id="Group_40" data-name="Group 40">
          <circle id="Ellipse_2" data-name="Ellipse 2" cx="12.624" cy="12.624" r="12.624" transform="translate(828.838 1179.947) rotate(-80.746)" fill="#fff"/>
        </g>
        <g id="Group_41" data-name="Group 41">
          <circle id="Ellipse_3" data-name="Ellipse 3" cx="12.624" cy="12.624" r="12.624" transform="translate(869.515 1179.947) rotate(-80.746)" fill="#fff"/>
        </g>
      </g>
      <g id="Group_47" data-name="Group 47">
        <g id="Group_44" data-name="Group 44">
          <g id="Group_43" data-name="Group 43">
            <path id="Path_35" data-name="Path 35" d="M2020.764,1189.966a3.667,3.667,0,0,1,0-5.182l35.718-35.717a3.664,3.664,0,0,1,5.181,5.181l-35.717,35.718A3.667,3.667,0,0,1,2020.764,1189.966Z" fill="#fae9dc"/>
          </g>
        </g>
        <g id="Group_46" data-name="Group 46">
          <g id="Group_45" data-name="Group 45">
            <path id="Path_36" data-name="Path 36" d="M2056.487,1189.966l-35.713-35.713a3.664,3.664,0,0,1,5.182-5.181l35.712,35.712a3.664,3.664,0,1,1-5.181,5.182Z" fill="#fae9dc"/>
          </g>
        </g>
      </g>
    </g>
    <g id="Group_52" data-name="Group 52">
      <g id="Group_49" data-name="Group 49">
        <rect id="Rectangle_5" data-name="Rectangle 5" width="334.425" height="19.776" transform="translate(807.671 1700.411)" fill="#f0cdb6"/>
      </g>
      <g id="Group_50" data-name="Group 50">
        <rect id="Rectangle_6" data-name="Rectangle 6" width="334.425" height="19.776" transform="translate(807.671 1741.465)" fill="#f0cdb6"/>
      </g>
      <g id="Group_51" data-name="Group 51">
        <rect id="Rectangle_7" data-name="Rectangle 7" width="177.742" height="19.776" transform="translate(807.671 1782.519)" fill="#f0cdb6"/>
      </g>
    </g>
    <g id="Group_53" data-name="Group 53">
      <rect id="Rectangle_8" data-name="Rectangle 8" width="334.425" height="313.237" transform="translate(807.671 1326.037)" fill="#f0cdb6"/>
    </g>
    <g id="Group_58" data-name="Group 58">
      <g id="Group_55" data-name="Group 55">
        <g id="Group_54" data-name="Group 54">
          <path id="Path_37" data-name="Path 37" d="M950.679,1536.014A11.723,11.723,0,0,1,939,1524.321V1440.99a11.674,11.674,0,0,1,17.517-10.107l72.163,41.665a11.672,11.672,0,0,1,0,20.215l-72.163,41.665A11.642,11.642,0,0,1,950.679,1536.014Zm-.006-100.933a5.929,5.929,0,0,0-5.9,5.909v83.331a5.9,5.9,0,0,0,8.849,5.107l72.162-41.665a5.9,5.9,0,0,0,0-10.215l-72.162-41.665A5.935,5.935,0,0,0,950.673,1435.081Z" fill="#fae9dc"/>
        </g>
      </g>
      <g id="Group_57" data-name="Group 57">
        <g id="Group_56" data-name="Group 56">
          <path id="Path_38" data-name="Path 38" d="M974.884,1586.963a104.307,104.307,0,1,1,104.307-104.307A104.423,104.423,0,0,1,974.884,1586.963Zm0-202.836a98.529,98.529,0,1,0,98.528,98.529A98.639,98.639,0,0,0,974.884,1384.127Z" fill="#fae9dc"/>
        </g>
      </g>
    </g>
    <g id="Group_62" data-name="Group 62">
      <g id="Group_59" data-name="Group 59">
        <rect id="Rectangle_9" data-name="Rectangle 9" width="334.425" height="19.776" transform="translate(1698.413 1700.411)" fill="#f0cdb6"/>
      </g>
      <g id="Group_60" data-name="Group 60">
        <rect id="Rectangle_10" data-name="Rectangle 10" width="334.425" height="19.776" transform="translate(1698.413 1741.465)" fill="#f0cdb6"/>
      </g>
      <g id="Group_61" data-name="Group 61">
        <rect id="Rectangle_11" data-name="Rectangle 11" width="177.742" height="19.776" transform="translate(1698.413 1782.519)" fill="#f0cdb6"/>
      </g>
    </g>
    <g id="Group_63" data-name="Group 63">
      <rect id="Rectangle_12" data-name="Rectangle 12" width="334.425" height="313.237" transform="translate(1698.413 1326.037)" fill="#f0cdb6"/>
    </g>
    <g id="Group_68" data-name="Group 68">
      <g id="Group_65" data-name="Group 65">
        <g id="Group_64" data-name="Group 64">
          <path id="Path_39" data-name="Path 39" d="M1841.42,1536.014a11.725,11.725,0,0,1-11.682-11.693V1440.99a11.674,11.674,0,0,1,17.518-10.107l72.162,41.665a11.672,11.672,0,0,1,0,20.215l-72.162,41.665A11.645,11.645,0,0,1,1841.42,1536.014Zm-.005-100.933a5.93,5.93,0,0,0-5.9,5.909v83.331a5.9,5.9,0,0,0,8.849,5.107l72.163-41.665a5.9,5.9,0,0,0,0-10.215l-72.163-41.665A5.928,5.928,0,0,0,1841.415,1435.081Z" fill="#fae9dc"/>
        </g>
      </g>
      <g id="Group_67" data-name="Group 67">
        <g id="Group_66" data-name="Group 66">
          <path id="Path_40" data-name="Path 40" d="M1865.625,1586.963a104.307,104.307,0,1,1,104.308-104.307A104.422,104.422,0,0,1,1865.625,1586.963Zm0-202.836a98.529,98.529,0,1,0,98.529,98.529A98.64,98.64,0,0,0,1865.625,1384.127Z" fill="#fae9dc"/>
        </g>
      </g>
    </g>
    <g id="Group_78" data-name="Group 78">
      <g id="Group_69" data-name="Group 69">
        <path id="Path_41" data-name="Path 41" d="M1473.781,598.461a44.624,44.624,0,0,1,13.246,2.432,119.713,119.713,0,0,0-16.295-52.857,45.77,45.77,0,0,1-77.165-34.842,44.8,44.8,0,0,1,5.743-20.653,119.151,119.151,0,0,0-29.245-4.6,121.712,121.712,0,0,0-21.721,1.223,45.35,45.35,0,0,1,5.169,22.689,45.787,45.787,0,0,1-83.937,23.768,119.335,119.335,0,0,0-20.836,42.547,44.872,44.872,0,0,1,10.932-.948,45.8,45.8,0,0,1,.681,91.519,121.344,121.344,0,0,0,52.92,49.666,45.806,45.806,0,1,1,85.033,7.735,121.122,121.122,0,0,0,60-38.294,45.794,45.794,0,0,1,15.479-89.388Zm-108.843,42.906a32.2,32.2,0,1,1,33.262-31.111A32.221,32.221,0,0,1,1364.938,641.367Z" fill="#5091b9"/>
      </g>
      <g id="Group_70" data-name="Group 70">
        <path id="Path_42" data-name="Path 42" d="M1378.368,579.957a33,33,0,0,0-10.826-2.232,32.223,32.223,0,0,0-33.262,31.111,31.707,31.707,0,0,0,2.27,13.005,32.218,32.218,0,1,1,41.818-41.884Z" fill="#5091b9"/>
      </g>
      <g id="Group_71" data-name="Group 71">
        <path id="Path_43" data-name="Path 43" d="M1440.74,670.554l17.562,17.295s-12.759,12.781-25.3,2.337S1440.74,670.554,1440.74,670.554Z" fill="#5091b9"/>
      </g>
      <g id="Group_72" data-name="Group 72">
        <path id="Path_44" data-name="Path 44" d="M1380.743,708.848l17.563,17.295s23.112-17.849,11.683-32.968S1380.743,708.848,1380.743,708.848Z" fill="#5091b9"/>
      </g>
      <g id="Group_73" data-name="Group 73">
        <path id="Path_45" data-name="Path 45" d="M1381.748,475.246l17.562,17.295s-21.668,11.528-29.567,5.059S1381.748,475.246,1381.748,475.246Z" fill="#5091b9"/>
      </g>
      <g id="Group_74" data-name="Group 74">
        <path id="Path_46" data-name="Path 46" d="M1453.17,530.741l17.562,17.295s6.977,20.959-9.584,15.393S1453.17,530.741,1453.17,530.741Z" fill="#5091b9"/>
      </g>
      <g id="Group_75" data-name="Group 75">
        <path id="Path_47" data-name="Path 47" d="M1231.178,560.876l17.562,17.3s14.858-4.158,10.969-16.342S1231.178,560.876,1231.178,560.876Z" fill="#5091b9"/>
      </g>
      <g id="Group_76" data-name="Group 76">
        <path id="Path_48" data-name="Path 48" d="M1456.219,581.166a44.612,44.612,0,0,1,13.245,2.432,119.7,119.7,0,0,0-16.294-52.857,45.789,45.789,0,0,1-77.165-34.842,44.8,44.8,0,0,1,5.743-20.653,119.2,119.2,0,0,0-29.245-4.6,121.633,121.633,0,0,0-21.722,1.224,45.352,45.352,0,0,1,5.17,22.689,45.788,45.788,0,0,1-83.938,23.768,119.352,119.352,0,0,0-20.835,42.547,44.872,44.872,0,0,1,10.932-.948,45.857,45.857,0,0,1,44,40.536,47.033,47.033,0,0,1,.251,6.771,45.827,45.827,0,0,1-43.566,44.212,121.343,121.343,0,0,0,52.92,49.666,45.805,45.805,0,1,1,85.032,7.735,121.127,121.127,0,0,0,60-38.294,45.794,45.794,0,0,1,15.479-89.388Zm-108.844,42.906a32.167,32.167,0,0,1-31.1-32.386,6.4,6.4,0,0,1-.011-.876,32.223,32.223,0,0,1,33.263-31.111,31.9,31.9,0,0,1,17.545,5.917,32.2,32.2,0,0,1-19.7,58.456Z" fill="#79c5ee"/>
      </g>
      <g id="Group_77" data-name="Group 77" style="mix-blend-mode: screen;isolation: isolate">
        <path id="Path_49" data-name="Path 49" d="M1397.492,536.239c-7.465,10.293-17.664,20.255-30.42,29.377a31.9,31.9,0,0,0-17.545-5.917,32.223,32.223,0,0,0-33.263,31.111,6.4,6.4,0,0,0,.011.876,263.054,263.054,0,0,1-30.169,8.778,45.857,45.857,0,0,0-44-40.536,44.872,44.872,0,0,0-10.932.948,119.352,119.352,0,0,1,20.835-42.547,45.785,45.785,0,0,0,78.768-46.457,121.633,121.633,0,0,1,21.722-1.224,119.2,119.2,0,0,1,29.245,4.6,44.8,44.8,0,0,0-5.743,20.653A45.76,45.76,0,0,0,1397.492,536.239Z" fill="#333"/>
      </g>
    </g>
    <g id="Group_96" data-name="Group 96">
      <g id="Group_79" data-name="Group 79">
        <rect id="Rectangle_13" data-name="Rectangle 13" width="212.423" height="156.164" transform="translate(588.871 773.422) rotate(-17.097)" fill="#ffb03a"/>
      </g>
      <g id="Group_80" data-name="Group 80">
        <path id="Path_50" data-name="Path 50" d="M791.908,710.971s-8.244,17.485-19.241,39.505c-18.329,36.7-44.324,86.049-52.588,88.255-9.356,2.507-57.719-21.341-94.714-42.5-15.3-8.752-28.649-17.043-36.489-22.814l26.445-8.133L761.9,720.208Z" fill="#ff863b"/>
      </g>
      <g id="Group_81" data-name="Group 81">
        <path id="Path_51" data-name="Path 51" d="M634.78,922.685c13.624-49.34,55.027-98.616,55.027-98.616Z" fill="#ff863b"/>
      </g>
      <g id="Group_82" data-name="Group 82">
        <path id="Path_52" data-name="Path 52" d="M837.817,860.237c-39-33.156-100.936-50.647-100.936-50.647Z" fill="#ff863b"/>
      </g>
      <g id="Group_83" data-name="Group 83">
        <path id="Path_53" data-name="Path 53" d="M588.871,773.422c1.464-10.383,67.7-110.746,76.914-111.852s124.3,43.489,126.122,49.4S588.871,773.422,588.871,773.422Z" fill="#ffb03a"/>
      </g>
      <g id="Group_84" data-name="Group 84">
        <path id="Path_54" data-name="Path 54" d="M772.667,750.476c-6.663,13.354-14.347,28.378-21.814,42.2-1.042,1.913-2.085,3.826-3.112,5.687-11.909,21.619-22.828,39.083-27.662,40.369-5.575,1.5-24.962-6.357-47.568-17.413-1.934-.957-3.906-1.934-5.9-2.936-13.684-6.861-28.179-14.675-41.245-22.152,0,0-4.815-14.589-10.044-30.947-6.382-19.985-13.4-42.632-13.01-44.6.723-3.584,142.027-49.071,143.627-43.828.542,1.777,7.467,19.97,15.961,43.353C765.33,729.692,769.036,740.025,772.667,750.476Z" fill="#fff4eb"/>
      </g>
      <g id="Group_95" data-name="Group 95">
        <g id="Group_86" data-name="Group 86">
          <g id="Group_85" data-name="Group 85">
            <rect id="Rectangle_14" data-name="Rectangle 14" width="109.826" height="4.531" transform="translate(630.253 737.467) rotate(-16.97)" fill="#fad6b9"/>
          </g>
        </g>
        <g id="Group_88" data-name="Group 88">
          <g id="Group_87" data-name="Group 87">
            <rect id="Rectangle_15" data-name="Rectangle 15" width="109.826" height="4.531" transform="translate(636.674 758.509) rotate(-16.97)" fill="#fad6b9"/>
          </g>
        </g>
        <g id="Group_90" data-name="Group 90">
          <g id="Group_89" data-name="Group 89">
            <rect id="Rectangle_16" data-name="Rectangle 16" width="109.826" height="4.531" transform="translate(643.095 779.55) rotate(-16.97)" fill="#fad6b9"/>
          </g>
        </g>
        <g id="Group_92" data-name="Group 92">
          <g id="Group_91" data-name="Group 91">
            <rect id="Rectangle_17" data-name="Rectangle 17" width="109.826" height="4.531" transform="translate(649.516 800.592) rotate(-16.97)" fill="#fad6b9"/>
          </g>
        </g>
        <g id="Group_94" data-name="Group 94">
          <g id="Group_93" data-name="Group 93">
            <path id="Path_55" data-name="Path 55" d="M750.853,792.675c-1.042,1.913-2.085,3.826-3.112,5.687l-75.23,22.956c-1.934-.957-3.906-1.934-5.9-2.936Z" fill="#fad6b9"/>
          </g>
        </g>
      </g>
    </g>
    <g id="Group_97" data-name="Group 97">
      <path id="Path_56" data-name="Path 56" d="M265.36,1272.834c-91.366,53.34-10.366,224.724,110.749,226.905C376.109,1499.739,411.21,1187.631,265.36,1272.834Zm39.971,110.3a37.967,37.967,0,1,1,31.659-43.368A37.96,37.96,0,0,1,305.331,1383.132Z" fill="#ffab3b"/>
    </g>
    <g id="Group_107" data-name="Group 107">
      <g id="Group_99" data-name="Group 99">
        <g id="Group_98" data-name="Group 98">
          <path id="Path_57" data-name="Path 57" d="M2671.625,1871.695l-9.74-6.161c.228-.363,22.994-36.967,14.453-65.751-3.471-11.7-11.886-20.7-25.01-26.757l-.054-.025c-13.517-6.223-26.329-6.963-38.083-2.2-26.087,10.57-39.522,44.609-39.656,44.952l-10.753-4.145c.61-1.586,15.3-38.978,46.027-51.466,14.834-6.028,30.743-5.224,47.284,2.392l.066.03c16.282,7.513,26.791,18.945,31.24,33.983C2697.406,1830.367,2672.682,1870.023,2671.625,1871.695Z" fill="#ff863b"/>
        </g>
      </g>
      <g id="Group_100" data-name="Group 100">
        <path id="Path_58" data-name="Path 58" d="M2543.559,1796.914c5.874-3.906,158.587,69.754,160.109,73.884s-60.882,138.12-64.975,140.8-158.116-69.537-160.108-73.884S2536.967,1801.3,2543.559,1796.914Z" fill="#ffb03a"/>
      </g>
      <g id="Group_103" data-name="Group 103">
        <g id="Group_101" data-name="Group 101">
          <ellipse id="Ellipse_4" data-name="Ellipse 4" cx="18.396" cy="19.863" rx="18.396" ry="19.863" transform="translate(2576.21 1888.517) rotate(-65.118)" fill="#f04936"/>
        </g>
        <g id="Group_102" data-name="Group 102">
          <path id="Path_59" data-name="Path 59" d="M2570.127,1948.835l-19.62-9.1,27.923-34.5,27.923-34.5-8.3,43.6-8.3,43.6Z" fill="#f04936"/>
        </g>
      </g>
      <g id="Group_106" data-name="Group 106" style="mix-blend-mode: screen;isolation: isolate">
        <g id="Group_104" data-name="Group 104">
          <path id="Path_60" data-name="Path 60" d="M2525.577,1873.585l16.3,7.522c-14.735,21.529-29.243,41.228-31.172,40.354C2509.037,1920.707,2516.549,1897.844,2525.577,1873.585Z" fill="#333"/>
        </g>
        <g id="Group_105" data-name="Group 105">
          <path id="Path_61" data-name="Path 61" d="M2546.381,1874.491,2528.815,1865c9.5-24.859,19.64-48.627,22.21-49.074,5.385-.943,23.193,8.036,23.942,12.19C2575.329,1830.12,2561.387,1852.269,2546.381,1874.491Z" fill="#333"/>
        </g>
      </g>
    </g>
    <g id="Group_108" data-name="Group 108">
      <path id="Path_62" data-name="Path 62" d="M2193.662,787.588s-56.749,96.361-59.576,99.991c-.985,1.267-18.846-8.406-41.613-21.639,13.52-22.136,36.353-66.93,10.569-81.943-27.336-15.909-58.286,26.965-70.268,46.023-23.6-14.634-41.853-26.532-41.322-27.424l63.664-106.853s-23.809-10.2-22.547-13.433,152.339-36.088,156.949-32.678,10.6,43.511,10.6,43.511,6.81-12.546,8.761-14.7,26.76,15.279,25.79,18.022-26.283,44.114-26.283,44.114,15.161,61.5,14.191,64.243S2193.662,787.588,2193.662,787.588Z" fill="#fe653b"/>
    </g>
    <g id="Group_203" data-name="Group 203">
      <g id="Group_109" data-name="Group 109">
        <path id="Path_63" data-name="Path 63" d="M1374.294,1377.867c52.278-25,95.2-64.556,137.859-41.573s6.126,93.02,45.9,124.252,124.7,84.995,80.8,177.791-172.914,38.532-208.686,17.935-66.775,97.369-166.006,60.47-27.377-123.545-27.469-157.87-64.458-90.667-20.365-128.43S1299.864,1413.463,1374.294,1377.867Z" fill="#fff6f0"/>
      </g>
      <g id="Group_202" data-name="Group 202">
        <g id="Group_115" data-name="Group 115">
          <g id="Group_110" data-name="Group 110">
            <path id="Path_64" data-name="Path 64" d="M1607.334,1559.96a188.173,188.173,0,0,1-152.912,184.806c-.011.012-.011,0-.011,0a188.4,188.4,0,0,1-194.935-85.532,188.1,188.1,0,0,1,299.475-225.213v.012a187.613,187.613,0,0,1,48.383,125.927Z" fill="#79c5ee"/>
          </g>
          <g id="Group_111" data-name="Group 111">
            <path id="Path_65" data-name="Path 65" d="M1429.874,1398.12c-5.68,1.052,1.141,9.7-6.277,11.127s-44.793,0-54.778,10.842-13.695,18.545-4.28,23.68,39.372-11.7,46.22-10.842,14.835,7.7,25.392,6.277,11.7-7.418,15.406-8.559,14.551-2.568,15.407-15.121-15.692-12.839-19.116-12.839S1437.577,1396.694,1429.874,1398.12Z" fill="#367394"/>
          </g>
          <g id="Group_112" data-name="Group 112">
            <path id="Path_66" data-name="Path 66" d="M1577.948,1493.412c-8.56,14.265-31.384,2.283-41.655,4.565s-3.138,23.966-20.827,34.807-24.822-13.409-30.528-19.115-25.392,9.7-38.231-8.274,15.407-29.1,15.407-29.1-18.26-20.542,2-32.81,48.787,4.85,53.637,3.994-1.141-17.974,9.7-24.822c8.273-5.23,20.221,5.849,31.5,11.365v.012a187.537,187.537,0,0,1,21.529,29.03C1582.084,1472.133,1583.012,1484.972,1577.948,1493.412Z" fill="#367394"/>
          </g>
          <g id="Group_113" data-name="Group 113">
            <path id="Path_67" data-name="Path 67" d="M1421.03,1598.119c-12.554,12.839-9.7,38.8-20.828,46.79s-18.83-2.282-23.965,2.283-6.051,16.547-21.719,19.971-31.063-7.132-37.91-5.42-9.7,12.553-19.686,13.124-24.822-18.6-31.669-17.975a12.453,12.453,0,0,0-5.777,2.342,188.287,188.287,0,0,1-6.23-187.79c24.287-11.282,35.711,3.982,58.8,6.966,26.533,3.447,23.966-10.247,42.8-8.963s34.236,43.223,43.224,49.215,26.676-2.425,42.653,6.7,7.132,17.118,11.127,19.971,13.694-.713,15.691,14.622S1433.583,1585.281,1421.03,1598.119Z" fill="#367394"/>
          </g>
          <g id="Group_114" data-name="Group 114">
            <path id="Path_68" data-name="Path 68" d="M1544.27,1700.485a187.573,187.573,0,0,1-89.848,44.281c-.011.012-.011,0-.011,0-14.516-12.684-26.665-37.91-16.12-51.5,12.624-16.263,36.376.642,40.228-1.284s1.925-10.7,6.633-11.341,12.625,12.625,18.188,11.555,8.132-11.127,24.394-8.559C1536.733,1685.054,1541.666,1693.352,1544.27,1700.485Z" fill="#367394"/>
          </g>
        </g>
        <g id="Group_124" data-name="Group 124">
          <g id="Group_117" data-name="Group 117">
            <g id="Group_116" data-name="Group 116">
              <path id="Path_69" data-name="Path 69" d="M1638.064,1411.946c-11.258-16.655-44.8-16.346-94.436.868-1.665.582-3.341,1.164-5.029,1.783q2.693,2.193,5.3,4.517c25.119-8.9,46.624-13.7,62.541-13.7a49,49,0,0,1,16.5,2.413,20.146,20.146,0,0,1,10.2,7.442c10.093,14.931-4.862,45.126-36.733,81.372-32.156,36.554-81.526,79.243-139.74,118.627s-116.179,69.294-162.065,85.533c-45.53,16.119-79.149,18.77-89.253,3.839s4.862-45.137,36.745-81.383q-1.2-3.281-2.223-6.61c-1.177,1.332-2.354,2.663-3.495,3.983-34.451,39.669-47.219,70.684-35.949,87.339,5.528,8.179,16.441,12.268,32,12.268,16.108,0,37.185-4.375,62.434-13.136,1.664-.571,3.329-1.165,5.017-1.783,47.491-17.154,104.1-47.23,160.116-85.116,56.026-37.91,105.04-79.268,138.634-116.952q1.766-2,3.484-3.97c26.283-30.266,39.942-55.48,39.942-73.145A24.759,24.759,0,0,0,1638.064,1411.946Z" fill="#ffab3b"/>
            </g>
          </g>
          <g id="Group_119" data-name="Group 119">
            <g id="Group_118" data-name="Group 118">
              <path id="Path_70" data-name="Path 70" d="M1251.073,1356.228c-15.508,12.792-12.006,46.157,9.855,93.924.738,1.6,1.477,3.215,2.254,4.836q1.926-2.889,3.991-5.708c-11.255-24.157-18.071-45.108-19.587-60.953a48.976,48.976,0,0,1,.832-16.655,20.14,20.14,0,0,1,6.437-10.862c13.9-11.468,45.383.543,84.5,28.819,39.45,28.53,86.646,73.611,131.393,127.811s80.04,109.053,100.574,153.185c20.381,43.789,26.221,77,12.32,88.482s-45.4-.542-84.512-28.829q-3.152,1.5-6.368,2.842c1.438,1.045,2.875,2.09,4.3,3.1,42.769,30.517,74.859,40.274,90.365,27.47,7.616-6.282,10.647-17.534,9.166-33.025-1.534-16.035-7.9-36.6-19.021-60.9-.726-1.6-1.477-3.2-2.253-4.824-21.6-45.642-56.927-99.131-99.974-151.284-43.072-52.163-88.908-97.016-129.619-126.87q-2.157-1.568-4.284-3.09c-32.632-23.282-59.031-34.479-76.616-32.8A24.758,24.758,0,0,0,1251.073,1356.228Z" fill="#ffab3b"/>
            </g>
          </g>
          <g id="Group_121" data-name="Group 121">
            <g id="Group_120" data-name="Group 120">
              <path id="Path_71" data-name="Path 71" d="M1435.034,1296.255c-20.066-1.208-40.244,25.595-56.8,75.448-.551,1.675-1.11,3.359-1.647,5.075,2.253-.534,4.529-1.02,6.812-1.456,8.228-25.348,17.519-45.326,27.209-57.954a48.989,48.989,0,0,1,11.96-11.621,20.142,20.142,0,0,1,12.113-3.561c17.989,1.083,32.84,31.329,42.193,78.679,9.424,47.765,13.235,112.92,9.04,183.08-4.2,70.143-15.754,134.353-30.807,180.643-14.929,45.934-33.292,74.218-51.289,73.145s-32.849-31.336-42.2-78.7c-2.22-.7-4.413-1.454-6.6-2.26.34,1.744.68,3.488,1.032,5.2,10.5,51.481,27.331,80.491,47.4,81.69,9.854.593,19.742-5.575,29.216-17.92,9.806-12.779,19.166-32.163,27.587-57.528.561-1.668,1.1-3.35,1.64-5.066,15.3-48.119,25.905-111.34,29.949-178.843,4.033-67.527,1.061-131.588-8.384-181.182-.339-1.744-.677-3.471-1.029-5.18-8.01-39.278-19.7-65.463-33.713-76.218A24.763,24.763,0,0,0,1435.034,1296.255Z" fill="#ffab3b"/>
            </g>
          </g>
          <g id="Group_123" data-name="Group 123">
            <g id="Group_122" data-name="Group 122">
              <path id="Path_72" data-name="Path 72" d="M1683.375,1564.977c.388-20.1-27.215-39.167-77.7-53.678-1.7-.482-3.4-.971-5.137-1.438.625,2.229,1.2,4.483,1.733,6.746,25.662,7.188,46,15.656,59.015,24.823a49,49,0,0,1,12.1,11.476,20.142,20.142,0,0,1,4.052,11.958c-.348,18.018-29.963,34.09-76.892,45.366-47.341,11.365-112.286,17.831-182.559,16.5-70.256-1.333-134.884-10.261-181.749-23.413-46.505-13.043-75.515-30.237-75.177-48.263s29.971-34.1,76.91-45.37q.912-3.369,1.989-6.683c-1.729.41-3.458.821-5.151,1.243-51.01,12.589-79.309,30.591-79.688,50.7-.191,9.87,6.375,19.5,19.1,28.46,13.169,9.276,32.919,17.838,58.606,25.218,1.689.492,3.392.964,5.128,1.431,48.7,13.328,112.3,21.342,179.916,22.63,67.635,1.275,131.523-4.308,180.689-15.767,1.729-.411,3.442-.818,5.135-1.24,38.917-9.606,64.6-22.352,74.778-36.793A24.764,24.764,0,0,0,1683.375,1564.977Z" fill="#ffab3b"/>
            </g>
          </g>
        </g>
        <g id="Group_125" data-name="Group 125">
          <circle id="Ellipse_5" data-name="Ellipse 5" cx="46.91" cy="46.91" r="46.91" transform="translate(1296.713 1426.384) rotate(-80.783)" fill="#fe653b"/>
        </g>
        <g id="Group_126" data-name="Group 126">
          <circle id="Ellipse_6" data-name="Ellipse 6" cx="53.213" cy="53.213" r="53.213" transform="translate(1500.909 1360.92)" fill="#fe653b"/>
        </g>
        <g id="Group_127" data-name="Group 127">
          <circle id="Ellipse_7" data-name="Ellipse 7" cx="46.189" cy="46.189" r="46.189" transform="translate(1390.689 1436.401)" fill="#fad6b9"/>
        </g>
        <g id="Group_137" data-name="Group 137">
          <g id="Group_129" data-name="Group 129">
            <g id="Group_128" data-name="Group 128">
              <path id="Path_73" data-name="Path 73" d="M1450.574,1476.579l-2.642-.326c.012-.1,1.156-9.99-3.467-15.16a9.925,9.925,0,0,0-7.863-3.122h-.014a10.767,10.767,0,0,0-8.172,3.3c-4.406,4.781-3.855,13.216-3.849,13.3l-2.655.2c-.029-.391-.649-9.651,4.537-15.29a13.32,13.32,0,0,1,10.113-4.165h.017a12.463,12.463,0,0,1,9.877,4.017C1451.882,1465.4,1450.63,1476.125,1450.574,1476.579Z" fill="#ff863b"/>
            </g>
          </g>
          <g id="Group_130" data-name="Group 130">
            <path id="Path_74" data-name="Path 74" d="M1416.448,1473.591c.841-1.395,40.005-1.073,40.731-.361s.907,34.856.317,35.82-39.886,1.072-40.731.36S1415.5,1475.157,1416.448,1473.591Z" fill="#ffb03a"/>
          </g>
          <g id="Group_133" data-name="Group 133">
            <g id="Group_131" data-name="Group 131">
              <ellipse id="Ellipse_8" data-name="Ellipse 8" cx="4.588" cy="4.25" rx="4.588" ry="4.25" transform="translate(1432.245 1481.005) rotate(-0.398)" fill="#f04936"/>
            </g>
            <g id="Group_132" data-name="Group 132">
              <path id="Path_75" data-name="Path 75" d="M1436.983,1502.7l-5,.034,2.429-9.96,2.429-9.961,2.567,9.926,2.567,9.926Z" fill="#f04936"/>
            </g>
          </g>
          <g id="Group_136" data-name="Group 136" style="mix-blend-mode: screen;isolation: isolate">
            <g id="Group_134" data-name="Group 134">
              <path id="Path_76" data-name="Path 76" d="M1420.255,1491.38l4.146-.037c-.954,5.95-2.041,11.5-2.53,11.5C1421.448,1502.854,1420.762,1497.337,1420.255,1491.38Z" fill="#333"/>
            </g>
            <g id="Group_135" data-name="Group 135">
              <path id="Path_77" data-name="Path 77" d="M1424.689,1489.517l-4.6-.249c-.469-6.129-.695-12.094-.2-12.441,1.032-.728,5.637-.609,6.2.184C1426.359,1477.393,1425.632,1483.4,1424.689,1489.517Z" fill="#333"/>
            </g>
          </g>
        </g>
        <g id="Group_138" data-name="Group 138">
          <circle id="Ellipse_9" data-name="Ellipse 9" cx="49.017" cy="49.017" r="49.017" transform="translate(1370.918 1571.112)" fill="#fe653b"/>
        </g>
        <g id="Group_139" data-name="Group 139">
          <circle id="Ellipse_10" data-name="Ellipse 10" cx="49.017" cy="49.017" r="49.017" transform="translate(1577.622 1535.541)" fill="#fe653b"/>
        </g>
        <g id="Group_140" data-name="Group 140">
          <circle id="Ellipse_11" data-name="Ellipse 11" cx="45.473" cy="45.473" r="45.473" transform="translate(1512.557 1641.914)" fill="#fad6b9"/>
        </g>
        <g id="Group_141" data-name="Group 141">
          <path id="Path_78" data-name="Path 78" d="M1576.764,1687.092s.09,26.419-.047,27.5c-.047.376-4.842.565-11.063.621.078-6.127-.685-17.98-7.733-17.921-7.472.064-8.59,12.506-8.726,17.822-6.56-.127-11.7-.343-11.7-.588,0-.4.05-29.385.05-29.385s-6.067.8-6.2-.01,26.6-25.7,27.945-25.563,7.4,7.56,7.4,7.56a39.807,39.807,0,0,1,.007-4.043c.136-.674,7.279-.123,7.413.551s-.021,12.131-.021,12.131,10.5,10.667,10.629,11.341S1576.764,1687.092,1576.764,1687.092Z" fill="#5091b9"/>
        </g>
        <g id="Group_142" data-name="Group 142">
          <circle id="Ellipse_12" data-name="Ellipse 12" cx="45.473" cy="45.473" r="45.473" transform="translate(1271.616 1674.768)" fill="#fe653b"/>
        </g>
        <g id="Group_150" data-name="Group 150">
          <g id="Group_143" data-name="Group 143">
            <path id="Path_79" data-name="Path 79" d="M1305.974,1736.286a6.042,6.042,0,1,0-8.351-1.811A6.042,6.042,0,0,0,1305.974,1736.286Z" fill="#ffab3b"/>
          </g>
          <g id="Group_145" data-name="Group 145">
            <g id="Group_144" data-name="Group 144">
              <path id="Path_80" data-name="Path 80" d="M1314.378,1738.2a1.723,1.723,0,0,1-.194-1.458,14.278,14.278,0,0,0-11.721-18.476,1.726,1.726,0,1,1,.458-3.422,17.73,17.73,0,0,1,14.553,22.943,1.726,1.726,0,0,1-3.1.413Z" fill="#ffab3b"/>
            </g>
          </g>
          <g id="Group_147" data-name="Group 147">
            <g id="Group_146" data-name="Group 146">
              <path id="Path_81" data-name="Path 81" d="M1326.07,1737.516a1.717,1.717,0,0,1-.257-1.173,26.014,26.014,0,0,0-18.185-28.476,1.726,1.726,0,1,1,1-3.3,29.467,29.467,0,0,1,20.6,32.261,1.727,1.727,0,0,1-3.162.692Z" fill="#ffab3b"/>
            </g>
          </g>
          <g id="Group_149" data-name="Group 149">
            <g id="Group_148" data-name="Group 148">
              <path id="Path_82" data-name="Path 82" d="M1337.593,1736.847a1.729,1.729,0,0,1-.27-1.061,37.953,37.953,0,0,0-16.663-34.168,37.915,37.915,0,0,0-7.755-4,1.726,1.726,0,1,1,1.213-3.232,41.316,41.316,0,0,1,26.65,41.656,1.727,1.727,0,0,1-3.175.805Z" fill="#ffab3b"/>
            </g>
          </g>
        </g>
        <g id="Group_151" data-name="Group 151">
          <circle id="Ellipse_13" data-name="Ellipse 13" cx="45.473" cy="45.473" r="45.473" transform="translate(1233.554 1564.073)" fill="#fad6b9"/>
        </g>
        <g id="Group_152" data-name="Group 152">
          <circle id="Ellipse_14" data-name="Ellipse 14" cx="13.053" cy="13.053" r="13.053" transform="translate(1237.436 1403.398)" fill="#fe653b"/>
        </g>
        <g id="Group_153" data-name="Group 153">
          <circle id="Ellipse_15" data-name="Ellipse 15" cx="13.053" cy="13.053" r="13.053" transform="translate(1465.579 1398.387) rotate(-80.783)" fill="#fe653b"/>
        </g>
        <g id="Group_154" data-name="Group 154">
          <circle id="Ellipse_16" data-name="Ellipse 16" cx="13.053" cy="13.053" r="13.053" transform="translate(1203.129 1703.481)" fill="#fe653b"/>
        </g>
        <g id="Group_155" data-name="Group 155">
          <circle id="Ellipse_17" data-name="Ellipse 17" cx="13.053" cy="13.053" r="13.053" transform="translate(1436.371 1755.086)" fill="#fe653b"/>
        </g>
        <g id="Group_156" data-name="Group 156">
          <circle id="Ellipse_18" data-name="Ellipse 18" cx="13.053" cy="13.053" r="13.053" transform="translate(1333.761 1612.018)" fill="#fe653b"/>
        </g>
        <g id="Group_157" data-name="Group 157">
          <circle id="Ellipse_19" data-name="Ellipse 19" cx="13.053" cy="13.053" r="13.053" transform="translate(1551.164 1521.204)" fill="#fe653b"/>
        </g>
        <g id="Group_175" data-name="Group 175">
          <g id="Group_162" data-name="Group 162">
            <g id="Group_158" data-name="Group 158">
              <path id="Path_83" data-name="Path 83" d="M1301.775,1629.184h-42.659a11.775,11.775,0,0,1-11.775-11.775h0a11.775,11.775,0,0,1,11.775-11.774h42.659a11.774,11.774,0,0,1,11.774,11.774h0A11.774,11.774,0,0,1,1301.775,1629.184Z" fill="#5091b9"/>
            </g>
            <g id="Group_161" data-name="Group 161">
              <g id="Group_159" data-name="Group 159">
                <circle id="Ellipse_20" data-name="Ellipse 20" cx="12.637" cy="12.637" r="12.637" transform="translate(1260.165 1589.908)" fill="#5091b9"/>
              </g>
              <g id="Group_160" data-name="Group 160">
                <circle id="Ellipse_21" data-name="Ellipse 21" cx="8.936" cy="8.936" r="8.936" transform="translate(1282.854 1596.014)" fill="#5091b9"/>
              </g>
            </g>
          </g>
          <g id="Group_167" data-name="Group 167">
            <g id="Group_163" data-name="Group 163">
              <path id="Path_84" data-name="Path 84" d="M1298.939,1629.184H1256.28a11.774,11.774,0,0,1-11.774-11.775h0a11.774,11.774,0,0,1,11.774-11.774h42.659a11.775,11.775,0,0,1,11.775,11.774h0A11.775,11.775,0,0,1,1298.939,1629.184Z" fill="#79c5ee"/>
            </g>
            <g id="Group_166" data-name="Group 166">
              <g id="Group_164" data-name="Group 164">
                <circle id="Ellipse_22" data-name="Ellipse 22" cx="12.637" cy="12.637" r="12.637" transform="translate(1257.329 1589.908)" fill="#79c5ee"/>
              </g>
              <g id="Group_165" data-name="Group 165">
                <circle id="Ellipse_23" data-name="Ellipse 23" cx="8.936" cy="8.936" r="8.936" transform="translate(1280.018 1596.014)" fill="#79c5ee"/>
              </g>
            </g>
          </g>
          <g id="Group_168" data-name="Group 168">
            <path id="Path_85" data-name="Path 85" d="M1277.363,1604.279h1.541s.226,2.527-.493,2.527S1277.363,1604.279,1277.363,1604.279Z" fill="#fad6b9"/>
          </g>
          <g id="Group_171" data-name="Group 171">
            <g id="Group_169" data-name="Group 169">
              <path id="Path_86" data-name="Path 86" d="M1278.9,1617.718h-9.247l4.623-6.72,4.624-6.719,4.624,6.719,4.623,6.72Z" fill="#fad6b9"/>
            </g>
            <g id="Group_170" data-name="Group 170">
              <rect id="Rectangle_18" data-name="Rectangle 18" width="7.521" height="12.576" transform="translate(1275.144 1616.608)" fill="#fad6b9"/>
            </g>
          </g>
          <g id="Group_174" data-name="Group 174">
            <g id="Group_172" data-name="Group 172">
              <path id="Path_87" data-name="Path 87" d="M1277.363,1617.718h-9.247l4.623-6.72,4.624-6.719,4.623,6.719,4.624,6.72Z" fill="#fff4eb"/>
            </g>
            <g id="Group_173" data-name="Group 173">
              <rect id="Rectangle_19" data-name="Rectangle 19" width="7.521" height="12.576" transform="translate(1273.603 1616.608)" fill="#fff4eb"/>
            </g>
          </g>
        </g>
        <g id="Group_176" data-name="Group 176">
          <path id="Path_88" data-name="Path 88" d="M1421.823,1590.548c-25.017.983-27.153,45.792-2.095,59.715C1419.728,1650.263,1461.766,1588.967,1421.823,1590.548Zm-3.914,27.486a8.985,8.985,0,1,1,11.436-5.539A8.983,8.983,0,0,1,1417.909,1618.034Z" fill="#ffab3b"/>
        </g>
        <g id="Group_183" data-name="Group 183">
          <g id="Group_178" data-name="Group 178">
            <g id="Group_177" data-name="Group 177">
              <path id="Path_89" data-name="Path 89" d="M1571.879,1394.7l1.552,3.28-36.924,17.472,38.042,14.882-1.322,3.38-45.873-17.945Z" fill="#ff863b"/>
            </g>
          </g>
          <g id="Group_179" data-name="Group 179">
            <circle id="Ellipse_24" data-name="Ellipse 24" cx="9.579" cy="9.579" r="9.579" transform="translate(1518.389 1415.211) rotate(-43.291)" fill="#ffb03a"/>
          </g>
          <g id="Group_182" data-name="Group 182">
            <g id="Group_180" data-name="Group 180">
              <path id="Path_90" data-name="Path 90" d="M1564.315,1432.359a9.579,9.579,0,1,1,9.9,9.243A9.58,9.58,0,0,1,1564.315,1432.359Z" fill="#ffb03a"/>
            </g>
            <g id="Group_181" data-name="Group 181">
              <circle id="Ellipse_25" data-name="Ellipse 25" cx="9.579" cy="9.579" r="9.579" transform="translate(1559.786 1400.578) rotate(-63.213)" fill="#ffb03a"/>
            </g>
          </g>
        </g>
        <g id="Group_191" data-name="Group 191">
          <g id="Group_184" data-name="Group 184">
            <rect id="Rectangle_20" data-name="Rectangle 20" width="51.561" height="37.906" transform="translate(1324.751 1368.641)" fill="#ffab3b"/>
          </g>
          <g id="Group_185" data-name="Group 185">
            <path id="Path_91" data-name="Path 91" d="M1324.741,1368.654c4.813,6.485,22.472,24.381,25.793,24.5s25.769-24.528,25.769-24.528Z" fill="#ff863b"/>
          </g>
          <g id="Group_188" data-name="Group 188">
            <g id="Group_186" data-name="Group 186">
              <path id="Path_92" data-name="Path 92" d="M1324.741,1368.654l25.792,22.608,1.5-22.622Z" fill="#ffab3b"/>
            </g>
            <g id="Group_187" data-name="Group 187">
              <path id="Path_93" data-name="Path 93" d="M1376.3,1368.628l-25.769,22.634-1.521-22.62Z" fill="#ffab3b"/>
            </g>
          </g>
          <g id="Group_189" data-name="Group 189">
            <path id="Path_94" data-name="Path 94" d="M1324.76,1406.559c6.677-10.478,19.794-18.962,19.794-18.962Z" fill="#ff863b"/>
          </g>
          <g id="Group_190" data-name="Group 190">
            <path id="Path_95" data-name="Path 95" d="M1376.322,1406.533c-6.687-10.471-19.813-18.942-19.813-18.942Z" fill="#ff863b"/>
          </g>
        </g>
        <g id="Group_201" data-name="Group 201">
          <g id="Group_192" data-name="Group 192">
            <ellipse id="Ellipse_26" data-name="Ellipse 26" cx="20.536" cy="22.016" rx="20.536" ry="22.016" transform="translate(1602.271 1581.992) rotate(-44.618)" fill="#ffb03a"/>
          </g>
          <g id="Group_193" data-name="Group 193">
            <path id="Path_96" data-name="Path 96" d="M1611.665,1586.768c-1.415,5.44-10.6,9.76-11.7,12.188-1.55,3.442,2.768,9.321,6.573,8.04s9.122-5.977,14.6-6.469S1611.665,1586.768,1611.665,1586.768Z" fill="#ffb03a"/>
          </g>
          <g id="Group_195" data-name="Group 195">
            <g id="Group_194" data-name="Group 194">
              <path id="Path_97" data-name="Path 97" d="M1612.681,1598.828l-1.822-1.846,19.245-18.989a.367.367,0,0,1,.515.522l-18.722,18.474.942.955,23.927-11.243a.367.367,0,1,1,.312.664Z" fill="#fd7816"/>
            </g>
          </g>
          <g id="Group_197" data-name="Group 197">
            <g id="Group_196" data-name="Group 196">
              <path id="Path_98" data-name="Path 98" d="M1600.335,1600.8a.733.733,0,0,1,1-1.072,29.793,29.793,0,0,0,6.529,4.537,23.534,23.534,0,0,0-2.062-2.614c-1.983-2.3-3.549-4.121-2.387-5.2,1.094-1.021,3.057.519,5.774,2.649,1.188.932,3.139,2.462,3.819,2.6a.3.3,0,0,0,.012-.078c.093-1.437-4.022-5.848-5.779-7.732a.731.731,0,0,1,.036-1.036.722.722,0,0,1,1.036.036c4.655,4.989,6.27,7.3,6.171,8.826a1.642,1.642,0,0,1-.6,1.191c-1.036.858-2.634-.318-5.6-2.648a24.169,24.169,0,0,0-3.691-2.578,20.472,20.472,0,0,0,2.321,3.023c1.9,2.21,3.278,3.806,2.224,4.788s-4-.577-8.755-4.639A.606.606,0,0,1,1600.335,1600.8Z" fill="#fe653b"/>
            </g>
          </g>
          <g id="Group_199" data-name="Group 199">
            <g id="Group_198" data-name="Group 198">
              <path id="Path_99" data-name="Path 99" d="M1634.749,1592.151a2,2,0,0,1-.31-2.193,2.231,2.231,0,0,0-.123-2.052,4.39,4.39,0,0,0-2.2-1.489c-1.356-.566-2.893-1.212-3-3.649-.092-2.074-.524-3.329-1.363-3.953-.775-.576-1.962-.65-3.627-.226a.367.367,0,0,1-.181-.711c1.893-.481,3.281-.367,4.245.348,1.029.763,1.556,2.2,1.658,4.509.087,1.974,1.229,2.452,2.551,3.006a5.025,5.025,0,0,1,2.534,1.768,2.926,2.926,0,0,1,.212,2.647c-.266.946-.427,1.517,1.5,2.258a.366.366,0,1,1-.263.684A4.568,4.568,0,0,1,1634.749,1592.151Z" fill="#fe653b"/>
            </g>
          </g>
          <g id="Group_200" data-name="Group 200" style="mix-blend-mode: screen;isolation: isolate">
            <path id="Path_100" data-name="Path 100" d="M1647.987,1576.276c-.99,2.352-6.7,2.2-12.745-.346s-10.151-6.514-9.162-8.866,6.7-2.2,12.745.346S1648.976,1573.923,1647.987,1576.276Z" fill="#333"/>
          </g>
        </g>
      </g>
    </g>
    <g id="Group_237" data-name="Group 237">
      <g id="Group_211" data-name="Group 211">
        <g id="Group_204" data-name="Group 204">
          <path id="Path_101" data-name="Path 101" d="M1701.324,1169.432a13.5,13.5,0,0,1-2.149,8.932c-6.133,9.416-49.017,30.517-61.76,25.92a5.178,5.178,0,0,1-3.045-2.573c-2.6-5.429,3.367-14.912,11.233-24.083.521-.6,1.042-1.206,1.578-1.8,1.875-2.122,3.841-4.188,5.78-6.194.609-.637,1.218-1.245,1.814-1.837a168.223,168.223,0,0,1,15.983-14.287c5.859-4.193,7.544-5.608,8.838-5.223C1692.12,1152.008,1700.491,1160.847,1701.324,1169.432Z" fill="#1a7eb4"/>
        </g>
        <g id="Group_205" data-name="Group 205">
          <path id="Path_102" data-name="Path 102" d="M1701.324,1169.432a13.5,13.5,0,0,1-2.149,8.932c-6.133,9.416-49.017,30.517-61.76,25.92l0-.029C1673.806,1180.505,1692.091,1171.631,1701.324,1169.432Z" fill="#12405b"/>
        </g>
        <g id="Group_210" data-name="Group 210">
          <g id="Group_207" data-name="Group 207">
            <g id="Group_206" data-name="Group 206">
              <path id="Path_103" data-name="Path 103" d="M1667.867,1169.711a.616.616,0,0,1,.334.786.713.713,0,0,1-.126.169.6.6,0,0,1-.66.165c-6.78-2.769-11.308-2.468-14.454-1.192.609-.637,1.218-1.245,1.814-1.837C1657.949,1167.119,1662.162,1167.381,1667.867,1169.711Z" fill="#fff"/>
            </g>
          </g>
          <g id="Group_209" data-name="Group 209">
            <g id="Group_208" data-name="Group 208">
              <path id="Path_104" data-name="Path 104" d="M1660.626,1177.665a.6.6,0,0,1,.333.786.572.572,0,0,1-.111.154.593.593,0,0,1-.66.164c-6.885-2.808-11.44-2.446-14.585-1.141.521-.6,1.042-1.206,1.578-1.8C1650.4,1175.043,1654.724,1175.241,1660.626,1177.665Z" fill="#fff"/>
            </g>
          </g>
        </g>
      </g>
      <g id="Group_219" data-name="Group 219">
        <g id="Group_212" data-name="Group 212">
          <path id="Path_105" data-name="Path 105" d="M1612.253,1172.351a13.5,13.5,0,0,1-5.572,7.305c-9.413,6.138-57.166,8.127-66.968-1.223a5.176,5.176,0,0,1-1.747-3.584c-.187-6.016,9.1-12.283,20-17.5.72-.341,1.44-.683,2.168-1.005,2.572-1.184,5.2-2.281,7.789-3.333.814-.337,1.617-.647,2.4-.948a168.11,168.11,0,0,1,20.39-6.617c7.054-1.471,9.167-2.085,10.2-1.211C1610.868,1152.695,1614.957,1164.161,1612.253,1172.351Z" fill="#1a7eb4"/>
        </g>
        <g id="Group_213" data-name="Group 213">
          <path id="Path_106" data-name="Path 106" d="M1612.253,1172.351a13.5,13.5,0,0,1-5.572,7.305c-9.413,6.138-57.166,8.127-66.968-1.223l.01-.028C1582.607,1171.371,1602.918,1170.636,1612.253,1172.351Z" fill="#12405b"/>
        </g>
        <g id="Group_218" data-name="Group 218">
          <g id="Group_215" data-name="Group 215">
            <g id="Group_214" data-name="Group 214">
              <path id="Path_107" data-name="Path 107" d="M1581.531,1159.1a.615.615,0,0,1-.011.854.734.734,0,0,1-.184.1.594.594,0,0,1-.67-.116c-5.085-5.271-9.349-6.823-12.742-6.926.814-.337,1.617-.647,2.4-.948C1573.5,1152.722,1577.253,1154.663,1581.531,1159.1Z" fill="#fff"/>
            </g>
          </g>
          <g id="Group_217" data-name="Group 217">
            <g id="Group_216" data-name="Group 216">
              <path id="Path_108" data-name="Path 108" d="M1571.695,1163.452a.6.6,0,0,1-.012.853.557.557,0,0,1-.164.1.594.594,0,0,1-.67-.116c-5.165-5.35-9.478-6.857-12.882-6.933.72-.341,1.44-.683,2.168-1.005C1563.394,1156.922,1567.274,1158.851,1571.695,1163.452Z" fill="#fff"/>
            </g>
          </g>
        </g>
      </g>
      <g id="Group_220" data-name="Group 220">
        <path id="Path_109" data-name="Path 109" d="M1622.386,785.086c8.276,9.353,19.924,2.652,22.24,19.532.494,3.657.741,10.048.859,17.906l-.005.08c.041,3.23.069,6.7.086,10.327.008,9.007-.006,19.009.084,28.619.183,20.5.906,39.31,3.77,43.311,6.136,8.505,27.145,42.309,78.374,10.05s22.639-57.439-6.681-94.142-7.759-76.513-25.584-90.036-35.715,4.035-35.715,4.035-.535-13.423-17.6-15.9-24.976,25.255-24.245,42.636c0,.039-.047.116-.049.156C1617.545,763.23,1614.632,776.323,1622.386,785.086Z" fill="#40312a"/>
      </g>
      <g id="Group_221" data-name="Group 221">
        <path id="Path_110" data-name="Path 110" d="M1621.622,821.077c11.421,6.015,23.863,1.447,23.863,1.447l-.005.08c-.121.67-.938,5.562-2.138,11.506-1.6,7.873-3.946,17.613-6.394,21.807-1.827,3.157,2.6,4.982,8.7,5.633,8.592.924,20.436-.5,22.744-3.711,3.923-5.5-5.214-55.554-5.214-55.554s15.241-8.753,13.2-16.41-9.831-3.47-23.745-4.679-18.584-18.711-18.584-18.711-4.01,6.929-10.084,6.557-6-7.539-6-7.539c0,.039-.047.116-.049.156C1608.864,787.249,1609.3,814.585,1621.622,821.077Z" fill="#fec6ab"/>
      </g>
      <g id="Group_222" data-name="Group 222">
        <path id="Path_111" data-name="Path 111" d="M1763.961,975.414c21.171,7.055,28.816,23.364,23.03,28.483s-24.117-10.691-24.117-10.691.742,5.806-.491,8.035-14.315-15.564-12.442-22.651S1763.961,975.414,1763.961,975.414Z" fill="#fec6ab"/>
      </g>
      <g id="Group_223" data-name="Group 223">
        <path id="Path_112" data-name="Path 112" d="M1627.481,969.756c-39.692,30.221-63.642,45.608-68.189,73.067s15.861,100.442,20.305,105.974,24.485,6.278,26.2,1.6-4.59-89.231-1.917-93.85,50.034-67.712,49.383-80.43S1627.481,969.756,1627.481,969.756Z" fill="#50768c"/>
      </g>
      <g id="Group_224" data-name="Group 224">
        <path id="Path_113" data-name="Path 113" d="M1598.436,1059.642c-3.259,29.85,58.474,99.618,66.486,101.542a17.029,17.029,0,0,0,11.384-1.735,16.342,16.342,0,0,0,1.815-1.005c2.983-1.85,5.247-4.343,6.023-6.606,1.75-5.154-2.493-37.455-10.7-51.825s-22.61-29.119-22.61-29.119,65.512-39.038,32.037-97.754-55.388-3.384-55.388-3.384C1617.152,1003.8,1601.694,1029.792,1598.436,1059.642Z" fill="#5091b9"/>
      </g>
      <g id="Group_226" data-name="Group 226">
        <g id="Group_225" data-name="Group 225">
          <path id="Path_114" data-name="Path 114" d="M1630.533,1075.033c3.16,9.6,11.331,22.612,20.01,36.453,9.915,15.79,20.847,33.2,25.763,47.963a16.342,16.342,0,0,0,1.815-1.005c-5.1-14.938-16-32.263-25.879-48.01-8.607-13.717-16.742-26.688-19.839-36-6.055-18.3,6.38-37.232,18.379-55.548,11.647-17.78,22.678-34.6,15.983-49.6l-1.8.806c6.237,14.011-4.486,30.373-15.827,47.693C1636.834,1036.483,1624.174,1055.834,1630.533,1075.033Z" fill="#fff"/>
        </g>
      </g>
      <g id="Group_227" data-name="Group 227">
        <path id="Path_115" data-name="Path 115" d="M1668.6,839.119c-20.406,8.877-27.375,2.387-27.375,2.387a34.017,34.017,0,0,0-20.123,3.759c-10.019,5.485-30.318,38.319-44.661,50s-51,36.337-51.218,39.911,1.532,10.157,7.877,11.959,77.435-40.461,77.435-40.461,9.079,56.866,16.948,63.086,47.447,10.072,55.388,3.384,7.569-70.729,7.569-70.729,52.885,77.753,59.256,79.885,18.849-2.486,17.66-6.5-50.57-106.576-67.413-123.557C1688.116,840.312,1668.6,839.119,1668.6,839.119Z" fill="#fe653b"/>
      </g>
      <g id="Group_228" data-name="Group 228">
        <path id="Path_116" data-name="Path 116" d="M1621.739,776.4c-4.736,5.221-8.147,16.7-7.113,17.946s6.221.5,7.112-.046S1621.739,776.4,1621.739,776.4Z" fill="#fd9b73"/>
      </g>
      <g id="Group_229" data-name="Group 229">
        <path id="Path_117" data-name="Path 117" d="M1643.342,834.11a11.921,11.921,0,0,0,2.224-1.179c8.158-5.679,9.539-21.1,9.539-21.1s-4.072,7.283-9.62,10.69l-.005.08C1645.359,823.274,1644.542,828.166,1643.342,834.11Z" fill="#fd9b73"/>
      </g>
      <g id="Group_230" data-name="Group 230">
        <path id="Path_118" data-name="Path 118" d="M1687.789,990.33c-19.231-9.109-101.784-17.164-101.784-17.164l34.3,28.471Z" fill="#1d3442"/>
      </g>
      <g id="Group_231" data-name="Group 231">
        <path id="Path_119" data-name="Path 119" d="M1620.5,1004.62s66.174-5.65,69.124-7.617c1.56-1.041,1.406-5.517-1.835-6.673s-70.09,9-70.09,9Z" fill="#28495c"/>
      </g>
      <g id="Group_232" data-name="Group 232">
        <path id="Path_120" data-name="Path 120" d="M1512.594,973.353c.882,1.86,13.026,6.286,28.9,11.292,3.632,1.108,7.473,2.291,11.41,3.462,2,.572,4.037,1.159,6.075,1.746,15.865,4.629,32.611,9.151,44.621,11.984,10.232,2.432,17,3.676,16.893,2.8,0,0-4.076-65.9-8.644-69.636-2.25-1.833-29.544-11.055-56.911-19.414-11.576-3.52-23.171-6.861-32.883-9.436-1.152-.317-2.318-.592-3.428-.9-1.638-.4-3.178-.8-4.65-1.143-9.44-2.291-15.85-3.36-16.707-2.4C1493.663,905.9,1509.949,967.772,1512.594,973.353Z" fill="#28495c"/>
      </g>
      <g id="Group_235" data-name="Group 235">
        <g id="Group_233" data-name="Group 233" style="mix-blend-mode: screen;isolation: isolate">
          <path id="Path_121" data-name="Path 121" d="M1522.052,906.146l36.924,83.707c15.865,4.629,32.611,9.151,44.621,11.984l-48.662-86.255C1543.359,912.062,1531.764,908.721,1522.052,906.146Z" fill="#1a1a1a"/>
        </g>
        <g id="Group_234" data-name="Group 234" style="mix-blend-mode: screen;isolation: isolate">
          <path id="Path_122" data-name="Path 122" d="M1513.974,904.108l27.517,80.537c3.632,1.108,7.473,2.291,11.41,3.462l-34.277-82.856C1516.986,904.855,1515.446,904.446,1513.974,904.108Z" fill="#1a1a1a"/>
        </g>
      </g>
      <g id="Group_236" data-name="Group 236">
        <path id="Path_123" data-name="Path 123" d="M1498.273,932.048c-11.925-14.138,15.136-12.618,18.351.726,2.425,10.066-12.771,13.786-17.31,9.392A7.382,7.382,0,0,1,1498.273,932.048Z" fill="#fec6ab"/>
      </g>
    </g>
    <g id="Group_270" data-name="Group 270">
      <g id="Group_238" data-name="Group 238">
        <path id="Path_124" data-name="Path 124" d="M921.122,1977.126a13.707,13.707,0,0,0,5.735,7.36c9.624,6.136,58.142,7.658,68-1.941a5.259,5.259,0,0,0,1.736-3.658c.127-6.112-9.371-12.379-20.495-17.56-.735-.34-1.47-.679-2.213-1-2.624-1.176-5.309-2.262-7.944-3.3-.831-.334-1.649-.64-2.449-.938a170.777,170.777,0,0,0-20.777-6.508c-7.179-1.42-9.331-2.021-10.367-1.122C922.324,1957.149,918.29,1968.836,921.122,1977.126Z" fill="#1a7eb4"/>
      </g>
      <g id="Group_239" data-name="Group 239">
        <path id="Path_125" data-name="Path 125" d="M921.122,1977.126a13.707,13.707,0,0,0,5.735,7.36c9.624,6.136,58.142,7.658,68-1.941l-.011-.028C951.219,1975.821,930.584,1975.286,921.122,1977.126Z" fill="#12405b"/>
      </g>
      <g id="Group_244" data-name="Group 244">
        <g id="Group_241" data-name="Group 241">
          <g id="Group_240" data-name="Group 240">
            <path id="Path_126" data-name="Path 126" d="M952.184,1963.346a.622.622,0,0,0,.021.866.7.7,0,0,0,.187.1.605.605,0,0,0,.68-.124c5.108-5.406,9.422-7.027,12.868-7.167-.831-.334-1.649-.64-2.449-.938C960.269,1956.787,956.483,1958.8,952.184,1963.346Z" fill="#fff"/>
          </g>
        </g>
        <g id="Group_243" data-name="Group 243">
          <g id="Group_242" data-name="Group 242">
            <path id="Path_127" data-name="Path 127" d="M962.218,1967.664a.606.606,0,0,0,.022.867.593.593,0,0,0,.167.1.605.605,0,0,0,.68-.125c5.189-5.487,9.554-7.063,13.01-7.175-.735-.34-1.47-.679-2.213-1C970.581,1960.946,966.66,1962.945,962.218,1967.664Z" fill="#fff"/>
          </g>
        </g>
      </g>
      <g id="Group_245" data-name="Group 245">
        <path id="Path_128" data-name="Path 128" d="M754.574,1901.332a13.71,13.71,0,0,0-4.108,8.378c-1.3,11.339,18.559,55.63,31.5,60.292a5.26,5.26,0,0,0,4.049-.039c5.552-2.561,7.03-13.843,6.821-26.113-.017-.809-.033-1.619-.071-2.427-.091-2.874-.29-5.764-.506-8.589-.063-.893-.146-1.763-.229-2.612a170.839,170.839,0,0,0-3.241-21.53c-1.865-7.076-2.265-9.274-3.527-9.813C773.063,1893.671,760.789,1895.159,754.574,1901.332Z" fill="#1a7eb4"/>
      </g>
      <g id="Group_246" data-name="Group 246">
        <path id="Path_129" data-name="Path 129" d="M754.574,1901.332a13.71,13.71,0,0,0-4.108,8.378c-1.3,11.339,18.559,55.63,31.5,60.292l.021-.022C768.919,1927.824,760.369,1909.036,754.574,1901.332Z" fill="#12405b"/>
      </g>
      <g id="Group_251" data-name="Group 251">
        <g id="Group_248" data-name="Group 248">
          <g id="Group_247" data-name="Group 247">
            <path id="Path_130" data-name="Path 130" d="M780.558,1923.231a.625.625,0,0,0-.77.4.774.774,0,0,0-.012.214.6.6,0,0,0,.41.557c7.1,2.228,10.442,5.4,12.076,8.434-.063-.893-.146-1.763-.229-2.612C789.994,1927.631,786.529,1925.106,780.558,1923.231Z" fill="#fff"/>
          </g>
        </g>
        <g id="Group_250" data-name="Group 250">
          <g id="Group_249" data-name="Group 249">
            <path id="Path_131" data-name="Path 131" d="M781.066,1934.144a.607.607,0,0,0-.77.4.661.661,0,0,0,.4.749c7.205,2.266,10.532,5.5,12.146,8.559-.017-.809-.033-1.619-.071-2.427C790.767,1938.723,787.253,1936.073,781.066,1934.144Z" fill="#fff"/>
          </g>
        </g>
      </g>
      <g id="Group_256" data-name="Group 256">
        <g id="Group_252" data-name="Group 252">
          <path id="Path_132" data-name="Path 132" d="M927.012,1547.836c-20.187-6.2-17.2-18.276-17.2-18.276s-15.264-11.619-13.386-24.805,12.414-16.83,12.414-16.83,2.459-24.115,19.207-27.542c15.562-3.184,23.218,9.307,23.218,9.307s11.863-17,32.358-5.512c21.615,12.115,10.4,33.98,10.4,33.98s6.086,13.1-5.889,19.2S927.012,1547.836,927.012,1547.836Z" fill="#40312a"/>
        </g>
        <g id="Group_253" data-name="Group 253">
          <path id="Path_133" data-name="Path 133" d="M918.8,1515.615c-1.4,10.436,11.92,17.787,11.92,17.787s-20.952,54.048-18.914,56.847,38.187,12.457,32.227,5.918c-3.1-3.407-2.771-12.2-1.747-19.854a127.021,127.021,0,0,1,2.5-13.237,7.567,7.567,0,0,0,.4.647c1.7,2.455,8.475,11.055,18.944,8.678,11.982-2.717,23.88-30.572,23.994-55.045,0,0-4.364,3.729-12.13-.467s-9.2-13.691-9.2-13.691-9.87,13.266-22.012,13.882S920.2,1505.178,918.8,1515.615Z" fill="#fec6ab"/>
        </g>
        <g id="Group_254" data-name="Group 254">
          <path id="Path_134" data-name="Path 134" d="M979.2,1527.107c3.026,9.441,1.944,22.178.379,23.146s-6.988-1.634-7.676-2.932S979.2,1527.107,979.2,1527.107Z" fill="#fd9b73"/>
        </g>
        <g id="Group_255" data-name="Group 255">
          <path id="Path_135" data-name="Path 135" d="M935.392,1546.1c-.161,1.439-2.372,23.175,6.9,30.208a127.021,127.021,0,0,1,2.5-13.237A62.559,62.559,0,0,1,935.392,1546.1Z" fill="#fd9b73"/>
        </g>
      </g>
      <g id="Group_257" data-name="Group 257">
        <path id="Path_136" data-name="Path 136" d="M944.786,1731.4c30.389,82.825,15.33,216.039,12.434,220.673s-28.96,8.109-35.91,2.317-20.851-61.974-17.955-96.146-16.421-122.789-.391-135.531S944.786,1731.4,944.786,1731.4Z" fill="#367394"/>
      </g>
      <g id="Group_258" data-name="Group 258">
        <path id="Path_137" data-name="Path 137" d="M918.414,1859.112c-12.163,18.39-108.068,72.255-116.9,70.9-6.323-.917-16.7-12.983-20.369-25.1a24.246,24.246,0,0,1-.675-2.51,21.059,21.059,0,0,1,.1-11.1c4.634-14.48,74.716-63.712,74.716-63.712s-27.512-85.382,6.226-106.426c33.738-20.995,68.49-6.806,68.49-6.806C930.287,1765.573,930.577,1840.723,918.414,1859.112Z" fill="#5091b9"/>
      </g>
      <g id="Group_260" data-name="Group 260">
        <g id="Group_259" data-name="Group 259">
          <path id="Path_138" data-name="Path 138" d="M883.035,1828.608c-4.054,9.123-41.461,34.752-74.426,57.292-9.316,6.371-19.162,13.129-27.464,19.017a24.246,24.246,0,0,1-.675-2.51c7.24-5.116,16.217-11.246,26.787-18.486,31.084-21.285,69.793-47.783,73.558-56.278,2.461-5.55-.1-19.113-3.041-34.752-4.971-26.642-11.246-59.8,3.282-75.053l1.738,1.641c-13.66,14.383-7.53,46.866-2.607,72.929C883.325,1809.157,885.786,1822.382,883.035,1828.608Z" fill="#fff"/>
        </g>
      </g>
      <g id="Group_261" data-name="Group 261">
        <path id="Path_139" data-name="Path 139" d="M802.975,1733.9c-.736,11.4-3.5,28.971-7.5,28.662s-3.034-12.019-3.034-12.019-12.64,24.039-21.86,19.724-7.684-36.367,13.523-46.229S802.975,1733.9,802.975,1733.9Z" fill="#fec6ab"/>
      </g>
      <g id="Group_262" data-name="Group 262">
        <path id="Path_140" data-name="Path 140" d="M914.537,1578.165a32.556,32.556,0,0,0,27.063,9.1s35.958,13.236,55.328,33.508,56.265,76.227,42.508,83.4c-27.772,14.488-72.809-29.539-72.809-29.539s-15.74,54.444-21.841,56.76-78.81-4.633-83.288-11.583,0-73.558,0-73.558-46.18,90.354-56.027,91.513-28.959-8.109-29.538-13.9,25.6-88.037,67.765-122.21C876.473,1575.1,914.537,1578.165,914.537,1578.165Z" fill="#79c5ee"/>
      </g>
      <g id="Group_263" data-name="Group 263">
        <path id="Path_141" data-name="Path 141" d="M882.5,1651.762c23.168-2.317,111.2,19.733,111.2,19.733l-45.816,16.73Z" fill="#f04936"/>
      </g>
      <g id="Group_264" data-name="Group 264">
        <path id="Path_142" data-name="Path 142" d="M946.6,1691.228s-66.119-30.153-68.436-33.264c-1.225-1.646.579-6.2,4.344-6.2s68.924,35.041,68.924,35.041Z" fill="#ff643b"/>
      </g>
      <g id="Group_265" data-name="Group 265">
        <path id="Path_143" data-name="Path 143" d="M1069.294,1698.676c-1.593,1.593-15.735,1.689-33.931,1.014-4.151-.194-8.544-.386-13.032-.627-2.269-.145-4.586-.29-6.9-.435-18.052-1.062-36.972-2.559-50.39-4.054-11.439-1.255-18.872-2.462-18.438-3.331,0,0,28.429-66.414,34.511-68.586,2.992-1.062,34.51-.531,65.786.917,13.225.628,26.4,1.448,37.358,2.365,1.3.1,2.606.241,3.861.338,1.835.193,3.572.338,5.213.531,10.571,1.11,17.569,2.365,18.1,3.668C1113.6,1636.123,1074.072,1693.9,1069.294,1698.676Z" fill="#ff643b"/>
      </g>
      <g id="Group_268" data-name="Group 268">
        <g id="Group_266" data-name="Group 266" style="mix-blend-mode: screen;isolation: isolate">
          <path id="Path_144" data-name="Path 144" d="M1084.256,1625.939l-68.827,72.689c-18.052-1.062-36.972-2.559-50.39-4.054l81.859-71C1060.123,1624.2,1073.3,1625.022,1084.256,1625.939Z" fill="#1a1a1a"/>
        </g>
        <g id="Group_267" data-name="Group 267" style="mix-blend-mode: screen;isolation: isolate">
          <path id="Path_145" data-name="Path 145" d="M1093.33,1626.808l-57.967,72.882c-4.151-.194-8.544-.386-13.032-.627l65.786-72.786C1089.952,1626.47,1091.689,1626.615,1093.33,1626.808Z" fill="#1a1a1a"/>
        </g>
      </g>
      <g id="Group_269" data-name="Group 269">
        <path id="Path_146" data-name="Path 146" d="M1031.2,1704.3c-4.85-8.268,14.825-21.378,22.981-18.84s16.281,12.336,12.941,18.036c-4.8,8.184-17.955,2.6-17.955,2.6S1036.95,1714.106,1031.2,1704.3Z" fill="#fec6ab"/>
      </g>
    </g>
    <g id="Group_292" data-name="Group 292">
      <g id="Group_271" data-name="Group 271">
        <path id="Path_147" data-name="Path 147" d="M1904.837,1961.749c-9.184,12.926-20.953,23.538-26.356,24.271-5.479.734-24.734,0-45.919-3.666-24.2-4.244-50.9-12.271-62.435-26.355-21.61-26.433-22-58.5,25.236-51.283,0,0,96.123-4.014,116.5,13.621C1922.9,1927.868,1915.681,1946.468,1904.837,1961.749Z" fill="#5091b9"/>
      </g>
      <g id="Group_272" data-name="Group 272" style="mix-blend-mode: color-burn;isolation: isolate">
        <path id="Path_148" data-name="Path 148" d="M1904.837,1961.749c-9.184,12.926-20.953,23.538-26.356,24.271-5.479.734-24.734,0-45.919-3.666-24.118-37.374,17.983-83.041,62.937-50.627A250.181,250.181,0,0,1,1904.837,1961.749Z" fill="#ccc"/>
      </g>
      <g id="Group_273" data-name="Group 273">
        <path id="Path_149" data-name="Path 149" d="M1879.111,1983.256c-2.981,4.094-17.309,5.117-28.611,3.827a39.912,39.912,0,0,1-11.479-2.714c-9.078-4.316-7.832-34.484-.891-42.36,3.026-3.426,7.565-3.026,12.415-.979,6.274,2.537,13.215,7.7,18.377,10.5C1868.922,1951.531,1883.383,1977.472,1879.111,1983.256Z" fill="#1a7eb4"/>
      </g>
      <g id="Group_274" data-name="Group 274">
        <path id="Path_150" data-name="Path 150" d="M1978.849,1912.72c42.781,9.222,27.965,60.881-23.3,69.691s-83.395,8.391-86.949,3.8-5.294-39.4,6.188-41.221,26.86-19.608,49.606-27.533S1978.849,1912.72,1978.849,1912.72Z" fill="#5091b9"/>
      </g>
      <g id="Group_275" data-name="Group 275">
        <path id="Path_151" data-name="Path 151" d="M1809.929,1850.622c-33.1-22.5-47.179-57.214,3.963-95.655s43.469-77.359,69.41-81.929,35.018,16.788,35.018,16.788,20.876-11.4,30.435,12.926-4.805,46.876,16.019,75.175,41.648,68.345-3.2,81.16S1809.929,1850.622,1809.929,1850.622Z" fill="#40312a"/>
      </g>
      <g id="Group_280" data-name="Group 280">
        <g id="Group_276" data-name="Group 276">
          <path id="Path_152" data-name="Path 152" d="M1897.971,1834.016c-18.831,3.863-49.009-21.486-29.936-26.315a20.95,20.95,0,0,0,15.1-13.547,32.515,32.515,0,0,0,1.8-13.01s.509-.322,1.368-.831c4.882-2.871,21.165-11.347,21.567,3,.054,1.583.161,3.112.322,4.507,1.69,13.626,9.04,19.448,17.785,22.291C1935.634,1813.254,1916.8,1830.153,1897.971,1834.016Z" fill="#fec6ab"/>
        </g>
        <g id="Group_277" data-name="Group 277">
          <path id="Path_153" data-name="Path 153" d="M1908.192,1787.824c-4.051,6.384-17.356,7.94-25.055,6.33a32.515,32.515,0,0,0,1.8-13.01s.509-.322,1.368-.831C1895.316,1780.527,1908.192,1787.824,1908.192,1787.824Z" fill="#fd9b73"/>
        </g>
        <g id="Group_278" data-name="Group 278">
          <path id="Path_154" data-name="Path 154" d="M1857.04,1731.923c-2.312,16.186,13.1,20.425,13.1,20.425s1.927,37.447,28.9,37.447,27.363-32.051,27.363-32.051,21.967-6.552,18.5-18.114-13.488,1.157-25.821-4.239-10.02-18.113-10.02-18.113-9.635,18.5-23.894,20.425S1857.04,1731.923,1857.04,1731.923Z" fill="#fec6ab"/>
        </g>
        <g id="Group_279" data-name="Group 279">
          <path id="Path_155" data-name="Path 155" d="M1899.254,1742.853c-9.091,9.363-9.091,20.49-8.413,21.168s7.192-.543,8.413-1.221S1899.254,1742.853,1899.254,1742.853Z" fill="#fd9b73"/>
        </g>
      </g>
      <g id="Group_281" data-name="Group 281">
        <path id="Path_156" data-name="Path 156" d="M1874.793,1804.81c25.834,23.895,43.127,1.321,43.127,1.321s28.837,6.893,39.2,15.814c14.486,12.47,30.42,76.29,21.729,90.775s-154.512,11.588-158.374-11.588S1874.793,1804.81,1874.793,1804.81Z" fill="#ffb03a"/>
      </g>
      <g id="Group_282" data-name="Group 282">
        <path id="Path_157" data-name="Path 157" d="M1874.793,1804.81c-38.867.235-55.185,16-61.029,29.6-5.806,13.517-27.261,54.1-20.435,75.459,17.451-7.853,33.436-17.174,49.263-26.649C1839.106,1866.522,1874.793,1804.81,1874.793,1804.81Z" fill="#ffb03a"/>
      </g>
      <g id="Group_283" data-name="Group 283">
        <path id="Path_158" data-name="Path 158" d="M1898.093,1901.629c10.1-6.563,21.454-11.107,23.221-9.087s-3.533,7.236-3.533,7.236,18.173-10.244,21.454-2.935-20.192,34.153-44.928,24.644S1898.093,1901.629,1898.093,1901.629Z" fill="#fec6ab"/>
      </g>
      <g id="Group_284" data-name="Group 284">
        <path id="Path_159" data-name="Path 159" d="M1900.512,1897.8s-53.49,1.882-57.827-14.052c-.043-.161-.057-.355-.093-.525-15.827,9.475-31.812,18.8-49.263,26.649.044.139.059.3.106.433,7.243,21.245,92.921,23.177,102.229,15.934S1900.512,1897.8,1900.512,1897.8Z" fill="#ffb03a"/>
      </g>
      <g id="Group_285" data-name="Group 285">
        <path id="Path_160" data-name="Path 160" d="M1850.5,1987.083a39.912,39.912,0,0,1-11.479-2.714c-9.078-4.316-7.832-34.484-.891-42.36,3.026-3.426,7.565-3.026,12.415-.979C1839.866,1952.109,1844.849,1976.582,1850.5,1987.083Z" fill="#12405b"/>
      </g>
      <g id="Group_287" data-name="Group 287">
        <g id="Group_286" data-name="Group 286">
          <path id="Path_161" data-name="Path 161" d="M1860.38,1978.562a.646.646,0,0,1-.144-.017.559.559,0,0,1-.4-.68c.039-.146,3.807-14.659,1.334-24.282a.557.557,0,0,1,1.078-.278c2.546,9.9-1.174,24.238-1.334,24.842A.556.556,0,0,1,1860.38,1978.562Z" fill="#fff"/>
        </g>
      </g>
      <g id="Group_289" data-name="Group 289">
        <g id="Group_288" data-name="Group 288">
          <path id="Path_162" data-name="Path 162" d="M1854.362,1977.157a.645.645,0,0,1-.144-.018.559.559,0,0,1-.4-.68c.039-.145,3.806-14.659,1.338-24.281a.556.556,0,0,1,.4-.678.551.551,0,0,1,.678.4c2.542,9.905-1.182,24.238-1.339,24.842A.557.557,0,0,1,1854.362,1977.157Z" fill="#fff"/>
        </g>
      </g>
      <g id="Group_290" data-name="Group 290">
        <path id="Path_163" data-name="Path 163" d="M1824.119,1854.4c3.758-.553,131.538.527,134.514,2.107s-6.856,69.377-18.941,74.772-92,2.015-100.177-2.73C1834.268,1925.5,1821.475,1854.785,1824.119,1854.4Z" fill="#28495c"/>
      </g>
      <g id="Group_291" data-name="Group 291">
        <ellipse id="Ellipse_27" data-name="Ellipse 27" cx="12.05" cy="10.381" rx="12.05" ry="10.381" transform="translate(1879.416 1883.76)" fill="#fad6b9"/>
      </g>
    </g>
    <g id="Group_293" data-name="Group 293">
      <path id="Path_164" data-name="Path 164" d="M2420.509,2092.586H426.873a104.928,104.928,0,0,1-104.928-104.928H2525.437A104.928,104.928,0,0,1,2420.509,2092.586Z" fill="#65658c"/>
    </g>
  </g>
</svg>
