<svg xmlns="http://www.w3.org/2000/svg" width="378.512" height="304.88" viewBox="0 0 378.512 304.88">
  <g id="Group_568" data-name="Group 568" transform="translate(-138.594 -537.871)">
    <path id="Path_378" data-name="Path 378" d="M533.671,830.807S655.12,517.708,432.247,538.9c-95.458,9.077-77.638,64.147-119.8,115.674-27.328,33.4-79.886,6.076-99.582,35.261s3.45,112.4,11.569,140.97Z" transform="translate(-53.239 0)" fill="#e5f0f8"/>
    <g id="Group_528" data-name="Group 528" transform="translate(138.594 794.545)">
      <path id="Path_379" data-name="Path 379" d="M188.633,1857.4s-6.2-24.712-21.638-32.339-31.926,2.815-27.74,13.795c3.609,9.467,18.449-2.174,30,2.4s13.367,16.141,13.367,16.141Z" transform="translate(-138.594 -1822.446)" fill="#40a87b"/>
      <path id="Path_380" data-name="Path 380" d="M156.838,1853.909s16.574-9.445,28.872-.713,16.189,25.842,16.189,25.842" transform="translate(-153.193 -1844.088)" fill="none" stroke="#6adb6a" stroke-miterlimit="10" stroke-width="3.483"/>
      <line id="Line_1" data-name="Line 1" x2="3.856" y2="1.681" transform="translate(6.319 5.404)" fill="none" stroke="#6adb6a" stroke-miterlimit="10" stroke-width="3.483"/>
      <line id="Line_2" data-name="Line 2" x2="7.681" y2="3.602" transform="translate(11.888 1.802)" fill="none" stroke="#6adb6a" stroke-miterlimit="10" stroke-width="3.483"/>
      <line id="Line_3" data-name="Line 3" x2="3.996" y2="4.72" transform="translate(23.428 1.802)" fill="none" stroke="#6adb6a" stroke-miterlimit="10" stroke-width="3.483"/>
      <line id="Line_4" data-name="Line 4" x2="1.796" y2="4.347" transform="translate(31.002 4.965)" fill="none" stroke="#6adb6a" stroke-miterlimit="10" stroke-width="3.483"/>
      <line id="Line_5" data-name="Line 5" y1="9.794" x2="5.92" transform="translate(8.247 6.043)" fill="none" stroke="#6adb6a" stroke-miterlimit="10" stroke-width="3.483"/>
      <line id="Line_6" data-name="Line 6" y1="8.72" x2="5.429" transform="translate(18.705 5.713)" fill="none" stroke="#6adb6a" stroke-miterlimit="10" stroke-width="3.483"/>
      <line id="Line_7" data-name="Line 7" y1="1.014" x2="8.162" transform="translate(27.928 12.082)" fill="none" stroke="#6adb6a" stroke-miterlimit="10" stroke-width="3.483"/>
      <line id="Line_8" data-name="Line 8" x2="4.679" y2="1.536" transform="translate(37.431 18.042)" fill="none" stroke="#6adb6a" stroke-miterlimit="10" stroke-width="3.483"/>
    </g>
    <g id="Group_529" data-name="Group 529" transform="translate(156.998 661.46)">
      <line id="Line_9" data-name="Line 9" x2="75.632" transform="translate(0 34.565)" fill="none" stroke="#bbdbf3" stroke-linecap="round" stroke-linejoin="round" stroke-width="1.685" stroke-dasharray="10.071"/>
      <line id="Line_10" data-name="Line 10" x2="75.632" transform="translate(0 29.654)" fill="none" stroke="#bbdbf3" stroke-linecap="round" stroke-linejoin="round" stroke-width="1.685" stroke-dasharray="10.071"/>
      <line id="Line_11" data-name="Line 11" x1="75.632" transform="translate(0 24.743)" fill="none" stroke="#bbdbf3" stroke-linecap="round" stroke-linejoin="round" stroke-width="1.685" stroke-dasharray="10.071"/>
      <line id="Line_12" data-name="Line 12" x2="75.632" transform="translate(0 19.831)" fill="none" stroke="#bbdbf3" stroke-linecap="round" stroke-linejoin="round" stroke-width="1.685" stroke-dasharray="10.071"/>
      <line id="Line_13" data-name="Line 13" x2="75.632" transform="translate(0 14.92)" fill="none" stroke="#bbdbf3" stroke-linecap="round" stroke-linejoin="round" stroke-width="1.685" stroke-dasharray="10.071"/>
      <line id="Line_14" data-name="Line 14" x2="75.632" transform="translate(0 10.008)" fill="none" stroke="#bbdbf3" stroke-linecap="round" stroke-linejoin="round" stroke-width="1.685" stroke-dasharray="10.071"/>
      <line id="Line_15" data-name="Line 15" x2="75.632" transform="translate(0 5.097)" fill="none" stroke="#bbdbf3" stroke-linecap="round" stroke-linejoin="round" stroke-width="1.685" stroke-dasharray="10.071"/>
      <path id="Path_381" data-name="Path 381" d="M231.261,1215.322s3.6-1.766,6.376.42,6.054,7.483,17.322,7.052,17.2,3.055,24.385,6.782c9,4.664,15.808-2.216,18.583-8.319a9.746,9.746,0,0,1,8.855-5.851" transform="translate(-231.15 -1203.009)" fill="none" stroke="#2ec6fc" stroke-linecap="round" stroke-linejoin="round" stroke-width="3.37"/>
      <path id="Path_382" data-name="Path 382" d="M231.261,1262.159s3.769-6.263,12.934-4.646,18.919,1.617,25.982-3.294c4.337-3.015,10.09-10.293,20.517-4.021s13.927,6.054,16.086,5.8" transform="translate(-231.15 -1229.476)" fill="none" stroke="#f74242" stroke-linecap="round" stroke-linejoin="round" stroke-width="3.37"/>
      <circle id="Ellipse_2" data-name="Ellipse 2" cx="2.013" cy="2.013" r="2.013" transform="translate(9.147 25.979)" fill="#fff" stroke="#f74242" stroke-linecap="round" stroke-linejoin="round" stroke-width="3.37"/>
      <circle id="Ellipse_3" data-name="Ellipse 3" cx="2.013" cy="2.013" r="2.013" transform="translate(27.319 26.568)" fill="#fff" stroke="#f74242" stroke-linecap="round" stroke-linejoin="round" stroke-width="3.37"/>
      <circle id="Ellipse_4" data-name="Ellipse 4" cx="2.013" cy="2.013" r="2.013" transform="translate(49.376 16.236)" fill="#fff" stroke="#f74242" stroke-linecap="round" stroke-linejoin="round" stroke-width="3.37"/>
      <circle id="Ellipse_5" data-name="Ellipse 5" cx="2.013" cy="2.013" r="2.013" transform="translate(18.433 17.587)" fill="#fff" stroke="#2ec6fc" stroke-linecap="round" stroke-linejoin="round" stroke-width="3.37"/>
      <circle id="Ellipse_6" data-name="Ellipse 6" cx="2.013" cy="2.013" r="2.013" transform="translate(51.899 26.091)" fill="#fff" stroke="#2ec6fc" stroke-linecap="round" stroke-linejoin="round" stroke-width="3.37"/>
      <circle id="Ellipse_7" data-name="Ellipse 7" cx="2.013" cy="2.013" r="2.013" transform="translate(69.22 11.292)" fill="#fff" stroke="#2ec6fc" stroke-linecap="round" stroke-linejoin="round" stroke-width="3.37"/>
      <circle id="Ellipse_8" data-name="Ellipse 8" cx="2.013" cy="2.013" r="2.013" transform="translate(68.295 23.966)" fill="#fff" stroke="#f74242" stroke-linecap="round" stroke-linejoin="round" stroke-width="3.37"/>
      <path id="Path_383" data-name="Path 383" d="M231.261,1156.4v39.2h76.262" transform="translate(-231.149 -1156.397)" fill="none" stroke="#bbdbf3" stroke-linecap="round" stroke-linejoin="round" stroke-width="3.37"/>
    </g>
    <g id="Group_530" data-name="Group 530" transform="translate(146.689 756.457)">
      <path id="Path_384" data-name="Path 384" d="M226.364,1704.939s4.371-82.835-35.193-72.161,30.863,55.319,30.8,72.161Z" transform="translate(-179.107 -1631.829)" fill="#6adb6a"/>
      <path id="Path_385" data-name="Path 385" d="M289.136,1738.707s-1.382-43.279-29.585-64.678" transform="translate(-243.477 -1665.596)" fill="none" stroke="#40a87b" stroke-miterlimit="10" stroke-width="3.483"/>
      <line id="Line_16" data-name="Line 16" x1="0.705" y1="14.924" transform="translate(27.739 6.057)" fill="none" stroke="#40a87b" stroke-miterlimit="10" stroke-width="3.483"/>
      <line id="Line_17" data-name="Line 17" x2="19.063" y2="2.485" transform="translate(6.316 14.797)" fill="none" stroke="#40a87b" stroke-miterlimit="10" stroke-width="3.483"/>
      <line id="Line_18" data-name="Line 18" x2="20.156" y2="2.348" transform="translate(13.73 27.534)" fill="none" stroke="#40a87b" stroke-miterlimit="10" stroke-width="3.483"/>
      <line id="Line_19" data-name="Line 19" x2="15.568" y2="2.2" transform="translate(23.807 40.156)" fill="none" stroke="#40a87b" stroke-miterlimit="10" stroke-width="3.483"/>
      <line id="Line_20" data-name="Line 20" x1="3.568" y2="8.669" transform="translate(37.3 28.363)" fill="none" stroke="#40a87b" stroke-miterlimit="10" stroke-width="3.483"/>
      <line id="Line_21" data-name="Line 21" x1="3.042" y2="12.205" transform="translate(31.963 14.293)" fill="none" stroke="#40a87b" stroke-miterlimit="10" stroke-width="3.483"/>
      <line id="Line_22" data-name="Line 22" x1="2.843" y2="5.666" transform="translate(41.357 42.835)" fill="none" stroke="#40a87b" stroke-miterlimit="10" stroke-width="3.483"/>
      <line id="Line_23" data-name="Line 23" x2="11.156" y2="3.517" transform="translate(31.963 51.858)" fill="none" stroke="#40a87b" stroke-miterlimit="10" stroke-width="3.483"/>
    </g>
    <g id="Group_531" data-name="Group 531" transform="translate(467.067 794.545)">
      <path id="Path_386" data-name="Path 386" d="M1782.5,1857.4s6.2-24.712,21.638-32.339,31.926,2.815,27.74,13.795c-3.609,9.467-18.449-2.174-30,2.4s-13.367,16.141-13.367,16.141Z" transform="translate(-1782.504 -1822.446)" fill="#40a87b"/>
      <path id="Path_387" data-name="Path 387" d="M1834.237,1853.909s-16.574-9.445-28.872-.713-16.189,25.842-16.189,25.842" transform="translate(-1787.843 -1844.088)" fill="none" stroke="#6adb6a" stroke-miterlimit="10" stroke-width="3.483"/>
      <line id="Line_24" data-name="Line 24" x1="3.856" y2="1.681" transform="translate(39.864 5.404)" fill="none" stroke="#6adb6a" stroke-miterlimit="10" stroke-width="3.483"/>
      <line id="Line_25" data-name="Line 25" x1="7.681" y2="3.602" transform="translate(30.47 1.802)" fill="none" stroke="#6adb6a" stroke-miterlimit="10" stroke-width="3.483"/>
      <line id="Line_26" data-name="Line 26" x1="3.996" y2="4.72" transform="translate(22.615 1.802)" fill="none" stroke="#6adb6a" stroke-miterlimit="10" stroke-width="3.483"/>
      <line id="Line_27" data-name="Line 27" x1="1.796" y2="4.347" transform="translate(17.24 4.965)" fill="none" stroke="#6adb6a" stroke-miterlimit="10" stroke-width="3.483"/>
      <line id="Line_28" data-name="Line 28" x1="5.92" y1="9.794" transform="translate(35.872 6.043)" fill="none" stroke="#6adb6a" stroke-miterlimit="10" stroke-width="3.483"/>
      <line id="Line_29" data-name="Line 29" x1="5.429" y1="8.72" transform="translate(25.905 5.713)" fill="none" stroke="#6adb6a" stroke-miterlimit="10" stroke-width="3.483"/>
      <line id="Line_30" data-name="Line 30" x1="8.162" y1="1.014" transform="translate(13.949 12.082)" fill="none" stroke="#6adb6a" stroke-miterlimit="10" stroke-width="3.483"/>
      <line id="Line_31" data-name="Line 31" x1="4.679" y2="1.536" transform="translate(7.93 18.042)" fill="none" stroke="#6adb6a" stroke-miterlimit="10" stroke-width="3.483"/>
    </g>
    <g id="Group_532" data-name="Group 532" transform="translate(461.611 756.457)">
      <path id="Path_388" data-name="Path 388" d="M1755.34,1704.939s-4.371-82.835,35.193-72.161-30.863,55.319-30.8,72.161Z" transform="translate(-1755.196 -1631.829)" fill="#6adb6a"/>
      <path id="Path_389" data-name="Path 389" d="M1763.915,1738.707s1.382-43.279,29.585-64.678" transform="translate(-1762.173 -1665.596)" fill="none" stroke="#40a87b" stroke-miterlimit="10" stroke-width="3.483"/>
      <line id="Line_32" data-name="Line 32" y1="14.924" x2="0.705" transform="translate(18.957 6.057)" fill="none" stroke="#40a87b" stroke-miterlimit="10" stroke-width="3.483"/>
      <line id="Line_33" data-name="Line 33" x1="19.063" y2="2.485" transform="translate(22.021 14.797)" fill="none" stroke="#40a87b" stroke-miterlimit="10" stroke-width="3.483"/>
      <line id="Line_34" data-name="Line 34" x1="20.156" y2="2.348" transform="translate(13.515 27.534)" fill="none" stroke="#40a87b" stroke-miterlimit="10" stroke-width="3.483"/>
      <line id="Line_35" data-name="Line 35" x1="15.568" y2="2.2" transform="translate(8.025 40.156)" fill="none" stroke="#40a87b" stroke-miterlimit="10" stroke-width="3.483"/>
      <line id="Line_36" data-name="Line 36" x2="3.568" y2="8.669" transform="translate(6.532 28.363)" fill="none" stroke="#40a87b" stroke-miterlimit="10" stroke-width="3.483"/>
      <line id="Line_37" data-name="Line 37" x2="3.042" y2="12.205" transform="translate(12.395 14.293)" fill="none" stroke="#40a87b" stroke-miterlimit="10" stroke-width="3.483"/>
      <line id="Line_38" data-name="Line 38" x2="2.843" y2="5.666" transform="translate(3.201 42.835)" fill="none" stroke="#40a87b" stroke-miterlimit="10" stroke-width="3.483"/>
      <line id="Line_39" data-name="Line 39" x1="11.156" y2="3.517" transform="translate(4.282 51.858)" fill="none" stroke="#40a87b" stroke-miterlimit="10" stroke-width="3.483"/>
    </g>
    <g id="Group_551" data-name="Group 551" transform="translate(228.843 553.749)">
      <rect id="Rectangle_137" data-name="Rectangle 137" width="189.165" height="271.341" transform="translate(0 3.815)" fill="#088cff"/>
      <path id="Path_390" data-name="Path 390" d="M812.215,682.4v251.51H644.878V701.607L683.6,682.4Z" transform="translate(-633.966 -669.404)" fill="#fff"/>
      <path id="Path_391" data-name="Path 391" d="M683.6,682.4l-31.225,28.618-7.5-9.416Z" transform="translate(-633.966 -669.404)" fill="#e5f0f8"/>
      <path id="Path_392" data-name="Path 392" d="M949.548,651.3H897.119a8.816,8.816,0,0,1-8.816-8.816V625.291h70.061v17.191A8.816,8.816,0,0,1,949.548,651.3Z" transform="translate(-828.751 -623.702)" fill="#93acbf"/>
      <path id="Path_393" data-name="Path 393" d="M949.548,643.345H897.119a8.816,8.816,0,0,1-8.816-8.816V617.337h70.061v17.192A8.816,8.816,0,0,1,949.548,643.345Z" transform="translate(-828.751 -617.337)" fill="#bbdbf3"/>
      <path id="Path_394" data-name="Path 394" d="M930.783,650.806a5.74,5.74,0,0,0-7.255.227,5.819,5.819,0,0,0-.8.856,5.75,5.75,0,1,0,8.059-1.084Z" transform="translate(-855.352 -643.173)" fill="#93acbf"/>
      <g id="Group_533" data-name="Group 533" transform="translate(66.77 6.451)">
        <path id="Path_395" data-name="Path 395" d="M926.467,650.688a5.165,5.165,0,0,1,6.528.2,5.18,5.18,0,0,1,1.275,1.671,5.173,5.173,0,0,1-8.778,5.375,5.225,5.225,0,0,1-.552-.9A5.17,5.17,0,0,1,926.467,650.688Z" transform="translate(-924.43 -649.625)" fill="#f9e181"/>
        <path id="Path_396" data-name="Path 396" d="M926.982,662.115l8.055-6.146a5.182,5.182,0,0,1,1.275,1.672l-8.055,6.146a5.187,5.187,0,0,1-1.275-1.672Z" transform="translate(-926.472 -654.701)" fill="#f2bb16"/>
      </g>
      <path id="Path_397" data-name="Path 397" d="M1157.371,650.806a5.74,5.74,0,0,0-7.255.227,5.764,5.764,0,0,0-1.417,1.858,5.75,5.75,0,0,0,9.756,5.974,5.819,5.819,0,0,0,.614-1A5.746,5.746,0,0,0,1157.371,650.806Z" transform="translate(-1036.664 -643.173)" fill="#93acbf"/>
      <g id="Group_534" data-name="Group 534" transform="translate(112.045 6.451)">
        <path id="Path_398" data-name="Path 398" d="M1159.329,650.688a5.165,5.165,0,0,0-6.528.2,5.185,5.185,0,0,0-1.275,1.671,5.173,5.173,0,0,0,8.778,5.375,5.225,5.225,0,0,0,.552-.9A5.17,5.17,0,0,0,1159.329,650.688Z" transform="translate(-1151.017 -649.625)" fill="#f9e181"/>
        <path id="Path_399" data-name="Path 399" d="M1162.894,662.115l-8.055-6.146a5.18,5.18,0,0,0-1.275,1.672l8.055,6.146a5.187,5.187,0,0,0,1.275-1.672Z" transform="translate(-1153.055 -654.701)" fill="#f2bb16"/>
      </g>
      <path id="Path_400" data-name="Path 400" d="M1043.478,622.753l-15.885,23.838h-11.6l15.885-23.838Z" transform="translate(-930.924 -621.671)" fill="#e5f0f8"/>
      <path id="Path_401" data-name="Path 401" d="M978.859,622.753l-15.885,23.838h-5.445l15.885-23.838Z" transform="translate(-884.145 -621.671)" fill="#e5f0f8"/>
      <g id="Group_535" data-name="Group 535" transform="translate(18.162 52.842)">
        <circle id="Ellipse_9" data-name="Ellipse 9" cx="16.702" cy="16.702" r="16.702" fill="#2ec6fc"/>
        <circle id="Ellipse_10" data-name="Ellipse 10" cx="14.809" cy="14.809" r="14.809" transform="translate(1.893 1.893)" fill="#fff"/>
        <circle id="Ellipse_11" data-name="Ellipse 11" cx="13.747" cy="13.747" r="13.747" transform="translate(2.955 2.955)" fill="none" stroke="#2ec6fc" stroke-miterlimit="10" stroke-width="2.413"/>
        <path id="Path_402" data-name="Path 402" d="M738.334,921l-7.93,13.657-.07.12-3.927-5.963-2.6,1.715,5.313,8.063,1.3-.037,1.345-.037,9.262-15.953Z" transform="translate(-715.284 -913.162)" fill="#6adb6a"/>
      </g>
      <rect id="Rectangle_138" data-name="Rectangle 138" width="68.478" height="3.455" transform="translate(60.342 36.094)" fill="#e5f0f8"/>
      <rect id="Rectangle_139" data-name="Rectangle 139" width="77.418" height="3.455" transform="translate(55.872 42.874)" fill="#e5f0f8"/>
      <g id="Group_536" data-name="Group 536" transform="translate(57.806 52.842)">
        <rect id="Rectangle_140" data-name="Rectangle 140" width="113.194" height="1.79" fill="#e5f0f8"/>
        <rect id="Rectangle_141" data-name="Rectangle 141" width="113.194" height="1.79" transform="translate(0 3.952)" fill="#e5f0f8"/>
        <rect id="Rectangle_142" data-name="Rectangle 142" width="113.194" height="1.79" transform="translate(0 7.903)" fill="#e5f0f8"/>
        <rect id="Rectangle_143" data-name="Rectangle 143" width="113.194" height="1.79" transform="translate(0 11.855)" fill="#e5f0f8"/>
        <rect id="Rectangle_144" data-name="Rectangle 144" width="113.194" height="1.79" transform="translate(0 15.807)" fill="#e5f0f8"/>
        <rect id="Rectangle_145" data-name="Rectangle 145" width="113.194" height="1.79" transform="translate(0 19.758)" fill="#e5f0f8"/>
        <rect id="Rectangle_146" data-name="Rectangle 146" width="113.194" height="1.79" transform="translate(0 23.71)" fill="#e5f0f8"/>
        <rect id="Rectangle_147" data-name="Rectangle 147" width="113.194" height="1.79" transform="translate(0 27.662)" fill="#e5f0f8"/>
        <rect id="Rectangle_148" data-name="Rectangle 148" width="113.194" height="1.79" transform="translate(0 31.614)" fill="#e5f0f8"/>
      </g>
      <g id="Group_540" data-name="Group 540" transform="translate(18.162 94.134)">
        <circle id="Ellipse_12" data-name="Ellipse 12" cx="16.702" cy="16.702" r="16.702" fill="#f9e181"/>
        <circle id="Ellipse_13" data-name="Ellipse 13" cx="14.809" cy="14.809" r="14.809" transform="translate(1.893 1.893)" fill="#fff"/>
        <circle id="Ellipse_14" data-name="Ellipse 14" cx="13.747" cy="13.747" r="13.747" transform="translate(2.955 2.955)" fill="none" stroke="#f9e181" stroke-miterlimit="10" stroke-width="2.413"/>
        <g id="Group_539" data-name="Group 539" transform="translate(8.102 8.102)">
          <g id="Group_537" data-name="Group 537" transform="translate(0 0)">
            <rect id="Rectangle_149" data-name="Rectangle 149" width="21.109" height="3.214" transform="translate(0 14.926) rotate(-45)" fill="#f74242"/>
          </g>
          <g id="Group_538" data-name="Group 538" transform="translate(0 0)">
            <rect id="Rectangle_150" data-name="Rectangle 150" width="3.214" height="21.109" transform="translate(0 2.273) rotate(-44.999)" fill="#f74242"/>
          </g>
        </g>
      </g>
      <g id="Group_544" data-name="Group 544" transform="translate(11.244 169.727)">
        <circle id="Ellipse_15" data-name="Ellipse 15" cx="16.702" cy="16.702" r="16.702" transform="translate(0 23.62) rotate(-45)" fill="#f9e181"/>
        <circle id="Ellipse_16" data-name="Ellipse 16" cx="14.809" cy="14.809" r="14.809" transform="translate(5.846 34.697) rotate(-76.931)" fill="#fff"/>
        <circle id="Ellipse_17" data-name="Ellipse 17" cx="13.747" cy="13.747" r="13.747" transform="translate(7.126 33.91) rotate(-76.961)" fill="none" stroke="#f9e181" stroke-miterlimit="10" stroke-width="2.413"/>
        <g id="Group_543" data-name="Group 543" transform="translate(15.02 15.02)">
          <g id="Group_541" data-name="Group 541" transform="translate(0 0)">
            <rect id="Rectangle_151" data-name="Rectangle 151" width="21.109" height="3.214" transform="translate(0 14.926) rotate(-45)" fill="#f74242"/>
          </g>
          <g id="Group_542" data-name="Group 542" transform="translate(0 0)">
            <rect id="Rectangle_152" data-name="Rectangle 152" width="3.214" height="21.109" transform="translate(0 2.273) rotate(-44.999)" fill="#f74242"/>
          </g>
        </g>
      </g>
      <g id="Group_545" data-name="Group 545" transform="translate(57.806 94.134)">
        <rect id="Rectangle_153" data-name="Rectangle 153" width="113.194" height="1.79" fill="#e5f0f8"/>
        <rect id="Rectangle_154" data-name="Rectangle 154" width="113.194" height="1.79" transform="translate(0 3.952)" fill="#e5f0f8"/>
        <rect id="Rectangle_155" data-name="Rectangle 155" width="113.194" height="1.79" transform="translate(0 7.903)" fill="#e5f0f8"/>
        <rect id="Rectangle_156" data-name="Rectangle 156" width="113.194" height="1.79" transform="translate(0 11.855)" fill="#e5f0f8"/>
        <rect id="Rectangle_157" data-name="Rectangle 157" width="113.194" height="1.79" transform="translate(0 15.807)" fill="#e5f0f8"/>
        <rect id="Rectangle_158" data-name="Rectangle 158" width="113.194" height="1.79" transform="translate(0 19.758)" fill="#e5f0f8"/>
        <rect id="Rectangle_159" data-name="Rectangle 159" width="113.194" height="1.79" transform="translate(0 23.71)" fill="#e5f0f8"/>
      </g>
      <g id="Group_546" data-name="Group 546" transform="translate(11.244 128.507)">
        <circle id="Ellipse_18" data-name="Ellipse 18" cx="16.702" cy="16.702" r="16.702" transform="translate(0 23.62) rotate(-45)" fill="#2ec6fc"/>
        <circle id="Ellipse_19" data-name="Ellipse 19" cx="14.809" cy="14.809" r="14.809" transform="translate(2.676 23.62) rotate(-45)" fill="#fff"/>
        <circle id="Ellipse_20" data-name="Ellipse 20" cx="13.747" cy="13.747" r="13.747" transform="translate(4.179 23.62) rotate(-45)" fill="none" stroke="#2ec6fc" stroke-miterlimit="10" stroke-width="2.413"/>
        <path id="Path_403" data-name="Path 403" d="M738.334,1334.3l-7.93,13.657-.07.12-3.927-5.963-2.6,1.716,5.313,8.063,1.3-.037,1.345-.037,9.262-15.953Z" transform="translate(-708.366 -1319.552)" fill="#6adb6a"/>
      </g>
      <g id="Group_547" data-name="Group 547" transform="translate(57.806 135.426)">
        <rect id="Rectangle_160" data-name="Rectangle 160" width="113.194" height="1.79" fill="#e5f0f8"/>
        <rect id="Rectangle_161" data-name="Rectangle 161" width="113.194" height="1.79" transform="translate(0 3.952)" fill="#e5f0f8"/>
        <rect id="Rectangle_162" data-name="Rectangle 162" width="113.194" height="1.79" transform="translate(0 7.903)" fill="#e5f0f8"/>
        <rect id="Rectangle_163" data-name="Rectangle 163" width="113.194" height="1.79" transform="translate(0 11.855)" fill="#e5f0f8"/>
        <rect id="Rectangle_164" data-name="Rectangle 164" width="113.194" height="1.79" transform="translate(0 15.807)" fill="#e5f0f8"/>
        <rect id="Rectangle_165" data-name="Rectangle 165" width="113.194" height="1.79" transform="translate(0 19.758)" fill="#e5f0f8"/>
        <rect id="Rectangle_166" data-name="Rectangle 166" width="46.229" height="1.79" transform="translate(0 23.71)" fill="#e5f0f8"/>
      </g>
      <g id="Group_548" data-name="Group 548" transform="translate(57.806 176.718)">
        <rect id="Rectangle_167" data-name="Rectangle 167" width="113.194" height="1.79" fill="#e5f0f8"/>
        <rect id="Rectangle_168" data-name="Rectangle 168" width="113.194" height="1.79" transform="translate(0 3.952)" fill="#e5f0f8"/>
        <rect id="Rectangle_169" data-name="Rectangle 169" width="113.194" height="1.79" transform="translate(0 7.903)" fill="#e5f0f8"/>
        <rect id="Rectangle_170" data-name="Rectangle 170" width="113.194" height="1.79" transform="translate(0 11.855)" fill="#e5f0f8"/>
        <rect id="Rectangle_171" data-name="Rectangle 171" width="113.194" height="1.79" transform="translate(0 15.807)" fill="#e5f0f8"/>
        <rect id="Rectangle_172" data-name="Rectangle 172" width="113.194" height="1.79" transform="translate(0 19.758)" fill="#e5f0f8"/>
      </g>
      <g id="Group_549" data-name="Group 549" transform="translate(11.244 211.091)">
        <circle id="Ellipse_21" data-name="Ellipse 21" cx="16.702" cy="16.702" r="16.702" transform="translate(0 23.62) rotate(-45)" fill="#2ec6fc"/>
        <circle id="Ellipse_22" data-name="Ellipse 22" cx="14.809" cy="14.809" r="14.809" transform="translate(5.846 34.697) rotate(-76.931)" fill="#fff"/>
        <circle id="Ellipse_23" data-name="Ellipse 23" cx="13.747" cy="13.747" r="13.747" transform="translate(7.126 33.91) rotate(-76.961)" fill="none" stroke="#2ec6fc" stroke-miterlimit="10" stroke-width="2.413"/>
        <path id="Path_404" data-name="Path 404" d="M738.334,1747.61l-7.93,13.657-.07.12-3.927-5.963-2.6,1.715,5.313,8.063,1.3-.037,1.345-.037,9.262-15.953Z" transform="translate(-708.366 -1732.859)" fill="#6adb6a"/>
      </g>
      <g id="Group_550" data-name="Group 550" transform="translate(57.806 218.009)">
        <rect id="Rectangle_173" data-name="Rectangle 173" width="113.194" height="1.79" fill="#e5f0f8"/>
        <rect id="Rectangle_174" data-name="Rectangle 174" width="113.194" height="1.79" transform="translate(0 3.952)" fill="#e5f0f8"/>
        <rect id="Rectangle_175" data-name="Rectangle 175" width="113.194" height="1.79" transform="translate(0 7.903)" fill="#e5f0f8"/>
        <rect id="Rectangle_176" data-name="Rectangle 176" width="113.194" height="1.79" transform="translate(0 11.855)" fill="#e5f0f8"/>
        <rect id="Rectangle_177" data-name="Rectangle 177" width="113.194" height="1.79" transform="translate(0 15.807)" fill="#e5f0f8"/>
        <rect id="Rectangle_178" data-name="Rectangle 178" width="113.194" height="1.79" transform="translate(0 19.758)" fill="#e5f0f8"/>
        <rect id="Rectangle_179" data-name="Rectangle 179" width="113.194" height="1.79" transform="translate(0 23.71)" fill="#e5f0f8"/>
        <rect id="Rectangle_180" data-name="Rectangle 180" width="113.194" height="1.79" transform="translate(0 27.662)" fill="#e5f0f8"/>
        <rect id="Rectangle_181" data-name="Rectangle 181" width="113.194" height="1.79" transform="translate(0 31.614)" fill="#e5f0f8"/>
      </g>
    </g>
    <g id="Group_552" data-name="Group 552" transform="translate(161.619 538.859)">
      <path id="Path_405" data-name="Path 405" d="M265.1,749.117l3.08-2.158,34.747,20.2-3.08,2.158Z" transform="translate(-262.844 -706.169)" fill="#0775ef"/>
      <path id="Path_406" data-name="Path 406" d="M454,761.319l3.08-2.158-6.017-6.248Z" transform="translate(-411.653 -710.934)" fill="#de3c3c"/>
      <path id="Path_407" data-name="Path 407" d="M595.336,721.665l3.08-2.158-1.936-6.579-2.939,4.368Z" transform="translate(-525.662 -678.938)" fill="#de3c3c"/>
      <path id="Path_408" data-name="Path 408" d="M744.4,613.62l3.08-2.158-1.234,11.06Z" transform="translate(-646.376 -597.746)" fill="#40a87b"/>
      <path id="Path_409" data-name="Path 409" d="M664.559,654.806,628.6,659.528a16.788,16.788,0,0,0-5.426-10.314l24.223-26.955A52.971,52.971,0,0,1,664.559,654.806Z" transform="translate(-549.371 -606.386)" fill="#40a87b"/>
      <path id="Path_410" data-name="Path 410" d="M378.239,567.229l-24.223,26.955a16.813,16.813,0,0,0-27.326,7.658l-34.728-10.454a53.04,53.04,0,0,1,86.277-24.159Z" transform="translate(-284.342 -551.456)" fill="#de3c3c"/>
      <path id="Path_411" data-name="Path 411" d="M614.713,822.187a53.131,53.131,0,0,1-53.077,53.071v-36.27a16.8,16.8,0,0,0,16.807-16.8,16.58,16.58,0,0,0-.147-2.195l35.963-4.722A52.541,52.541,0,0,1,614.713,822.187Z" transform="translate(-500.132 -760.831)" fill="#f2bb16"/>
      <path id="Path_412" data-name="Path 412" d="M331.478,891.944v36.27a53.159,53.159,0,0,1-50.762-37.575l34.69-10.6A16.8,16.8,0,0,0,331.478,891.944Z" transform="translate(-275.343 -812.662)" fill="#088cfc"/>
      <path id="Path_413" data-name="Path 413" d="M290.824,777.962l-34.69,10.595a53.131,53.131,0,0,1-.058-30.8l34.728,10.454a16.871,16.871,0,0,0,.019,9.75Z" transform="translate(-253.825 -714.809)" fill="#0775ef"/>
      <path id="Path_414" data-name="Path 414" d="M645.016,830.261l3.08-2.158,4.6,11.731Z" transform="translate(-566.851 -771.099)" fill="#f2bb16"/>
      <path id="Path_415" data-name="Path 415" d="M561.636,925.328l3.08-2.158,5.5,2.623s-6.52,2.112-6.612,2.2A28.528,28.528,0,0,1,561.636,925.328Z" transform="translate(-500.132 -847.171)" fill="#f2bb16"/>
      <path id="Path_416" data-name="Path 416" d="M809.794,768.23l-3.08,2.158-5.891-3.685Z" transform="translate(-691.526 -721.967)" fill="#40a87b"/>
      <path id="Path_417" data-name="Path 417" d="M280.716,924.429l3.08-2.158,50.761,37.575L331.478,962Z" transform="translate(-275.343 -846.451)" fill="#088cfc"/>
      <path id="Path_418" data-name="Path 418" d="M393.652,556.431l-24.223,26.955a16.813,16.813,0,0,0-27.326,7.658L307.375,580.59a53.04,53.04,0,0,1,86.277-24.159Z" transform="translate(-296.675 -542.816)" fill="#f74242"/>
      <path id="Path_419" data-name="Path 419" d="M679.972,644.008l-35.963,4.722a16.787,16.787,0,0,0-5.425-10.313l24.223-26.955A52.972,52.972,0,0,1,679.972,644.008Z" transform="translate(-561.704 -597.746)" fill="#6adb6a"/>
      <path id="Path_420" data-name="Path 420" d="M630.125,811.389a53.132,53.132,0,0,1-53.078,53.071V828.19a16.8,16.8,0,0,0,16.807-16.8,16.579,16.579,0,0,0-.147-2.195l35.963-4.722A52.551,52.551,0,0,1,630.125,811.389Z" transform="translate(-512.464 -752.191)" fill="#f9e181"/>
      <path id="Path_421" data-name="Path 421" d="M346.891,881.146v36.27a53.159,53.159,0,0,1-50.762-37.575l34.69-10.6A16.8,16.8,0,0,0,346.891,881.146Z" transform="translate(-287.676 -804.021)" fill="#2ec6fc"/>
      <path id="Path_422" data-name="Path 422" d="M306.236,767.164l-34.69,10.6a53.132,53.132,0,0,1-.058-30.8l34.728,10.454a16.872,16.872,0,0,0,.019,9.75Z" transform="translate(-266.158 -706.169)" fill="#088cfc"/>
    </g>
    <g id="Group_555" data-name="Group 555" transform="translate(369.197 698.569)">
      <path id="Path_423" data-name="Path 423" d="M1455.866,1935.431h-4.225l7.861-14.727,4.323,2.561Z" transform="translate(-1419.881 -1805.095)" fill="#de3c3c"/>
      <path id="Path_424" data-name="Path 424" d="M1712.222,1935.431h4.226l-7.862-14.727-4.323,2.561Z" transform="translate(-1622.027 -1805.095)" fill="#de3c3c"/>
      <path id="Path_425" data-name="Path 425" d="M1677.224,1485.07h0a1.655,1.655,0,0,1-.641-2.244l20.388-36.685a1.656,1.656,0,0,1,2.245-.641h0a1.655,1.655,0,0,1,.641,2.244l-20.389,36.685A1.655,1.655,0,0,1,1677.224,1485.07Z" transform="translate(-1599.712 -1424.677)" fill="#f74242"/>
      <path id="Path_426" data-name="Path 426" d="M1444.16,1483.924h0a1.656,1.656,0,0,0,.641-2.245l-20.548-36.971a1.655,1.655,0,0,0-2.244-.641h0a1.655,1.655,0,0,0-.641,2.244l20.548,36.971A1.655,1.655,0,0,0,1444.16,1483.924Z" transform="translate(-1395.492 -1423.531)" fill="#f74242"/>
      <circle id="Ellipse_24" data-name="Ellipse 24" cx="44.611" cy="44.611" r="44.611" transform="translate(0 81.092) rotate(-45)" fill="#f74242"/>
      <circle id="Ellipse_25" data-name="Ellipse 25" cx="40.03" cy="40.03" r="40.03" transform="translate(23.06 41.062)" fill="#de3c3c"/>
      <path id="Path_427" data-name="Path 427" d="M1493.662,1595a38.2,38.2,0,1,1-38.2-38.2A38.072,38.072,0,0,1,1493.662,1595Z" transform="translate(-1392.371 -1513.903)" fill="#e5f0f8"/>
      <path id="Path_428" data-name="Path 428" d="M1515.338,1595a38.2,38.2,0,1,1-38.2-38.2A38.072,38.072,0,0,1,1515.338,1595Z" transform="translate(-1414.047 -1513.903)" fill="#fff"/>
      <path id="Path_429" data-name="Path 429" d="M1594.893,1737.793a3.383,3.383,0,1,1,3.383-3.382A3.428,3.428,0,0,1,1594.893,1737.793Z" transform="translate(-1531.803 -1653.318)" fill="#93acbf"/>
      <g id="Group_553" data-name="Group 553" transform="translate(60.66 49.624)">
        <path id="Path_430" data-name="Path 430" d="M1605.8,1621.937h0a.662.662,0,0,1-.66-.66v-30.148a.662.662,0,0,1,.66-.66h0a.662.662,0,0,1,.66.66v30.148A.662.662,0,0,1,1605.8,1621.937Z" transform="translate(-1603.366 -1590.468)" fill="#93acbf"/>
        <circle id="Ellipse_26" data-name="Ellipse 26" cx="2.035" cy="2.035" r="2.035" transform="translate(0 17.247) rotate(-76.717)" fill="#93acbf"/>
        <path id="Path_431" data-name="Path 431" d="M1604.048,1665.851a1.119,1.119,0,1,1,1.119-1.12A1.121,1.121,0,0,1,1604.048,1665.851Z" transform="translate(-1601.6 -1648.997)" fill="#fff"/>
      </g>
      <g id="Group_554" data-name="Group 554" transform="translate(63.09 79.075)">
        <rect id="Rectangle_182" data-name="Rectangle 182" width="1.32" height="22.271" rx="0.66" transform="translate(22.271 1.357) rotate(90)" fill="#93acbf"/>
        <circle id="Ellipse_27" data-name="Ellipse 27" cx="2.035" cy="2.035" r="2.035" transform="translate(9.1)" fill="#93acbf"/>
        <path id="Path_432" data-name="Path 432" d="M1658.57,1743.566a1.119,1.119,0,1,1,1.119,1.119A1.121,1.121,0,0,1,1658.57,1743.566Z" transform="translate(-1648.554 -1741.531)" fill="#fff"/>
      </g>
      <path id="Path_433" data-name="Path 433" d="M1607.036,1576.892h0a.352.352,0,0,1-.351-.351v-1.485a.352.352,0,0,1,.351-.351h0a.352.352,0,0,1,.351.351v1.485A.352.352,0,0,1,1607.036,1576.892Z" transform="translate(-1543.946 -1528.231)" fill="#93acbf"/>
      <path id="Path_434" data-name="Path 434" d="M1522.206,1599.624h0a.352.352,0,0,1-.479-.129l-.743-1.286a.352.352,0,0,1,.128-.479h0a.352.352,0,0,1,.479.128l.743,1.286A.352.352,0,0,1,1522.206,1599.624Z" transform="translate(-1475.332 -1546.617)" fill="#93acbf"/>
      <path id="Path_435" data-name="Path 435" d="M1460.106,1661.724h0a.352.352,0,0,1-.479.128l-1.286-.743a.351.351,0,0,1-.128-.479h0a.352.352,0,0,1,.479-.129l1.286.743A.352.352,0,0,1,1460.106,1661.724Z" transform="translate(-1425.102 -1596.848)" fill="#93acbf"/>
      <path id="Path_436" data-name="Path 436" d="M1437.374,1746.554h0a.352.352,0,0,1-.351.351h-1.485a.352.352,0,0,1-.351-.351h0a.352.352,0,0,1,.351-.351h1.485A.352.352,0,0,1,1437.374,1746.554Z" transform="translate(-1406.715 -1665.461)" fill="#93acbf"/>
      <path id="Path_437" data-name="Path 437" d="M1460.106,1828.411h0a.352.352,0,0,1-.128.479l-1.286.743a.352.352,0,0,1-.479-.128h0a.352.352,0,0,1,.128-.479l1.286-.743A.352.352,0,0,1,1460.106,1828.411Z" transform="translate(-1425.102 -1731.103)" fill="#93acbf"/>
      <path id="Path_438" data-name="Path 438" d="M1522.207,1888.334h0a.352.352,0,0,1,.128.479l-.743,1.286a.352.352,0,0,1-.479.129h0a.352.352,0,0,1-.128-.479l.743-1.286A.352.352,0,0,1,1522.207,1888.334Z" transform="translate(-1475.332 -1779.156)" fill="#93acbf"/>
      <path id="Path_439" data-name="Path 439" d="M1607.036,1910.267h0a.352.352,0,0,1,.351.351v1.485a.352.352,0,0,1-.351.351h0a.352.352,0,0,1-.351-.351v-1.485A.352.352,0,0,1,1607.036,1910.267Z" transform="translate(-1543.946 -1796.743)" fill="#93acbf"/>
      <path id="Path_440" data-name="Path 440" d="M1688.894,1888.334h0a.352.352,0,0,1,.479.128l.743,1.286a.352.352,0,0,1-.128.479h0a.352.352,0,0,1-.479-.129l-.743-1.286A.352.352,0,0,1,1688.894,1888.334Z" transform="translate(-1609.588 -1779.156)" fill="#93acbf"/>
      <path id="Path_441" data-name="Path 441" d="M1748.817,1828.411h0a.351.351,0,0,1,.479-.128l1.286.743a.351.351,0,0,1,.128.479h0a.352.352,0,0,1-.479.128l-1.286-.743A.352.352,0,0,1,1748.817,1828.411Z" transform="translate(-1657.641 -1731.103)" fill="#93acbf"/>
      <path id="Path_442" data-name="Path 442" d="M1770.749,1746.554h0a.352.352,0,0,1,.351-.351h1.485a.352.352,0,0,1,.351.351h0a.352.352,0,0,1-.351.351H1771.1A.352.352,0,0,1,1770.749,1746.554Z" transform="translate(-1675.228 -1665.461)" fill="#93acbf"/>
      <path id="Path_443" data-name="Path 443" d="M1748.817,1661.724h0a.352.352,0,0,1,.128-.479l1.286-.743a.352.352,0,0,1,.479.129h0a.351.351,0,0,1-.129.479l-1.286.743A.351.351,0,0,1,1748.817,1661.724Z" transform="translate(-1657.641 -1596.847)" fill="#93acbf"/>
      <path id="Path_444" data-name="Path 444" d="M1688.894,1599.624h0a.352.352,0,0,1-.129-.479l.743-1.286a.352.352,0,0,1,.479-.128h0a.352.352,0,0,1,.128.479l-.743,1.286A.352.352,0,0,1,1688.894,1599.624Z" transform="translate(-1609.588 -1546.617)" fill="#93acbf"/>
      <path id="Path_445" data-name="Path 445" d="M1688.85,1451.392c-16.084-8.681-23.021,3.743-23.021,3.743l32,17.784S1703.865,1459.5,1688.85,1451.392Z" transform="translate(-1591.271 -1427.092)" fill="#f74242"/>
      <ellipse id="Ellipse_28" data-name="Ellipse 28" cx="1.444" cy="18.31" rx="1.444" ry="18.31" transform="translate(73.845 29.3) rotate(-60.936)" fill="#de3c3c"/>
      <path id="Path_446" data-name="Path 446" d="M1395.082,1451.392c16.084-8.681,23.022,3.743,23.022,3.743l-32,17.784S1380.067,1459.5,1395.082,1451.392Z" transform="translate(-1366.48 -1427.092)" fill="#f74242"/>
      <ellipse id="Ellipse_29" data-name="Ellipse 29" cx="18.31" cy="1.444" rx="18.31" ry="1.444" transform="translate(18.923 44.565) rotate(-29.064)" fill="#de3c3c"/>
      <path id="Path_447" data-name="Path 447" d="M1494.748,1366.762l-3.905-2.1a6.7,6.7,0,0,1-2.769-2.808l-5.223-10.036a18.017,18.017,0,0,0-15.982-9.7h-18.842a18.018,18.018,0,0,0-15.983,9.7l-5.223,10.036a6.705,6.705,0,0,1-2.769,2.808l-3.905,2.1" transform="translate(-1394.681 -1342.115)" fill="none" stroke="#de3c3c" stroke-linecap="round" stroke-linejoin="round" stroke-width="12.941"/>
    </g>
    <g id="Group_557" data-name="Group 557" transform="translate(412.544 537.871)">
      <path id="Path_448" data-name="Path 448" d="M1645.732,670.289a77.8,77.8,0,0,0-6.513-31.214h-13.069v53.66h18.286A172.755,172.755,0,0,0,1645.732,670.289Z" transform="translate(-1602.869 -618.853)" fill="#fff"/>
      <path id="Path_449" data-name="Path 449" d="M1535.75,639.075a77.808,77.808,0,0,0-6.511,31.214,172.775,172.775,0,0,0,1.3,22.446H1548.6v-53.66Z" transform="translate(-1525.322 -618.853)" fill="#bbdbf3"/>
      <path id="Path_450" data-name="Path 450" d="M1597.26,710.664a7.214,7.214,0,1,1,7.214-7.214A7.222,7.222,0,0,1,1597.26,710.664Z" transform="translate(-1573.979 -664.592)" fill="#f9e181"/>
      <path id="Path_451" data-name="Path 451" d="M1605.762,717.043a5.091,5.091,0,1,1,5.092-5.091A5.1,5.1,0,0,1,1605.762,717.043Z" transform="translate(-1582.48 -673.095)" fill="#bbdbf3"/>
      <circle id="Ellipse_30" data-name="Ellipse 30" cx="4.03" cy="4.03" r="4.03" transform="translate(17.583 38.857) rotate(-45)" fill="#fff"/>
      <path id="Path_452" data-name="Path 452" d="M1597.26,813.357a7.214,7.214,0,1,1,7.214-7.214A7.222,7.222,0,0,1,1597.26,813.357Z" transform="translate(-1573.979 -746.766)" fill="#f9e181"/>
      <path id="Path_453" data-name="Path 453" d="M1605.762,819.736a5.091,5.091,0,1,1,5.092-5.091A5.1,5.1,0,0,1,1605.762,819.736Z" transform="translate(-1582.48 -755.268)" fill="#bbdbf3"/>
      <circle id="Ellipse_31" data-name="Ellipse 31" cx="4.03" cy="4.03" r="4.03" transform="translate(17.583 59.377) rotate(-45)" fill="#fff"/>
      <path id="Path_454" data-name="Path 454" d="M1702.8,989.409H1698.3a5.463,5.463,0,0,1-5.463-5.463V968.7h5.972a3.984,3.984,0,0,1,3.984,3.984Z" transform="translate(-1656.234 -882.617)" fill="#bbdbf3"/>
      <path id="Path_455" data-name="Path 455" d="M1519.59,968.708v15.243a5.464,5.464,0,0,1-5.464,5.462h-4.493V972.691a3.984,3.984,0,0,1,3.983-3.983Z" transform="translate(-1509.633 -882.621)" fill="#93acbf"/>
      <path id="Path_456" data-name="Path 456" d="M1517.006,968.708v15.243a5.462,5.462,0,0,1-5.464,5.462h-1.908V972.691a3.984,3.984,0,0,1,3.983-3.983Z" transform="translate(-1509.633 -882.621)" fill="#bbdbf3"/>
      <path id="Path_457" data-name="Path 457" d="M1711.316,793.844h-.969a1.52,1.52,0,0,1-1.52-1.52V782.147a1.52,1.52,0,0,1,1.52-1.52h1.057" transform="translate(-1669.025 -732.121)" fill="none" stroke="#fff" stroke-miterlimit="10" stroke-width="1.747"/>
      <path id="Path_458" data-name="Path 458" d="M1626.26,537.871l-.109.111v20.111h13.069C1633.559,545.107,1626.26,537.871,1626.26,537.871Z" transform="translate(-1602.869 -537.871)" fill="#f9ecb8"/>
      <path id="Path_459" data-name="Path 459" d="M1574.68,538.424a70.988,70.988,0,0,0-12.853,20.111h12.853Z" transform="translate(-1551.398 -538.314)" fill="#f9e181"/>
      <path id="Path_460" data-name="Path 460" d="M1626.151,971.414l.109,0c2.175,0,7.486-1.634,9.164-3.877,3.388-4.528,5.881-10.626,7.567-18.239h-16.839Z" transform="translate(-1602.869 -867.091)" fill="#fff"/>
      <path id="Path_461" data-name="Path 461" d="M1550.53,967.539c1.651,2.207,6.817,3.823,9.055,3.875V949.3h-16.622C1544.649,956.913,1547.142,963.011,1550.53,967.539Z" transform="translate(-1536.303 -867.091)" fill="#bbdbf3"/>
      <path id="Path_462" data-name="Path 462" d="M1537.171,915.955h16.622v-8.327h-18.068Q1536.31,912.054,1537.171,915.955Z" transform="translate(-1530.511 -833.746)" fill="#f9e181"/>
      <path id="Path_463" data-name="Path 463" d="M1626.151,907.628v8.327h16.839q.864-3.9,1.447-8.327Z" transform="translate(-1602.869 -833.746)" fill="#f9ecb8"/>
      <path id="Path_464" data-name="Path 464" d="M1594.244,651.774a.71.71,0,1,1-.71-.71A.71.71,0,0,1,1594.244,651.774Z" transform="translate(-1576.201 -628.447)" fill="none" stroke="#fff" stroke-miterlimit="10" stroke-width="1.747"/>
      <path id="Path_465" data-name="Path 465" d="M1624.016,651.774a.711.711,0,1,1-.71-.71A.71.71,0,0,1,1624.016,651.774Z" transform="translate(-1600.024 -628.447)" fill="none" stroke="#fff" stroke-miterlimit="10" stroke-width="1.747"/>
      <g id="Group_556" data-name="Group 556" transform="translate(8.185 105.321)">
        <path id="Path_466" data-name="Path 466" d="M1580.789,1087.543a38.372,38.372,0,0,0-7.883-22.574h-14.428a38.373,38.373,0,0,0-7.883,22.574c0,13.155,3.941,17.215,3.941,17.215l5.316-8.283s-.5,7.308,5.84,20.138c6.34-12.83,5.84-20.138,5.84-20.138l5.316,8.283S1580.789,1100.7,1580.789,1087.543Z" transform="translate(-1550.595 -1064.969)" fill="#f74242"/>
        <path id="Path_467" data-name="Path 467" d="M1589.177,1083.369a31.276,31.276,0,0,0-6.425-18.4h-11.76a31.275,31.275,0,0,0-6.425,18.4c0,10.722,3.213,14.031,3.213,14.031l4.333-6.751s-.408,5.957,4.76,16.414c5.168-10.457,4.76-16.414,4.76-16.414l4.333,6.751S1589.177,1094.09,1589.177,1083.369Z" transform="translate(-1561.775 -1064.969)" fill="#f9e181"/>
        <path id="Path_468" data-name="Path 468" d="M1598.932,1078.514a23.025,23.025,0,0,0-4.73-13.545h-8.657a23.024,23.024,0,0,0-4.73,13.545c0,7.893,2.365,10.329,2.365,10.329l3.189-4.97s-.3,4.385,3.5,12.083c3.8-7.7,3.5-12.083,3.5-12.083l3.189,4.97S1598.932,1086.407,1598.932,1078.514Z" transform="translate(-1574.777 -1064.969)" fill="#f9ecb8"/>
      </g>
      <path id="Path_469" data-name="Path 469" d="M1653.789,651.774a.71.71,0,1,1-.71-.71A.71.71,0,0,1,1653.789,651.774Z" transform="translate(-1623.848 -628.447)" fill="none" stroke="#bbdbf3" stroke-miterlimit="10" stroke-width="1.747"/>
      <path id="Path_470" data-name="Path 470" d="M1593.827,1044.648h-13.305a3.216,3.216,0,0,1-3.216-3.216v-4.248h19.737v4.248A3.216,3.216,0,0,1,1593.827,1044.648Z" transform="translate(-1563.784 -937.415)" fill="#bbdbf3"/>
    </g>
    <g id="Group_559" data-name="Group 559" transform="translate(185.799 701.603)">
      <path id="Path_471" data-name="Path 471" d="M382.927,1450.577c0,6.8,10.069,18.865,9.606,32.291s-2.893,22.627,3.7,22.974,35.936,0,35.936,0h13.02s2.488-13.049-6.018-14-17.773.28-19.357-4.948c-1.736-5.729-.608-16.146-.347-22.569s2.691-19.531-5.642-24.565-18.107-3.532-24.218-.694C384.75,1441.318,382.927,1444.616,382.927,1450.577Z" transform="translate(-381.311 -1420.634)" fill="#f74242"/>
      <path id="Path_472" data-name="Path 472" d="M614.364,1982.129h0a.933.933,0,0,1-.933-.933v-1.042a.933.933,0,0,1,.933-.933h0a.933.933,0,0,1,.933.933v1.042A.933.933,0,0,1,614.364,1982.129Z" transform="translate(-565.758 -1854.953)" fill="#bbdbf3"/>
      <path id="Path_473" data-name="Path 473" d="M567.7,1958.377l10.07,4.165-10.07-1.734Z" transform="translate(-529.166 -1838.275)" fill="#586773"/>
      <rect id="Rectangle_183" data-name="Rectangle 183" width="2.557" height="67.347" transform="translate(76.75 60.14)" fill="#586773"/>
      <path id="Path_474" data-name="Path 474" d="M757.243,1912.412l8.284.095-1.687-12.447-9.68,3.344Z" transform="translate(-678.367 -1791.609)" fill="#a06753"/>
      <path id="Path_475" data-name="Path 475" d="M768.177,1968.253l3.91-.019.239-2.525,2.141,2.514,9.224-.044-6.948-6.2-8.284-.095Z" transform="translate(-689.583 -1841.078)" fill="#322a28"/>
      <line id="Line_40" data-name="Line 40" y1="0.029" x2="3.688" transform="translate(84.842 122.473)" fill="none" stroke="#d1ddff" stroke-miterlimit="10" stroke-width="2.594"/>
      <line id="Line_41" data-name="Line 41" y1="0.029" x2="3.688" transform="translate(85.74 123.74)" fill="none" stroke="#d1ddff" stroke-miterlimit="10" stroke-width="2.594"/>
      <path id="Path_476" data-name="Path 476" d="M693.761,1669.793a8.425,8.425,0,0,0-5.084,10.776l11.02,39.66,13.579-2.112-8.258-40.885h0a8.415,8.415,0,0,0-11.254-7.44Z" transform="translate(-625.57 -1606.954)" fill="#b86b76"/>
      <path id="Path_477" data-name="Path 477" d="M598.79,1534.71h0a5.227,5.227,0,0,1-7.168-1.715l-11.271-18.362a5.227,5.227,0,0,1,1.715-7.168h0a5.227,5.227,0,0,1,7.168,1.715l11.271,18.362A5.227,5.227,0,0,1,598.79,1534.71Z" transform="translate(-538.674 -1476.847)" fill="#f9e181"/>
      <path id="Path_478" data-name="Path 478" d="M494.472,1667.311a15.1,15.1,0,0,0-2.123,3.133c-.6,1.408,6.608.631,6.608.631l-.786-6.761Z" transform="translate(-468.84 -1602.969)" fill="#088cff"/>
      <path id="Path_479" data-name="Path 479" d="M567.5,1678.083h0a8.814,8.814,0,0,1-8.788,8.788H524.95a8.814,8.814,0,0,1-8.788-8.788h0a8.814,8.814,0,0,1,8.788-8.788h33.762A8.814,8.814,0,0,1,567.5,1678.083Z" transform="translate(-487.924 -1606.954)" fill="#b86b76"/>
      <path id="Path_480" data-name="Path 480" d="M591.671,1419.724s2.23-4.54-.694-4.409S591.671,1419.724,591.671,1419.724Z" transform="translate(-546.877 -1403.72)" fill="#322a28"/>
      <path id="Path_481" data-name="Path 481" d="M538.469,1683.591h0a8.814,8.814,0,0,1-9.581,7.917l-33.61-3.2a8.814,8.814,0,0,1-7.917-9.581h0a8.814,8.814,0,0,1,9.581-7.917l33.61,3.2A8.814,8.814,0,0,1,538.469,1683.591Z" transform="translate(-464.846 -1608.139)" fill="#e7888b"/>
      <path id="Path_482" data-name="Path 482" d="M503.925,1496.02l-9.12,4.3s2.028,23.314,2.237,25.882a29.245,29.245,0,0,1-.576,6.447h21.856s-.262-12.579,1.206-16.091c.994-2.379,1.677-3.826,1.1-6.552s-2.516-6.814-1.834-11.531l-5.608-2.254Z" transform="translate(-470.834 -1468.302)" fill="#f9e181"/>
      <path id="Path_483" data-name="Path 483" d="M549.713,1443.941v10.6a3,3,0,0,1-.026.337,3.283,3.283,0,0,1-3.55,3.058,7.088,7.088,0,0,1-5.256-2.98,6.052,6.052,0,0,1-.43-.612l1.327-10.408Z" transform="translate(-507.36 -1426.629)" fill="#a06753"/>
      <path id="Path_484" data-name="Path 484" d="M615.341,1937.01l8.284.095,1.758-5.616-9.049-.689Z" transform="translate(-567.286 -1816.207)" fill="#a06753"/>
      <path id="Path_485" data-name="Path 485" d="M567.913,1469.26l-4.715-6.02,4.715-.908Z" transform="translate(-525.562 -1441.346)" fill="#824c3a"/>
      <path id="Path_486" data-name="Path 486" d="M549.656,1413.3a6.485,6.485,0,0,1-6.322-2.068c-1.842-1.934-5.979-9.175-.457-12.547s8.794,2.21,8.937,3.074c0,0,.055,3.046.088,5.192.013.546.021,1.031.027,1.4,0,.059,0,.114,0,.167C551.959,1410.2,551.532,1412.7,549.656,1413.3Z" transform="translate(-507.086 -1389.56)" fill="#a06753"/>
      <path id="Path_487" data-name="Path 487" d="M421,1540.705h0a5.227,5.227,0,0,1-1.243-7.265l12.447-17.586a5.227,5.227,0,0,1,7.265-1.243h0a5.227,5.227,0,0,1,1.243,7.265l-12.447,17.586A5.227,5.227,0,0,1,421,1540.705Z" transform="translate(-410.022 -1482.416)" fill="#f9e181"/>
      <path id="Path_488" data-name="Path 488" d="M613.929,1968.253l3.91-.019.239-2.525,2.141,2.514,9.224-.044-6.948-6.2-8.284-.095Z" transform="translate(-566.156 -1841.078)" fill="#322a28"/>
      <path id="Path_489" data-name="Path 489" d="M548.3,1398.937c.081,1.187-.59,2.853-4.164,2.721s-4.2,1.607-3.836,3.049a2.279,2.279,0,0,1-.557-1.813,3.387,3.387,0,0,0-.754,2.968s-.914-1.44-1.473-.379.185,1.9-.548,4.3c0,0,.36-2.379-.891-3.645s-2.546-13.332,6.651-10.379C542.723,1395.759,547.963,1394.035,548.3,1398.937Z" transform="translate(-503.153 -1387.703)" fill="#322a28"/>
      <path id="Path_490" data-name="Path 490" d="M628.648,1689.066a8.426,8.426,0,0,0-9.76,6.835l-10.428,42.307,13.007,2.511,13.265-39.608h0a8.416,8.416,0,0,0-6.08-12.044Z" transform="translate(-561.779 -1622.671)" fill="#e7888b"/>
      <line id="Line_42" data-name="Line 42" y1="0.029" x2="3.688" transform="translate(54.022 122.473)" fill="none" stroke="#d1ddff" stroke-miterlimit="10" stroke-width="2.594"/>
      <line id="Line_43" data-name="Line 43" y1="0.029" x2="3.688" transform="translate(54.919 123.74)" fill="none" stroke="#d1ddff" stroke-miterlimit="10" stroke-width="2.594"/>
      <path id="Path_491" data-name="Path 491" d="M540.747,1440.915c.326.991.318,1.628-.46,1.884a1.789,1.789,0,0,1-2.182-1.155,1.723,1.723,0,0,1,.819-2.258C539.7,1439.13,540.421,1439.923,540.747,1440.915Z" transform="translate(-505.387 -1422.945)" fill="#a06753"/>
      <path id="Path_492" data-name="Path 492" d="M541.934,1444.572s1.248-.06,1.356,1a1.274,1.274,0,0,0-1.032-.264" transform="translate(-508.546 -1427.133)" fill="none" stroke="#724638" stroke-linecap="round" stroke-linejoin="round" stroke-width="0.648"/>
      <path id="Path_493" data-name="Path 493" d="M574.882,1437.152c0,.4.207.731.468.733s.474-.324.477-.727-.207-.731-.468-.733S574.884,1436.749,574.882,1437.152Z" transform="translate(-534.911 -1420.615)" fill="#322a28"/>
      <path id="Path_494" data-name="Path 494" d="M592.127,1435.69c0,.4.207.731.468.733s.474-.324.477-.727-.207-.731-.468-.733S592.129,1435.287,592.127,1435.69Z" transform="translate(-548.71 -1419.445)" fill="#322a28"/>
      <path id="Path_495" data-name="Path 495" d="M578.807,1458.845a.911.911,0,0,0,1.16-.562l-1.722-.6A.911.911,0,0,0,578.807,1458.845Z" transform="translate(-537.561 -1437.627)" fill="#fff"/>
      <path id="Path_496" data-name="Path 496" d="M570.311,1433.13s.815-1,1.756-.631" transform="translate(-531.253 -1417.408)" fill="none" stroke="#2c3447" stroke-miterlimit="10" stroke-width="0.963"/>
      <path id="Path_497" data-name="Path 497" d="M592.519,1431.98a1.456,1.456,0,0,1,1.21.534" transform="translate(-549.024 -1417.052)" fill="none" stroke="#2c3447" stroke-miterlimit="10" stroke-width="0.963"/>
      <path id="Path_498" data-name="Path 498" d="M586.031,1438.854s.034,2,1.2,2.249a2.478,2.478,0,0,1-.843.474" transform="translate(-543.832 -1422.558)" fill="none" stroke="#2c3447" stroke-miterlimit="10" stroke-width="0.963"/>
      <path id="Path_499" data-name="Path 499" d="M567.707,1446.666c-.1.384-.755.547-1.466.365s-1.208-.641-1.11-1.024.755-.547,1.466-.365S567.8,1446.282,567.707,1446.666Z" transform="translate(-527.098 -1427.93)" fill="#a14c53"/>
      <path id="Path_500" data-name="Path 500" d="M595.753,1445.746c-.428.016-.771-.118-.856-.378-.112-.34.248-.764.83-1.019C595.739,1444.9,595.747,1445.38,595.753,1445.746Z" transform="translate(-550.91 -1426.955)" fill="#a14c53"/>
      <path id="Path_501" data-name="Path 501" d="M635.348,1555.7c-1.251-2.881-.193-6.142,2.35-7.246l23.189-6.593a17.089,17.089,0,0,0,2.164-1.344c1.454-1.11,5.759-3.658,6.121-3.035s-2.233,2.966-1.867,3.1,2.672-1.138,3.612-1.76,2.74-2.278,3.359-2.052.532,1.192.532,1.192.609-.716.983-.25-.306,1.813-.306,1.813.3-.433.583.184-1.414,2.273-1.414,2.273a.424.424,0,0,1,.589.31c.152.5-2.319,2.427-4.47,3.2-1.92.693-6.666,1.832-7.663,2.069l-20.864,11.365C639.7,1560.034,636.6,1558.58,635.348,1555.7Z" transform="translate(-582.874 -1500.894)" fill="#a06753"/>
      <line id="Line_44" data-name="Line 44" y1="6.475" x2="3.094" transform="translate(25.783 43.53)" fill="none" stroke="#2c3447" stroke-miterlimit="10" stroke-width="1.333"/>
      <path id="Path_502" data-name="Path 502" d="M544.488,1455.218a.767.767,0,1,1-.761-.773A.767.767,0,0,1,544.488,1455.218Z" transform="translate(-509.363 -1435.034)" fill="none" stroke="#fff" stroke-miterlimit="10" stroke-width="1.098"/>
      <path id="Path_503" data-name="Path 503" d="M417.96,1602.313c-.126,3.139,2.037,5.8,4.807,5.909L446.773,1606c.816.1,5.28-.336,6.446-1.127a2.723,2.723,0,0,1,2.76-.06c1.132.589,2.111.994,2.48.638.474-.458-2.323-1.673-2.25-1.894s1.537.556,2.245.917c.79.4,1.684.46,1.833.182.374-.7-1.25-1.677-1.25-1.677s2.238,1.231,2.5.6c.15-.364-.883-1.151-1.731-1.6-.579-.307-2.725-1.1-2.622-1.386.066-.183,2.062.751,2.478.882.8.251,2.018.238,1.994-.1-.038-.519-4.521-2.742-7.2-2.176-2.585.545-6.62.81-7.635.95l-23.588-3.344C420.456,1596.7,418.086,1599.174,417.96,1602.313Z" transform="translate(-409.34 -1548.949)" fill="#a06753"/>
      <path id="Path_504" data-name="Path 504" d="M615.972,1546.2s1.643-3.455,1.376-5.25-1.729-6.644-1.922-8.133" transform="translate(-567.354 -1497.743)" fill="none" stroke="#2c3447" stroke-miterlimit="10" stroke-width="1.333"/>
      <ellipse id="Ellipse_32" data-name="Ellipse 32" cx="3.299" cy="4.525" rx="3.299" ry="4.525" transform="translate(27.908 1.757) rotate(-15.441)" fill="#322a28"/>
      <rect id="Rectangle_184" data-name="Rectangle 184" width="2.778" height="36.689" transform="translate(30.203 85.845)" fill="#586773"/>
      <rect id="Rectangle_185" data-name="Rectangle 185" width="13.888" height="2.43" transform="translate(24.648 120.103)" fill="#586773"/>
      <rect id="Rectangle_186" data-name="Rectangle 186" width="8.044" height="2.373" transform="translate(27.57 85.316)" fill="#586773"/>
      <path id="Path_505" data-name="Path 505" d="M444.058,1982.129h0a.933.933,0,0,0,.933-.933v-1.042a.933.933,0,0,0-.933-.933h0a.933.933,0,0,0-.933.933v1.042A.933.933,0,0,0,444.058,1982.129Z" transform="translate(-429.481 -1854.953)" fill="#586773"/>
      <path id="Path_506" data-name="Path 506" d="M457.866,1958.377l-10.07,4.165,10.07-1.734Z" transform="translate(-433.218 -1838.275)" fill="#586773"/>
      <rect id="Rectangle_187" data-name="Rectangle 187" width="2.557" height="67.347" transform="translate(3.515 60.14)" fill="#bbdbf3"/>
      <path id="Path_507" data-name="Path 507" d="M428.541,1705.553s32.335-4.088,38.917,1.813c5.792,5.193,1.215,12.706,1.215,12.706l-31.943.108Z" transform="translate(-417.811 -1634.864)" fill="#f74242"/>
      <rect id="Rectangle_188" data-name="Rectangle 188" width="2.557" height="67.347" transform="translate(33.909 60.14)" fill="#bbdbf3"/>
      <rect id="Rectangle_189" data-name="Rectangle 189" width="2.557" height="67.347" transform="translate(107.144 60.14)" fill="#586773"/>
      <g id="Group_558" data-name="Group 558" transform="translate(62.471 26.509)">
        <path id="Path_508" data-name="Path 508" d="M688.834,1514.665h35.64a1.348,1.348,0,0,0,1.345-1.257l1.477-22a1.348,1.348,0,0,0-1.345-1.438h-35.64a1.347,1.347,0,0,0-1.344,1.257l-1.477,22A1.348,1.348,0,0,0,688.834,1514.665Z" transform="translate(-687.487 -1489.97)" fill="#93acbf"/>
        <path id="Path_509" data-name="Path 509" d="M688.807,1603.154l1,.96,1.729-2.659-2.486-.211Z" transform="translate(-688.543 -1579.01)" fill="#93acbf"/>
        <path id="Path_510" data-name="Path 510" d="M875.422,1491.433l.88.818-1.85,1.278-1.218-1.3,1.381-.8Z" transform="translate(-836.119 -1491.141)" fill="#93acbf"/>
        <path id="Path_511" data-name="Path 511" d="M692.837,1518.408h35.64a1.347,1.347,0,0,0,1.345-1.257l1.476-22a1.348,1.348,0,0,0-1.345-1.438h-35.64a1.348,1.348,0,0,0-1.345,1.257l-1.476,22A1.348,1.348,0,0,0,692.837,1518.408Z" transform="translate(-690.69 -1492.965)" fill="#586773"/>
        <path id="Path_512" data-name="Path 512" d="M770.693,1567.761l1.066,10.357h8.573l-1.657-16.1h-7.457Z" transform="translate(-754.067 -1547.625)" fill="#586773"/>
        <path id="Path_513" data-name="Path 513" d="M774.963,1578.112h8.578l-1.657-16.1h-8.578Z" transform="translate(-756.158 -1547.617)" fill="#93acbf"/>
        <path id="Rectangle_190" data-name="Rectangle 190" d="M0,0H19.008a0,0,0,0,1,0,0V0a2.1,2.1,0,0,1-2.1,2.1H2.1A2.1,2.1,0,0,1,0,0V0A0,0,0,0,1,0,0Z" transform="translate(30.21 32.591) rotate(180)" fill="#586773"/>
        <path id="Rectangle_191" data-name="Rectangle 191" d="M0,0H19.008a0,0,0,0,1,0,0V0a2.1,2.1,0,0,1-2.1,2.1H2.1A2.1,2.1,0,0,1,0,0V0A0,0,0,0,1,0,0Z" transform="translate(33.573 32.591) rotate(180)" fill="#93acbf"/>
      </g>
      <rect id="Rectangle_192" data-name="Rectangle 192" width="90.081" height="2.769" transform="translate(23.045 59.1)" fill="#586773"/>
      <rect id="Rectangle_193" data-name="Rectangle 193" width="37.348" height="2.769" transform="translate(0 59.1)" fill="#bbdbf3"/>
      <path id="Rectangle_194" data-name="Rectangle 194" d="M1.518,0H24.942A1.518,1.518,0,0,1,26.46,1.518v0a0,0,0,0,1,0,0H0a0,0,0,0,1,0,0v0A1.518,1.518,0,0,1,1.518,0Z" transform="translate(43.205 57.583)" fill="#fff"/>
    </g>
    <rect id="Rectangle_195" data-name="Rectangle 195" width="339.526" height="8.635" rx="4.317" transform="translate(158.011 828.9)" fill="#0775ef"/>
    <path id="Path_514" data-name="Path 514" d="M1835.235,1314.347a10.424,10.424,0,0,0-9.163-4.44c-.115.007-.231.015-.346.024a10.435,10.435,0,0,0-6.614,17.586v0a10.63,10.63,0,0,0,1.584,1.361,5.94,5.94,0,0,1,2.462,4.175l-.482.007a.509.509,0,0,0-.356.154c-.017.017-.031.036-.047.056a.482.482,0,1,1,.062.959c-.009.01-.016.02-.026.029a.508.508,0,0,0,.4.832.5.5,0,0,0-.356.156c-.014.015-.028.032-.042.049a.522.522,0,0,0-.1.312.508.508,0,0,0,.514.5.5.5,0,0,0-.356.156.122.122,0,0,0-.016.019.5.5,0,0,0-.126.341.507.507,0,0,0,.514.5l.523-.008a3.67,3.67,0,0,0,.037.369,3.393,3.393,0,0,0,.426,1.171h0c.039.067.081.132.125.2.022.032.045.063.068.094s.062.083.094.123l.072.087c.039.046.079.089.121.132.019.02.037.041.057.061.06.059.122.117.186.172.022.019.045.037.068.056.048.039.1.076.145.112l.076.054c.059.041.119.079.181.116l.045.028c.076.044.154.084.233.122l.074.034q.089.04.181.075l.081.03c.077.027.154.052.234.073l.027.008c.088.023.177.042.268.058l.08.013c.068.011.138.019.207.026l.083.007c.094.006.189.01.285.009l.57-.009a3.421,3.421,0,0,0,3.334-2.955c.008-.064.014-.128.018-.193s.006-.116.008-.175v0l.475-.007a.51.51,0,0,0,.356-.153.5.5,0,0,0,.145-.36.489.489,0,0,0-.139-.337.5.5,0,0,0-.377-.164.507.507,0,0,0-.015-1.015.506.506,0,0,0,.372-.844.51.51,0,0,0-.387-.171.513.513,0,0,0,.5-.516.492.492,0,0,0-.107-.3.506.506,0,0,0-.409-.2l-.48.007a5.957,5.957,0,0,1,2.336-4.249,10.434,10.434,0,0,0,2.319-14.349Z" transform="translate(-1342.432 -617.76)" fill="#fff"/>
    <path id="Path_515" data-name="Path 515" d="M254.3,1470.13a7.187,7.187,0,0,0,9.025,2.289l7.661,10.847,1.88-1.328-7.66-10.846a7.191,7.191,0,1,0-10.906-.963Zm10.487-7.406a5.628,5.628,0,1,1-7.843-1.35A5.644,5.644,0,0,1,264.79,1462.724Z" transform="translate(-91.535 -736.889)" fill="#fff"/>
    <g id="Group_565" data-name="Group 565" transform="translate(323.615 681.286)">
      <path id="Path_516" data-name="Path 516" d="M1214.535,1322.109l10.483-.178-.549-11.007-.262-5.264-.015-.262-8.2-3.448-.267,3.72-.2,2.711Z" transform="translate(-1184.57 -1292.692)" fill="#fdae97"/>
      <path id="Path_517" data-name="Path 517" d="M1238.34,1558.046l4.408,36.491a8.386,8.386,0,0,1-9.908,9.5c-4.556-.886-6.3-4.4-7.119-9.636-1.571-10.043-7.058-40.176-7.058-40.176Z" transform="translate(-1187.874 -1494.557)" fill="#b86b76"/>
      <path id="Path_518" data-name="Path 518" d="M1158.136,1564.169l16.193,1.087-.081,17.94-1.922,2.842-1.782,17.295-16.391-1.31Z" transform="translate(-1136.253 -1502.517)" fill="#b86b76"/>
      <path id="Path_519" data-name="Path 519" d="M1215.572,1364.959c-3.846.085-5.719-2.025-6.122-2.956l1.672-.452,9.421-.3,1.143.366A6.807,6.807,0,0,1,1215.572,1364.959Z" transform="translate(-1180.501 -1340.145)" fill="#fdae97"/>
      <path id="Path_520" data-name="Path 520" d="M1168.5,1389.047l.165,15.73h29l-.134-39.656-10.161-3.672c-.114.209-.237.427-.389.655l-.038.047c-.55.7-1.6,1.366-4.554,1.433-2.457.057-3.662-.285-4.345-.731l-.01-.01a3.439,3.439,0,0,1-.835-1l-9.516,2.309.645,20.018Z" transform="translate(-1147.083 -1340.303)" fill="#fff"/>
      <path id="Path_521" data-name="Path 521" d="M1168.145,1365.01s.823,14.675.7,23.158-.7,29.92-.7,29.92a54.219,54.219,0,0,1-10.313-.887s-.075-9.712,1.288-16.409.681-33.789.681-33.789Z" transform="translate(-1139.195 -1343.153)" fill="#f9e181"/>
      <path id="Path_522" data-name="Path 522" d="M1299.569,1411.178l-.061.024a5.291,5.291,0,0,1-6.838-2.985l-8.632-22.01a5.291,5.291,0,0,1,2.985-6.838l.061-.024a5.291,5.291,0,0,1,6.838,2.985l8.633,22.01A5.291,5.291,0,0,1,1299.569,1411.178Z" transform="translate(-1239.895 -1354.334)" fill="#f9e181"/>
      <path id="Path_523" data-name="Path 523" d="M1274.994,1762.175l-15.232-.011-4.591-35.445a8.4,8.4,0,1,1,16.718-1.76,8.122,8.122,0,0,1,.034,1.19l2.651,31.111.42,4.915Z" transform="translate(-1217.05 -1625.157)" fill="#b86b76"/>
      <path id="Path_524" data-name="Path 524" d="M1160.889,1720.371l-3.911,36.841h-14.964l2.4-37.042a10.107,10.107,0,0,1,.124-1.23c.41-4.627,4.086-8.082,8.713-7.678A8.414,8.414,0,0,1,1160.889,1720.371Z" transform="translate(-1126.539 -1620.193)" fill="#b86b76"/>
      <path id="Path_525" data-name="Path 525" d="M1209.368,1276.948s-1.394-3.479.314-3.161S1209.368,1276.948,1209.368,1276.948Z" transform="translate(-1180.006 -1270.14)" fill="#322a28"/>
      <path id="Path_526" data-name="Path 526" d="M1253.737,1363.083s-3.966,20.559-4.1,30.777l-.133,10.218.454,12.468s11.048,1.37,14.911-.206c0,0,.27-14.8-.757-20.04s-1.11-29.872-1.11-29.872Z" transform="translate(-1212.552 -1341.611)" fill="#f9e181"/>
      <path id="Path_527" data-name="Path 527" d="M1218.04,1337.006l5.893-4.3-5.6.285Z" transform="translate(-1187.374 -1317.306)" fill="#ea9d85"/>
      <path id="Path_528" data-name="Path 528" d="M1260.491,1615.543s8.042,1.332,11.789,0" transform="translate(-1221.343 -1543.626)" fill="none" stroke="#fff" stroke-linecap="round" stroke-linejoin="round" stroke-width="1.405"/>
      <path id="Path_529" data-name="Path 529" d="M1208.879,1261.511s-.333,3.507-.57,5.995l-.2,2.056c-.154,1.625.072,4.078,1.847,4.809a6.32,6.32,0,0,0,6.285-1.526c1.932-1.74,6.633-9.955,1.533-13.64S1209.085,1260.684,1208.879,1261.511Z" transform="translate(-1179.399 -1257.44)" fill="#fdae97"/>
      <path id="Path_530" data-name="Path 530" d="M1199.882,1385.287s.8,12.829,1.08,18.506-1.08,25.659-1.08,25.659" transform="translate(-1172.844 -1359.378)" fill="none" stroke="#fff" stroke-linecap="round" stroke-linejoin="round" stroke-width="1.405"/>
      <path id="Path_531" data-name="Path 531" d="M1220.1,1271.5s-1.329-2.222-1.239-3.432-1.3-2.573-1.074-4.432.313-2.642-.649-2.553-7.766,1.612-7.945-1.611,7.859-6.334,11.1-.873c0,0,2.156-.1,1.5,4.473S1220.173,1268.424,1220.1,1271.5Z" transform="translate(-1180.291 -1255.62)" fill="#322a28"/>
      <path id="Path_532" data-name="Path 532" d="M1264.224,1373.165s-1.51,12.565-2.432,18.771-1.082,21.505-1.3,27.173" transform="translate(-1221.343 -1349.678)" fill="none" stroke="#fff" stroke-linecap="round" stroke-linejoin="round" stroke-width="1.405"/>
      <g id="Group_560" data-name="Group 560" transform="translate(37.086 10.404)">
        <path id="Path_533" data-name="Path 533" d="M1250.85,1308.853c-.729.933-.964,1.616-.232,2.188a2.03,2.03,0,0,0,2.773-.395,1.956,1.956,0,0,0-.007-2.725C1252.651,1307.348,1251.578,1307.919,1250.85,1308.853Z" transform="translate(-1250.172 -1307.692)" fill="#fdae97"/>
      </g>
      <path id="Path_534" data-name="Path 534" d="M1230.686,1298.235c-.036.377-.262.663-.506.64s-.412-.348-.377-.724.263-.663.506-.64S1230.722,1297.858,1230.686,1298.235Z" transform="translate(-1196.783 -1289.14)" fill="#322a28"/>
      <path id="Path_535" data-name="Path 535" d="M1211.409,1296.4c-.036.377.133.7.376.724s.47-.264.506-.64-.133-.7-.376-.724S1211.445,1296.024,1211.409,1296.4Z" transform="translate(-1182.064 -1287.739)" fill="#322a28"/>
      <path id="Path_536" data-name="Path 536" d="M1229.51,1309.209c.083.357.726.513,1.436.348s1.219-.588,1.136-.946-.726-.513-1.436-.348S1229.426,1308.852,1229.51,1309.209Z" transform="translate(-1196.545 -1297.692)" fill="#ea9d85"/>
      <path id="Path_537" data-name="Path 537" d="M1208.743,1306l-.127,1.337c.557.12,1.034.008,1.14-.279C1209.873,1306.717,1209.422,1306.245,1208.743,1306Z" transform="translate(-1179.833 -1295.933)" fill="#ea9d85"/>
      <path id="Path_538" data-name="Path 538" d="M1257.725,1314.91a3.04,3.04,0,0,0-1.122-.107,1.414,1.414,0,0,1,1.436-.779" transform="translate(-1218.232 -1302.342)" fill="none" stroke="#ea9d85" stroke-linecap="round" stroke-linejoin="round" stroke-width="1.369"/>
      <path id="Path_539" data-name="Path 539" d="M1220.284,1301.554l-1.06,2.327a.564.564,0,0,0,.162.676l.314.25.322.256" transform="translate(-1188.28 -1292.376)" fill="none" stroke="#332b27" stroke-miterlimit="10" stroke-width="0.875"/>
      <path id="Path_540" data-name="Path 540" d="M1230.579,1294.651a2.021,2.021,0,0,0-1.7-.707" transform="translate(-1196.048 -1286.27)" fill="none" stroke="#332b27" stroke-miterlimit="10" stroke-width="0.875"/>
      <path id="Path_541" data-name="Path 541" d="M1209.935,1291.87a1.411,1.411,0,0,1,1.549-.055" transform="translate(-1180.889 -1284.417)" fill="none" stroke="#332b27" stroke-miterlimit="10" stroke-width="0.875"/>
      <path id="Path_542" data-name="Path 542" d="M1161.053,1947.115l.4-5.757h-11.211l-.438,5.757Z" transform="translate(-1132.774 -1804.339)" fill="#fdae97"/>
      <path id="Path_543" data-name="Path 543" d="M1119.116,1407.288l-.064-.017a5.291,5.291,0,0,1-3.694-6.482l6.247-22.8a5.291,5.291,0,0,1,6.482-3.694l.064.017a5.291,5.291,0,0,1,3.694,6.482l-6.248,22.8A5.291,5.291,0,0,1,1119.116,1407.288Z" transform="translate(-1105.06 -1350.431)" fill="#f9e181"/>
      <path id="Path_544" data-name="Path 544" d="M1151,1943.965l11.41-2.608H1151.2Z" transform="translate(-1133.733 -1804.339)" fill="#ea9d85"/>
      <path id="Path_545" data-name="Path 545" d="M1287.66,1947.077l-.43-5.767,11.483.009.195,5.757Z" transform="translate(-1242.739 -1804.301)" fill="#fdae97"/>
      <path id="Path_546" data-name="Path 546" d="M1287.469,1944.527l11.244-3.207-11.483-.009Z" transform="translate(-1242.739 -1804.301)" fill="#ea9d85"/>
      <path id="Path_547" data-name="Path 547" d="M1122.155,1973.843h16.555l.028-.674.2-4.462h-11.265a5.912,5.912,0,0,0-3.672,1.673,5.638,5.638,0,0,0-1.708,2.789A4.024,4.024,0,0,0,1122.155,1973.843Z" transform="translate(-1110.648 -1826.224)" fill="#322a28"/>
      <path id="Path_548" data-name="Path 548" d="M1122.155,1991.712h16.555l.028-.674H1122.3A4.032,4.032,0,0,0,1122.155,1991.712Z" transform="translate(-1110.648 -1844.093)" fill="#fff1f0"/>
      <g id="Group_561" data-name="Group 561" transform="translate(14.121 141.651)">
        <path id="Path_549" data-name="Path 549" d="M1148.092,1966.29s1.431-2.512,2.395-1.519-2.395,1.519-2.395,1.519" transform="translate(-1145.523 -1964.539)" fill="none" stroke="#fff1f0" stroke-linecap="round" stroke-linejoin="round" stroke-width="1.084"/>
        <path id="Path_550" data-name="Path 550" d="M1138.31,1966.79l-.5-.5s-1.431-2.512-2.395-1.519,2.395,1.519,2.395,1.519" transform="translate(-1135.237 -1964.539)" fill="none" stroke="#fff1f0" stroke-linecap="round" stroke-linejoin="round" stroke-width="1.084"/>
        <line id="Line_45" data-name="Line 45" y1="0.5" x2="0.384" transform="translate(2.184 1.751)" fill="none" stroke="#fff1f0" stroke-linecap="round" stroke-linejoin="round" stroke-width="1.084"/>
      </g>
      <path id="Path_551" data-name="Path 551" d="M1305.669,1973.843h-16.555l-.029-.674-.2-4.462h11.265a5.912,5.912,0,0,1,3.672,1.673,5.638,5.638,0,0,1,1.708,2.789A4.036,4.036,0,0,1,1305.669,1973.843Z" transform="translate(-1244.061 -1826.224)" fill="#322a28"/>
      <path id="Path_552" data-name="Path 552" d="M1306.483,1991.712h-16.555l-.029-.674h16.441A4.069,4.069,0,0,1,1306.483,1991.712Z" transform="translate(-1244.875 -1844.093)" fill="#fff1f0"/>
      <g id="Group_562" data-name="Group 562" transform="translate(53.857 141.803)">
        <path id="Path_553" data-name="Path 553" d="M1336.672,1967.051s-1.431-2.511-2.395-1.519,2.395,1.519,2.395,1.519" transform="translate(-1334.103 -1965.3)" fill="none" stroke="#fff1f0" stroke-linecap="round" stroke-linejoin="round" stroke-width="1.084"/>
        <path id="Path_554" data-name="Path 554" d="M1344.437,1967.551l.5-.5s1.431-2.511,2.395-1.519-2.395,1.519-2.395,1.519" transform="translate(-1342.372 -1965.3)" fill="none" stroke="#fff1f0" stroke-linecap="round" stroke-linejoin="round" stroke-width="1.084"/>
        <line id="Line_46" data-name="Line 46" x1="0.384" y1="0.5" transform="translate(2.569 1.751)" fill="none" stroke="#fff1f0" stroke-linecap="round" stroke-linejoin="round" stroke-width="1.084"/>
      </g>
      <path id="Path_555" data-name="Path 555" d="M1224.842,1652.244l-1.319-4.4h-1.264l-2.012-5.449" transform="translate(-1189.141 -1565.11)" fill="none" stroke="#fff" stroke-linecap="round" stroke-linejoin="round" stroke-width="0.712"/>
      <line id="Line_47" data-name="Line 47" x1="12.962" transform="translate(43.463 132.857)" fill="none" stroke="#fff" stroke-linecap="round" stroke-linejoin="round" stroke-width="0.712"/>
      <line id="Line_48" data-name="Line 48" x1="12.962" transform="translate(17.032 132.857)" fill="none" stroke="#fff" stroke-linecap="round" stroke-linejoin="round" stroke-width="0.712"/>
      <path id="Path_556" data-name="Path 556" d="M1221.617,1322.476l-1.991.7a1.19,1.19,0,0,0,1.415.725C1222.046,1323.609,1221.617,1322.476,1221.617,1322.476Z" transform="translate(-1188.643 -1309.118)" fill="#fff"/>
      <path id="Path_557" data-name="Path 557" d="M1161.243,1611.814a15.155,15.155,0,0,0,7.721.265" transform="translate(-1141.926 -1540.642)" fill="none" stroke="#fff" stroke-linecap="round" stroke-linejoin="round" stroke-width="1.405"/>
      <path id="Path_558" data-name="Path 558" d="M1194.122,1498.512a.719.719,0,1,1-.719-.719A.719.719,0,0,1,1194.122,1498.512Z" transform="translate(-1167.085 -1449.404)" fill="#fff"/>
      <path id="Path_559" data-name="Path 559" d="M1194.122,1531.57a.719.719,0,1,1-.719-.719A.719.719,0,0,1,1194.122,1531.57Z" transform="translate(-1167.085 -1475.857)" fill="#fff"/>
      <path id="Path_560" data-name="Path 560" d="M1189.577,1588.232a.719.719,0,1,1-.719-.719A.719.719,0,0,1,1189.577,1588.232Z" transform="translate(-1163.448 -1521.197)" fill="#fff"/>
      <g id="Group_564" data-name="Group 564" transform="translate(0 44.172)">
        <path id="Path_561" data-name="Path 561" d="M1071.023,1497.264h24.737l-6.456-18.524h-24.737Z" transform="translate(-1064.567 -1478.33)" fill="#a5bbd6"/>
        <g id="Group_563" data-name="Group 563">
          <path id="Path_562" data-name="Path 562" d="M1120.265,1538.294l8.089-7.155h-23.927l-8.9,7.155Z" transform="translate(-1089.341 -1520.259)" fill="#89a5c7"/>
          <path id="Path_563" data-name="Path 563" d="M1073.362,1495.213H1098.1l-6.456-18.524h-24.737Z" transform="translate(-1066.438 -1476.688)" fill="#a5bbd6"/>
          <path id="Path_564" data-name="Path 564" d="M1065.035,1476.688l-.467.41H1089.3l6.456,18.524.467-.41-6.456-18.524Z" transform="translate(-1064.567 -1476.688)" fill="#89a5c7"/>
          <path id="Path_565" data-name="Path 565" d="M1227.245,1531.139l.27.9-8.089,7.155-.313-.9Z" transform="translate(-1188.232 -1520.259)" fill="#586773"/>
        </g>
        <ellipse id="Ellipse_33" data-name="Ellipse 33" cx="2.743" cy="1.214" rx="2.743" ry="1.214" transform="translate(11.811 8.669)" fill="#89a5c7"/>
      </g>
      <path id="Path_566" data-name="Path 566" d="M1184.155,1545.756c.162.437,2.985.413,4.937-.246,1.655-.557,5.332-2.253,6.413-2.76l-2.041-6.635c-.691.119-2.126.225-2.776.379-1.732.407-5.045,1.825-4.951,2.471s3.114.033,2.932.335a8.642,8.642,0,0,1-3.412,1.584c-1.013.092-3.206-.07-3.515.434s.293,1.138.293,1.138-.832-.158-.836.379,1.229,1.108,1.229,1.108-.448-.14-.306.452,2.271.814,2.271.814A.376.376,0,0,0,1184.155,1545.756Z" transform="translate(-1157.895 -1480.069)" fill="#fdae97"/>
      <path id="Path_567" data-name="Path 567" d="M1240.561,1494.923l20.863-8.383c2.508-.922,5.417.643,6.469,3.485s-.15,5.926-2.658,6.854l-21.736,7.592Z" transform="translate(-1205.395 -1440.188)" fill="#f9e181"/>
      <path id="Path_568" data-name="Path 568" d="M1251.66,1463.7l13.338-5.2-3.974-10.133" transform="translate(-1214.277 -1409.856)" fill="none" stroke="#332b27" stroke-miterlimit="10" stroke-width="1.229"/>
      <line id="Line_49" data-name="Line 49" x1="11.67" y2="4.076" transform="translate(40.004 59.543)" fill="none" stroke="#332b27" stroke-miterlimit="10" stroke-width="1.229"/>
    </g>
    <g id="Group_566" data-name="Group 566" transform="translate(463.867 645.169)">
      <rect id="Rectangle_196" data-name="Rectangle 196" width="3.18" height="8.685" transform="translate(0 12.55)" fill="#fff"/>
      <rect id="Rectangle_197" data-name="Rectangle 197" width="3.18" height="13.152" transform="translate(5.037 8.083)" fill="#fff"/>
      <rect id="Rectangle_198" data-name="Rectangle 198" width="3.18" height="19.803" transform="translate(10.074 1.432)" fill="#fff"/>
      <rect id="Rectangle_199" data-name="Rectangle 199" width="3.18" height="15.7" transform="translate(15.111 5.535)" fill="#fff"/>
      <rect id="Rectangle_200" data-name="Rectangle 200" width="3.18" height="13.969" transform="translate(20.148 7.265)" fill="#fff"/>
      <rect id="Rectangle_201" data-name="Rectangle 201" width="3.18" height="17.37" transform="translate(25.185 3.865)" fill="#fff"/>
      <rect id="Rectangle_202" data-name="Rectangle 202" width="3.18" height="21.235" transform="translate(30.221 0)" fill="#fff"/>
    </g>
    <g id="Group_567" data-name="Group 567" transform="translate(465.687 602.339)">
      <path id="Path_569" data-name="Path 569" d="M1775.6,894.237v-1.915l11.057-5.984v2.925l-7.386,4.016,7.386,4.016v2.925Z" transform="translate(-1775.598 -881.178)" fill="#fff"/>
      <path id="Path_570" data-name="Path 570" d="M1840.512,881.951l-1.813-.8,6.817-20.639,1.813.851Z" transform="translate(-1826.09 -860.514)" fill="#fff"/>
      <path id="Path_571" data-name="Path 571" d="M1902.027,892.322v1.915l-11.057,5.984V897.3l7.385-4.016-7.385-4.016v-2.925Z" transform="translate(-1867.917 -881.178)" fill="#fff"/>
    </g>
  </g>
</svg>
