<svg xmlns="http://www.w3.org/2000/svg" width="305.477" height="266.932" viewBox="0 0 305.477 266.932">
  <defs>
    <style>
      .cls-1 {
        fill: #6eb7f2;
      }

      .cls-2 {
        fill: #fff;
      }

      .cls-3 {
        fill: #2a8ff7;
      }

      .cls-24, .cls-4 {
        fill: #c2d7ef;
      }

      .cls-5 {
        fill: #0f67d5;
      }

      .cls-6 {
        fill: #468ee2;
      }

      .cls-7 {
        fill: #f4babd;
      }

      .cls-11, .cls-8 {
        fill: #f7cacc;
      }

      .cls-10, .cls-9 {
        fill: #8bbb90;
      }

      .cls-10, .cls-23, .cls-24 {
        opacity: 0.5;
      }

      .cls-10, .cls-11, .cls-13, .cls-23 {
        mix-blend-mode: multiply;
        isolation: isolate;
      }

      .cls-12, .cls-23 {
        fill: #1f3186;
      }

      .cls-13, .cls-14, .cls-25 {
        fill: none;
        stroke-miterlimit: 10;
      }

      .cls-13 {
        stroke: #f7cacc;
        stroke-width: 0.674px;
      }

      .cls-13, .cls-14 {
        stroke-linecap: round;
      }

      .cls-14 {
        stroke: #1f3186;
      }

      .cls-15 {
        fill: #0074ff;
      }

      .cls-16 {
        fill: #0068f6;
      }

      .cls-17 {
        fill: #ef829f;
      }

      .cls-18 {
        fill: #cc8c40;
      }

      .cls-19 {
        fill: #f4b247;
      }

      .cls-20 {
        fill: #e5a345;
      }

      .cls-21 {
        fill: #f2cd70;
      }

      .cls-22 {
        fill: #bacfe2;
      }

      .cls-25 {
        stroke: #fff;
        stroke-width: 0.68px;
      }
    </style>
  </defs>
  <g id="Group_586" data-name="Group 586" transform="translate(-64.699 -82.431)">
    <path id="Path_378" data-name="Path 378" class="cls-1" d="M72.6,277.181c7.886,19.363,42.632,50.19,128.172,26.768s152.913-23.69,168.125-79.216S319.538,110.3,268.874,107.532s-76.783,23.075-101.757,61.56-68.943,42.65-82.094,56.422S68.376,266.821,72.6,277.181Z" transform="translate(-0.981 -3.939)"/>
    <path id="Path_379" data-name="Path 379" class="cls-2" d="M192.381,153.727h53.738s.3-8.51-8.6-8.51c0,0-2.236-8.905-10.172-8.905s-10.165,5.482-10.165,5.482-12.521-6.167-17.092,7.781C200.089,149.574,194.287,148.187,192.381,153.727Z" transform="translate(-20.201 -8.525)"/>
    <path id="Path_380" data-name="Path 380" class="cls-2" d="M355.381,234.727h53.738s.3-8.51-8.6-8.51c0,0-2.236-8.905-10.172-8.905s-10.165,5.482-10.165,5.482-12.521-6.167-17.092,7.781C363.089,230.574,357.287,229.187,355.381,234.727Z" transform="translate(-45.991 -21.34)"/>
    <path id="Path_381" data-name="Path 381" class="cls-2" d="M352.194,165.152h42.647s.586-9.9-10.339-8.261c0,0-.2-10.061-11.9-5.869,0,0-9.092-4.355-12.718,5.869C359.884,156.891,352.659,155,352.194,165.152Z" transform="translate(-45.486 -10.691)"/>
    <g id="Group_563" data-name="Group 563" transform="translate(123.265 156.094)">
      <path id="Rectangle_137" data-name="Rectangle 137" class="cls-3" d="M11.214,0H176.624a11.214,11.214,0,0,1,11.214,11.214V126.172a0,0,0,0,1,0,0H0a0,0,0,0,1,0,0V11.214A11.214,11.214,0,0,1,11.214,0Z" transform="translate(25.304)"/>
      <rect id="Rectangle_138" data-name="Rectangle 138" class="cls-4" width="167.959" height="112.379" transform="translate(34.635 8.114)"/>
      <rect id="Rectangle_139" data-name="Rectangle 139" class="cls-5" width="167.959" height="9.331" transform="translate(34.635 8.114)"/>
      <path id="Path_382" data-name="Path 382" class="cls-6" d="M371.263,383.926H135.915a1.053,1.053,0,0,1-.98-1.44l24.735-62.66H347.508l24.736,62.66A1.054,1.054,0,0,1,371.263,383.926Z" transform="translate(-134.366 -193.654)"/>
      <path id="Path_383" data-name="Path 383" class="cls-5" d="M369.722,398.713H137.27a3,3,0,0,1-3-3h90.3l.271-.317a2.993,2.993,0,0,1,2.279-1.051h52.5a3,3,0,0,1,2.264,1.035l.289.334h90.546A3,3,0,0,1,369.722,398.713Z" transform="translate(-134.273 -205.444)"/>
      <g id="Group_561" data-name="Group 561" transform="translate(19.505 128.464)">
        <path id="Path_384" data-name="Path 384" class="cls-1" d="M356.371,358.053H159.1a1.668,1.668,0,0,1-1.554-2.253l11.938-32.181a1.642,1.642,0,0,1,1.54-1.071H343.061a1.724,1.724,0,0,1,1.583,1.071L357.836,355.8A1.606,1.606,0,0,1,356.371,358.053Z" transform="translate(-157.444 -322.548)"/>
        <g id="Group_560" data-name="Group 560" transform="translate(9.827 1.734)">
          <g id="Group_536" data-name="Group 536" transform="translate(6.029 8.297)">
            <g id="Group_528" data-name="Group 528">
              <path id="Path_385" data-name="Path 385" class="cls-2" d="M199.982,340.87h-23.22a.481.481,0,0,1-.45-.654l1.71-4.457a.482.482,0,0,1,.45-.309h22.615a.481.481,0,0,1,.467.6l-1.106,4.457A.481.481,0,0,1,199.982,340.87Z" transform="translate(-176.28 -334.62)"/>
              <path id="Path_386" data-name="Path 386" class="cls-5" d="M199.982,339.885h-23.22a.482.482,0,0,1-.45-.654l1.71-4.458a.482.482,0,0,1,.45-.309h22.615a.481.481,0,0,1,.467.6l-1.106,4.457A.481.481,0,0,1,199.982,339.885Z" transform="translate(-176.28 -334.464)"/>
            </g>
            <g id="Group_529" data-name="Group 529" transform="translate(29.159)">
              <path id="Path_387" data-name="Path 387" class="cls-2" d="M223.827,340.87H211.4a.481.481,0,0,1-.45-.654l1.235-4.457a.482.482,0,0,1,.45-.309h11.82a.481.481,0,0,1,.467.6l-.631,4.457A.481.481,0,0,1,223.827,340.87Z" transform="translate(-210.92 -334.62)"/>
              <path id="Path_388" data-name="Path 388" class="cls-5" d="M223.827,339.885H211.4a.482.482,0,0,1-.45-.654l1.235-4.458a.482.482,0,0,1,.45-.309h11.82a.481.481,0,0,1,.467.6l-.631,4.457A.481.481,0,0,1,223.827,339.885Z" transform="translate(-210.92 -334.464)"/>
            </g>
            <g id="Group_530" data-name="Group 530" transform="translate(47.297)">
              <path id="Path_389" data-name="Path 389" class="cls-2" d="M245.374,340.87H232.949a.481.481,0,0,1-.45-.654l.817-4.457a.481.481,0,0,1,.45-.309h11.819a.482.482,0,0,1,.468.6l-.212,4.457A.483.483,0,0,1,245.374,340.87Z" transform="translate(-232.467 -334.62)"/>
              <path id="Path_390" data-name="Path 390" class="cls-5" d="M245.374,339.885H232.949a.482.482,0,0,1-.45-.654l.817-4.458a.481.481,0,0,1,.45-.309h11.819a.482.482,0,0,1,.468.6l-.212,4.457A.482.482,0,0,1,245.374,339.885Z" transform="translate(-232.467 -334.464)"/>
            </g>
            <g id="Group_531" data-name="Group 531" transform="translate(68.137)">
              <path id="Path_391" data-name="Path 391" class="cls-2" d="M270.131,340.87H257.706a.481.481,0,0,1-.449-.654l.485-4.457a.482.482,0,0,1,.449-.309h11.82a.481.481,0,0,1,.467.6l.12,4.457A.481.481,0,0,1,270.131,340.87Z" transform="translate(-257.224 -334.62)"/>
              <path id="Path_392" data-name="Path 392" class="cls-5" d="M270.131,339.885H257.706a.482.482,0,0,1-.449-.654l.485-4.458a.482.482,0,0,1,.449-.309h11.82a.481.481,0,0,1,.467.6l.12,4.457A.481.481,0,0,1,270.131,339.885Z" transform="translate(-257.224 -334.464)"/>
            </g>
            <g id="Group_532" data-name="Group 532" transform="translate(127.567)">
              <path id="Path_393" data-name="Path 393" class="cls-2" d="M329.413,340.87h12.425a.482.482,0,0,0,.45-.654l-1.711-4.457a.482.482,0,0,0-.449-.309h-11.82a.481.481,0,0,0-.467.6l1.106,4.457A.481.481,0,0,0,329.413,340.87Z" transform="translate(-327.825 -334.62)"/>
              <path id="Path_394" data-name="Path 394" class="cls-5" d="M329.413,339.885h12.425a.482.482,0,0,0,.45-.654l-1.711-4.458a.482.482,0,0,0-.449-.309h-11.82a.481.481,0,0,0-.467.6l1.106,4.457A.481.481,0,0,0,329.413,339.885Z" transform="translate(-327.825 -334.464)"/>
            </g>
            <g id="Group_533" data-name="Group 533" transform="translate(109.268)">
              <path id="Path_395" data-name="Path 395" class="cls-2" d="M307.2,340.87h12.425a.481.481,0,0,0,.449-.654l-1.235-4.457a.482.482,0,0,0-.45-.309h-11.82a.481.481,0,0,0-.467.6l.63,4.457A.483.483,0,0,0,307.2,340.87Z" transform="translate(-306.086 -334.62)"/>
              <path id="Path_396" data-name="Path 396" class="cls-5" d="M307.2,339.885h12.425a.482.482,0,0,0,.449-.654l-1.235-4.458a.482.482,0,0,0-.45-.309h-11.82a.481.481,0,0,0-.467.6l.63,4.457A.482.482,0,0,0,307.2,339.885Z" transform="translate(-306.086 -334.464)"/>
            </g>
            <g id="Group_534" data-name="Group 534" transform="translate(88.75)">
              <path id="Path_397" data-name="Path 397" class="cls-2" d="M282.406,340.87H294.83a.482.482,0,0,0,.45-.654l-.817-4.457a.482.482,0,0,0-.45-.309h-11.82a.481.481,0,0,0-.467.6l.212,4.457A.481.481,0,0,0,282.406,340.87Z" transform="translate(-281.712 -334.62)"/>
              <path id="Path_398" data-name="Path 398" class="cls-5" d="M282.406,339.885H294.83a.482.482,0,0,0,.45-.654l-.817-4.458a.482.482,0,0,0-.45-.309h-11.82a.481.481,0,0,0-.467.6l.212,4.457A.481.481,0,0,0,282.406,339.885Z" transform="translate(-281.712 -334.464)"/>
            </g>
            <g id="Group_535" data-name="Group 535" transform="translate(145.815 0.058)">
              <path id="Path_399" data-name="Path 399" class="cls-2" d="M351.771,340.823h21.08a.481.481,0,0,0,.45-.654l-1.742-4.341a.481.481,0,0,0-.449-.309H349.983a.481.481,0,0,0-.467.6l1.787,4.341A.481.481,0,0,0,351.771,340.823Z" transform="translate(-349.502 -334.689)"/>
              <path id="Path_400" data-name="Path 400" class="cls-5" d="M351.771,339.838h21.08a.482.482,0,0,0,.45-.654l-1.742-4.342a.481.481,0,0,0-.449-.309H349.983a.481.481,0,0,0-.467.6l1.787,4.341A.481.481,0,0,0,351.771,339.838Z" transform="translate(-349.502 -334.533)"/>
            </g>
          </g>
          <g id="Group_544" data-name="Group 544" transform="translate(3.149 16.764)">
            <g id="Group_537" data-name="Group 537">
              <path id="Path_401" data-name="Path 401" class="cls-2" d="M206.749,350.929H173.5c-.452,0-.764-.338-.6-.654l1.859-4.457a.668.668,0,0,1,.6-.309H207.8c.419,0,.726.294.625.6l-1.049,4.457A.639.639,0,0,1,206.749,350.929Z" transform="translate(-172.86 -344.679)"/>
              <path id="Path_402" data-name="Path 402" class="cls-5" d="M206.749,349.943H173.5c-.452,0-.764-.338-.6-.654l1.859-4.457a.668.668,0,0,1,.6-.309H207.8c.419,0,.726.294.625.6l-1.049,4.457A.639.639,0,0,1,206.749,349.943Z" transform="translate(-172.86 -344.523)"/>
            </g>
            <g id="Group_538" data-name="Group 538" transform="translate(40.347)">
              <path id="Path_403" data-name="Path 403" class="cls-2" d="M234.912,350.929H221.272a.482.482,0,0,1-.45-.654l.923-4.457a.482.482,0,0,1,.45-.309H235.23a.482.482,0,0,1,.468.6l-.318,4.457A.483.483,0,0,1,234.912,350.929Z" transform="translate(-220.79 -344.679)"/>
              <path id="Path_404" data-name="Path 404" class="cls-5" d="M234.912,349.943H221.272a.482.482,0,0,1-.45-.654l.923-4.457a.481.481,0,0,1,.45-.309H235.23a.482.482,0,0,1,.468.6l-.318,4.457A.483.483,0,0,1,234.912,349.943Z" transform="translate(-220.79 -344.523)"/>
            </g>
            <g id="Group_539" data-name="Group 539" transform="translate(60.572)">
              <path id="Path_405" data-name="Path 405" class="cls-2" d="M258.643,350.929H245.3a.482.482,0,0,1-.45-.654l.462-4.457a.482.482,0,0,1,.45-.309h12.8a.481.481,0,0,1,.467.6l.079,4.457A.481.481,0,0,1,258.643,350.929Z" transform="translate(-244.817 -344.679)"/>
              <path id="Path_406" data-name="Path 406" class="cls-5" d="M258.643,349.943H245.3a.482.482,0,0,1-.45-.654l.462-4.457a.481.481,0,0,1,.45-.309h12.8a.481.481,0,0,1,.467.6l.079,4.457A.481.481,0,0,1,258.643,349.943Z" transform="translate(-244.817 -344.523)"/>
            </g>
            <g id="Group_540" data-name="Group 540" transform="translate(80.821)">
              <path id="Path_407" data-name="Path 407" class="cls-2" d="M282.665,350.929H269.353a.482.482,0,0,1-.45-.654l-.032-4.457a.482.482,0,0,1,.449-.309h13.225a.482.482,0,0,1,.467.6l.12,4.457A.481.481,0,0,1,282.665,350.929Z" transform="translate(-268.871 -344.679)"/>
              <path id="Path_408" data-name="Path 408" class="cls-5" d="M282.665,349.943H269.353a.482.482,0,0,1-.45-.654l-.032-4.457a.481.481,0,0,1,.449-.309h13.225a.482.482,0,0,1,.467.6l.12,4.457A.481.481,0,0,1,282.665,349.943Z" transform="translate(-268.871 -344.523)"/>
            </g>
            <g id="Group_541" data-name="Group 541" transform="translate(120.45)">
              <path id="Path_409" data-name="Path 409" class="cls-2" d="M317.32,350.929h14.827a.482.482,0,0,0,.45-.654l-1.236-4.457a.482.482,0,0,0-.449-.309H316.431a.482.482,0,0,0-.468.6l.89,4.457A.481.481,0,0,0,317.32,350.929Z" transform="translate(-315.949 -344.679)"/>
              <path id="Path_410" data-name="Path 410" class="cls-5" d="M317.32,349.943h14.827a.482.482,0,0,0,.45-.654l-1.236-4.457a.481.481,0,0,0-.449-.309H316.431a.482.482,0,0,0-.468.6l.89,4.457A.481.481,0,0,0,317.32,349.943Z" transform="translate(-315.949 -344.523)"/>
            </g>
            <g id="Group_542" data-name="Group 542" transform="translate(100.868)">
              <path id="Path_411" data-name="Path 411" class="cls-2" d="M293.38,350.929h13.374a.482.482,0,0,0,.45-.654l-.817-4.457a.482.482,0,0,0-.449-.309h-12.77a.481.481,0,0,0-.467.6l.212,4.457A.482.482,0,0,0,293.38,350.929Z" transform="translate(-292.686 -344.679)"/>
              <path id="Path_412" data-name="Path 412" class="cls-5" d="M293.38,349.943h13.374a.482.482,0,0,0,.45-.654l-.817-4.457a.481.481,0,0,0-.449-.309h-12.77a.481.481,0,0,0-.467.6l.212,4.457A.482.482,0,0,0,293.38,349.943Z" transform="translate(-292.686 -344.523)"/>
            </g>
            <g id="Group_543" data-name="Group 543" transform="translate(145.383 0.058)">
              <path id="Path_413" data-name="Path 413" class="cls-2" d="M347.837,350.882h27.8a.481.481,0,0,0,.45-.654l-1.741-4.341a.483.483,0,0,0-.45-.309H346.05a.482.482,0,0,0-.468.6l1.787,4.341A.481.481,0,0,0,347.837,350.882Z" transform="translate(-345.568 -344.748)"/>
              <path id="Path_414" data-name="Path 414" class="cls-5" d="M347.837,349.9h27.8a.482.482,0,0,0,.45-.655l-1.741-4.341a.483.483,0,0,0-.45-.309H346.05a.482.482,0,0,0-.468.6l1.787,4.341A.482.482,0,0,0,347.837,349.9Z" transform="translate(-345.568 -344.592)"/>
            </g>
          </g>
          <g id="Group_554" data-name="Group 554" transform="translate(8.611)">
            <g id="Group_545" data-name="Group 545">
              <path id="Path_415" data-name="Path 415" class="cls-2" d="M192.255,331.014H179.829a.481.481,0,0,1-.45-.654l1.711-4.457a.482.482,0,0,1,.449-.309h11.82a.482.482,0,0,1,.467.6l-1.106,4.457A.482.482,0,0,1,192.255,331.014Z" transform="translate(-179.347 -324.764)"/>
              <path id="Path_416" data-name="Path 416" class="cls-5" d="M192.255,330.028H179.829a.481.481,0,0,1-.45-.654l1.711-4.457a.482.482,0,0,1,.449-.309h11.82a.482.482,0,0,1,.467.6l-1.106,4.457A.482.482,0,0,1,192.255,330.028Z" transform="translate(-179.347 -324.608)"/>
            </g>
            <g id="Group_546" data-name="Group 546" transform="translate(18.367)">
              <path id="Path_417" data-name="Path 417" class="cls-2" d="M214.073,331.014H201.648a.481.481,0,0,1-.45-.654l1.235-4.457a.482.482,0,0,1,.45-.309H214.7a.481.481,0,0,1,.467.6l-.63,4.457A.481.481,0,0,1,214.073,331.014Z" transform="translate(-201.166 -324.764)"/>
              <path id="Path_418" data-name="Path 418" class="cls-5" d="M214.073,330.028H201.648a.481.481,0,0,1-.45-.654l1.235-4.457a.482.482,0,0,1,.45-.309H214.7a.481.481,0,0,1,.467.6l-.63,4.457A.481.481,0,0,1,214.073,330.028Z" transform="translate(-201.166 -324.608)"/>
            </g>
            <g id="Group_547" data-name="Group 547" transform="translate(36.704)">
              <path id="Path_419" data-name="Path 419" class="cls-2" d="M235.858,331.014H223.432a.481.481,0,0,1-.45-.654l.817-4.457a.482.482,0,0,1,.45-.309h11.82a.482.482,0,0,1,.467.6l-.212,4.457A.482.482,0,0,1,235.858,331.014Z" transform="translate(-222.95 -324.764)"/>
              <path id="Path_420" data-name="Path 420" class="cls-5" d="M235.858,330.028H223.432a.481.481,0,0,1-.45-.654l.817-4.457a.482.482,0,0,1,.45-.309h11.82a.482.482,0,0,1,.467.6l-.212,4.457A.482.482,0,0,1,235.858,330.028Z" transform="translate(-222.95 -324.608)"/>
            </g>
            <g id="Group_548" data-name="Group 548" transform="translate(54.947)">
              <path id="Path_421" data-name="Path 421" class="cls-2" d="M257.528,331.014H245.1a.481.481,0,0,1-.45-.654l.485-4.457a.483.483,0,0,1,.45-.309h11.819a.482.482,0,0,1,.468.6l.119,4.457A.481.481,0,0,1,257.528,331.014Z" transform="translate(-244.621 -324.764)"/>
              <path id="Path_422" data-name="Path 422" class="cls-5" d="M257.528,330.028H245.1a.481.481,0,0,1-.45-.654l.485-4.457a.483.483,0,0,1,.45-.309h11.819a.482.482,0,0,1,.468.6l.119,4.457A.481.481,0,0,1,257.528,330.028Z" transform="translate(-244.621 -324.608)"/>
            </g>
            <g id="Group_549" data-name="Group 549" transform="translate(108.772)">
              <path id="Path_423" data-name="Path 423" class="cls-2" d="M310.152,331.014h12.425a.482.482,0,0,0,.45-.654l-1.711-4.457a.482.482,0,0,0-.45-.309h-11.82a.481.481,0,0,0-.467.6l1.106,4.457A.481.481,0,0,0,310.152,331.014Z" transform="translate(-308.564 -324.764)"/>
              <path id="Path_424" data-name="Path 424" class="cls-5" d="M310.152,330.028h12.425a.482.482,0,0,0,.45-.654l-1.711-4.457a.482.482,0,0,0-.45-.309h-11.82a.481.481,0,0,0-.467.6l1.106,4.457A.481.481,0,0,0,310.152,330.028Z" transform="translate(-308.564 -324.608)"/>
            </g>
            <g id="Group_550" data-name="Group 550" transform="translate(90.881)">
              <path id="Path_425" data-name="Path 425" class="cls-2" d="M288.423,331.014h12.425a.481.481,0,0,0,.449-.654l-1.235-4.457a.483.483,0,0,0-.45-.309H287.792a.482.482,0,0,0-.468.6l.63,4.457A.483.483,0,0,0,288.423,331.014Z" transform="translate(-287.31 -324.764)"/>
              <path id="Path_426" data-name="Path 426" class="cls-5" d="M288.423,330.028h12.425a.481.481,0,0,0,.449-.654l-1.235-4.457a.483.483,0,0,0-.45-.309H287.792a.482.482,0,0,0-.468.6l.63,4.457A.483.483,0,0,0,288.423,330.028Z" transform="translate(-287.31 -324.608)"/>
            </g>
            <g id="Group_551" data-name="Group 551" transform="translate(72.962)">
              <path id="Path_427" data-name="Path 427" class="cls-2" d="M266.717,331.014h12.425a.482.482,0,0,0,.45-.654l-.817-4.457a.482.482,0,0,0-.45-.309H266.5a.481.481,0,0,0-.467.6l.212,4.457A.481.481,0,0,0,266.717,331.014Z" transform="translate(-266.023 -324.764)"/>
              <path id="Path_428" data-name="Path 428" class="cls-5" d="M266.717,330.028h12.425a.482.482,0,0,0,.45-.654l-.817-4.457a.482.482,0,0,0-.45-.309H266.5a.481.481,0,0,0-.467.6l.212,4.457A.481.481,0,0,0,266.717,330.028Z" transform="translate(-266.023 -324.608)"/>
            </g>
            <g id="Group_552" data-name="Group 552" transform="translate(140.265)">
              <path id="Path_429" data-name="Path 429" class="cls-2" d="M349.177,331.014h20.289a.481.481,0,0,0,.449-.654l-2.482-4.457a.481.481,0,0,0-.45-.309H346.457a.481.481,0,0,0-.467.6l2.72,4.457A.482.482,0,0,0,349.177,331.014Z" transform="translate(-345.976 -324.764)"/>
              <path id="Path_430" data-name="Path 430" class="cls-5" d="M349.177,330.028h20.289a.481.481,0,0,0,.449-.654l-2.482-4.457a.481.481,0,0,0-.45-.309H346.457a.481.481,0,0,0-.467.6l2.72,4.457A.482.482,0,0,0,349.177,330.028Z" transform="translate(-345.976 -324.608)"/>
            </g>
            <g id="Group_553" data-name="Group 553" transform="translate(124.545)">
              <path id="Path_431" data-name="Path 431" class="cls-2" d="M329.771,331.014H342.2a.482.482,0,0,0,.45-.654l-2.594-4.457a.482.482,0,0,0-.45-.309h-11.82a.481.481,0,0,0-.467.6l1.988,4.457A.481.481,0,0,0,329.771,331.014Z" transform="translate(-327.301 -324.764)"/>
              <path id="Path_432" data-name="Path 432" class="cls-5" d="M329.771,330.028H342.2a.482.482,0,0,0,.45-.654l-2.594-4.457a.482.482,0,0,0-.45-.309h-11.82a.481.481,0,0,0-.467.6l1.988,4.457A.481.481,0,0,0,329.771,330.028Z" transform="translate(-327.301 -324.608)"/>
            </g>
          </g>
          <g id="Group_559" data-name="Group 559" transform="translate(0 25.107)">
            <g id="Group_555" data-name="Group 555">
              <path id="Path_433" data-name="Path 433" class="cls-2" d="M183.8,360.84H169.764c-.453,0-.764-.338-.6-.654l1.859-4.457a.669.669,0,0,1,.6-.309H184.85c.419,0,.726.294.626.6l-1.05,4.457A.639.639,0,0,1,183.8,360.84Z" transform="translate(-169.118 -354.59)"/>
              <path id="Path_434" data-name="Path 434" class="cls-5" d="M183.8,359.854H169.764c-.453,0-.764-.338-.6-.654l1.859-4.457a.669.669,0,0,1,.6-.309H184.85c.419,0,.726.294.626.6l-1.05,4.457A.639.639,0,0,1,183.8,359.854Z" transform="translate(-169.118 -354.434)"/>
            </g>
            <g id="Group_556" data-name="Group 556" transform="translate(21.354)">
              <path id="Path_435" data-name="Path 435" class="cls-2" d="M208.417,360.84H195.132c-.452,0-.764-.338-.6-.654l1.106-4.457a.669.669,0,0,1,.6-.309h13.229c.419,0,.726.294.625.6l-1.049,4.457A.639.639,0,0,1,208.417,360.84Z" transform="translate(-194.486 -354.59)"/>
              <path id="Path_436" data-name="Path 436" class="cls-5" d="M208.417,359.854H195.132c-.452,0-.764-.338-.6-.654l1.106-4.457a.669.669,0,0,1,.6-.309h13.229c.419,0,.726.294.625.6l-1.049,4.457A.639.639,0,0,1,208.417,359.854Z" transform="translate(-194.486 -354.434)"/>
            </g>
            <g id="Group_557" data-name="Group 557" transform="translate(42.198)">
              <path id="Path_437" data-name="Path 437" class="cls-2" d="M337.937,360.84H219.893c-.452,0-.764-.338-.6-.654l.653-4.457a.668.668,0,0,1,.6-.309H336.419c.419,0,.726.294.625.6l1.519,4.457A.639.639,0,0,1,337.937,360.84Z" transform="translate(-219.247 -354.59)"/>
              <path id="Path_438" data-name="Path 438" class="cls-5" d="M337.937,359.854H219.893c-.452,0-.764-.338-.6-.654l.653-4.457a.668.668,0,0,1,.6-.309H336.419c.419,0,.726.294.625.6l1.519,4.457A.639.639,0,0,1,337.937,359.854Z" transform="translate(-219.247 -354.434)"/>
            </g>
            <g id="Group_558" data-name="Group 558" transform="translate(166.026)">
              <path id="Path_439" data-name="Path 439" class="cls-2" d="M368.333,360.84h13.456a.481.481,0,0,0,.449-.654l-1.711-4.457a.482.482,0,0,0-.449-.309H366.831a.481.481,0,0,0-.467.6l1.5,4.457A.481.481,0,0,0,368.333,360.84Z" transform="translate(-366.35 -354.59)"/>
              <path id="Path_440" data-name="Path 440" class="cls-5" d="M368.333,359.854h13.456a.481.481,0,0,0,.449-.654l-1.711-4.457a.482.482,0,0,0-.449-.309H366.831a.481.481,0,0,0-.467.6l1.5,4.457A.481.481,0,0,0,368.333,359.854Z" transform="translate(-366.35 -354.434)"/>
            </g>
          </g>
        </g>
      </g>
      <path id="Path_441" data-name="Path 441" class="cls-3" d="M311.438,389.248H225.018a4.758,4.758,0,0,1-4.694-5.535l1.542-9.313a4.757,4.757,0,0,1,4.694-3.98H309.9a4.757,4.757,0,0,1,4.694,3.98l1.542,9.313A4.758,4.758,0,0,1,311.438,389.248Z" transform="translate(-147.877 -201.658)"/>
      <path id="Path_442" data-name="Path 442" class="cls-5" d="M225.129,370.964h87.738a4.242,4.242,0,0,0-2.2-.544H227.33A4.388,4.388,0,0,0,225.129,370.964Z" transform="translate(-148.648 -201.658)"/>
      <g id="Group_562" data-name="Group 562" transform="translate(177.325 10.777)">
        <circle id="Ellipse_2" data-name="Ellipse 2" class="cls-2" cx="2.178" cy="2.178" r="2.178" transform="translate(0 0)"/>
        <path id="Path_443" data-name="Path 443" class="cls-2" d="M359.076,184.92a2.178,2.178,0,1,1-2.178-2.178A2.178,2.178,0,0,1,359.076,184.92Z" transform="translate(-346.476 -182.742)"/>
        <circle id="Ellipse_3" data-name="Ellipse 3" class="cls-2" cx="2.178" cy="2.178" r="2.178" transform="translate(16.489 0)"/>
      </g>
    </g>
    <g id="Group_571" data-name="Group 571" transform="translate(154.973 116.865)">
      <g id="Group_564" data-name="Group 564" transform="translate(0 70.073)">
        <path id="Path_444" data-name="Path 444" class="cls-7" d="M197.773,216.424a8.345,8.345,0,0,1,2.045-1.971c1.611-1.231,1.788-4.414,4.184-4.422,1.759-.006,1.051,1.737,1.953,5.143.255.961,1.605,2.963,2.043,5.792C208,220.967,205.34,216.268,197.773,216.424Z" transform="translate(-176.028 -207.126)"/>
        <path id="Path_445" data-name="Path 445" class="cls-7" d="M176.82,214.082c-1.493-.976-2.12-6.536-.246-7.362s2.535,2.216,3.211,3.591c.814,1.653,3.541,6.409,6.556,6.081A16.031,16.031,0,0,1,176.82,214.082Z" transform="translate(-172.49 -206.58)"/>
        <path id="Path_446" data-name="Path 446" class="cls-7" d="M180.364,210.589s-.4-2.125,1.572-2.246,2.12,4.005,3.969,5.829a8.925,8.925,0,0,0,3.277,2.248l-2.562.265S184.236,217.474,180.364,210.589Z" transform="translate(-173.268 -206.858)"/>
        <path id="Path_447" data-name="Path 447" class="cls-8" d="M188.816,230.925s-.753-4.049-.985-4.955-.379-1.292-2.715-1.688a32.714,32.714,0,0,1-10.559-5.078c-2.371-1.972-3.112-4.536-2.3-5.849s3.348,1.64,6.155,2.732a17.281,17.281,0,0,0,8.3,1.076c2.505-.327,9.508-1.1,13.1.556s5.227,4.027,4.422,7.179-1.439,7.409-1.439,7.409Z" transform="translate(-171.94 -207.6)"/>
      </g>
      <path id="Path_448" data-name="Path 448" class="cls-9" d="M234.777,232.762c-3.781,1.93-5.143,4.041-9.557,12.083-4.426,8.066-11.728,27.142-11.728,27.142L206.8,235.543l-16.9-1.669s.171,37.627.635,46.846c.466,9.267,5.885,18.78,14.895,19.724,9.042.946,25.166-16.139,25.166-16.139a138.833,138.833,0,0,0,4.854-18.2C236.916,257.686,234.777,232.762,234.777,232.762Z" transform="translate(-174.782 -140.649)"/>
      <path id="Path_449" data-name="Path 449" class="cls-9" d="M252.963,225.735s-10.036,4.315-11.174,5.388-6.169,18.105-7.3,24.7c-1.13,6.616,1.339,13.305,5.014,14.777l-5.116,28.28h65.161s.1-56.138.169-58.852-.1-5.294-4.653-8.118-11.121-4.967-16.19-9.507c0,0-11.949,13.467-17.475,13.482S252.963,225.735,252.963,225.735Z" transform="translate(-181.794 -139.011)"/>
      <path id="Path_450" data-name="Path 450" class="cls-10" d="M236.587,248.638s-3.044,10.3-3.031,12.761-.317,10.475,5.289,13.353l-2.351,12.993-2.939,2.419s2.091-11.846.853-13.5-5.808-6.9-3.924-13.778A72.861,72.861,0,0,1,236.587,248.638Z" transform="translate(-181.132 -143.161)"/>
      <g id="Group_565" data-name="Group 565" transform="translate(71.116 60.088)">
        <path id="Path_451" data-name="Path 451" class="cls-8" d="M281.649,194.718s-2.029,15.038-.257,21.961c0,0-7.546,11.356-15.585,10.606-8.015-.747-4.6-9.511-4.6-9.511s1.258-5.416.873-9a56.955,56.955,0,0,0,10.836-3.895C278.216,202.267,281.649,194.718,281.649,194.718Z" transform="translate(-257.066 -194.718)"/>
        <path id="Path_452" data-name="Path 452" class="cls-8" d="M260.3,222.726s-2.791,2.033-3.828,2.756c0,0-.61,20.545,2.311,21.3s16.676-15.96,19.491-19.3a60.624,60.624,0,0,0,4.114-5.335l-1.642-1.344s-8.6,8.814-15.249,7.932C258.87,227.859,260.3,222.726,260.3,222.726Z" transform="translate(-256.423 -198.846)"/>
      </g>
      <path id="Path_453" data-name="Path 453" class="cls-9" d="M305.045,232.976c4.06,1.757,5.686,3.818,11.1,11.724,5.451,7.955,15.146,26.988,15.146,26.988l2.711-37.3,17.361-2.552s4.2,38.46,4.786,47.906c.591,9.5-3.968,19.386-13.236,20.608-9.246,1.219-34-18.406-34-18.406a73.04,73.04,0,0,1-3.87-16.188C303.91,257.068,305.045,232.976,305.045,232.976Z" transform="translate(-192.92 -140.504)"/>
      <path id="Path_454" data-name="Path 454" class="cls-11" d="M262.337,210.639s8.393.443,13.695-4.116c0,0-5.736,8.561-13.949,9.7,0,0,.276-2.056.3-3.056S262.337,210.639,262.337,210.639Z" transform="translate(-186.203 -136.498)"/>
      <path id="Path_455" data-name="Path 455" class="cls-12" d="M313.826,139.141A15.993,15.993,0,0,1,298.3,156.3a17.074,17.074,0,0,1-17.548-15.95,16,16,0,0,1,15.446-17A17.079,17.079,0,0,1,313.826,139.141Z" transform="translate(-189.152 -123.337)"/>
      <path id="Path_456" data-name="Path 456" class="cls-8" d="M267.4,150.273c-7.487-.37-16.923,4.976-19.577,20.254-2.674,15.4-2.943,29.348,8.134,30.909,11.128,1.568,21.37-2.844,23.447-13.752C281.466,176.832,284.536,151.122,267.4,150.273Z" transform="translate(-183.702 -127.595)"/>
      <path id="Path_457" data-name="Path 457" class="cls-12" d="M274.116,148.328c-9.961.13-24.253.237-28.588,4.756a16.945,16.945,0,0,0-4.6,10.739c-.136,1.1.28,2.582,3.529,2.812s8.867-3.046,10.8-6.225c0,0-.726,5.156,2.817,6.507s10.074,1.139,12.594,1.424,3.931-5.286,4.165-7.866c0,0-.557,13.515,3.162,14.3,0,0-1.619,11.92.556,12.6s7.693-1.349,11.365-7.983c3.663-6.618,2.521-18.415,1.082-22.783S283.716,148.2,274.116,148.328Z" transform="translate(-182.851 -127.29)"/>
      <path id="Path_458" data-name="Path 458" class="cls-2" d="M251.194,194.641l12.755.7s-2.262,4.568-7.111,4.151A6.192,6.192,0,0,1,251.194,194.641Z" transform="translate(-184.48 -134.618)"/>
      <path id="Path_459" data-name="Path 459" class="cls-13" d="M258.9,180.872c-1.12,2.019-2.886,6.356-2.061,7.441s2.489.59,2.489.59" transform="translate(-185.339 -132.44)"/>
      <g id="Group_566" data-name="Group 566" transform="translate(78.588 45.276)">
        <path id="Path_460" data-name="Path 460" class="cls-12" d="M267.836,182.033c-.056,1.12-.6,1.993-1.2,1.947s-1.057-.99-1-2.11.6-1.989,1.2-1.945S267.891,180.913,267.836,182.033Z" transform="translate(-265.351 -177.566)"/>
        <path id="Path_461" data-name="Path 461" class="cls-14" d="M265.3,177.438a3.2,3.2,0,0,1,3.628.62" transform="translate(-265.3 -177.123)"/>
      </g>
      <g id="Group_567" data-name="Group 567" transform="translate(67.054 20.04)">
        <path id="Path_462" data-name="Path 462" class="cls-5" d="M296.057,182.679c-.844,6.067-5.424,10.393-10.219,9.648s-7.951-6.254-7.083-12.3c.865-6.022,5.418-10.31,10.18-9.593S296.9,176.63,296.057,182.679Z" transform="translate(-255.872 -150.816)"/>
        <path id="Path_463" data-name="Path 463" class="cls-15" d="M296.5,182.716c-.844,6.067-4.892,10.476-9.03,9.833s-6.773-6.075-5.909-12.118c.862-6.026,4.887-10.4,9-9.776S297.34,176.668,296.5,182.716Z" transform="translate(-256.312 -150.854)"/>
        <path id="Path_464" data-name="Path 464" class="cls-16" d="M284.232,167.148s0-18.06-15.747-18.808l-5.812.378a19.321,19.321,0,0,1,10.707-1.381c6.446.855,10.977,5.085,12.232,8.829s.8,10.6.8,10.6A2.878,2.878,0,0,1,284.232,167.148Z" transform="translate(-253.35 -147.143)"/>
        <path id="Path_465" data-name="Path 465" class="cls-16" d="M282.182,195.692s-.547,4.6-.956,6.787-3.409,3-7.925,2.872-8.462-.465-8.462-.465-.844-2.349,1.643-2.42c0,0,8.515.733,10.7.672s2.505-4.536,2.634-8.92C279.816,194.219,281.243,193.524,282.182,195.692Z" transform="translate(-253.671 -154.574)"/>
        <path id="Path_466" data-name="Path 466" class="cls-16" d="M255.458,201.468c3.368.322,8.385.439,8.95,2.157s-.246,3.318-3.718,3.5a35.426,35.426,0,0,1-7.89-.795C251.561,206.157,249.993,200.946,255.458,201.468Z" transform="translate(-251.598 -155.732)"/>
      </g>
      <g id="Group_568" data-name="Group 568" transform="translate(67.054 44.894)">
        <path id="Path_467" data-name="Path 467" class="cls-12" d="M254.134,181.579c-.056,1.12-.6,1.992-1.2,1.947s-1.057-.99-1-2.11.6-1.989,1.2-1.945S254.189,180.459,254.134,181.579Z" transform="translate(-251.649 -177.112)"/>
        <path id="Path_468" data-name="Path 468" class="cls-14" d="M251.6,176.984a3.2,3.2,0,0,1,3.628.62" transform="translate(-251.598 -176.668)"/>
      </g>
      <path id="Path_469" data-name="Path 469" class="cls-10" d="M310.956,292.752l-1.8-1.387-3.074,18.461,4.837-.034Z" transform="translate(-193.164 -149.921)"/>
      <g id="Group_570" data-name="Group 570" transform="translate(139.518 66.922)">
        <g id="Group_569" data-name="Group 569" transform="translate(0.29)">
          <path id="Path_470" data-name="Path 470" class="cls-7" d="M369.586,210.5c1.455-1.085,1.465-6.818-.6-7.554s-2.4,2.418-2.951,3.864c-.662,1.739-2.965,6.754-6.155,6.588A16.549,16.549,0,0,0,369.586,210.5Z" transform="translate(-341.483 -202.837)"/>
          <path id="Path_471" data-name="Path 471" class="cls-7" d="M365.584,207.142s.173-2.2-1.909-2.206-1.753,4.218-3.475,6.186a8.637,8.637,0,0,1-3.16,2.478l2.7.129S362.33,214.4,365.584,207.142Z" transform="translate(-341.034 -203.169)"/>
          <path id="Path_472" data-name="Path 472" class="cls-7" d="M348.093,214.078a9.4,9.4,0,0,0-2.351-1.893c-1.813-1.162-2.365-4.389-4.846-4.259-1.82.094-.887,1.824-1.427,5.335-.152.991-1.317,3.1-1.443,5.994C338.026,219.255,340.231,214.338,348.093,214.078Z" transform="translate(-338.026 -203.642)"/>
        </g>
        <path id="Path_473" data-name="Path 473" class="cls-8" d="M354.8,228.551s.315-4.171.452-5.109.245-1.339,2.64-1.867a32.3,32.3,0,0,0,10.484-5.769c2.268-2.155,2.748-4.827,1.737-6.126s-3.332,1.872-6.154,3.149a18.076,18.076,0,0,1-8.565,1.562c-2.651-.194-10.022-.593-13.549,1.29s-4.937,4.373-3.744,7.531,2.342,7.451,2.342,7.451Z" transform="translate(-337.682 -203.871)"/>
      </g>
    </g>
    <g id="Group_574" data-name="Group 574" transform="translate(149.89 82.431)">
      <path id="Path_474" data-name="Path 474" class="cls-4" d="M239.561,88.124a5.693,5.693,0,0,0-5.693-5.693H171.6a5.693,5.693,0,0,0-5.694,5.693v28.265a5.693,5.693,0,0,0,5.694,5.694h57.9l10.066,8.613Z" transform="translate(-165.902 -82.431)"/>
      <path id="Path_475" data-name="Path 475" class="cls-5" d="M165.9,90.6h73.659V88.057a5.625,5.625,0,0,0-5.625-5.626H171.528a5.626,5.626,0,0,0-5.626,5.626Z" transform="translate(-165.902 -82.431)"/>
      <g id="Group_572" data-name="Group 572" transform="translate(55.29 2.6)">
        <path id="Path_476" data-name="Path 476" class="cls-2" d="M234.464,86.959a1.44,1.44,0,1,1-1.439-1.439A1.44,1.44,0,0,1,234.464,86.959Z" transform="translate(-231.584 -85.52)"/>
        <circle id="Ellipse_4" data-name="Ellipse 4" class="cls-2" cx="1.44" cy="1.44" r="1.44" transform="translate(5.584)"/>
        <circle id="Ellipse_5" data-name="Ellipse 5" class="cls-2" cx="1.44" cy="1.44" r="1.44" transform="translate(11.167 0)"/>
      </g>
      <rect id="Rectangle_140" data-name="Rectangle 140" class="cls-12" width="19.937" height="22.159" transform="translate(4.43 12.274)"/>
      <g id="Group_573" data-name="Group 573" transform="translate(29.286 12.939)">
        <path id="Path_477" data-name="Path 477" class="cls-12" d="M239.1,99.667H201.625a.933.933,0,0,1-.933-.933h0a.932.932,0,0,1,.933-.932H239.1a.932.932,0,0,1,.932.932h0A.932.932,0,0,1,239.1,99.667Z" transform="translate(-200.692 -97.802)"/>
        <path id="Path_478" data-name="Path 478" class="cls-12" d="M239.1,106.141H201.625a.932.932,0,0,1-.933-.932h0a.933.933,0,0,1,.933-.933H239.1a.932.932,0,0,1,.932.933h0A.932.932,0,0,1,239.1,106.141Z" transform="translate(-200.692 -98.826)"/>
        <path id="Path_479" data-name="Path 479" class="cls-12" d="M215.451,112.616H201.625a.933.933,0,0,1-.933-.933h0a.932.932,0,0,1,.933-.932h13.826a.932.932,0,0,1,.933.932h0A.933.933,0,0,1,215.451,112.616Z" transform="translate(-200.692 -99.851)"/>
        <path id="Path_480" data-name="Path 480" class="cls-12" d="M241.583,119.09H217.294a.932.932,0,0,1-.932-.932h0a.932.932,0,0,1,.932-.933h24.289a.932.932,0,0,1,.932.933h0A.932.932,0,0,1,241.583,119.09Z" transform="translate(-203.171 -100.875)"/>
      </g>
    </g>
    <g id="Group_575" data-name="Group 575" transform="translate(297.338 96.431)">
      <path id="Path_481" data-name="Path 481" class="cls-4" d="M401.762,99.062H346.456a5.393,5.393,0,0,0-5.393,5.392v38.52l11.5-9.079h49.2a5.393,5.393,0,0,0,5.393-5.392V104.454A5.393,5.393,0,0,0,401.762,99.062Z" transform="translate(-341.063 -99.062)"/>
      <path id="Path_482" data-name="Path 482" class="cls-12" d="M401.645,110.195H348.824a.932.932,0,0,1-.932-.933h0a.932.932,0,0,1,.932-.932h52.821a.932.932,0,0,1,.932.932h0A.932.932,0,0,1,401.645,110.195Z" transform="translate(-342.143 -100.528)"/>
      <path id="Path_483" data-name="Path 483" class="cls-12" d="M401.645,117.072H348.824a.932.932,0,0,1-.932-.933h0a.932.932,0,0,1,.932-.932h52.821a.932.932,0,0,1,.932.932h0A.932.932,0,0,1,401.645,117.072Z" transform="translate(-342.143 -101.616)"/>
      <path id="Path_484" data-name="Path 484" class="cls-12" d="M401.645,123.948H348.824a.932.932,0,0,1-.932-.932h0a.932.932,0,0,1,.932-.933h52.821a.932.932,0,0,1,.932.933h0A.932.932,0,0,1,401.645,123.948Z" transform="translate(-342.143 -102.704)"/>
      <path id="Path_485" data-name="Path 485" class="cls-12" d="M374.768,130.825H348.824a.932.932,0,0,1-.932-.932h0a.932.932,0,0,1,.932-.933h25.945a.932.932,0,0,1,.932.933h0A.932.932,0,0,1,374.768,130.825Z" transform="translate(-342.143 -103.792)"/>
    </g>
    <g id="Group_576" data-name="Group 576" transform="translate(163.206 144.233)">
      <path id="Path_486" data-name="Path 486" class="cls-17" d="M181.721,165.161c0-.246,2.119-9.312,13.106-9.312,7.391,0,13.994,4.828,13.994,11.776,0,4.828-3.6,7.785-8.327,9.805-1.675.739-1.725,2.119-1.725,3.745v2.759h-8.13v-5.371c0-2.168.1-3.941,2.316-5.37,3.006-1.922,5.814-2.07,5.814-5.568a3.926,3.926,0,0,0-3.991-4.041c-3.547,0-5.272,2.957-5.814,5.075Zm18.624,27.2a5.642,5.642,0,1,1-5.666-5.666A5.625,5.625,0,0,1,200.345,192.359Z" transform="translate(-181.721 -155.849)"/>
    </g>
    <g id="Group_577" data-name="Group 577" transform="translate(64.699 162.141)">
      <path id="Path_487" data-name="Path 487" class="cls-4" d="M140.053,177.123H69.317a4.618,4.618,0,0,0-4.618,4.618v20.986a4.619,4.619,0,0,0,4.618,4.619H137.77l6.9,8.276V181.741A4.618,4.618,0,0,0,140.053,177.123Z" transform="translate(-64.699 -177.123)"/>
      <path id="Rectangle_141" data-name="Rectangle 141" class="cls-5" d="M5.259,0H74.714a5.259,5.259,0,0,1,5.259,5.259V6.414a0,0,0,0,1,0,0H0a0,0,0,0,1,0,0V5.259A5.259,5.259,0,0,1,5.259,0Z"/>
      <path id="Path_488" data-name="Path 488" class="cls-12" d="M139,192.805H72.033a1.129,1.129,0,0,1-1.13-1.13h0a1.129,1.129,0,0,1,1.13-1.13H139a1.129,1.129,0,0,1,1.13,1.13h0A1.13,1.13,0,0,1,139,192.805Z" transform="translate(-65.681 -179.246)"/>
      <path id="Path_489" data-name="Path 489" class="cls-12" d="M139,198.919H72.033a1.129,1.129,0,0,1-1.13-1.13h0a1.129,1.129,0,0,1,1.13-1.13H139a1.13,1.13,0,0,1,1.13,1.13h0A1.13,1.13,0,0,1,139,198.919Z" transform="translate(-65.681 -180.214)"/>
      <path id="Path_490" data-name="Path 490" class="cls-12" d="M139,205.033H72.033a1.129,1.129,0,0,1-1.13-1.13h0a1.129,1.129,0,0,1,1.13-1.13H139a1.13,1.13,0,0,1,1.13,1.13h0A1.13,1.13,0,0,1,139,205.033Z" transform="translate(-65.681 -181.181)"/>
    </g>
    <g id="Group_580" data-name="Group 580" transform="translate(101.931 215.411)">
      <g id="Group_578" data-name="Group 578">
        <rect id="Rectangle_142" data-name="Rectangle 142" class="cls-18" width="60.095" height="25.702" rx="5.174"/>
        <rect id="Rectangle_143" data-name="Rectangle 143" class="cls-19" width="57.649" height="25.702" rx="5.067" transform="translate(2.447)"/>
        <path id="Path_491" data-name="Path 491" class="cls-20" d="M111.836,245.473s13.322,21.436,47.964,21.436H115.9a4.068,4.068,0,0,1-4.067-4.068Z" transform="translate(-109.389 -241.207)"/>
        <path id="Path_492" data-name="Path 492" class="cls-21" d="M163.21,240.406l9.808,1.987a4.051,4.051,0,0,1,2.98,4.016V265.18a4.281,4.281,0,0,0,1.615-3.338V244.671s-.212-4.265-4.265-4.265Z" transform="translate(-117.517 -240.406)"/>
      </g>
      <g id="Group_579" data-name="Group 579" transform="translate(11.461 6.905)">
        <path id="Path_493" data-name="Path 493" class="cls-2" d="M122.544,260V248.608h2.3v4.484h4.507v-4.484h2.3V260h-2.3v-4.981h-4.507V260Z" transform="translate(-122.544 -248.608)"/>
        <path id="Path_494" data-name="Path 494" class="cls-2" d="M136.187,260V248.608h8.446v1.927h-6.147v2.525h5.719v1.92h-5.719v3.1h6.364V260Z" transform="translate(-124.703 -248.608)"/>
        <path id="Path_495" data-name="Path 495" class="cls-2" d="M148.87,260.017v-11.3h2.3V258.1h5.719v1.92Z" transform="translate(-126.709 -248.626)"/>
        <path id="Path_496" data-name="Path 496" class="cls-2" d="M160.344,260V248.608h3.69a13.4,13.4,0,0,1,2.735.171,2.988,2.988,0,0,1,1.64,1.115,3.539,3.539,0,0,1,.661,2.22,3.706,3.706,0,0,1-.381,1.763,3.11,3.11,0,0,1-.967,1.123,3.338,3.338,0,0,1-1.193.54,13.143,13.143,0,0,1-2.386.163h-1.5V260Zm2.3-9.465v3.232H163.9a5.936,5.936,0,0,0,1.818-.178,1.506,1.506,0,0,0,.719-.56,1.53,1.53,0,0,0,.26-.886,1.465,1.465,0,0,0-.365-1.025,1.59,1.59,0,0,0-.924-.506,11.134,11.134,0,0,0-1.655-.077Z" transform="translate(-128.525 -248.608)"/>
      </g>
    </g>
    <g id="Group_582" data-name="Group 582" transform="translate(101.652 248.954)">
      <path id="Rectangle_144" data-name="Rectangle 144" class="cls-12" d="M4.637,0H38.59a4.637,4.637,0,0,1,4.637,4.637V75.459A4.637,4.637,0,0,1,38.59,80.1H4.636A4.636,4.636,0,0,1,0,75.459V4.637A4.637,4.637,0,0,1,4.637,0Z" transform="translate(0)"/>
      <rect id="Rectangle_145" data-name="Rectangle 145" class="cls-4" width="34.058" height="66.069" transform="translate(4.584 4.636)"/>
      <path id="Path_497" data-name="Path 497" class="cls-22" d="M114.043,354.155s34.059-25.938,34.059-53.7v53.7Z" transform="translate(-109.459 -283.449)"/>
      <path id="Path_498" data-name="Path 498" class="cls-23" d="M136.808,369.324a3.121,3.121,0,1,1-3.121-3.121A3.121,3.121,0,0,1,136.808,369.324Z" transform="translate(-112.073 -293.851)"/>
      <circle id="Ellipse_6" data-name="Ellipse 6" class="cls-19" cx="11.563" cy="11.563" r="11.563" transform="translate(10.05 13.158)"/>
      <path id="Path_499" data-name="Path 499" class="cls-17" d="M126.527,352.164a4.02,4.02,0,1,1-4.02-4.021A4.02,4.02,0,0,1,126.527,352.164Z" transform="translate(-110.162 -290.994)"/>
      <path id="Path_500" data-name="Path 500" class="cls-9" d="M149.4,352.164a4.021,4.021,0,1,1-4.021-4.021A4.021,4.021,0,0,1,149.4,352.164Z" transform="translate(-113.782 -290.994)"/>
      <g id="Group_581" data-name="Group 581" transform="translate(12.683 10.839)">
        <path id="Path_501" data-name="Path 501" class="cls-2" d="M123.665,299.266c0-.162,1.4-6.137,8.638-6.137,4.871,0,9.223,3.183,9.223,7.761,0,3.182-2.37,5.131-5.488,6.462-1.1.487-1.137,1.4-1.137,2.468v1.818h-5.358V308.1c0-1.428.065-2.6,1.526-3.54,1.981-1.266,3.832-1.364,3.832-3.669a2.587,2.587,0,0,0-2.63-2.663,4.085,4.085,0,0,0-3.833,3.345Zm12.275,17.926a3.719,3.719,0,1,1-3.735-3.735A3.707,3.707,0,0,1,135.94,317.192Z" transform="translate(-123.665 -293.129)"/>
      </g>
    </g>
    <g id="Group_583" data-name="Group 583" transform="translate(281.407 213.286)">
      <path id="Path_502" data-name="Path 502" class="cls-12" d="M404.891,329.384h0a4.771,4.771,0,0,1-6.725-.543l-27.839-32.734,7.269-6.182,27.839,32.734A4.772,4.772,0,0,1,404.891,329.384Z" transform="translate(-329.763 -246.115)"/>
      <path id="Path_503" data-name="Path 503" class="cls-23" d="M408.442,333.561h0a4.771,4.771,0,0,1-6.725-.543L392.775,322.5l7.269-6.181,8.942,10.515A4.772,4.772,0,0,1,408.442,333.561Z" transform="translate(-333.314 -250.291)"/>
      <path id="Path_504" data-name="Path 504" class="cls-23" d="M379.741,292.448a13.618,13.618,0,0,1-3.078,3.744,15.16,15.16,0,0,1-4.191,2.437l-2.145-2.522,7.269-6.182Z" transform="translate(-329.763 -246.115)"/>
      <circle id="Ellipse_7" data-name="Ellipse 7" class="cls-24" cx="20.545" cy="20.545" r="20.545" transform="translate(0 32.402) rotate(-52.053)"/>
      <path id="Path_505" data-name="Path 505" class="cls-12" d="M371.074,250.75a25.586,25.586,0,1,0-2.915,36.066A25.586,25.586,0,0,0,371.074,250.75Zm-6.181,32.226a20.545,20.545,0,1,1,2.341-28.961A20.545,20.545,0,0,1,364.892,282.976Z" transform="translate(-322.749 -238.491)"/>
      <path id="Path_506" data-name="Path 506" class="cls-24" d="M343.477,254.466c-3.086,1.985-5.429,6.11-4.681,7.965s3.812,1.164,8.359-2.664,7.505-2.3,9.748-4.155S351.768,249.132,343.477,254.466Z" transform="translate(-324.752 -240.111)"/>
      <path id="Path_507" data-name="Path 507" class="cls-24" d="M364.918,256.695c-1.108,1.821.828,4.156,3.276,6.225s5.516-.375,3.868-3.29S366.441,254.191,364.918,256.695Z" transform="translate(-328.856 -240.695)"/>
    </g>
    <g id="Group_585" data-name="Group 585" transform="translate(292.431 142.58)">
      <path id="Path_508" data-name="Path 508" class="cls-12" d="M359.714,196.884H347a.705.705,0,0,0-.705.705v3.785a7.061,7.061,0,0,0,5.674,6.923v1.08a1.458,1.458,0,1,0,2.917,0v-1.113a7.062,7.062,0,0,0,5.531-6.89v-3.785A.705.705,0,0,0,359.714,196.884Z" transform="translate(-336.985 -160.688)"/>
      <path id="Path_509" data-name="Path 509" class="cls-19" d="M368.042,170.289a16.4,16.4,0,1,0-32.808,0c0,5.681,3.226,10.237,7.276,13.629a7.735,7.735,0,0,1,2.891,6.163h12.474a7.735,7.735,0,0,1,2.891-6.163C364.816,180.526,368.042,175.97,368.042,170.289Z" transform="translate(-335.234 -153.885)"/>
      <rect id="Rectangle_146" data-name="Rectangle 146" class="cls-23" width="14.122" height="1.969" transform="translate(9.313 38.125)"/>
      <g id="Group_584" data-name="Group 584" transform="translate(8.066 16.53)">
        <line id="Line_1" data-name="Line 1" class="cls-25" x2="2.627" y2="14.45" transform="translate(3.091 5.216)"/>
        <line id="Line_2" data-name="Line 2" class="cls-25" x1="2.627" y2="14.45" transform="translate(10.459 5.216)"/>
        <path id="Path_510" data-name="Path 510" class="cls-25" d="M344.816,178.707a4.217,4.217,0,0,0,3.159,2.05c2.049.085,3.586-1.662,4.184-2.795s.157-3.979-1.715-3.88-2.469,3-.847,4.711,4.453,2.817,7.222-.513-.072-5.84-1.6-4.286-1.1,6.421,4.963,6.079" transform="translate(-344.816 -173.522)"/>
      </g>
    </g>
  </g>
</svg>
