<svg xmlns="http://www.w3.org/2000/svg" width="952.926" height="697.54" viewBox="0 0 952.926 697.54">
  <g id="Group_78" data-name="Group 78" transform="translate(-111 -212.23)">
    <g id="Group_28" data-name="Group 28">
      <g id="Group_4" data-name="Group 4">
        <g id="Group_1" data-name="Group 1">
          <path id="Path_1" data-name="Path 1" d="M814.341,860.294a68.239,68.239,0,0,0,2.335-14.462l-10.748-4.6a60.757,60.757,0,0,0-.951-9.156l9.6-6.691a67.237,67.237,0,0,0-2.252-6.994,63.488,63.488,0,0,0-2.977-6.7l-11.6,1.4a57.3,57.3,0,0,0-5.39-7.475l4.959-10.582a68.826,68.826,0,0,0-11.361-9.249l-9.379,7.03a57.284,57.284,0,0,0-8.378-3.765l-1.01-11.681a66.734,66.734,0,0,0-14.439-2.294L748.113,785.8a56.977,56.977,0,0,0-9.138.963l-6.691-9.59a63.993,63.993,0,0,0-6.994,2.225,69.24,69.24,0,0,0-6.69,2.968L719.99,794a57.547,57.547,0,0,0-7.469,5.38l-10.594-4.949a67.453,67.453,0,0,0-9.237,11.34l7.026,9.382a57.411,57.411,0,0,0-3.761,8.378l-11.676,1.01a68.45,68.45,0,0,0-2.32,14.46l10.752,4.593a58.066,58.066,0,0,0,.948,9.162l-9.6,6.694a63.239,63.239,0,0,0,2.24,6.97,67.752,67.752,0,0,0,2.971,6.708l11.631-1.384a59.3,59.3,0,0,0,5.374,7.457l-4.946,10.6a67.116,67.116,0,0,0,11.34,9.225l9.382-7.012a55.557,55.557,0,0,0,8.4,3.761l1,11.67A68.315,68.315,0,0,0,745.9,909.77l4.593-10.746a57.091,57.091,0,0,0,9.15-.963l6.718,9.6a66.4,66.4,0,0,0,6.975-2.222,65.176,65.176,0,0,0,6.694-3l-1.391-11.607a57.6,57.6,0,0,0,7.467-5.384l10.6,4.956a67.307,67.307,0,0,0,9.222-11.352l-7.015-9.391a57.09,57.09,0,0,0,3.767-8.366Zm-65.022,8.94a26.814,26.814,0,1,1,26.816-26.813A26.808,26.808,0,0,1,749.319,869.234Z" fill="#767676"/>
        </g>
        <g id="Group_2" data-name="Group 2">
          <path id="Path_2" data-name="Path 2" d="M749.319,805.13a37.291,37.291,0,1,0,37.292,37.291A37.289,37.289,0,0,0,749.319,805.13Zm0,58.061a20.768,20.768,0,1,1,20.767-20.77A20.769,20.769,0,0,1,749.319,863.191Z" fill="#1a1a1e"/>
        </g>
        <g id="Group_3" data-name="Group 3">
          <path id="Path_3" data-name="Path 3" d="M749.319,815.225a27.2,27.2,0,1,0,27.2,27.2A27.2,27.2,0,0,0,749.319,815.225Zm0,45.028a17.831,17.831,0,1,1,17.826-17.832A17.832,17.832,0,0,1,749.319,860.253Z" fill="#ccc"/>
        </g>
      </g>
      <g id="Group_8" data-name="Group 8">
        <g id="Group_5" data-name="Group 5">
          <path id="Path_4" data-name="Path 4" d="M573.588,650.576a88.226,88.226,0,1,0,108.95-60.8A88.32,88.32,0,0,0,573.588,650.576Zm137.139,7.9a53.832,53.832,0,1,1-103.8,28.545c-7.273-27.439,9.064-56.816,36.192-65.167A53.852,53.852,0,0,1,710.727,658.472Z" fill="#767676"/>
        </g>
        <g id="Group_6" data-name="Group 6">
          <path id="Path_5" data-name="Path 5" d="M792.095,724.035a143.428,143.428,0,0,0,7.522-30.03l-21.774-11.622a125.486,125.486,0,0,0-.389-19.442l21.427-12.357a147.295,147.295,0,0,0-3.459-15.131,137.1,137.1,0,0,0-5.092-14.628l-24.682.858a120.973,120.973,0,0,0-9.995-16.7L768,583.608a144.568,144.568,0,0,0-22.238-21.522l-21.01,13.1a121.414,121.414,0,0,0-16.961-9.43l-.021-24.769a141.744,141.744,0,0,0-29.983-7.436l-11.658,21.75a120.431,120.431,0,0,0-19.4.387L634.356,534.3a133.939,133.939,0,0,0-15.122,3.422,144.68,144.68,0,0,0-14.618,5.045l.821,24.724a122.18,122.18,0,0,0-16.68,9.988l-21.381-12.335a142.75,142.75,0,0,0-21.5,22.211l13.084,21.007a122.945,122.945,0,0,0-9.406,16.959l-24.745.032a143.577,143.577,0,0,0-7.5,30.007l21.816,11.61a123.251,123.251,0,0,0,.324,19.46l-21.4,12.347a135.352,135.352,0,0,0,3.44,15.084,145.981,145.981,0,0,0,5.063,14.658l24.73-.835a121.759,121.759,0,0,0,9.985,16.667l-12.332,21.412a141.19,141.19,0,0,0,22.2,21.459l21.031-13.057a116.146,116.146,0,0,0,16.97,9.409l0,24.757a144.852,144.852,0,0,0,30.01,7.495l11.6-21.8a118.5,118.5,0,0,0,19.436-.365L682.6,815.083a136.9,136.9,0,0,0,15.065-3.432,140.371,140.371,0,0,0,14.638-5.092l-.844-24.692a121.921,121.921,0,0,0,16.685-9.982l21.406,12.338a140.161,140.161,0,0,0,21.453-22.228l-13.066-21.034a119.856,119.856,0,0,0,9.432-16.932ZM633.334,763.216a92.05,92.05,0,1,1,113.689-63.421A92.144,92.144,0,0,1,633.334,763.216Z" fill="#1a1a1e"/>
        </g>
        <g id="Group_7" data-name="Group 7">
          <path id="Path_6" data-name="Path 6" d="M569.916,649.536A92.05,92.05,0,1,0,683.59,586.109,92.144,92.144,0,0,0,569.916,649.536Zm173.42,49.216a88.226,88.226,0,1,1-60.8-108.974A88.317,88.317,0,0,1,743.336,698.752Z" fill="#ccc"/>
        </g>
      </g>
      <g id="Group_27" data-name="Group 27">
        <g id="Group_12" data-name="Group 12">
          <g id="Group_9" data-name="Group 9">
            <path id="Path_7" data-name="Path 7" d="M627.095,704.038a141.864,141.864,0,1,0-242.97-3.343,4.773,4.773,0,0,0,.261.7c36.787,62.514,47.313,80.37,50.64,85.857.271.448.731,1.387,1.287,2.418l.849,8.975h2.193a.821.821,0,0,0,.576.137l.371-.137H572.726l.372.137a.815.815,0,0,0,.579-.137h2.383l.986-9.575c.4-.781.743-1.459.966-1.818C581.289,781.838,591.574,764.386,627.095,704.038Z" fill="#ccc"/>
          </g>
          <g id="Group_11" data-name="Group 11">
            <g id="Group_10" data-name="Group 10">
              <path id="Path_8" data-name="Path 8" d="M618.922,640.932a8.872,8.872,0,0,1-8.872-8.872A103.558,103.558,0,0,0,506.605,528.63a8.867,8.867,0,0,1,0-17.733A121.307,121.307,0,0,1,627.778,632.06,8.867,8.867,0,0,1,618.922,640.932Z" fill="#fff"/>
            </g>
          </g>
        </g>
        <g id="Group_13" data-name="Group 13">
          <path id="Path_9" data-name="Path 9" d="M518.866,908.988h-24.5a36.074,36.074,0,0,1-36.073-36.073V826.88a4.679,4.679,0,0,1,4.679-4.673h87.289a4.679,4.679,0,0,1,4.679,4.673v46.035A36.076,36.076,0,0,1,518.866,908.988Z" fill="#1a1a1e"/>
        </g>
        <g id="Group_16" data-name="Group 16">
          <g id="Group_14" data-name="Group 14">
            <path id="Path_10" data-name="Path 10" d="M488.387,806.7h-.175a8.84,8.84,0,0,1-8.845-8.839v-126.8a8.845,8.845,0,0,1,8.845-8.841h.175a8.84,8.84,0,0,1,8.848,8.841v126.8A8.835,8.835,0,0,1,488.387,806.7Z" fill="#1a1a1e"/>
          </g>
          <g id="Group_15" data-name="Group 15">
            <path id="Rectangle_1" data-name="Rectangle 1" d="M8.844,0h.178a8.841,8.841,0,0,1,8.841,8.841v126.8a8.841,8.841,0,0,1-8.841,8.841H8.842A8.842,8.842,0,0,1,0,135.639V8.844A8.844,8.844,0,0,1,8.844,0Z" transform="translate(515.993 662.216)" fill="#1a1a1e"/>
          </g>
        </g>
        <g id="Group_17" data-name="Group 17">
          <path id="Path_11" data-name="Path 11" d="M568.282,824.848H444.934a14.428,14.428,0,0,1-14.421-14.43v-.285A14.433,14.433,0,0,1,444.934,795.7H568.282a14.426,14.426,0,0,1,14.427,14.433v.285A14.422,14.422,0,0,1,568.282,824.848Z" fill="#767676"/>
        </g>
        <g id="Group_18" data-name="Group 18">
          <path id="Path_12" data-name="Path 12" d="M568.282,848.125H444.934a14.434,14.434,0,0,1-14.421-14.432v-.286a14.432,14.432,0,0,1,14.421-14.432H568.282a14.425,14.425,0,0,1,14.427,14.432v.286A14.427,14.427,0,0,1,568.282,848.125Z" fill="#767676"/>
        </g>
        <g id="Group_19" data-name="Group 19">
          <path id="Path_13" data-name="Path 13" d="M568.282,871.394H444.934a14.427,14.427,0,0,1-14.421-14.424v-.294a14.429,14.429,0,0,1,14.421-14.424H568.282a14.422,14.422,0,0,1,14.427,14.424v.294A14.42,14.42,0,0,1,568.282,871.394Z" fill="#767676"/>
        </g>
        <g id="Group_26" data-name="Group 26">
          <g id="Group_21" data-name="Group 21">
            <g id="Group_20" data-name="Group 20">
              <path id="Path_14" data-name="Path 14" d="M361.8,498.154a8.371,8.371,0,0,0,2.7-6.144,8.277,8.277,0,0,0-.526-2.8l-29.237-27.663a9.411,9.411,0,0,0-6.45-2.421,9.543,9.543,0,0,0-6.625,2.519,8.166,8.166,0,0,0-2.16,8.949l29.231,27.659A9.724,9.724,0,0,0,361.8,498.154Z" fill="#ccc"/>
            </g>
          </g>
          <g id="Group_23" data-name="Group 23">
            <g id="Group_22" data-name="Group 22">
              <path id="Path_15" data-name="Path 15" d="M361.712,770a9.425,9.425,0,0,0-6.465-2.418A9.549,9.549,0,0,0,348.723,770l-33.28,31.5a8.492,8.492,0,0,0,2.136,9.384,9.8,9.8,0,0,0,12.98,0l33.316-31.525a8.282,8.282,0,0,0,.63-3.128A8.439,8.439,0,0,0,361.712,770Z" fill="#ccc"/>
            </g>
          </g>
          <g id="Group_25" data-name="Group 25">
            <g id="Group_24" data-name="Group 24">
              <path id="Path_16" data-name="Path 16" d="M302.257,634.045a8.949,8.949,0,0,0-9.177-8.687H253.626a8.766,8.766,0,1,0,0,17.511H293.08A9.011,9.011,0,0,0,302.257,634.045Z" fill="#ccc"/>
            </g>
          </g>
        </g>
      </g>
    </g>
    <g id="Group_30" data-name="Group 30" style="mix-blend-mode: multiply;isolation: isolate">
      <g id="Group_29" data-name="Group 29">
        <path id="Path_17" data-name="Path 17" d="M430.8,657.43a159.9,159.9,0,1,1-159.9-159.9A159.9,159.9,0,0,1,430.8,657.43Z" fill="#69ccc0"/>
      </g>
    </g>
    <g id="Group_32" data-name="Group 32" style="mix-blend-mode: multiply;isolation: isolate">
      <g id="Group_31" data-name="Group 31">
        <circle id="Ellipse_1" data-name="Ellipse 1" cx="127.774" cy="127.774" r="127.774" transform="translate(702.525 720.295) rotate(-45)" fill="#4f5055"/>
      </g>
    </g>
    <g id="Group_34" data-name="Group 34" style="mix-blend-mode: multiply;isolation: isolate">
      <g id="Group_33" data-name="Group 33">
        <circle id="Ellipse_2" data-name="Ellipse 2" cx="237.295" cy="237.295" r="237.295" transform="translate(386.65 212.23)" fill="#fb9820"/>
      </g>
    </g>
    <g id="Group_45" data-name="Group 45">
      <g id="Group_36" data-name="Group 36">
        <g id="Group_35" data-name="Group 35">
          <path id="Path_18" data-name="Path 18" d="M214.039,675.03a.847.847,0,0,1,1.262-.623s6.8,3.328,11.691,3.328c5.273,0,8.057-2.647,8.057-6.662,0-3.834-2.409-6.024-8.509-8.671-8.431-3.559-13.927-9.217-13.927-18.161,0-10.5,7.228-18.527,19.2-18.527,5.725,0,11.895,2.649,11.895,2.649a1.438,1.438,0,0,1,.8,1.577l-2.049,8.981a.849.849,0,0,1-1.278.593,23.788,23.788,0,0,0-9.6-2.392c-4.967,0-7.377,2.738-7.377,5.932,0,3.925,2.861,5.66,9.412,8.671,8.96,4.015,13.176,9.673,13.176,18.344,0,10.312-6.551,19.073-20.481,19.073-5.8,0-13.325-3.282-13.325-3.282a1.491,1.491,0,0,1-.826-1.588Z" fill="#fff"/>
        </g>
      </g>
      <g id="Group_38" data-name="Group 38">
        <g id="Group_37" data-name="Group 37">
          <path id="Path_19" data-name="Path 19" d="M254.541,627.869a1.155,1.155,0,0,1,1.152-1.151h9.067a1.154,1.154,0,0,1,1.151,1.151v24.9a3.051,3.051,0,0,0,.113,1.151,4,4,0,0,0,.637-1.025l2.4-4.714c.3-.558.8-1.467,1.106-2.019l10.391-18.437a2.185,2.185,0,0,1,1.717-1h11.777c.633,0,.871.436.53.969l-15.547,24.255a2.251,2.251,0,0,0-.105,2l16.66,33.26a.654.654,0,0,1-.635,1.029h-11.1a1.978,1.978,0,0,1-1.639-1.043l-11.446-24.471a.6.6,0,0,0-1.131-.089l-3.08,4.571a4.438,4.438,0,0,0-.644,2.106v17.775a1.154,1.154,0,0,1-1.151,1.151h-9.067a1.155,1.155,0,0,1-1.152-1.151Z" fill="#fff"/>
        </g>
      </g>
      <g id="Group_40" data-name="Group 40">
        <g id="Group_39" data-name="Group 39">
          <path id="Path_20" data-name="Path 20" d="M311.128,626.718a1.154,1.154,0,0,1,1.151,1.151v59.21a1.154,1.154,0,0,1-1.151,1.151h-9.216a1.155,1.155,0,0,1-1.152-1.151v-59.21a1.155,1.155,0,0,1,1.152-1.151Z" fill="#fff"/>
        </g>
      </g>
      <g id="Group_42" data-name="Group 42">
        <g id="Group_41" data-name="Group 41">
          <path id="Path_21" data-name="Path 21" d="M322.214,627.869a1.154,1.154,0,0,1,1.151-1.151h9.216a1.154,1.154,0,0,1,1.151,1.151V675.4a1.154,1.154,0,0,0,1.151,1.151h17.876a1.155,1.155,0,0,1,1.152,1.152v9.379a1.155,1.155,0,0,1-1.152,1.151H323.365a1.154,1.154,0,0,1-1.151-1.151Z" fill="#fff"/>
        </g>
      </g>
      <g id="Group_44" data-name="Group 44">
        <g id="Group_43" data-name="Group 43">
          <path id="Path_22" data-name="Path 22" d="M360.678,627.869a1.155,1.155,0,0,1,1.152-1.151h9.216a1.154,1.154,0,0,1,1.151,1.151V675.4a1.154,1.154,0,0,0,1.151,1.151h17.876a1.155,1.155,0,0,1,1.151,1.152v9.379a1.154,1.154,0,0,1-1.151,1.151H361.83a1.155,1.155,0,0,1-1.152-1.151Z" fill="#fff"/>
        </g>
      </g>
    </g>
    <g id="Group_60" data-name="Group 60">
      <g id="Group_47" data-name="Group 47">
        <g id="Group_46" data-name="Group 46">
          <path id="Path_23" data-name="Path 23" d="M775.984,697.9a.962.962,0,0,1,.8-.923,95.063,95.063,0,0,1,10.29-.851c7.127,0,12.053,1.785,15.559,5.357,3.678,3.637,5.942,9.131,5.942,17.026,0,8.239-2.321,14.418-5.942,18.4-3.791,4.189-9.846,6.318-17.258,6.318-4.074,0-8.589-.525-8.589-.525a.934.934,0,0,1-.8-.9Zm6.96,37.579a.9.9,0,0,0,.809.88s1.625.138,3.039.138c9.055.068,14.43-5.973,14.43-17.713.056-10.231-4.81-16.067-13.524-16.067a23.648,23.648,0,0,0-3.956.331,1.02,1.02,0,0,0-.8.962Z" fill="#fff"/>
        </g>
      </g>
      <g id="Group_49" data-name="Group 49">
        <g id="Group_48" data-name="Group 48">
          <path id="Path_24" data-name="Path 24" d="M835.979,721.408a.814.814,0,0,1-.812.812h-12.75a.814.814,0,0,0-.812.811V735a.814.814,0,0,0,.812.811h14.447a.814.814,0,0,1,.811.812v5.311a.814.814,0,0,1-.811.812H815.456a.815.815,0,0,1-.812-.812V697.285a.814.814,0,0,1,.812-.811h20.561a.813.813,0,0,1,.811.811V702.6a.814.814,0,0,1-.811.812h-13.6a.814.814,0,0,0-.812.811v10.324a.814.814,0,0,0,.812.811h12.75a.814.814,0,0,1,.812.811Z" fill="#fff"/>
        </g>
      </g>
      <g id="Group_51" data-name="Group 51">
        <g id="Group_50" data-name="Group 50">
          <path id="Path_25" data-name="Path 25" d="M853.775,742.748a1.117,1.117,0,0,1-1.02-.784l-11.921-44.706a.593.593,0,0,1,.6-.784H847.4a1.092,1.092,0,0,1,1.006.787l4.815,19.433c.107.433.281,1.142.385,1.576l3.382,15.306a.428.428,0,1,0,.445,0l3.533-15.173c.111-.432.294-1.139.407-1.57l5.135-19.577a1.112,1.112,0,0,1,1.017-.784h5.79a.58.58,0,0,1,.589.78l-12.74,44.713a1.141,1.141,0,0,1-1.034.781Z" fill="#fff"/>
        </g>
      </g>
      <g id="Group_53" data-name="Group 53">
        <g id="Group_52" data-name="Group 52">
          <path id="Path_26" data-name="Path 26" d="M899.6,721.408a.814.814,0,0,1-.812.812H886.039a.813.813,0,0,0-.811.811V735a.813.813,0,0,0,.811.811h14.448a.814.814,0,0,1,.811.812v5.311a.814.814,0,0,1-.811.812H879.078a.814.814,0,0,1-.811-.812V697.285a.813.813,0,0,1,.811-.811H899.64a.813.813,0,0,1,.811.811V702.6a.814.814,0,0,1-.811.812h-13.6a.813.813,0,0,0-.811.811v10.324a.813.813,0,0,0,.811.811H898.79a.814.814,0,0,1,.812.811Z" fill="#fff"/>
        </g>
      </g>
      <g id="Group_55" data-name="Group 55">
        <g id="Group_54" data-name="Group 54">
          <path id="Path_27" data-name="Path 27" d="M907.421,697.285a.813.813,0,0,1,.811-.811h5.339a.813.813,0,0,1,.811.811v37.579a.813.813,0,0,0,.811.811h14.052a.814.814,0,0,1,.812.812v5.449a.814.814,0,0,1-.812.812H908.232a.814.814,0,0,1-.811-.812Z" fill="#fff"/>
        </g>
      </g>
      <g id="Group_57" data-name="Group 57">
        <g id="Group_56" data-name="Group 56">
          <path id="Path_28" data-name="Path 28" d="M966.962,719.13c0,15.516-7.751,24.372-18.277,24.372-10.752,0-17.541-9.954-17.541-23.549,0-14.211,7.356-24.236,18.108-24.236C960.4,695.717,966.962,705.948,966.962,719.13Zm-28.462.686c0,9.406,3.9,16.89,10.583,16.89,6.732,0,10.523-7.552,10.523-17.233,0-8.72-3.565-16.958-10.523-16.958C942.178,702.515,938.5,710.274,938.5,719.816Z" fill="#fff"/>
        </g>
      </g>
      <g id="Group_59" data-name="Group 59">
        <g id="Group_58" data-name="Group 58">
          <path id="Path_29" data-name="Path 29" d="M972.975,697.9a.988.988,0,0,1,.8-.941,71.731,71.731,0,0,1,9.838-.833c5.092,0,8.827,1.306,11.26,3.776a14.408,14.408,0,0,1,3.737,10.231c0,4.394-1.132,8.033-3.283,10.505-2.772,3.363-7.13,4.942-12.053,4.942a22.827,22.827,0,0,1-2.591-.169.7.7,0,0,0-.8.706v15.816a.814.814,0,0,1-.811.812h-5.282a.814.814,0,0,1-.811-.812Zm6.9,19.934a1,1,0,0,0,.8.95,16.988,16.988,0,0,0,2.6.205c5.2,0,8.375-3.09,8.375-8.513,0-5.149-2.944-7.9-7.754-7.9a18.426,18.426,0,0,0-3.22.255,1.031,1.031,0,0,0-.8.968Z" fill="#fff"/>
        </g>
      </g>
    </g>
    <g id="Group_77" data-name="Group 77">
      <g id="Group_62" data-name="Group 62">
        <g id="Group_61" data-name="Group 61">
          <path id="Path_30" data-name="Path 30" d="M292.866,380.674a1.028,1.028,0,0,0-1.025-1.025H264.1a1.028,1.028,0,0,1-1.025-1.025V355.362a1.028,1.028,0,0,1,1.025-1.025h83.219a1.028,1.028,0,0,1,1.025,1.025v23.262a1.028,1.028,0,0,1-1.025,1.025H319.076a1.028,1.028,0,0,0-1.025,1.025V486.6a1.028,1.028,0,0,1-1.025,1.025H293.892a1.029,1.029,0,0,1-1.026-1.025Z" fill="#1a1a1e"/>
        </g>
      </g>
      <g id="Group_64" data-name="Group 64">
        <g id="Group_63" data-name="Group 63">
          <path id="Path_31" data-name="Path 31" d="M361.659,357.142a1.214,1.214,0,0,1,1.015-1.166s19.065-2.629,32.4-2.629c16.462,0,27.983,2.967,35.886,10.482,6.583,6.328,10.2,15.623,10.2,27.882,0,17.007-18.79,32.184-18.79,32.184-.439.354-.8.777-.8.94a2.725,2.725,0,0,0,.706,1.04s11.308,11.913,14.107,24.174c3.458,15.03,8.808,36.578,8.808,36.578a.765.765,0,0,1-.778.995H420.79a1.473,1.473,0,0,1-1.324-.981s-4.146-13.652-7.438-30.067a27.051,27.051,0,0,0-16.964-21.047,7.993,7.993,0,0,0-2-.309h-5.522a1.028,1.028,0,0,0-1.025,1.025V486.6a1.029,1.029,0,0,1-1.026,1.025h-22.8a1.028,1.028,0,0,1-1.025-1.025Zm24.855,55.3a1.029,1.029,0,0,0,1.025,1.026h7.828a6.736,6.736,0,0,0,1.984-.362s18.958-7.154,18.958-18.82c0-12.262-6.913-18.392-18.438-18.59a61.937,61.937,0,0,0-10.35.8,1.289,1.289,0,0,0-1.007,1.215Z" fill="#1a1a1e"/>
        </g>
      </g>
      <g id="Group_66" data-name="Group 66">
        <g id="Group_65" data-name="Group 65">
          <path id="Path_32" data-name="Path 32" d="M487.606,453.41a1.355,1.355,0,0,0-1.256,1l-7.441,32.214a1.354,1.354,0,0,1-1.256,1H453.7a.76.76,0,0,1-.773-.993l33.4-131.3a1.392,1.392,0,0,1,1.278-.993h30.871a1.4,1.4,0,0,1,1.281.992l33.891,131.3a.756.756,0,0,1-.769.992H527.934a1.384,1.384,0,0,1-1.274-.994L518.6,454.4a1.385,1.385,0,0,0-1.274-.995Zm26.1-22.543a.769.769,0,0,0,.782-1l-6.426-26.287c-.134-.548-.344-1.447-.466-2l-5.171-23.7c-.112-.553-.278-1.005-.369-1.005s-.248.454-.349,1.009l-4.722,23.692c-.107.554-.3,1.456-.427,2.005l-6.119,26.282a.78.78,0,0,0,.793,1Z" fill="#1a1a1e"/>
        </g>
      </g>
      <g id="Group_68" data-name="Group 68">
        <g id="Group_67" data-name="Group 67">
          <path id="Path_33" data-name="Path 33" d="M592.863,354.337a1.028,1.028,0,0,1,1.025,1.025V486.6a1.028,1.028,0,0,1-1.025,1.025H569.729A1.028,1.028,0,0,1,568.7,486.6V355.362a1.028,1.028,0,0,1,1.025-1.025Z" fill="#1a1a1e"/>
        </g>
      </g>
      <g id="Group_70" data-name="Group 70">
        <g id="Group_69" data-name="Group 69">
          <path id="Path_34" data-name="Path 34" d="M616.634,487.622a1.028,1.028,0,0,1-1.025-1.025V355.362a1.028,1.028,0,0,1,1.025-1.025h27.249a1.77,1.77,0,0,1,1.463.927l22.17,46.991c.241.51.62,1.351.843,1.869L685.711,447.9c.193.53.462.963.6.963s.218-.46.185-1.023l-2.065-53.522c-.007-.563-.013-1.486-.013-2.05V355.362a1.028,1.028,0,0,1,1.025-1.025h20.992a1.029,1.029,0,0,1,1.026,1.025V486.6a1.029,1.029,0,0,1-1.026,1.025H682.149a1.749,1.749,0,0,1-1.454-.931l-22.847-49.553c-.236-.512-.615-1.353-.842-1.869L638.528,390.1c-.2-.526-.48-.912-.616-.858s-.234.56-.219,1.124l.953,56.09c.005.563.009,1.486.009,2.05V486.6a1.029,1.029,0,0,1-1.026,1.025Z" fill="#1a1a1e"/>
        </g>
      </g>
      <g id="Group_72" data-name="Group 72">
        <g id="Group_71" data-name="Group 71">
          <path id="Path_35" data-name="Path 35" d="M753.333,354.337a1.028,1.028,0,0,1,1.025,1.025V486.6a1.028,1.028,0,0,1-1.025,1.025H730.2a1.029,1.029,0,0,1-1.026-1.025V355.362a1.029,1.029,0,0,1,1.026-1.025Z" fill="#1a1a1e"/>
        </g>
      </g>
      <g id="Group_74" data-name="Group 74">
        <g id="Group_73" data-name="Group 73">
          <path id="Path_36" data-name="Path 36" d="M777.1,487.622a1.029,1.029,0,0,1-1.026-1.025V355.362a1.029,1.029,0,0,1,1.026-1.025h27.249a1.769,1.769,0,0,1,1.463.927l22.17,46.991c.241.51.62,1.351.842,1.869L846.181,447.9c.193.53.461.963.6.963s.219-.46.185-1.023L844.9,394.318c-.007-.563-.013-1.486-.013-2.05V355.362a1.028,1.028,0,0,1,1.025-1.025h20.995a1.028,1.028,0,0,1,1.025,1.025V486.6a1.028,1.028,0,0,1-1.025,1.025h-24.29a1.748,1.748,0,0,1-1.454-.931l-22.844-49.553c-.236-.512-.615-1.353-.842-1.869L799,390.1c-.2-.526-.48-.912-.616-.858s-.234.56-.218,1.124l.953,56.09c0,.563.008,1.486.008,2.05V486.6a1.028,1.028,0,0,1-1.025,1.025Z" fill="#1a1a1e"/>
        </g>
      </g>
      <g id="Group_76" data-name="Group 76">
        <g id="Group_75" data-name="Group 75">
          <path id="Path_37" data-name="Path 37" d="M982.319,480.466a1.527,1.527,0,0,1-.972,1.352s-21.417,7.189-36.067,7.189c-20.247,0-34.9-6.131-45.1-17.995-10.2-11.471-15.8-28.873-15.639-48.451.166-44.3,27-69.609,63.376-69.609,14.32,0,29.829,6.148,29.829,6.148a1.252,1.252,0,0,1,.734,1.38l-4.83,22.122a.824.824,0,0,1-1.164.605s-12.718-5.337-24.9-5.337c-20.906,0-36.709,14.238-36.709,43.11,0,27.487,14.323,43.7,34.9,43.7A45.074,45.074,0,0,0,957.138,463a1.466,1.466,0,0,0,.982-1.32V435.848a1.028,1.028,0,0,0-1.025-1.025H942.027A1.029,1.029,0,0,1,941,433.8V412.315a1.028,1.028,0,0,1,1.025-1.025h39.266a1.029,1.029,0,0,1,1.026,1.025Z" fill="#1a1a1e"/>
        </g>
      </g>
    </g>
  </g>
</svg>
